<?xml version="1.0" encoding="UTF-8"?>
<!DOCTYPE xmeml>
<xmeml version="4">
  <sequence id="sequence-1" TL.SQAudioVisibleBase="0" TL.SQVideoVisibleBase="0" TL.SQVisibleBaseTime="0" TL.SQAVDividerPosition="0.5" TL.SQHideShyTracks="0" TL.SQHeaderWidth="236" Monitor.ProgramZoomOut="14216428800000" Monitor.ProgramZoomIn="0" TL.SQTimePerPixel="0.19999999999999338" MZ.EditLine="0" MZ.Sequence.PreviewFrameSizeHeight="1080" MZ.Sequence.PreviewFrameSizeWidth="1920" MZ.Sequence.AudioTimeDisplayFormat="200" MZ.Sequence.VideoTimeDisplayFormat="108" explodedTracks="true">
    <rate>
      <timebase>60</timebase>
      <ntsc>FALSE</ntsc>
    </rate>
    <name>MainComp</name>
    <media>
      <video>
        <format>
          <samplecharacteristics>
            <rate>
              <timebase>60</timebase>
              <ntsc>FALSE</ntsc>
            </rate>
            <codec>
              <name>Apple ProRes 422</name>
              <appspecificdata>
                <appname>Final Cut Pro</appname>
                <appmanufacturer>Apple Inc.</appmanufacturer>
                <appversion>7.0</appversion>
                <data>
                  <qtcodec>
                    <codecname>Apple ProRes 422</codecname>
                    <codectypename>Apple ProRes 422</codectypename>
                    <codectypecode>apcn</codectypecode>
                    <codecvendorcode>appl</codecvendorcode>
                    <spatialquality>1024</spatialquality>
                    <temporalquality>0</temporalquality>
                    <keyframerate>0</keyframerate>
                    <datarate>0</datarate>
                  </qtcodec>
                </data>
              </appspecificdata>
            </codec>
            <width>1920</width>
            <height>1080</height>
            <anamorphic>FALSE</anamorphic>
            <pixelaspectratio>square</pixelaspectratio>
            <fielddominance>none</fielddominance>
            <colordepth>24</colordepth>
          </samplecharacteristics>
        </format>
        <track TL.SQTrackShy="0" TL.SQTrackExpandedHeight="25" TL.SQTrackExpanded="0" MZ.TrackTargeted="1">
          <clipitem id="clipitem-1">
            <masterclipid>masterclip-1</masterclipid>
            <name>2023-04-01 14-56-52溪神带上钻局CC.mp4</name>
            <enabled>TRUE</enabled>
            <rate>
              <timebase>60</timebase>
              <ntsc>FALSE</ntsc>
            </rate>
            <start>0</start>
            <end>17</end>
            <in>3303</in>
            <out>3320</out>
            <alphatype>none</alphatype>
            <pixelaspectratio>square</pixelaspectratio>
            <anamorphic>FALSE</anamorphic>
            <file id="file-1">
              <name>2023-04-01 14-56-52溪神带上钻局CC.mp4</name>
              <pathurl>file%3A//localhost/F%3A/MEDIA/APEX/2023-04-01%2014-56-52%E6%BA%AA%E7%A5%9E%E5%B8%A6%E4%B8%8A%E9%92%BB%E5%B1%80CC.mp4</pathurl>
              <media>
                <video>
                  <samplecharacteristics>
                    <rate>
                      <timebase>60</timebase>
                      <ntsc>FALSE</ntsc>
                    </rate>
                    <width>1920</width>
                    <height>1080</height>
                    <anamorphic>FALSE</anamorphic>
                    <pixelaspectratio>square</pixelaspectratio>
                    <fielddominance>none</fielddominance>
                  </samplecharacteristics>
                </video>
                <audio>
                  <samplecharacteristics>
                    <depth>16</depth>
                    <samplerate>48000</samplerate>
                  </samplecharacteristics>
                  <channelcount>2</channelcount>
                </audio>
                <audio>
                  <samplecharacteristics>
                    <depth>16</depth>
                    <samplerate>48000</samplerate>
                  </samplecharacteristics>
                  <channelcount>2</channelcount>
                </audio>
                <audio>
                  <samplecharacteristics>
                    <depth>16</depth>
                    <samplerate>48000</samplerate>
                  </samplecharacteristics>
                  <channelcount>2</channelcount>
                </audio>
              </media>
            </file>
            <link>
              <linkclipref>clipitem-1</linkclipref>
              <mediatype>video</mediatype>
              <trackindex>1</trackindex>
              <clipindex>1</clipindex>
            </link>
            <link>
              <linkclipref>clipitem-2</linkclipref>
              <mediatype>audio</mediatype>
              <trackindex>1</trackindex>
              <clipindex>1</clipindex>
              <groupindex>1</groupindex>
            </link>
            <link>
              <linkclipref>clipitem-3</linkclipref>
              <mediatype>audio</mediatype>
              <trackindex>2</trackindex>
              <clipindex>1</clipindex>
              <groupindex>1</groupindex>
            </link>
            <link>
              <linkclipref>clipitem-4</linkclipref>
              <mediatype>audio</mediatype>
              <trackindex>3</trackindex>
              <clipindex>1</clipindex>
              <groupindex>1</groupindex>
            </link>
            <link>
              <linkclipref>clipitem-5</linkclipref>
              <mediatype>audio</mediatype>
              <trackindex>4</trackindex>
              <clipindex>1</clipindex>
              <groupindex>1</groupindex>
            </link>
            <link>
              <linkclipref>clipitem-6</linkclipref>
              <mediatype>audio</mediatype>
              <trackindex>5</trackindex>
              <clipindex>1</clipindex>
              <groupindex>1</groupindex>
            </link>
            <link>
              <linkclipref>clipitem-7</linkclipref>
              <mediatype>audio</mediatype>
              <trackindex>6</trackindex>
              <clipindex>1</clipindex>
              <groupindex>1</groupindex>
            </link>
          </clipitem>
          <clipitem id="clipitem-8">
            <masterclipid>masterclip-1</masterclipid>
            <name>2023-04-01 14-56-52溪神带上钻局CC.mp4</name>
            <enabled>TRUE</enabled>
            <rate>
              <timebase>60</timebase>
              <ntsc>FALSE</ntsc>
            </rate>
            <start>17</start>
            <end>27</end>
            <in>6094</in>
            <out>6104</out>
            <alphatype>none</alphatype>
            <pixelaspectratio>square</pixelaspectratio>
            <anamorphic>FALSE</anamorphic>
            <file id="file-1">
              <name>2023-04-01 14-56-52溪神带上钻局CC.mp4</name>
              <pathurl>file%3A//localhost/F%3A/MEDIA/APEX/2023-04-01%2014-56-52%E6%BA%AA%E7%A5%9E%E5%B8%A6%E4%B8%8A%E9%92%BB%E5%B1%80CC.mp4</pathurl>
              <media>
                <video>
                  <samplecharacteristics>
                    <rate>
                      <timebase>60</timebase>
                      <ntsc>FALSE</ntsc>
                    </rate>
                    <width>1920</width>
                    <height>1080</height>
                    <anamorphic>FALSE</anamorphic>
                    <pixelaspectratio>square</pixelaspectratio>
                    <fielddominance>none</fielddominance>
                  </samplecharacteristics>
                </video>
                <audio>
                  <samplecharacteristics>
                    <depth>16</depth>
                    <samplerate>48000</samplerate>
                  </samplecharacteristics>
                  <channelcount>2</channelcount>
                </audio>
                <audio>
                  <samplecharacteristics>
                    <depth>16</depth>
                    <samplerate>48000</samplerate>
                  </samplecharacteristics>
                  <channelcount>2</channelcount>
                </audio>
                <audio>
                  <samplecharacteristics>
                    <depth>16</depth>
                    <samplerate>48000</samplerate>
                  </samplecharacteristics>
                  <channelcount>2</channelcount>
                </audio>
              </media>
            </file>
            <link>
              <linkclipref>clipitem-8</linkclipref>
              <mediatype>video</mediatype>
              <trackindex>1</trackindex>
              <clipindex>1</clipindex>
            </link>
            <link>
              <linkclipref>clipitem-9</linkclipref>
              <mediatype>audio</mediatype>
              <trackindex>1</trackindex>
              <clipindex>1</clipindex>
              <groupindex>1</groupindex>
            </link>
            <link>
              <linkclipref>clipitem-10</linkclipref>
              <mediatype>audio</mediatype>
              <trackindex>2</trackindex>
              <clipindex>1</clipindex>
              <groupindex>1</groupindex>
            </link>
            <link>
              <linkclipref>clipitem-11</linkclipref>
              <mediatype>audio</mediatype>
              <trackindex>3</trackindex>
              <clipindex>1</clipindex>
              <groupindex>1</groupindex>
            </link>
            <link>
              <linkclipref>clipitem-12</linkclipref>
              <mediatype>audio</mediatype>
              <trackindex>4</trackindex>
              <clipindex>1</clipindex>
              <groupindex>1</groupindex>
            </link>
            <link>
              <linkclipref>clipitem-13</linkclipref>
              <mediatype>audio</mediatype>
              <trackindex>5</trackindex>
              <clipindex>1</clipindex>
              <groupindex>1</groupindex>
            </link>
            <link>
              <linkclipref>clipitem-14</linkclipref>
              <mediatype>audio</mediatype>
              <trackindex>6</trackindex>
              <clipindex>1</clipindex>
              <groupindex>1</groupindex>
            </link>
          </clipitem>
          <clipitem id="clipitem-15">
            <masterclipid>masterclip-1</masterclipid>
            <name>2023-04-01 14-56-52溪神带上钻局CC.mp4</name>
            <enabled>TRUE</enabled>
            <rate>
              <timebase>60</timebase>
              <ntsc>FALSE</ntsc>
            </rate>
            <start>27</start>
            <end>38</end>
            <in>6096</in>
            <out>6107</out>
            <alphatype>none</alphatype>
            <pixelaspectratio>square</pixelaspectratio>
            <anamorphic>FALSE</anamorphic>
            <file id="file-1">
              <name>2023-04-01 14-56-52溪神带上钻局CC.mp4</name>
              <pathurl>file%3A//localhost/F%3A/MEDIA/APEX/2023-04-01%2014-56-52%E6%BA%AA%E7%A5%9E%E5%B8%A6%E4%B8%8A%E9%92%BB%E5%B1%80CC.mp4</pathurl>
              <media>
                <video>
                  <samplecharacteristics>
                    <rate>
                      <timebase>60</timebase>
                      <ntsc>FALSE</ntsc>
                    </rate>
                    <width>1920</width>
                    <height>1080</height>
                    <anamorphic>FALSE</anamorphic>
                    <pixelaspectratio>square</pixelaspectratio>
                    <fielddominance>none</fielddominance>
                  </samplecharacteristics>
                </video>
                <audio>
                  <samplecharacteristics>
                    <depth>16</depth>
                    <samplerate>48000</samplerate>
                  </samplecharacteristics>
                  <channelcount>2</channelcount>
                </audio>
                <audio>
                  <samplecharacteristics>
                    <depth>16</depth>
                    <samplerate>48000</samplerate>
                  </samplecharacteristics>
                  <channelcount>2</channelcount>
                </audio>
                <audio>
                  <samplecharacteristics>
                    <depth>16</depth>
                    <samplerate>48000</samplerate>
                  </samplecharacteristics>
                  <channelcount>2</channelcount>
                </audio>
              </media>
            </file>
            <link>
              <linkclipref>clipitem-15</linkclipref>
              <mediatype>video</mediatype>
              <trackindex>1</trackindex>
              <clipindex>1</clipindex>
            </link>
            <link>
              <linkclipref>clipitem-16</linkclipref>
              <mediatype>audio</mediatype>
              <trackindex>1</trackindex>
              <clipindex>1</clipindex>
              <groupindex>1</groupindex>
            </link>
            <link>
              <linkclipref>clipitem-17</linkclipref>
              <mediatype>audio</mediatype>
              <trackindex>2</trackindex>
              <clipindex>1</clipindex>
              <groupindex>1</groupindex>
            </link>
            <link>
              <linkclipref>clipitem-18</linkclipref>
              <mediatype>audio</mediatype>
              <trackindex>3</trackindex>
              <clipindex>1</clipindex>
              <groupindex>1</groupindex>
            </link>
            <link>
              <linkclipref>clipitem-19</linkclipref>
              <mediatype>audio</mediatype>
              <trackindex>4</trackindex>
              <clipindex>1</clipindex>
              <groupindex>1</groupindex>
            </link>
            <link>
              <linkclipref>clipitem-20</linkclipref>
              <mediatype>audio</mediatype>
              <trackindex>5</trackindex>
              <clipindex>1</clipindex>
              <groupindex>1</groupindex>
            </link>
            <link>
              <linkclipref>clipitem-21</linkclipref>
              <mediatype>audio</mediatype>
              <trackindex>6</trackindex>
              <clipindex>1</clipindex>
              <groupindex>1</groupindex>
            </link>
          </clipitem>
          <clipitem id="clipitem-22">
            <masterclipid>masterclip-1</masterclipid>
            <name>2023-04-01 14-56-52溪神带上钻局CC.mp4</name>
            <enabled>TRUE</enabled>
            <rate>
              <timebase>60</timebase>
              <ntsc>FALSE</ntsc>
            </rate>
            <start>38</start>
            <end>174</end>
            <in>15816</in>
            <out>15952</out>
            <alphatype>none</alphatype>
            <pixelaspectratio>square</pixelaspectratio>
            <anamorphic>FALSE</anamorphic>
            <file id="file-1">
              <name>2023-04-01 14-56-52溪神带上钻局CC.mp4</name>
              <pathurl>file%3A//localhost/F%3A/MEDIA/APEX/2023-04-01%2014-56-52%E6%BA%AA%E7%A5%9E%E5%B8%A6%E4%B8%8A%E9%92%BB%E5%B1%80CC.mp4</pathurl>
              <media>
                <video>
                  <samplecharacteristics>
                    <rate>
                      <timebase>60</timebase>
                      <ntsc>FALSE</ntsc>
                    </rate>
                    <width>1920</width>
                    <height>1080</height>
                    <anamorphic>FALSE</anamorphic>
                    <pixelaspectratio>square</pixelaspectratio>
                    <fielddominance>none</fielddominance>
                  </samplecharacteristics>
                </video>
                <audio>
                  <samplecharacteristics>
                    <depth>16</depth>
                    <samplerate>48000</samplerate>
                  </samplecharacteristics>
                  <channelcount>2</channelcount>
                </audio>
                <audio>
                  <samplecharacteristics>
                    <depth>16</depth>
                    <samplerate>48000</samplerate>
                  </samplecharacteristics>
                  <channelcount>2</channelcount>
                </audio>
                <audio>
                  <samplecharacteristics>
                    <depth>16</depth>
                    <samplerate>48000</samplerate>
                  </samplecharacteristics>
                  <channelcount>2</channelcount>
                </audio>
              </media>
            </file>
            <link>
              <linkclipref>clipitem-22</linkclipref>
              <mediatype>video</mediatype>
              <trackindex>1</trackindex>
              <clipindex>1</clipindex>
            </link>
            <link>
              <linkclipref>clipitem-23</linkclipref>
              <mediatype>audio</mediatype>
              <trackindex>1</trackindex>
              <clipindex>1</clipindex>
              <groupindex>1</groupindex>
            </link>
            <link>
              <linkclipref>clipitem-24</linkclipref>
              <mediatype>audio</mediatype>
              <trackindex>2</trackindex>
              <clipindex>1</clipindex>
              <groupindex>1</groupindex>
            </link>
            <link>
              <linkclipref>clipitem-25</linkclipref>
              <mediatype>audio</mediatype>
              <trackindex>3</trackindex>
              <clipindex>1</clipindex>
              <groupindex>1</groupindex>
            </link>
            <link>
              <linkclipref>clipitem-26</linkclipref>
              <mediatype>audio</mediatype>
              <trackindex>4</trackindex>
              <clipindex>1</clipindex>
              <groupindex>1</groupindex>
            </link>
            <link>
              <linkclipref>clipitem-27</linkclipref>
              <mediatype>audio</mediatype>
              <trackindex>5</trackindex>
              <clipindex>1</clipindex>
              <groupindex>1</groupindex>
            </link>
            <link>
              <linkclipref>clipitem-28</linkclipref>
              <mediatype>audio</mediatype>
              <trackindex>6</trackindex>
              <clipindex>1</clipindex>
              <groupindex>1</groupindex>
            </link>
          </clipitem>
          <clipitem id="clipitem-29">
            <masterclipid>masterclip-1</masterclipid>
            <name>2023-04-01 14-56-52溪神带上钻局CC.mp4</name>
            <enabled>TRUE</enabled>
            <rate>
              <timebase>60</timebase>
              <ntsc>FALSE</ntsc>
            </rate>
            <start>174</start>
            <end>347</end>
            <in>15978</in>
            <out>16151</out>
            <alphatype>none</alphatype>
            <pixelaspectratio>square</pixelaspectratio>
            <anamorphic>FALSE</anamorphic>
            <file id="file-1">
              <name>2023-04-01 14-56-52溪神带上钻局CC.mp4</name>
              <pathurl>file%3A//localhost/F%3A/MEDIA/APEX/2023-04-01%2014-56-52%E6%BA%AA%E7%A5%9E%E5%B8%A6%E4%B8%8A%E9%92%BB%E5%B1%80CC.mp4</pathurl>
              <media>
                <video>
                  <samplecharacteristics>
                    <rate>
                      <timebase>60</timebase>
                      <ntsc>FALSE</ntsc>
                    </rate>
                    <width>1920</width>
                    <height>1080</height>
                    <anamorphic>FALSE</anamorphic>
                    <pixelaspectratio>square</pixelaspectratio>
                    <fielddominance>none</fielddominance>
                  </samplecharacteristics>
                </video>
                <audio>
                  <samplecharacteristics>
                    <depth>16</depth>
                    <samplerate>48000</samplerate>
                  </samplecharacteristics>
                  <channelcount>2</channelcount>
                </audio>
                <audio>
                  <samplecharacteristics>
                    <depth>16</depth>
                    <samplerate>48000</samplerate>
                  </samplecharacteristics>
                  <channelcount>2</channelcount>
                </audio>
                <audio>
                  <samplecharacteristics>
                    <depth>16</depth>
                    <samplerate>48000</samplerate>
                  </samplecharacteristics>
                  <channelcount>2</channelcount>
                </audio>
              </media>
            </file>
            <link>
              <linkclipref>clipitem-29</linkclipref>
              <mediatype>video</mediatype>
              <trackindex>1</trackindex>
              <clipindex>1</clipindex>
            </link>
            <link>
              <linkclipref>clipitem-30</linkclipref>
              <mediatype>audio</mediatype>
              <trackindex>1</trackindex>
              <clipindex>1</clipindex>
              <groupindex>1</groupindex>
            </link>
            <link>
              <linkclipref>clipitem-31</linkclipref>
              <mediatype>audio</mediatype>
              <trackindex>2</trackindex>
              <clipindex>1</clipindex>
              <groupindex>1</groupindex>
            </link>
            <link>
              <linkclipref>clipitem-32</linkclipref>
              <mediatype>audio</mediatype>
              <trackindex>3</trackindex>
              <clipindex>1</clipindex>
              <groupindex>1</groupindex>
            </link>
            <link>
              <linkclipref>clipitem-33</linkclipref>
              <mediatype>audio</mediatype>
              <trackindex>4</trackindex>
              <clipindex>1</clipindex>
              <groupindex>1</groupindex>
            </link>
            <link>
              <linkclipref>clipitem-34</linkclipref>
              <mediatype>audio</mediatype>
              <trackindex>5</trackindex>
              <clipindex>1</clipindex>
              <groupindex>1</groupindex>
            </link>
            <link>
              <linkclipref>clipitem-35</linkclipref>
              <mediatype>audio</mediatype>
              <trackindex>6</trackindex>
              <clipindex>1</clipindex>
              <groupindex>1</groupindex>
            </link>
          </clipitem>
          <clipitem id="clipitem-36">
            <masterclipid>masterclip-1</masterclipid>
            <name>2023-04-01 14-56-52溪神带上钻局CC.mp4</name>
            <enabled>TRUE</enabled>
            <rate>
              <timebase>60</timebase>
              <ntsc>FALSE</ntsc>
            </rate>
            <start>347</start>
            <end>454</end>
            <in>16564</in>
            <out>16671</out>
            <alphatype>none</alphatype>
            <pixelaspectratio>square</pixelaspectratio>
            <anamorphic>FALSE</anamorphic>
            <file id="file-1">
              <name>2023-04-01 14-56-52溪神带上钻局CC.mp4</name>
              <pathurl>file%3A//localhost/F%3A/MEDIA/APEX/2023-04-01%2014-56-52%E6%BA%AA%E7%A5%9E%E5%B8%A6%E4%B8%8A%E9%92%BB%E5%B1%80CC.mp4</pathurl>
              <media>
                <video>
                  <samplecharacteristics>
                    <rate>
                      <timebase>60</timebase>
                      <ntsc>FALSE</ntsc>
                    </rate>
                    <width>1920</width>
                    <height>1080</height>
                    <anamorphic>FALSE</anamorphic>
                    <pixelaspectratio>square</pixelaspectratio>
                    <fielddominance>none</fielddominance>
                  </samplecharacteristics>
                </video>
                <audio>
                  <samplecharacteristics>
                    <depth>16</depth>
                    <samplerate>48000</samplerate>
                  </samplecharacteristics>
                  <channelcount>2</channelcount>
                </audio>
                <audio>
                  <samplecharacteristics>
                    <depth>16</depth>
                    <samplerate>48000</samplerate>
                  </samplecharacteristics>
                  <channelcount>2</channelcount>
                </audio>
                <audio>
                  <samplecharacteristics>
                    <depth>16</depth>
                    <samplerate>48000</samplerate>
                  </samplecharacteristics>
                  <channelcount>2</channelcount>
                </audio>
              </media>
            </file>
            <link>
              <linkclipref>clipitem-36</linkclipref>
              <mediatype>video</mediatype>
              <trackindex>1</trackindex>
              <clipindex>1</clipindex>
            </link>
            <link>
              <linkclipref>clipitem-37</linkclipref>
              <mediatype>audio</mediatype>
              <trackindex>1</trackindex>
              <clipindex>1</clipindex>
              <groupindex>1</groupindex>
            </link>
            <link>
              <linkclipref>clipitem-38</linkclipref>
              <mediatype>audio</mediatype>
              <trackindex>2</trackindex>
              <clipindex>1</clipindex>
              <groupindex>1</groupindex>
            </link>
            <link>
              <linkclipref>clipitem-39</linkclipref>
              <mediatype>audio</mediatype>
              <trackindex>3</trackindex>
              <clipindex>1</clipindex>
              <groupindex>1</groupindex>
            </link>
            <link>
              <linkclipref>clipitem-40</linkclipref>
              <mediatype>audio</mediatype>
              <trackindex>4</trackindex>
              <clipindex>1</clipindex>
              <groupindex>1</groupindex>
            </link>
            <link>
              <linkclipref>clipitem-41</linkclipref>
              <mediatype>audio</mediatype>
              <trackindex>5</trackindex>
              <clipindex>1</clipindex>
              <groupindex>1</groupindex>
            </link>
            <link>
              <linkclipref>clipitem-42</linkclipref>
              <mediatype>audio</mediatype>
              <trackindex>6</trackindex>
              <clipindex>1</clipindex>
              <groupindex>1</groupindex>
            </link>
          </clipitem>
          <clipitem id="clipitem-43">
            <masterclipid>masterclip-1</masterclipid>
            <name>2023-04-01 14-56-52溪神带上钻局CC.mp4</name>
            <enabled>TRUE</enabled>
            <rate>
              <timebase>60</timebase>
              <ntsc>FALSE</ntsc>
            </rate>
            <start>454</start>
            <end>572</end>
            <in>17900</in>
            <out>18018</out>
            <alphatype>none</alphatype>
            <pixelaspectratio>square</pixelaspectratio>
            <anamorphic>FALSE</anamorphic>
            <file id="file-1">
              <name>2023-04-01 14-56-52溪神带上钻局CC.mp4</name>
              <pathurl>file%3A//localhost/F%3A/MEDIA/APEX/2023-04-01%2014-56-52%E6%BA%AA%E7%A5%9E%E5%B8%A6%E4%B8%8A%E9%92%BB%E5%B1%80CC.mp4</pathurl>
              <media>
                <video>
                  <samplecharacteristics>
                    <rate>
                      <timebase>60</timebase>
                      <ntsc>FALSE</ntsc>
                    </rate>
                    <width>1920</width>
                    <height>1080</height>
                    <anamorphic>FALSE</anamorphic>
                    <pixelaspectratio>square</pixelaspectratio>
                    <fielddominance>none</fielddominance>
                  </samplecharacteristics>
                </video>
                <audio>
                  <samplecharacteristics>
                    <depth>16</depth>
                    <samplerate>48000</samplerate>
                  </samplecharacteristics>
                  <channelcount>2</channelcount>
                </audio>
                <audio>
                  <samplecharacteristics>
                    <depth>16</depth>
                    <samplerate>48000</samplerate>
                  </samplecharacteristics>
                  <channelcount>2</channelcount>
                </audio>
                <audio>
                  <samplecharacteristics>
                    <depth>16</depth>
                    <samplerate>48000</samplerate>
                  </samplecharacteristics>
                  <channelcount>2</channelcount>
                </audio>
              </media>
            </file>
            <link>
              <linkclipref>clipitem-43</linkclipref>
              <mediatype>video</mediatype>
              <trackindex>1</trackindex>
              <clipindex>1</clipindex>
            </link>
            <link>
              <linkclipref>clipitem-44</linkclipref>
              <mediatype>audio</mediatype>
              <trackindex>1</trackindex>
              <clipindex>1</clipindex>
              <groupindex>1</groupindex>
            </link>
            <link>
              <linkclipref>clipitem-45</linkclipref>
              <mediatype>audio</mediatype>
              <trackindex>2</trackindex>
              <clipindex>1</clipindex>
              <groupindex>1</groupindex>
            </link>
            <link>
              <linkclipref>clipitem-46</linkclipref>
              <mediatype>audio</mediatype>
              <trackindex>3</trackindex>
              <clipindex>1</clipindex>
              <groupindex>1</groupindex>
            </link>
            <link>
              <linkclipref>clipitem-47</linkclipref>
              <mediatype>audio</mediatype>
              <trackindex>4</trackindex>
              <clipindex>1</clipindex>
              <groupindex>1</groupindex>
            </link>
            <link>
              <linkclipref>clipitem-48</linkclipref>
              <mediatype>audio</mediatype>
              <trackindex>5</trackindex>
              <clipindex>1</clipindex>
              <groupindex>1</groupindex>
            </link>
            <link>
              <linkclipref>clipitem-49</linkclipref>
              <mediatype>audio</mediatype>
              <trackindex>6</trackindex>
              <clipindex>1</clipindex>
              <groupindex>1</groupindex>
            </link>
          </clipitem>
          <clipitem id="clipitem-50">
            <masterclipid>masterclip-1</masterclipid>
            <name>2023-04-01 14-56-52溪神带上钻局CC.mp4</name>
            <enabled>TRUE</enabled>
            <rate>
              <timebase>60</timebase>
              <ntsc>FALSE</ntsc>
            </rate>
            <start>572</start>
            <end>727</end>
            <in>20147</in>
            <out>20302</out>
            <alphatype>none</alphatype>
            <pixelaspectratio>square</pixelaspectratio>
            <anamorphic>FALSE</anamorphic>
            <file id="file-1">
              <name>2023-04-01 14-56-52溪神带上钻局CC.mp4</name>
              <pathurl>file%3A//localhost/F%3A/MEDIA/APEX/2023-04-01%2014-56-52%E6%BA%AA%E7%A5%9E%E5%B8%A6%E4%B8%8A%E9%92%BB%E5%B1%80CC.mp4</pathurl>
              <media>
                <video>
                  <samplecharacteristics>
                    <rate>
                      <timebase>60</timebase>
                      <ntsc>FALSE</ntsc>
                    </rate>
                    <width>1920</width>
                    <height>1080</height>
                    <anamorphic>FALSE</anamorphic>
                    <pixelaspectratio>square</pixelaspectratio>
                    <fielddominance>none</fielddominance>
                  </samplecharacteristics>
                </video>
                <audio>
                  <samplecharacteristics>
                    <depth>16</depth>
                    <samplerate>48000</samplerate>
                  </samplecharacteristics>
                  <channelcount>2</channelcount>
                </audio>
                <audio>
                  <samplecharacteristics>
                    <depth>16</depth>
                    <samplerate>48000</samplerate>
                  </samplecharacteristics>
                  <channelcount>2</channelcount>
                </audio>
                <audio>
                  <samplecharacteristics>
                    <depth>16</depth>
                    <samplerate>48000</samplerate>
                  </samplecharacteristics>
                  <channelcount>2</channelcount>
                </audio>
              </media>
            </file>
            <link>
              <linkclipref>clipitem-50</linkclipref>
              <mediatype>video</mediatype>
              <trackindex>1</trackindex>
              <clipindex>1</clipindex>
            </link>
            <link>
              <linkclipref>clipitem-51</linkclipref>
              <mediatype>audio</mediatype>
              <trackindex>1</trackindex>
              <clipindex>1</clipindex>
              <groupindex>1</groupindex>
            </link>
            <link>
              <linkclipref>clipitem-52</linkclipref>
              <mediatype>audio</mediatype>
              <trackindex>2</trackindex>
              <clipindex>1</clipindex>
              <groupindex>1</groupindex>
            </link>
            <link>
              <linkclipref>clipitem-53</linkclipref>
              <mediatype>audio</mediatype>
              <trackindex>3</trackindex>
              <clipindex>1</clipindex>
              <groupindex>1</groupindex>
            </link>
            <link>
              <linkclipref>clipitem-54</linkclipref>
              <mediatype>audio</mediatype>
              <trackindex>4</trackindex>
              <clipindex>1</clipindex>
              <groupindex>1</groupindex>
            </link>
            <link>
              <linkclipref>clipitem-55</linkclipref>
              <mediatype>audio</mediatype>
              <trackindex>5</trackindex>
              <clipindex>1</clipindex>
              <groupindex>1</groupindex>
            </link>
            <link>
              <linkclipref>clipitem-56</linkclipref>
              <mediatype>audio</mediatype>
              <trackindex>6</trackindex>
              <clipindex>1</clipindex>
              <groupindex>1</groupindex>
            </link>
          </clipitem>
          <clipitem id="clipitem-57">
            <masterclipid>masterclip-1</masterclipid>
            <name>2023-04-01 14-56-52溪神带上钻局CC.mp4</name>
            <enabled>TRUE</enabled>
            <rate>
              <timebase>60</timebase>
              <ntsc>FALSE</ntsc>
            </rate>
            <start>727</start>
            <end>875</end>
            <in>21756</in>
            <out>21904</out>
            <alphatype>none</alphatype>
            <pixelaspectratio>square</pixelaspectratio>
            <anamorphic>FALSE</anamorphic>
            <file id="file-1">
              <name>2023-04-01 14-56-52溪神带上钻局CC.mp4</name>
              <pathurl>file%3A//localhost/F%3A/MEDIA/APEX/2023-04-01%2014-56-52%E6%BA%AA%E7%A5%9E%E5%B8%A6%E4%B8%8A%E9%92%BB%E5%B1%80CC.mp4</pathurl>
              <media>
                <video>
                  <samplecharacteristics>
                    <rate>
                      <timebase>60</timebase>
                      <ntsc>FALSE</ntsc>
                    </rate>
                    <width>1920</width>
                    <height>1080</height>
                    <anamorphic>FALSE</anamorphic>
                    <pixelaspectratio>square</pixelaspectratio>
                    <fielddominance>none</fielddominance>
                  </samplecharacteristics>
                </video>
                <audio>
                  <samplecharacteristics>
                    <depth>16</depth>
                    <samplerate>48000</samplerate>
                  </samplecharacteristics>
                  <channelcount>2</channelcount>
                </audio>
                <audio>
                  <samplecharacteristics>
                    <depth>16</depth>
                    <samplerate>48000</samplerate>
                  </samplecharacteristics>
                  <channelcount>2</channelcount>
                </audio>
                <audio>
                  <samplecharacteristics>
                    <depth>16</depth>
                    <samplerate>48000</samplerate>
                  </samplecharacteristics>
                  <channelcount>2</channelcount>
                </audio>
              </media>
            </file>
            <link>
              <linkclipref>clipitem-57</linkclipref>
              <mediatype>video</mediatype>
              <trackindex>1</trackindex>
              <clipindex>1</clipindex>
            </link>
            <link>
              <linkclipref>clipitem-58</linkclipref>
              <mediatype>audio</mediatype>
              <trackindex>1</trackindex>
              <clipindex>1</clipindex>
              <groupindex>1</groupindex>
            </link>
            <link>
              <linkclipref>clipitem-59</linkclipref>
              <mediatype>audio</mediatype>
              <trackindex>2</trackindex>
              <clipindex>1</clipindex>
              <groupindex>1</groupindex>
            </link>
            <link>
              <linkclipref>clipitem-60</linkclipref>
              <mediatype>audio</mediatype>
              <trackindex>3</trackindex>
              <clipindex>1</clipindex>
              <groupindex>1</groupindex>
            </link>
            <link>
              <linkclipref>clipitem-61</linkclipref>
              <mediatype>audio</mediatype>
              <trackindex>4</trackindex>
              <clipindex>1</clipindex>
              <groupindex>1</groupindex>
            </link>
            <link>
              <linkclipref>clipitem-62</linkclipref>
              <mediatype>audio</mediatype>
              <trackindex>5</trackindex>
              <clipindex>1</clipindex>
              <groupindex>1</groupindex>
            </link>
            <link>
              <linkclipref>clipitem-63</linkclipref>
              <mediatype>audio</mediatype>
              <trackindex>6</trackindex>
              <clipindex>1</clipindex>
              <groupindex>1</groupindex>
            </link>
          </clipitem>
          <clipitem id="clipitem-64">
            <masterclipid>masterclip-1</masterclipid>
            <name>2023-04-01 14-56-52溪神带上钻局CC.mp4</name>
            <enabled>TRUE</enabled>
            <rate>
              <timebase>60</timebase>
              <ntsc>FALSE</ntsc>
            </rate>
            <start>875</start>
            <end>1011</end>
            <in>22231</in>
            <out>22367</out>
            <alphatype>none</alphatype>
            <pixelaspectratio>square</pixelaspectratio>
            <anamorphic>FALSE</anamorphic>
            <file id="file-1">
              <name>2023-04-01 14-56-52溪神带上钻局CC.mp4</name>
              <pathurl>file%3A//localhost/F%3A/MEDIA/APEX/2023-04-01%2014-56-52%E6%BA%AA%E7%A5%9E%E5%B8%A6%E4%B8%8A%E9%92%BB%E5%B1%80CC.mp4</pathurl>
              <media>
                <video>
                  <samplecharacteristics>
                    <rate>
                      <timebase>60</timebase>
                      <ntsc>FALSE</ntsc>
                    </rate>
                    <width>1920</width>
                    <height>1080</height>
                    <anamorphic>FALSE</anamorphic>
                    <pixelaspectratio>square</pixelaspectratio>
                    <fielddominance>none</fielddominance>
                  </samplecharacteristics>
                </video>
                <audio>
                  <samplecharacteristics>
                    <depth>16</depth>
                    <samplerate>48000</samplerate>
                  </samplecharacteristics>
                  <channelcount>2</channelcount>
                </audio>
                <audio>
                  <samplecharacteristics>
                    <depth>16</depth>
                    <samplerate>48000</samplerate>
                  </samplecharacteristics>
                  <channelcount>2</channelcount>
                </audio>
                <audio>
                  <samplecharacteristics>
                    <depth>16</depth>
                    <samplerate>48000</samplerate>
                  </samplecharacteristics>
                  <channelcount>2</channelcount>
                </audio>
              </media>
            </file>
            <link>
              <linkclipref>clipitem-64</linkclipref>
              <mediatype>video</mediatype>
              <trackindex>1</trackindex>
              <clipindex>1</clipindex>
            </link>
            <link>
              <linkclipref>clipitem-65</linkclipref>
              <mediatype>audio</mediatype>
              <trackindex>1</trackindex>
              <clipindex>1</clipindex>
              <groupindex>1</groupindex>
            </link>
            <link>
              <linkclipref>clipitem-66</linkclipref>
              <mediatype>audio</mediatype>
              <trackindex>2</trackindex>
              <clipindex>1</clipindex>
              <groupindex>1</groupindex>
            </link>
            <link>
              <linkclipref>clipitem-67</linkclipref>
              <mediatype>audio</mediatype>
              <trackindex>3</trackindex>
              <clipindex>1</clipindex>
              <groupindex>1</groupindex>
            </link>
            <link>
              <linkclipref>clipitem-68</linkclipref>
              <mediatype>audio</mediatype>
              <trackindex>4</trackindex>
              <clipindex>1</clipindex>
              <groupindex>1</groupindex>
            </link>
            <link>
              <linkclipref>clipitem-69</linkclipref>
              <mediatype>audio</mediatype>
              <trackindex>5</trackindex>
              <clipindex>1</clipindex>
              <groupindex>1</groupindex>
            </link>
            <link>
              <linkclipref>clipitem-70</linkclipref>
              <mediatype>audio</mediatype>
              <trackindex>6</trackindex>
              <clipindex>1</clipindex>
              <groupindex>1</groupindex>
            </link>
          </clipitem>
          <clipitem id="clipitem-71">
            <masterclipid>masterclip-1</masterclipid>
            <name>2023-04-01 14-56-52溪神带上钻局CC.mp4</name>
            <enabled>TRUE</enabled>
            <rate>
              <timebase>60</timebase>
              <ntsc>FALSE</ntsc>
            </rate>
            <start>1011</start>
            <end>1086</end>
            <in>22676</in>
            <out>22751</out>
            <alphatype>none</alphatype>
            <pixelaspectratio>square</pixelaspectratio>
            <anamorphic>FALSE</anamorphic>
            <file id="file-1">
              <name>2023-04-01 14-56-52溪神带上钻局CC.mp4</name>
              <pathurl>file%3A//localhost/F%3A/MEDIA/APEX/2023-04-01%2014-56-52%E6%BA%AA%E7%A5%9E%E5%B8%A6%E4%B8%8A%E9%92%BB%E5%B1%80CC.mp4</pathurl>
              <media>
                <video>
                  <samplecharacteristics>
                    <rate>
                      <timebase>60</timebase>
                      <ntsc>FALSE</ntsc>
                    </rate>
                    <width>1920</width>
                    <height>1080</height>
                    <anamorphic>FALSE</anamorphic>
                    <pixelaspectratio>square</pixelaspectratio>
                    <fielddominance>none</fielddominance>
                  </samplecharacteristics>
                </video>
                <audio>
                  <samplecharacteristics>
                    <depth>16</depth>
                    <samplerate>48000</samplerate>
                  </samplecharacteristics>
                  <channelcount>2</channelcount>
                </audio>
                <audio>
                  <samplecharacteristics>
                    <depth>16</depth>
                    <samplerate>48000</samplerate>
                  </samplecharacteristics>
                  <channelcount>2</channelcount>
                </audio>
                <audio>
                  <samplecharacteristics>
                    <depth>16</depth>
                    <samplerate>48000</samplerate>
                  </samplecharacteristics>
                  <channelcount>2</channelcount>
                </audio>
              </media>
            </file>
            <link>
              <linkclipref>clipitem-71</linkclipref>
              <mediatype>video</mediatype>
              <trackindex>1</trackindex>
              <clipindex>1</clipindex>
            </link>
            <link>
              <linkclipref>clipitem-72</linkclipref>
              <mediatype>audio</mediatype>
              <trackindex>1</trackindex>
              <clipindex>1</clipindex>
              <groupindex>1</groupindex>
            </link>
            <link>
              <linkclipref>clipitem-73</linkclipref>
              <mediatype>audio</mediatype>
              <trackindex>2</trackindex>
              <clipindex>1</clipindex>
              <groupindex>1</groupindex>
            </link>
            <link>
              <linkclipref>clipitem-74</linkclipref>
              <mediatype>audio</mediatype>
              <trackindex>3</trackindex>
              <clipindex>1</clipindex>
              <groupindex>1</groupindex>
            </link>
            <link>
              <linkclipref>clipitem-75</linkclipref>
              <mediatype>audio</mediatype>
              <trackindex>4</trackindex>
              <clipindex>1</clipindex>
              <groupindex>1</groupindex>
            </link>
            <link>
              <linkclipref>clipitem-76</linkclipref>
              <mediatype>audio</mediatype>
              <trackindex>5</trackindex>
              <clipindex>1</clipindex>
              <groupindex>1</groupindex>
            </link>
            <link>
              <linkclipref>clipitem-77</linkclipref>
              <mediatype>audio</mediatype>
              <trackindex>6</trackindex>
              <clipindex>1</clipindex>
              <groupindex>1</groupindex>
            </link>
          </clipitem>
          <clipitem id="clipitem-78">
            <masterclipid>masterclip-1</masterclipid>
            <name>2023-04-01 14-56-52溪神带上钻局CC.mp4</name>
            <enabled>TRUE</enabled>
            <rate>
              <timebase>60</timebase>
              <ntsc>FALSE</ntsc>
            </rate>
            <start>1086</start>
            <end>1222</end>
            <in>23095</in>
            <out>23231</out>
            <alphatype>none</alphatype>
            <pixelaspectratio>square</pixelaspectratio>
            <anamorphic>FALSE</anamorphic>
            <file id="file-1">
              <name>2023-04-01 14-56-52溪神带上钻局CC.mp4</name>
              <pathurl>file%3A//localhost/F%3A/MEDIA/APEX/2023-04-01%2014-56-52%E6%BA%AA%E7%A5%9E%E5%B8%A6%E4%B8%8A%E9%92%BB%E5%B1%80CC.mp4</pathurl>
              <media>
                <video>
                  <samplecharacteristics>
                    <rate>
                      <timebase>60</timebase>
                      <ntsc>FALSE</ntsc>
                    </rate>
                    <width>1920</width>
                    <height>1080</height>
                    <anamorphic>FALSE</anamorphic>
                    <pixelaspectratio>square</pixelaspectratio>
                    <fielddominance>none</fielddominance>
                  </samplecharacteristics>
                </video>
                <audio>
                  <samplecharacteristics>
                    <depth>16</depth>
                    <samplerate>48000</samplerate>
                  </samplecharacteristics>
                  <channelcount>2</channelcount>
                </audio>
                <audio>
                  <samplecharacteristics>
                    <depth>16</depth>
                    <samplerate>48000</samplerate>
                  </samplecharacteristics>
                  <channelcount>2</channelcount>
                </audio>
                <audio>
                  <samplecharacteristics>
                    <depth>16</depth>
                    <samplerate>48000</samplerate>
                  </samplecharacteristics>
                  <channelcount>2</channelcount>
                </audio>
              </media>
            </file>
            <link>
              <linkclipref>clipitem-78</linkclipref>
              <mediatype>video</mediatype>
              <trackindex>1</trackindex>
              <clipindex>1</clipindex>
            </link>
            <link>
              <linkclipref>clipitem-79</linkclipref>
              <mediatype>audio</mediatype>
              <trackindex>1</trackindex>
              <clipindex>1</clipindex>
              <groupindex>1</groupindex>
            </link>
            <link>
              <linkclipref>clipitem-80</linkclipref>
              <mediatype>audio</mediatype>
              <trackindex>2</trackindex>
              <clipindex>1</clipindex>
              <groupindex>1</groupindex>
            </link>
            <link>
              <linkclipref>clipitem-81</linkclipref>
              <mediatype>audio</mediatype>
              <trackindex>3</trackindex>
              <clipindex>1</clipindex>
              <groupindex>1</groupindex>
            </link>
            <link>
              <linkclipref>clipitem-82</linkclipref>
              <mediatype>audio</mediatype>
              <trackindex>4</trackindex>
              <clipindex>1</clipindex>
              <groupindex>1</groupindex>
            </link>
            <link>
              <linkclipref>clipitem-83</linkclipref>
              <mediatype>audio</mediatype>
              <trackindex>5</trackindex>
              <clipindex>1</clipindex>
              <groupindex>1</groupindex>
            </link>
            <link>
              <linkclipref>clipitem-84</linkclipref>
              <mediatype>audio</mediatype>
              <trackindex>6</trackindex>
              <clipindex>1</clipindex>
              <groupindex>1</groupindex>
            </link>
          </clipitem>
          <clipitem id="clipitem-85">
            <masterclipid>masterclip-1</masterclipid>
            <name>2023-04-01 14-56-52溪神带上钻局CC.mp4</name>
            <enabled>TRUE</enabled>
            <rate>
              <timebase>60</timebase>
              <ntsc>FALSE</ntsc>
            </rate>
            <start>1222</start>
            <end>1377</end>
            <in>23363</in>
            <out>23518</out>
            <alphatype>none</alphatype>
            <pixelaspectratio>square</pixelaspectratio>
            <anamorphic>FALSE</anamorphic>
            <file id="file-1">
              <name>2023-04-01 14-56-52溪神带上钻局CC.mp4</name>
              <pathurl>file%3A//localhost/F%3A/MEDIA/APEX/2023-04-01%2014-56-52%E6%BA%AA%E7%A5%9E%E5%B8%A6%E4%B8%8A%E9%92%BB%E5%B1%80CC.mp4</pathurl>
              <media>
                <video>
                  <samplecharacteristics>
                    <rate>
                      <timebase>60</timebase>
                      <ntsc>FALSE</ntsc>
                    </rate>
                    <width>1920</width>
                    <height>1080</height>
                    <anamorphic>FALSE</anamorphic>
                    <pixelaspectratio>square</pixelaspectratio>
                    <fielddominance>none</fielddominance>
                  </samplecharacteristics>
                </video>
                <audio>
                  <samplecharacteristics>
                    <depth>16</depth>
                    <samplerate>48000</samplerate>
                  </samplecharacteristics>
                  <channelcount>2</channelcount>
                </audio>
                <audio>
                  <samplecharacteristics>
                    <depth>16</depth>
                    <samplerate>48000</samplerate>
                  </samplecharacteristics>
                  <channelcount>2</channelcount>
                </audio>
                <audio>
                  <samplecharacteristics>
                    <depth>16</depth>
                    <samplerate>48000</samplerate>
                  </samplecharacteristics>
                  <channelcount>2</channelcount>
                </audio>
              </media>
            </file>
            <link>
              <linkclipref>clipitem-85</linkclipref>
              <mediatype>video</mediatype>
              <trackindex>1</trackindex>
              <clipindex>1</clipindex>
            </link>
            <link>
              <linkclipref>clipitem-86</linkclipref>
              <mediatype>audio</mediatype>
              <trackindex>1</trackindex>
              <clipindex>1</clipindex>
              <groupindex>1</groupindex>
            </link>
            <link>
              <linkclipref>clipitem-87</linkclipref>
              <mediatype>audio</mediatype>
              <trackindex>2</trackindex>
              <clipindex>1</clipindex>
              <groupindex>1</groupindex>
            </link>
            <link>
              <linkclipref>clipitem-88</linkclipref>
              <mediatype>audio</mediatype>
              <trackindex>3</trackindex>
              <clipindex>1</clipindex>
              <groupindex>1</groupindex>
            </link>
            <link>
              <linkclipref>clipitem-89</linkclipref>
              <mediatype>audio</mediatype>
              <trackindex>4</trackindex>
              <clipindex>1</clipindex>
              <groupindex>1</groupindex>
            </link>
            <link>
              <linkclipref>clipitem-90</linkclipref>
              <mediatype>audio</mediatype>
              <trackindex>5</trackindex>
              <clipindex>1</clipindex>
              <groupindex>1</groupindex>
            </link>
            <link>
              <linkclipref>clipitem-91</linkclipref>
              <mediatype>audio</mediatype>
              <trackindex>6</trackindex>
              <clipindex>1</clipindex>
              <groupindex>1</groupindex>
            </link>
          </clipitem>
          <clipitem id="clipitem-92">
            <masterclipid>masterclip-1</masterclipid>
            <name>2023-04-01 14-56-52溪神带上钻局CC.mp4</name>
            <enabled>TRUE</enabled>
            <rate>
              <timebase>60</timebase>
              <ntsc>FALSE</ntsc>
            </rate>
            <start>1377</start>
            <end>1585</end>
            <in>23972</in>
            <out>24180</out>
            <alphatype>none</alphatype>
            <pixelaspectratio>square</pixelaspectratio>
            <anamorphic>FALSE</anamorphic>
            <file id="file-1">
              <name>2023-04-01 14-56-52溪神带上钻局CC.mp4</name>
              <pathurl>file%3A//localhost/F%3A/MEDIA/APEX/2023-04-01%2014-56-52%E6%BA%AA%E7%A5%9E%E5%B8%A6%E4%B8%8A%E9%92%BB%E5%B1%80CC.mp4</pathurl>
              <media>
                <video>
                  <samplecharacteristics>
                    <rate>
                      <timebase>60</timebase>
                      <ntsc>FALSE</ntsc>
                    </rate>
                    <width>1920</width>
                    <height>1080</height>
                    <anamorphic>FALSE</anamorphic>
                    <pixelaspectratio>square</pixelaspectratio>
                    <fielddominance>none</fielddominance>
                  </samplecharacteristics>
                </video>
                <audio>
                  <samplecharacteristics>
                    <depth>16</depth>
                    <samplerate>48000</samplerate>
                  </samplecharacteristics>
                  <channelcount>2</channelcount>
                </audio>
                <audio>
                  <samplecharacteristics>
                    <depth>16</depth>
                    <samplerate>48000</samplerate>
                  </samplecharacteristics>
                  <channelcount>2</channelcount>
                </audio>
                <audio>
                  <samplecharacteristics>
                    <depth>16</depth>
                    <samplerate>48000</samplerate>
                  </samplecharacteristics>
                  <channelcount>2</channelcount>
                </audio>
              </media>
            </file>
            <link>
              <linkclipref>clipitem-92</linkclipref>
              <mediatype>video</mediatype>
              <trackindex>1</trackindex>
              <clipindex>1</clipindex>
            </link>
            <link>
              <linkclipref>clipitem-93</linkclipref>
              <mediatype>audio</mediatype>
              <trackindex>1</trackindex>
              <clipindex>1</clipindex>
              <groupindex>1</groupindex>
            </link>
            <link>
              <linkclipref>clipitem-94</linkclipref>
              <mediatype>audio</mediatype>
              <trackindex>2</trackindex>
              <clipindex>1</clipindex>
              <groupindex>1</groupindex>
            </link>
            <link>
              <linkclipref>clipitem-95</linkclipref>
              <mediatype>audio</mediatype>
              <trackindex>3</trackindex>
              <clipindex>1</clipindex>
              <groupindex>1</groupindex>
            </link>
            <link>
              <linkclipref>clipitem-96</linkclipref>
              <mediatype>audio</mediatype>
              <trackindex>4</trackindex>
              <clipindex>1</clipindex>
              <groupindex>1</groupindex>
            </link>
            <link>
              <linkclipref>clipitem-97</linkclipref>
              <mediatype>audio</mediatype>
              <trackindex>5</trackindex>
              <clipindex>1</clipindex>
              <groupindex>1</groupindex>
            </link>
            <link>
              <linkclipref>clipitem-98</linkclipref>
              <mediatype>audio</mediatype>
              <trackindex>6</trackindex>
              <clipindex>1</clipindex>
              <groupindex>1</groupindex>
            </link>
          </clipitem>
          <clipitem id="clipitem-99">
            <masterclipid>masterclip-1</masterclipid>
            <name>2023-04-01 14-56-52溪神带上钻局CC.mp4</name>
            <enabled>TRUE</enabled>
            <rate>
              <timebase>60</timebase>
              <ntsc>FALSE</ntsc>
            </rate>
            <start>1585</start>
            <end>1746</end>
            <in>27845</in>
            <out>28006</out>
            <alphatype>none</alphatype>
            <pixelaspectratio>square</pixelaspectratio>
            <anamorphic>FALSE</anamorphic>
            <file id="file-1">
              <name>2023-04-01 14-56-52溪神带上钻局CC.mp4</name>
              <pathurl>file%3A//localhost/F%3A/MEDIA/APEX/2023-04-01%2014-56-52%E6%BA%AA%E7%A5%9E%E5%B8%A6%E4%B8%8A%E9%92%BB%E5%B1%80CC.mp4</pathurl>
              <media>
                <video>
                  <samplecharacteristics>
                    <rate>
                      <timebase>60</timebase>
                      <ntsc>FALSE</ntsc>
                    </rate>
                    <width>1920</width>
                    <height>1080</height>
                    <anamorphic>FALSE</anamorphic>
                    <pixelaspectratio>square</pixelaspectratio>
                    <fielddominance>none</fielddominance>
                  </samplecharacteristics>
                </video>
                <audio>
                  <samplecharacteristics>
                    <depth>16</depth>
                    <samplerate>48000</samplerate>
                  </samplecharacteristics>
                  <channelcount>2</channelcount>
                </audio>
                <audio>
                  <samplecharacteristics>
                    <depth>16</depth>
                    <samplerate>48000</samplerate>
                  </samplecharacteristics>
                  <channelcount>2</channelcount>
                </audio>
                <audio>
                  <samplecharacteristics>
                    <depth>16</depth>
                    <samplerate>48000</samplerate>
                  </samplecharacteristics>
                  <channelcount>2</channelcount>
                </audio>
              </media>
            </file>
            <link>
              <linkclipref>clipitem-99</linkclipref>
              <mediatype>video</mediatype>
              <trackindex>1</trackindex>
              <clipindex>1</clipindex>
            </link>
            <link>
              <linkclipref>clipitem-100</linkclipref>
              <mediatype>audio</mediatype>
              <trackindex>1</trackindex>
              <clipindex>1</clipindex>
              <groupindex>1</groupindex>
            </link>
            <link>
              <linkclipref>clipitem-101</linkclipref>
              <mediatype>audio</mediatype>
              <trackindex>2</trackindex>
              <clipindex>1</clipindex>
              <groupindex>1</groupindex>
            </link>
            <link>
              <linkclipref>clipitem-102</linkclipref>
              <mediatype>audio</mediatype>
              <trackindex>3</trackindex>
              <clipindex>1</clipindex>
              <groupindex>1</groupindex>
            </link>
            <link>
              <linkclipref>clipitem-103</linkclipref>
              <mediatype>audio</mediatype>
              <trackindex>4</trackindex>
              <clipindex>1</clipindex>
              <groupindex>1</groupindex>
            </link>
            <link>
              <linkclipref>clipitem-104</linkclipref>
              <mediatype>audio</mediatype>
              <trackindex>5</trackindex>
              <clipindex>1</clipindex>
              <groupindex>1</groupindex>
            </link>
            <link>
              <linkclipref>clipitem-105</linkclipref>
              <mediatype>audio</mediatype>
              <trackindex>6</trackindex>
              <clipindex>1</clipindex>
              <groupindex>1</groupindex>
            </link>
          </clipitem>
          <clipitem id="clipitem-106">
            <masterclipid>masterclip-1</masterclipid>
            <name>2023-04-01 14-56-52溪神带上钻局CC.mp4</name>
            <enabled>TRUE</enabled>
            <rate>
              <timebase>60</timebase>
              <ntsc>FALSE</ntsc>
            </rate>
            <start>1746</start>
            <end>1825</end>
            <in>28363</in>
            <out>28442</out>
            <alphatype>none</alphatype>
            <pixelaspectratio>square</pixelaspectratio>
            <anamorphic>FALSE</anamorphic>
            <file id="file-1">
              <name>2023-04-01 14-56-52溪神带上钻局CC.mp4</name>
              <pathurl>file%3A//localhost/F%3A/MEDIA/APEX/2023-04-01%2014-56-52%E6%BA%AA%E7%A5%9E%E5%B8%A6%E4%B8%8A%E9%92%BB%E5%B1%80CC.mp4</pathurl>
              <media>
                <video>
                  <samplecharacteristics>
                    <rate>
                      <timebase>60</timebase>
                      <ntsc>FALSE</ntsc>
                    </rate>
                    <width>1920</width>
                    <height>1080</height>
                    <anamorphic>FALSE</anamorphic>
                    <pixelaspectratio>square</pixelaspectratio>
                    <fielddominance>none</fielddominance>
                  </samplecharacteristics>
                </video>
                <audio>
                  <samplecharacteristics>
                    <depth>16</depth>
                    <samplerate>48000</samplerate>
                  </samplecharacteristics>
                  <channelcount>2</channelcount>
                </audio>
                <audio>
                  <samplecharacteristics>
                    <depth>16</depth>
                    <samplerate>48000</samplerate>
                  </samplecharacteristics>
                  <channelcount>2</channelcount>
                </audio>
                <audio>
                  <samplecharacteristics>
                    <depth>16</depth>
                    <samplerate>48000</samplerate>
                  </samplecharacteristics>
                  <channelcount>2</channelcount>
                </audio>
              </media>
            </file>
            <link>
              <linkclipref>clipitem-106</linkclipref>
              <mediatype>video</mediatype>
              <trackindex>1</trackindex>
              <clipindex>1</clipindex>
            </link>
            <link>
              <linkclipref>clipitem-107</linkclipref>
              <mediatype>audio</mediatype>
              <trackindex>1</trackindex>
              <clipindex>1</clipindex>
              <groupindex>1</groupindex>
            </link>
            <link>
              <linkclipref>clipitem-108</linkclipref>
              <mediatype>audio</mediatype>
              <trackindex>2</trackindex>
              <clipindex>1</clipindex>
              <groupindex>1</groupindex>
            </link>
            <link>
              <linkclipref>clipitem-109</linkclipref>
              <mediatype>audio</mediatype>
              <trackindex>3</trackindex>
              <clipindex>1</clipindex>
              <groupindex>1</groupindex>
            </link>
            <link>
              <linkclipref>clipitem-110</linkclipref>
              <mediatype>audio</mediatype>
              <trackindex>4</trackindex>
              <clipindex>1</clipindex>
              <groupindex>1</groupindex>
            </link>
            <link>
              <linkclipref>clipitem-111</linkclipref>
              <mediatype>audio</mediatype>
              <trackindex>5</trackindex>
              <clipindex>1</clipindex>
              <groupindex>1</groupindex>
            </link>
            <link>
              <linkclipref>clipitem-112</linkclipref>
              <mediatype>audio</mediatype>
              <trackindex>6</trackindex>
              <clipindex>1</clipindex>
              <groupindex>1</groupindex>
            </link>
          </clipitem>
          <clipitem id="clipitem-113">
            <masterclipid>masterclip-1</masterclipid>
            <name>2023-04-01 14-56-52溪神带上钻局CC.mp4</name>
            <enabled>TRUE</enabled>
            <rate>
              <timebase>60</timebase>
              <ntsc>FALSE</ntsc>
            </rate>
            <start>1825</start>
            <end>2005</end>
            <in>29080</in>
            <out>29260</out>
            <alphatype>none</alphatype>
            <pixelaspectratio>square</pixelaspectratio>
            <anamorphic>FALSE</anamorphic>
            <file id="file-1">
              <name>2023-04-01 14-56-52溪神带上钻局CC.mp4</name>
              <pathurl>file%3A//localhost/F%3A/MEDIA/APEX/2023-04-01%2014-56-52%E6%BA%AA%E7%A5%9E%E5%B8%A6%E4%B8%8A%E9%92%BB%E5%B1%80CC.mp4</pathurl>
              <media>
                <video>
                  <samplecharacteristics>
                    <rate>
                      <timebase>60</timebase>
                      <ntsc>FALSE</ntsc>
                    </rate>
                    <width>1920</width>
                    <height>1080</height>
                    <anamorphic>FALSE</anamorphic>
                    <pixelaspectratio>square</pixelaspectratio>
                    <fielddominance>none</fielddominance>
                  </samplecharacteristics>
                </video>
                <audio>
                  <samplecharacteristics>
                    <depth>16</depth>
                    <samplerate>48000</samplerate>
                  </samplecharacteristics>
                  <channelcount>2</channelcount>
                </audio>
                <audio>
                  <samplecharacteristics>
                    <depth>16</depth>
                    <samplerate>48000</samplerate>
                  </samplecharacteristics>
                  <channelcount>2</channelcount>
                </audio>
                <audio>
                  <samplecharacteristics>
                    <depth>16</depth>
                    <samplerate>48000</samplerate>
                  </samplecharacteristics>
                  <channelcount>2</channelcount>
                </audio>
              </media>
            </file>
            <link>
              <linkclipref>clipitem-113</linkclipref>
              <mediatype>video</mediatype>
              <trackindex>1</trackindex>
              <clipindex>1</clipindex>
            </link>
            <link>
              <linkclipref>clipitem-114</linkclipref>
              <mediatype>audio</mediatype>
              <trackindex>1</trackindex>
              <clipindex>1</clipindex>
              <groupindex>1</groupindex>
            </link>
            <link>
              <linkclipref>clipitem-115</linkclipref>
              <mediatype>audio</mediatype>
              <trackindex>2</trackindex>
              <clipindex>1</clipindex>
              <groupindex>1</groupindex>
            </link>
            <link>
              <linkclipref>clipitem-116</linkclipref>
              <mediatype>audio</mediatype>
              <trackindex>3</trackindex>
              <clipindex>1</clipindex>
              <groupindex>1</groupindex>
            </link>
            <link>
              <linkclipref>clipitem-117</linkclipref>
              <mediatype>audio</mediatype>
              <trackindex>4</trackindex>
              <clipindex>1</clipindex>
              <groupindex>1</groupindex>
            </link>
            <link>
              <linkclipref>clipitem-118</linkclipref>
              <mediatype>audio</mediatype>
              <trackindex>5</trackindex>
              <clipindex>1</clipindex>
              <groupindex>1</groupindex>
            </link>
            <link>
              <linkclipref>clipitem-119</linkclipref>
              <mediatype>audio</mediatype>
              <trackindex>6</trackindex>
              <clipindex>1</clipindex>
              <groupindex>1</groupindex>
            </link>
          </clipitem>
          <clipitem id="clipitem-120">
            <masterclipid>masterclip-1</masterclipid>
            <name>2023-04-01 14-56-52溪神带上钻局CC.mp4</name>
            <enabled>TRUE</enabled>
            <rate>
              <timebase>60</timebase>
              <ntsc>FALSE</ntsc>
            </rate>
            <start>2005</start>
            <end>2023</end>
            <in>29971</in>
            <out>29989</out>
            <alphatype>none</alphatype>
            <pixelaspectratio>square</pixelaspectratio>
            <anamorphic>FALSE</anamorphic>
            <file id="file-1">
              <name>2023-04-01 14-56-52溪神带上钻局CC.mp4</name>
              <pathurl>file%3A//localhost/F%3A/MEDIA/APEX/2023-04-01%2014-56-52%E6%BA%AA%E7%A5%9E%E5%B8%A6%E4%B8%8A%E9%92%BB%E5%B1%80CC.mp4</pathurl>
              <media>
                <video>
                  <samplecharacteristics>
                    <rate>
                      <timebase>60</timebase>
                      <ntsc>FALSE</ntsc>
                    </rate>
                    <width>1920</width>
                    <height>1080</height>
                    <anamorphic>FALSE</anamorphic>
                    <pixelaspectratio>square</pixelaspectratio>
                    <fielddominance>none</fielddominance>
                  </samplecharacteristics>
                </video>
                <audio>
                  <samplecharacteristics>
                    <depth>16</depth>
                    <samplerate>48000</samplerate>
                  </samplecharacteristics>
                  <channelcount>2</channelcount>
                </audio>
                <audio>
                  <samplecharacteristics>
                    <depth>16</depth>
                    <samplerate>48000</samplerate>
                  </samplecharacteristics>
                  <channelcount>2</channelcount>
                </audio>
                <audio>
                  <samplecharacteristics>
                    <depth>16</depth>
                    <samplerate>48000</samplerate>
                  </samplecharacteristics>
                  <channelcount>2</channelcount>
                </audio>
              </media>
            </file>
            <link>
              <linkclipref>clipitem-120</linkclipref>
              <mediatype>video</mediatype>
              <trackindex>1</trackindex>
              <clipindex>1</clipindex>
            </link>
            <link>
              <linkclipref>clipitem-121</linkclipref>
              <mediatype>audio</mediatype>
              <trackindex>1</trackindex>
              <clipindex>1</clipindex>
              <groupindex>1</groupindex>
            </link>
            <link>
              <linkclipref>clipitem-122</linkclipref>
              <mediatype>audio</mediatype>
              <trackindex>2</trackindex>
              <clipindex>1</clipindex>
              <groupindex>1</groupindex>
            </link>
            <link>
              <linkclipref>clipitem-123</linkclipref>
              <mediatype>audio</mediatype>
              <trackindex>3</trackindex>
              <clipindex>1</clipindex>
              <groupindex>1</groupindex>
            </link>
            <link>
              <linkclipref>clipitem-124</linkclipref>
              <mediatype>audio</mediatype>
              <trackindex>4</trackindex>
              <clipindex>1</clipindex>
              <groupindex>1</groupindex>
            </link>
            <link>
              <linkclipref>clipitem-125</linkclipref>
              <mediatype>audio</mediatype>
              <trackindex>5</trackindex>
              <clipindex>1</clipindex>
              <groupindex>1</groupindex>
            </link>
            <link>
              <linkclipref>clipitem-126</linkclipref>
              <mediatype>audio</mediatype>
              <trackindex>6</trackindex>
              <clipindex>1</clipindex>
              <groupindex>1</groupindex>
            </link>
          </clipitem>
          <clipitem id="clipitem-127">
            <masterclipid>masterclip-1</masterclipid>
            <name>2023-04-01 14-56-52溪神带上钻局CC.mp4</name>
            <enabled>TRUE</enabled>
            <rate>
              <timebase>60</timebase>
              <ntsc>FALSE</ntsc>
            </rate>
            <start>2023</start>
            <end>2100</end>
            <in>30064</in>
            <out>30141</out>
            <alphatype>none</alphatype>
            <pixelaspectratio>square</pixelaspectratio>
            <anamorphic>FALSE</anamorphic>
            <file id="file-1">
              <name>2023-04-01 14-56-52溪神带上钻局CC.mp4</name>
              <pathurl>file%3A//localhost/F%3A/MEDIA/APEX/2023-04-01%2014-56-52%E6%BA%AA%E7%A5%9E%E5%B8%A6%E4%B8%8A%E9%92%BB%E5%B1%80CC.mp4</pathurl>
              <media>
                <video>
                  <samplecharacteristics>
                    <rate>
                      <timebase>60</timebase>
                      <ntsc>FALSE</ntsc>
                    </rate>
                    <width>1920</width>
                    <height>1080</height>
                    <anamorphic>FALSE</anamorphic>
                    <pixelaspectratio>square</pixelaspectratio>
                    <fielddominance>none</fielddominance>
                  </samplecharacteristics>
                </video>
                <audio>
                  <samplecharacteristics>
                    <depth>16</depth>
                    <samplerate>48000</samplerate>
                  </samplecharacteristics>
                  <channelcount>2</channelcount>
                </audio>
                <audio>
                  <samplecharacteristics>
                    <depth>16</depth>
                    <samplerate>48000</samplerate>
                  </samplecharacteristics>
                  <channelcount>2</channelcount>
                </audio>
                <audio>
                  <samplecharacteristics>
                    <depth>16</depth>
                    <samplerate>48000</samplerate>
                  </samplecharacteristics>
                  <channelcount>2</channelcount>
                </audio>
              </media>
            </file>
            <link>
              <linkclipref>clipitem-127</linkclipref>
              <mediatype>video</mediatype>
              <trackindex>1</trackindex>
              <clipindex>1</clipindex>
            </link>
            <link>
              <linkclipref>clipitem-128</linkclipref>
              <mediatype>audio</mediatype>
              <trackindex>1</trackindex>
              <clipindex>1</clipindex>
              <groupindex>1</groupindex>
            </link>
            <link>
              <linkclipref>clipitem-129</linkclipref>
              <mediatype>audio</mediatype>
              <trackindex>2</trackindex>
              <clipindex>1</clipindex>
              <groupindex>1</groupindex>
            </link>
            <link>
              <linkclipref>clipitem-130</linkclipref>
              <mediatype>audio</mediatype>
              <trackindex>3</trackindex>
              <clipindex>1</clipindex>
              <groupindex>1</groupindex>
            </link>
            <link>
              <linkclipref>clipitem-131</linkclipref>
              <mediatype>audio</mediatype>
              <trackindex>4</trackindex>
              <clipindex>1</clipindex>
              <groupindex>1</groupindex>
            </link>
            <link>
              <linkclipref>clipitem-132</linkclipref>
              <mediatype>audio</mediatype>
              <trackindex>5</trackindex>
              <clipindex>1</clipindex>
              <groupindex>1</groupindex>
            </link>
            <link>
              <linkclipref>clipitem-133</linkclipref>
              <mediatype>audio</mediatype>
              <trackindex>6</trackindex>
              <clipindex>1</clipindex>
              <groupindex>1</groupindex>
            </link>
          </clipitem>
          <clipitem id="clipitem-134">
            <masterclipid>masterclip-1</masterclipid>
            <name>2023-04-01 14-56-52溪神带上钻局CC.mp4</name>
            <enabled>TRUE</enabled>
            <rate>
              <timebase>60</timebase>
              <ntsc>FALSE</ntsc>
            </rate>
            <start>2100</start>
            <end>2267</end>
            <in>30347</in>
            <out>30514</out>
            <alphatype>none</alphatype>
            <pixelaspectratio>square</pixelaspectratio>
            <anamorphic>FALSE</anamorphic>
            <file id="file-1">
              <name>2023-04-01 14-56-52溪神带上钻局CC.mp4</name>
              <pathurl>file%3A//localhost/F%3A/MEDIA/APEX/2023-04-01%2014-56-52%E6%BA%AA%E7%A5%9E%E5%B8%A6%E4%B8%8A%E9%92%BB%E5%B1%80CC.mp4</pathurl>
              <media>
                <video>
                  <samplecharacteristics>
                    <rate>
                      <timebase>60</timebase>
                      <ntsc>FALSE</ntsc>
                    </rate>
                    <width>1920</width>
                    <height>1080</height>
                    <anamorphic>FALSE</anamorphic>
                    <pixelaspectratio>square</pixelaspectratio>
                    <fielddominance>none</fielddominance>
                  </samplecharacteristics>
                </video>
                <audio>
                  <samplecharacteristics>
                    <depth>16</depth>
                    <samplerate>48000</samplerate>
                  </samplecharacteristics>
                  <channelcount>2</channelcount>
                </audio>
                <audio>
                  <samplecharacteristics>
                    <depth>16</depth>
                    <samplerate>48000</samplerate>
                  </samplecharacteristics>
                  <channelcount>2</channelcount>
                </audio>
                <audio>
                  <samplecharacteristics>
                    <depth>16</depth>
                    <samplerate>48000</samplerate>
                  </samplecharacteristics>
                  <channelcount>2</channelcount>
                </audio>
              </media>
            </file>
            <link>
              <linkclipref>clipitem-134</linkclipref>
              <mediatype>video</mediatype>
              <trackindex>1</trackindex>
              <clipindex>1</clipindex>
            </link>
            <link>
              <linkclipref>clipitem-135</linkclipref>
              <mediatype>audio</mediatype>
              <trackindex>1</trackindex>
              <clipindex>1</clipindex>
              <groupindex>1</groupindex>
            </link>
            <link>
              <linkclipref>clipitem-136</linkclipref>
              <mediatype>audio</mediatype>
              <trackindex>2</trackindex>
              <clipindex>1</clipindex>
              <groupindex>1</groupindex>
            </link>
            <link>
              <linkclipref>clipitem-137</linkclipref>
              <mediatype>audio</mediatype>
              <trackindex>3</trackindex>
              <clipindex>1</clipindex>
              <groupindex>1</groupindex>
            </link>
            <link>
              <linkclipref>clipitem-138</linkclipref>
              <mediatype>audio</mediatype>
              <trackindex>4</trackindex>
              <clipindex>1</clipindex>
              <groupindex>1</groupindex>
            </link>
            <link>
              <linkclipref>clipitem-139</linkclipref>
              <mediatype>audio</mediatype>
              <trackindex>5</trackindex>
              <clipindex>1</clipindex>
              <groupindex>1</groupindex>
            </link>
            <link>
              <linkclipref>clipitem-140</linkclipref>
              <mediatype>audio</mediatype>
              <trackindex>6</trackindex>
              <clipindex>1</clipindex>
              <groupindex>1</groupindex>
            </link>
          </clipitem>
          <clipitem id="clipitem-141">
            <masterclipid>masterclip-1</masterclipid>
            <name>2023-04-01 14-56-52溪神带上钻局CC.mp4</name>
            <enabled>TRUE</enabled>
            <rate>
              <timebase>60</timebase>
              <ntsc>FALSE</ntsc>
            </rate>
            <start>2267</start>
            <end>2391</end>
            <in>41935</in>
            <out>42059</out>
            <alphatype>none</alphatype>
            <pixelaspectratio>square</pixelaspectratio>
            <anamorphic>FALSE</anamorphic>
            <file id="file-1">
              <name>2023-04-01 14-56-52溪神带上钻局CC.mp4</name>
              <pathurl>file%3A//localhost/F%3A/MEDIA/APEX/2023-04-01%2014-56-52%E6%BA%AA%E7%A5%9E%E5%B8%A6%E4%B8%8A%E9%92%BB%E5%B1%80CC.mp4</pathurl>
              <media>
                <video>
                  <samplecharacteristics>
                    <rate>
                      <timebase>60</timebase>
                      <ntsc>FALSE</ntsc>
                    </rate>
                    <width>1920</width>
                    <height>1080</height>
                    <anamorphic>FALSE</anamorphic>
                    <pixelaspectratio>square</pixelaspectratio>
                    <fielddominance>none</fielddominance>
                  </samplecharacteristics>
                </video>
                <audio>
                  <samplecharacteristics>
                    <depth>16</depth>
                    <samplerate>48000</samplerate>
                  </samplecharacteristics>
                  <channelcount>2</channelcount>
                </audio>
                <audio>
                  <samplecharacteristics>
                    <depth>16</depth>
                    <samplerate>48000</samplerate>
                  </samplecharacteristics>
                  <channelcount>2</channelcount>
                </audio>
                <audio>
                  <samplecharacteristics>
                    <depth>16</depth>
                    <samplerate>48000</samplerate>
                  </samplecharacteristics>
                  <channelcount>2</channelcount>
                </audio>
              </media>
            </file>
            <link>
              <linkclipref>clipitem-141</linkclipref>
              <mediatype>video</mediatype>
              <trackindex>1</trackindex>
              <clipindex>1</clipindex>
            </link>
            <link>
              <linkclipref>clipitem-142</linkclipref>
              <mediatype>audio</mediatype>
              <trackindex>1</trackindex>
              <clipindex>1</clipindex>
              <groupindex>1</groupindex>
            </link>
            <link>
              <linkclipref>clipitem-143</linkclipref>
              <mediatype>audio</mediatype>
              <trackindex>2</trackindex>
              <clipindex>1</clipindex>
              <groupindex>1</groupindex>
            </link>
            <link>
              <linkclipref>clipitem-144</linkclipref>
              <mediatype>audio</mediatype>
              <trackindex>3</trackindex>
              <clipindex>1</clipindex>
              <groupindex>1</groupindex>
            </link>
            <link>
              <linkclipref>clipitem-145</linkclipref>
              <mediatype>audio</mediatype>
              <trackindex>4</trackindex>
              <clipindex>1</clipindex>
              <groupindex>1</groupindex>
            </link>
            <link>
              <linkclipref>clipitem-146</linkclipref>
              <mediatype>audio</mediatype>
              <trackindex>5</trackindex>
              <clipindex>1</clipindex>
              <groupindex>1</groupindex>
            </link>
            <link>
              <linkclipref>clipitem-147</linkclipref>
              <mediatype>audio</mediatype>
              <trackindex>6</trackindex>
              <clipindex>1</clipindex>
              <groupindex>1</groupindex>
            </link>
          </clipitem>
          <clipitem id="clipitem-148">
            <masterclipid>masterclip-1</masterclipid>
            <name>2023-04-01 14-56-52溪神带上钻局CC.mp4</name>
            <enabled>TRUE</enabled>
            <rate>
              <timebase>60</timebase>
              <ntsc>FALSE</ntsc>
            </rate>
            <start>2391</start>
            <end>2618</end>
            <in>46337</in>
            <out>46564</out>
            <alphatype>none</alphatype>
            <pixelaspectratio>square</pixelaspectratio>
            <anamorphic>FALSE</anamorphic>
            <file id="file-1">
              <name>2023-04-01 14-56-52溪神带上钻局CC.mp4</name>
              <pathurl>file%3A//localhost/F%3A/MEDIA/APEX/2023-04-01%2014-56-52%E6%BA%AA%E7%A5%9E%E5%B8%A6%E4%B8%8A%E9%92%BB%E5%B1%80CC.mp4</pathurl>
              <media>
                <video>
                  <samplecharacteristics>
                    <rate>
                      <timebase>60</timebase>
                      <ntsc>FALSE</ntsc>
                    </rate>
                    <width>1920</width>
                    <height>1080</height>
                    <anamorphic>FALSE</anamorphic>
                    <pixelaspectratio>square</pixelaspectratio>
                    <fielddominance>none</fielddominance>
                  </samplecharacteristics>
                </video>
                <audio>
                  <samplecharacteristics>
                    <depth>16</depth>
                    <samplerate>48000</samplerate>
                  </samplecharacteristics>
                  <channelcount>2</channelcount>
                </audio>
                <audio>
                  <samplecharacteristics>
                    <depth>16</depth>
                    <samplerate>48000</samplerate>
                  </samplecharacteristics>
                  <channelcount>2</channelcount>
                </audio>
                <audio>
                  <samplecharacteristics>
                    <depth>16</depth>
                    <samplerate>48000</samplerate>
                  </samplecharacteristics>
                  <channelcount>2</channelcount>
                </audio>
              </media>
            </file>
            <link>
              <linkclipref>clipitem-148</linkclipref>
              <mediatype>video</mediatype>
              <trackindex>1</trackindex>
              <clipindex>1</clipindex>
            </link>
            <link>
              <linkclipref>clipitem-149</linkclipref>
              <mediatype>audio</mediatype>
              <trackindex>1</trackindex>
              <clipindex>1</clipindex>
              <groupindex>1</groupindex>
            </link>
            <link>
              <linkclipref>clipitem-150</linkclipref>
              <mediatype>audio</mediatype>
              <trackindex>2</trackindex>
              <clipindex>1</clipindex>
              <groupindex>1</groupindex>
            </link>
            <link>
              <linkclipref>clipitem-151</linkclipref>
              <mediatype>audio</mediatype>
              <trackindex>3</trackindex>
              <clipindex>1</clipindex>
              <groupindex>1</groupindex>
            </link>
            <link>
              <linkclipref>clipitem-152</linkclipref>
              <mediatype>audio</mediatype>
              <trackindex>4</trackindex>
              <clipindex>1</clipindex>
              <groupindex>1</groupindex>
            </link>
            <link>
              <linkclipref>clipitem-153</linkclipref>
              <mediatype>audio</mediatype>
              <trackindex>5</trackindex>
              <clipindex>1</clipindex>
              <groupindex>1</groupindex>
            </link>
            <link>
              <linkclipref>clipitem-154</linkclipref>
              <mediatype>audio</mediatype>
              <trackindex>6</trackindex>
              <clipindex>1</clipindex>
              <groupindex>1</groupindex>
            </link>
          </clipitem>
          <clipitem id="clipitem-155">
            <masterclipid>masterclip-1</masterclipid>
            <name>2023-04-01 14-56-52溪神带上钻局CC.mp4</name>
            <enabled>TRUE</enabled>
            <rate>
              <timebase>60</timebase>
              <ntsc>FALSE</ntsc>
            </rate>
            <start>2618</start>
            <end>2894</end>
            <in>47608</in>
            <out>47884</out>
            <alphatype>none</alphatype>
            <pixelaspectratio>square</pixelaspectratio>
            <anamorphic>FALSE</anamorphic>
            <file id="file-1">
              <name>2023-04-01 14-56-52溪神带上钻局CC.mp4</name>
              <pathurl>file%3A//localhost/F%3A/MEDIA/APEX/2023-04-01%2014-56-52%E6%BA%AA%E7%A5%9E%E5%B8%A6%E4%B8%8A%E9%92%BB%E5%B1%80CC.mp4</pathurl>
              <media>
                <video>
                  <samplecharacteristics>
                    <rate>
                      <timebase>60</timebase>
                      <ntsc>FALSE</ntsc>
                    </rate>
                    <width>1920</width>
                    <height>1080</height>
                    <anamorphic>FALSE</anamorphic>
                    <pixelaspectratio>square</pixelaspectratio>
                    <fielddominance>none</fielddominance>
                  </samplecharacteristics>
                </video>
                <audio>
                  <samplecharacteristics>
                    <depth>16</depth>
                    <samplerate>48000</samplerate>
                  </samplecharacteristics>
                  <channelcount>2</channelcount>
                </audio>
                <audio>
                  <samplecharacteristics>
                    <depth>16</depth>
                    <samplerate>48000</samplerate>
                  </samplecharacteristics>
                  <channelcount>2</channelcount>
                </audio>
                <audio>
                  <samplecharacteristics>
                    <depth>16</depth>
                    <samplerate>48000</samplerate>
                  </samplecharacteristics>
                  <channelcount>2</channelcount>
                </audio>
              </media>
            </file>
            <link>
              <linkclipref>clipitem-155</linkclipref>
              <mediatype>video</mediatype>
              <trackindex>1</trackindex>
              <clipindex>1</clipindex>
            </link>
            <link>
              <linkclipref>clipitem-156</linkclipref>
              <mediatype>audio</mediatype>
              <trackindex>1</trackindex>
              <clipindex>1</clipindex>
              <groupindex>1</groupindex>
            </link>
            <link>
              <linkclipref>clipitem-157</linkclipref>
              <mediatype>audio</mediatype>
              <trackindex>2</trackindex>
              <clipindex>1</clipindex>
              <groupindex>1</groupindex>
            </link>
            <link>
              <linkclipref>clipitem-158</linkclipref>
              <mediatype>audio</mediatype>
              <trackindex>3</trackindex>
              <clipindex>1</clipindex>
              <groupindex>1</groupindex>
            </link>
            <link>
              <linkclipref>clipitem-159</linkclipref>
              <mediatype>audio</mediatype>
              <trackindex>4</trackindex>
              <clipindex>1</clipindex>
              <groupindex>1</groupindex>
            </link>
            <link>
              <linkclipref>clipitem-160</linkclipref>
              <mediatype>audio</mediatype>
              <trackindex>5</trackindex>
              <clipindex>1</clipindex>
              <groupindex>1</groupindex>
            </link>
            <link>
              <linkclipref>clipitem-161</linkclipref>
              <mediatype>audio</mediatype>
              <trackindex>6</trackindex>
              <clipindex>1</clipindex>
              <groupindex>1</groupindex>
            </link>
          </clipitem>
          <clipitem id="clipitem-162">
            <masterclipid>masterclip-1</masterclipid>
            <name>2023-04-01 14-56-52溪神带上钻局CC.mp4</name>
            <enabled>TRUE</enabled>
            <rate>
              <timebase>60</timebase>
              <ntsc>FALSE</ntsc>
            </rate>
            <start>2894</start>
            <end>3196</end>
            <in>47995</in>
            <out>48297</out>
            <alphatype>none</alphatype>
            <pixelaspectratio>square</pixelaspectratio>
            <anamorphic>FALSE</anamorphic>
            <file id="file-1">
              <name>2023-04-01 14-56-52溪神带上钻局CC.mp4</name>
              <pathurl>file%3A//localhost/F%3A/MEDIA/APEX/2023-04-01%2014-56-52%E6%BA%AA%E7%A5%9E%E5%B8%A6%E4%B8%8A%E9%92%BB%E5%B1%80CC.mp4</pathurl>
              <media>
                <video>
                  <samplecharacteristics>
                    <rate>
                      <timebase>60</timebase>
                      <ntsc>FALSE</ntsc>
                    </rate>
                    <width>1920</width>
                    <height>1080</height>
                    <anamorphic>FALSE</anamorphic>
                    <pixelaspectratio>square</pixelaspectratio>
                    <fielddominance>none</fielddominance>
                  </samplecharacteristics>
                </video>
                <audio>
                  <samplecharacteristics>
                    <depth>16</depth>
                    <samplerate>48000</samplerate>
                  </samplecharacteristics>
                  <channelcount>2</channelcount>
                </audio>
                <audio>
                  <samplecharacteristics>
                    <depth>16</depth>
                    <samplerate>48000</samplerate>
                  </samplecharacteristics>
                  <channelcount>2</channelcount>
                </audio>
                <audio>
                  <samplecharacteristics>
                    <depth>16</depth>
                    <samplerate>48000</samplerate>
                  </samplecharacteristics>
                  <channelcount>2</channelcount>
                </audio>
              </media>
            </file>
            <link>
              <linkclipref>clipitem-162</linkclipref>
              <mediatype>video</mediatype>
              <trackindex>1</trackindex>
              <clipindex>1</clipindex>
            </link>
            <link>
              <linkclipref>clipitem-163</linkclipref>
              <mediatype>audio</mediatype>
              <trackindex>1</trackindex>
              <clipindex>1</clipindex>
              <groupindex>1</groupindex>
            </link>
            <link>
              <linkclipref>clipitem-164</linkclipref>
              <mediatype>audio</mediatype>
              <trackindex>2</trackindex>
              <clipindex>1</clipindex>
              <groupindex>1</groupindex>
            </link>
            <link>
              <linkclipref>clipitem-165</linkclipref>
              <mediatype>audio</mediatype>
              <trackindex>3</trackindex>
              <clipindex>1</clipindex>
              <groupindex>1</groupindex>
            </link>
            <link>
              <linkclipref>clipitem-166</linkclipref>
              <mediatype>audio</mediatype>
              <trackindex>4</trackindex>
              <clipindex>1</clipindex>
              <groupindex>1</groupindex>
            </link>
            <link>
              <linkclipref>clipitem-167</linkclipref>
              <mediatype>audio</mediatype>
              <trackindex>5</trackindex>
              <clipindex>1</clipindex>
              <groupindex>1</groupindex>
            </link>
            <link>
              <linkclipref>clipitem-168</linkclipref>
              <mediatype>audio</mediatype>
              <trackindex>6</trackindex>
              <clipindex>1</clipindex>
              <groupindex>1</groupindex>
            </link>
          </clipitem>
          <clipitem id="clipitem-169">
            <masterclipid>masterclip-1</masterclipid>
            <name>2023-04-01 14-56-52溪神带上钻局CC.mp4</name>
            <enabled>TRUE</enabled>
            <rate>
              <timebase>60</timebase>
              <ntsc>FALSE</ntsc>
            </rate>
            <start>3196</start>
            <end>3357</end>
            <in>49039</in>
            <out>49200</out>
            <alphatype>none</alphatype>
            <pixelaspectratio>square</pixelaspectratio>
            <anamorphic>FALSE</anamorphic>
            <file id="file-1">
              <name>2023-04-01 14-56-52溪神带上钻局CC.mp4</name>
              <pathurl>file%3A//localhost/F%3A/MEDIA/APEX/2023-04-01%2014-56-52%E6%BA%AA%E7%A5%9E%E5%B8%A6%E4%B8%8A%E9%92%BB%E5%B1%80CC.mp4</pathurl>
              <media>
                <video>
                  <samplecharacteristics>
                    <rate>
                      <timebase>60</timebase>
                      <ntsc>FALSE</ntsc>
                    </rate>
                    <width>1920</width>
                    <height>1080</height>
                    <anamorphic>FALSE</anamorphic>
                    <pixelaspectratio>square</pixelaspectratio>
                    <fielddominance>none</fielddominance>
                  </samplecharacteristics>
                </video>
                <audio>
                  <samplecharacteristics>
                    <depth>16</depth>
                    <samplerate>48000</samplerate>
                  </samplecharacteristics>
                  <channelcount>2</channelcount>
                </audio>
                <audio>
                  <samplecharacteristics>
                    <depth>16</depth>
                    <samplerate>48000</samplerate>
                  </samplecharacteristics>
                  <channelcount>2</channelcount>
                </audio>
                <audio>
                  <samplecharacteristics>
                    <depth>16</depth>
                    <samplerate>48000</samplerate>
                  </samplecharacteristics>
                  <channelcount>2</channelcount>
                </audio>
              </media>
            </file>
            <link>
              <linkclipref>clipitem-169</linkclipref>
              <mediatype>video</mediatype>
              <trackindex>1</trackindex>
              <clipindex>1</clipindex>
            </link>
            <link>
              <linkclipref>clipitem-170</linkclipref>
              <mediatype>audio</mediatype>
              <trackindex>1</trackindex>
              <clipindex>1</clipindex>
              <groupindex>1</groupindex>
            </link>
            <link>
              <linkclipref>clipitem-171</linkclipref>
              <mediatype>audio</mediatype>
              <trackindex>2</trackindex>
              <clipindex>1</clipindex>
              <groupindex>1</groupindex>
            </link>
            <link>
              <linkclipref>clipitem-172</linkclipref>
              <mediatype>audio</mediatype>
              <trackindex>3</trackindex>
              <clipindex>1</clipindex>
              <groupindex>1</groupindex>
            </link>
            <link>
              <linkclipref>clipitem-173</linkclipref>
              <mediatype>audio</mediatype>
              <trackindex>4</trackindex>
              <clipindex>1</clipindex>
              <groupindex>1</groupindex>
            </link>
            <link>
              <linkclipref>clipitem-174</linkclipref>
              <mediatype>audio</mediatype>
              <trackindex>5</trackindex>
              <clipindex>1</clipindex>
              <groupindex>1</groupindex>
            </link>
            <link>
              <linkclipref>clipitem-175</linkclipref>
              <mediatype>audio</mediatype>
              <trackindex>6</trackindex>
              <clipindex>1</clipindex>
              <groupindex>1</groupindex>
            </link>
          </clipitem>
          <clipitem id="clipitem-176">
            <masterclipid>masterclip-1</masterclipid>
            <name>2023-04-01 14-56-52溪神带上钻局CC.mp4</name>
            <enabled>TRUE</enabled>
            <rate>
              <timebase>60</timebase>
              <ntsc>FALSE</ntsc>
            </rate>
            <start>3357</start>
            <end>3460</end>
            <in>50487</in>
            <out>50590</out>
            <alphatype>none</alphatype>
            <pixelaspectratio>square</pixelaspectratio>
            <anamorphic>FALSE</anamorphic>
            <file id="file-1">
              <name>2023-04-01 14-56-52溪神带上钻局CC.mp4</name>
              <pathurl>file%3A//localhost/F%3A/MEDIA/APEX/2023-04-01%2014-56-52%E6%BA%AA%E7%A5%9E%E5%B8%A6%E4%B8%8A%E9%92%BB%E5%B1%80CC.mp4</pathurl>
              <media>
                <video>
                  <samplecharacteristics>
                    <rate>
                      <timebase>60</timebase>
                      <ntsc>FALSE</ntsc>
                    </rate>
                    <width>1920</width>
                    <height>1080</height>
                    <anamorphic>FALSE</anamorphic>
                    <pixelaspectratio>square</pixelaspectratio>
                    <fielddominance>none</fielddominance>
                  </samplecharacteristics>
                </video>
                <audio>
                  <samplecharacteristics>
                    <depth>16</depth>
                    <samplerate>48000</samplerate>
                  </samplecharacteristics>
                  <channelcount>2</channelcount>
                </audio>
                <audio>
                  <samplecharacteristics>
                    <depth>16</depth>
                    <samplerate>48000</samplerate>
                  </samplecharacteristics>
                  <channelcount>2</channelcount>
                </audio>
                <audio>
                  <samplecharacteristics>
                    <depth>16</depth>
                    <samplerate>48000</samplerate>
                  </samplecharacteristics>
                  <channelcount>2</channelcount>
                </audio>
              </media>
            </file>
            <link>
              <linkclipref>clipitem-176</linkclipref>
              <mediatype>video</mediatype>
              <trackindex>1</trackindex>
              <clipindex>1</clipindex>
            </link>
            <link>
              <linkclipref>clipitem-177</linkclipref>
              <mediatype>audio</mediatype>
              <trackindex>1</trackindex>
              <clipindex>1</clipindex>
              <groupindex>1</groupindex>
            </link>
            <link>
              <linkclipref>clipitem-178</linkclipref>
              <mediatype>audio</mediatype>
              <trackindex>2</trackindex>
              <clipindex>1</clipindex>
              <groupindex>1</groupindex>
            </link>
            <link>
              <linkclipref>clipitem-179</linkclipref>
              <mediatype>audio</mediatype>
              <trackindex>3</trackindex>
              <clipindex>1</clipindex>
              <groupindex>1</groupindex>
            </link>
            <link>
              <linkclipref>clipitem-180</linkclipref>
              <mediatype>audio</mediatype>
              <trackindex>4</trackindex>
              <clipindex>1</clipindex>
              <groupindex>1</groupindex>
            </link>
            <link>
              <linkclipref>clipitem-181</linkclipref>
              <mediatype>audio</mediatype>
              <trackindex>5</trackindex>
              <clipindex>1</clipindex>
              <groupindex>1</groupindex>
            </link>
            <link>
              <linkclipref>clipitem-182</linkclipref>
              <mediatype>audio</mediatype>
              <trackindex>6</trackindex>
              <clipindex>1</clipindex>
              <groupindex>1</groupindex>
            </link>
          </clipitem>
          <clipitem id="clipitem-183">
            <masterclipid>masterclip-1</masterclipid>
            <name>2023-04-01 14-56-52溪神带上钻局CC.mp4</name>
            <enabled>TRUE</enabled>
            <rate>
              <timebase>60</timebase>
              <ntsc>FALSE</ntsc>
            </rate>
            <start>3460</start>
            <end>3587</end>
            <in>50744</in>
            <out>50871</out>
            <alphatype>none</alphatype>
            <pixelaspectratio>square</pixelaspectratio>
            <anamorphic>FALSE</anamorphic>
            <file id="file-1">
              <name>2023-04-01 14-56-52溪神带上钻局CC.mp4</name>
              <pathurl>file%3A//localhost/F%3A/MEDIA/APEX/2023-04-01%2014-56-52%E6%BA%AA%E7%A5%9E%E5%B8%A6%E4%B8%8A%E9%92%BB%E5%B1%80CC.mp4</pathurl>
              <media>
                <video>
                  <samplecharacteristics>
                    <rate>
                      <timebase>60</timebase>
                      <ntsc>FALSE</ntsc>
                    </rate>
                    <width>1920</width>
                    <height>1080</height>
                    <anamorphic>FALSE</anamorphic>
                    <pixelaspectratio>square</pixelaspectratio>
                    <fielddominance>none</fielddominance>
                  </samplecharacteristics>
                </video>
                <audio>
                  <samplecharacteristics>
                    <depth>16</depth>
                    <samplerate>48000</samplerate>
                  </samplecharacteristics>
                  <channelcount>2</channelcount>
                </audio>
                <audio>
                  <samplecharacteristics>
                    <depth>16</depth>
                    <samplerate>48000</samplerate>
                  </samplecharacteristics>
                  <channelcount>2</channelcount>
                </audio>
                <audio>
                  <samplecharacteristics>
                    <depth>16</depth>
                    <samplerate>48000</samplerate>
                  </samplecharacteristics>
                  <channelcount>2</channelcount>
                </audio>
              </media>
            </file>
            <link>
              <linkclipref>clipitem-183</linkclipref>
              <mediatype>video</mediatype>
              <trackindex>1</trackindex>
              <clipindex>1</clipindex>
            </link>
            <link>
              <linkclipref>clipitem-184</linkclipref>
              <mediatype>audio</mediatype>
              <trackindex>1</trackindex>
              <clipindex>1</clipindex>
              <groupindex>1</groupindex>
            </link>
            <link>
              <linkclipref>clipitem-185</linkclipref>
              <mediatype>audio</mediatype>
              <trackindex>2</trackindex>
              <clipindex>1</clipindex>
              <groupindex>1</groupindex>
            </link>
            <link>
              <linkclipref>clipitem-186</linkclipref>
              <mediatype>audio</mediatype>
              <trackindex>3</trackindex>
              <clipindex>1</clipindex>
              <groupindex>1</groupindex>
            </link>
            <link>
              <linkclipref>clipitem-187</linkclipref>
              <mediatype>audio</mediatype>
              <trackindex>4</trackindex>
              <clipindex>1</clipindex>
              <groupindex>1</groupindex>
            </link>
            <link>
              <linkclipref>clipitem-188</linkclipref>
              <mediatype>audio</mediatype>
              <trackindex>5</trackindex>
              <clipindex>1</clipindex>
              <groupindex>1</groupindex>
            </link>
            <link>
              <linkclipref>clipitem-189</linkclipref>
              <mediatype>audio</mediatype>
              <trackindex>6</trackindex>
              <clipindex>1</clipindex>
              <groupindex>1</groupindex>
            </link>
          </clipitem>
          <clipitem id="clipitem-190">
            <masterclipid>masterclip-1</masterclipid>
            <name>2023-04-01 14-56-52溪神带上钻局CC.mp4</name>
            <enabled>TRUE</enabled>
            <rate>
              <timebase>60</timebase>
              <ntsc>FALSE</ntsc>
            </rate>
            <start>3587</start>
            <end>3794</end>
            <in>50965</in>
            <out>51172</out>
            <alphatype>none</alphatype>
            <pixelaspectratio>square</pixelaspectratio>
            <anamorphic>FALSE</anamorphic>
            <file id="file-1">
              <name>2023-04-01 14-56-52溪神带上钻局CC.mp4</name>
              <pathurl>file%3A//localhost/F%3A/MEDIA/APEX/2023-04-01%2014-56-52%E6%BA%AA%E7%A5%9E%E5%B8%A6%E4%B8%8A%E9%92%BB%E5%B1%80CC.mp4</pathurl>
              <media>
                <video>
                  <samplecharacteristics>
                    <rate>
                      <timebase>60</timebase>
                      <ntsc>FALSE</ntsc>
                    </rate>
                    <width>1920</width>
                    <height>1080</height>
                    <anamorphic>FALSE</anamorphic>
                    <pixelaspectratio>square</pixelaspectratio>
                    <fielddominance>none</fielddominance>
                  </samplecharacteristics>
                </video>
                <audio>
                  <samplecharacteristics>
                    <depth>16</depth>
                    <samplerate>48000</samplerate>
                  </samplecharacteristics>
                  <channelcount>2</channelcount>
                </audio>
                <audio>
                  <samplecharacteristics>
                    <depth>16</depth>
                    <samplerate>48000</samplerate>
                  </samplecharacteristics>
                  <channelcount>2</channelcount>
                </audio>
                <audio>
                  <samplecharacteristics>
                    <depth>16</depth>
                    <samplerate>48000</samplerate>
                  </samplecharacteristics>
                  <channelcount>2</channelcount>
                </audio>
              </media>
            </file>
            <link>
              <linkclipref>clipitem-190</linkclipref>
              <mediatype>video</mediatype>
              <trackindex>1</trackindex>
              <clipindex>1</clipindex>
            </link>
            <link>
              <linkclipref>clipitem-191</linkclipref>
              <mediatype>audio</mediatype>
              <trackindex>1</trackindex>
              <clipindex>1</clipindex>
              <groupindex>1</groupindex>
            </link>
            <link>
              <linkclipref>clipitem-192</linkclipref>
              <mediatype>audio</mediatype>
              <trackindex>2</trackindex>
              <clipindex>1</clipindex>
              <groupindex>1</groupindex>
            </link>
            <link>
              <linkclipref>clipitem-193</linkclipref>
              <mediatype>audio</mediatype>
              <trackindex>3</trackindex>
              <clipindex>1</clipindex>
              <groupindex>1</groupindex>
            </link>
            <link>
              <linkclipref>clipitem-194</linkclipref>
              <mediatype>audio</mediatype>
              <trackindex>4</trackindex>
              <clipindex>1</clipindex>
              <groupindex>1</groupindex>
            </link>
            <link>
              <linkclipref>clipitem-195</linkclipref>
              <mediatype>audio</mediatype>
              <trackindex>5</trackindex>
              <clipindex>1</clipindex>
              <groupindex>1</groupindex>
            </link>
            <link>
              <linkclipref>clipitem-196</linkclipref>
              <mediatype>audio</mediatype>
              <trackindex>6</trackindex>
              <clipindex>1</clipindex>
              <groupindex>1</groupindex>
            </link>
          </clipitem>
          <clipitem id="clipitem-197">
            <masterclipid>masterclip-1</masterclipid>
            <name>2023-04-01 14-56-52溪神带上钻局CC.mp4</name>
            <enabled>TRUE</enabled>
            <rate>
              <timebase>60</timebase>
              <ntsc>FALSE</ntsc>
            </rate>
            <start>3794</start>
            <end>3897</end>
            <in>59295</in>
            <out>59398</out>
            <alphatype>none</alphatype>
            <pixelaspectratio>square</pixelaspectratio>
            <anamorphic>FALSE</anamorphic>
            <file id="file-1">
              <name>2023-04-01 14-56-52溪神带上钻局CC.mp4</name>
              <pathurl>file%3A//localhost/F%3A/MEDIA/APEX/2023-04-01%2014-56-52%E6%BA%AA%E7%A5%9E%E5%B8%A6%E4%B8%8A%E9%92%BB%E5%B1%80CC.mp4</pathurl>
              <media>
                <video>
                  <samplecharacteristics>
                    <rate>
                      <timebase>60</timebase>
                      <ntsc>FALSE</ntsc>
                    </rate>
                    <width>1920</width>
                    <height>1080</height>
                    <anamorphic>FALSE</anamorphic>
                    <pixelaspectratio>square</pixelaspectratio>
                    <fielddominance>none</fielddominance>
                  </samplecharacteristics>
                </video>
                <audio>
                  <samplecharacteristics>
                    <depth>16</depth>
                    <samplerate>48000</samplerate>
                  </samplecharacteristics>
                  <channelcount>2</channelcount>
                </audio>
                <audio>
                  <samplecharacteristics>
                    <depth>16</depth>
                    <samplerate>48000</samplerate>
                  </samplecharacteristics>
                  <channelcount>2</channelcount>
                </audio>
                <audio>
                  <samplecharacteristics>
                    <depth>16</depth>
                    <samplerate>48000</samplerate>
                  </samplecharacteristics>
                  <channelcount>2</channelcount>
                </audio>
              </media>
            </file>
            <link>
              <linkclipref>clipitem-197</linkclipref>
              <mediatype>video</mediatype>
              <trackindex>1</trackindex>
              <clipindex>1</clipindex>
            </link>
            <link>
              <linkclipref>clipitem-198</linkclipref>
              <mediatype>audio</mediatype>
              <trackindex>1</trackindex>
              <clipindex>1</clipindex>
              <groupindex>1</groupindex>
            </link>
            <link>
              <linkclipref>clipitem-199</linkclipref>
              <mediatype>audio</mediatype>
              <trackindex>2</trackindex>
              <clipindex>1</clipindex>
              <groupindex>1</groupindex>
            </link>
            <link>
              <linkclipref>clipitem-200</linkclipref>
              <mediatype>audio</mediatype>
              <trackindex>3</trackindex>
              <clipindex>1</clipindex>
              <groupindex>1</groupindex>
            </link>
            <link>
              <linkclipref>clipitem-201</linkclipref>
              <mediatype>audio</mediatype>
              <trackindex>4</trackindex>
              <clipindex>1</clipindex>
              <groupindex>1</groupindex>
            </link>
            <link>
              <linkclipref>clipitem-202</linkclipref>
              <mediatype>audio</mediatype>
              <trackindex>5</trackindex>
              <clipindex>1</clipindex>
              <groupindex>1</groupindex>
            </link>
            <link>
              <linkclipref>clipitem-203</linkclipref>
              <mediatype>audio</mediatype>
              <trackindex>6</trackindex>
              <clipindex>1</clipindex>
              <groupindex>1</groupindex>
            </link>
          </clipitem>
          <clipitem id="clipitem-204">
            <masterclipid>masterclip-1</masterclipid>
            <name>2023-04-01 14-56-52溪神带上钻局CC.mp4</name>
            <enabled>TRUE</enabled>
            <rate>
              <timebase>60</timebase>
              <ntsc>FALSE</ntsc>
            </rate>
            <start>3897</start>
            <end>4026</end>
            <in>60197</in>
            <out>60326</out>
            <alphatype>none</alphatype>
            <pixelaspectratio>square</pixelaspectratio>
            <anamorphic>FALSE</anamorphic>
            <file id="file-1">
              <name>2023-04-01 14-56-52溪神带上钻局CC.mp4</name>
              <pathurl>file%3A//localhost/F%3A/MEDIA/APEX/2023-04-01%2014-56-52%E6%BA%AA%E7%A5%9E%E5%B8%A6%E4%B8%8A%E9%92%BB%E5%B1%80CC.mp4</pathurl>
              <media>
                <video>
                  <samplecharacteristics>
                    <rate>
                      <timebase>60</timebase>
                      <ntsc>FALSE</ntsc>
                    </rate>
                    <width>1920</width>
                    <height>1080</height>
                    <anamorphic>FALSE</anamorphic>
                    <pixelaspectratio>square</pixelaspectratio>
                    <fielddominance>none</fielddominance>
                  </samplecharacteristics>
                </video>
                <audio>
                  <samplecharacteristics>
                    <depth>16</depth>
                    <samplerate>48000</samplerate>
                  </samplecharacteristics>
                  <channelcount>2</channelcount>
                </audio>
                <audio>
                  <samplecharacteristics>
                    <depth>16</depth>
                    <samplerate>48000</samplerate>
                  </samplecharacteristics>
                  <channelcount>2</channelcount>
                </audio>
                <audio>
                  <samplecharacteristics>
                    <depth>16</depth>
                    <samplerate>48000</samplerate>
                  </samplecharacteristics>
                  <channelcount>2</channelcount>
                </audio>
              </media>
            </file>
            <link>
              <linkclipref>clipitem-204</linkclipref>
              <mediatype>video</mediatype>
              <trackindex>1</trackindex>
              <clipindex>1</clipindex>
            </link>
            <link>
              <linkclipref>clipitem-205</linkclipref>
              <mediatype>audio</mediatype>
              <trackindex>1</trackindex>
              <clipindex>1</clipindex>
              <groupindex>1</groupindex>
            </link>
            <link>
              <linkclipref>clipitem-206</linkclipref>
              <mediatype>audio</mediatype>
              <trackindex>2</trackindex>
              <clipindex>1</clipindex>
              <groupindex>1</groupindex>
            </link>
            <link>
              <linkclipref>clipitem-207</linkclipref>
              <mediatype>audio</mediatype>
              <trackindex>3</trackindex>
              <clipindex>1</clipindex>
              <groupindex>1</groupindex>
            </link>
            <link>
              <linkclipref>clipitem-208</linkclipref>
              <mediatype>audio</mediatype>
              <trackindex>4</trackindex>
              <clipindex>1</clipindex>
              <groupindex>1</groupindex>
            </link>
            <link>
              <linkclipref>clipitem-209</linkclipref>
              <mediatype>audio</mediatype>
              <trackindex>5</trackindex>
              <clipindex>1</clipindex>
              <groupindex>1</groupindex>
            </link>
            <link>
              <linkclipref>clipitem-210</linkclipref>
              <mediatype>audio</mediatype>
              <trackindex>6</trackindex>
              <clipindex>1</clipindex>
              <groupindex>1</groupindex>
            </link>
          </clipitem>
          <clipitem id="clipitem-211">
            <masterclipid>masterclip-1</masterclipid>
            <name>2023-04-01 14-56-52溪神带上钻局CC.mp4</name>
            <enabled>TRUE</enabled>
            <rate>
              <timebase>60</timebase>
              <ntsc>FALSE</ntsc>
            </rate>
            <start>4026</start>
            <end>4128</end>
            <in>60335</in>
            <out>60437</out>
            <alphatype>none</alphatype>
            <pixelaspectratio>square</pixelaspectratio>
            <anamorphic>FALSE</anamorphic>
            <file id="file-1">
              <name>2023-04-01 14-56-52溪神带上钻局CC.mp4</name>
              <pathurl>file%3A//localhost/F%3A/MEDIA/APEX/2023-04-01%2014-56-52%E6%BA%AA%E7%A5%9E%E5%B8%A6%E4%B8%8A%E9%92%BB%E5%B1%80CC.mp4</pathurl>
              <media>
                <video>
                  <samplecharacteristics>
                    <rate>
                      <timebase>60</timebase>
                      <ntsc>FALSE</ntsc>
                    </rate>
                    <width>1920</width>
                    <height>1080</height>
                    <anamorphic>FALSE</anamorphic>
                    <pixelaspectratio>square</pixelaspectratio>
                    <fielddominance>none</fielddominance>
                  </samplecharacteristics>
                </video>
                <audio>
                  <samplecharacteristics>
                    <depth>16</depth>
                    <samplerate>48000</samplerate>
                  </samplecharacteristics>
                  <channelcount>2</channelcount>
                </audio>
                <audio>
                  <samplecharacteristics>
                    <depth>16</depth>
                    <samplerate>48000</samplerate>
                  </samplecharacteristics>
                  <channelcount>2</channelcount>
                </audio>
                <audio>
                  <samplecharacteristics>
                    <depth>16</depth>
                    <samplerate>48000</samplerate>
                  </samplecharacteristics>
                  <channelcount>2</channelcount>
                </audio>
              </media>
            </file>
            <link>
              <linkclipref>clipitem-211</linkclipref>
              <mediatype>video</mediatype>
              <trackindex>1</trackindex>
              <clipindex>1</clipindex>
            </link>
            <link>
              <linkclipref>clipitem-212</linkclipref>
              <mediatype>audio</mediatype>
              <trackindex>1</trackindex>
              <clipindex>1</clipindex>
              <groupindex>1</groupindex>
            </link>
            <link>
              <linkclipref>clipitem-213</linkclipref>
              <mediatype>audio</mediatype>
              <trackindex>2</trackindex>
              <clipindex>1</clipindex>
              <groupindex>1</groupindex>
            </link>
            <link>
              <linkclipref>clipitem-214</linkclipref>
              <mediatype>audio</mediatype>
              <trackindex>3</trackindex>
              <clipindex>1</clipindex>
              <groupindex>1</groupindex>
            </link>
            <link>
              <linkclipref>clipitem-215</linkclipref>
              <mediatype>audio</mediatype>
              <trackindex>4</trackindex>
              <clipindex>1</clipindex>
              <groupindex>1</groupindex>
            </link>
            <link>
              <linkclipref>clipitem-216</linkclipref>
              <mediatype>audio</mediatype>
              <trackindex>5</trackindex>
              <clipindex>1</clipindex>
              <groupindex>1</groupindex>
            </link>
            <link>
              <linkclipref>clipitem-217</linkclipref>
              <mediatype>audio</mediatype>
              <trackindex>6</trackindex>
              <clipindex>1</clipindex>
              <groupindex>1</groupindex>
            </link>
          </clipitem>
          <clipitem id="clipitem-218">
            <masterclipid>masterclip-1</masterclipid>
            <name>2023-04-01 14-56-52溪神带上钻局CC.mp4</name>
            <enabled>TRUE</enabled>
            <rate>
              <timebase>60</timebase>
              <ntsc>FALSE</ntsc>
            </rate>
            <start>4128</start>
            <end>4272</end>
            <in>61170</in>
            <out>61314</out>
            <alphatype>none</alphatype>
            <pixelaspectratio>square</pixelaspectratio>
            <anamorphic>FALSE</anamorphic>
            <file id="file-1">
              <name>2023-04-01 14-56-52溪神带上钻局CC.mp4</name>
              <pathurl>file%3A//localhost/F%3A/MEDIA/APEX/2023-04-01%2014-56-52%E6%BA%AA%E7%A5%9E%E5%B8%A6%E4%B8%8A%E9%92%BB%E5%B1%80CC.mp4</pathurl>
              <media>
                <video>
                  <samplecharacteristics>
                    <rate>
                      <timebase>60</timebase>
                      <ntsc>FALSE</ntsc>
                    </rate>
                    <width>1920</width>
                    <height>1080</height>
                    <anamorphic>FALSE</anamorphic>
                    <pixelaspectratio>square</pixelaspectratio>
                    <fielddominance>none</fielddominance>
                  </samplecharacteristics>
                </video>
                <audio>
                  <samplecharacteristics>
                    <depth>16</depth>
                    <samplerate>48000</samplerate>
                  </samplecharacteristics>
                  <channelcount>2</channelcount>
                </audio>
                <audio>
                  <samplecharacteristics>
                    <depth>16</depth>
                    <samplerate>48000</samplerate>
                  </samplecharacteristics>
                  <channelcount>2</channelcount>
                </audio>
                <audio>
                  <samplecharacteristics>
                    <depth>16</depth>
                    <samplerate>48000</samplerate>
                  </samplecharacteristics>
                  <channelcount>2</channelcount>
                </audio>
              </media>
            </file>
            <link>
              <linkclipref>clipitem-218</linkclipref>
              <mediatype>video</mediatype>
              <trackindex>1</trackindex>
              <clipindex>1</clipindex>
            </link>
            <link>
              <linkclipref>clipitem-219</linkclipref>
              <mediatype>audio</mediatype>
              <trackindex>1</trackindex>
              <clipindex>1</clipindex>
              <groupindex>1</groupindex>
            </link>
            <link>
              <linkclipref>clipitem-220</linkclipref>
              <mediatype>audio</mediatype>
              <trackindex>2</trackindex>
              <clipindex>1</clipindex>
              <groupindex>1</groupindex>
            </link>
            <link>
              <linkclipref>clipitem-221</linkclipref>
              <mediatype>audio</mediatype>
              <trackindex>3</trackindex>
              <clipindex>1</clipindex>
              <groupindex>1</groupindex>
            </link>
            <link>
              <linkclipref>clipitem-222</linkclipref>
              <mediatype>audio</mediatype>
              <trackindex>4</trackindex>
              <clipindex>1</clipindex>
              <groupindex>1</groupindex>
            </link>
            <link>
              <linkclipref>clipitem-223</linkclipref>
              <mediatype>audio</mediatype>
              <trackindex>5</trackindex>
              <clipindex>1</clipindex>
              <groupindex>1</groupindex>
            </link>
            <link>
              <linkclipref>clipitem-224</linkclipref>
              <mediatype>audio</mediatype>
              <trackindex>6</trackindex>
              <clipindex>1</clipindex>
              <groupindex>1</groupindex>
            </link>
          </clipitem>
          <clipitem id="clipitem-225">
            <masterclipid>masterclip-1</masterclipid>
            <name>2023-04-01 14-56-52溪神带上钻局CC.mp4</name>
            <enabled>TRUE</enabled>
            <rate>
              <timebase>60</timebase>
              <ntsc>FALSE</ntsc>
            </rate>
            <start>4272</start>
            <end>4399</end>
            <in>61526</in>
            <out>61653</out>
            <alphatype>none</alphatype>
            <pixelaspectratio>square</pixelaspectratio>
            <anamorphic>FALSE</anamorphic>
            <file id="file-1">
              <name>2023-04-01 14-56-52溪神带上钻局CC.mp4</name>
              <pathurl>file%3A//localhost/F%3A/MEDIA/APEX/2023-04-01%2014-56-52%E6%BA%AA%E7%A5%9E%E5%B8%A6%E4%B8%8A%E9%92%BB%E5%B1%80CC.mp4</pathurl>
              <media>
                <video>
                  <samplecharacteristics>
                    <rate>
                      <timebase>60</timebase>
                      <ntsc>FALSE</ntsc>
                    </rate>
                    <width>1920</width>
                    <height>1080</height>
                    <anamorphic>FALSE</anamorphic>
                    <pixelaspectratio>square</pixelaspectratio>
                    <fielddominance>none</fielddominance>
                  </samplecharacteristics>
                </video>
                <audio>
                  <samplecharacteristics>
                    <depth>16</depth>
                    <samplerate>48000</samplerate>
                  </samplecharacteristics>
                  <channelcount>2</channelcount>
                </audio>
                <audio>
                  <samplecharacteristics>
                    <depth>16</depth>
                    <samplerate>48000</samplerate>
                  </samplecharacteristics>
                  <channelcount>2</channelcount>
                </audio>
                <audio>
                  <samplecharacteristics>
                    <depth>16</depth>
                    <samplerate>48000</samplerate>
                  </samplecharacteristics>
                  <channelcount>2</channelcount>
                </audio>
              </media>
            </file>
            <link>
              <linkclipref>clipitem-225</linkclipref>
              <mediatype>video</mediatype>
              <trackindex>1</trackindex>
              <clipindex>1</clipindex>
            </link>
            <link>
              <linkclipref>clipitem-226</linkclipref>
              <mediatype>audio</mediatype>
              <trackindex>1</trackindex>
              <clipindex>1</clipindex>
              <groupindex>1</groupindex>
            </link>
            <link>
              <linkclipref>clipitem-227</linkclipref>
              <mediatype>audio</mediatype>
              <trackindex>2</trackindex>
              <clipindex>1</clipindex>
              <groupindex>1</groupindex>
            </link>
            <link>
              <linkclipref>clipitem-228</linkclipref>
              <mediatype>audio</mediatype>
              <trackindex>3</trackindex>
              <clipindex>1</clipindex>
              <groupindex>1</groupindex>
            </link>
            <link>
              <linkclipref>clipitem-229</linkclipref>
              <mediatype>audio</mediatype>
              <trackindex>4</trackindex>
              <clipindex>1</clipindex>
              <groupindex>1</groupindex>
            </link>
            <link>
              <linkclipref>clipitem-230</linkclipref>
              <mediatype>audio</mediatype>
              <trackindex>5</trackindex>
              <clipindex>1</clipindex>
              <groupindex>1</groupindex>
            </link>
            <link>
              <linkclipref>clipitem-231</linkclipref>
              <mediatype>audio</mediatype>
              <trackindex>6</trackindex>
              <clipindex>1</clipindex>
              <groupindex>1</groupindex>
            </link>
          </clipitem>
          <clipitem id="clipitem-232">
            <masterclipid>masterclip-1</masterclipid>
            <name>2023-04-01 14-56-52溪神带上钻局CC.mp4</name>
            <enabled>TRUE</enabled>
            <rate>
              <timebase>60</timebase>
              <ntsc>FALSE</ntsc>
            </rate>
            <start>4399</start>
            <end>4509</end>
            <in>62041</in>
            <out>62151</out>
            <alphatype>none</alphatype>
            <pixelaspectratio>square</pixelaspectratio>
            <anamorphic>FALSE</anamorphic>
            <file id="file-1">
              <name>2023-04-01 14-56-52溪神带上钻局CC.mp4</name>
              <pathurl>file%3A//localhost/F%3A/MEDIA/APEX/2023-04-01%2014-56-52%E6%BA%AA%E7%A5%9E%E5%B8%A6%E4%B8%8A%E9%92%BB%E5%B1%80CC.mp4</pathurl>
              <media>
                <video>
                  <samplecharacteristics>
                    <rate>
                      <timebase>60</timebase>
                      <ntsc>FALSE</ntsc>
                    </rate>
                    <width>1920</width>
                    <height>1080</height>
                    <anamorphic>FALSE</anamorphic>
                    <pixelaspectratio>square</pixelaspectratio>
                    <fielddominance>none</fielddominance>
                  </samplecharacteristics>
                </video>
                <audio>
                  <samplecharacteristics>
                    <depth>16</depth>
                    <samplerate>48000</samplerate>
                  </samplecharacteristics>
                  <channelcount>2</channelcount>
                </audio>
                <audio>
                  <samplecharacteristics>
                    <depth>16</depth>
                    <samplerate>48000</samplerate>
                  </samplecharacteristics>
                  <channelcount>2</channelcount>
                </audio>
                <audio>
                  <samplecharacteristics>
                    <depth>16</depth>
                    <samplerate>48000</samplerate>
                  </samplecharacteristics>
                  <channelcount>2</channelcount>
                </audio>
              </media>
            </file>
            <link>
              <linkclipref>clipitem-232</linkclipref>
              <mediatype>video</mediatype>
              <trackindex>1</trackindex>
              <clipindex>1</clipindex>
            </link>
            <link>
              <linkclipref>clipitem-233</linkclipref>
              <mediatype>audio</mediatype>
              <trackindex>1</trackindex>
              <clipindex>1</clipindex>
              <groupindex>1</groupindex>
            </link>
            <link>
              <linkclipref>clipitem-234</linkclipref>
              <mediatype>audio</mediatype>
              <trackindex>2</trackindex>
              <clipindex>1</clipindex>
              <groupindex>1</groupindex>
            </link>
            <link>
              <linkclipref>clipitem-235</linkclipref>
              <mediatype>audio</mediatype>
              <trackindex>3</trackindex>
              <clipindex>1</clipindex>
              <groupindex>1</groupindex>
            </link>
            <link>
              <linkclipref>clipitem-236</linkclipref>
              <mediatype>audio</mediatype>
              <trackindex>4</trackindex>
              <clipindex>1</clipindex>
              <groupindex>1</groupindex>
            </link>
            <link>
              <linkclipref>clipitem-237</linkclipref>
              <mediatype>audio</mediatype>
              <trackindex>5</trackindex>
              <clipindex>1</clipindex>
              <groupindex>1</groupindex>
            </link>
            <link>
              <linkclipref>clipitem-238</linkclipref>
              <mediatype>audio</mediatype>
              <trackindex>6</trackindex>
              <clipindex>1</clipindex>
              <groupindex>1</groupindex>
            </link>
          </clipitem>
          <clipitem id="clipitem-239">
            <masterclipid>masterclip-2</masterclipid>
            <name>2023-04-01 13-58-58溪神带飞王源5KCC.mp4</name>
            <enabled>TRUE</enabled>
            <rate>
              <timebase>60</timebase>
              <ntsc>FALSE</ntsc>
            </rate>
            <start>4509</start>
            <end>4526</end>
            <in>1764</in>
            <out>1781</out>
            <alphatype>none</alphatype>
            <pixelaspectratio>square</pixelaspectratio>
            <anamorphic>FALSE</anamorphic>
            <file id="file-2">
              <name>2023-04-01 13-58-58溪神带飞王源5KCC.mp4</name>
              <pathurl>file%3A//localhost/F%3A/MEDIA/APEX/2023-04-01%2013-58-58%E6%BA%AA%E7%A5%9E%E5%B8%A6%E9%A3%9E%E7%8E%8B%E6%BA%905KCC.mp4</pathurl>
              <media>
                <video>
                  <samplecharacteristics>
                    <rate>
                      <timebase>60</timebase>
                      <ntsc>FALSE</ntsc>
                    </rate>
                    <width>1920</width>
                    <height>1080</height>
                    <anamorphic>FALSE</anamorphic>
                    <pixelaspectratio>square</pixelaspectratio>
                    <fielddominance>none</fielddominance>
                  </samplecharacteristics>
                </video>
                <audio>
                  <samplecharacteristics>
                    <depth>16</depth>
                    <samplerate>48000</samplerate>
                  </samplecharacteristics>
                  <channelcount>2</channelcount>
                </audio>
                <audio>
                  <samplecharacteristics>
                    <depth>16</depth>
                    <samplerate>48000</samplerate>
                  </samplecharacteristics>
                  <channelcount>2</channelcount>
                </audio>
                <audio>
                  <samplecharacteristics>
                    <depth>16</depth>
                    <samplerate>48000</samplerate>
                  </samplecharacteristics>
                  <channelcount>2</channelcount>
                </audio>
              </media>
            </file>
            <link>
              <linkclipref>clipitem-239</linkclipref>
              <mediatype>video</mediatype>
              <trackindex>1</trackindex>
              <clipindex>1</clipindex>
            </link>
            <link>
              <linkclipref>clipitem-240</linkclipref>
              <mediatype>audio</mediatype>
              <trackindex>1</trackindex>
              <clipindex>1</clipindex>
              <groupindex>1</groupindex>
            </link>
            <link>
              <linkclipref>clipitem-241</linkclipref>
              <mediatype>audio</mediatype>
              <trackindex>2</trackindex>
              <clipindex>1</clipindex>
              <groupindex>1</groupindex>
            </link>
            <link>
              <linkclipref>clipitem-242</linkclipref>
              <mediatype>audio</mediatype>
              <trackindex>3</trackindex>
              <clipindex>1</clipindex>
              <groupindex>1</groupindex>
            </link>
            <link>
              <linkclipref>clipitem-243</linkclipref>
              <mediatype>audio</mediatype>
              <trackindex>4</trackindex>
              <clipindex>1</clipindex>
              <groupindex>1</groupindex>
            </link>
            <link>
              <linkclipref>clipitem-244</linkclipref>
              <mediatype>audio</mediatype>
              <trackindex>5</trackindex>
              <clipindex>1</clipindex>
              <groupindex>1</groupindex>
            </link>
            <link>
              <linkclipref>clipitem-245</linkclipref>
              <mediatype>audio</mediatype>
              <trackindex>6</trackindex>
              <clipindex>1</clipindex>
              <groupindex>1</groupindex>
            </link>
          </clipitem>
          <clipitem id="clipitem-246">
            <masterclipid>masterclip-2</masterclipid>
            <name>2023-04-01 13-58-58溪神带飞王源5KCC.mp4</name>
            <enabled>TRUE</enabled>
            <rate>
              <timebase>60</timebase>
              <ntsc>FALSE</ntsc>
            </rate>
            <start>4526</start>
            <end>4596</end>
            <in>22846</in>
            <out>22916</out>
            <alphatype>none</alphatype>
            <pixelaspectratio>square</pixelaspectratio>
            <anamorphic>FALSE</anamorphic>
            <file id="file-2">
              <name>2023-04-01 13-58-58溪神带飞王源5KCC.mp4</name>
              <pathurl>file%3A//localhost/F%3A/MEDIA/APEX/2023-04-01%2013-58-58%E6%BA%AA%E7%A5%9E%E5%B8%A6%E9%A3%9E%E7%8E%8B%E6%BA%905KCC.mp4</pathurl>
              <media>
                <video>
                  <samplecharacteristics>
                    <rate>
                      <timebase>60</timebase>
                      <ntsc>FALSE</ntsc>
                    </rate>
                    <width>1920</width>
                    <height>1080</height>
                    <anamorphic>FALSE</anamorphic>
                    <pixelaspectratio>square</pixelaspectratio>
                    <fielddominance>none</fielddominance>
                  </samplecharacteristics>
                </video>
                <audio>
                  <samplecharacteristics>
                    <depth>16</depth>
                    <samplerate>48000</samplerate>
                  </samplecharacteristics>
                  <channelcount>2</channelcount>
                </audio>
                <audio>
                  <samplecharacteristics>
                    <depth>16</depth>
                    <samplerate>48000</samplerate>
                  </samplecharacteristics>
                  <channelcount>2</channelcount>
                </audio>
                <audio>
                  <samplecharacteristics>
                    <depth>16</depth>
                    <samplerate>48000</samplerate>
                  </samplecharacteristics>
                  <channelcount>2</channelcount>
                </audio>
              </media>
            </file>
            <link>
              <linkclipref>clipitem-246</linkclipref>
              <mediatype>video</mediatype>
              <trackindex>1</trackindex>
              <clipindex>1</clipindex>
            </link>
            <link>
              <linkclipref>clipitem-247</linkclipref>
              <mediatype>audio</mediatype>
              <trackindex>1</trackindex>
              <clipindex>1</clipindex>
              <groupindex>1</groupindex>
            </link>
            <link>
              <linkclipref>clipitem-248</linkclipref>
              <mediatype>audio</mediatype>
              <trackindex>2</trackindex>
              <clipindex>1</clipindex>
              <groupindex>1</groupindex>
            </link>
            <link>
              <linkclipref>clipitem-249</linkclipref>
              <mediatype>audio</mediatype>
              <trackindex>3</trackindex>
              <clipindex>1</clipindex>
              <groupindex>1</groupindex>
            </link>
            <link>
              <linkclipref>clipitem-250</linkclipref>
              <mediatype>audio</mediatype>
              <trackindex>4</trackindex>
              <clipindex>1</clipindex>
              <groupindex>1</groupindex>
            </link>
            <link>
              <linkclipref>clipitem-251</linkclipref>
              <mediatype>audio</mediatype>
              <trackindex>5</trackindex>
              <clipindex>1</clipindex>
              <groupindex>1</groupindex>
            </link>
            <link>
              <linkclipref>clipitem-252</linkclipref>
              <mediatype>audio</mediatype>
              <trackindex>6</trackindex>
              <clipindex>1</clipindex>
              <groupindex>1</groupindex>
            </link>
          </clipitem>
          <clipitem id="clipitem-253">
            <masterclipid>masterclip-2</masterclipid>
            <name>2023-04-01 13-58-58溪神带飞王源5KCC.mp4</name>
            <enabled>TRUE</enabled>
            <rate>
              <timebase>60</timebase>
              <ntsc>FALSE</ntsc>
            </rate>
            <start>4596</start>
            <end>4848</end>
            <in>22937</in>
            <out>23189</out>
            <alphatype>none</alphatype>
            <pixelaspectratio>square</pixelaspectratio>
            <anamorphic>FALSE</anamorphic>
            <file id="file-2">
              <name>2023-04-01 13-58-58溪神带飞王源5KCC.mp4</name>
              <pathurl>file%3A//localhost/F%3A/MEDIA/APEX/2023-04-01%2013-58-58%E6%BA%AA%E7%A5%9E%E5%B8%A6%E9%A3%9E%E7%8E%8B%E6%BA%905KCC.mp4</pathurl>
              <media>
                <video>
                  <samplecharacteristics>
                    <rate>
                      <timebase>60</timebase>
                      <ntsc>FALSE</ntsc>
                    </rate>
                    <width>1920</width>
                    <height>1080</height>
                    <anamorphic>FALSE</anamorphic>
                    <pixelaspectratio>square</pixelaspectratio>
                    <fielddominance>none</fielddominance>
                  </samplecharacteristics>
                </video>
                <audio>
                  <samplecharacteristics>
                    <depth>16</depth>
                    <samplerate>48000</samplerate>
                  </samplecharacteristics>
                  <channelcount>2</channelcount>
                </audio>
                <audio>
                  <samplecharacteristics>
                    <depth>16</depth>
                    <samplerate>48000</samplerate>
                  </samplecharacteristics>
                  <channelcount>2</channelcount>
                </audio>
                <audio>
                  <samplecharacteristics>
                    <depth>16</depth>
                    <samplerate>48000</samplerate>
                  </samplecharacteristics>
                  <channelcount>2</channelcount>
                </audio>
              </media>
            </file>
            <link>
              <linkclipref>clipitem-253</linkclipref>
              <mediatype>video</mediatype>
              <trackindex>1</trackindex>
              <clipindex>1</clipindex>
            </link>
            <link>
              <linkclipref>clipitem-254</linkclipref>
              <mediatype>audio</mediatype>
              <trackindex>1</trackindex>
              <clipindex>1</clipindex>
              <groupindex>1</groupindex>
            </link>
            <link>
              <linkclipref>clipitem-255</linkclipref>
              <mediatype>audio</mediatype>
              <trackindex>2</trackindex>
              <clipindex>1</clipindex>
              <groupindex>1</groupindex>
            </link>
            <link>
              <linkclipref>clipitem-256</linkclipref>
              <mediatype>audio</mediatype>
              <trackindex>3</trackindex>
              <clipindex>1</clipindex>
              <groupindex>1</groupindex>
            </link>
            <link>
              <linkclipref>clipitem-257</linkclipref>
              <mediatype>audio</mediatype>
              <trackindex>4</trackindex>
              <clipindex>1</clipindex>
              <groupindex>1</groupindex>
            </link>
            <link>
              <linkclipref>clipitem-258</linkclipref>
              <mediatype>audio</mediatype>
              <trackindex>5</trackindex>
              <clipindex>1</clipindex>
              <groupindex>1</groupindex>
            </link>
            <link>
              <linkclipref>clipitem-259</linkclipref>
              <mediatype>audio</mediatype>
              <trackindex>6</trackindex>
              <clipindex>1</clipindex>
              <groupindex>1</groupindex>
            </link>
          </clipitem>
          <clipitem id="clipitem-260">
            <masterclipid>masterclip-2</masterclipid>
            <name>2023-04-01 13-58-58溪神带飞王源5KCC.mp4</name>
            <enabled>TRUE</enabled>
            <rate>
              <timebase>60</timebase>
              <ntsc>FALSE</ntsc>
            </rate>
            <start>4848</start>
            <end>5027</end>
            <in>24127</in>
            <out>24306</out>
            <alphatype>none</alphatype>
            <pixelaspectratio>square</pixelaspectratio>
            <anamorphic>FALSE</anamorphic>
            <file id="file-2">
              <name>2023-04-01 13-58-58溪神带飞王源5KCC.mp4</name>
              <pathurl>file%3A//localhost/F%3A/MEDIA/APEX/2023-04-01%2013-58-58%E6%BA%AA%E7%A5%9E%E5%B8%A6%E9%A3%9E%E7%8E%8B%E6%BA%905KCC.mp4</pathurl>
              <media>
                <video>
                  <samplecharacteristics>
                    <rate>
                      <timebase>60</timebase>
                      <ntsc>FALSE</ntsc>
                    </rate>
                    <width>1920</width>
                    <height>1080</height>
                    <anamorphic>FALSE</anamorphic>
                    <pixelaspectratio>square</pixelaspectratio>
                    <fielddominance>none</fielddominance>
                  </samplecharacteristics>
                </video>
                <audio>
                  <samplecharacteristics>
                    <depth>16</depth>
                    <samplerate>48000</samplerate>
                  </samplecharacteristics>
                  <channelcount>2</channelcount>
                </audio>
                <audio>
                  <samplecharacteristics>
                    <depth>16</depth>
                    <samplerate>48000</samplerate>
                  </samplecharacteristics>
                  <channelcount>2</channelcount>
                </audio>
                <audio>
                  <samplecharacteristics>
                    <depth>16</depth>
                    <samplerate>48000</samplerate>
                  </samplecharacteristics>
                  <channelcount>2</channelcount>
                </audio>
              </media>
            </file>
            <link>
              <linkclipref>clipitem-260</linkclipref>
              <mediatype>video</mediatype>
              <trackindex>1</trackindex>
              <clipindex>1</clipindex>
            </link>
            <link>
              <linkclipref>clipitem-261</linkclipref>
              <mediatype>audio</mediatype>
              <trackindex>1</trackindex>
              <clipindex>1</clipindex>
              <groupindex>1</groupindex>
            </link>
            <link>
              <linkclipref>clipitem-262</linkclipref>
              <mediatype>audio</mediatype>
              <trackindex>2</trackindex>
              <clipindex>1</clipindex>
              <groupindex>1</groupindex>
            </link>
            <link>
              <linkclipref>clipitem-263</linkclipref>
              <mediatype>audio</mediatype>
              <trackindex>3</trackindex>
              <clipindex>1</clipindex>
              <groupindex>1</groupindex>
            </link>
            <link>
              <linkclipref>clipitem-264</linkclipref>
              <mediatype>audio</mediatype>
              <trackindex>4</trackindex>
              <clipindex>1</clipindex>
              <groupindex>1</groupindex>
            </link>
            <link>
              <linkclipref>clipitem-265</linkclipref>
              <mediatype>audio</mediatype>
              <trackindex>5</trackindex>
              <clipindex>1</clipindex>
              <groupindex>1</groupindex>
            </link>
            <link>
              <linkclipref>clipitem-266</linkclipref>
              <mediatype>audio</mediatype>
              <trackindex>6</trackindex>
              <clipindex>1</clipindex>
              <groupindex>1</groupindex>
            </link>
          </clipitem>
          <clipitem id="clipitem-267">
            <masterclipid>masterclip-2</masterclipid>
            <name>2023-04-01 13-58-58溪神带飞王源5KCC.mp4</name>
            <enabled>TRUE</enabled>
            <rate>
              <timebase>60</timebase>
              <ntsc>FALSE</ntsc>
            </rate>
            <start>5027</start>
            <end>5103</end>
            <in>24579</in>
            <out>24655</out>
            <alphatype>none</alphatype>
            <pixelaspectratio>square</pixelaspectratio>
            <anamorphic>FALSE</anamorphic>
            <file id="file-2">
              <name>2023-04-01 13-58-58溪神带飞王源5KCC.mp4</name>
              <pathurl>file%3A//localhost/F%3A/MEDIA/APEX/2023-04-01%2013-58-58%E6%BA%AA%E7%A5%9E%E5%B8%A6%E9%A3%9E%E7%8E%8B%E6%BA%905KCC.mp4</pathurl>
              <media>
                <video>
                  <samplecharacteristics>
                    <rate>
                      <timebase>60</timebase>
                      <ntsc>FALSE</ntsc>
                    </rate>
                    <width>1920</width>
                    <height>1080</height>
                    <anamorphic>FALSE</anamorphic>
                    <pixelaspectratio>square</pixelaspectratio>
                    <fielddominance>none</fielddominance>
                  </samplecharacteristics>
                </video>
                <audio>
                  <samplecharacteristics>
                    <depth>16</depth>
                    <samplerate>48000</samplerate>
                  </samplecharacteristics>
                  <channelcount>2</channelcount>
                </audio>
                <audio>
                  <samplecharacteristics>
                    <depth>16</depth>
                    <samplerate>48000</samplerate>
                  </samplecharacteristics>
                  <channelcount>2</channelcount>
                </audio>
                <audio>
                  <samplecharacteristics>
                    <depth>16</depth>
                    <samplerate>48000</samplerate>
                  </samplecharacteristics>
                  <channelcount>2</channelcount>
                </audio>
              </media>
            </file>
            <link>
              <linkclipref>clipitem-267</linkclipref>
              <mediatype>video</mediatype>
              <trackindex>1</trackindex>
              <clipindex>1</clipindex>
            </link>
            <link>
              <linkclipref>clipitem-268</linkclipref>
              <mediatype>audio</mediatype>
              <trackindex>1</trackindex>
              <clipindex>1</clipindex>
              <groupindex>1</groupindex>
            </link>
            <link>
              <linkclipref>clipitem-269</linkclipref>
              <mediatype>audio</mediatype>
              <trackindex>2</trackindex>
              <clipindex>1</clipindex>
              <groupindex>1</groupindex>
            </link>
            <link>
              <linkclipref>clipitem-270</linkclipref>
              <mediatype>audio</mediatype>
              <trackindex>3</trackindex>
              <clipindex>1</clipindex>
              <groupindex>1</groupindex>
            </link>
            <link>
              <linkclipref>clipitem-271</linkclipref>
              <mediatype>audio</mediatype>
              <trackindex>4</trackindex>
              <clipindex>1</clipindex>
              <groupindex>1</groupindex>
            </link>
            <link>
              <linkclipref>clipitem-272</linkclipref>
              <mediatype>audio</mediatype>
              <trackindex>5</trackindex>
              <clipindex>1</clipindex>
              <groupindex>1</groupindex>
            </link>
            <link>
              <linkclipref>clipitem-273</linkclipref>
              <mediatype>audio</mediatype>
              <trackindex>6</trackindex>
              <clipindex>1</clipindex>
              <groupindex>1</groupindex>
            </link>
          </clipitem>
          <clipitem id="clipitem-274">
            <masterclipid>masterclip-2</masterclipid>
            <name>2023-04-01 13-58-58溪神带飞王源5KCC.mp4</name>
            <enabled>TRUE</enabled>
            <rate>
              <timebase>60</timebase>
              <ntsc>FALSE</ntsc>
            </rate>
            <start>5103</start>
            <end>5273</end>
            <in>24893</in>
            <out>25063</out>
            <alphatype>none</alphatype>
            <pixelaspectratio>square</pixelaspectratio>
            <anamorphic>FALSE</anamorphic>
            <file id="file-2">
              <name>2023-04-01 13-58-58溪神带飞王源5KCC.mp4</name>
              <pathurl>file%3A//localhost/F%3A/MEDIA/APEX/2023-04-01%2013-58-58%E6%BA%AA%E7%A5%9E%E5%B8%A6%E9%A3%9E%E7%8E%8B%E6%BA%905KCC.mp4</pathurl>
              <media>
                <video>
                  <samplecharacteristics>
                    <rate>
                      <timebase>60</timebase>
                      <ntsc>FALSE</ntsc>
                    </rate>
                    <width>1920</width>
                    <height>1080</height>
                    <anamorphic>FALSE</anamorphic>
                    <pixelaspectratio>square</pixelaspectratio>
                    <fielddominance>none</fielddominance>
                  </samplecharacteristics>
                </video>
                <audio>
                  <samplecharacteristics>
                    <depth>16</depth>
                    <samplerate>48000</samplerate>
                  </samplecharacteristics>
                  <channelcount>2</channelcount>
                </audio>
                <audio>
                  <samplecharacteristics>
                    <depth>16</depth>
                    <samplerate>48000</samplerate>
                  </samplecharacteristics>
                  <channelcount>2</channelcount>
                </audio>
                <audio>
                  <samplecharacteristics>
                    <depth>16</depth>
                    <samplerate>48000</samplerate>
                  </samplecharacteristics>
                  <channelcount>2</channelcount>
                </audio>
              </media>
            </file>
            <link>
              <linkclipref>clipitem-274</linkclipref>
              <mediatype>video</mediatype>
              <trackindex>1</trackindex>
              <clipindex>1</clipindex>
            </link>
            <link>
              <linkclipref>clipitem-275</linkclipref>
              <mediatype>audio</mediatype>
              <trackindex>1</trackindex>
              <clipindex>1</clipindex>
              <groupindex>1</groupindex>
            </link>
            <link>
              <linkclipref>clipitem-276</linkclipref>
              <mediatype>audio</mediatype>
              <trackindex>2</trackindex>
              <clipindex>1</clipindex>
              <groupindex>1</groupindex>
            </link>
            <link>
              <linkclipref>clipitem-277</linkclipref>
              <mediatype>audio</mediatype>
              <trackindex>3</trackindex>
              <clipindex>1</clipindex>
              <groupindex>1</groupindex>
            </link>
            <link>
              <linkclipref>clipitem-278</linkclipref>
              <mediatype>audio</mediatype>
              <trackindex>4</trackindex>
              <clipindex>1</clipindex>
              <groupindex>1</groupindex>
            </link>
            <link>
              <linkclipref>clipitem-279</linkclipref>
              <mediatype>audio</mediatype>
              <trackindex>5</trackindex>
              <clipindex>1</clipindex>
              <groupindex>1</groupindex>
            </link>
            <link>
              <linkclipref>clipitem-280</linkclipref>
              <mediatype>audio</mediatype>
              <trackindex>6</trackindex>
              <clipindex>1</clipindex>
              <groupindex>1</groupindex>
            </link>
          </clipitem>
          <clipitem id="clipitem-281">
            <masterclipid>masterclip-2</masterclipid>
            <name>2023-04-01 13-58-58溪神带飞王源5KCC.mp4</name>
            <enabled>TRUE</enabled>
            <rate>
              <timebase>60</timebase>
              <ntsc>FALSE</ntsc>
            </rate>
            <start>5273</start>
            <end>5350</end>
            <in>31222</in>
            <out>31299</out>
            <alphatype>none</alphatype>
            <pixelaspectratio>square</pixelaspectratio>
            <anamorphic>FALSE</anamorphic>
            <file id="file-2">
              <name>2023-04-01 13-58-58溪神带飞王源5KCC.mp4</name>
              <pathurl>file%3A//localhost/F%3A/MEDIA/APEX/2023-04-01%2013-58-58%E6%BA%AA%E7%A5%9E%E5%B8%A6%E9%A3%9E%E7%8E%8B%E6%BA%905KCC.mp4</pathurl>
              <media>
                <video>
                  <samplecharacteristics>
                    <rate>
                      <timebase>60</timebase>
                      <ntsc>FALSE</ntsc>
                    </rate>
                    <width>1920</width>
                    <height>1080</height>
                    <anamorphic>FALSE</anamorphic>
                    <pixelaspectratio>square</pixelaspectratio>
                    <fielddominance>none</fielddominance>
                  </samplecharacteristics>
                </video>
                <audio>
                  <samplecharacteristics>
                    <depth>16</depth>
                    <samplerate>48000</samplerate>
                  </samplecharacteristics>
                  <channelcount>2</channelcount>
                </audio>
                <audio>
                  <samplecharacteristics>
                    <depth>16</depth>
                    <samplerate>48000</samplerate>
                  </samplecharacteristics>
                  <channelcount>2</channelcount>
                </audio>
                <audio>
                  <samplecharacteristics>
                    <depth>16</depth>
                    <samplerate>48000</samplerate>
                  </samplecharacteristics>
                  <channelcount>2</channelcount>
                </audio>
              </media>
            </file>
            <link>
              <linkclipref>clipitem-281</linkclipref>
              <mediatype>video</mediatype>
              <trackindex>1</trackindex>
              <clipindex>1</clipindex>
            </link>
            <link>
              <linkclipref>clipitem-282</linkclipref>
              <mediatype>audio</mediatype>
              <trackindex>1</trackindex>
              <clipindex>1</clipindex>
              <groupindex>1</groupindex>
            </link>
            <link>
              <linkclipref>clipitem-283</linkclipref>
              <mediatype>audio</mediatype>
              <trackindex>2</trackindex>
              <clipindex>1</clipindex>
              <groupindex>1</groupindex>
            </link>
            <link>
              <linkclipref>clipitem-284</linkclipref>
              <mediatype>audio</mediatype>
              <trackindex>3</trackindex>
              <clipindex>1</clipindex>
              <groupindex>1</groupindex>
            </link>
            <link>
              <linkclipref>clipitem-285</linkclipref>
              <mediatype>audio</mediatype>
              <trackindex>4</trackindex>
              <clipindex>1</clipindex>
              <groupindex>1</groupindex>
            </link>
            <link>
              <linkclipref>clipitem-286</linkclipref>
              <mediatype>audio</mediatype>
              <trackindex>5</trackindex>
              <clipindex>1</clipindex>
              <groupindex>1</groupindex>
            </link>
            <link>
              <linkclipref>clipitem-287</linkclipref>
              <mediatype>audio</mediatype>
              <trackindex>6</trackindex>
              <clipindex>1</clipindex>
              <groupindex>1</groupindex>
            </link>
          </clipitem>
          <clipitem id="clipitem-288">
            <masterclipid>masterclip-2</masterclipid>
            <name>2023-04-01 13-58-58溪神带飞王源5KCC.mp4</name>
            <enabled>TRUE</enabled>
            <rate>
              <timebase>60</timebase>
              <ntsc>FALSE</ntsc>
            </rate>
            <start>5350</start>
            <end>5459</end>
            <in>31478</in>
            <out>31587</out>
            <alphatype>none</alphatype>
            <pixelaspectratio>square</pixelaspectratio>
            <anamorphic>FALSE</anamorphic>
            <file id="file-2">
              <name>2023-04-01 13-58-58溪神带飞王源5KCC.mp4</name>
              <pathurl>file%3A//localhost/F%3A/MEDIA/APEX/2023-04-01%2013-58-58%E6%BA%AA%E7%A5%9E%E5%B8%A6%E9%A3%9E%E7%8E%8B%E6%BA%905KCC.mp4</pathurl>
              <media>
                <video>
                  <samplecharacteristics>
                    <rate>
                      <timebase>60</timebase>
                      <ntsc>FALSE</ntsc>
                    </rate>
                    <width>1920</width>
                    <height>1080</height>
                    <anamorphic>FALSE</anamorphic>
                    <pixelaspectratio>square</pixelaspectratio>
                    <fielddominance>none</fielddominance>
                  </samplecharacteristics>
                </video>
                <audio>
                  <samplecharacteristics>
                    <depth>16</depth>
                    <samplerate>48000</samplerate>
                  </samplecharacteristics>
                  <channelcount>2</channelcount>
                </audio>
                <audio>
                  <samplecharacteristics>
                    <depth>16</depth>
                    <samplerate>48000</samplerate>
                  </samplecharacteristics>
                  <channelcount>2</channelcount>
                </audio>
                <audio>
                  <samplecharacteristics>
                    <depth>16</depth>
                    <samplerate>48000</samplerate>
                  </samplecharacteristics>
                  <channelcount>2</channelcount>
                </audio>
              </media>
            </file>
            <link>
              <linkclipref>clipitem-288</linkclipref>
              <mediatype>video</mediatype>
              <trackindex>1</trackindex>
              <clipindex>1</clipindex>
            </link>
            <link>
              <linkclipref>clipitem-289</linkclipref>
              <mediatype>audio</mediatype>
              <trackindex>1</trackindex>
              <clipindex>1</clipindex>
              <groupindex>1</groupindex>
            </link>
            <link>
              <linkclipref>clipitem-290</linkclipref>
              <mediatype>audio</mediatype>
              <trackindex>2</trackindex>
              <clipindex>1</clipindex>
              <groupindex>1</groupindex>
            </link>
            <link>
              <linkclipref>clipitem-291</linkclipref>
              <mediatype>audio</mediatype>
              <trackindex>3</trackindex>
              <clipindex>1</clipindex>
              <groupindex>1</groupindex>
            </link>
            <link>
              <linkclipref>clipitem-292</linkclipref>
              <mediatype>audio</mediatype>
              <trackindex>4</trackindex>
              <clipindex>1</clipindex>
              <groupindex>1</groupindex>
            </link>
            <link>
              <linkclipref>clipitem-293</linkclipref>
              <mediatype>audio</mediatype>
              <trackindex>5</trackindex>
              <clipindex>1</clipindex>
              <groupindex>1</groupindex>
            </link>
            <link>
              <linkclipref>clipitem-294</linkclipref>
              <mediatype>audio</mediatype>
              <trackindex>6</trackindex>
              <clipindex>1</clipindex>
              <groupindex>1</groupindex>
            </link>
          </clipitem>
          <clipitem id="clipitem-295">
            <masterclipid>masterclip-2</masterclipid>
            <name>2023-04-01 13-58-58溪神带飞王源5KCC.mp4</name>
            <enabled>TRUE</enabled>
            <rate>
              <timebase>60</timebase>
              <ntsc>FALSE</ntsc>
            </rate>
            <start>5459</start>
            <end>5662</end>
            <in>33212</in>
            <out>33415</out>
            <alphatype>none</alphatype>
            <pixelaspectratio>square</pixelaspectratio>
            <anamorphic>FALSE</anamorphic>
            <file id="file-2">
              <name>2023-04-01 13-58-58溪神带飞王源5KCC.mp4</name>
              <pathurl>file%3A//localhost/F%3A/MEDIA/APEX/2023-04-01%2013-58-58%E6%BA%AA%E7%A5%9E%E5%B8%A6%E9%A3%9E%E7%8E%8B%E6%BA%905KCC.mp4</pathurl>
              <media>
                <video>
                  <samplecharacteristics>
                    <rate>
                      <timebase>60</timebase>
                      <ntsc>FALSE</ntsc>
                    </rate>
                    <width>1920</width>
                    <height>1080</height>
                    <anamorphic>FALSE</anamorphic>
                    <pixelaspectratio>square</pixelaspectratio>
                    <fielddominance>none</fielddominance>
                  </samplecharacteristics>
                </video>
                <audio>
                  <samplecharacteristics>
                    <depth>16</depth>
                    <samplerate>48000</samplerate>
                  </samplecharacteristics>
                  <channelcount>2</channelcount>
                </audio>
                <audio>
                  <samplecharacteristics>
                    <depth>16</depth>
                    <samplerate>48000</samplerate>
                  </samplecharacteristics>
                  <channelcount>2</channelcount>
                </audio>
                <audio>
                  <samplecharacteristics>
                    <depth>16</depth>
                    <samplerate>48000</samplerate>
                  </samplecharacteristics>
                  <channelcount>2</channelcount>
                </audio>
              </media>
            </file>
            <link>
              <linkclipref>clipitem-295</linkclipref>
              <mediatype>video</mediatype>
              <trackindex>1</trackindex>
              <clipindex>1</clipindex>
            </link>
            <link>
              <linkclipref>clipitem-296</linkclipref>
              <mediatype>audio</mediatype>
              <trackindex>1</trackindex>
              <clipindex>1</clipindex>
              <groupindex>1</groupindex>
            </link>
            <link>
              <linkclipref>clipitem-297</linkclipref>
              <mediatype>audio</mediatype>
              <trackindex>2</trackindex>
              <clipindex>1</clipindex>
              <groupindex>1</groupindex>
            </link>
            <link>
              <linkclipref>clipitem-298</linkclipref>
              <mediatype>audio</mediatype>
              <trackindex>3</trackindex>
              <clipindex>1</clipindex>
              <groupindex>1</groupindex>
            </link>
            <link>
              <linkclipref>clipitem-299</linkclipref>
              <mediatype>audio</mediatype>
              <trackindex>4</trackindex>
              <clipindex>1</clipindex>
              <groupindex>1</groupindex>
            </link>
            <link>
              <linkclipref>clipitem-300</linkclipref>
              <mediatype>audio</mediatype>
              <trackindex>5</trackindex>
              <clipindex>1</clipindex>
              <groupindex>1</groupindex>
            </link>
            <link>
              <linkclipref>clipitem-301</linkclipref>
              <mediatype>audio</mediatype>
              <trackindex>6</trackindex>
              <clipindex>1</clipindex>
              <groupindex>1</groupindex>
            </link>
          </clipitem>
          <clipitem id="clipitem-302">
            <masterclipid>masterclip-2</masterclipid>
            <name>2023-04-01 13-58-58溪神带飞王源5KCC.mp4</name>
            <enabled>TRUE</enabled>
            <rate>
              <timebase>60</timebase>
              <ntsc>FALSE</ntsc>
            </rate>
            <start>5662</start>
            <end>5816</end>
            <in>33743</in>
            <out>33897</out>
            <alphatype>none</alphatype>
            <pixelaspectratio>square</pixelaspectratio>
            <anamorphic>FALSE</anamorphic>
            <file id="file-2">
              <name>2023-04-01 13-58-58溪神带飞王源5KCC.mp4</name>
              <pathurl>file%3A//localhost/F%3A/MEDIA/APEX/2023-04-01%2013-58-58%E6%BA%AA%E7%A5%9E%E5%B8%A6%E9%A3%9E%E7%8E%8B%E6%BA%905KCC.mp4</pathurl>
              <media>
                <video>
                  <samplecharacteristics>
                    <rate>
                      <timebase>60</timebase>
                      <ntsc>FALSE</ntsc>
                    </rate>
                    <width>1920</width>
                    <height>1080</height>
                    <anamorphic>FALSE</anamorphic>
                    <pixelaspectratio>square</pixelaspectratio>
                    <fielddominance>none</fielddominance>
                  </samplecharacteristics>
                </video>
                <audio>
                  <samplecharacteristics>
                    <depth>16</depth>
                    <samplerate>48000</samplerate>
                  </samplecharacteristics>
                  <channelcount>2</channelcount>
                </audio>
                <audio>
                  <samplecharacteristics>
                    <depth>16</depth>
                    <samplerate>48000</samplerate>
                  </samplecharacteristics>
                  <channelcount>2</channelcount>
                </audio>
                <audio>
                  <samplecharacteristics>
                    <depth>16</depth>
                    <samplerate>48000</samplerate>
                  </samplecharacteristics>
                  <channelcount>2</channelcount>
                </audio>
              </media>
            </file>
            <link>
              <linkclipref>clipitem-302</linkclipref>
              <mediatype>video</mediatype>
              <trackindex>1</trackindex>
              <clipindex>1</clipindex>
            </link>
            <link>
              <linkclipref>clipitem-303</linkclipref>
              <mediatype>audio</mediatype>
              <trackindex>1</trackindex>
              <clipindex>1</clipindex>
              <groupindex>1</groupindex>
            </link>
            <link>
              <linkclipref>clipitem-304</linkclipref>
              <mediatype>audio</mediatype>
              <trackindex>2</trackindex>
              <clipindex>1</clipindex>
              <groupindex>1</groupindex>
            </link>
            <link>
              <linkclipref>clipitem-305</linkclipref>
              <mediatype>audio</mediatype>
              <trackindex>3</trackindex>
              <clipindex>1</clipindex>
              <groupindex>1</groupindex>
            </link>
            <link>
              <linkclipref>clipitem-306</linkclipref>
              <mediatype>audio</mediatype>
              <trackindex>4</trackindex>
              <clipindex>1</clipindex>
              <groupindex>1</groupindex>
            </link>
            <link>
              <linkclipref>clipitem-307</linkclipref>
              <mediatype>audio</mediatype>
              <trackindex>5</trackindex>
              <clipindex>1</clipindex>
              <groupindex>1</groupindex>
            </link>
            <link>
              <linkclipref>clipitem-308</linkclipref>
              <mediatype>audio</mediatype>
              <trackindex>6</trackindex>
              <clipindex>1</clipindex>
              <groupindex>1</groupindex>
            </link>
          </clipitem>
          <clipitem id="clipitem-309">
            <masterclipid>masterclip-2</masterclipid>
            <name>2023-04-01 13-58-58溪神带飞王源5KCC.mp4</name>
            <enabled>TRUE</enabled>
            <rate>
              <timebase>60</timebase>
              <ntsc>FALSE</ntsc>
            </rate>
            <start>5816</start>
            <end>6008</end>
            <in>34010</in>
            <out>34202</out>
            <alphatype>none</alphatype>
            <pixelaspectratio>square</pixelaspectratio>
            <anamorphic>FALSE</anamorphic>
            <file id="file-2">
              <name>2023-04-01 13-58-58溪神带飞王源5KCC.mp4</name>
              <pathurl>file%3A//localhost/F%3A/MEDIA/APEX/2023-04-01%2013-58-58%E6%BA%AA%E7%A5%9E%E5%B8%A6%E9%A3%9E%E7%8E%8B%E6%BA%905KCC.mp4</pathurl>
              <media>
                <video>
                  <samplecharacteristics>
                    <rate>
                      <timebase>60</timebase>
                      <ntsc>FALSE</ntsc>
                    </rate>
                    <width>1920</width>
                    <height>1080</height>
                    <anamorphic>FALSE</anamorphic>
                    <pixelaspectratio>square</pixelaspectratio>
                    <fielddominance>none</fielddominance>
                  </samplecharacteristics>
                </video>
                <audio>
                  <samplecharacteristics>
                    <depth>16</depth>
                    <samplerate>48000</samplerate>
                  </samplecharacteristics>
                  <channelcount>2</channelcount>
                </audio>
                <audio>
                  <samplecharacteristics>
                    <depth>16</depth>
                    <samplerate>48000</samplerate>
                  </samplecharacteristics>
                  <channelcount>2</channelcount>
                </audio>
                <audio>
                  <samplecharacteristics>
                    <depth>16</depth>
                    <samplerate>48000</samplerate>
                  </samplecharacteristics>
                  <channelcount>2</channelcount>
                </audio>
              </media>
            </file>
            <link>
              <linkclipref>clipitem-309</linkclipref>
              <mediatype>video</mediatype>
              <trackindex>1</trackindex>
              <clipindex>1</clipindex>
            </link>
            <link>
              <linkclipref>clipitem-310</linkclipref>
              <mediatype>audio</mediatype>
              <trackindex>1</trackindex>
              <clipindex>1</clipindex>
              <groupindex>1</groupindex>
            </link>
            <link>
              <linkclipref>clipitem-311</linkclipref>
              <mediatype>audio</mediatype>
              <trackindex>2</trackindex>
              <clipindex>1</clipindex>
              <groupindex>1</groupindex>
            </link>
            <link>
              <linkclipref>clipitem-312</linkclipref>
              <mediatype>audio</mediatype>
              <trackindex>3</trackindex>
              <clipindex>1</clipindex>
              <groupindex>1</groupindex>
            </link>
            <link>
              <linkclipref>clipitem-313</linkclipref>
              <mediatype>audio</mediatype>
              <trackindex>4</trackindex>
              <clipindex>1</clipindex>
              <groupindex>1</groupindex>
            </link>
            <link>
              <linkclipref>clipitem-314</linkclipref>
              <mediatype>audio</mediatype>
              <trackindex>5</trackindex>
              <clipindex>1</clipindex>
              <groupindex>1</groupindex>
            </link>
            <link>
              <linkclipref>clipitem-315</linkclipref>
              <mediatype>audio</mediatype>
              <trackindex>6</trackindex>
              <clipindex>1</clipindex>
              <groupindex>1</groupindex>
            </link>
          </clipitem>
          <clipitem id="clipitem-316">
            <masterclipid>masterclip-2</masterclipid>
            <name>2023-04-01 13-58-58溪神带飞王源5KCC.mp4</name>
            <enabled>TRUE</enabled>
            <rate>
              <timebase>60</timebase>
              <ntsc>FALSE</ntsc>
            </rate>
            <start>6008</start>
            <end>6171</end>
            <in>39130</in>
            <out>39293</out>
            <alphatype>none</alphatype>
            <pixelaspectratio>square</pixelaspectratio>
            <anamorphic>FALSE</anamorphic>
            <file id="file-2">
              <name>2023-04-01 13-58-58溪神带飞王源5KCC.mp4</name>
              <pathurl>file%3A//localhost/F%3A/MEDIA/APEX/2023-04-01%2013-58-58%E6%BA%AA%E7%A5%9E%E5%B8%A6%E9%A3%9E%E7%8E%8B%E6%BA%905KCC.mp4</pathurl>
              <media>
                <video>
                  <samplecharacteristics>
                    <rate>
                      <timebase>60</timebase>
                      <ntsc>FALSE</ntsc>
                    </rate>
                    <width>1920</width>
                    <height>1080</height>
                    <anamorphic>FALSE</anamorphic>
                    <pixelaspectratio>square</pixelaspectratio>
                    <fielddominance>none</fielddominance>
                  </samplecharacteristics>
                </video>
                <audio>
                  <samplecharacteristics>
                    <depth>16</depth>
                    <samplerate>48000</samplerate>
                  </samplecharacteristics>
                  <channelcount>2</channelcount>
                </audio>
                <audio>
                  <samplecharacteristics>
                    <depth>16</depth>
                    <samplerate>48000</samplerate>
                  </samplecharacteristics>
                  <channelcount>2</channelcount>
                </audio>
                <audio>
                  <samplecharacteristics>
                    <depth>16</depth>
                    <samplerate>48000</samplerate>
                  </samplecharacteristics>
                  <channelcount>2</channelcount>
                </audio>
              </media>
            </file>
            <link>
              <linkclipref>clipitem-316</linkclipref>
              <mediatype>video</mediatype>
              <trackindex>1</trackindex>
              <clipindex>1</clipindex>
            </link>
            <link>
              <linkclipref>clipitem-317</linkclipref>
              <mediatype>audio</mediatype>
              <trackindex>1</trackindex>
              <clipindex>1</clipindex>
              <groupindex>1</groupindex>
            </link>
            <link>
              <linkclipref>clipitem-318</linkclipref>
              <mediatype>audio</mediatype>
              <trackindex>2</trackindex>
              <clipindex>1</clipindex>
              <groupindex>1</groupindex>
            </link>
            <link>
              <linkclipref>clipitem-319</linkclipref>
              <mediatype>audio</mediatype>
              <trackindex>3</trackindex>
              <clipindex>1</clipindex>
              <groupindex>1</groupindex>
            </link>
            <link>
              <linkclipref>clipitem-320</linkclipref>
              <mediatype>audio</mediatype>
              <trackindex>4</trackindex>
              <clipindex>1</clipindex>
              <groupindex>1</groupindex>
            </link>
            <link>
              <linkclipref>clipitem-321</linkclipref>
              <mediatype>audio</mediatype>
              <trackindex>5</trackindex>
              <clipindex>1</clipindex>
              <groupindex>1</groupindex>
            </link>
            <link>
              <linkclipref>clipitem-322</linkclipref>
              <mediatype>audio</mediatype>
              <trackindex>6</trackindex>
              <clipindex>1</clipindex>
              <groupindex>1</groupindex>
            </link>
          </clipitem>
          <clipitem id="clipitem-323">
            <masterclipid>masterclip-2</masterclipid>
            <name>2023-04-01 13-58-58溪神带飞王源5KCC.mp4</name>
            <enabled>TRUE</enabled>
            <rate>
              <timebase>60</timebase>
              <ntsc>FALSE</ntsc>
            </rate>
            <start>6171</start>
            <end>6321</end>
            <in>39388</in>
            <out>39538</out>
            <alphatype>none</alphatype>
            <pixelaspectratio>square</pixelaspectratio>
            <anamorphic>FALSE</anamorphic>
            <file id="file-2">
              <name>2023-04-01 13-58-58溪神带飞王源5KCC.mp4</name>
              <pathurl>file%3A//localhost/F%3A/MEDIA/APEX/2023-04-01%2013-58-58%E6%BA%AA%E7%A5%9E%E5%B8%A6%E9%A3%9E%E7%8E%8B%E6%BA%905KCC.mp4</pathurl>
              <media>
                <video>
                  <samplecharacteristics>
                    <rate>
                      <timebase>60</timebase>
                      <ntsc>FALSE</ntsc>
                    </rate>
                    <width>1920</width>
                    <height>1080</height>
                    <anamorphic>FALSE</anamorphic>
                    <pixelaspectratio>square</pixelaspectratio>
                    <fielddominance>none</fielddominance>
                  </samplecharacteristics>
                </video>
                <audio>
                  <samplecharacteristics>
                    <depth>16</depth>
                    <samplerate>48000</samplerate>
                  </samplecharacteristics>
                  <channelcount>2</channelcount>
                </audio>
                <audio>
                  <samplecharacteristics>
                    <depth>16</depth>
                    <samplerate>48000</samplerate>
                  </samplecharacteristics>
                  <channelcount>2</channelcount>
                </audio>
                <audio>
                  <samplecharacteristics>
                    <depth>16</depth>
                    <samplerate>48000</samplerate>
                  </samplecharacteristics>
                  <channelcount>2</channelcount>
                </audio>
              </media>
            </file>
            <link>
              <linkclipref>clipitem-323</linkclipref>
              <mediatype>video</mediatype>
              <trackindex>1</trackindex>
              <clipindex>1</clipindex>
            </link>
            <link>
              <linkclipref>clipitem-324</linkclipref>
              <mediatype>audio</mediatype>
              <trackindex>1</trackindex>
              <clipindex>1</clipindex>
              <groupindex>1</groupindex>
            </link>
            <link>
              <linkclipref>clipitem-325</linkclipref>
              <mediatype>audio</mediatype>
              <trackindex>2</trackindex>
              <clipindex>1</clipindex>
              <groupindex>1</groupindex>
            </link>
            <link>
              <linkclipref>clipitem-326</linkclipref>
              <mediatype>audio</mediatype>
              <trackindex>3</trackindex>
              <clipindex>1</clipindex>
              <groupindex>1</groupindex>
            </link>
            <link>
              <linkclipref>clipitem-327</linkclipref>
              <mediatype>audio</mediatype>
              <trackindex>4</trackindex>
              <clipindex>1</clipindex>
              <groupindex>1</groupindex>
            </link>
            <link>
              <linkclipref>clipitem-328</linkclipref>
              <mediatype>audio</mediatype>
              <trackindex>5</trackindex>
              <clipindex>1</clipindex>
              <groupindex>1</groupindex>
            </link>
            <link>
              <linkclipref>clipitem-329</linkclipref>
              <mediatype>audio</mediatype>
              <trackindex>6</trackindex>
              <clipindex>1</clipindex>
              <groupindex>1</groupindex>
            </link>
          </clipitem>
          <clipitem id="clipitem-330">
            <masterclipid>masterclip-2</masterclipid>
            <name>2023-04-01 13-58-58溪神带飞王源5KCC.mp4</name>
            <enabled>TRUE</enabled>
            <rate>
              <timebase>60</timebase>
              <ntsc>FALSE</ntsc>
            </rate>
            <start>6321</start>
            <end>6559</end>
            <in>39755</in>
            <out>39993</out>
            <alphatype>none</alphatype>
            <pixelaspectratio>square</pixelaspectratio>
            <anamorphic>FALSE</anamorphic>
            <file id="file-2">
              <name>2023-04-01 13-58-58溪神带飞王源5KCC.mp4</name>
              <pathurl>file%3A//localhost/F%3A/MEDIA/APEX/2023-04-01%2013-58-58%E6%BA%AA%E7%A5%9E%E5%B8%A6%E9%A3%9E%E7%8E%8B%E6%BA%905KCC.mp4</pathurl>
              <media>
                <video>
                  <samplecharacteristics>
                    <rate>
                      <timebase>60</timebase>
                      <ntsc>FALSE</ntsc>
                    </rate>
                    <width>1920</width>
                    <height>1080</height>
                    <anamorphic>FALSE</anamorphic>
                    <pixelaspectratio>square</pixelaspectratio>
                    <fielddominance>none</fielddominance>
                  </samplecharacteristics>
                </video>
                <audio>
                  <samplecharacteristics>
                    <depth>16</depth>
                    <samplerate>48000</samplerate>
                  </samplecharacteristics>
                  <channelcount>2</channelcount>
                </audio>
                <audio>
                  <samplecharacteristics>
                    <depth>16</depth>
                    <samplerate>48000</samplerate>
                  </samplecharacteristics>
                  <channelcount>2</channelcount>
                </audio>
                <audio>
                  <samplecharacteristics>
                    <depth>16</depth>
                    <samplerate>48000</samplerate>
                  </samplecharacteristics>
                  <channelcount>2</channelcount>
                </audio>
              </media>
            </file>
            <link>
              <linkclipref>clipitem-330</linkclipref>
              <mediatype>video</mediatype>
              <trackindex>1</trackindex>
              <clipindex>1</clipindex>
            </link>
            <link>
              <linkclipref>clipitem-331</linkclipref>
              <mediatype>audio</mediatype>
              <trackindex>1</trackindex>
              <clipindex>1</clipindex>
              <groupindex>1</groupindex>
            </link>
            <link>
              <linkclipref>clipitem-332</linkclipref>
              <mediatype>audio</mediatype>
              <trackindex>2</trackindex>
              <clipindex>1</clipindex>
              <groupindex>1</groupindex>
            </link>
            <link>
              <linkclipref>clipitem-333</linkclipref>
              <mediatype>audio</mediatype>
              <trackindex>3</trackindex>
              <clipindex>1</clipindex>
              <groupindex>1</groupindex>
            </link>
            <link>
              <linkclipref>clipitem-334</linkclipref>
              <mediatype>audio</mediatype>
              <trackindex>4</trackindex>
              <clipindex>1</clipindex>
              <groupindex>1</groupindex>
            </link>
            <link>
              <linkclipref>clipitem-335</linkclipref>
              <mediatype>audio</mediatype>
              <trackindex>5</trackindex>
              <clipindex>1</clipindex>
              <groupindex>1</groupindex>
            </link>
            <link>
              <linkclipref>clipitem-336</linkclipref>
              <mediatype>audio</mediatype>
              <trackindex>6</trackindex>
              <clipindex>1</clipindex>
              <groupindex>1</groupindex>
            </link>
          </clipitem>
          <clipitem id="clipitem-337">
            <masterclipid>masterclip-2</masterclipid>
            <name>2023-04-01 13-58-58溪神带飞王源5KCC.mp4</name>
            <enabled>TRUE</enabled>
            <rate>
              <timebase>60</timebase>
              <ntsc>FALSE</ntsc>
            </rate>
            <start>6559</start>
            <end>6647</end>
            <in>40286</in>
            <out>40374</out>
            <alphatype>none</alphatype>
            <pixelaspectratio>square</pixelaspectratio>
            <anamorphic>FALSE</anamorphic>
            <file id="file-2">
              <name>2023-04-01 13-58-58溪神带飞王源5KCC.mp4</name>
              <pathurl>file%3A//localhost/F%3A/MEDIA/APEX/2023-04-01%2013-58-58%E6%BA%AA%E7%A5%9E%E5%B8%A6%E9%A3%9E%E7%8E%8B%E6%BA%905KCC.mp4</pathurl>
              <media>
                <video>
                  <samplecharacteristics>
                    <rate>
                      <timebase>60</timebase>
                      <ntsc>FALSE</ntsc>
                    </rate>
                    <width>1920</width>
                    <height>1080</height>
                    <anamorphic>FALSE</anamorphic>
                    <pixelaspectratio>square</pixelaspectratio>
                    <fielddominance>none</fielddominance>
                  </samplecharacteristics>
                </video>
                <audio>
                  <samplecharacteristics>
                    <depth>16</depth>
                    <samplerate>48000</samplerate>
                  </samplecharacteristics>
                  <channelcount>2</channelcount>
                </audio>
                <audio>
                  <samplecharacteristics>
                    <depth>16</depth>
                    <samplerate>48000</samplerate>
                  </samplecharacteristics>
                  <channelcount>2</channelcount>
                </audio>
                <audio>
                  <samplecharacteristics>
                    <depth>16</depth>
                    <samplerate>48000</samplerate>
                  </samplecharacteristics>
                  <channelcount>2</channelcount>
                </audio>
              </media>
            </file>
            <link>
              <linkclipref>clipitem-337</linkclipref>
              <mediatype>video</mediatype>
              <trackindex>1</trackindex>
              <clipindex>1</clipindex>
            </link>
            <link>
              <linkclipref>clipitem-338</linkclipref>
              <mediatype>audio</mediatype>
              <trackindex>1</trackindex>
              <clipindex>1</clipindex>
              <groupindex>1</groupindex>
            </link>
            <link>
              <linkclipref>clipitem-339</linkclipref>
              <mediatype>audio</mediatype>
              <trackindex>2</trackindex>
              <clipindex>1</clipindex>
              <groupindex>1</groupindex>
            </link>
            <link>
              <linkclipref>clipitem-340</linkclipref>
              <mediatype>audio</mediatype>
              <trackindex>3</trackindex>
              <clipindex>1</clipindex>
              <groupindex>1</groupindex>
            </link>
            <link>
              <linkclipref>clipitem-341</linkclipref>
              <mediatype>audio</mediatype>
              <trackindex>4</trackindex>
              <clipindex>1</clipindex>
              <groupindex>1</groupindex>
            </link>
            <link>
              <linkclipref>clipitem-342</linkclipref>
              <mediatype>audio</mediatype>
              <trackindex>5</trackindex>
              <clipindex>1</clipindex>
              <groupindex>1</groupindex>
            </link>
            <link>
              <linkclipref>clipitem-343</linkclipref>
              <mediatype>audio</mediatype>
              <trackindex>6</trackindex>
              <clipindex>1</clipindex>
              <groupindex>1</groupindex>
            </link>
          </clipitem>
          <clipitem id="clipitem-344">
            <masterclipid>masterclip-2</masterclipid>
            <name>2023-04-01 13-58-58溪神带飞王源5KCC.mp4</name>
            <enabled>TRUE</enabled>
            <rate>
              <timebase>60</timebase>
              <ntsc>FALSE</ntsc>
            </rate>
            <start>6647</start>
            <end>6865</end>
            <in>43166</in>
            <out>43384</out>
            <alphatype>none</alphatype>
            <pixelaspectratio>square</pixelaspectratio>
            <anamorphic>FALSE</anamorphic>
            <file id="file-2">
              <name>2023-04-01 13-58-58溪神带飞王源5KCC.mp4</name>
              <pathurl>file%3A//localhost/F%3A/MEDIA/APEX/2023-04-01%2013-58-58%E6%BA%AA%E7%A5%9E%E5%B8%A6%E9%A3%9E%E7%8E%8B%E6%BA%905KCC.mp4</pathurl>
              <media>
                <video>
                  <samplecharacteristics>
                    <rate>
                      <timebase>60</timebase>
                      <ntsc>FALSE</ntsc>
                    </rate>
                    <width>1920</width>
                    <height>1080</height>
                    <anamorphic>FALSE</anamorphic>
                    <pixelaspectratio>square</pixelaspectratio>
                    <fielddominance>none</fielddominance>
                  </samplecharacteristics>
                </video>
                <audio>
                  <samplecharacteristics>
                    <depth>16</depth>
                    <samplerate>48000</samplerate>
                  </samplecharacteristics>
                  <channelcount>2</channelcount>
                </audio>
                <audio>
                  <samplecharacteristics>
                    <depth>16</depth>
                    <samplerate>48000</samplerate>
                  </samplecharacteristics>
                  <channelcount>2</channelcount>
                </audio>
                <audio>
                  <samplecharacteristics>
                    <depth>16</depth>
                    <samplerate>48000</samplerate>
                  </samplecharacteristics>
                  <channelcount>2</channelcount>
                </audio>
              </media>
            </file>
            <link>
              <linkclipref>clipitem-344</linkclipref>
              <mediatype>video</mediatype>
              <trackindex>1</trackindex>
              <clipindex>1</clipindex>
            </link>
            <link>
              <linkclipref>clipitem-345</linkclipref>
              <mediatype>audio</mediatype>
              <trackindex>1</trackindex>
              <clipindex>1</clipindex>
              <groupindex>1</groupindex>
            </link>
            <link>
              <linkclipref>clipitem-346</linkclipref>
              <mediatype>audio</mediatype>
              <trackindex>2</trackindex>
              <clipindex>1</clipindex>
              <groupindex>1</groupindex>
            </link>
            <link>
              <linkclipref>clipitem-347</linkclipref>
              <mediatype>audio</mediatype>
              <trackindex>3</trackindex>
              <clipindex>1</clipindex>
              <groupindex>1</groupindex>
            </link>
            <link>
              <linkclipref>clipitem-348</linkclipref>
              <mediatype>audio</mediatype>
              <trackindex>4</trackindex>
              <clipindex>1</clipindex>
              <groupindex>1</groupindex>
            </link>
            <link>
              <linkclipref>clipitem-349</linkclipref>
              <mediatype>audio</mediatype>
              <trackindex>5</trackindex>
              <clipindex>1</clipindex>
              <groupindex>1</groupindex>
            </link>
            <link>
              <linkclipref>clipitem-350</linkclipref>
              <mediatype>audio</mediatype>
              <trackindex>6</trackindex>
              <clipindex>1</clipindex>
              <groupindex>1</groupindex>
            </link>
          </clipitem>
          <clipitem id="clipitem-351">
            <masterclipid>masterclip-2</masterclipid>
            <name>2023-04-01 13-58-58溪神带飞王源5KCC.mp4</name>
            <enabled>TRUE</enabled>
            <rate>
              <timebase>60</timebase>
              <ntsc>FALSE</ntsc>
            </rate>
            <start>6865</start>
            <end>6977</end>
            <in>43394</in>
            <out>43506</out>
            <alphatype>none</alphatype>
            <pixelaspectratio>square</pixelaspectratio>
            <anamorphic>FALSE</anamorphic>
            <file id="file-2">
              <name>2023-04-01 13-58-58溪神带飞王源5KCC.mp4</name>
              <pathurl>file%3A//localhost/F%3A/MEDIA/APEX/2023-04-01%2013-58-58%E6%BA%AA%E7%A5%9E%E5%B8%A6%E9%A3%9E%E7%8E%8B%E6%BA%905KCC.mp4</pathurl>
              <media>
                <video>
                  <samplecharacteristics>
                    <rate>
                      <timebase>60</timebase>
                      <ntsc>FALSE</ntsc>
                    </rate>
                    <width>1920</width>
                    <height>1080</height>
                    <anamorphic>FALSE</anamorphic>
                    <pixelaspectratio>square</pixelaspectratio>
                    <fielddominance>none</fielddominance>
                  </samplecharacteristics>
                </video>
                <audio>
                  <samplecharacteristics>
                    <depth>16</depth>
                    <samplerate>48000</samplerate>
                  </samplecharacteristics>
                  <channelcount>2</channelcount>
                </audio>
                <audio>
                  <samplecharacteristics>
                    <depth>16</depth>
                    <samplerate>48000</samplerate>
                  </samplecharacteristics>
                  <channelcount>2</channelcount>
                </audio>
                <audio>
                  <samplecharacteristics>
                    <depth>16</depth>
                    <samplerate>48000</samplerate>
                  </samplecharacteristics>
                  <channelcount>2</channelcount>
                </audio>
              </media>
            </file>
            <link>
              <linkclipref>clipitem-351</linkclipref>
              <mediatype>video</mediatype>
              <trackindex>1</trackindex>
              <clipindex>1</clipindex>
            </link>
            <link>
              <linkclipref>clipitem-352</linkclipref>
              <mediatype>audio</mediatype>
              <trackindex>1</trackindex>
              <clipindex>1</clipindex>
              <groupindex>1</groupindex>
            </link>
            <link>
              <linkclipref>clipitem-353</linkclipref>
              <mediatype>audio</mediatype>
              <trackindex>2</trackindex>
              <clipindex>1</clipindex>
              <groupindex>1</groupindex>
            </link>
            <link>
              <linkclipref>clipitem-354</linkclipref>
              <mediatype>audio</mediatype>
              <trackindex>3</trackindex>
              <clipindex>1</clipindex>
              <groupindex>1</groupindex>
            </link>
            <link>
              <linkclipref>clipitem-355</linkclipref>
              <mediatype>audio</mediatype>
              <trackindex>4</trackindex>
              <clipindex>1</clipindex>
              <groupindex>1</groupindex>
            </link>
            <link>
              <linkclipref>clipitem-356</linkclipref>
              <mediatype>audio</mediatype>
              <trackindex>5</trackindex>
              <clipindex>1</clipindex>
              <groupindex>1</groupindex>
            </link>
            <link>
              <linkclipref>clipitem-357</linkclipref>
              <mediatype>audio</mediatype>
              <trackindex>6</trackindex>
              <clipindex>1</clipindex>
              <groupindex>1</groupindex>
            </link>
          </clipitem>
          <clipitem id="clipitem-358">
            <masterclipid>masterclip-2</masterclipid>
            <name>2023-04-01 13-58-58溪神带飞王源5KCC.mp4</name>
            <enabled>TRUE</enabled>
            <rate>
              <timebase>60</timebase>
              <ntsc>FALSE</ntsc>
            </rate>
            <start>6977</start>
            <end>7192</end>
            <in>48926</in>
            <out>49141</out>
            <alphatype>none</alphatype>
            <pixelaspectratio>square</pixelaspectratio>
            <anamorphic>FALSE</anamorphic>
            <file id="file-2">
              <name>2023-04-01 13-58-58溪神带飞王源5KCC.mp4</name>
              <pathurl>file%3A//localhost/F%3A/MEDIA/APEX/2023-04-01%2013-58-58%E6%BA%AA%E7%A5%9E%E5%B8%A6%E9%A3%9E%E7%8E%8B%E6%BA%905KCC.mp4</pathurl>
              <media>
                <video>
                  <samplecharacteristics>
                    <rate>
                      <timebase>60</timebase>
                      <ntsc>FALSE</ntsc>
                    </rate>
                    <width>1920</width>
                    <height>1080</height>
                    <anamorphic>FALSE</anamorphic>
                    <pixelaspectratio>square</pixelaspectratio>
                    <fielddominance>none</fielddominance>
                  </samplecharacteristics>
                </video>
                <audio>
                  <samplecharacteristics>
                    <depth>16</depth>
                    <samplerate>48000</samplerate>
                  </samplecharacteristics>
                  <channelcount>2</channelcount>
                </audio>
                <audio>
                  <samplecharacteristics>
                    <depth>16</depth>
                    <samplerate>48000</samplerate>
                  </samplecharacteristics>
                  <channelcount>2</channelcount>
                </audio>
                <audio>
                  <samplecharacteristics>
                    <depth>16</depth>
                    <samplerate>48000</samplerate>
                  </samplecharacteristics>
                  <channelcount>2</channelcount>
                </audio>
              </media>
            </file>
            <link>
              <linkclipref>clipitem-358</linkclipref>
              <mediatype>video</mediatype>
              <trackindex>1</trackindex>
              <clipindex>1</clipindex>
            </link>
            <link>
              <linkclipref>clipitem-359</linkclipref>
              <mediatype>audio</mediatype>
              <trackindex>1</trackindex>
              <clipindex>1</clipindex>
              <groupindex>1</groupindex>
            </link>
            <link>
              <linkclipref>clipitem-360</linkclipref>
              <mediatype>audio</mediatype>
              <trackindex>2</trackindex>
              <clipindex>1</clipindex>
              <groupindex>1</groupindex>
            </link>
            <link>
              <linkclipref>clipitem-361</linkclipref>
              <mediatype>audio</mediatype>
              <trackindex>3</trackindex>
              <clipindex>1</clipindex>
              <groupindex>1</groupindex>
            </link>
            <link>
              <linkclipref>clipitem-362</linkclipref>
              <mediatype>audio</mediatype>
              <trackindex>4</trackindex>
              <clipindex>1</clipindex>
              <groupindex>1</groupindex>
            </link>
            <link>
              <linkclipref>clipitem-363</linkclipref>
              <mediatype>audio</mediatype>
              <trackindex>5</trackindex>
              <clipindex>1</clipindex>
              <groupindex>1</groupindex>
            </link>
            <link>
              <linkclipref>clipitem-364</linkclipref>
              <mediatype>audio</mediatype>
              <trackindex>6</trackindex>
              <clipindex>1</clipindex>
              <groupindex>1</groupindex>
            </link>
          </clipitem>
          <clipitem id="clipitem-365">
            <masterclipid>masterclip-2</masterclipid>
            <name>2023-04-01 13-58-58溪神带飞王源5KCC.mp4</name>
            <enabled>TRUE</enabled>
            <rate>
              <timebase>60</timebase>
              <ntsc>FALSE</ntsc>
            </rate>
            <start>7192</start>
            <end>7401</end>
            <in>49153</in>
            <out>49362</out>
            <alphatype>none</alphatype>
            <pixelaspectratio>square</pixelaspectratio>
            <anamorphic>FALSE</anamorphic>
            <file id="file-2">
              <name>2023-04-01 13-58-58溪神带飞王源5KCC.mp4</name>
              <pathurl>file%3A//localhost/F%3A/MEDIA/APEX/2023-04-01%2013-58-58%E6%BA%AA%E7%A5%9E%E5%B8%A6%E9%A3%9E%E7%8E%8B%E6%BA%905KCC.mp4</pathurl>
              <media>
                <video>
                  <samplecharacteristics>
                    <rate>
                      <timebase>60</timebase>
                      <ntsc>FALSE</ntsc>
                    </rate>
                    <width>1920</width>
                    <height>1080</height>
                    <anamorphic>FALSE</anamorphic>
                    <pixelaspectratio>square</pixelaspectratio>
                    <fielddominance>none</fielddominance>
                  </samplecharacteristics>
                </video>
                <audio>
                  <samplecharacteristics>
                    <depth>16</depth>
                    <samplerate>48000</samplerate>
                  </samplecharacteristics>
                  <channelcount>2</channelcount>
                </audio>
                <audio>
                  <samplecharacteristics>
                    <depth>16</depth>
                    <samplerate>48000</samplerate>
                  </samplecharacteristics>
                  <channelcount>2</channelcount>
                </audio>
                <audio>
                  <samplecharacteristics>
                    <depth>16</depth>
                    <samplerate>48000</samplerate>
                  </samplecharacteristics>
                  <channelcount>2</channelcount>
                </audio>
              </media>
            </file>
            <link>
              <linkclipref>clipitem-365</linkclipref>
              <mediatype>video</mediatype>
              <trackindex>1</trackindex>
              <clipindex>1</clipindex>
            </link>
            <link>
              <linkclipref>clipitem-366</linkclipref>
              <mediatype>audio</mediatype>
              <trackindex>1</trackindex>
              <clipindex>1</clipindex>
              <groupindex>1</groupindex>
            </link>
            <link>
              <linkclipref>clipitem-367</linkclipref>
              <mediatype>audio</mediatype>
              <trackindex>2</trackindex>
              <clipindex>1</clipindex>
              <groupindex>1</groupindex>
            </link>
            <link>
              <linkclipref>clipitem-368</linkclipref>
              <mediatype>audio</mediatype>
              <trackindex>3</trackindex>
              <clipindex>1</clipindex>
              <groupindex>1</groupindex>
            </link>
            <link>
              <linkclipref>clipitem-369</linkclipref>
              <mediatype>audio</mediatype>
              <trackindex>4</trackindex>
              <clipindex>1</clipindex>
              <groupindex>1</groupindex>
            </link>
            <link>
              <linkclipref>clipitem-370</linkclipref>
              <mediatype>audio</mediatype>
              <trackindex>5</trackindex>
              <clipindex>1</clipindex>
              <groupindex>1</groupindex>
            </link>
            <link>
              <linkclipref>clipitem-371</linkclipref>
              <mediatype>audio</mediatype>
              <trackindex>6</trackindex>
              <clipindex>1</clipindex>
              <groupindex>1</groupindex>
            </link>
          </clipitem>
          <clipitem id="clipitem-372">
            <masterclipid>masterclip-2</masterclipid>
            <name>2023-04-01 13-58-58溪神带飞王源5KCC.mp4</name>
            <enabled>TRUE</enabled>
            <rate>
              <timebase>60</timebase>
              <ntsc>FALSE</ntsc>
            </rate>
            <start>7401</start>
            <end>7529</end>
            <in>49768</in>
            <out>49896</out>
            <alphatype>none</alphatype>
            <pixelaspectratio>square</pixelaspectratio>
            <anamorphic>FALSE</anamorphic>
            <file id="file-2">
              <name>2023-04-01 13-58-58溪神带飞王源5KCC.mp4</name>
              <pathurl>file%3A//localhost/F%3A/MEDIA/APEX/2023-04-01%2013-58-58%E6%BA%AA%E7%A5%9E%E5%B8%A6%E9%A3%9E%E7%8E%8B%E6%BA%905KCC.mp4</pathurl>
              <media>
                <video>
                  <samplecharacteristics>
                    <rate>
                      <timebase>60</timebase>
                      <ntsc>FALSE</ntsc>
                    </rate>
                    <width>1920</width>
                    <height>1080</height>
                    <anamorphic>FALSE</anamorphic>
                    <pixelaspectratio>square</pixelaspectratio>
                    <fielddominance>none</fielddominance>
                  </samplecharacteristics>
                </video>
                <audio>
                  <samplecharacteristics>
                    <depth>16</depth>
                    <samplerate>48000</samplerate>
                  </samplecharacteristics>
                  <channelcount>2</channelcount>
                </audio>
                <audio>
                  <samplecharacteristics>
                    <depth>16</depth>
                    <samplerate>48000</samplerate>
                  </samplecharacteristics>
                  <channelcount>2</channelcount>
                </audio>
                <audio>
                  <samplecharacteristics>
                    <depth>16</depth>
                    <samplerate>48000</samplerate>
                  </samplecharacteristics>
                  <channelcount>2</channelcount>
                </audio>
              </media>
            </file>
            <link>
              <linkclipref>clipitem-372</linkclipref>
              <mediatype>video</mediatype>
              <trackindex>1</trackindex>
              <clipindex>1</clipindex>
            </link>
            <link>
              <linkclipref>clipitem-373</linkclipref>
              <mediatype>audio</mediatype>
              <trackindex>1</trackindex>
              <clipindex>1</clipindex>
              <groupindex>1</groupindex>
            </link>
            <link>
              <linkclipref>clipitem-374</linkclipref>
              <mediatype>audio</mediatype>
              <trackindex>2</trackindex>
              <clipindex>1</clipindex>
              <groupindex>1</groupindex>
            </link>
            <link>
              <linkclipref>clipitem-375</linkclipref>
              <mediatype>audio</mediatype>
              <trackindex>3</trackindex>
              <clipindex>1</clipindex>
              <groupindex>1</groupindex>
            </link>
            <link>
              <linkclipref>clipitem-376</linkclipref>
              <mediatype>audio</mediatype>
              <trackindex>4</trackindex>
              <clipindex>1</clipindex>
              <groupindex>1</groupindex>
            </link>
            <link>
              <linkclipref>clipitem-377</linkclipref>
              <mediatype>audio</mediatype>
              <trackindex>5</trackindex>
              <clipindex>1</clipindex>
              <groupindex>1</groupindex>
            </link>
            <link>
              <linkclipref>clipitem-378</linkclipref>
              <mediatype>audio</mediatype>
              <trackindex>6</trackindex>
              <clipindex>1</clipindex>
              <groupindex>1</groupindex>
            </link>
          </clipitem>
          <clipitem id="clipitem-379">
            <masterclipid>masterclip-2</masterclipid>
            <name>2023-04-01 13-58-58溪神带飞王源5KCC.mp4</name>
            <enabled>TRUE</enabled>
            <rate>
              <timebase>60</timebase>
              <ntsc>FALSE</ntsc>
            </rate>
            <start>7529</start>
            <end>7724</end>
            <in>52898</in>
            <out>53093</out>
            <alphatype>none</alphatype>
            <pixelaspectratio>square</pixelaspectratio>
            <anamorphic>FALSE</anamorphic>
            <file id="file-2">
              <name>2023-04-01 13-58-58溪神带飞王源5KCC.mp4</name>
              <pathurl>file%3A//localhost/F%3A/MEDIA/APEX/2023-04-01%2013-58-58%E6%BA%AA%E7%A5%9E%E5%B8%A6%E9%A3%9E%E7%8E%8B%E6%BA%905KCC.mp4</pathurl>
              <media>
                <video>
                  <samplecharacteristics>
                    <rate>
                      <timebase>60</timebase>
                      <ntsc>FALSE</ntsc>
                    </rate>
                    <width>1920</width>
                    <height>1080</height>
                    <anamorphic>FALSE</anamorphic>
                    <pixelaspectratio>square</pixelaspectratio>
                    <fielddominance>none</fielddominance>
                  </samplecharacteristics>
                </video>
                <audio>
                  <samplecharacteristics>
                    <depth>16</depth>
                    <samplerate>48000</samplerate>
                  </samplecharacteristics>
                  <channelcount>2</channelcount>
                </audio>
                <audio>
                  <samplecharacteristics>
                    <depth>16</depth>
                    <samplerate>48000</samplerate>
                  </samplecharacteristics>
                  <channelcount>2</channelcount>
                </audio>
                <audio>
                  <samplecharacteristics>
                    <depth>16</depth>
                    <samplerate>48000</samplerate>
                  </samplecharacteristics>
                  <channelcount>2</channelcount>
                </audio>
              </media>
            </file>
            <link>
              <linkclipref>clipitem-379</linkclipref>
              <mediatype>video</mediatype>
              <trackindex>1</trackindex>
              <clipindex>1</clipindex>
            </link>
            <link>
              <linkclipref>clipitem-380</linkclipref>
              <mediatype>audio</mediatype>
              <trackindex>1</trackindex>
              <clipindex>1</clipindex>
              <groupindex>1</groupindex>
            </link>
            <link>
              <linkclipref>clipitem-381</linkclipref>
              <mediatype>audio</mediatype>
              <trackindex>2</trackindex>
              <clipindex>1</clipindex>
              <groupindex>1</groupindex>
            </link>
            <link>
              <linkclipref>clipitem-382</linkclipref>
              <mediatype>audio</mediatype>
              <trackindex>3</trackindex>
              <clipindex>1</clipindex>
              <groupindex>1</groupindex>
            </link>
            <link>
              <linkclipref>clipitem-383</linkclipref>
              <mediatype>audio</mediatype>
              <trackindex>4</trackindex>
              <clipindex>1</clipindex>
              <groupindex>1</groupindex>
            </link>
            <link>
              <linkclipref>clipitem-384</linkclipref>
              <mediatype>audio</mediatype>
              <trackindex>5</trackindex>
              <clipindex>1</clipindex>
              <groupindex>1</groupindex>
            </link>
            <link>
              <linkclipref>clipitem-385</linkclipref>
              <mediatype>audio</mediatype>
              <trackindex>6</trackindex>
              <clipindex>1</clipindex>
              <groupindex>1</groupindex>
            </link>
          </clipitem>
          <clipitem id="clipitem-386">
            <masterclipid>masterclip-2</masterclipid>
            <name>2023-04-01 13-58-58溪神带飞王源5KCC.mp4</name>
            <enabled>TRUE</enabled>
            <rate>
              <timebase>60</timebase>
              <ntsc>FALSE</ntsc>
            </rate>
            <start>7724</start>
            <end>7856</end>
            <in>53201</in>
            <out>53333</out>
            <alphatype>none</alphatype>
            <pixelaspectratio>square</pixelaspectratio>
            <anamorphic>FALSE</anamorphic>
            <file id="file-2">
              <name>2023-04-01 13-58-58溪神带飞王源5KCC.mp4</name>
              <pathurl>file%3A//localhost/F%3A/MEDIA/APEX/2023-04-01%2013-58-58%E6%BA%AA%E7%A5%9E%E5%B8%A6%E9%A3%9E%E7%8E%8B%E6%BA%905KCC.mp4</pathurl>
              <media>
                <video>
                  <samplecharacteristics>
                    <rate>
                      <timebase>60</timebase>
                      <ntsc>FALSE</ntsc>
                    </rate>
                    <width>1920</width>
                    <height>1080</height>
                    <anamorphic>FALSE</anamorphic>
                    <pixelaspectratio>square</pixelaspectratio>
                    <fielddominance>none</fielddominance>
                  </samplecharacteristics>
                </video>
                <audio>
                  <samplecharacteristics>
                    <depth>16</depth>
                    <samplerate>48000</samplerate>
                  </samplecharacteristics>
                  <channelcount>2</channelcount>
                </audio>
                <audio>
                  <samplecharacteristics>
                    <depth>16</depth>
                    <samplerate>48000</samplerate>
                  </samplecharacteristics>
                  <channelcount>2</channelcount>
                </audio>
                <audio>
                  <samplecharacteristics>
                    <depth>16</depth>
                    <samplerate>48000</samplerate>
                  </samplecharacteristics>
                  <channelcount>2</channelcount>
                </audio>
              </media>
            </file>
            <link>
              <linkclipref>clipitem-386</linkclipref>
              <mediatype>video</mediatype>
              <trackindex>1</trackindex>
              <clipindex>1</clipindex>
            </link>
            <link>
              <linkclipref>clipitem-387</linkclipref>
              <mediatype>audio</mediatype>
              <trackindex>1</trackindex>
              <clipindex>1</clipindex>
              <groupindex>1</groupindex>
            </link>
            <link>
              <linkclipref>clipitem-388</linkclipref>
              <mediatype>audio</mediatype>
              <trackindex>2</trackindex>
              <clipindex>1</clipindex>
              <groupindex>1</groupindex>
            </link>
            <link>
              <linkclipref>clipitem-389</linkclipref>
              <mediatype>audio</mediatype>
              <trackindex>3</trackindex>
              <clipindex>1</clipindex>
              <groupindex>1</groupindex>
            </link>
            <link>
              <linkclipref>clipitem-390</linkclipref>
              <mediatype>audio</mediatype>
              <trackindex>4</trackindex>
              <clipindex>1</clipindex>
              <groupindex>1</groupindex>
            </link>
            <link>
              <linkclipref>clipitem-391</linkclipref>
              <mediatype>audio</mediatype>
              <trackindex>5</trackindex>
              <clipindex>1</clipindex>
              <groupindex>1</groupindex>
            </link>
            <link>
              <linkclipref>clipitem-392</linkclipref>
              <mediatype>audio</mediatype>
              <trackindex>6</trackindex>
              <clipindex>1</clipindex>
              <groupindex>1</groupindex>
            </link>
          </clipitem>
          <clipitem id="clipitem-393">
            <masterclipid>masterclip-2</masterclipid>
            <name>2023-04-01 13-58-58溪神带飞王源5KCC.mp4</name>
            <enabled>TRUE</enabled>
            <rate>
              <timebase>60</timebase>
              <ntsc>FALSE</ntsc>
            </rate>
            <start>7856</start>
            <end>8015</end>
            <in>53758</in>
            <out>53917</out>
            <alphatype>none</alphatype>
            <pixelaspectratio>square</pixelaspectratio>
            <anamorphic>FALSE</anamorphic>
            <file id="file-2">
              <name>2023-04-01 13-58-58溪神带飞王源5KCC.mp4</name>
              <pathurl>file%3A//localhost/F%3A/MEDIA/APEX/2023-04-01%2013-58-58%E6%BA%AA%E7%A5%9E%E5%B8%A6%E9%A3%9E%E7%8E%8B%E6%BA%905KCC.mp4</pathurl>
              <media>
                <video>
                  <samplecharacteristics>
                    <rate>
                      <timebase>60</timebase>
                      <ntsc>FALSE</ntsc>
                    </rate>
                    <width>1920</width>
                    <height>1080</height>
                    <anamorphic>FALSE</anamorphic>
                    <pixelaspectratio>square</pixelaspectratio>
                    <fielddominance>none</fielddominance>
                  </samplecharacteristics>
                </video>
                <audio>
                  <samplecharacteristics>
                    <depth>16</depth>
                    <samplerate>48000</samplerate>
                  </samplecharacteristics>
                  <channelcount>2</channelcount>
                </audio>
                <audio>
                  <samplecharacteristics>
                    <depth>16</depth>
                    <samplerate>48000</samplerate>
                  </samplecharacteristics>
                  <channelcount>2</channelcount>
                </audio>
                <audio>
                  <samplecharacteristics>
                    <depth>16</depth>
                    <samplerate>48000</samplerate>
                  </samplecharacteristics>
                  <channelcount>2</channelcount>
                </audio>
              </media>
            </file>
            <link>
              <linkclipref>clipitem-393</linkclipref>
              <mediatype>video</mediatype>
              <trackindex>1</trackindex>
              <clipindex>1</clipindex>
            </link>
            <link>
              <linkclipref>clipitem-394</linkclipref>
              <mediatype>audio</mediatype>
              <trackindex>1</trackindex>
              <clipindex>1</clipindex>
              <groupindex>1</groupindex>
            </link>
            <link>
              <linkclipref>clipitem-395</linkclipref>
              <mediatype>audio</mediatype>
              <trackindex>2</trackindex>
              <clipindex>1</clipindex>
              <groupindex>1</groupindex>
            </link>
            <link>
              <linkclipref>clipitem-396</linkclipref>
              <mediatype>audio</mediatype>
              <trackindex>3</trackindex>
              <clipindex>1</clipindex>
              <groupindex>1</groupindex>
            </link>
            <link>
              <linkclipref>clipitem-397</linkclipref>
              <mediatype>audio</mediatype>
              <trackindex>4</trackindex>
              <clipindex>1</clipindex>
              <groupindex>1</groupindex>
            </link>
            <link>
              <linkclipref>clipitem-398</linkclipref>
              <mediatype>audio</mediatype>
              <trackindex>5</trackindex>
              <clipindex>1</clipindex>
              <groupindex>1</groupindex>
            </link>
            <link>
              <linkclipref>clipitem-399</linkclipref>
              <mediatype>audio</mediatype>
              <trackindex>6</trackindex>
              <clipindex>1</clipindex>
              <groupindex>1</groupindex>
            </link>
          </clipitem>
          <clipitem id="clipitem-400">
            <masterclipid>masterclip-2</masterclipid>
            <name>2023-04-01 13-58-58溪神带飞王源5KCC.mp4</name>
            <enabled>TRUE</enabled>
            <rate>
              <timebase>60</timebase>
              <ntsc>FALSE</ntsc>
            </rate>
            <start>8015</start>
            <end>8211</end>
            <in>53964</in>
            <out>54160</out>
            <alphatype>none</alphatype>
            <pixelaspectratio>square</pixelaspectratio>
            <anamorphic>FALSE</anamorphic>
            <file id="file-2">
              <name>2023-04-01 13-58-58溪神带飞王源5KCC.mp4</name>
              <pathurl>file%3A//localhost/F%3A/MEDIA/APEX/2023-04-01%2013-58-58%E6%BA%AA%E7%A5%9E%E5%B8%A6%E9%A3%9E%E7%8E%8B%E6%BA%905KCC.mp4</pathurl>
              <media>
                <video>
                  <samplecharacteristics>
                    <rate>
                      <timebase>60</timebase>
                      <ntsc>FALSE</ntsc>
                    </rate>
                    <width>1920</width>
                    <height>1080</height>
                    <anamorphic>FALSE</anamorphic>
                    <pixelaspectratio>square</pixelaspectratio>
                    <fielddominance>none</fielddominance>
                  </samplecharacteristics>
                </video>
                <audio>
                  <samplecharacteristics>
                    <depth>16</depth>
                    <samplerate>48000</samplerate>
                  </samplecharacteristics>
                  <channelcount>2</channelcount>
                </audio>
                <audio>
                  <samplecharacteristics>
                    <depth>16</depth>
                    <samplerate>48000</samplerate>
                  </samplecharacteristics>
                  <channelcount>2</channelcount>
                </audio>
                <audio>
                  <samplecharacteristics>
                    <depth>16</depth>
                    <samplerate>48000</samplerate>
                  </samplecharacteristics>
                  <channelcount>2</channelcount>
                </audio>
              </media>
            </file>
            <link>
              <linkclipref>clipitem-400</linkclipref>
              <mediatype>video</mediatype>
              <trackindex>1</trackindex>
              <clipindex>1</clipindex>
            </link>
            <link>
              <linkclipref>clipitem-401</linkclipref>
              <mediatype>audio</mediatype>
              <trackindex>1</trackindex>
              <clipindex>1</clipindex>
              <groupindex>1</groupindex>
            </link>
            <link>
              <linkclipref>clipitem-402</linkclipref>
              <mediatype>audio</mediatype>
              <trackindex>2</trackindex>
              <clipindex>1</clipindex>
              <groupindex>1</groupindex>
            </link>
            <link>
              <linkclipref>clipitem-403</linkclipref>
              <mediatype>audio</mediatype>
              <trackindex>3</trackindex>
              <clipindex>1</clipindex>
              <groupindex>1</groupindex>
            </link>
            <link>
              <linkclipref>clipitem-404</linkclipref>
              <mediatype>audio</mediatype>
              <trackindex>4</trackindex>
              <clipindex>1</clipindex>
              <groupindex>1</groupindex>
            </link>
            <link>
              <linkclipref>clipitem-405</linkclipref>
              <mediatype>audio</mediatype>
              <trackindex>5</trackindex>
              <clipindex>1</clipindex>
              <groupindex>1</groupindex>
            </link>
            <link>
              <linkclipref>clipitem-406</linkclipref>
              <mediatype>audio</mediatype>
              <trackindex>6</trackindex>
              <clipindex>1</clipindex>
              <groupindex>1</groupindex>
            </link>
          </clipitem>
          <clipitem id="clipitem-407">
            <masterclipid>masterclip-2</masterclipid>
            <name>2023-04-01 13-58-58溪神带飞王源5KCC.mp4</name>
            <enabled>TRUE</enabled>
            <rate>
              <timebase>60</timebase>
              <ntsc>FALSE</ntsc>
            </rate>
            <start>8211</start>
            <end>8325</end>
            <in>54222</in>
            <out>54336</out>
            <alphatype>none</alphatype>
            <pixelaspectratio>square</pixelaspectratio>
            <anamorphic>FALSE</anamorphic>
            <file id="file-2">
              <name>2023-04-01 13-58-58溪神带飞王源5KCC.mp4</name>
              <pathurl>file%3A//localhost/F%3A/MEDIA/APEX/2023-04-01%2013-58-58%E6%BA%AA%E7%A5%9E%E5%B8%A6%E9%A3%9E%E7%8E%8B%E6%BA%905KCC.mp4</pathurl>
              <media>
                <video>
                  <samplecharacteristics>
                    <rate>
                      <timebase>60</timebase>
                      <ntsc>FALSE</ntsc>
                    </rate>
                    <width>1920</width>
                    <height>1080</height>
                    <anamorphic>FALSE</anamorphic>
                    <pixelaspectratio>square</pixelaspectratio>
                    <fielddominance>none</fielddominance>
                  </samplecharacteristics>
                </video>
                <audio>
                  <samplecharacteristics>
                    <depth>16</depth>
                    <samplerate>48000</samplerate>
                  </samplecharacteristics>
                  <channelcount>2</channelcount>
                </audio>
                <audio>
                  <samplecharacteristics>
                    <depth>16</depth>
                    <samplerate>48000</samplerate>
                  </samplecharacteristics>
                  <channelcount>2</channelcount>
                </audio>
                <audio>
                  <samplecharacteristics>
                    <depth>16</depth>
                    <samplerate>48000</samplerate>
                  </samplecharacteristics>
                  <channelcount>2</channelcount>
                </audio>
              </media>
            </file>
            <link>
              <linkclipref>clipitem-407</linkclipref>
              <mediatype>video</mediatype>
              <trackindex>1</trackindex>
              <clipindex>1</clipindex>
            </link>
            <link>
              <linkclipref>clipitem-408</linkclipref>
              <mediatype>audio</mediatype>
              <trackindex>1</trackindex>
              <clipindex>1</clipindex>
              <groupindex>1</groupindex>
            </link>
            <link>
              <linkclipref>clipitem-409</linkclipref>
              <mediatype>audio</mediatype>
              <trackindex>2</trackindex>
              <clipindex>1</clipindex>
              <groupindex>1</groupindex>
            </link>
            <link>
              <linkclipref>clipitem-410</linkclipref>
              <mediatype>audio</mediatype>
              <trackindex>3</trackindex>
              <clipindex>1</clipindex>
              <groupindex>1</groupindex>
            </link>
            <link>
              <linkclipref>clipitem-411</linkclipref>
              <mediatype>audio</mediatype>
              <trackindex>4</trackindex>
              <clipindex>1</clipindex>
              <groupindex>1</groupindex>
            </link>
            <link>
              <linkclipref>clipitem-412</linkclipref>
              <mediatype>audio</mediatype>
              <trackindex>5</trackindex>
              <clipindex>1</clipindex>
              <groupindex>1</groupindex>
            </link>
            <link>
              <linkclipref>clipitem-413</linkclipref>
              <mediatype>audio</mediatype>
              <trackindex>6</trackindex>
              <clipindex>1</clipindex>
              <groupindex>1</groupindex>
            </link>
          </clipitem>
          <clipitem id="clipitem-414">
            <masterclipid>masterclip-2</masterclipid>
            <name>2023-04-01 13-58-58溪神带飞王源5KCC.mp4</name>
            <enabled>TRUE</enabled>
            <rate>
              <timebase>60</timebase>
              <ntsc>FALSE</ntsc>
            </rate>
            <start>8325</start>
            <end>8452</end>
            <in>58783</in>
            <out>58910</out>
            <alphatype>none</alphatype>
            <pixelaspectratio>square</pixelaspectratio>
            <anamorphic>FALSE</anamorphic>
            <file id="file-2">
              <name>2023-04-01 13-58-58溪神带飞王源5KCC.mp4</name>
              <pathurl>file%3A//localhost/F%3A/MEDIA/APEX/2023-04-01%2013-58-58%E6%BA%AA%E7%A5%9E%E5%B8%A6%E9%A3%9E%E7%8E%8B%E6%BA%905KCC.mp4</pathurl>
              <media>
                <video>
                  <samplecharacteristics>
                    <rate>
                      <timebase>60</timebase>
                      <ntsc>FALSE</ntsc>
                    </rate>
                    <width>1920</width>
                    <height>1080</height>
                    <anamorphic>FALSE</anamorphic>
                    <pixelaspectratio>square</pixelaspectratio>
                    <fielddominance>none</fielddominance>
                  </samplecharacteristics>
                </video>
                <audio>
                  <samplecharacteristics>
                    <depth>16</depth>
                    <samplerate>48000</samplerate>
                  </samplecharacteristics>
                  <channelcount>2</channelcount>
                </audio>
                <audio>
                  <samplecharacteristics>
                    <depth>16</depth>
                    <samplerate>48000</samplerate>
                  </samplecharacteristics>
                  <channelcount>2</channelcount>
                </audio>
                <audio>
                  <samplecharacteristics>
                    <depth>16</depth>
                    <samplerate>48000</samplerate>
                  </samplecharacteristics>
                  <channelcount>2</channelcount>
                </audio>
              </media>
            </file>
            <link>
              <linkclipref>clipitem-414</linkclipref>
              <mediatype>video</mediatype>
              <trackindex>1</trackindex>
              <clipindex>1</clipindex>
            </link>
            <link>
              <linkclipref>clipitem-415</linkclipref>
              <mediatype>audio</mediatype>
              <trackindex>1</trackindex>
              <clipindex>1</clipindex>
              <groupindex>1</groupindex>
            </link>
            <link>
              <linkclipref>clipitem-416</linkclipref>
              <mediatype>audio</mediatype>
              <trackindex>2</trackindex>
              <clipindex>1</clipindex>
              <groupindex>1</groupindex>
            </link>
            <link>
              <linkclipref>clipitem-417</linkclipref>
              <mediatype>audio</mediatype>
              <trackindex>3</trackindex>
              <clipindex>1</clipindex>
              <groupindex>1</groupindex>
            </link>
            <link>
              <linkclipref>clipitem-418</linkclipref>
              <mediatype>audio</mediatype>
              <trackindex>4</trackindex>
              <clipindex>1</clipindex>
              <groupindex>1</groupindex>
            </link>
            <link>
              <linkclipref>clipitem-419</linkclipref>
              <mediatype>audio</mediatype>
              <trackindex>5</trackindex>
              <clipindex>1</clipindex>
              <groupindex>1</groupindex>
            </link>
            <link>
              <linkclipref>clipitem-420</linkclipref>
              <mediatype>audio</mediatype>
              <trackindex>6</trackindex>
              <clipindex>1</clipindex>
              <groupindex>1</groupindex>
            </link>
          </clipitem>
          <clipitem id="clipitem-421">
            <masterclipid>masterclip-2</masterclipid>
            <name>2023-04-01 13-58-58溪神带飞王源5KCC.mp4</name>
            <enabled>TRUE</enabled>
            <rate>
              <timebase>60</timebase>
              <ntsc>FALSE</ntsc>
            </rate>
            <start>8452</start>
            <end>8604</end>
            <in>61335</in>
            <out>61487</out>
            <alphatype>none</alphatype>
            <pixelaspectratio>square</pixelaspectratio>
            <anamorphic>FALSE</anamorphic>
            <file id="file-2">
              <name>2023-04-01 13-58-58溪神带飞王源5KCC.mp4</name>
              <pathurl>file%3A//localhost/F%3A/MEDIA/APEX/2023-04-01%2013-58-58%E6%BA%AA%E7%A5%9E%E5%B8%A6%E9%A3%9E%E7%8E%8B%E6%BA%905KCC.mp4</pathurl>
              <media>
                <video>
                  <samplecharacteristics>
                    <rate>
                      <timebase>60</timebase>
                      <ntsc>FALSE</ntsc>
                    </rate>
                    <width>1920</width>
                    <height>1080</height>
                    <anamorphic>FALSE</anamorphic>
                    <pixelaspectratio>square</pixelaspectratio>
                    <fielddominance>none</fielddominance>
                  </samplecharacteristics>
                </video>
                <audio>
                  <samplecharacteristics>
                    <depth>16</depth>
                    <samplerate>48000</samplerate>
                  </samplecharacteristics>
                  <channelcount>2</channelcount>
                </audio>
                <audio>
                  <samplecharacteristics>
                    <depth>16</depth>
                    <samplerate>48000</samplerate>
                  </samplecharacteristics>
                  <channelcount>2</channelcount>
                </audio>
                <audio>
                  <samplecharacteristics>
                    <depth>16</depth>
                    <samplerate>48000</samplerate>
                  </samplecharacteristics>
                  <channelcount>2</channelcount>
                </audio>
              </media>
            </file>
            <link>
              <linkclipref>clipitem-421</linkclipref>
              <mediatype>video</mediatype>
              <trackindex>1</trackindex>
              <clipindex>1</clipindex>
            </link>
            <link>
              <linkclipref>clipitem-422</linkclipref>
              <mediatype>audio</mediatype>
              <trackindex>1</trackindex>
              <clipindex>1</clipindex>
              <groupindex>1</groupindex>
            </link>
            <link>
              <linkclipref>clipitem-423</linkclipref>
              <mediatype>audio</mediatype>
              <trackindex>2</trackindex>
              <clipindex>1</clipindex>
              <groupindex>1</groupindex>
            </link>
            <link>
              <linkclipref>clipitem-424</linkclipref>
              <mediatype>audio</mediatype>
              <trackindex>3</trackindex>
              <clipindex>1</clipindex>
              <groupindex>1</groupindex>
            </link>
            <link>
              <linkclipref>clipitem-425</linkclipref>
              <mediatype>audio</mediatype>
              <trackindex>4</trackindex>
              <clipindex>1</clipindex>
              <groupindex>1</groupindex>
            </link>
            <link>
              <linkclipref>clipitem-426</linkclipref>
              <mediatype>audio</mediatype>
              <trackindex>5</trackindex>
              <clipindex>1</clipindex>
              <groupindex>1</groupindex>
            </link>
            <link>
              <linkclipref>clipitem-427</linkclipref>
              <mediatype>audio</mediatype>
              <trackindex>6</trackindex>
              <clipindex>1</clipindex>
              <groupindex>1</groupindex>
            </link>
          </clipitem>
          <clipitem id="clipitem-428">
            <masterclipid>masterclip-2</masterclipid>
            <name>2023-04-01 13-58-58溪神带飞王源5KCC.mp4</name>
            <enabled>TRUE</enabled>
            <rate>
              <timebase>60</timebase>
              <ntsc>FALSE</ntsc>
            </rate>
            <start>8604</start>
            <end>8663</end>
            <in>61479</in>
            <out>61538</out>
            <alphatype>none</alphatype>
            <pixelaspectratio>square</pixelaspectratio>
            <anamorphic>FALSE</anamorphic>
            <file id="file-2">
              <name>2023-04-01 13-58-58溪神带飞王源5KCC.mp4</name>
              <pathurl>file%3A//localhost/F%3A/MEDIA/APEX/2023-04-01%2013-58-58%E6%BA%AA%E7%A5%9E%E5%B8%A6%E9%A3%9E%E7%8E%8B%E6%BA%905KCC.mp4</pathurl>
              <media>
                <video>
                  <samplecharacteristics>
                    <rate>
                      <timebase>60</timebase>
                      <ntsc>FALSE</ntsc>
                    </rate>
                    <width>1920</width>
                    <height>1080</height>
                    <anamorphic>FALSE</anamorphic>
                    <pixelaspectratio>square</pixelaspectratio>
                    <fielddominance>none</fielddominance>
                  </samplecharacteristics>
                </video>
                <audio>
                  <samplecharacteristics>
                    <depth>16</depth>
                    <samplerate>48000</samplerate>
                  </samplecharacteristics>
                  <channelcount>2</channelcount>
                </audio>
                <audio>
                  <samplecharacteristics>
                    <depth>16</depth>
                    <samplerate>48000</samplerate>
                  </samplecharacteristics>
                  <channelcount>2</channelcount>
                </audio>
                <audio>
                  <samplecharacteristics>
                    <depth>16</depth>
                    <samplerate>48000</samplerate>
                  </samplecharacteristics>
                  <channelcount>2</channelcount>
                </audio>
              </media>
            </file>
            <link>
              <linkclipref>clipitem-428</linkclipref>
              <mediatype>video</mediatype>
              <trackindex>1</trackindex>
              <clipindex>1</clipindex>
            </link>
            <link>
              <linkclipref>clipitem-429</linkclipref>
              <mediatype>audio</mediatype>
              <trackindex>1</trackindex>
              <clipindex>1</clipindex>
              <groupindex>1</groupindex>
            </link>
            <link>
              <linkclipref>clipitem-430</linkclipref>
              <mediatype>audio</mediatype>
              <trackindex>2</trackindex>
              <clipindex>1</clipindex>
              <groupindex>1</groupindex>
            </link>
            <link>
              <linkclipref>clipitem-431</linkclipref>
              <mediatype>audio</mediatype>
              <trackindex>3</trackindex>
              <clipindex>1</clipindex>
              <groupindex>1</groupindex>
            </link>
            <link>
              <linkclipref>clipitem-432</linkclipref>
              <mediatype>audio</mediatype>
              <trackindex>4</trackindex>
              <clipindex>1</clipindex>
              <groupindex>1</groupindex>
            </link>
            <link>
              <linkclipref>clipitem-433</linkclipref>
              <mediatype>audio</mediatype>
              <trackindex>5</trackindex>
              <clipindex>1</clipindex>
              <groupindex>1</groupindex>
            </link>
            <link>
              <linkclipref>clipitem-434</linkclipref>
              <mediatype>audio</mediatype>
              <trackindex>6</trackindex>
              <clipindex>1</clipindex>
              <groupindex>1</groupindex>
            </link>
          </clipitem>
          <clipitem id="clipitem-435">
            <masterclipid>masterclip-2</masterclipid>
            <name>2023-04-01 13-58-58溪神带飞王源5KCC.mp4</name>
            <enabled>TRUE</enabled>
            <rate>
              <timebase>60</timebase>
              <ntsc>FALSE</ntsc>
            </rate>
            <start>8663</start>
            <end>8756</end>
            <in>61668</in>
            <out>61761</out>
            <alphatype>none</alphatype>
            <pixelaspectratio>square</pixelaspectratio>
            <anamorphic>FALSE</anamorphic>
            <file id="file-2">
              <name>2023-04-01 13-58-58溪神带飞王源5KCC.mp4</name>
              <pathurl>file%3A//localhost/F%3A/MEDIA/APEX/2023-04-01%2013-58-58%E6%BA%AA%E7%A5%9E%E5%B8%A6%E9%A3%9E%E7%8E%8B%E6%BA%905KCC.mp4</pathurl>
              <media>
                <video>
                  <samplecharacteristics>
                    <rate>
                      <timebase>60</timebase>
                      <ntsc>FALSE</ntsc>
                    </rate>
                    <width>1920</width>
                    <height>1080</height>
                    <anamorphic>FALSE</anamorphic>
                    <pixelaspectratio>square</pixelaspectratio>
                    <fielddominance>none</fielddominance>
                  </samplecharacteristics>
                </video>
                <audio>
                  <samplecharacteristics>
                    <depth>16</depth>
                    <samplerate>48000</samplerate>
                  </samplecharacteristics>
                  <channelcount>2</channelcount>
                </audio>
                <audio>
                  <samplecharacteristics>
                    <depth>16</depth>
                    <samplerate>48000</samplerate>
                  </samplecharacteristics>
                  <channelcount>2</channelcount>
                </audio>
                <audio>
                  <samplecharacteristics>
                    <depth>16</depth>
                    <samplerate>48000</samplerate>
                  </samplecharacteristics>
                  <channelcount>2</channelcount>
                </audio>
              </media>
            </file>
            <link>
              <linkclipref>clipitem-435</linkclipref>
              <mediatype>video</mediatype>
              <trackindex>1</trackindex>
              <clipindex>1</clipindex>
            </link>
            <link>
              <linkclipref>clipitem-436</linkclipref>
              <mediatype>audio</mediatype>
              <trackindex>1</trackindex>
              <clipindex>1</clipindex>
              <groupindex>1</groupindex>
            </link>
            <link>
              <linkclipref>clipitem-437</linkclipref>
              <mediatype>audio</mediatype>
              <trackindex>2</trackindex>
              <clipindex>1</clipindex>
              <groupindex>1</groupindex>
            </link>
            <link>
              <linkclipref>clipitem-438</linkclipref>
              <mediatype>audio</mediatype>
              <trackindex>3</trackindex>
              <clipindex>1</clipindex>
              <groupindex>1</groupindex>
            </link>
            <link>
              <linkclipref>clipitem-439</linkclipref>
              <mediatype>audio</mediatype>
              <trackindex>4</trackindex>
              <clipindex>1</clipindex>
              <groupindex>1</groupindex>
            </link>
            <link>
              <linkclipref>clipitem-440</linkclipref>
              <mediatype>audio</mediatype>
              <trackindex>5</trackindex>
              <clipindex>1</clipindex>
              <groupindex>1</groupindex>
            </link>
            <link>
              <linkclipref>clipitem-441</linkclipref>
              <mediatype>audio</mediatype>
              <trackindex>6</trackindex>
              <clipindex>1</clipindex>
              <groupindex>1</groupindex>
            </link>
          </clipitem>
          <clipitem id="clipitem-442">
            <masterclipid>masterclip-2</masterclipid>
            <name>2023-04-01 13-58-58溪神带飞王源5KCC.mp4</name>
            <enabled>TRUE</enabled>
            <rate>
              <timebase>60</timebase>
              <ntsc>FALSE</ntsc>
            </rate>
            <start>8756</start>
            <end>8834</end>
            <in>63731</in>
            <out>63809</out>
            <alphatype>none</alphatype>
            <pixelaspectratio>square</pixelaspectratio>
            <anamorphic>FALSE</anamorphic>
            <file id="file-2">
              <name>2023-04-01 13-58-58溪神带飞王源5KCC.mp4</name>
              <pathurl>file%3A//localhost/F%3A/MEDIA/APEX/2023-04-01%2013-58-58%E6%BA%AA%E7%A5%9E%E5%B8%A6%E9%A3%9E%E7%8E%8B%E6%BA%905KCC.mp4</pathurl>
              <media>
                <video>
                  <samplecharacteristics>
                    <rate>
                      <timebase>60</timebase>
                      <ntsc>FALSE</ntsc>
                    </rate>
                    <width>1920</width>
                    <height>1080</height>
                    <anamorphic>FALSE</anamorphic>
                    <pixelaspectratio>square</pixelaspectratio>
                    <fielddominance>none</fielddominance>
                  </samplecharacteristics>
                </video>
                <audio>
                  <samplecharacteristics>
                    <depth>16</depth>
                    <samplerate>48000</samplerate>
                  </samplecharacteristics>
                  <channelcount>2</channelcount>
                </audio>
                <audio>
                  <samplecharacteristics>
                    <depth>16</depth>
                    <samplerate>48000</samplerate>
                  </samplecharacteristics>
                  <channelcount>2</channelcount>
                </audio>
                <audio>
                  <samplecharacteristics>
                    <depth>16</depth>
                    <samplerate>48000</samplerate>
                  </samplecharacteristics>
                  <channelcount>2</channelcount>
                </audio>
              </media>
            </file>
            <link>
              <linkclipref>clipitem-442</linkclipref>
              <mediatype>video</mediatype>
              <trackindex>1</trackindex>
              <clipindex>1</clipindex>
            </link>
            <link>
              <linkclipref>clipitem-443</linkclipref>
              <mediatype>audio</mediatype>
              <trackindex>1</trackindex>
              <clipindex>1</clipindex>
              <groupindex>1</groupindex>
            </link>
            <link>
              <linkclipref>clipitem-444</linkclipref>
              <mediatype>audio</mediatype>
              <trackindex>2</trackindex>
              <clipindex>1</clipindex>
              <groupindex>1</groupindex>
            </link>
            <link>
              <linkclipref>clipitem-445</linkclipref>
              <mediatype>audio</mediatype>
              <trackindex>3</trackindex>
              <clipindex>1</clipindex>
              <groupindex>1</groupindex>
            </link>
            <link>
              <linkclipref>clipitem-446</linkclipref>
              <mediatype>audio</mediatype>
              <trackindex>4</trackindex>
              <clipindex>1</clipindex>
              <groupindex>1</groupindex>
            </link>
            <link>
              <linkclipref>clipitem-447</linkclipref>
              <mediatype>audio</mediatype>
              <trackindex>5</trackindex>
              <clipindex>1</clipindex>
              <groupindex>1</groupindex>
            </link>
            <link>
              <linkclipref>clipitem-448</linkclipref>
              <mediatype>audio</mediatype>
              <trackindex>6</trackindex>
              <clipindex>1</clipindex>
              <groupindex>1</groupindex>
            </link>
          </clipitem>
          <clipitem id="clipitem-449">
            <masterclipid>masterclip-2</masterclipid>
            <name>2023-04-01 13-58-58溪神带飞王源5KCC.mp4</name>
            <enabled>TRUE</enabled>
            <rate>
              <timebase>60</timebase>
              <ntsc>FALSE</ntsc>
            </rate>
            <start>8834</start>
            <end>8926</end>
            <in>65937</in>
            <out>66029</out>
            <alphatype>none</alphatype>
            <pixelaspectratio>square</pixelaspectratio>
            <anamorphic>FALSE</anamorphic>
            <file id="file-2">
              <name>2023-04-01 13-58-58溪神带飞王源5KCC.mp4</name>
              <pathurl>file%3A//localhost/F%3A/MEDIA/APEX/2023-04-01%2013-58-58%E6%BA%AA%E7%A5%9E%E5%B8%A6%E9%A3%9E%E7%8E%8B%E6%BA%905KCC.mp4</pathurl>
              <media>
                <video>
                  <samplecharacteristics>
                    <rate>
                      <timebase>60</timebase>
                      <ntsc>FALSE</ntsc>
                    </rate>
                    <width>1920</width>
                    <height>1080</height>
                    <anamorphic>FALSE</anamorphic>
                    <pixelaspectratio>square</pixelaspectratio>
                    <fielddominance>none</fielddominance>
                  </samplecharacteristics>
                </video>
                <audio>
                  <samplecharacteristics>
                    <depth>16</depth>
                    <samplerate>48000</samplerate>
                  </samplecharacteristics>
                  <channelcount>2</channelcount>
                </audio>
                <audio>
                  <samplecharacteristics>
                    <depth>16</depth>
                    <samplerate>48000</samplerate>
                  </samplecharacteristics>
                  <channelcount>2</channelcount>
                </audio>
                <audio>
                  <samplecharacteristics>
                    <depth>16</depth>
                    <samplerate>48000</samplerate>
                  </samplecharacteristics>
                  <channelcount>2</channelcount>
                </audio>
              </media>
            </file>
            <link>
              <linkclipref>clipitem-449</linkclipref>
              <mediatype>video</mediatype>
              <trackindex>1</trackindex>
              <clipindex>1</clipindex>
            </link>
            <link>
              <linkclipref>clipitem-450</linkclipref>
              <mediatype>audio</mediatype>
              <trackindex>1</trackindex>
              <clipindex>1</clipindex>
              <groupindex>1</groupindex>
            </link>
            <link>
              <linkclipref>clipitem-451</linkclipref>
              <mediatype>audio</mediatype>
              <trackindex>2</trackindex>
              <clipindex>1</clipindex>
              <groupindex>1</groupindex>
            </link>
            <link>
              <linkclipref>clipitem-452</linkclipref>
              <mediatype>audio</mediatype>
              <trackindex>3</trackindex>
              <clipindex>1</clipindex>
              <groupindex>1</groupindex>
            </link>
            <link>
              <linkclipref>clipitem-453</linkclipref>
              <mediatype>audio</mediatype>
              <trackindex>4</trackindex>
              <clipindex>1</clipindex>
              <groupindex>1</groupindex>
            </link>
            <link>
              <linkclipref>clipitem-454</linkclipref>
              <mediatype>audio</mediatype>
              <trackindex>5</trackindex>
              <clipindex>1</clipindex>
              <groupindex>1</groupindex>
            </link>
            <link>
              <linkclipref>clipitem-455</linkclipref>
              <mediatype>audio</mediatype>
              <trackindex>6</trackindex>
              <clipindex>1</clipindex>
              <groupindex>1</groupindex>
            </link>
          </clipitem>
          <clipitem id="clipitem-456">
            <masterclipid>masterclip-2</masterclipid>
            <name>2023-04-01 13-58-58溪神带飞王源5KCC.mp4</name>
            <enabled>TRUE</enabled>
            <rate>
              <timebase>60</timebase>
              <ntsc>FALSE</ntsc>
            </rate>
            <start>8926</start>
            <end>9026</end>
            <in>67489</in>
            <out>67589</out>
            <alphatype>none</alphatype>
            <pixelaspectratio>square</pixelaspectratio>
            <anamorphic>FALSE</anamorphic>
            <file id="file-2">
              <name>2023-04-01 13-58-58溪神带飞王源5KCC.mp4</name>
              <pathurl>file%3A//localhost/F%3A/MEDIA/APEX/2023-04-01%2013-58-58%E6%BA%AA%E7%A5%9E%E5%B8%A6%E9%A3%9E%E7%8E%8B%E6%BA%905KCC.mp4</pathurl>
              <media>
                <video>
                  <samplecharacteristics>
                    <rate>
                      <timebase>60</timebase>
                      <ntsc>FALSE</ntsc>
                    </rate>
                    <width>1920</width>
                    <height>1080</height>
                    <anamorphic>FALSE</anamorphic>
                    <pixelaspectratio>square</pixelaspectratio>
                    <fielddominance>none</fielddominance>
                  </samplecharacteristics>
                </video>
                <audio>
                  <samplecharacteristics>
                    <depth>16</depth>
                    <samplerate>48000</samplerate>
                  </samplecharacteristics>
                  <channelcount>2</channelcount>
                </audio>
                <audio>
                  <samplecharacteristics>
                    <depth>16</depth>
                    <samplerate>48000</samplerate>
                  </samplecharacteristics>
                  <channelcount>2</channelcount>
                </audio>
                <audio>
                  <samplecharacteristics>
                    <depth>16</depth>
                    <samplerate>48000</samplerate>
                  </samplecharacteristics>
                  <channelcount>2</channelcount>
                </audio>
              </media>
            </file>
            <link>
              <linkclipref>clipitem-456</linkclipref>
              <mediatype>video</mediatype>
              <trackindex>1</trackindex>
              <clipindex>1</clipindex>
            </link>
            <link>
              <linkclipref>clipitem-457</linkclipref>
              <mediatype>audio</mediatype>
              <trackindex>1</trackindex>
              <clipindex>1</clipindex>
              <groupindex>1</groupindex>
            </link>
            <link>
              <linkclipref>clipitem-458</linkclipref>
              <mediatype>audio</mediatype>
              <trackindex>2</trackindex>
              <clipindex>1</clipindex>
              <groupindex>1</groupindex>
            </link>
            <link>
              <linkclipref>clipitem-459</linkclipref>
              <mediatype>audio</mediatype>
              <trackindex>3</trackindex>
              <clipindex>1</clipindex>
              <groupindex>1</groupindex>
            </link>
            <link>
              <linkclipref>clipitem-460</linkclipref>
              <mediatype>audio</mediatype>
              <trackindex>4</trackindex>
              <clipindex>1</clipindex>
              <groupindex>1</groupindex>
            </link>
            <link>
              <linkclipref>clipitem-461</linkclipref>
              <mediatype>audio</mediatype>
              <trackindex>5</trackindex>
              <clipindex>1</clipindex>
              <groupindex>1</groupindex>
            </link>
            <link>
              <linkclipref>clipitem-462</linkclipref>
              <mediatype>audio</mediatype>
              <trackindex>6</trackindex>
              <clipindex>1</clipindex>
              <groupindex>1</groupindex>
            </link>
          </clipitem>
          <clipitem id="clipitem-463">
            <masterclipid>masterclip-2</masterclipid>
            <name>2023-04-01 13-58-58溪神带飞王源5KCC.mp4</name>
            <enabled>TRUE</enabled>
            <rate>
              <timebase>60</timebase>
              <ntsc>FALSE</ntsc>
            </rate>
            <start>9026</start>
            <end>9186</end>
            <in>69990</in>
            <out>70150</out>
            <alphatype>none</alphatype>
            <pixelaspectratio>square</pixelaspectratio>
            <anamorphic>FALSE</anamorphic>
            <file id="file-2">
              <name>2023-04-01 13-58-58溪神带飞王源5KCC.mp4</name>
              <pathurl>file%3A//localhost/F%3A/MEDIA/APEX/2023-04-01%2013-58-58%E6%BA%AA%E7%A5%9E%E5%B8%A6%E9%A3%9E%E7%8E%8B%E6%BA%905KCC.mp4</pathurl>
              <media>
                <video>
                  <samplecharacteristics>
                    <rate>
                      <timebase>60</timebase>
                      <ntsc>FALSE</ntsc>
                    </rate>
                    <width>1920</width>
                    <height>1080</height>
                    <anamorphic>FALSE</anamorphic>
                    <pixelaspectratio>square</pixelaspectratio>
                    <fielddominance>none</fielddominance>
                  </samplecharacteristics>
                </video>
                <audio>
                  <samplecharacteristics>
                    <depth>16</depth>
                    <samplerate>48000</samplerate>
                  </samplecharacteristics>
                  <channelcount>2</channelcount>
                </audio>
                <audio>
                  <samplecharacteristics>
                    <depth>16</depth>
                    <samplerate>48000</samplerate>
                  </samplecharacteristics>
                  <channelcount>2</channelcount>
                </audio>
                <audio>
                  <samplecharacteristics>
                    <depth>16</depth>
                    <samplerate>48000</samplerate>
                  </samplecharacteristics>
                  <channelcount>2</channelcount>
                </audio>
              </media>
            </file>
            <link>
              <linkclipref>clipitem-463</linkclipref>
              <mediatype>video</mediatype>
              <trackindex>1</trackindex>
              <clipindex>1</clipindex>
            </link>
            <link>
              <linkclipref>clipitem-464</linkclipref>
              <mediatype>audio</mediatype>
              <trackindex>1</trackindex>
              <clipindex>1</clipindex>
              <groupindex>1</groupindex>
            </link>
            <link>
              <linkclipref>clipitem-465</linkclipref>
              <mediatype>audio</mediatype>
              <trackindex>2</trackindex>
              <clipindex>1</clipindex>
              <groupindex>1</groupindex>
            </link>
            <link>
              <linkclipref>clipitem-466</linkclipref>
              <mediatype>audio</mediatype>
              <trackindex>3</trackindex>
              <clipindex>1</clipindex>
              <groupindex>1</groupindex>
            </link>
            <link>
              <linkclipref>clipitem-467</linkclipref>
              <mediatype>audio</mediatype>
              <trackindex>4</trackindex>
              <clipindex>1</clipindex>
              <groupindex>1</groupindex>
            </link>
            <link>
              <linkclipref>clipitem-468</linkclipref>
              <mediatype>audio</mediatype>
              <trackindex>5</trackindex>
              <clipindex>1</clipindex>
              <groupindex>1</groupindex>
            </link>
            <link>
              <linkclipref>clipitem-469</linkclipref>
              <mediatype>audio</mediatype>
              <trackindex>6</trackindex>
              <clipindex>1</clipindex>
              <groupindex>1</groupindex>
            </link>
          </clipitem>
          <clipitem id="clipitem-470">
            <masterclipid>masterclip-2</masterclipid>
            <name>2023-04-01 13-58-58溪神带飞王源5KCC.mp4</name>
            <enabled>TRUE</enabled>
            <rate>
              <timebase>60</timebase>
              <ntsc>FALSE</ntsc>
            </rate>
            <start>9186</start>
            <end>9346</end>
            <in>70337</in>
            <out>70497</out>
            <alphatype>none</alphatype>
            <pixelaspectratio>square</pixelaspectratio>
            <anamorphic>FALSE</anamorphic>
            <file id="file-2">
              <name>2023-04-01 13-58-58溪神带飞王源5KCC.mp4</name>
              <pathurl>file%3A//localhost/F%3A/MEDIA/APEX/2023-04-01%2013-58-58%E6%BA%AA%E7%A5%9E%E5%B8%A6%E9%A3%9E%E7%8E%8B%E6%BA%905KCC.mp4</pathurl>
              <media>
                <video>
                  <samplecharacteristics>
                    <rate>
                      <timebase>60</timebase>
                      <ntsc>FALSE</ntsc>
                    </rate>
                    <width>1920</width>
                    <height>1080</height>
                    <anamorphic>FALSE</anamorphic>
                    <pixelaspectratio>square</pixelaspectratio>
                    <fielddominance>none</fielddominance>
                  </samplecharacteristics>
                </video>
                <audio>
                  <samplecharacteristics>
                    <depth>16</depth>
                    <samplerate>48000</samplerate>
                  </samplecharacteristics>
                  <channelcount>2</channelcount>
                </audio>
                <audio>
                  <samplecharacteristics>
                    <depth>16</depth>
                    <samplerate>48000</samplerate>
                  </samplecharacteristics>
                  <channelcount>2</channelcount>
                </audio>
                <audio>
                  <samplecharacteristics>
                    <depth>16</depth>
                    <samplerate>48000</samplerate>
                  </samplecharacteristics>
                  <channelcount>2</channelcount>
                </audio>
              </media>
            </file>
            <link>
              <linkclipref>clipitem-470</linkclipref>
              <mediatype>video</mediatype>
              <trackindex>1</trackindex>
              <clipindex>1</clipindex>
            </link>
            <link>
              <linkclipref>clipitem-471</linkclipref>
              <mediatype>audio</mediatype>
              <trackindex>1</trackindex>
              <clipindex>1</clipindex>
              <groupindex>1</groupindex>
            </link>
            <link>
              <linkclipref>clipitem-472</linkclipref>
              <mediatype>audio</mediatype>
              <trackindex>2</trackindex>
              <clipindex>1</clipindex>
              <groupindex>1</groupindex>
            </link>
            <link>
              <linkclipref>clipitem-473</linkclipref>
              <mediatype>audio</mediatype>
              <trackindex>3</trackindex>
              <clipindex>1</clipindex>
              <groupindex>1</groupindex>
            </link>
            <link>
              <linkclipref>clipitem-474</linkclipref>
              <mediatype>audio</mediatype>
              <trackindex>4</trackindex>
              <clipindex>1</clipindex>
              <groupindex>1</groupindex>
            </link>
            <link>
              <linkclipref>clipitem-475</linkclipref>
              <mediatype>audio</mediatype>
              <trackindex>5</trackindex>
              <clipindex>1</clipindex>
              <groupindex>1</groupindex>
            </link>
            <link>
              <linkclipref>clipitem-476</linkclipref>
              <mediatype>audio</mediatype>
              <trackindex>6</trackindex>
              <clipindex>1</clipindex>
              <groupindex>1</groupindex>
            </link>
          </clipitem>
          <clipitem id="clipitem-477">
            <masterclipid>masterclip-2</masterclipid>
            <name>2023-04-01 13-58-58溪神带飞王源5KCC.mp4</name>
            <enabled>TRUE</enabled>
            <rate>
              <timebase>60</timebase>
              <ntsc>FALSE</ntsc>
            </rate>
            <start>9346</start>
            <end>9428</end>
            <in>72878</in>
            <out>72960</out>
            <alphatype>none</alphatype>
            <pixelaspectratio>square</pixelaspectratio>
            <anamorphic>FALSE</anamorphic>
            <file id="file-2">
              <name>2023-04-01 13-58-58溪神带飞王源5KCC.mp4</name>
              <pathurl>file%3A//localhost/F%3A/MEDIA/APEX/2023-04-01%2013-58-58%E6%BA%AA%E7%A5%9E%E5%B8%A6%E9%A3%9E%E7%8E%8B%E6%BA%905KCC.mp4</pathurl>
              <media>
                <video>
                  <samplecharacteristics>
                    <rate>
                      <timebase>60</timebase>
                      <ntsc>FALSE</ntsc>
                    </rate>
                    <width>1920</width>
                    <height>1080</height>
                    <anamorphic>FALSE</anamorphic>
                    <pixelaspectratio>square</pixelaspectratio>
                    <fielddominance>none</fielddominance>
                  </samplecharacteristics>
                </video>
                <audio>
                  <samplecharacteristics>
                    <depth>16</depth>
                    <samplerate>48000</samplerate>
                  </samplecharacteristics>
                  <channelcount>2</channelcount>
                </audio>
                <audio>
                  <samplecharacteristics>
                    <depth>16</depth>
                    <samplerate>48000</samplerate>
                  </samplecharacteristics>
                  <channelcount>2</channelcount>
                </audio>
                <audio>
                  <samplecharacteristics>
                    <depth>16</depth>
                    <samplerate>48000</samplerate>
                  </samplecharacteristics>
                  <channelcount>2</channelcount>
                </audio>
              </media>
            </file>
            <link>
              <linkclipref>clipitem-477</linkclipref>
              <mediatype>video</mediatype>
              <trackindex>1</trackindex>
              <clipindex>1</clipindex>
            </link>
            <link>
              <linkclipref>clipitem-478</linkclipref>
              <mediatype>audio</mediatype>
              <trackindex>1</trackindex>
              <clipindex>1</clipindex>
              <groupindex>1</groupindex>
            </link>
            <link>
              <linkclipref>clipitem-479</linkclipref>
              <mediatype>audio</mediatype>
              <trackindex>2</trackindex>
              <clipindex>1</clipindex>
              <groupindex>1</groupindex>
            </link>
            <link>
              <linkclipref>clipitem-480</linkclipref>
              <mediatype>audio</mediatype>
              <trackindex>3</trackindex>
              <clipindex>1</clipindex>
              <groupindex>1</groupindex>
            </link>
            <link>
              <linkclipref>clipitem-481</linkclipref>
              <mediatype>audio</mediatype>
              <trackindex>4</trackindex>
              <clipindex>1</clipindex>
              <groupindex>1</groupindex>
            </link>
            <link>
              <linkclipref>clipitem-482</linkclipref>
              <mediatype>audio</mediatype>
              <trackindex>5</trackindex>
              <clipindex>1</clipindex>
              <groupindex>1</groupindex>
            </link>
            <link>
              <linkclipref>clipitem-483</linkclipref>
              <mediatype>audio</mediatype>
              <trackindex>6</trackindex>
              <clipindex>1</clipindex>
              <groupindex>1</groupindex>
            </link>
          </clipitem>
          <clipitem id="clipitem-484">
            <masterclipid>masterclip-3</masterclipid>
            <name>2023-03-30 21-15-31艾许决赛圈2V6 8KCC.mp4</name>
            <enabled>TRUE</enabled>
            <rate>
              <timebase>60</timebase>
              <ntsc>FALSE</ntsc>
            </rate>
            <start>9428</start>
            <end>9920</end>
            <in>3281</in>
            <out>3773</out>
            <alphatype>none</alphatype>
            <pixelaspectratio>square</pixelaspectratio>
            <anamorphic>FALSE</anamorphic>
            <file id="file-3">
              <name>2023-03-30 21-15-31艾许决赛圈2V6 8KCC.mp4</name>
              <pathurl>file%3A//localhost/F%3A/MEDIA/APEX/2023-03-30%2021-15-31%E8%89%BE%E8%AE%B8%E5%86%B3%E8%B5%9B%E5%9C%882V6%208KCC.mp4</pathurl>
              <media>
                <video>
                  <samplecharacteristics>
                    <rate>
                      <timebase>60</timebase>
                      <ntsc>FALSE</ntsc>
                    </rate>
                    <width>1920</width>
                    <height>1080</height>
                    <anamorphic>FALSE</anamorphic>
                    <pixelaspectratio>square</pixelaspectratio>
                    <fielddominance>none</fielddominance>
                  </samplecharacteristics>
                </video>
                <audio>
                  <samplecharacteristics>
                    <depth>16</depth>
                    <samplerate>48000</samplerate>
                  </samplecharacteristics>
                  <channelcount>2</channelcount>
                </audio>
                <audio>
                  <samplecharacteristics>
                    <depth>16</depth>
                    <samplerate>48000</samplerate>
                  </samplecharacteristics>
                  <channelcount>2</channelcount>
                </audio>
                <audio>
                  <samplecharacteristics>
                    <depth>16</depth>
                    <samplerate>48000</samplerate>
                  </samplecharacteristics>
                  <channelcount>2</channelcount>
                </audio>
              </media>
            </file>
            <link>
              <linkclipref>clipitem-484</linkclipref>
              <mediatype>video</mediatype>
              <trackindex>1</trackindex>
              <clipindex>1</clipindex>
            </link>
            <link>
              <linkclipref>clipitem-485</linkclipref>
              <mediatype>audio</mediatype>
              <trackindex>1</trackindex>
              <clipindex>1</clipindex>
              <groupindex>1</groupindex>
            </link>
            <link>
              <linkclipref>clipitem-486</linkclipref>
              <mediatype>audio</mediatype>
              <trackindex>2</trackindex>
              <clipindex>1</clipindex>
              <groupindex>1</groupindex>
            </link>
            <link>
              <linkclipref>clipitem-487</linkclipref>
              <mediatype>audio</mediatype>
              <trackindex>3</trackindex>
              <clipindex>1</clipindex>
              <groupindex>1</groupindex>
            </link>
            <link>
              <linkclipref>clipitem-488</linkclipref>
              <mediatype>audio</mediatype>
              <trackindex>4</trackindex>
              <clipindex>1</clipindex>
              <groupindex>1</groupindex>
            </link>
            <link>
              <linkclipref>clipitem-489</linkclipref>
              <mediatype>audio</mediatype>
              <trackindex>5</trackindex>
              <clipindex>1</clipindex>
              <groupindex>1</groupindex>
            </link>
            <link>
              <linkclipref>clipitem-490</linkclipref>
              <mediatype>audio</mediatype>
              <trackindex>6</trackindex>
              <clipindex>1</clipindex>
              <groupindex>1</groupindex>
            </link>
          </clipitem>
          <clipitem id="clipitem-491">
            <masterclipid>masterclip-3</masterclipid>
            <name>2023-03-30 21-15-31艾许决赛圈2V6 8KCC.mp4</name>
            <enabled>TRUE</enabled>
            <rate>
              <timebase>60</timebase>
              <ntsc>FALSE</ntsc>
            </rate>
            <start>9920</start>
            <end>10196</end>
            <in>7193</in>
            <out>7469</out>
            <alphatype>none</alphatype>
            <pixelaspectratio>square</pixelaspectratio>
            <anamorphic>FALSE</anamorphic>
            <file id="file-3">
              <name>2023-03-30 21-15-31艾许决赛圈2V6 8KCC.mp4</name>
              <pathurl>file%3A//localhost/F%3A/MEDIA/APEX/2023-03-30%2021-15-31%E8%89%BE%E8%AE%B8%E5%86%B3%E8%B5%9B%E5%9C%882V6%208KCC.mp4</pathurl>
              <media>
                <video>
                  <samplecharacteristics>
                    <rate>
                      <timebase>60</timebase>
                      <ntsc>FALSE</ntsc>
                    </rate>
                    <width>1920</width>
                    <height>1080</height>
                    <anamorphic>FALSE</anamorphic>
                    <pixelaspectratio>square</pixelaspectratio>
                    <fielddominance>none</fielddominance>
                  </samplecharacteristics>
                </video>
                <audio>
                  <samplecharacteristics>
                    <depth>16</depth>
                    <samplerate>48000</samplerate>
                  </samplecharacteristics>
                  <channelcount>2</channelcount>
                </audio>
                <audio>
                  <samplecharacteristics>
                    <depth>16</depth>
                    <samplerate>48000</samplerate>
                  </samplecharacteristics>
                  <channelcount>2</channelcount>
                </audio>
                <audio>
                  <samplecharacteristics>
                    <depth>16</depth>
                    <samplerate>48000</samplerate>
                  </samplecharacteristics>
                  <channelcount>2</channelcount>
                </audio>
              </media>
            </file>
            <link>
              <linkclipref>clipitem-491</linkclipref>
              <mediatype>video</mediatype>
              <trackindex>1</trackindex>
              <clipindex>1</clipindex>
            </link>
            <link>
              <linkclipref>clipitem-492</linkclipref>
              <mediatype>audio</mediatype>
              <trackindex>1</trackindex>
              <clipindex>1</clipindex>
              <groupindex>1</groupindex>
            </link>
            <link>
              <linkclipref>clipitem-493</linkclipref>
              <mediatype>audio</mediatype>
              <trackindex>2</trackindex>
              <clipindex>1</clipindex>
              <groupindex>1</groupindex>
            </link>
            <link>
              <linkclipref>clipitem-494</linkclipref>
              <mediatype>audio</mediatype>
              <trackindex>3</trackindex>
              <clipindex>1</clipindex>
              <groupindex>1</groupindex>
            </link>
            <link>
              <linkclipref>clipitem-495</linkclipref>
              <mediatype>audio</mediatype>
              <trackindex>4</trackindex>
              <clipindex>1</clipindex>
              <groupindex>1</groupindex>
            </link>
            <link>
              <linkclipref>clipitem-496</linkclipref>
              <mediatype>audio</mediatype>
              <trackindex>5</trackindex>
              <clipindex>1</clipindex>
              <groupindex>1</groupindex>
            </link>
            <link>
              <linkclipref>clipitem-497</linkclipref>
              <mediatype>audio</mediatype>
              <trackindex>6</trackindex>
              <clipindex>1</clipindex>
              <groupindex>1</groupindex>
            </link>
          </clipitem>
          <clipitem id="clipitem-498">
            <masterclipid>masterclip-3</masterclipid>
            <name>2023-03-30 21-15-31艾许决赛圈2V6 8KCC.mp4</name>
            <enabled>TRUE</enabled>
            <rate>
              <timebase>60</timebase>
              <ntsc>FALSE</ntsc>
            </rate>
            <start>10196</start>
            <end>10286</end>
            <in>7646</in>
            <out>7736</out>
            <alphatype>none</alphatype>
            <pixelaspectratio>square</pixelaspectratio>
            <anamorphic>FALSE</anamorphic>
            <file id="file-3">
              <name>2023-03-30 21-15-31艾许决赛圈2V6 8KCC.mp4</name>
              <pathurl>file%3A//localhost/F%3A/MEDIA/APEX/2023-03-30%2021-15-31%E8%89%BE%E8%AE%B8%E5%86%B3%E8%B5%9B%E5%9C%882V6%208KCC.mp4</pathurl>
              <media>
                <video>
                  <samplecharacteristics>
                    <rate>
                      <timebase>60</timebase>
                      <ntsc>FALSE</ntsc>
                    </rate>
                    <width>1920</width>
                    <height>1080</height>
                    <anamorphic>FALSE</anamorphic>
                    <pixelaspectratio>square</pixelaspectratio>
                    <fielddominance>none</fielddominance>
                  </samplecharacteristics>
                </video>
                <audio>
                  <samplecharacteristics>
                    <depth>16</depth>
                    <samplerate>48000</samplerate>
                  </samplecharacteristics>
                  <channelcount>2</channelcount>
                </audio>
                <audio>
                  <samplecharacteristics>
                    <depth>16</depth>
                    <samplerate>48000</samplerate>
                  </samplecharacteristics>
                  <channelcount>2</channelcount>
                </audio>
                <audio>
                  <samplecharacteristics>
                    <depth>16</depth>
                    <samplerate>48000</samplerate>
                  </samplecharacteristics>
                  <channelcount>2</channelcount>
                </audio>
              </media>
            </file>
            <link>
              <linkclipref>clipitem-498</linkclipref>
              <mediatype>video</mediatype>
              <trackindex>1</trackindex>
              <clipindex>1</clipindex>
            </link>
            <link>
              <linkclipref>clipitem-499</linkclipref>
              <mediatype>audio</mediatype>
              <trackindex>1</trackindex>
              <clipindex>1</clipindex>
              <groupindex>1</groupindex>
            </link>
            <link>
              <linkclipref>clipitem-500</linkclipref>
              <mediatype>audio</mediatype>
              <trackindex>2</trackindex>
              <clipindex>1</clipindex>
              <groupindex>1</groupindex>
            </link>
            <link>
              <linkclipref>clipitem-501</linkclipref>
              <mediatype>audio</mediatype>
              <trackindex>3</trackindex>
              <clipindex>1</clipindex>
              <groupindex>1</groupindex>
            </link>
            <link>
              <linkclipref>clipitem-502</linkclipref>
              <mediatype>audio</mediatype>
              <trackindex>4</trackindex>
              <clipindex>1</clipindex>
              <groupindex>1</groupindex>
            </link>
            <link>
              <linkclipref>clipitem-503</linkclipref>
              <mediatype>audio</mediatype>
              <trackindex>5</trackindex>
              <clipindex>1</clipindex>
              <groupindex>1</groupindex>
            </link>
            <link>
              <linkclipref>clipitem-504</linkclipref>
              <mediatype>audio</mediatype>
              <trackindex>6</trackindex>
              <clipindex>1</clipindex>
              <groupindex>1</groupindex>
            </link>
          </clipitem>
          <clipitem id="clipitem-505">
            <masterclipid>masterclip-3</masterclipid>
            <name>2023-03-30 21-15-31艾许决赛圈2V6 8KCC.mp4</name>
            <enabled>TRUE</enabled>
            <rate>
              <timebase>60</timebase>
              <ntsc>FALSE</ntsc>
            </rate>
            <start>10286</start>
            <end>10401</end>
            <in>7813</in>
            <out>7928</out>
            <alphatype>none</alphatype>
            <pixelaspectratio>square</pixelaspectratio>
            <anamorphic>FALSE</anamorphic>
            <file id="file-3">
              <name>2023-03-30 21-15-31艾许决赛圈2V6 8KCC.mp4</name>
              <pathurl>file%3A//localhost/F%3A/MEDIA/APEX/2023-03-30%2021-15-31%E8%89%BE%E8%AE%B8%E5%86%B3%E8%B5%9B%E5%9C%882V6%208KCC.mp4</pathurl>
              <media>
                <video>
                  <samplecharacteristics>
                    <rate>
                      <timebase>60</timebase>
                      <ntsc>FALSE</ntsc>
                    </rate>
                    <width>1920</width>
                    <height>1080</height>
                    <anamorphic>FALSE</anamorphic>
                    <pixelaspectratio>square</pixelaspectratio>
                    <fielddominance>none</fielddominance>
                  </samplecharacteristics>
                </video>
                <audio>
                  <samplecharacteristics>
                    <depth>16</depth>
                    <samplerate>48000</samplerate>
                  </samplecharacteristics>
                  <channelcount>2</channelcount>
                </audio>
                <audio>
                  <samplecharacteristics>
                    <depth>16</depth>
                    <samplerate>48000</samplerate>
                  </samplecharacteristics>
                  <channelcount>2</channelcount>
                </audio>
                <audio>
                  <samplecharacteristics>
                    <depth>16</depth>
                    <samplerate>48000</samplerate>
                  </samplecharacteristics>
                  <channelcount>2</channelcount>
                </audio>
              </media>
            </file>
            <link>
              <linkclipref>clipitem-505</linkclipref>
              <mediatype>video</mediatype>
              <trackindex>1</trackindex>
              <clipindex>1</clipindex>
            </link>
            <link>
              <linkclipref>clipitem-506</linkclipref>
              <mediatype>audio</mediatype>
              <trackindex>1</trackindex>
              <clipindex>1</clipindex>
              <groupindex>1</groupindex>
            </link>
            <link>
              <linkclipref>clipitem-507</linkclipref>
              <mediatype>audio</mediatype>
              <trackindex>2</trackindex>
              <clipindex>1</clipindex>
              <groupindex>1</groupindex>
            </link>
            <link>
              <linkclipref>clipitem-508</linkclipref>
              <mediatype>audio</mediatype>
              <trackindex>3</trackindex>
              <clipindex>1</clipindex>
              <groupindex>1</groupindex>
            </link>
            <link>
              <linkclipref>clipitem-509</linkclipref>
              <mediatype>audio</mediatype>
              <trackindex>4</trackindex>
              <clipindex>1</clipindex>
              <groupindex>1</groupindex>
            </link>
            <link>
              <linkclipref>clipitem-510</linkclipref>
              <mediatype>audio</mediatype>
              <trackindex>5</trackindex>
              <clipindex>1</clipindex>
              <groupindex>1</groupindex>
            </link>
            <link>
              <linkclipref>clipitem-511</linkclipref>
              <mediatype>audio</mediatype>
              <trackindex>6</trackindex>
              <clipindex>1</clipindex>
              <groupindex>1</groupindex>
            </link>
          </clipitem>
          <clipitem id="clipitem-512">
            <masterclipid>masterclip-3</masterclipid>
            <name>2023-03-30 21-15-31艾许决赛圈2V6 8KCC.mp4</name>
            <enabled>TRUE</enabled>
            <rate>
              <timebase>60</timebase>
              <ntsc>FALSE</ntsc>
            </rate>
            <start>10401</start>
            <end>10519</end>
            <in>9404</in>
            <out>9522</out>
            <alphatype>none</alphatype>
            <pixelaspectratio>square</pixelaspectratio>
            <anamorphic>FALSE</anamorphic>
            <file id="file-3">
              <name>2023-03-30 21-15-31艾许决赛圈2V6 8KCC.mp4</name>
              <pathurl>file%3A//localhost/F%3A/MEDIA/APEX/2023-03-30%2021-15-31%E8%89%BE%E8%AE%B8%E5%86%B3%E8%B5%9B%E5%9C%882V6%208KCC.mp4</pathurl>
              <media>
                <video>
                  <samplecharacteristics>
                    <rate>
                      <timebase>60</timebase>
                      <ntsc>FALSE</ntsc>
                    </rate>
                    <width>1920</width>
                    <height>1080</height>
                    <anamorphic>FALSE</anamorphic>
                    <pixelaspectratio>square</pixelaspectratio>
                    <fielddominance>none</fielddominance>
                  </samplecharacteristics>
                </video>
                <audio>
                  <samplecharacteristics>
                    <depth>16</depth>
                    <samplerate>48000</samplerate>
                  </samplecharacteristics>
                  <channelcount>2</channelcount>
                </audio>
                <audio>
                  <samplecharacteristics>
                    <depth>16</depth>
                    <samplerate>48000</samplerate>
                  </samplecharacteristics>
                  <channelcount>2</channelcount>
                </audio>
                <audio>
                  <samplecharacteristics>
                    <depth>16</depth>
                    <samplerate>48000</samplerate>
                  </samplecharacteristics>
                  <channelcount>2</channelcount>
                </audio>
              </media>
            </file>
            <link>
              <linkclipref>clipitem-512</linkclipref>
              <mediatype>video</mediatype>
              <trackindex>1</trackindex>
              <clipindex>1</clipindex>
            </link>
            <link>
              <linkclipref>clipitem-513</linkclipref>
              <mediatype>audio</mediatype>
              <trackindex>1</trackindex>
              <clipindex>1</clipindex>
              <groupindex>1</groupindex>
            </link>
            <link>
              <linkclipref>clipitem-514</linkclipref>
              <mediatype>audio</mediatype>
              <trackindex>2</trackindex>
              <clipindex>1</clipindex>
              <groupindex>1</groupindex>
            </link>
            <link>
              <linkclipref>clipitem-515</linkclipref>
              <mediatype>audio</mediatype>
              <trackindex>3</trackindex>
              <clipindex>1</clipindex>
              <groupindex>1</groupindex>
            </link>
            <link>
              <linkclipref>clipitem-516</linkclipref>
              <mediatype>audio</mediatype>
              <trackindex>4</trackindex>
              <clipindex>1</clipindex>
              <groupindex>1</groupindex>
            </link>
            <link>
              <linkclipref>clipitem-517</linkclipref>
              <mediatype>audio</mediatype>
              <trackindex>5</trackindex>
              <clipindex>1</clipindex>
              <groupindex>1</groupindex>
            </link>
            <link>
              <linkclipref>clipitem-518</linkclipref>
              <mediatype>audio</mediatype>
              <trackindex>6</trackindex>
              <clipindex>1</clipindex>
              <groupindex>1</groupindex>
            </link>
          </clipitem>
          <clipitem id="clipitem-519">
            <masterclipid>masterclip-3</masterclipid>
            <name>2023-03-30 21-15-31艾许决赛圈2V6 8KCC.mp4</name>
            <enabled>TRUE</enabled>
            <rate>
              <timebase>60</timebase>
              <ntsc>FALSE</ntsc>
            </rate>
            <start>10519</start>
            <end>10600</end>
            <in>9637</in>
            <out>9718</out>
            <alphatype>none</alphatype>
            <pixelaspectratio>square</pixelaspectratio>
            <anamorphic>FALSE</anamorphic>
            <file id="file-3">
              <name>2023-03-30 21-15-31艾许决赛圈2V6 8KCC.mp4</name>
              <pathurl>file%3A//localhost/F%3A/MEDIA/APEX/2023-03-30%2021-15-31%E8%89%BE%E8%AE%B8%E5%86%B3%E8%B5%9B%E5%9C%882V6%208KCC.mp4</pathurl>
              <media>
                <video>
                  <samplecharacteristics>
                    <rate>
                      <timebase>60</timebase>
                      <ntsc>FALSE</ntsc>
                    </rate>
                    <width>1920</width>
                    <height>1080</height>
                    <anamorphic>FALSE</anamorphic>
                    <pixelaspectratio>square</pixelaspectratio>
                    <fielddominance>none</fielddominance>
                  </samplecharacteristics>
                </video>
                <audio>
                  <samplecharacteristics>
                    <depth>16</depth>
                    <samplerate>48000</samplerate>
                  </samplecharacteristics>
                  <channelcount>2</channelcount>
                </audio>
                <audio>
                  <samplecharacteristics>
                    <depth>16</depth>
                    <samplerate>48000</samplerate>
                  </samplecharacteristics>
                  <channelcount>2</channelcount>
                </audio>
                <audio>
                  <samplecharacteristics>
                    <depth>16</depth>
                    <samplerate>48000</samplerate>
                  </samplecharacteristics>
                  <channelcount>2</channelcount>
                </audio>
              </media>
            </file>
            <link>
              <linkclipref>clipitem-519</linkclipref>
              <mediatype>video</mediatype>
              <trackindex>1</trackindex>
              <clipindex>1</clipindex>
            </link>
            <link>
              <linkclipref>clipitem-520</linkclipref>
              <mediatype>audio</mediatype>
              <trackindex>1</trackindex>
              <clipindex>1</clipindex>
              <groupindex>1</groupindex>
            </link>
            <link>
              <linkclipref>clipitem-521</linkclipref>
              <mediatype>audio</mediatype>
              <trackindex>2</trackindex>
              <clipindex>1</clipindex>
              <groupindex>1</groupindex>
            </link>
            <link>
              <linkclipref>clipitem-522</linkclipref>
              <mediatype>audio</mediatype>
              <trackindex>3</trackindex>
              <clipindex>1</clipindex>
              <groupindex>1</groupindex>
            </link>
            <link>
              <linkclipref>clipitem-523</linkclipref>
              <mediatype>audio</mediatype>
              <trackindex>4</trackindex>
              <clipindex>1</clipindex>
              <groupindex>1</groupindex>
            </link>
            <link>
              <linkclipref>clipitem-524</linkclipref>
              <mediatype>audio</mediatype>
              <trackindex>5</trackindex>
              <clipindex>1</clipindex>
              <groupindex>1</groupindex>
            </link>
            <link>
              <linkclipref>clipitem-525</linkclipref>
              <mediatype>audio</mediatype>
              <trackindex>6</trackindex>
              <clipindex>1</clipindex>
              <groupindex>1</groupindex>
            </link>
          </clipitem>
          <clipitem id="clipitem-526">
            <masterclipid>masterclip-3</masterclipid>
            <name>2023-03-30 21-15-31艾许决赛圈2V6 8KCC.mp4</name>
            <enabled>TRUE</enabled>
            <rate>
              <timebase>60</timebase>
              <ntsc>FALSE</ntsc>
            </rate>
            <start>10600</start>
            <end>10751</end>
            <in>10314</in>
            <out>10465</out>
            <alphatype>none</alphatype>
            <pixelaspectratio>square</pixelaspectratio>
            <anamorphic>FALSE</anamorphic>
            <file id="file-3">
              <name>2023-03-30 21-15-31艾许决赛圈2V6 8KCC.mp4</name>
              <pathurl>file%3A//localhost/F%3A/MEDIA/APEX/2023-03-30%2021-15-31%E8%89%BE%E8%AE%B8%E5%86%B3%E8%B5%9B%E5%9C%882V6%208KCC.mp4</pathurl>
              <media>
                <video>
                  <samplecharacteristics>
                    <rate>
                      <timebase>60</timebase>
                      <ntsc>FALSE</ntsc>
                    </rate>
                    <width>1920</width>
                    <height>1080</height>
                    <anamorphic>FALSE</anamorphic>
                    <pixelaspectratio>square</pixelaspectratio>
                    <fielddominance>none</fielddominance>
                  </samplecharacteristics>
                </video>
                <audio>
                  <samplecharacteristics>
                    <depth>16</depth>
                    <samplerate>48000</samplerate>
                  </samplecharacteristics>
                  <channelcount>2</channelcount>
                </audio>
                <audio>
                  <samplecharacteristics>
                    <depth>16</depth>
                    <samplerate>48000</samplerate>
                  </samplecharacteristics>
                  <channelcount>2</channelcount>
                </audio>
                <audio>
                  <samplecharacteristics>
                    <depth>16</depth>
                    <samplerate>48000</samplerate>
                  </samplecharacteristics>
                  <channelcount>2</channelcount>
                </audio>
              </media>
            </file>
            <link>
              <linkclipref>clipitem-526</linkclipref>
              <mediatype>video</mediatype>
              <trackindex>1</trackindex>
              <clipindex>1</clipindex>
            </link>
            <link>
              <linkclipref>clipitem-527</linkclipref>
              <mediatype>audio</mediatype>
              <trackindex>1</trackindex>
              <clipindex>1</clipindex>
              <groupindex>1</groupindex>
            </link>
            <link>
              <linkclipref>clipitem-528</linkclipref>
              <mediatype>audio</mediatype>
              <trackindex>2</trackindex>
              <clipindex>1</clipindex>
              <groupindex>1</groupindex>
            </link>
            <link>
              <linkclipref>clipitem-529</linkclipref>
              <mediatype>audio</mediatype>
              <trackindex>3</trackindex>
              <clipindex>1</clipindex>
              <groupindex>1</groupindex>
            </link>
            <link>
              <linkclipref>clipitem-530</linkclipref>
              <mediatype>audio</mediatype>
              <trackindex>4</trackindex>
              <clipindex>1</clipindex>
              <groupindex>1</groupindex>
            </link>
            <link>
              <linkclipref>clipitem-531</linkclipref>
              <mediatype>audio</mediatype>
              <trackindex>5</trackindex>
              <clipindex>1</clipindex>
              <groupindex>1</groupindex>
            </link>
            <link>
              <linkclipref>clipitem-532</linkclipref>
              <mediatype>audio</mediatype>
              <trackindex>6</trackindex>
              <clipindex>1</clipindex>
              <groupindex>1</groupindex>
            </link>
          </clipitem>
          <clipitem id="clipitem-533">
            <masterclipid>masterclip-3</masterclipid>
            <name>2023-03-30 21-15-31艾许决赛圈2V6 8KCC.mp4</name>
            <enabled>TRUE</enabled>
            <rate>
              <timebase>60</timebase>
              <ntsc>FALSE</ntsc>
            </rate>
            <start>10751</start>
            <end>10883</end>
            <in>10779</in>
            <out>10911</out>
            <alphatype>none</alphatype>
            <pixelaspectratio>square</pixelaspectratio>
            <anamorphic>FALSE</anamorphic>
            <file id="file-3">
              <name>2023-03-30 21-15-31艾许决赛圈2V6 8KCC.mp4</name>
              <pathurl>file%3A//localhost/F%3A/MEDIA/APEX/2023-03-30%2021-15-31%E8%89%BE%E8%AE%B8%E5%86%B3%E8%B5%9B%E5%9C%882V6%208KCC.mp4</pathurl>
              <media>
                <video>
                  <samplecharacteristics>
                    <rate>
                      <timebase>60</timebase>
                      <ntsc>FALSE</ntsc>
                    </rate>
                    <width>1920</width>
                    <height>1080</height>
                    <anamorphic>FALSE</anamorphic>
                    <pixelaspectratio>square</pixelaspectratio>
                    <fielddominance>none</fielddominance>
                  </samplecharacteristics>
                </video>
                <audio>
                  <samplecharacteristics>
                    <depth>16</depth>
                    <samplerate>48000</samplerate>
                  </samplecharacteristics>
                  <channelcount>2</channelcount>
                </audio>
                <audio>
                  <samplecharacteristics>
                    <depth>16</depth>
                    <samplerate>48000</samplerate>
                  </samplecharacteristics>
                  <channelcount>2</channelcount>
                </audio>
                <audio>
                  <samplecharacteristics>
                    <depth>16</depth>
                    <samplerate>48000</samplerate>
                  </samplecharacteristics>
                  <channelcount>2</channelcount>
                </audio>
              </media>
            </file>
            <link>
              <linkclipref>clipitem-533</linkclipref>
              <mediatype>video</mediatype>
              <trackindex>1</trackindex>
              <clipindex>1</clipindex>
            </link>
            <link>
              <linkclipref>clipitem-534</linkclipref>
              <mediatype>audio</mediatype>
              <trackindex>1</trackindex>
              <clipindex>1</clipindex>
              <groupindex>1</groupindex>
            </link>
            <link>
              <linkclipref>clipitem-535</linkclipref>
              <mediatype>audio</mediatype>
              <trackindex>2</trackindex>
              <clipindex>1</clipindex>
              <groupindex>1</groupindex>
            </link>
            <link>
              <linkclipref>clipitem-536</linkclipref>
              <mediatype>audio</mediatype>
              <trackindex>3</trackindex>
              <clipindex>1</clipindex>
              <groupindex>1</groupindex>
            </link>
            <link>
              <linkclipref>clipitem-537</linkclipref>
              <mediatype>audio</mediatype>
              <trackindex>4</trackindex>
              <clipindex>1</clipindex>
              <groupindex>1</groupindex>
            </link>
            <link>
              <linkclipref>clipitem-538</linkclipref>
              <mediatype>audio</mediatype>
              <trackindex>5</trackindex>
              <clipindex>1</clipindex>
              <groupindex>1</groupindex>
            </link>
            <link>
              <linkclipref>clipitem-539</linkclipref>
              <mediatype>audio</mediatype>
              <trackindex>6</trackindex>
              <clipindex>1</clipindex>
              <groupindex>1</groupindex>
            </link>
          </clipitem>
          <clipitem id="clipitem-540">
            <masterclipid>masterclip-3</masterclipid>
            <name>2023-03-30 21-15-31艾许决赛圈2V6 8KCC.mp4</name>
            <enabled>TRUE</enabled>
            <rate>
              <timebase>60</timebase>
              <ntsc>FALSE</ntsc>
            </rate>
            <start>10883</start>
            <end>10966</end>
            <in>10974</in>
            <out>11057</out>
            <alphatype>none</alphatype>
            <pixelaspectratio>square</pixelaspectratio>
            <anamorphic>FALSE</anamorphic>
            <file id="file-3">
              <name>2023-03-30 21-15-31艾许决赛圈2V6 8KCC.mp4</name>
              <pathurl>file%3A//localhost/F%3A/MEDIA/APEX/2023-03-30%2021-15-31%E8%89%BE%E8%AE%B8%E5%86%B3%E8%B5%9B%E5%9C%882V6%208KCC.mp4</pathurl>
              <media>
                <video>
                  <samplecharacteristics>
                    <rate>
                      <timebase>60</timebase>
                      <ntsc>FALSE</ntsc>
                    </rate>
                    <width>1920</width>
                    <height>1080</height>
                    <anamorphic>FALSE</anamorphic>
                    <pixelaspectratio>square</pixelaspectratio>
                    <fielddominance>none</fielddominance>
                  </samplecharacteristics>
                </video>
                <audio>
                  <samplecharacteristics>
                    <depth>16</depth>
                    <samplerate>48000</samplerate>
                  </samplecharacteristics>
                  <channelcount>2</channelcount>
                </audio>
                <audio>
                  <samplecharacteristics>
                    <depth>16</depth>
                    <samplerate>48000</samplerate>
                  </samplecharacteristics>
                  <channelcount>2</channelcount>
                </audio>
                <audio>
                  <samplecharacteristics>
                    <depth>16</depth>
                    <samplerate>48000</samplerate>
                  </samplecharacteristics>
                  <channelcount>2</channelcount>
                </audio>
              </media>
            </file>
            <link>
              <linkclipref>clipitem-540</linkclipref>
              <mediatype>video</mediatype>
              <trackindex>1</trackindex>
              <clipindex>1</clipindex>
            </link>
            <link>
              <linkclipref>clipitem-541</linkclipref>
              <mediatype>audio</mediatype>
              <trackindex>1</trackindex>
              <clipindex>1</clipindex>
              <groupindex>1</groupindex>
            </link>
            <link>
              <linkclipref>clipitem-542</linkclipref>
              <mediatype>audio</mediatype>
              <trackindex>2</trackindex>
              <clipindex>1</clipindex>
              <groupindex>1</groupindex>
            </link>
            <link>
              <linkclipref>clipitem-543</linkclipref>
              <mediatype>audio</mediatype>
              <trackindex>3</trackindex>
              <clipindex>1</clipindex>
              <groupindex>1</groupindex>
            </link>
            <link>
              <linkclipref>clipitem-544</linkclipref>
              <mediatype>audio</mediatype>
              <trackindex>4</trackindex>
              <clipindex>1</clipindex>
              <groupindex>1</groupindex>
            </link>
            <link>
              <linkclipref>clipitem-545</linkclipref>
              <mediatype>audio</mediatype>
              <trackindex>5</trackindex>
              <clipindex>1</clipindex>
              <groupindex>1</groupindex>
            </link>
            <link>
              <linkclipref>clipitem-546</linkclipref>
              <mediatype>audio</mediatype>
              <trackindex>6</trackindex>
              <clipindex>1</clipindex>
              <groupindex>1</groupindex>
            </link>
          </clipitem>
          <clipitem id="clipitem-547">
            <masterclipid>masterclip-3</masterclipid>
            <name>2023-03-30 21-15-31艾许决赛圈2V6 8KCC.mp4</name>
            <enabled>TRUE</enabled>
            <rate>
              <timebase>60</timebase>
              <ntsc>FALSE</ntsc>
            </rate>
            <start>10966</start>
            <end>11074</end>
            <in>11992</in>
            <out>12100</out>
            <alphatype>none</alphatype>
            <pixelaspectratio>square</pixelaspectratio>
            <anamorphic>FALSE</anamorphic>
            <file id="file-3">
              <name>2023-03-30 21-15-31艾许决赛圈2V6 8KCC.mp4</name>
              <pathurl>file%3A//localhost/F%3A/MEDIA/APEX/2023-03-30%2021-15-31%E8%89%BE%E8%AE%B8%E5%86%B3%E8%B5%9B%E5%9C%882V6%208KCC.mp4</pathurl>
              <media>
                <video>
                  <samplecharacteristics>
                    <rate>
                      <timebase>60</timebase>
                      <ntsc>FALSE</ntsc>
                    </rate>
                    <width>1920</width>
                    <height>1080</height>
                    <anamorphic>FALSE</anamorphic>
                    <pixelaspectratio>square</pixelaspectratio>
                    <fielddominance>none</fielddominance>
                  </samplecharacteristics>
                </video>
                <audio>
                  <samplecharacteristics>
                    <depth>16</depth>
                    <samplerate>48000</samplerate>
                  </samplecharacteristics>
                  <channelcount>2</channelcount>
                </audio>
                <audio>
                  <samplecharacteristics>
                    <depth>16</depth>
                    <samplerate>48000</samplerate>
                  </samplecharacteristics>
                  <channelcount>2</channelcount>
                </audio>
                <audio>
                  <samplecharacteristics>
                    <depth>16</depth>
                    <samplerate>48000</samplerate>
                  </samplecharacteristics>
                  <channelcount>2</channelcount>
                </audio>
              </media>
            </file>
            <link>
              <linkclipref>clipitem-547</linkclipref>
              <mediatype>video</mediatype>
              <trackindex>1</trackindex>
              <clipindex>1</clipindex>
            </link>
            <link>
              <linkclipref>clipitem-548</linkclipref>
              <mediatype>audio</mediatype>
              <trackindex>1</trackindex>
              <clipindex>1</clipindex>
              <groupindex>1</groupindex>
            </link>
            <link>
              <linkclipref>clipitem-549</linkclipref>
              <mediatype>audio</mediatype>
              <trackindex>2</trackindex>
              <clipindex>1</clipindex>
              <groupindex>1</groupindex>
            </link>
            <link>
              <linkclipref>clipitem-550</linkclipref>
              <mediatype>audio</mediatype>
              <trackindex>3</trackindex>
              <clipindex>1</clipindex>
              <groupindex>1</groupindex>
            </link>
            <link>
              <linkclipref>clipitem-551</linkclipref>
              <mediatype>audio</mediatype>
              <trackindex>4</trackindex>
              <clipindex>1</clipindex>
              <groupindex>1</groupindex>
            </link>
            <link>
              <linkclipref>clipitem-552</linkclipref>
              <mediatype>audio</mediatype>
              <trackindex>5</trackindex>
              <clipindex>1</clipindex>
              <groupindex>1</groupindex>
            </link>
            <link>
              <linkclipref>clipitem-553</linkclipref>
              <mediatype>audio</mediatype>
              <trackindex>6</trackindex>
              <clipindex>1</clipindex>
              <groupindex>1</groupindex>
            </link>
          </clipitem>
          <clipitem id="clipitem-554">
            <masterclipid>masterclip-3</masterclipid>
            <name>2023-03-30 21-15-31艾许决赛圈2V6 8KCC.mp4</name>
            <enabled>TRUE</enabled>
            <rate>
              <timebase>60</timebase>
              <ntsc>FALSE</ntsc>
            </rate>
            <start>11074</start>
            <end>11182</end>
            <in>12377</in>
            <out>12485</out>
            <alphatype>none</alphatype>
            <pixelaspectratio>square</pixelaspectratio>
            <anamorphic>FALSE</anamorphic>
            <file id="file-3">
              <name>2023-03-30 21-15-31艾许决赛圈2V6 8KCC.mp4</name>
              <pathurl>file%3A//localhost/F%3A/MEDIA/APEX/2023-03-30%2021-15-31%E8%89%BE%E8%AE%B8%E5%86%B3%E8%B5%9B%E5%9C%882V6%208KCC.mp4</pathurl>
              <media>
                <video>
                  <samplecharacteristics>
                    <rate>
                      <timebase>60</timebase>
                      <ntsc>FALSE</ntsc>
                    </rate>
                    <width>1920</width>
                    <height>1080</height>
                    <anamorphic>FALSE</anamorphic>
                    <pixelaspectratio>square</pixelaspectratio>
                    <fielddominance>none</fielddominance>
                  </samplecharacteristics>
                </video>
                <audio>
                  <samplecharacteristics>
                    <depth>16</depth>
                    <samplerate>48000</samplerate>
                  </samplecharacteristics>
                  <channelcount>2</channelcount>
                </audio>
                <audio>
                  <samplecharacteristics>
                    <depth>16</depth>
                    <samplerate>48000</samplerate>
                  </samplecharacteristics>
                  <channelcount>2</channelcount>
                </audio>
                <audio>
                  <samplecharacteristics>
                    <depth>16</depth>
                    <samplerate>48000</samplerate>
                  </samplecharacteristics>
                  <channelcount>2</channelcount>
                </audio>
              </media>
            </file>
            <link>
              <linkclipref>clipitem-554</linkclipref>
              <mediatype>video</mediatype>
              <trackindex>1</trackindex>
              <clipindex>1</clipindex>
            </link>
            <link>
              <linkclipref>clipitem-555</linkclipref>
              <mediatype>audio</mediatype>
              <trackindex>1</trackindex>
              <clipindex>1</clipindex>
              <groupindex>1</groupindex>
            </link>
            <link>
              <linkclipref>clipitem-556</linkclipref>
              <mediatype>audio</mediatype>
              <trackindex>2</trackindex>
              <clipindex>1</clipindex>
              <groupindex>1</groupindex>
            </link>
            <link>
              <linkclipref>clipitem-557</linkclipref>
              <mediatype>audio</mediatype>
              <trackindex>3</trackindex>
              <clipindex>1</clipindex>
              <groupindex>1</groupindex>
            </link>
            <link>
              <linkclipref>clipitem-558</linkclipref>
              <mediatype>audio</mediatype>
              <trackindex>4</trackindex>
              <clipindex>1</clipindex>
              <groupindex>1</groupindex>
            </link>
            <link>
              <linkclipref>clipitem-559</linkclipref>
              <mediatype>audio</mediatype>
              <trackindex>5</trackindex>
              <clipindex>1</clipindex>
              <groupindex>1</groupindex>
            </link>
            <link>
              <linkclipref>clipitem-560</linkclipref>
              <mediatype>audio</mediatype>
              <trackindex>6</trackindex>
              <clipindex>1</clipindex>
              <groupindex>1</groupindex>
            </link>
          </clipitem>
          <clipitem id="clipitem-561">
            <masterclipid>masterclip-3</masterclipid>
            <name>2023-03-30 21-15-31艾许决赛圈2V6 8KCC.mp4</name>
            <enabled>TRUE</enabled>
            <rate>
              <timebase>60</timebase>
              <ntsc>FALSE</ntsc>
            </rate>
            <start>11182</start>
            <end>11342</end>
            <in>13849</in>
            <out>14009</out>
            <alphatype>none</alphatype>
            <pixelaspectratio>square</pixelaspectratio>
            <anamorphic>FALSE</anamorphic>
            <file id="file-3">
              <name>2023-03-30 21-15-31艾许决赛圈2V6 8KCC.mp4</name>
              <pathurl>file%3A//localhost/F%3A/MEDIA/APEX/2023-03-30%2021-15-31%E8%89%BE%E8%AE%B8%E5%86%B3%E8%B5%9B%E5%9C%882V6%208KCC.mp4</pathurl>
              <media>
                <video>
                  <samplecharacteristics>
                    <rate>
                      <timebase>60</timebase>
                      <ntsc>FALSE</ntsc>
                    </rate>
                    <width>1920</width>
                    <height>1080</height>
                    <anamorphic>FALSE</anamorphic>
                    <pixelaspectratio>square</pixelaspectratio>
                    <fielddominance>none</fielddominance>
                  </samplecharacteristics>
                </video>
                <audio>
                  <samplecharacteristics>
                    <depth>16</depth>
                    <samplerate>48000</samplerate>
                  </samplecharacteristics>
                  <channelcount>2</channelcount>
                </audio>
                <audio>
                  <samplecharacteristics>
                    <depth>16</depth>
                    <samplerate>48000</samplerate>
                  </samplecharacteristics>
                  <channelcount>2</channelcount>
                </audio>
                <audio>
                  <samplecharacteristics>
                    <depth>16</depth>
                    <samplerate>48000</samplerate>
                  </samplecharacteristics>
                  <channelcount>2</channelcount>
                </audio>
              </media>
            </file>
            <link>
              <linkclipref>clipitem-561</linkclipref>
              <mediatype>video</mediatype>
              <trackindex>1</trackindex>
              <clipindex>1</clipindex>
            </link>
            <link>
              <linkclipref>clipitem-562</linkclipref>
              <mediatype>audio</mediatype>
              <trackindex>1</trackindex>
              <clipindex>1</clipindex>
              <groupindex>1</groupindex>
            </link>
            <link>
              <linkclipref>clipitem-563</linkclipref>
              <mediatype>audio</mediatype>
              <trackindex>2</trackindex>
              <clipindex>1</clipindex>
              <groupindex>1</groupindex>
            </link>
            <link>
              <linkclipref>clipitem-564</linkclipref>
              <mediatype>audio</mediatype>
              <trackindex>3</trackindex>
              <clipindex>1</clipindex>
              <groupindex>1</groupindex>
            </link>
            <link>
              <linkclipref>clipitem-565</linkclipref>
              <mediatype>audio</mediatype>
              <trackindex>4</trackindex>
              <clipindex>1</clipindex>
              <groupindex>1</groupindex>
            </link>
            <link>
              <linkclipref>clipitem-566</linkclipref>
              <mediatype>audio</mediatype>
              <trackindex>5</trackindex>
              <clipindex>1</clipindex>
              <groupindex>1</groupindex>
            </link>
            <link>
              <linkclipref>clipitem-567</linkclipref>
              <mediatype>audio</mediatype>
              <trackindex>6</trackindex>
              <clipindex>1</clipindex>
              <groupindex>1</groupindex>
            </link>
          </clipitem>
          <clipitem id="clipitem-568">
            <masterclipid>masterclip-3</masterclipid>
            <name>2023-03-30 21-15-31艾许决赛圈2V6 8KCC.mp4</name>
            <enabled>TRUE</enabled>
            <rate>
              <timebase>60</timebase>
              <ntsc>FALSE</ntsc>
            </rate>
            <start>11342</start>
            <end>11465</end>
            <in>14114</in>
            <out>14237</out>
            <alphatype>none</alphatype>
            <pixelaspectratio>square</pixelaspectratio>
            <anamorphic>FALSE</anamorphic>
            <file id="file-3">
              <name>2023-03-30 21-15-31艾许决赛圈2V6 8KCC.mp4</name>
              <pathurl>file%3A//localhost/F%3A/MEDIA/APEX/2023-03-30%2021-15-31%E8%89%BE%E8%AE%B8%E5%86%B3%E8%B5%9B%E5%9C%882V6%208KCC.mp4</pathurl>
              <media>
                <video>
                  <samplecharacteristics>
                    <rate>
                      <timebase>60</timebase>
                      <ntsc>FALSE</ntsc>
                    </rate>
                    <width>1920</width>
                    <height>1080</height>
                    <anamorphic>FALSE</anamorphic>
                    <pixelaspectratio>square</pixelaspectratio>
                    <fielddominance>none</fielddominance>
                  </samplecharacteristics>
                </video>
                <audio>
                  <samplecharacteristics>
                    <depth>16</depth>
                    <samplerate>48000</samplerate>
                  </samplecharacteristics>
                  <channelcount>2</channelcount>
                </audio>
                <audio>
                  <samplecharacteristics>
                    <depth>16</depth>
                    <samplerate>48000</samplerate>
                  </samplecharacteristics>
                  <channelcount>2</channelcount>
                </audio>
                <audio>
                  <samplecharacteristics>
                    <depth>16</depth>
                    <samplerate>48000</samplerate>
                  </samplecharacteristics>
                  <channelcount>2</channelcount>
                </audio>
              </media>
            </file>
            <link>
              <linkclipref>clipitem-568</linkclipref>
              <mediatype>video</mediatype>
              <trackindex>1</trackindex>
              <clipindex>1</clipindex>
            </link>
            <link>
              <linkclipref>clipitem-569</linkclipref>
              <mediatype>audio</mediatype>
              <trackindex>1</trackindex>
              <clipindex>1</clipindex>
              <groupindex>1</groupindex>
            </link>
            <link>
              <linkclipref>clipitem-570</linkclipref>
              <mediatype>audio</mediatype>
              <trackindex>2</trackindex>
              <clipindex>1</clipindex>
              <groupindex>1</groupindex>
            </link>
            <link>
              <linkclipref>clipitem-571</linkclipref>
              <mediatype>audio</mediatype>
              <trackindex>3</trackindex>
              <clipindex>1</clipindex>
              <groupindex>1</groupindex>
            </link>
            <link>
              <linkclipref>clipitem-572</linkclipref>
              <mediatype>audio</mediatype>
              <trackindex>4</trackindex>
              <clipindex>1</clipindex>
              <groupindex>1</groupindex>
            </link>
            <link>
              <linkclipref>clipitem-573</linkclipref>
              <mediatype>audio</mediatype>
              <trackindex>5</trackindex>
              <clipindex>1</clipindex>
              <groupindex>1</groupindex>
            </link>
            <link>
              <linkclipref>clipitem-574</linkclipref>
              <mediatype>audio</mediatype>
              <trackindex>6</trackindex>
              <clipindex>1</clipindex>
              <groupindex>1</groupindex>
            </link>
          </clipitem>
          <clipitem id="clipitem-575">
            <masterclipid>masterclip-3</masterclipid>
            <name>2023-03-30 21-15-31艾许决赛圈2V6 8KCC.mp4</name>
            <enabled>TRUE</enabled>
            <rate>
              <timebase>60</timebase>
              <ntsc>FALSE</ntsc>
            </rate>
            <start>11465</start>
            <end>11536</end>
            <in>14267</in>
            <out>14338</out>
            <alphatype>none</alphatype>
            <pixelaspectratio>square</pixelaspectratio>
            <anamorphic>FALSE</anamorphic>
            <file id="file-3">
              <name>2023-03-30 21-15-31艾许决赛圈2V6 8KCC.mp4</name>
              <pathurl>file%3A//localhost/F%3A/MEDIA/APEX/2023-03-30%2021-15-31%E8%89%BE%E8%AE%B8%E5%86%B3%E8%B5%9B%E5%9C%882V6%208KCC.mp4</pathurl>
              <media>
                <video>
                  <samplecharacteristics>
                    <rate>
                      <timebase>60</timebase>
                      <ntsc>FALSE</ntsc>
                    </rate>
                    <width>1920</width>
                    <height>1080</height>
                    <anamorphic>FALSE</anamorphic>
                    <pixelaspectratio>square</pixelaspectratio>
                    <fielddominance>none</fielddominance>
                  </samplecharacteristics>
                </video>
                <audio>
                  <samplecharacteristics>
                    <depth>16</depth>
                    <samplerate>48000</samplerate>
                  </samplecharacteristics>
                  <channelcount>2</channelcount>
                </audio>
                <audio>
                  <samplecharacteristics>
                    <depth>16</depth>
                    <samplerate>48000</samplerate>
                  </samplecharacteristics>
                  <channelcount>2</channelcount>
                </audio>
                <audio>
                  <samplecharacteristics>
                    <depth>16</depth>
                    <samplerate>48000</samplerate>
                  </samplecharacteristics>
                  <channelcount>2</channelcount>
                </audio>
              </media>
            </file>
            <link>
              <linkclipref>clipitem-575</linkclipref>
              <mediatype>video</mediatype>
              <trackindex>1</trackindex>
              <clipindex>1</clipindex>
            </link>
            <link>
              <linkclipref>clipitem-576</linkclipref>
              <mediatype>audio</mediatype>
              <trackindex>1</trackindex>
              <clipindex>1</clipindex>
              <groupindex>1</groupindex>
            </link>
            <link>
              <linkclipref>clipitem-577</linkclipref>
              <mediatype>audio</mediatype>
              <trackindex>2</trackindex>
              <clipindex>1</clipindex>
              <groupindex>1</groupindex>
            </link>
            <link>
              <linkclipref>clipitem-578</linkclipref>
              <mediatype>audio</mediatype>
              <trackindex>3</trackindex>
              <clipindex>1</clipindex>
              <groupindex>1</groupindex>
            </link>
            <link>
              <linkclipref>clipitem-579</linkclipref>
              <mediatype>audio</mediatype>
              <trackindex>4</trackindex>
              <clipindex>1</clipindex>
              <groupindex>1</groupindex>
            </link>
            <link>
              <linkclipref>clipitem-580</linkclipref>
              <mediatype>audio</mediatype>
              <trackindex>5</trackindex>
              <clipindex>1</clipindex>
              <groupindex>1</groupindex>
            </link>
            <link>
              <linkclipref>clipitem-581</linkclipref>
              <mediatype>audio</mediatype>
              <trackindex>6</trackindex>
              <clipindex>1</clipindex>
              <groupindex>1</groupindex>
            </link>
          </clipitem>
          <clipitem id="clipitem-582">
            <masterclipid>masterclip-3</masterclipid>
            <name>2023-03-30 21-15-31艾许决赛圈2V6 8KCC.mp4</name>
            <enabled>TRUE</enabled>
            <rate>
              <timebase>60</timebase>
              <ntsc>FALSE</ntsc>
            </rate>
            <start>11536</start>
            <end>11721</end>
            <in>15371</in>
            <out>15556</out>
            <alphatype>none</alphatype>
            <pixelaspectratio>square</pixelaspectratio>
            <anamorphic>FALSE</anamorphic>
            <file id="file-3">
              <name>2023-03-30 21-15-31艾许决赛圈2V6 8KCC.mp4</name>
              <pathurl>file%3A//localhost/F%3A/MEDIA/APEX/2023-03-30%2021-15-31%E8%89%BE%E8%AE%B8%E5%86%B3%E8%B5%9B%E5%9C%882V6%208KCC.mp4</pathurl>
              <media>
                <video>
                  <samplecharacteristics>
                    <rate>
                      <timebase>60</timebase>
                      <ntsc>FALSE</ntsc>
                    </rate>
                    <width>1920</width>
                    <height>1080</height>
                    <anamorphic>FALSE</anamorphic>
                    <pixelaspectratio>square</pixelaspectratio>
                    <fielddominance>none</fielddominance>
                  </samplecharacteristics>
                </video>
                <audio>
                  <samplecharacteristics>
                    <depth>16</depth>
                    <samplerate>48000</samplerate>
                  </samplecharacteristics>
                  <channelcount>2</channelcount>
                </audio>
                <audio>
                  <samplecharacteristics>
                    <depth>16</depth>
                    <samplerate>48000</samplerate>
                  </samplecharacteristics>
                  <channelcount>2</channelcount>
                </audio>
                <audio>
                  <samplecharacteristics>
                    <depth>16</depth>
                    <samplerate>48000</samplerate>
                  </samplecharacteristics>
                  <channelcount>2</channelcount>
                </audio>
              </media>
            </file>
            <link>
              <linkclipref>clipitem-582</linkclipref>
              <mediatype>video</mediatype>
              <trackindex>1</trackindex>
              <clipindex>1</clipindex>
            </link>
            <link>
              <linkclipref>clipitem-583</linkclipref>
              <mediatype>audio</mediatype>
              <trackindex>1</trackindex>
              <clipindex>1</clipindex>
              <groupindex>1</groupindex>
            </link>
            <link>
              <linkclipref>clipitem-584</linkclipref>
              <mediatype>audio</mediatype>
              <trackindex>2</trackindex>
              <clipindex>1</clipindex>
              <groupindex>1</groupindex>
            </link>
            <link>
              <linkclipref>clipitem-585</linkclipref>
              <mediatype>audio</mediatype>
              <trackindex>3</trackindex>
              <clipindex>1</clipindex>
              <groupindex>1</groupindex>
            </link>
            <link>
              <linkclipref>clipitem-586</linkclipref>
              <mediatype>audio</mediatype>
              <trackindex>4</trackindex>
              <clipindex>1</clipindex>
              <groupindex>1</groupindex>
            </link>
            <link>
              <linkclipref>clipitem-587</linkclipref>
              <mediatype>audio</mediatype>
              <trackindex>5</trackindex>
              <clipindex>1</clipindex>
              <groupindex>1</groupindex>
            </link>
            <link>
              <linkclipref>clipitem-588</linkclipref>
              <mediatype>audio</mediatype>
              <trackindex>6</trackindex>
              <clipindex>1</clipindex>
              <groupindex>1</groupindex>
            </link>
          </clipitem>
          <clipitem id="clipitem-589">
            <masterclipid>masterclip-3</masterclipid>
            <name>2023-03-30 21-15-31艾许决赛圈2V6 8KCC.mp4</name>
            <enabled>TRUE</enabled>
            <rate>
              <timebase>60</timebase>
              <ntsc>FALSE</ntsc>
            </rate>
            <start>11721</start>
            <end>11912</end>
            <in>16453</in>
            <out>16644</out>
            <alphatype>none</alphatype>
            <pixelaspectratio>square</pixelaspectratio>
            <anamorphic>FALSE</anamorphic>
            <file id="file-3">
              <name>2023-03-30 21-15-31艾许决赛圈2V6 8KCC.mp4</name>
              <pathurl>file%3A//localhost/F%3A/MEDIA/APEX/2023-03-30%2021-15-31%E8%89%BE%E8%AE%B8%E5%86%B3%E8%B5%9B%E5%9C%882V6%208KCC.mp4</pathurl>
              <media>
                <video>
                  <samplecharacteristics>
                    <rate>
                      <timebase>60</timebase>
                      <ntsc>FALSE</ntsc>
                    </rate>
                    <width>1920</width>
                    <height>1080</height>
                    <anamorphic>FALSE</anamorphic>
                    <pixelaspectratio>square</pixelaspectratio>
                    <fielddominance>none</fielddominance>
                  </samplecharacteristics>
                </video>
                <audio>
                  <samplecharacteristics>
                    <depth>16</depth>
                    <samplerate>48000</samplerate>
                  </samplecharacteristics>
                  <channelcount>2</channelcount>
                </audio>
                <audio>
                  <samplecharacteristics>
                    <depth>16</depth>
                    <samplerate>48000</samplerate>
                  </samplecharacteristics>
                  <channelcount>2</channelcount>
                </audio>
                <audio>
                  <samplecharacteristics>
                    <depth>16</depth>
                    <samplerate>48000</samplerate>
                  </samplecharacteristics>
                  <channelcount>2</channelcount>
                </audio>
              </media>
            </file>
            <link>
              <linkclipref>clipitem-589</linkclipref>
              <mediatype>video</mediatype>
              <trackindex>1</trackindex>
              <clipindex>1</clipindex>
            </link>
            <link>
              <linkclipref>clipitem-590</linkclipref>
              <mediatype>audio</mediatype>
              <trackindex>1</trackindex>
              <clipindex>1</clipindex>
              <groupindex>1</groupindex>
            </link>
            <link>
              <linkclipref>clipitem-591</linkclipref>
              <mediatype>audio</mediatype>
              <trackindex>2</trackindex>
              <clipindex>1</clipindex>
              <groupindex>1</groupindex>
            </link>
            <link>
              <linkclipref>clipitem-592</linkclipref>
              <mediatype>audio</mediatype>
              <trackindex>3</trackindex>
              <clipindex>1</clipindex>
              <groupindex>1</groupindex>
            </link>
            <link>
              <linkclipref>clipitem-593</linkclipref>
              <mediatype>audio</mediatype>
              <trackindex>4</trackindex>
              <clipindex>1</clipindex>
              <groupindex>1</groupindex>
            </link>
            <link>
              <linkclipref>clipitem-594</linkclipref>
              <mediatype>audio</mediatype>
              <trackindex>5</trackindex>
              <clipindex>1</clipindex>
              <groupindex>1</groupindex>
            </link>
            <link>
              <linkclipref>clipitem-595</linkclipref>
              <mediatype>audio</mediatype>
              <trackindex>6</trackindex>
              <clipindex>1</clipindex>
              <groupindex>1</groupindex>
            </link>
          </clipitem>
          <clipitem id="clipitem-596">
            <masterclipid>masterclip-3</masterclipid>
            <name>2023-03-30 21-15-31艾许决赛圈2V6 8KCC.mp4</name>
            <enabled>TRUE</enabled>
            <rate>
              <timebase>60</timebase>
              <ntsc>FALSE</ntsc>
            </rate>
            <start>11912</start>
            <end>12140</end>
            <in>16757</in>
            <out>16985</out>
            <alphatype>none</alphatype>
            <pixelaspectratio>square</pixelaspectratio>
            <anamorphic>FALSE</anamorphic>
            <file id="file-3">
              <name>2023-03-30 21-15-31艾许决赛圈2V6 8KCC.mp4</name>
              <pathurl>file%3A//localhost/F%3A/MEDIA/APEX/2023-03-30%2021-15-31%E8%89%BE%E8%AE%B8%E5%86%B3%E8%B5%9B%E5%9C%882V6%208KCC.mp4</pathurl>
              <media>
                <video>
                  <samplecharacteristics>
                    <rate>
                      <timebase>60</timebase>
                      <ntsc>FALSE</ntsc>
                    </rate>
                    <width>1920</width>
                    <height>1080</height>
                    <anamorphic>FALSE</anamorphic>
                    <pixelaspectratio>square</pixelaspectratio>
                    <fielddominance>none</fielddominance>
                  </samplecharacteristics>
                </video>
                <audio>
                  <samplecharacteristics>
                    <depth>16</depth>
                    <samplerate>48000</samplerate>
                  </samplecharacteristics>
                  <channelcount>2</channelcount>
                </audio>
                <audio>
                  <samplecharacteristics>
                    <depth>16</depth>
                    <samplerate>48000</samplerate>
                  </samplecharacteristics>
                  <channelcount>2</channelcount>
                </audio>
                <audio>
                  <samplecharacteristics>
                    <depth>16</depth>
                    <samplerate>48000</samplerate>
                  </samplecharacteristics>
                  <channelcount>2</channelcount>
                </audio>
              </media>
            </file>
            <link>
              <linkclipref>clipitem-596</linkclipref>
              <mediatype>video</mediatype>
              <trackindex>1</trackindex>
              <clipindex>1</clipindex>
            </link>
            <link>
              <linkclipref>clipitem-597</linkclipref>
              <mediatype>audio</mediatype>
              <trackindex>1</trackindex>
              <clipindex>1</clipindex>
              <groupindex>1</groupindex>
            </link>
            <link>
              <linkclipref>clipitem-598</linkclipref>
              <mediatype>audio</mediatype>
              <trackindex>2</trackindex>
              <clipindex>1</clipindex>
              <groupindex>1</groupindex>
            </link>
            <link>
              <linkclipref>clipitem-599</linkclipref>
              <mediatype>audio</mediatype>
              <trackindex>3</trackindex>
              <clipindex>1</clipindex>
              <groupindex>1</groupindex>
            </link>
            <link>
              <linkclipref>clipitem-600</linkclipref>
              <mediatype>audio</mediatype>
              <trackindex>4</trackindex>
              <clipindex>1</clipindex>
              <groupindex>1</groupindex>
            </link>
            <link>
              <linkclipref>clipitem-601</linkclipref>
              <mediatype>audio</mediatype>
              <trackindex>5</trackindex>
              <clipindex>1</clipindex>
              <groupindex>1</groupindex>
            </link>
            <link>
              <linkclipref>clipitem-602</linkclipref>
              <mediatype>audio</mediatype>
              <trackindex>6</trackindex>
              <clipindex>1</clipindex>
              <groupindex>1</groupindex>
            </link>
          </clipitem>
          <clipitem id="clipitem-603">
            <masterclipid>masterclip-3</masterclipid>
            <name>2023-03-30 21-15-31艾许决赛圈2V6 8KCC.mp4</name>
            <enabled>TRUE</enabled>
            <rate>
              <timebase>60</timebase>
              <ntsc>FALSE</ntsc>
            </rate>
            <start>12140</start>
            <end>12316</end>
            <in>17536</in>
            <out>17712</out>
            <alphatype>none</alphatype>
            <pixelaspectratio>square</pixelaspectratio>
            <anamorphic>FALSE</anamorphic>
            <file id="file-3">
              <name>2023-03-30 21-15-31艾许决赛圈2V6 8KCC.mp4</name>
              <pathurl>file%3A//localhost/F%3A/MEDIA/APEX/2023-03-30%2021-15-31%E8%89%BE%E8%AE%B8%E5%86%B3%E8%B5%9B%E5%9C%882V6%208KCC.mp4</pathurl>
              <media>
                <video>
                  <samplecharacteristics>
                    <rate>
                      <timebase>60</timebase>
                      <ntsc>FALSE</ntsc>
                    </rate>
                    <width>1920</width>
                    <height>1080</height>
                    <anamorphic>FALSE</anamorphic>
                    <pixelaspectratio>square</pixelaspectratio>
                    <fielddominance>none</fielddominance>
                  </samplecharacteristics>
                </video>
                <audio>
                  <samplecharacteristics>
                    <depth>16</depth>
                    <samplerate>48000</samplerate>
                  </samplecharacteristics>
                  <channelcount>2</channelcount>
                </audio>
                <audio>
                  <samplecharacteristics>
                    <depth>16</depth>
                    <samplerate>48000</samplerate>
                  </samplecharacteristics>
                  <channelcount>2</channelcount>
                </audio>
                <audio>
                  <samplecharacteristics>
                    <depth>16</depth>
                    <samplerate>48000</samplerate>
                  </samplecharacteristics>
                  <channelcount>2</channelcount>
                </audio>
              </media>
            </file>
            <link>
              <linkclipref>clipitem-603</linkclipref>
              <mediatype>video</mediatype>
              <trackindex>1</trackindex>
              <clipindex>1</clipindex>
            </link>
            <link>
              <linkclipref>clipitem-604</linkclipref>
              <mediatype>audio</mediatype>
              <trackindex>1</trackindex>
              <clipindex>1</clipindex>
              <groupindex>1</groupindex>
            </link>
            <link>
              <linkclipref>clipitem-605</linkclipref>
              <mediatype>audio</mediatype>
              <trackindex>2</trackindex>
              <clipindex>1</clipindex>
              <groupindex>1</groupindex>
            </link>
            <link>
              <linkclipref>clipitem-606</linkclipref>
              <mediatype>audio</mediatype>
              <trackindex>3</trackindex>
              <clipindex>1</clipindex>
              <groupindex>1</groupindex>
            </link>
            <link>
              <linkclipref>clipitem-607</linkclipref>
              <mediatype>audio</mediatype>
              <trackindex>4</trackindex>
              <clipindex>1</clipindex>
              <groupindex>1</groupindex>
            </link>
            <link>
              <linkclipref>clipitem-608</linkclipref>
              <mediatype>audio</mediatype>
              <trackindex>5</trackindex>
              <clipindex>1</clipindex>
              <groupindex>1</groupindex>
            </link>
            <link>
              <linkclipref>clipitem-609</linkclipref>
              <mediatype>audio</mediatype>
              <trackindex>6</trackindex>
              <clipindex>1</clipindex>
              <groupindex>1</groupindex>
            </link>
          </clipitem>
          <clipitem id="clipitem-610">
            <masterclipid>masterclip-3</masterclipid>
            <name>2023-03-30 21-15-31艾许决赛圈2V6 8KCC.mp4</name>
            <enabled>TRUE</enabled>
            <rate>
              <timebase>60</timebase>
              <ntsc>FALSE</ntsc>
            </rate>
            <start>12316</start>
            <end>12524</end>
            <in>18299</in>
            <out>18507</out>
            <alphatype>none</alphatype>
            <pixelaspectratio>square</pixelaspectratio>
            <anamorphic>FALSE</anamorphic>
            <file id="file-3">
              <name>2023-03-30 21-15-31艾许决赛圈2V6 8KCC.mp4</name>
              <pathurl>file%3A//localhost/F%3A/MEDIA/APEX/2023-03-30%2021-15-31%E8%89%BE%E8%AE%B8%E5%86%B3%E8%B5%9B%E5%9C%882V6%208KCC.mp4</pathurl>
              <media>
                <video>
                  <samplecharacteristics>
                    <rate>
                      <timebase>60</timebase>
                      <ntsc>FALSE</ntsc>
                    </rate>
                    <width>1920</width>
                    <height>1080</height>
                    <anamorphic>FALSE</anamorphic>
                    <pixelaspectratio>square</pixelaspectratio>
                    <fielddominance>none</fielddominance>
                  </samplecharacteristics>
                </video>
                <audio>
                  <samplecharacteristics>
                    <depth>16</depth>
                    <samplerate>48000</samplerate>
                  </samplecharacteristics>
                  <channelcount>2</channelcount>
                </audio>
                <audio>
                  <samplecharacteristics>
                    <depth>16</depth>
                    <samplerate>48000</samplerate>
                  </samplecharacteristics>
                  <channelcount>2</channelcount>
                </audio>
                <audio>
                  <samplecharacteristics>
                    <depth>16</depth>
                    <samplerate>48000</samplerate>
                  </samplecharacteristics>
                  <channelcount>2</channelcount>
                </audio>
              </media>
            </file>
            <link>
              <linkclipref>clipitem-610</linkclipref>
              <mediatype>video</mediatype>
              <trackindex>1</trackindex>
              <clipindex>1</clipindex>
            </link>
            <link>
              <linkclipref>clipitem-611</linkclipref>
              <mediatype>audio</mediatype>
              <trackindex>1</trackindex>
              <clipindex>1</clipindex>
              <groupindex>1</groupindex>
            </link>
            <link>
              <linkclipref>clipitem-612</linkclipref>
              <mediatype>audio</mediatype>
              <trackindex>2</trackindex>
              <clipindex>1</clipindex>
              <groupindex>1</groupindex>
            </link>
            <link>
              <linkclipref>clipitem-613</linkclipref>
              <mediatype>audio</mediatype>
              <trackindex>3</trackindex>
              <clipindex>1</clipindex>
              <groupindex>1</groupindex>
            </link>
            <link>
              <linkclipref>clipitem-614</linkclipref>
              <mediatype>audio</mediatype>
              <trackindex>4</trackindex>
              <clipindex>1</clipindex>
              <groupindex>1</groupindex>
            </link>
            <link>
              <linkclipref>clipitem-615</linkclipref>
              <mediatype>audio</mediatype>
              <trackindex>5</trackindex>
              <clipindex>1</clipindex>
              <groupindex>1</groupindex>
            </link>
            <link>
              <linkclipref>clipitem-616</linkclipref>
              <mediatype>audio</mediatype>
              <trackindex>6</trackindex>
              <clipindex>1</clipindex>
              <groupindex>1</groupindex>
            </link>
          </clipitem>
          <clipitem id="clipitem-617">
            <masterclipid>masterclip-3</masterclipid>
            <name>2023-03-30 21-15-31艾许决赛圈2V6 8KCC.mp4</name>
            <enabled>TRUE</enabled>
            <rate>
              <timebase>60</timebase>
              <ntsc>FALSE</ntsc>
            </rate>
            <start>12524</start>
            <end>12590</end>
            <in>18532</in>
            <out>18598</out>
            <alphatype>none</alphatype>
            <pixelaspectratio>square</pixelaspectratio>
            <anamorphic>FALSE</anamorphic>
            <file id="file-3">
              <name>2023-03-30 21-15-31艾许决赛圈2V6 8KCC.mp4</name>
              <pathurl>file%3A//localhost/F%3A/MEDIA/APEX/2023-03-30%2021-15-31%E8%89%BE%E8%AE%B8%E5%86%B3%E8%B5%9B%E5%9C%882V6%208KCC.mp4</pathurl>
              <media>
                <video>
                  <samplecharacteristics>
                    <rate>
                      <timebase>60</timebase>
                      <ntsc>FALSE</ntsc>
                    </rate>
                    <width>1920</width>
                    <height>1080</height>
                    <anamorphic>FALSE</anamorphic>
                    <pixelaspectratio>square</pixelaspectratio>
                    <fielddominance>none</fielddominance>
                  </samplecharacteristics>
                </video>
                <audio>
                  <samplecharacteristics>
                    <depth>16</depth>
                    <samplerate>48000</samplerate>
                  </samplecharacteristics>
                  <channelcount>2</channelcount>
                </audio>
                <audio>
                  <samplecharacteristics>
                    <depth>16</depth>
                    <samplerate>48000</samplerate>
                  </samplecharacteristics>
                  <channelcount>2</channelcount>
                </audio>
                <audio>
                  <samplecharacteristics>
                    <depth>16</depth>
                    <samplerate>48000</samplerate>
                  </samplecharacteristics>
                  <channelcount>2</channelcount>
                </audio>
              </media>
            </file>
            <link>
              <linkclipref>clipitem-617</linkclipref>
              <mediatype>video</mediatype>
              <trackindex>1</trackindex>
              <clipindex>1</clipindex>
            </link>
            <link>
              <linkclipref>clipitem-618</linkclipref>
              <mediatype>audio</mediatype>
              <trackindex>1</trackindex>
              <clipindex>1</clipindex>
              <groupindex>1</groupindex>
            </link>
            <link>
              <linkclipref>clipitem-619</linkclipref>
              <mediatype>audio</mediatype>
              <trackindex>2</trackindex>
              <clipindex>1</clipindex>
              <groupindex>1</groupindex>
            </link>
            <link>
              <linkclipref>clipitem-620</linkclipref>
              <mediatype>audio</mediatype>
              <trackindex>3</trackindex>
              <clipindex>1</clipindex>
              <groupindex>1</groupindex>
            </link>
            <link>
              <linkclipref>clipitem-621</linkclipref>
              <mediatype>audio</mediatype>
              <trackindex>4</trackindex>
              <clipindex>1</clipindex>
              <groupindex>1</groupindex>
            </link>
            <link>
              <linkclipref>clipitem-622</linkclipref>
              <mediatype>audio</mediatype>
              <trackindex>5</trackindex>
              <clipindex>1</clipindex>
              <groupindex>1</groupindex>
            </link>
            <link>
              <linkclipref>clipitem-623</linkclipref>
              <mediatype>audio</mediatype>
              <trackindex>6</trackindex>
              <clipindex>1</clipindex>
              <groupindex>1</groupindex>
            </link>
          </clipitem>
          <clipitem id="clipitem-624">
            <masterclipid>masterclip-3</masterclipid>
            <name>2023-03-30 21-15-31艾许决赛圈2V6 8KCC.mp4</name>
            <enabled>TRUE</enabled>
            <rate>
              <timebase>60</timebase>
              <ntsc>FALSE</ntsc>
            </rate>
            <start>12590</start>
            <end>12690</end>
            <in>18756</in>
            <out>18856</out>
            <alphatype>none</alphatype>
            <pixelaspectratio>square</pixelaspectratio>
            <anamorphic>FALSE</anamorphic>
            <file id="file-3">
              <name>2023-03-30 21-15-31艾许决赛圈2V6 8KCC.mp4</name>
              <pathurl>file%3A//localhost/F%3A/MEDIA/APEX/2023-03-30%2021-15-31%E8%89%BE%E8%AE%B8%E5%86%B3%E8%B5%9B%E5%9C%882V6%208KCC.mp4</pathurl>
              <media>
                <video>
                  <samplecharacteristics>
                    <rate>
                      <timebase>60</timebase>
                      <ntsc>FALSE</ntsc>
                    </rate>
                    <width>1920</width>
                    <height>1080</height>
                    <anamorphic>FALSE</anamorphic>
                    <pixelaspectratio>square</pixelaspectratio>
                    <fielddominance>none</fielddominance>
                  </samplecharacteristics>
                </video>
                <audio>
                  <samplecharacteristics>
                    <depth>16</depth>
                    <samplerate>48000</samplerate>
                  </samplecharacteristics>
                  <channelcount>2</channelcount>
                </audio>
                <audio>
                  <samplecharacteristics>
                    <depth>16</depth>
                    <samplerate>48000</samplerate>
                  </samplecharacteristics>
                  <channelcount>2</channelcount>
                </audio>
                <audio>
                  <samplecharacteristics>
                    <depth>16</depth>
                    <samplerate>48000</samplerate>
                  </samplecharacteristics>
                  <channelcount>2</channelcount>
                </audio>
              </media>
            </file>
            <link>
              <linkclipref>clipitem-624</linkclipref>
              <mediatype>video</mediatype>
              <trackindex>1</trackindex>
              <clipindex>1</clipindex>
            </link>
            <link>
              <linkclipref>clipitem-625</linkclipref>
              <mediatype>audio</mediatype>
              <trackindex>1</trackindex>
              <clipindex>1</clipindex>
              <groupindex>1</groupindex>
            </link>
            <link>
              <linkclipref>clipitem-626</linkclipref>
              <mediatype>audio</mediatype>
              <trackindex>2</trackindex>
              <clipindex>1</clipindex>
              <groupindex>1</groupindex>
            </link>
            <link>
              <linkclipref>clipitem-627</linkclipref>
              <mediatype>audio</mediatype>
              <trackindex>3</trackindex>
              <clipindex>1</clipindex>
              <groupindex>1</groupindex>
            </link>
            <link>
              <linkclipref>clipitem-628</linkclipref>
              <mediatype>audio</mediatype>
              <trackindex>4</trackindex>
              <clipindex>1</clipindex>
              <groupindex>1</groupindex>
            </link>
            <link>
              <linkclipref>clipitem-629</linkclipref>
              <mediatype>audio</mediatype>
              <trackindex>5</trackindex>
              <clipindex>1</clipindex>
              <groupindex>1</groupindex>
            </link>
            <link>
              <linkclipref>clipitem-630</linkclipref>
              <mediatype>audio</mediatype>
              <trackindex>6</trackindex>
              <clipindex>1</clipindex>
              <groupindex>1</groupindex>
            </link>
          </clipitem>
          <clipitem id="clipitem-631">
            <masterclipid>masterclip-3</masterclipid>
            <name>2023-03-30 21-15-31艾许决赛圈2V6 8KCC.mp4</name>
            <enabled>TRUE</enabled>
            <rate>
              <timebase>60</timebase>
              <ntsc>FALSE</ntsc>
            </rate>
            <start>12690</start>
            <end>12770</end>
            <in>29766</in>
            <out>29846</out>
            <alphatype>none</alphatype>
            <pixelaspectratio>square</pixelaspectratio>
            <anamorphic>FALSE</anamorphic>
            <file id="file-3">
              <name>2023-03-30 21-15-31艾许决赛圈2V6 8KCC.mp4</name>
              <pathurl>file%3A//localhost/F%3A/MEDIA/APEX/2023-03-30%2021-15-31%E8%89%BE%E8%AE%B8%E5%86%B3%E8%B5%9B%E5%9C%882V6%208KCC.mp4</pathurl>
              <media>
                <video>
                  <samplecharacteristics>
                    <rate>
                      <timebase>60</timebase>
                      <ntsc>FALSE</ntsc>
                    </rate>
                    <width>1920</width>
                    <height>1080</height>
                    <anamorphic>FALSE</anamorphic>
                    <pixelaspectratio>square</pixelaspectratio>
                    <fielddominance>none</fielddominance>
                  </samplecharacteristics>
                </video>
                <audio>
                  <samplecharacteristics>
                    <depth>16</depth>
                    <samplerate>48000</samplerate>
                  </samplecharacteristics>
                  <channelcount>2</channelcount>
                </audio>
                <audio>
                  <samplecharacteristics>
                    <depth>16</depth>
                    <samplerate>48000</samplerate>
                  </samplecharacteristics>
                  <channelcount>2</channelcount>
                </audio>
                <audio>
                  <samplecharacteristics>
                    <depth>16</depth>
                    <samplerate>48000</samplerate>
                  </samplecharacteristics>
                  <channelcount>2</channelcount>
                </audio>
              </media>
            </file>
            <link>
              <linkclipref>clipitem-631</linkclipref>
              <mediatype>video</mediatype>
              <trackindex>1</trackindex>
              <clipindex>1</clipindex>
            </link>
            <link>
              <linkclipref>clipitem-632</linkclipref>
              <mediatype>audio</mediatype>
              <trackindex>1</trackindex>
              <clipindex>1</clipindex>
              <groupindex>1</groupindex>
            </link>
            <link>
              <linkclipref>clipitem-633</linkclipref>
              <mediatype>audio</mediatype>
              <trackindex>2</trackindex>
              <clipindex>1</clipindex>
              <groupindex>1</groupindex>
            </link>
            <link>
              <linkclipref>clipitem-634</linkclipref>
              <mediatype>audio</mediatype>
              <trackindex>3</trackindex>
              <clipindex>1</clipindex>
              <groupindex>1</groupindex>
            </link>
            <link>
              <linkclipref>clipitem-635</linkclipref>
              <mediatype>audio</mediatype>
              <trackindex>4</trackindex>
              <clipindex>1</clipindex>
              <groupindex>1</groupindex>
            </link>
            <link>
              <linkclipref>clipitem-636</linkclipref>
              <mediatype>audio</mediatype>
              <trackindex>5</trackindex>
              <clipindex>1</clipindex>
              <groupindex>1</groupindex>
            </link>
            <link>
              <linkclipref>clipitem-637</linkclipref>
              <mediatype>audio</mediatype>
              <trackindex>6</trackindex>
              <clipindex>1</clipindex>
              <groupindex>1</groupindex>
            </link>
          </clipitem>
          <clipitem id="clipitem-638">
            <masterclipid>masterclip-3</masterclipid>
            <name>2023-03-30 21-15-31艾许决赛圈2V6 8KCC.mp4</name>
            <enabled>TRUE</enabled>
            <rate>
              <timebase>60</timebase>
              <ntsc>FALSE</ntsc>
            </rate>
            <start>12770</start>
            <end>12919</end>
            <in>30276</in>
            <out>30425</out>
            <alphatype>none</alphatype>
            <pixelaspectratio>square</pixelaspectratio>
            <anamorphic>FALSE</anamorphic>
            <file id="file-3">
              <name>2023-03-30 21-15-31艾许决赛圈2V6 8KCC.mp4</name>
              <pathurl>file%3A//localhost/F%3A/MEDIA/APEX/2023-03-30%2021-15-31%E8%89%BE%E8%AE%B8%E5%86%B3%E8%B5%9B%E5%9C%882V6%208KCC.mp4</pathurl>
              <media>
                <video>
                  <samplecharacteristics>
                    <rate>
                      <timebase>60</timebase>
                      <ntsc>FALSE</ntsc>
                    </rate>
                    <width>1920</width>
                    <height>1080</height>
                    <anamorphic>FALSE</anamorphic>
                    <pixelaspectratio>square</pixelaspectratio>
                    <fielddominance>none</fielddominance>
                  </samplecharacteristics>
                </video>
                <audio>
                  <samplecharacteristics>
                    <depth>16</depth>
                    <samplerate>48000</samplerate>
                  </samplecharacteristics>
                  <channelcount>2</channelcount>
                </audio>
                <audio>
                  <samplecharacteristics>
                    <depth>16</depth>
                    <samplerate>48000</samplerate>
                  </samplecharacteristics>
                  <channelcount>2</channelcount>
                </audio>
                <audio>
                  <samplecharacteristics>
                    <depth>16</depth>
                    <samplerate>48000</samplerate>
                  </samplecharacteristics>
                  <channelcount>2</channelcount>
                </audio>
              </media>
            </file>
            <link>
              <linkclipref>clipitem-638</linkclipref>
              <mediatype>video</mediatype>
              <trackindex>1</trackindex>
              <clipindex>1</clipindex>
            </link>
            <link>
              <linkclipref>clipitem-639</linkclipref>
              <mediatype>audio</mediatype>
              <trackindex>1</trackindex>
              <clipindex>1</clipindex>
              <groupindex>1</groupindex>
            </link>
            <link>
              <linkclipref>clipitem-640</linkclipref>
              <mediatype>audio</mediatype>
              <trackindex>2</trackindex>
              <clipindex>1</clipindex>
              <groupindex>1</groupindex>
            </link>
            <link>
              <linkclipref>clipitem-641</linkclipref>
              <mediatype>audio</mediatype>
              <trackindex>3</trackindex>
              <clipindex>1</clipindex>
              <groupindex>1</groupindex>
            </link>
            <link>
              <linkclipref>clipitem-642</linkclipref>
              <mediatype>audio</mediatype>
              <trackindex>4</trackindex>
              <clipindex>1</clipindex>
              <groupindex>1</groupindex>
            </link>
            <link>
              <linkclipref>clipitem-643</linkclipref>
              <mediatype>audio</mediatype>
              <trackindex>5</trackindex>
              <clipindex>1</clipindex>
              <groupindex>1</groupindex>
            </link>
            <link>
              <linkclipref>clipitem-644</linkclipref>
              <mediatype>audio</mediatype>
              <trackindex>6</trackindex>
              <clipindex>1</clipindex>
              <groupindex>1</groupindex>
            </link>
          </clipitem>
          <clipitem id="clipitem-645">
            <masterclipid>masterclip-3</masterclipid>
            <name>2023-03-30 21-15-31艾许决赛圈2V6 8KCC.mp4</name>
            <enabled>TRUE</enabled>
            <rate>
              <timebase>60</timebase>
              <ntsc>FALSE</ntsc>
            </rate>
            <start>12919</start>
            <end>13039</end>
            <in>30422</in>
            <out>30542</out>
            <alphatype>none</alphatype>
            <pixelaspectratio>square</pixelaspectratio>
            <anamorphic>FALSE</anamorphic>
            <file id="file-3">
              <name>2023-03-30 21-15-31艾许决赛圈2V6 8KCC.mp4</name>
              <pathurl>file%3A//localhost/F%3A/MEDIA/APEX/2023-03-30%2021-15-31%E8%89%BE%E8%AE%B8%E5%86%B3%E8%B5%9B%E5%9C%882V6%208KCC.mp4</pathurl>
              <media>
                <video>
                  <samplecharacteristics>
                    <rate>
                      <timebase>60</timebase>
                      <ntsc>FALSE</ntsc>
                    </rate>
                    <width>1920</width>
                    <height>1080</height>
                    <anamorphic>FALSE</anamorphic>
                    <pixelaspectratio>square</pixelaspectratio>
                    <fielddominance>none</fielddominance>
                  </samplecharacteristics>
                </video>
                <audio>
                  <samplecharacteristics>
                    <depth>16</depth>
                    <samplerate>48000</samplerate>
                  </samplecharacteristics>
                  <channelcount>2</channelcount>
                </audio>
                <audio>
                  <samplecharacteristics>
                    <depth>16</depth>
                    <samplerate>48000</samplerate>
                  </samplecharacteristics>
                  <channelcount>2</channelcount>
                </audio>
                <audio>
                  <samplecharacteristics>
                    <depth>16</depth>
                    <samplerate>48000</samplerate>
                  </samplecharacteristics>
                  <channelcount>2</channelcount>
                </audio>
              </media>
            </file>
            <link>
              <linkclipref>clipitem-645</linkclipref>
              <mediatype>video</mediatype>
              <trackindex>1</trackindex>
              <clipindex>1</clipindex>
            </link>
            <link>
              <linkclipref>clipitem-646</linkclipref>
              <mediatype>audio</mediatype>
              <trackindex>1</trackindex>
              <clipindex>1</clipindex>
              <groupindex>1</groupindex>
            </link>
            <link>
              <linkclipref>clipitem-647</linkclipref>
              <mediatype>audio</mediatype>
              <trackindex>2</trackindex>
              <clipindex>1</clipindex>
              <groupindex>1</groupindex>
            </link>
            <link>
              <linkclipref>clipitem-648</linkclipref>
              <mediatype>audio</mediatype>
              <trackindex>3</trackindex>
              <clipindex>1</clipindex>
              <groupindex>1</groupindex>
            </link>
            <link>
              <linkclipref>clipitem-649</linkclipref>
              <mediatype>audio</mediatype>
              <trackindex>4</trackindex>
              <clipindex>1</clipindex>
              <groupindex>1</groupindex>
            </link>
            <link>
              <linkclipref>clipitem-650</linkclipref>
              <mediatype>audio</mediatype>
              <trackindex>5</trackindex>
              <clipindex>1</clipindex>
              <groupindex>1</groupindex>
            </link>
            <link>
              <linkclipref>clipitem-651</linkclipref>
              <mediatype>audio</mediatype>
              <trackindex>6</trackindex>
              <clipindex>1</clipindex>
              <groupindex>1</groupindex>
            </link>
          </clipitem>
          <clipitem id="clipitem-652">
            <masterclipid>masterclip-3</masterclipid>
            <name>2023-03-30 21-15-31艾许决赛圈2V6 8KCC.mp4</name>
            <enabled>TRUE</enabled>
            <rate>
              <timebase>60</timebase>
              <ntsc>FALSE</ntsc>
            </rate>
            <start>13039</start>
            <end>13141</end>
            <in>30545</in>
            <out>30647</out>
            <alphatype>none</alphatype>
            <pixelaspectratio>square</pixelaspectratio>
            <anamorphic>FALSE</anamorphic>
            <file id="file-3">
              <name>2023-03-30 21-15-31艾许决赛圈2V6 8KCC.mp4</name>
              <pathurl>file%3A//localhost/F%3A/MEDIA/APEX/2023-03-30%2021-15-31%E8%89%BE%E8%AE%B8%E5%86%B3%E8%B5%9B%E5%9C%882V6%208KCC.mp4</pathurl>
              <media>
                <video>
                  <samplecharacteristics>
                    <rate>
                      <timebase>60</timebase>
                      <ntsc>FALSE</ntsc>
                    </rate>
                    <width>1920</width>
                    <height>1080</height>
                    <anamorphic>FALSE</anamorphic>
                    <pixelaspectratio>square</pixelaspectratio>
                    <fielddominance>none</fielddominance>
                  </samplecharacteristics>
                </video>
                <audio>
                  <samplecharacteristics>
                    <depth>16</depth>
                    <samplerate>48000</samplerate>
                  </samplecharacteristics>
                  <channelcount>2</channelcount>
                </audio>
                <audio>
                  <samplecharacteristics>
                    <depth>16</depth>
                    <samplerate>48000</samplerate>
                  </samplecharacteristics>
                  <channelcount>2</channelcount>
                </audio>
                <audio>
                  <samplecharacteristics>
                    <depth>16</depth>
                    <samplerate>48000</samplerate>
                  </samplecharacteristics>
                  <channelcount>2</channelcount>
                </audio>
              </media>
            </file>
            <link>
              <linkclipref>clipitem-652</linkclipref>
              <mediatype>video</mediatype>
              <trackindex>1</trackindex>
              <clipindex>1</clipindex>
            </link>
            <link>
              <linkclipref>clipitem-653</linkclipref>
              <mediatype>audio</mediatype>
              <trackindex>1</trackindex>
              <clipindex>1</clipindex>
              <groupindex>1</groupindex>
            </link>
            <link>
              <linkclipref>clipitem-654</linkclipref>
              <mediatype>audio</mediatype>
              <trackindex>2</trackindex>
              <clipindex>1</clipindex>
              <groupindex>1</groupindex>
            </link>
            <link>
              <linkclipref>clipitem-655</linkclipref>
              <mediatype>audio</mediatype>
              <trackindex>3</trackindex>
              <clipindex>1</clipindex>
              <groupindex>1</groupindex>
            </link>
            <link>
              <linkclipref>clipitem-656</linkclipref>
              <mediatype>audio</mediatype>
              <trackindex>4</trackindex>
              <clipindex>1</clipindex>
              <groupindex>1</groupindex>
            </link>
            <link>
              <linkclipref>clipitem-657</linkclipref>
              <mediatype>audio</mediatype>
              <trackindex>5</trackindex>
              <clipindex>1</clipindex>
              <groupindex>1</groupindex>
            </link>
            <link>
              <linkclipref>clipitem-658</linkclipref>
              <mediatype>audio</mediatype>
              <trackindex>6</trackindex>
              <clipindex>1</clipindex>
              <groupindex>1</groupindex>
            </link>
          </clipitem>
          <clipitem id="clipitem-659">
            <masterclipid>masterclip-3</masterclipid>
            <name>2023-03-30 21-15-31艾许决赛圈2V6 8KCC.mp4</name>
            <enabled>TRUE</enabled>
            <rate>
              <timebase>60</timebase>
              <ntsc>FALSE</ntsc>
            </rate>
            <start>13141</start>
            <end>13330</end>
            <in>32618</in>
            <out>32807</out>
            <alphatype>none</alphatype>
            <pixelaspectratio>square</pixelaspectratio>
            <anamorphic>FALSE</anamorphic>
            <file id="file-3">
              <name>2023-03-30 21-15-31艾许决赛圈2V6 8KCC.mp4</name>
              <pathurl>file%3A//localhost/F%3A/MEDIA/APEX/2023-03-30%2021-15-31%E8%89%BE%E8%AE%B8%E5%86%B3%E8%B5%9B%E5%9C%882V6%208KCC.mp4</pathurl>
              <media>
                <video>
                  <samplecharacteristics>
                    <rate>
                      <timebase>60</timebase>
                      <ntsc>FALSE</ntsc>
                    </rate>
                    <width>1920</width>
                    <height>1080</height>
                    <anamorphic>FALSE</anamorphic>
                    <pixelaspectratio>square</pixelaspectratio>
                    <fielddominance>none</fielddominance>
                  </samplecharacteristics>
                </video>
                <audio>
                  <samplecharacteristics>
                    <depth>16</depth>
                    <samplerate>48000</samplerate>
                  </samplecharacteristics>
                  <channelcount>2</channelcount>
                </audio>
                <audio>
                  <samplecharacteristics>
                    <depth>16</depth>
                    <samplerate>48000</samplerate>
                  </samplecharacteristics>
                  <channelcount>2</channelcount>
                </audio>
                <audio>
                  <samplecharacteristics>
                    <depth>16</depth>
                    <samplerate>48000</samplerate>
                  </samplecharacteristics>
                  <channelcount>2</channelcount>
                </audio>
              </media>
            </file>
            <link>
              <linkclipref>clipitem-659</linkclipref>
              <mediatype>video</mediatype>
              <trackindex>1</trackindex>
              <clipindex>1</clipindex>
            </link>
            <link>
              <linkclipref>clipitem-660</linkclipref>
              <mediatype>audio</mediatype>
              <trackindex>1</trackindex>
              <clipindex>1</clipindex>
              <groupindex>1</groupindex>
            </link>
            <link>
              <linkclipref>clipitem-661</linkclipref>
              <mediatype>audio</mediatype>
              <trackindex>2</trackindex>
              <clipindex>1</clipindex>
              <groupindex>1</groupindex>
            </link>
            <link>
              <linkclipref>clipitem-662</linkclipref>
              <mediatype>audio</mediatype>
              <trackindex>3</trackindex>
              <clipindex>1</clipindex>
              <groupindex>1</groupindex>
            </link>
            <link>
              <linkclipref>clipitem-663</linkclipref>
              <mediatype>audio</mediatype>
              <trackindex>4</trackindex>
              <clipindex>1</clipindex>
              <groupindex>1</groupindex>
            </link>
            <link>
              <linkclipref>clipitem-664</linkclipref>
              <mediatype>audio</mediatype>
              <trackindex>5</trackindex>
              <clipindex>1</clipindex>
              <groupindex>1</groupindex>
            </link>
            <link>
              <linkclipref>clipitem-665</linkclipref>
              <mediatype>audio</mediatype>
              <trackindex>6</trackindex>
              <clipindex>1</clipindex>
              <groupindex>1</groupindex>
            </link>
          </clipitem>
          <clipitem id="clipitem-666">
            <masterclipid>masterclip-3</masterclipid>
            <name>2023-03-30 21-15-31艾许决赛圈2V6 8KCC.mp4</name>
            <enabled>TRUE</enabled>
            <rate>
              <timebase>60</timebase>
              <ntsc>FALSE</ntsc>
            </rate>
            <start>13330</start>
            <end>13454</end>
            <in>33866</in>
            <out>33990</out>
            <alphatype>none</alphatype>
            <pixelaspectratio>square</pixelaspectratio>
            <anamorphic>FALSE</anamorphic>
            <file id="file-3">
              <name>2023-03-30 21-15-31艾许决赛圈2V6 8KCC.mp4</name>
              <pathurl>file%3A//localhost/F%3A/MEDIA/APEX/2023-03-30%2021-15-31%E8%89%BE%E8%AE%B8%E5%86%B3%E8%B5%9B%E5%9C%882V6%208KCC.mp4</pathurl>
              <media>
                <video>
                  <samplecharacteristics>
                    <rate>
                      <timebase>60</timebase>
                      <ntsc>FALSE</ntsc>
                    </rate>
                    <width>1920</width>
                    <height>1080</height>
                    <anamorphic>FALSE</anamorphic>
                    <pixelaspectratio>square</pixelaspectratio>
                    <fielddominance>none</fielddominance>
                  </samplecharacteristics>
                </video>
                <audio>
                  <samplecharacteristics>
                    <depth>16</depth>
                    <samplerate>48000</samplerate>
                  </samplecharacteristics>
                  <channelcount>2</channelcount>
                </audio>
                <audio>
                  <samplecharacteristics>
                    <depth>16</depth>
                    <samplerate>48000</samplerate>
                  </samplecharacteristics>
                  <channelcount>2</channelcount>
                </audio>
                <audio>
                  <samplecharacteristics>
                    <depth>16</depth>
                    <samplerate>48000</samplerate>
                  </samplecharacteristics>
                  <channelcount>2</channelcount>
                </audio>
              </media>
            </file>
            <link>
              <linkclipref>clipitem-666</linkclipref>
              <mediatype>video</mediatype>
              <trackindex>1</trackindex>
              <clipindex>1</clipindex>
            </link>
            <link>
              <linkclipref>clipitem-667</linkclipref>
              <mediatype>audio</mediatype>
              <trackindex>1</trackindex>
              <clipindex>1</clipindex>
              <groupindex>1</groupindex>
            </link>
            <link>
              <linkclipref>clipitem-668</linkclipref>
              <mediatype>audio</mediatype>
              <trackindex>2</trackindex>
              <clipindex>1</clipindex>
              <groupindex>1</groupindex>
            </link>
            <link>
              <linkclipref>clipitem-669</linkclipref>
              <mediatype>audio</mediatype>
              <trackindex>3</trackindex>
              <clipindex>1</clipindex>
              <groupindex>1</groupindex>
            </link>
            <link>
              <linkclipref>clipitem-670</linkclipref>
              <mediatype>audio</mediatype>
              <trackindex>4</trackindex>
              <clipindex>1</clipindex>
              <groupindex>1</groupindex>
            </link>
            <link>
              <linkclipref>clipitem-671</linkclipref>
              <mediatype>audio</mediatype>
              <trackindex>5</trackindex>
              <clipindex>1</clipindex>
              <groupindex>1</groupindex>
            </link>
            <link>
              <linkclipref>clipitem-672</linkclipref>
              <mediatype>audio</mediatype>
              <trackindex>6</trackindex>
              <clipindex>1</clipindex>
              <groupindex>1</groupindex>
            </link>
          </clipitem>
          <clipitem id="clipitem-673">
            <masterclipid>masterclip-3</masterclipid>
            <name>2023-03-30 21-15-31艾许决赛圈2V6 8KCC.mp4</name>
            <enabled>TRUE</enabled>
            <rate>
              <timebase>60</timebase>
              <ntsc>FALSE</ntsc>
            </rate>
            <start>13454</start>
            <end>13564</end>
            <in>41673</in>
            <out>41783</out>
            <alphatype>none</alphatype>
            <pixelaspectratio>square</pixelaspectratio>
            <anamorphic>FALSE</anamorphic>
            <file id="file-3">
              <name>2023-03-30 21-15-31艾许决赛圈2V6 8KCC.mp4</name>
              <pathurl>file%3A//localhost/F%3A/MEDIA/APEX/2023-03-30%2021-15-31%E8%89%BE%E8%AE%B8%E5%86%B3%E8%B5%9B%E5%9C%882V6%208KCC.mp4</pathurl>
              <media>
                <video>
                  <samplecharacteristics>
                    <rate>
                      <timebase>60</timebase>
                      <ntsc>FALSE</ntsc>
                    </rate>
                    <width>1920</width>
                    <height>1080</height>
                    <anamorphic>FALSE</anamorphic>
                    <pixelaspectratio>square</pixelaspectratio>
                    <fielddominance>none</fielddominance>
                  </samplecharacteristics>
                </video>
                <audio>
                  <samplecharacteristics>
                    <depth>16</depth>
                    <samplerate>48000</samplerate>
                  </samplecharacteristics>
                  <channelcount>2</channelcount>
                </audio>
                <audio>
                  <samplecharacteristics>
                    <depth>16</depth>
                    <samplerate>48000</samplerate>
                  </samplecharacteristics>
                  <channelcount>2</channelcount>
                </audio>
                <audio>
                  <samplecharacteristics>
                    <depth>16</depth>
                    <samplerate>48000</samplerate>
                  </samplecharacteristics>
                  <channelcount>2</channelcount>
                </audio>
              </media>
            </file>
            <link>
              <linkclipref>clipitem-673</linkclipref>
              <mediatype>video</mediatype>
              <trackindex>1</trackindex>
              <clipindex>1</clipindex>
            </link>
            <link>
              <linkclipref>clipitem-674</linkclipref>
              <mediatype>audio</mediatype>
              <trackindex>1</trackindex>
              <clipindex>1</clipindex>
              <groupindex>1</groupindex>
            </link>
            <link>
              <linkclipref>clipitem-675</linkclipref>
              <mediatype>audio</mediatype>
              <trackindex>2</trackindex>
              <clipindex>1</clipindex>
              <groupindex>1</groupindex>
            </link>
            <link>
              <linkclipref>clipitem-676</linkclipref>
              <mediatype>audio</mediatype>
              <trackindex>3</trackindex>
              <clipindex>1</clipindex>
              <groupindex>1</groupindex>
            </link>
            <link>
              <linkclipref>clipitem-677</linkclipref>
              <mediatype>audio</mediatype>
              <trackindex>4</trackindex>
              <clipindex>1</clipindex>
              <groupindex>1</groupindex>
            </link>
            <link>
              <linkclipref>clipitem-678</linkclipref>
              <mediatype>audio</mediatype>
              <trackindex>5</trackindex>
              <clipindex>1</clipindex>
              <groupindex>1</groupindex>
            </link>
            <link>
              <linkclipref>clipitem-679</linkclipref>
              <mediatype>audio</mediatype>
              <trackindex>6</trackindex>
              <clipindex>1</clipindex>
              <groupindex>1</groupindex>
            </link>
          </clipitem>
          <clipitem id="clipitem-680">
            <masterclipid>masterclip-3</masterclipid>
            <name>2023-03-30 21-15-31艾许决赛圈2V6 8KCC.mp4</name>
            <enabled>TRUE</enabled>
            <rate>
              <timebase>60</timebase>
              <ntsc>FALSE</ntsc>
            </rate>
            <start>13564</start>
            <end>13644</end>
            <in>42037</in>
            <out>42117</out>
            <alphatype>none</alphatype>
            <pixelaspectratio>square</pixelaspectratio>
            <anamorphic>FALSE</anamorphic>
            <file id="file-3">
              <name>2023-03-30 21-15-31艾许决赛圈2V6 8KCC.mp4</name>
              <pathurl>file%3A//localhost/F%3A/MEDIA/APEX/2023-03-30%2021-15-31%E8%89%BE%E8%AE%B8%E5%86%B3%E8%B5%9B%E5%9C%882V6%208KCC.mp4</pathurl>
              <media>
                <video>
                  <samplecharacteristics>
                    <rate>
                      <timebase>60</timebase>
                      <ntsc>FALSE</ntsc>
                    </rate>
                    <width>1920</width>
                    <height>1080</height>
                    <anamorphic>FALSE</anamorphic>
                    <pixelaspectratio>square</pixelaspectratio>
                    <fielddominance>none</fielddominance>
                  </samplecharacteristics>
                </video>
                <audio>
                  <samplecharacteristics>
                    <depth>16</depth>
                    <samplerate>48000</samplerate>
                  </samplecharacteristics>
                  <channelcount>2</channelcount>
                </audio>
                <audio>
                  <samplecharacteristics>
                    <depth>16</depth>
                    <samplerate>48000</samplerate>
                  </samplecharacteristics>
                  <channelcount>2</channelcount>
                </audio>
                <audio>
                  <samplecharacteristics>
                    <depth>16</depth>
                    <samplerate>48000</samplerate>
                  </samplecharacteristics>
                  <channelcount>2</channelcount>
                </audio>
              </media>
            </file>
            <link>
              <linkclipref>clipitem-680</linkclipref>
              <mediatype>video</mediatype>
              <trackindex>1</trackindex>
              <clipindex>1</clipindex>
            </link>
            <link>
              <linkclipref>clipitem-681</linkclipref>
              <mediatype>audio</mediatype>
              <trackindex>1</trackindex>
              <clipindex>1</clipindex>
              <groupindex>1</groupindex>
            </link>
            <link>
              <linkclipref>clipitem-682</linkclipref>
              <mediatype>audio</mediatype>
              <trackindex>2</trackindex>
              <clipindex>1</clipindex>
              <groupindex>1</groupindex>
            </link>
            <link>
              <linkclipref>clipitem-683</linkclipref>
              <mediatype>audio</mediatype>
              <trackindex>3</trackindex>
              <clipindex>1</clipindex>
              <groupindex>1</groupindex>
            </link>
            <link>
              <linkclipref>clipitem-684</linkclipref>
              <mediatype>audio</mediatype>
              <trackindex>4</trackindex>
              <clipindex>1</clipindex>
              <groupindex>1</groupindex>
            </link>
            <link>
              <linkclipref>clipitem-685</linkclipref>
              <mediatype>audio</mediatype>
              <trackindex>5</trackindex>
              <clipindex>1</clipindex>
              <groupindex>1</groupindex>
            </link>
            <link>
              <linkclipref>clipitem-686</linkclipref>
              <mediatype>audio</mediatype>
              <trackindex>6</trackindex>
              <clipindex>1</clipindex>
              <groupindex>1</groupindex>
            </link>
          </clipitem>
          <clipitem id="clipitem-687">
            <masterclipid>masterclip-3</masterclipid>
            <name>2023-03-30 21-15-31艾许决赛圈2V6 8KCC.mp4</name>
            <enabled>TRUE</enabled>
            <rate>
              <timebase>60</timebase>
              <ntsc>FALSE</ntsc>
            </rate>
            <start>13644</start>
            <end>13724</end>
            <in>43943</in>
            <out>44023</out>
            <alphatype>none</alphatype>
            <pixelaspectratio>square</pixelaspectratio>
            <anamorphic>FALSE</anamorphic>
            <file id="file-3">
              <name>2023-03-30 21-15-31艾许决赛圈2V6 8KCC.mp4</name>
              <pathurl>file%3A//localhost/F%3A/MEDIA/APEX/2023-03-30%2021-15-31%E8%89%BE%E8%AE%B8%E5%86%B3%E8%B5%9B%E5%9C%882V6%208KCC.mp4</pathurl>
              <media>
                <video>
                  <samplecharacteristics>
                    <rate>
                      <timebase>60</timebase>
                      <ntsc>FALSE</ntsc>
                    </rate>
                    <width>1920</width>
                    <height>1080</height>
                    <anamorphic>FALSE</anamorphic>
                    <pixelaspectratio>square</pixelaspectratio>
                    <fielddominance>none</fielddominance>
                  </samplecharacteristics>
                </video>
                <audio>
                  <samplecharacteristics>
                    <depth>16</depth>
                    <samplerate>48000</samplerate>
                  </samplecharacteristics>
                  <channelcount>2</channelcount>
                </audio>
                <audio>
                  <samplecharacteristics>
                    <depth>16</depth>
                    <samplerate>48000</samplerate>
                  </samplecharacteristics>
                  <channelcount>2</channelcount>
                </audio>
                <audio>
                  <samplecharacteristics>
                    <depth>16</depth>
                    <samplerate>48000</samplerate>
                  </samplecharacteristics>
                  <channelcount>2</channelcount>
                </audio>
              </media>
            </file>
            <link>
              <linkclipref>clipitem-687</linkclipref>
              <mediatype>video</mediatype>
              <trackindex>1</trackindex>
              <clipindex>1</clipindex>
            </link>
            <link>
              <linkclipref>clipitem-688</linkclipref>
              <mediatype>audio</mediatype>
              <trackindex>1</trackindex>
              <clipindex>1</clipindex>
              <groupindex>1</groupindex>
            </link>
            <link>
              <linkclipref>clipitem-689</linkclipref>
              <mediatype>audio</mediatype>
              <trackindex>2</trackindex>
              <clipindex>1</clipindex>
              <groupindex>1</groupindex>
            </link>
            <link>
              <linkclipref>clipitem-690</linkclipref>
              <mediatype>audio</mediatype>
              <trackindex>3</trackindex>
              <clipindex>1</clipindex>
              <groupindex>1</groupindex>
            </link>
            <link>
              <linkclipref>clipitem-691</linkclipref>
              <mediatype>audio</mediatype>
              <trackindex>4</trackindex>
              <clipindex>1</clipindex>
              <groupindex>1</groupindex>
            </link>
            <link>
              <linkclipref>clipitem-692</linkclipref>
              <mediatype>audio</mediatype>
              <trackindex>5</trackindex>
              <clipindex>1</clipindex>
              <groupindex>1</groupindex>
            </link>
            <link>
              <linkclipref>clipitem-693</linkclipref>
              <mediatype>audio</mediatype>
              <trackindex>6</trackindex>
              <clipindex>1</clipindex>
              <groupindex>1</groupindex>
            </link>
          </clipitem>
          <clipitem id="clipitem-694">
            <masterclipid>masterclip-3</masterclipid>
            <name>2023-03-30 21-15-31艾许决赛圈2V6 8KCC.mp4</name>
            <enabled>TRUE</enabled>
            <rate>
              <timebase>60</timebase>
              <ntsc>FALSE</ntsc>
            </rate>
            <start>13724</start>
            <end>13838</end>
            <in>44030</in>
            <out>44144</out>
            <alphatype>none</alphatype>
            <pixelaspectratio>square</pixelaspectratio>
            <anamorphic>FALSE</anamorphic>
            <file id="file-3">
              <name>2023-03-30 21-15-31艾许决赛圈2V6 8KCC.mp4</name>
              <pathurl>file%3A//localhost/F%3A/MEDIA/APEX/2023-03-30%2021-15-31%E8%89%BE%E8%AE%B8%E5%86%B3%E8%B5%9B%E5%9C%882V6%208KCC.mp4</pathurl>
              <media>
                <video>
                  <samplecharacteristics>
                    <rate>
                      <timebase>60</timebase>
                      <ntsc>FALSE</ntsc>
                    </rate>
                    <width>1920</width>
                    <height>1080</height>
                    <anamorphic>FALSE</anamorphic>
                    <pixelaspectratio>square</pixelaspectratio>
                    <fielddominance>none</fielddominance>
                  </samplecharacteristics>
                </video>
                <audio>
                  <samplecharacteristics>
                    <depth>16</depth>
                    <samplerate>48000</samplerate>
                  </samplecharacteristics>
                  <channelcount>2</channelcount>
                </audio>
                <audio>
                  <samplecharacteristics>
                    <depth>16</depth>
                    <samplerate>48000</samplerate>
                  </samplecharacteristics>
                  <channelcount>2</channelcount>
                </audio>
                <audio>
                  <samplecharacteristics>
                    <depth>16</depth>
                    <samplerate>48000</samplerate>
                  </samplecharacteristics>
                  <channelcount>2</channelcount>
                </audio>
              </media>
            </file>
            <link>
              <linkclipref>clipitem-694</linkclipref>
              <mediatype>video</mediatype>
              <trackindex>1</trackindex>
              <clipindex>1</clipindex>
            </link>
            <link>
              <linkclipref>clipitem-695</linkclipref>
              <mediatype>audio</mediatype>
              <trackindex>1</trackindex>
              <clipindex>1</clipindex>
              <groupindex>1</groupindex>
            </link>
            <link>
              <linkclipref>clipitem-696</linkclipref>
              <mediatype>audio</mediatype>
              <trackindex>2</trackindex>
              <clipindex>1</clipindex>
              <groupindex>1</groupindex>
            </link>
            <link>
              <linkclipref>clipitem-697</linkclipref>
              <mediatype>audio</mediatype>
              <trackindex>3</trackindex>
              <clipindex>1</clipindex>
              <groupindex>1</groupindex>
            </link>
            <link>
              <linkclipref>clipitem-698</linkclipref>
              <mediatype>audio</mediatype>
              <trackindex>4</trackindex>
              <clipindex>1</clipindex>
              <groupindex>1</groupindex>
            </link>
            <link>
              <linkclipref>clipitem-699</linkclipref>
              <mediatype>audio</mediatype>
              <trackindex>5</trackindex>
              <clipindex>1</clipindex>
              <groupindex>1</groupindex>
            </link>
            <link>
              <linkclipref>clipitem-700</linkclipref>
              <mediatype>audio</mediatype>
              <trackindex>6</trackindex>
              <clipindex>1</clipindex>
              <groupindex>1</groupindex>
            </link>
          </clipitem>
          <clipitem id="clipitem-701">
            <masterclipid>masterclip-3</masterclipid>
            <name>2023-03-30 21-15-31艾许决赛圈2V6 8KCC.mp4</name>
            <enabled>TRUE</enabled>
            <rate>
              <timebase>60</timebase>
              <ntsc>FALSE</ntsc>
            </rate>
            <start>13838</start>
            <end>13903</end>
            <in>44850</in>
            <out>44915</out>
            <alphatype>none</alphatype>
            <pixelaspectratio>square</pixelaspectratio>
            <anamorphic>FALSE</anamorphic>
            <file id="file-3">
              <name>2023-03-30 21-15-31艾许决赛圈2V6 8KCC.mp4</name>
              <pathurl>file%3A//localhost/F%3A/MEDIA/APEX/2023-03-30%2021-15-31%E8%89%BE%E8%AE%B8%E5%86%B3%E8%B5%9B%E5%9C%882V6%208KCC.mp4</pathurl>
              <media>
                <video>
                  <samplecharacteristics>
                    <rate>
                      <timebase>60</timebase>
                      <ntsc>FALSE</ntsc>
                    </rate>
                    <width>1920</width>
                    <height>1080</height>
                    <anamorphic>FALSE</anamorphic>
                    <pixelaspectratio>square</pixelaspectratio>
                    <fielddominance>none</fielddominance>
                  </samplecharacteristics>
                </video>
                <audio>
                  <samplecharacteristics>
                    <depth>16</depth>
                    <samplerate>48000</samplerate>
                  </samplecharacteristics>
                  <channelcount>2</channelcount>
                </audio>
                <audio>
                  <samplecharacteristics>
                    <depth>16</depth>
                    <samplerate>48000</samplerate>
                  </samplecharacteristics>
                  <channelcount>2</channelcount>
                </audio>
                <audio>
                  <samplecharacteristics>
                    <depth>16</depth>
                    <samplerate>48000</samplerate>
                  </samplecharacteristics>
                  <channelcount>2</channelcount>
                </audio>
              </media>
            </file>
            <link>
              <linkclipref>clipitem-701</linkclipref>
              <mediatype>video</mediatype>
              <trackindex>1</trackindex>
              <clipindex>1</clipindex>
            </link>
            <link>
              <linkclipref>clipitem-702</linkclipref>
              <mediatype>audio</mediatype>
              <trackindex>1</trackindex>
              <clipindex>1</clipindex>
              <groupindex>1</groupindex>
            </link>
            <link>
              <linkclipref>clipitem-703</linkclipref>
              <mediatype>audio</mediatype>
              <trackindex>2</trackindex>
              <clipindex>1</clipindex>
              <groupindex>1</groupindex>
            </link>
            <link>
              <linkclipref>clipitem-704</linkclipref>
              <mediatype>audio</mediatype>
              <trackindex>3</trackindex>
              <clipindex>1</clipindex>
              <groupindex>1</groupindex>
            </link>
            <link>
              <linkclipref>clipitem-705</linkclipref>
              <mediatype>audio</mediatype>
              <trackindex>4</trackindex>
              <clipindex>1</clipindex>
              <groupindex>1</groupindex>
            </link>
            <link>
              <linkclipref>clipitem-706</linkclipref>
              <mediatype>audio</mediatype>
              <trackindex>5</trackindex>
              <clipindex>1</clipindex>
              <groupindex>1</groupindex>
            </link>
            <link>
              <linkclipref>clipitem-707</linkclipref>
              <mediatype>audio</mediatype>
              <trackindex>6</trackindex>
              <clipindex>1</clipindex>
              <groupindex>1</groupindex>
            </link>
          </clipitem>
          <clipitem id="clipitem-708">
            <masterclipid>masterclip-3</masterclipid>
            <name>2023-03-30 21-15-31艾许决赛圈2V6 8KCC.mp4</name>
            <enabled>TRUE</enabled>
            <rate>
              <timebase>60</timebase>
              <ntsc>FALSE</ntsc>
            </rate>
            <start>13903</start>
            <end>14190</end>
            <in>46715</in>
            <out>47002</out>
            <alphatype>none</alphatype>
            <pixelaspectratio>square</pixelaspectratio>
            <anamorphic>FALSE</anamorphic>
            <file id="file-3">
              <name>2023-03-30 21-15-31艾许决赛圈2V6 8KCC.mp4</name>
              <pathurl>file%3A//localhost/F%3A/MEDIA/APEX/2023-03-30%2021-15-31%E8%89%BE%E8%AE%B8%E5%86%B3%E8%B5%9B%E5%9C%882V6%208KCC.mp4</pathurl>
              <media>
                <video>
                  <samplecharacteristics>
                    <rate>
                      <timebase>60</timebase>
                      <ntsc>FALSE</ntsc>
                    </rate>
                    <width>1920</width>
                    <height>1080</height>
                    <anamorphic>FALSE</anamorphic>
                    <pixelaspectratio>square</pixelaspectratio>
                    <fielddominance>none</fielddominance>
                  </samplecharacteristics>
                </video>
                <audio>
                  <samplecharacteristics>
                    <depth>16</depth>
                    <samplerate>48000</samplerate>
                  </samplecharacteristics>
                  <channelcount>2</channelcount>
                </audio>
                <audio>
                  <samplecharacteristics>
                    <depth>16</depth>
                    <samplerate>48000</samplerate>
                  </samplecharacteristics>
                  <channelcount>2</channelcount>
                </audio>
                <audio>
                  <samplecharacteristics>
                    <depth>16</depth>
                    <samplerate>48000</samplerate>
                  </samplecharacteristics>
                  <channelcount>2</channelcount>
                </audio>
              </media>
            </file>
            <link>
              <linkclipref>clipitem-708</linkclipref>
              <mediatype>video</mediatype>
              <trackindex>1</trackindex>
              <clipindex>1</clipindex>
            </link>
            <link>
              <linkclipref>clipitem-709</linkclipref>
              <mediatype>audio</mediatype>
              <trackindex>1</trackindex>
              <clipindex>1</clipindex>
              <groupindex>1</groupindex>
            </link>
            <link>
              <linkclipref>clipitem-710</linkclipref>
              <mediatype>audio</mediatype>
              <trackindex>2</trackindex>
              <clipindex>1</clipindex>
              <groupindex>1</groupindex>
            </link>
            <link>
              <linkclipref>clipitem-711</linkclipref>
              <mediatype>audio</mediatype>
              <trackindex>3</trackindex>
              <clipindex>1</clipindex>
              <groupindex>1</groupindex>
            </link>
            <link>
              <linkclipref>clipitem-712</linkclipref>
              <mediatype>audio</mediatype>
              <trackindex>4</trackindex>
              <clipindex>1</clipindex>
              <groupindex>1</groupindex>
            </link>
            <link>
              <linkclipref>clipitem-713</linkclipref>
              <mediatype>audio</mediatype>
              <trackindex>5</trackindex>
              <clipindex>1</clipindex>
              <groupindex>1</groupindex>
            </link>
            <link>
              <linkclipref>clipitem-714</linkclipref>
              <mediatype>audio</mediatype>
              <trackindex>6</trackindex>
              <clipindex>1</clipindex>
              <groupindex>1</groupindex>
            </link>
          </clipitem>
          <clipitem id="clipitem-715">
            <masterclipid>masterclip-3</masterclipid>
            <name>2023-03-30 21-15-31艾许决赛圈2V6 8KCC.mp4</name>
            <enabled>TRUE</enabled>
            <rate>
              <timebase>60</timebase>
              <ntsc>FALSE</ntsc>
            </rate>
            <start>14190</start>
            <end>14385</end>
            <in>48602</in>
            <out>48797</out>
            <alphatype>none</alphatype>
            <pixelaspectratio>square</pixelaspectratio>
            <anamorphic>FALSE</anamorphic>
            <file id="file-3">
              <name>2023-03-30 21-15-31艾许决赛圈2V6 8KCC.mp4</name>
              <pathurl>file%3A//localhost/F%3A/MEDIA/APEX/2023-03-30%2021-15-31%E8%89%BE%E8%AE%B8%E5%86%B3%E8%B5%9B%E5%9C%882V6%208KCC.mp4</pathurl>
              <media>
                <video>
                  <samplecharacteristics>
                    <rate>
                      <timebase>60</timebase>
                      <ntsc>FALSE</ntsc>
                    </rate>
                    <width>1920</width>
                    <height>1080</height>
                    <anamorphic>FALSE</anamorphic>
                    <pixelaspectratio>square</pixelaspectratio>
                    <fielddominance>none</fielddominance>
                  </samplecharacteristics>
                </video>
                <audio>
                  <samplecharacteristics>
                    <depth>16</depth>
                    <samplerate>48000</samplerate>
                  </samplecharacteristics>
                  <channelcount>2</channelcount>
                </audio>
                <audio>
                  <samplecharacteristics>
                    <depth>16</depth>
                    <samplerate>48000</samplerate>
                  </samplecharacteristics>
                  <channelcount>2</channelcount>
                </audio>
                <audio>
                  <samplecharacteristics>
                    <depth>16</depth>
                    <samplerate>48000</samplerate>
                  </samplecharacteristics>
                  <channelcount>2</channelcount>
                </audio>
              </media>
            </file>
            <link>
              <linkclipref>clipitem-715</linkclipref>
              <mediatype>video</mediatype>
              <trackindex>1</trackindex>
              <clipindex>1</clipindex>
            </link>
            <link>
              <linkclipref>clipitem-716</linkclipref>
              <mediatype>audio</mediatype>
              <trackindex>1</trackindex>
              <clipindex>1</clipindex>
              <groupindex>1</groupindex>
            </link>
            <link>
              <linkclipref>clipitem-717</linkclipref>
              <mediatype>audio</mediatype>
              <trackindex>2</trackindex>
              <clipindex>1</clipindex>
              <groupindex>1</groupindex>
            </link>
            <link>
              <linkclipref>clipitem-718</linkclipref>
              <mediatype>audio</mediatype>
              <trackindex>3</trackindex>
              <clipindex>1</clipindex>
              <groupindex>1</groupindex>
            </link>
            <link>
              <linkclipref>clipitem-719</linkclipref>
              <mediatype>audio</mediatype>
              <trackindex>4</trackindex>
              <clipindex>1</clipindex>
              <groupindex>1</groupindex>
            </link>
            <link>
              <linkclipref>clipitem-720</linkclipref>
              <mediatype>audio</mediatype>
              <trackindex>5</trackindex>
              <clipindex>1</clipindex>
              <groupindex>1</groupindex>
            </link>
            <link>
              <linkclipref>clipitem-721</linkclipref>
              <mediatype>audio</mediatype>
              <trackindex>6</trackindex>
              <clipindex>1</clipindex>
              <groupindex>1</groupindex>
            </link>
          </clipitem>
          <clipitem id="clipitem-722">
            <masterclipid>masterclip-3</masterclipid>
            <name>2023-03-30 21-15-31艾许决赛圈2V6 8KCC.mp4</name>
            <enabled>TRUE</enabled>
            <rate>
              <timebase>60</timebase>
              <ntsc>FALSE</ntsc>
            </rate>
            <start>14385</start>
            <end>14465</end>
            <in>48819</in>
            <out>48899</out>
            <alphatype>none</alphatype>
            <pixelaspectratio>square</pixelaspectratio>
            <anamorphic>FALSE</anamorphic>
            <file id="file-3">
              <name>2023-03-30 21-15-31艾许决赛圈2V6 8KCC.mp4</name>
              <pathurl>file%3A//localhost/F%3A/MEDIA/APEX/2023-03-30%2021-15-31%E8%89%BE%E8%AE%B8%E5%86%B3%E8%B5%9B%E5%9C%882V6%208KCC.mp4</pathurl>
              <media>
                <video>
                  <samplecharacteristics>
                    <rate>
                      <timebase>60</timebase>
                      <ntsc>FALSE</ntsc>
                    </rate>
                    <width>1920</width>
                    <height>1080</height>
                    <anamorphic>FALSE</anamorphic>
                    <pixelaspectratio>square</pixelaspectratio>
                    <fielddominance>none</fielddominance>
                  </samplecharacteristics>
                </video>
                <audio>
                  <samplecharacteristics>
                    <depth>16</depth>
                    <samplerate>48000</samplerate>
                  </samplecharacteristics>
                  <channelcount>2</channelcount>
                </audio>
                <audio>
                  <samplecharacteristics>
                    <depth>16</depth>
                    <samplerate>48000</samplerate>
                  </samplecharacteristics>
                  <channelcount>2</channelcount>
                </audio>
                <audio>
                  <samplecharacteristics>
                    <depth>16</depth>
                    <samplerate>48000</samplerate>
                  </samplecharacteristics>
                  <channelcount>2</channelcount>
                </audio>
              </media>
            </file>
            <link>
              <linkclipref>clipitem-722</linkclipref>
              <mediatype>video</mediatype>
              <trackindex>1</trackindex>
              <clipindex>1</clipindex>
            </link>
            <link>
              <linkclipref>clipitem-723</linkclipref>
              <mediatype>audio</mediatype>
              <trackindex>1</trackindex>
              <clipindex>1</clipindex>
              <groupindex>1</groupindex>
            </link>
            <link>
              <linkclipref>clipitem-724</linkclipref>
              <mediatype>audio</mediatype>
              <trackindex>2</trackindex>
              <clipindex>1</clipindex>
              <groupindex>1</groupindex>
            </link>
            <link>
              <linkclipref>clipitem-725</linkclipref>
              <mediatype>audio</mediatype>
              <trackindex>3</trackindex>
              <clipindex>1</clipindex>
              <groupindex>1</groupindex>
            </link>
            <link>
              <linkclipref>clipitem-726</linkclipref>
              <mediatype>audio</mediatype>
              <trackindex>4</trackindex>
              <clipindex>1</clipindex>
              <groupindex>1</groupindex>
            </link>
            <link>
              <linkclipref>clipitem-727</linkclipref>
              <mediatype>audio</mediatype>
              <trackindex>5</trackindex>
              <clipindex>1</clipindex>
              <groupindex>1</groupindex>
            </link>
            <link>
              <linkclipref>clipitem-728</linkclipref>
              <mediatype>audio</mediatype>
              <trackindex>6</trackindex>
              <clipindex>1</clipindex>
              <groupindex>1</groupindex>
            </link>
          </clipitem>
          <clipitem id="clipitem-729">
            <masterclipid>masterclip-3</masterclipid>
            <name>2023-03-30 21-15-31艾许决赛圈2V6 8KCC.mp4</name>
            <enabled>TRUE</enabled>
            <rate>
              <timebase>60</timebase>
              <ntsc>FALSE</ntsc>
            </rate>
            <start>14465</start>
            <end>14614</end>
            <in>67987</in>
            <out>68136</out>
            <alphatype>none</alphatype>
            <pixelaspectratio>square</pixelaspectratio>
            <anamorphic>FALSE</anamorphic>
            <file id="file-3">
              <name>2023-03-30 21-15-31艾许决赛圈2V6 8KCC.mp4</name>
              <pathurl>file%3A//localhost/F%3A/MEDIA/APEX/2023-03-30%2021-15-31%E8%89%BE%E8%AE%B8%E5%86%B3%E8%B5%9B%E5%9C%882V6%208KCC.mp4</pathurl>
              <media>
                <video>
                  <samplecharacteristics>
                    <rate>
                      <timebase>60</timebase>
                      <ntsc>FALSE</ntsc>
                    </rate>
                    <width>1920</width>
                    <height>1080</height>
                    <anamorphic>FALSE</anamorphic>
                    <pixelaspectratio>square</pixelaspectratio>
                    <fielddominance>none</fielddominance>
                  </samplecharacteristics>
                </video>
                <audio>
                  <samplecharacteristics>
                    <depth>16</depth>
                    <samplerate>48000</samplerate>
                  </samplecharacteristics>
                  <channelcount>2</channelcount>
                </audio>
                <audio>
                  <samplecharacteristics>
                    <depth>16</depth>
                    <samplerate>48000</samplerate>
                  </samplecharacteristics>
                  <channelcount>2</channelcount>
                </audio>
                <audio>
                  <samplecharacteristics>
                    <depth>16</depth>
                    <samplerate>48000</samplerate>
                  </samplecharacteristics>
                  <channelcount>2</channelcount>
                </audio>
              </media>
            </file>
            <link>
              <linkclipref>clipitem-729</linkclipref>
              <mediatype>video</mediatype>
              <trackindex>1</trackindex>
              <clipindex>1</clipindex>
            </link>
            <link>
              <linkclipref>clipitem-730</linkclipref>
              <mediatype>audio</mediatype>
              <trackindex>1</trackindex>
              <clipindex>1</clipindex>
              <groupindex>1</groupindex>
            </link>
            <link>
              <linkclipref>clipitem-731</linkclipref>
              <mediatype>audio</mediatype>
              <trackindex>2</trackindex>
              <clipindex>1</clipindex>
              <groupindex>1</groupindex>
            </link>
            <link>
              <linkclipref>clipitem-732</linkclipref>
              <mediatype>audio</mediatype>
              <trackindex>3</trackindex>
              <clipindex>1</clipindex>
              <groupindex>1</groupindex>
            </link>
            <link>
              <linkclipref>clipitem-733</linkclipref>
              <mediatype>audio</mediatype>
              <trackindex>4</trackindex>
              <clipindex>1</clipindex>
              <groupindex>1</groupindex>
            </link>
            <link>
              <linkclipref>clipitem-734</linkclipref>
              <mediatype>audio</mediatype>
              <trackindex>5</trackindex>
              <clipindex>1</clipindex>
              <groupindex>1</groupindex>
            </link>
            <link>
              <linkclipref>clipitem-735</linkclipref>
              <mediatype>audio</mediatype>
              <trackindex>6</trackindex>
              <clipindex>1</clipindex>
              <groupindex>1</groupindex>
            </link>
          </clipitem>
          <clipitem id="clipitem-736">
            <masterclipid>masterclip-3</masterclipid>
            <name>2023-03-30 21-15-31艾许决赛圈2V6 8KCC.mp4</name>
            <enabled>TRUE</enabled>
            <rate>
              <timebase>60</timebase>
              <ntsc>FALSE</ntsc>
            </rate>
            <start>14614</start>
            <end>14702</end>
            <in>69856</in>
            <out>69944</out>
            <alphatype>none</alphatype>
            <pixelaspectratio>square</pixelaspectratio>
            <anamorphic>FALSE</anamorphic>
            <file id="file-3">
              <name>2023-03-30 21-15-31艾许决赛圈2V6 8KCC.mp4</name>
              <pathurl>file%3A//localhost/F%3A/MEDIA/APEX/2023-03-30%2021-15-31%E8%89%BE%E8%AE%B8%E5%86%B3%E8%B5%9B%E5%9C%882V6%208KCC.mp4</pathurl>
              <media>
                <video>
                  <samplecharacteristics>
                    <rate>
                      <timebase>60</timebase>
                      <ntsc>FALSE</ntsc>
                    </rate>
                    <width>1920</width>
                    <height>1080</height>
                    <anamorphic>FALSE</anamorphic>
                    <pixelaspectratio>square</pixelaspectratio>
                    <fielddominance>none</fielddominance>
                  </samplecharacteristics>
                </video>
                <audio>
                  <samplecharacteristics>
                    <depth>16</depth>
                    <samplerate>48000</samplerate>
                  </samplecharacteristics>
                  <channelcount>2</channelcount>
                </audio>
                <audio>
                  <samplecharacteristics>
                    <depth>16</depth>
                    <samplerate>48000</samplerate>
                  </samplecharacteristics>
                  <channelcount>2</channelcount>
                </audio>
                <audio>
                  <samplecharacteristics>
                    <depth>16</depth>
                    <samplerate>48000</samplerate>
                  </samplecharacteristics>
                  <channelcount>2</channelcount>
                </audio>
              </media>
            </file>
            <link>
              <linkclipref>clipitem-736</linkclipref>
              <mediatype>video</mediatype>
              <trackindex>1</trackindex>
              <clipindex>1</clipindex>
            </link>
            <link>
              <linkclipref>clipitem-737</linkclipref>
              <mediatype>audio</mediatype>
              <trackindex>1</trackindex>
              <clipindex>1</clipindex>
              <groupindex>1</groupindex>
            </link>
            <link>
              <linkclipref>clipitem-738</linkclipref>
              <mediatype>audio</mediatype>
              <trackindex>2</trackindex>
              <clipindex>1</clipindex>
              <groupindex>1</groupindex>
            </link>
            <link>
              <linkclipref>clipitem-739</linkclipref>
              <mediatype>audio</mediatype>
              <trackindex>3</trackindex>
              <clipindex>1</clipindex>
              <groupindex>1</groupindex>
            </link>
            <link>
              <linkclipref>clipitem-740</linkclipref>
              <mediatype>audio</mediatype>
              <trackindex>4</trackindex>
              <clipindex>1</clipindex>
              <groupindex>1</groupindex>
            </link>
            <link>
              <linkclipref>clipitem-741</linkclipref>
              <mediatype>audio</mediatype>
              <trackindex>5</trackindex>
              <clipindex>1</clipindex>
              <groupindex>1</groupindex>
            </link>
            <link>
              <linkclipref>clipitem-742</linkclipref>
              <mediatype>audio</mediatype>
              <trackindex>6</trackindex>
              <clipindex>1</clipindex>
              <groupindex>1</groupindex>
            </link>
          </clipitem>
          <clipitem id="clipitem-743">
            <masterclipid>masterclip-3</masterclipid>
            <name>2023-03-30 21-15-31艾许决赛圈2V6 8KCC.mp4</name>
            <enabled>TRUE</enabled>
            <rate>
              <timebase>60</timebase>
              <ntsc>FALSE</ntsc>
            </rate>
            <start>14702</start>
            <end>14790</end>
            <in>69984</in>
            <out>70072</out>
            <alphatype>none</alphatype>
            <pixelaspectratio>square</pixelaspectratio>
            <anamorphic>FALSE</anamorphic>
            <file id="file-3">
              <name>2023-03-30 21-15-31艾许决赛圈2V6 8KCC.mp4</name>
              <pathurl>file%3A//localhost/F%3A/MEDIA/APEX/2023-03-30%2021-15-31%E8%89%BE%E8%AE%B8%E5%86%B3%E8%B5%9B%E5%9C%882V6%208KCC.mp4</pathurl>
              <media>
                <video>
                  <samplecharacteristics>
                    <rate>
                      <timebase>60</timebase>
                      <ntsc>FALSE</ntsc>
                    </rate>
                    <width>1920</width>
                    <height>1080</height>
                    <anamorphic>FALSE</anamorphic>
                    <pixelaspectratio>square</pixelaspectratio>
                    <fielddominance>none</fielddominance>
                  </samplecharacteristics>
                </video>
                <audio>
                  <samplecharacteristics>
                    <depth>16</depth>
                    <samplerate>48000</samplerate>
                  </samplecharacteristics>
                  <channelcount>2</channelcount>
                </audio>
                <audio>
                  <samplecharacteristics>
                    <depth>16</depth>
                    <samplerate>48000</samplerate>
                  </samplecharacteristics>
                  <channelcount>2</channelcount>
                </audio>
                <audio>
                  <samplecharacteristics>
                    <depth>16</depth>
                    <samplerate>48000</samplerate>
                  </samplecharacteristics>
                  <channelcount>2</channelcount>
                </audio>
              </media>
            </file>
            <link>
              <linkclipref>clipitem-743</linkclipref>
              <mediatype>video</mediatype>
              <trackindex>1</trackindex>
              <clipindex>1</clipindex>
            </link>
            <link>
              <linkclipref>clipitem-744</linkclipref>
              <mediatype>audio</mediatype>
              <trackindex>1</trackindex>
              <clipindex>1</clipindex>
              <groupindex>1</groupindex>
            </link>
            <link>
              <linkclipref>clipitem-745</linkclipref>
              <mediatype>audio</mediatype>
              <trackindex>2</trackindex>
              <clipindex>1</clipindex>
              <groupindex>1</groupindex>
            </link>
            <link>
              <linkclipref>clipitem-746</linkclipref>
              <mediatype>audio</mediatype>
              <trackindex>3</trackindex>
              <clipindex>1</clipindex>
              <groupindex>1</groupindex>
            </link>
            <link>
              <linkclipref>clipitem-747</linkclipref>
              <mediatype>audio</mediatype>
              <trackindex>4</trackindex>
              <clipindex>1</clipindex>
              <groupindex>1</groupindex>
            </link>
            <link>
              <linkclipref>clipitem-748</linkclipref>
              <mediatype>audio</mediatype>
              <trackindex>5</trackindex>
              <clipindex>1</clipindex>
              <groupindex>1</groupindex>
            </link>
            <link>
              <linkclipref>clipitem-749</linkclipref>
              <mediatype>audio</mediatype>
              <trackindex>6</trackindex>
              <clipindex>1</clipindex>
              <groupindex>1</groupindex>
            </link>
          </clipitem>
          <clipitem id="clipitem-750">
            <masterclipid>masterclip-3</masterclipid>
            <name>2023-03-30 21-15-31艾许决赛圈2V6 8KCC.mp4</name>
            <enabled>TRUE</enabled>
            <rate>
              <timebase>60</timebase>
              <ntsc>FALSE</ntsc>
            </rate>
            <start>14790</start>
            <end>14971</end>
            <in>70185</in>
            <out>70366</out>
            <alphatype>none</alphatype>
            <pixelaspectratio>square</pixelaspectratio>
            <anamorphic>FALSE</anamorphic>
            <file id="file-3">
              <name>2023-03-30 21-15-31艾许决赛圈2V6 8KCC.mp4</name>
              <pathurl>file%3A//localhost/F%3A/MEDIA/APEX/2023-03-30%2021-15-31%E8%89%BE%E8%AE%B8%E5%86%B3%E8%B5%9B%E5%9C%882V6%208KCC.mp4</pathurl>
              <media>
                <video>
                  <samplecharacteristics>
                    <rate>
                      <timebase>60</timebase>
                      <ntsc>FALSE</ntsc>
                    </rate>
                    <width>1920</width>
                    <height>1080</height>
                    <anamorphic>FALSE</anamorphic>
                    <pixelaspectratio>square</pixelaspectratio>
                    <fielddominance>none</fielddominance>
                  </samplecharacteristics>
                </video>
                <audio>
                  <samplecharacteristics>
                    <depth>16</depth>
                    <samplerate>48000</samplerate>
                  </samplecharacteristics>
                  <channelcount>2</channelcount>
                </audio>
                <audio>
                  <samplecharacteristics>
                    <depth>16</depth>
                    <samplerate>48000</samplerate>
                  </samplecharacteristics>
                  <channelcount>2</channelcount>
                </audio>
                <audio>
                  <samplecharacteristics>
                    <depth>16</depth>
                    <samplerate>48000</samplerate>
                  </samplecharacteristics>
                  <channelcount>2</channelcount>
                </audio>
              </media>
            </file>
            <link>
              <linkclipref>clipitem-750</linkclipref>
              <mediatype>video</mediatype>
              <trackindex>1</trackindex>
              <clipindex>1</clipindex>
            </link>
            <link>
              <linkclipref>clipitem-751</linkclipref>
              <mediatype>audio</mediatype>
              <trackindex>1</trackindex>
              <clipindex>1</clipindex>
              <groupindex>1</groupindex>
            </link>
            <link>
              <linkclipref>clipitem-752</linkclipref>
              <mediatype>audio</mediatype>
              <trackindex>2</trackindex>
              <clipindex>1</clipindex>
              <groupindex>1</groupindex>
            </link>
            <link>
              <linkclipref>clipitem-753</linkclipref>
              <mediatype>audio</mediatype>
              <trackindex>3</trackindex>
              <clipindex>1</clipindex>
              <groupindex>1</groupindex>
            </link>
            <link>
              <linkclipref>clipitem-754</linkclipref>
              <mediatype>audio</mediatype>
              <trackindex>4</trackindex>
              <clipindex>1</clipindex>
              <groupindex>1</groupindex>
            </link>
            <link>
              <linkclipref>clipitem-755</linkclipref>
              <mediatype>audio</mediatype>
              <trackindex>5</trackindex>
              <clipindex>1</clipindex>
              <groupindex>1</groupindex>
            </link>
            <link>
              <linkclipref>clipitem-756</linkclipref>
              <mediatype>audio</mediatype>
              <trackindex>6</trackindex>
              <clipindex>1</clipindex>
              <groupindex>1</groupindex>
            </link>
          </clipitem>
          <clipitem id="clipitem-757">
            <masterclipid>masterclip-3</masterclipid>
            <name>2023-03-30 21-15-31艾许决赛圈2V6 8KCC.mp4</name>
            <enabled>TRUE</enabled>
            <rate>
              <timebase>60</timebase>
              <ntsc>FALSE</ntsc>
            </rate>
            <start>14971</start>
            <end>15120</end>
            <in>70493</in>
            <out>70642</out>
            <alphatype>none</alphatype>
            <pixelaspectratio>square</pixelaspectratio>
            <anamorphic>FALSE</anamorphic>
            <file id="file-3">
              <name>2023-03-30 21-15-31艾许决赛圈2V6 8KCC.mp4</name>
              <pathurl>file%3A//localhost/F%3A/MEDIA/APEX/2023-03-30%2021-15-31%E8%89%BE%E8%AE%B8%E5%86%B3%E8%B5%9B%E5%9C%882V6%208KCC.mp4</pathurl>
              <media>
                <video>
                  <samplecharacteristics>
                    <rate>
                      <timebase>60</timebase>
                      <ntsc>FALSE</ntsc>
                    </rate>
                    <width>1920</width>
                    <height>1080</height>
                    <anamorphic>FALSE</anamorphic>
                    <pixelaspectratio>square</pixelaspectratio>
                    <fielddominance>none</fielddominance>
                  </samplecharacteristics>
                </video>
                <audio>
                  <samplecharacteristics>
                    <depth>16</depth>
                    <samplerate>48000</samplerate>
                  </samplecharacteristics>
                  <channelcount>2</channelcount>
                </audio>
                <audio>
                  <samplecharacteristics>
                    <depth>16</depth>
                    <samplerate>48000</samplerate>
                  </samplecharacteristics>
                  <channelcount>2</channelcount>
                </audio>
                <audio>
                  <samplecharacteristics>
                    <depth>16</depth>
                    <samplerate>48000</samplerate>
                  </samplecharacteristics>
                  <channelcount>2</channelcount>
                </audio>
              </media>
            </file>
            <link>
              <linkclipref>clipitem-757</linkclipref>
              <mediatype>video</mediatype>
              <trackindex>1</trackindex>
              <clipindex>1</clipindex>
            </link>
            <link>
              <linkclipref>clipitem-758</linkclipref>
              <mediatype>audio</mediatype>
              <trackindex>1</trackindex>
              <clipindex>1</clipindex>
              <groupindex>1</groupindex>
            </link>
            <link>
              <linkclipref>clipitem-759</linkclipref>
              <mediatype>audio</mediatype>
              <trackindex>2</trackindex>
              <clipindex>1</clipindex>
              <groupindex>1</groupindex>
            </link>
            <link>
              <linkclipref>clipitem-760</linkclipref>
              <mediatype>audio</mediatype>
              <trackindex>3</trackindex>
              <clipindex>1</clipindex>
              <groupindex>1</groupindex>
            </link>
            <link>
              <linkclipref>clipitem-761</linkclipref>
              <mediatype>audio</mediatype>
              <trackindex>4</trackindex>
              <clipindex>1</clipindex>
              <groupindex>1</groupindex>
            </link>
            <link>
              <linkclipref>clipitem-762</linkclipref>
              <mediatype>audio</mediatype>
              <trackindex>5</trackindex>
              <clipindex>1</clipindex>
              <groupindex>1</groupindex>
            </link>
            <link>
              <linkclipref>clipitem-763</linkclipref>
              <mediatype>audio</mediatype>
              <trackindex>6</trackindex>
              <clipindex>1</clipindex>
              <groupindex>1</groupindex>
            </link>
          </clipitem>
          <clipitem id="clipitem-764">
            <masterclipid>masterclip-3</masterclipid>
            <name>2023-03-30 21-15-31艾许决赛圈2V6 8KCC.mp4</name>
            <enabled>TRUE</enabled>
            <rate>
              <timebase>60</timebase>
              <ntsc>FALSE</ntsc>
            </rate>
            <start>15120</start>
            <end>15197</end>
            <in>70712</in>
            <out>70789</out>
            <alphatype>none</alphatype>
            <pixelaspectratio>square</pixelaspectratio>
            <anamorphic>FALSE</anamorphic>
            <file id="file-3">
              <name>2023-03-30 21-15-31艾许决赛圈2V6 8KCC.mp4</name>
              <pathurl>file%3A//localhost/F%3A/MEDIA/APEX/2023-03-30%2021-15-31%E8%89%BE%E8%AE%B8%E5%86%B3%E8%B5%9B%E5%9C%882V6%208KCC.mp4</pathurl>
              <media>
                <video>
                  <samplecharacteristics>
                    <rate>
                      <timebase>60</timebase>
                      <ntsc>FALSE</ntsc>
                    </rate>
                    <width>1920</width>
                    <height>1080</height>
                    <anamorphic>FALSE</anamorphic>
                    <pixelaspectratio>square</pixelaspectratio>
                    <fielddominance>none</fielddominance>
                  </samplecharacteristics>
                </video>
                <audio>
                  <samplecharacteristics>
                    <depth>16</depth>
                    <samplerate>48000</samplerate>
                  </samplecharacteristics>
                  <channelcount>2</channelcount>
                </audio>
                <audio>
                  <samplecharacteristics>
                    <depth>16</depth>
                    <samplerate>48000</samplerate>
                  </samplecharacteristics>
                  <channelcount>2</channelcount>
                </audio>
                <audio>
                  <samplecharacteristics>
                    <depth>16</depth>
                    <samplerate>48000</samplerate>
                  </samplecharacteristics>
                  <channelcount>2</channelcount>
                </audio>
              </media>
            </file>
            <link>
              <linkclipref>clipitem-764</linkclipref>
              <mediatype>video</mediatype>
              <trackindex>1</trackindex>
              <clipindex>1</clipindex>
            </link>
            <link>
              <linkclipref>clipitem-765</linkclipref>
              <mediatype>audio</mediatype>
              <trackindex>1</trackindex>
              <clipindex>1</clipindex>
              <groupindex>1</groupindex>
            </link>
            <link>
              <linkclipref>clipitem-766</linkclipref>
              <mediatype>audio</mediatype>
              <trackindex>2</trackindex>
              <clipindex>1</clipindex>
              <groupindex>1</groupindex>
            </link>
            <link>
              <linkclipref>clipitem-767</linkclipref>
              <mediatype>audio</mediatype>
              <trackindex>3</trackindex>
              <clipindex>1</clipindex>
              <groupindex>1</groupindex>
            </link>
            <link>
              <linkclipref>clipitem-768</linkclipref>
              <mediatype>audio</mediatype>
              <trackindex>4</trackindex>
              <clipindex>1</clipindex>
              <groupindex>1</groupindex>
            </link>
            <link>
              <linkclipref>clipitem-769</linkclipref>
              <mediatype>audio</mediatype>
              <trackindex>5</trackindex>
              <clipindex>1</clipindex>
              <groupindex>1</groupindex>
            </link>
            <link>
              <linkclipref>clipitem-770</linkclipref>
              <mediatype>audio</mediatype>
              <trackindex>6</trackindex>
              <clipindex>1</clipindex>
              <groupindex>1</groupindex>
            </link>
          </clipitem>
          <clipitem id="clipitem-771">
            <masterclipid>masterclip-3</masterclipid>
            <name>2023-03-30 21-15-31艾许决赛圈2V6 8KCC.mp4</name>
            <enabled>TRUE</enabled>
            <rate>
              <timebase>60</timebase>
              <ntsc>FALSE</ntsc>
            </rate>
            <start>15197</start>
            <end>15364</end>
            <in>70867</in>
            <out>71034</out>
            <alphatype>none</alphatype>
            <pixelaspectratio>square</pixelaspectratio>
            <anamorphic>FALSE</anamorphic>
            <file id="file-3">
              <name>2023-03-30 21-15-31艾许决赛圈2V6 8KCC.mp4</name>
              <pathurl>file%3A//localhost/F%3A/MEDIA/APEX/2023-03-30%2021-15-31%E8%89%BE%E8%AE%B8%E5%86%B3%E8%B5%9B%E5%9C%882V6%208KCC.mp4</pathurl>
              <media>
                <video>
                  <samplecharacteristics>
                    <rate>
                      <timebase>60</timebase>
                      <ntsc>FALSE</ntsc>
                    </rate>
                    <width>1920</width>
                    <height>1080</height>
                    <anamorphic>FALSE</anamorphic>
                    <pixelaspectratio>square</pixelaspectratio>
                    <fielddominance>none</fielddominance>
                  </samplecharacteristics>
                </video>
                <audio>
                  <samplecharacteristics>
                    <depth>16</depth>
                    <samplerate>48000</samplerate>
                  </samplecharacteristics>
                  <channelcount>2</channelcount>
                </audio>
                <audio>
                  <samplecharacteristics>
                    <depth>16</depth>
                    <samplerate>48000</samplerate>
                  </samplecharacteristics>
                  <channelcount>2</channelcount>
                </audio>
                <audio>
                  <samplecharacteristics>
                    <depth>16</depth>
                    <samplerate>48000</samplerate>
                  </samplecharacteristics>
                  <channelcount>2</channelcount>
                </audio>
              </media>
            </file>
            <link>
              <linkclipref>clipitem-771</linkclipref>
              <mediatype>video</mediatype>
              <trackindex>1</trackindex>
              <clipindex>1</clipindex>
            </link>
            <link>
              <linkclipref>clipitem-772</linkclipref>
              <mediatype>audio</mediatype>
              <trackindex>1</trackindex>
              <clipindex>1</clipindex>
              <groupindex>1</groupindex>
            </link>
            <link>
              <linkclipref>clipitem-773</linkclipref>
              <mediatype>audio</mediatype>
              <trackindex>2</trackindex>
              <clipindex>1</clipindex>
              <groupindex>1</groupindex>
            </link>
            <link>
              <linkclipref>clipitem-774</linkclipref>
              <mediatype>audio</mediatype>
              <trackindex>3</trackindex>
              <clipindex>1</clipindex>
              <groupindex>1</groupindex>
            </link>
            <link>
              <linkclipref>clipitem-775</linkclipref>
              <mediatype>audio</mediatype>
              <trackindex>4</trackindex>
              <clipindex>1</clipindex>
              <groupindex>1</groupindex>
            </link>
            <link>
              <linkclipref>clipitem-776</linkclipref>
              <mediatype>audio</mediatype>
              <trackindex>5</trackindex>
              <clipindex>1</clipindex>
              <groupindex>1</groupindex>
            </link>
            <link>
              <linkclipref>clipitem-777</linkclipref>
              <mediatype>audio</mediatype>
              <trackindex>6</trackindex>
              <clipindex>1</clipindex>
              <groupindex>1</groupindex>
            </link>
          </clipitem>
          <clipitem id="clipitem-778">
            <masterclipid>masterclip-3</masterclipid>
            <name>2023-03-30 21-15-31艾许决赛圈2V6 8KCC.mp4</name>
            <enabled>TRUE</enabled>
            <rate>
              <timebase>60</timebase>
              <ntsc>FALSE</ntsc>
            </rate>
            <start>15364</start>
            <end>15429</end>
            <in>72138</in>
            <out>72203</out>
            <alphatype>none</alphatype>
            <pixelaspectratio>square</pixelaspectratio>
            <anamorphic>FALSE</anamorphic>
            <file id="file-3">
              <name>2023-03-30 21-15-31艾许决赛圈2V6 8KCC.mp4</name>
              <pathurl>file%3A//localhost/F%3A/MEDIA/APEX/2023-03-30%2021-15-31%E8%89%BE%E8%AE%B8%E5%86%B3%E8%B5%9B%E5%9C%882V6%208KCC.mp4</pathurl>
              <media>
                <video>
                  <samplecharacteristics>
                    <rate>
                      <timebase>60</timebase>
                      <ntsc>FALSE</ntsc>
                    </rate>
                    <width>1920</width>
                    <height>1080</height>
                    <anamorphic>FALSE</anamorphic>
                    <pixelaspectratio>square</pixelaspectratio>
                    <fielddominance>none</fielddominance>
                  </samplecharacteristics>
                </video>
                <audio>
                  <samplecharacteristics>
                    <depth>16</depth>
                    <samplerate>48000</samplerate>
                  </samplecharacteristics>
                  <channelcount>2</channelcount>
                </audio>
                <audio>
                  <samplecharacteristics>
                    <depth>16</depth>
                    <samplerate>48000</samplerate>
                  </samplecharacteristics>
                  <channelcount>2</channelcount>
                </audio>
                <audio>
                  <samplecharacteristics>
                    <depth>16</depth>
                    <samplerate>48000</samplerate>
                  </samplecharacteristics>
                  <channelcount>2</channelcount>
                </audio>
              </media>
            </file>
            <link>
              <linkclipref>clipitem-778</linkclipref>
              <mediatype>video</mediatype>
              <trackindex>1</trackindex>
              <clipindex>1</clipindex>
            </link>
            <link>
              <linkclipref>clipitem-779</linkclipref>
              <mediatype>audio</mediatype>
              <trackindex>1</trackindex>
              <clipindex>1</clipindex>
              <groupindex>1</groupindex>
            </link>
            <link>
              <linkclipref>clipitem-780</linkclipref>
              <mediatype>audio</mediatype>
              <trackindex>2</trackindex>
              <clipindex>1</clipindex>
              <groupindex>1</groupindex>
            </link>
            <link>
              <linkclipref>clipitem-781</linkclipref>
              <mediatype>audio</mediatype>
              <trackindex>3</trackindex>
              <clipindex>1</clipindex>
              <groupindex>1</groupindex>
            </link>
            <link>
              <linkclipref>clipitem-782</linkclipref>
              <mediatype>audio</mediatype>
              <trackindex>4</trackindex>
              <clipindex>1</clipindex>
              <groupindex>1</groupindex>
            </link>
            <link>
              <linkclipref>clipitem-783</linkclipref>
              <mediatype>audio</mediatype>
              <trackindex>5</trackindex>
              <clipindex>1</clipindex>
              <groupindex>1</groupindex>
            </link>
            <link>
              <linkclipref>clipitem-784</linkclipref>
              <mediatype>audio</mediatype>
              <trackindex>6</trackindex>
              <clipindex>1</clipindex>
              <groupindex>1</groupindex>
            </link>
          </clipitem>
          <clipitem id="clipitem-785">
            <masterclipid>masterclip-3</masterclipid>
            <name>2023-03-30 21-15-31艾许决赛圈2V6 8KCC.mp4</name>
            <enabled>TRUE</enabled>
            <rate>
              <timebase>60</timebase>
              <ntsc>FALSE</ntsc>
            </rate>
            <start>15429</start>
            <end>15575</end>
            <in>72355</in>
            <out>72501</out>
            <alphatype>none</alphatype>
            <pixelaspectratio>square</pixelaspectratio>
            <anamorphic>FALSE</anamorphic>
            <file id="file-3">
              <name>2023-03-30 21-15-31艾许决赛圈2V6 8KCC.mp4</name>
              <pathurl>file%3A//localhost/F%3A/MEDIA/APEX/2023-03-30%2021-15-31%E8%89%BE%E8%AE%B8%E5%86%B3%E8%B5%9B%E5%9C%882V6%208KCC.mp4</pathurl>
              <media>
                <video>
                  <samplecharacteristics>
                    <rate>
                      <timebase>60</timebase>
                      <ntsc>FALSE</ntsc>
                    </rate>
                    <width>1920</width>
                    <height>1080</height>
                    <anamorphic>FALSE</anamorphic>
                    <pixelaspectratio>square</pixelaspectratio>
                    <fielddominance>none</fielddominance>
                  </samplecharacteristics>
                </video>
                <audio>
                  <samplecharacteristics>
                    <depth>16</depth>
                    <samplerate>48000</samplerate>
                  </samplecharacteristics>
                  <channelcount>2</channelcount>
                </audio>
                <audio>
                  <samplecharacteristics>
                    <depth>16</depth>
                    <samplerate>48000</samplerate>
                  </samplecharacteristics>
                  <channelcount>2</channelcount>
                </audio>
                <audio>
                  <samplecharacteristics>
                    <depth>16</depth>
                    <samplerate>48000</samplerate>
                  </samplecharacteristics>
                  <channelcount>2</channelcount>
                </audio>
              </media>
            </file>
            <link>
              <linkclipref>clipitem-785</linkclipref>
              <mediatype>video</mediatype>
              <trackindex>1</trackindex>
              <clipindex>1</clipindex>
            </link>
            <link>
              <linkclipref>clipitem-786</linkclipref>
              <mediatype>audio</mediatype>
              <trackindex>1</trackindex>
              <clipindex>1</clipindex>
              <groupindex>1</groupindex>
            </link>
            <link>
              <linkclipref>clipitem-787</linkclipref>
              <mediatype>audio</mediatype>
              <trackindex>2</trackindex>
              <clipindex>1</clipindex>
              <groupindex>1</groupindex>
            </link>
            <link>
              <linkclipref>clipitem-788</linkclipref>
              <mediatype>audio</mediatype>
              <trackindex>3</trackindex>
              <clipindex>1</clipindex>
              <groupindex>1</groupindex>
            </link>
            <link>
              <linkclipref>clipitem-789</linkclipref>
              <mediatype>audio</mediatype>
              <trackindex>4</trackindex>
              <clipindex>1</clipindex>
              <groupindex>1</groupindex>
            </link>
            <link>
              <linkclipref>clipitem-790</linkclipref>
              <mediatype>audio</mediatype>
              <trackindex>5</trackindex>
              <clipindex>1</clipindex>
              <groupindex>1</groupindex>
            </link>
            <link>
              <linkclipref>clipitem-791</linkclipref>
              <mediatype>audio</mediatype>
              <trackindex>6</trackindex>
              <clipindex>1</clipindex>
              <groupindex>1</groupindex>
            </link>
          </clipitem>
          <clipitem id="clipitem-792">
            <masterclipid>masterclip-3</masterclipid>
            <name>2023-03-30 21-15-31艾许决赛圈2V6 8KCC.mp4</name>
            <enabled>TRUE</enabled>
            <rate>
              <timebase>60</timebase>
              <ntsc>FALSE</ntsc>
            </rate>
            <start>15575</start>
            <end>15661</end>
            <in>72584</in>
            <out>72670</out>
            <alphatype>none</alphatype>
            <pixelaspectratio>square</pixelaspectratio>
            <anamorphic>FALSE</anamorphic>
            <file id="file-3">
              <name>2023-03-30 21-15-31艾许决赛圈2V6 8KCC.mp4</name>
              <pathurl>file%3A//localhost/F%3A/MEDIA/APEX/2023-03-30%2021-15-31%E8%89%BE%E8%AE%B8%E5%86%B3%E8%B5%9B%E5%9C%882V6%208KCC.mp4</pathurl>
              <media>
                <video>
                  <samplecharacteristics>
                    <rate>
                      <timebase>60</timebase>
                      <ntsc>FALSE</ntsc>
                    </rate>
                    <width>1920</width>
                    <height>1080</height>
                    <anamorphic>FALSE</anamorphic>
                    <pixelaspectratio>square</pixelaspectratio>
                    <fielddominance>none</fielddominance>
                  </samplecharacteristics>
                </video>
                <audio>
                  <samplecharacteristics>
                    <depth>16</depth>
                    <samplerate>48000</samplerate>
                  </samplecharacteristics>
                  <channelcount>2</channelcount>
                </audio>
                <audio>
                  <samplecharacteristics>
                    <depth>16</depth>
                    <samplerate>48000</samplerate>
                  </samplecharacteristics>
                  <channelcount>2</channelcount>
                </audio>
                <audio>
                  <samplecharacteristics>
                    <depth>16</depth>
                    <samplerate>48000</samplerate>
                  </samplecharacteristics>
                  <channelcount>2</channelcount>
                </audio>
              </media>
            </file>
            <link>
              <linkclipref>clipitem-792</linkclipref>
              <mediatype>video</mediatype>
              <trackindex>1</trackindex>
              <clipindex>1</clipindex>
            </link>
            <link>
              <linkclipref>clipitem-793</linkclipref>
              <mediatype>audio</mediatype>
              <trackindex>1</trackindex>
              <clipindex>1</clipindex>
              <groupindex>1</groupindex>
            </link>
            <link>
              <linkclipref>clipitem-794</linkclipref>
              <mediatype>audio</mediatype>
              <trackindex>2</trackindex>
              <clipindex>1</clipindex>
              <groupindex>1</groupindex>
            </link>
            <link>
              <linkclipref>clipitem-795</linkclipref>
              <mediatype>audio</mediatype>
              <trackindex>3</trackindex>
              <clipindex>1</clipindex>
              <groupindex>1</groupindex>
            </link>
            <link>
              <linkclipref>clipitem-796</linkclipref>
              <mediatype>audio</mediatype>
              <trackindex>4</trackindex>
              <clipindex>1</clipindex>
              <groupindex>1</groupindex>
            </link>
            <link>
              <linkclipref>clipitem-797</linkclipref>
              <mediatype>audio</mediatype>
              <trackindex>5</trackindex>
              <clipindex>1</clipindex>
              <groupindex>1</groupindex>
            </link>
            <link>
              <linkclipref>clipitem-798</linkclipref>
              <mediatype>audio</mediatype>
              <trackindex>6</trackindex>
              <clipindex>1</clipindex>
              <groupindex>1</groupindex>
            </link>
          </clipitem>
        </track>
      </video>
      <audio>
        <numOutputChannels>2</numOutputChannels>
        <format>
          <samplecharacteristics>
            <depth>16</depth>
            <samplerate>48000</samplerate>
          </samplecharacteristics>
        </format>
        <outputs>
          <group>
            <index>1</index>
            <numchannels>1</numchannels>
            <downmix>0</downmix>
            <channel>
              <index>1</index>
            </channel>
          </group>
          <group>
            <index>2</index>
            <numchannels>1</numchannels>
            <downmix>0</downmix>
            <channel>
              <index>2</index>
            </channel>
          </group>
        </outputs>
        <track TL.SQTrackAudioKeyframeStyle="0" TL.SQTrackShy="0" TL.SQTrackExpandedHeight="25" TL.SQTrackExpanded="0" MZ.TrackTargeted="1" PannerCurrentValue="0.5" PannerIsInverted="true" PannerStartKeyframe="-91445760000000000,0.5,0,0,0,0,0,0" PannerName="平衡" currentExplodedTrackIndex="0" totalExplodedTrackCount="2" premiereTrackType="Stereo">
          <clipitem id="clipitem-2" premiereChannelType="Stereo">
            <masterclipid>masterclip-1</masterclipid>
            <name>2023-04-01 14-56-52溪神带上钻局CC.mp4</name>
            <enabled>TRUE</enabled>
            <rate>
              <timebase>60</timebase>
              <ntsc>FALSE</ntsc>
            </rate>
            <start>0</start>
            <end>17</end>
            <in>3303</in>
            <out>3320</out>
            <file id="file-1"/>
            <sourcetrack>
              <mediatype>audio</mediatype>
              <trackindex>1</trackindex>
            </sourcetrack>
            <link>
              <linkclipref>clipitem-1</linkclipref>
              <mediatype>video</mediatype>
              <trackindex>1</trackindex>
              <clipindex>1</clipindex>
            </link>
            <link>
              <linkclipref>clipitem-2</linkclipref>
              <mediatype>audio</mediatype>
              <trackindex>1</trackindex>
              <clipindex>1</clipindex>
              <groupindex>1</groupindex>
            </link>
            <link>
              <linkclipref>clipitem-3</linkclipref>
              <mediatype>audio</mediatype>
              <trackindex>2</trackindex>
              <clipindex>1</clipindex>
              <groupindex>1</groupindex>
            </link>
            <link>
              <linkclipref>clipitem-4</linkclipref>
              <mediatype>audio</mediatype>
              <trackindex>3</trackindex>
              <clipindex>1</clipindex>
              <groupindex>1</groupindex>
            </link>
            <link>
              <linkclipref>clipitem-5</linkclipref>
              <mediatype>audio</mediatype>
              <trackindex>4</trackindex>
              <clipindex>1</clipindex>
              <groupindex>1</groupindex>
            </link>
            <link>
              <linkclipref>clipitem-6</linkclipref>
              <mediatype>audio</mediatype>
              <trackindex>5</trackindex>
              <clipindex>1</clipindex>
              <groupindex>1</groupindex>
            </link>
            <link>
              <linkclipref>clipitem-7</linkclipref>
              <mediatype>audio</mediatype>
              <trackindex>6</trackindex>
              <clipindex>1</clipindex>
              <groupindex>1</groupindex>
            </link>
          </clipitem>
          <clipitem id="clipitem-9" premiereChannelType="Stereo">
            <masterclipid>masterclip-1</masterclipid>
            <name>2023-04-01 14-56-52溪神带上钻局CC.mp4</name>
            <enabled>TRUE</enabled>
            <rate>
              <timebase>60</timebase>
              <ntsc>FALSE</ntsc>
            </rate>
            <start>17</start>
            <end>27</end>
            <in>6094</in>
            <out>6104</out>
            <file id="file-1"/>
            <sourcetrack>
              <mediatype>audio</mediatype>
              <trackindex>1</trackindex>
            </sourcetrack>
            <link>
              <linkclipref>clipitem-8</linkclipref>
              <mediatype>video</mediatype>
              <trackindex>1</trackindex>
              <clipindex>1</clipindex>
            </link>
            <link>
              <linkclipref>clipitem-9</linkclipref>
              <mediatype>audio</mediatype>
              <trackindex>1</trackindex>
              <clipindex>1</clipindex>
              <groupindex>1</groupindex>
            </link>
            <link>
              <linkclipref>clipitem-10</linkclipref>
              <mediatype>audio</mediatype>
              <trackindex>2</trackindex>
              <clipindex>1</clipindex>
              <groupindex>1</groupindex>
            </link>
            <link>
              <linkclipref>clipitem-11</linkclipref>
              <mediatype>audio</mediatype>
              <trackindex>3</trackindex>
              <clipindex>1</clipindex>
              <groupindex>1</groupindex>
            </link>
            <link>
              <linkclipref>clipitem-12</linkclipref>
              <mediatype>audio</mediatype>
              <trackindex>4</trackindex>
              <clipindex>1</clipindex>
              <groupindex>1</groupindex>
            </link>
            <link>
              <linkclipref>clipitem-13</linkclipref>
              <mediatype>audio</mediatype>
              <trackindex>5</trackindex>
              <clipindex>1</clipindex>
              <groupindex>1</groupindex>
            </link>
            <link>
              <linkclipref>clipitem-14</linkclipref>
              <mediatype>audio</mediatype>
              <trackindex>6</trackindex>
              <clipindex>1</clipindex>
              <groupindex>1</groupindex>
            </link>
          </clipitem>
          <clipitem id="clipitem-16" premiereChannelType="Stereo">
            <masterclipid>masterclip-1</masterclipid>
            <name>2023-04-01 14-56-52溪神带上钻局CC.mp4</name>
            <enabled>TRUE</enabled>
            <rate>
              <timebase>60</timebase>
              <ntsc>FALSE</ntsc>
            </rate>
            <start>27</start>
            <end>38</end>
            <in>6096</in>
            <out>6107</out>
            <file id="file-1"/>
            <sourcetrack>
              <mediatype>audio</mediatype>
              <trackindex>1</trackindex>
            </sourcetrack>
            <link>
              <linkclipref>clipitem-15</linkclipref>
              <mediatype>video</mediatype>
              <trackindex>1</trackindex>
              <clipindex>1</clipindex>
            </link>
            <link>
              <linkclipref>clipitem-16</linkclipref>
              <mediatype>audio</mediatype>
              <trackindex>1</trackindex>
              <clipindex>1</clipindex>
              <groupindex>1</groupindex>
            </link>
            <link>
              <linkclipref>clipitem-17</linkclipref>
              <mediatype>audio</mediatype>
              <trackindex>2</trackindex>
              <clipindex>1</clipindex>
              <groupindex>1</groupindex>
            </link>
            <link>
              <linkclipref>clipitem-18</linkclipref>
              <mediatype>audio</mediatype>
              <trackindex>3</trackindex>
              <clipindex>1</clipindex>
              <groupindex>1</groupindex>
            </link>
            <link>
              <linkclipref>clipitem-19</linkclipref>
              <mediatype>audio</mediatype>
              <trackindex>4</trackindex>
              <clipindex>1</clipindex>
              <groupindex>1</groupindex>
            </link>
            <link>
              <linkclipref>clipitem-20</linkclipref>
              <mediatype>audio</mediatype>
              <trackindex>5</trackindex>
              <clipindex>1</clipindex>
              <groupindex>1</groupindex>
            </link>
            <link>
              <linkclipref>clipitem-21</linkclipref>
              <mediatype>audio</mediatype>
              <trackindex>6</trackindex>
              <clipindex>1</clipindex>
              <groupindex>1</groupindex>
            </link>
          </clipitem>
          <clipitem id="clipitem-23" premiereChannelType="Stereo">
            <masterclipid>masterclip-1</masterclipid>
            <name>2023-04-01 14-56-52溪神带上钻局CC.mp4</name>
            <enabled>TRUE</enabled>
            <rate>
              <timebase>60</timebase>
              <ntsc>FALSE</ntsc>
            </rate>
            <start>38</start>
            <end>174</end>
            <in>15816</in>
            <out>15952</out>
            <file id="file-1"/>
            <sourcetrack>
              <mediatype>audio</mediatype>
              <trackindex>1</trackindex>
            </sourcetrack>
            <link>
              <linkclipref>clipitem-22</linkclipref>
              <mediatype>video</mediatype>
              <trackindex>1</trackindex>
              <clipindex>1</clipindex>
            </link>
            <link>
              <linkclipref>clipitem-23</linkclipref>
              <mediatype>audio</mediatype>
              <trackindex>1</trackindex>
              <clipindex>1</clipindex>
              <groupindex>1</groupindex>
            </link>
            <link>
              <linkclipref>clipitem-24</linkclipref>
              <mediatype>audio</mediatype>
              <trackindex>2</trackindex>
              <clipindex>1</clipindex>
              <groupindex>1</groupindex>
            </link>
            <link>
              <linkclipref>clipitem-25</linkclipref>
              <mediatype>audio</mediatype>
              <trackindex>3</trackindex>
              <clipindex>1</clipindex>
              <groupindex>1</groupindex>
            </link>
            <link>
              <linkclipref>clipitem-26</linkclipref>
              <mediatype>audio</mediatype>
              <trackindex>4</trackindex>
              <clipindex>1</clipindex>
              <groupindex>1</groupindex>
            </link>
            <link>
              <linkclipref>clipitem-27</linkclipref>
              <mediatype>audio</mediatype>
              <trackindex>5</trackindex>
              <clipindex>1</clipindex>
              <groupindex>1</groupindex>
            </link>
            <link>
              <linkclipref>clipitem-28</linkclipref>
              <mediatype>audio</mediatype>
              <trackindex>6</trackindex>
              <clipindex>1</clipindex>
              <groupindex>1</groupindex>
            </link>
          </clipitem>
          <clipitem id="clipitem-30" premiereChannelType="Stereo">
            <masterclipid>masterclip-1</masterclipid>
            <name>2023-04-01 14-56-52溪神带上钻局CC.mp4</name>
            <enabled>TRUE</enabled>
            <rate>
              <timebase>60</timebase>
              <ntsc>FALSE</ntsc>
            </rate>
            <start>174</start>
            <end>347</end>
            <in>15978</in>
            <out>16151</out>
            <file id="file-1"/>
            <sourcetrack>
              <mediatype>audio</mediatype>
              <trackindex>1</trackindex>
            </sourcetrack>
            <link>
              <linkclipref>clipitem-29</linkclipref>
              <mediatype>video</mediatype>
              <trackindex>1</trackindex>
              <clipindex>1</clipindex>
            </link>
            <link>
              <linkclipref>clipitem-30</linkclipref>
              <mediatype>audio</mediatype>
              <trackindex>1</trackindex>
              <clipindex>1</clipindex>
              <groupindex>1</groupindex>
            </link>
            <link>
              <linkclipref>clipitem-31</linkclipref>
              <mediatype>audio</mediatype>
              <trackindex>2</trackindex>
              <clipindex>1</clipindex>
              <groupindex>1</groupindex>
            </link>
            <link>
              <linkclipref>clipitem-32</linkclipref>
              <mediatype>audio</mediatype>
              <trackindex>3</trackindex>
              <clipindex>1</clipindex>
              <groupindex>1</groupindex>
            </link>
            <link>
              <linkclipref>clipitem-33</linkclipref>
              <mediatype>audio</mediatype>
              <trackindex>4</trackindex>
              <clipindex>1</clipindex>
              <groupindex>1</groupindex>
            </link>
            <link>
              <linkclipref>clipitem-34</linkclipref>
              <mediatype>audio</mediatype>
              <trackindex>5</trackindex>
              <clipindex>1</clipindex>
              <groupindex>1</groupindex>
            </link>
            <link>
              <linkclipref>clipitem-35</linkclipref>
              <mediatype>audio</mediatype>
              <trackindex>6</trackindex>
              <clipindex>1</clipindex>
              <groupindex>1</groupindex>
            </link>
          </clipitem>
          <clipitem id="clipitem-37" premiereChannelType="Stereo">
            <masterclipid>masterclip-1</masterclipid>
            <name>2023-04-01 14-56-52溪神带上钻局CC.mp4</name>
            <enabled>TRUE</enabled>
            <rate>
              <timebase>60</timebase>
              <ntsc>FALSE</ntsc>
            </rate>
            <start>347</start>
            <end>454</end>
            <in>16564</in>
            <out>16671</out>
            <file id="file-1"/>
            <sourcetrack>
              <mediatype>audio</mediatype>
              <trackindex>1</trackindex>
            </sourcetrack>
            <link>
              <linkclipref>clipitem-36</linkclipref>
              <mediatype>video</mediatype>
              <trackindex>1</trackindex>
              <clipindex>1</clipindex>
            </link>
            <link>
              <linkclipref>clipitem-37</linkclipref>
              <mediatype>audio</mediatype>
              <trackindex>1</trackindex>
              <clipindex>1</clipindex>
              <groupindex>1</groupindex>
            </link>
            <link>
              <linkclipref>clipitem-38</linkclipref>
              <mediatype>audio</mediatype>
              <trackindex>2</trackindex>
              <clipindex>1</clipindex>
              <groupindex>1</groupindex>
            </link>
            <link>
              <linkclipref>clipitem-39</linkclipref>
              <mediatype>audio</mediatype>
              <trackindex>3</trackindex>
              <clipindex>1</clipindex>
              <groupindex>1</groupindex>
            </link>
            <link>
              <linkclipref>clipitem-40</linkclipref>
              <mediatype>audio</mediatype>
              <trackindex>4</trackindex>
              <clipindex>1</clipindex>
              <groupindex>1</groupindex>
            </link>
            <link>
              <linkclipref>clipitem-41</linkclipref>
              <mediatype>audio</mediatype>
              <trackindex>5</trackindex>
              <clipindex>1</clipindex>
              <groupindex>1</groupindex>
            </link>
            <link>
              <linkclipref>clipitem-42</linkclipref>
              <mediatype>audio</mediatype>
              <trackindex>6</trackindex>
              <clipindex>1</clipindex>
              <groupindex>1</groupindex>
            </link>
          </clipitem>
          <clipitem id="clipitem-44" premiereChannelType="Stereo">
            <masterclipid>masterclip-1</masterclipid>
            <name>2023-04-01 14-56-52溪神带上钻局CC.mp4</name>
            <enabled>TRUE</enabled>
            <rate>
              <timebase>60</timebase>
              <ntsc>FALSE</ntsc>
            </rate>
            <start>454</start>
            <end>572</end>
            <in>17900</in>
            <out>18018</out>
            <file id="file-1"/>
            <sourcetrack>
              <mediatype>audio</mediatype>
              <trackindex>1</trackindex>
            </sourcetrack>
            <link>
              <linkclipref>clipitem-43</linkclipref>
              <mediatype>video</mediatype>
              <trackindex>1</trackindex>
              <clipindex>1</clipindex>
            </link>
            <link>
              <linkclipref>clipitem-44</linkclipref>
              <mediatype>audio</mediatype>
              <trackindex>1</trackindex>
              <clipindex>1</clipindex>
              <groupindex>1</groupindex>
            </link>
            <link>
              <linkclipref>clipitem-45</linkclipref>
              <mediatype>audio</mediatype>
              <trackindex>2</trackindex>
              <clipindex>1</clipindex>
              <groupindex>1</groupindex>
            </link>
            <link>
              <linkclipref>clipitem-46</linkclipref>
              <mediatype>audio</mediatype>
              <trackindex>3</trackindex>
              <clipindex>1</clipindex>
              <groupindex>1</groupindex>
            </link>
            <link>
              <linkclipref>clipitem-47</linkclipref>
              <mediatype>audio</mediatype>
              <trackindex>4</trackindex>
              <clipindex>1</clipindex>
              <groupindex>1</groupindex>
            </link>
            <link>
              <linkclipref>clipitem-48</linkclipref>
              <mediatype>audio</mediatype>
              <trackindex>5</trackindex>
              <clipindex>1</clipindex>
              <groupindex>1</groupindex>
            </link>
            <link>
              <linkclipref>clipitem-49</linkclipref>
              <mediatype>audio</mediatype>
              <trackindex>6</trackindex>
              <clipindex>1</clipindex>
              <groupindex>1</groupindex>
            </link>
          </clipitem>
          <clipitem id="clipitem-51" premiereChannelType="Stereo">
            <masterclipid>masterclip-1</masterclipid>
            <name>2023-04-01 14-56-52溪神带上钻局CC.mp4</name>
            <enabled>TRUE</enabled>
            <rate>
              <timebase>60</timebase>
              <ntsc>FALSE</ntsc>
            </rate>
            <start>572</start>
            <end>727</end>
            <in>20147</in>
            <out>20302</out>
            <file id="file-1"/>
            <sourcetrack>
              <mediatype>audio</mediatype>
              <trackindex>1</trackindex>
            </sourcetrack>
            <link>
              <linkclipref>clipitem-50</linkclipref>
              <mediatype>video</mediatype>
              <trackindex>1</trackindex>
              <clipindex>1</clipindex>
            </link>
            <link>
              <linkclipref>clipitem-51</linkclipref>
              <mediatype>audio</mediatype>
              <trackindex>1</trackindex>
              <clipindex>1</clipindex>
              <groupindex>1</groupindex>
            </link>
            <link>
              <linkclipref>clipitem-52</linkclipref>
              <mediatype>audio</mediatype>
              <trackindex>2</trackindex>
              <clipindex>1</clipindex>
              <groupindex>1</groupindex>
            </link>
            <link>
              <linkclipref>clipitem-53</linkclipref>
              <mediatype>audio</mediatype>
              <trackindex>3</trackindex>
              <clipindex>1</clipindex>
              <groupindex>1</groupindex>
            </link>
            <link>
              <linkclipref>clipitem-54</linkclipref>
              <mediatype>audio</mediatype>
              <trackindex>4</trackindex>
              <clipindex>1</clipindex>
              <groupindex>1</groupindex>
            </link>
            <link>
              <linkclipref>clipitem-55</linkclipref>
              <mediatype>audio</mediatype>
              <trackindex>5</trackindex>
              <clipindex>1</clipindex>
              <groupindex>1</groupindex>
            </link>
            <link>
              <linkclipref>clipitem-56</linkclipref>
              <mediatype>audio</mediatype>
              <trackindex>6</trackindex>
              <clipindex>1</clipindex>
              <groupindex>1</groupindex>
            </link>
          </clipitem>
          <clipitem id="clipitem-58" premiereChannelType="Stereo">
            <masterclipid>masterclip-1</masterclipid>
            <name>2023-04-01 14-56-52溪神带上钻局CC.mp4</name>
            <enabled>TRUE</enabled>
            <rate>
              <timebase>60</timebase>
              <ntsc>FALSE</ntsc>
            </rate>
            <start>727</start>
            <end>875</end>
            <in>21756</in>
            <out>21904</out>
            <file id="file-1"/>
            <sourcetrack>
              <mediatype>audio</mediatype>
              <trackindex>1</trackindex>
            </sourcetrack>
            <link>
              <linkclipref>clipitem-57</linkclipref>
              <mediatype>video</mediatype>
              <trackindex>1</trackindex>
              <clipindex>1</clipindex>
            </link>
            <link>
              <linkclipref>clipitem-58</linkclipref>
              <mediatype>audio</mediatype>
              <trackindex>1</trackindex>
              <clipindex>1</clipindex>
              <groupindex>1</groupindex>
            </link>
            <link>
              <linkclipref>clipitem-59</linkclipref>
              <mediatype>audio</mediatype>
              <trackindex>2</trackindex>
              <clipindex>1</clipindex>
              <groupindex>1</groupindex>
            </link>
            <link>
              <linkclipref>clipitem-60</linkclipref>
              <mediatype>audio</mediatype>
              <trackindex>3</trackindex>
              <clipindex>1</clipindex>
              <groupindex>1</groupindex>
            </link>
            <link>
              <linkclipref>clipitem-61</linkclipref>
              <mediatype>audio</mediatype>
              <trackindex>4</trackindex>
              <clipindex>1</clipindex>
              <groupindex>1</groupindex>
            </link>
            <link>
              <linkclipref>clipitem-62</linkclipref>
              <mediatype>audio</mediatype>
              <trackindex>5</trackindex>
              <clipindex>1</clipindex>
              <groupindex>1</groupindex>
            </link>
            <link>
              <linkclipref>clipitem-63</linkclipref>
              <mediatype>audio</mediatype>
              <trackindex>6</trackindex>
              <clipindex>1</clipindex>
              <groupindex>1</groupindex>
            </link>
          </clipitem>
          <clipitem id="clipitem-65" premiereChannelType="Stereo">
            <masterclipid>masterclip-1</masterclipid>
            <name>2023-04-01 14-56-52溪神带上钻局CC.mp4</name>
            <enabled>TRUE</enabled>
            <rate>
              <timebase>60</timebase>
              <ntsc>FALSE</ntsc>
            </rate>
            <start>875</start>
            <end>1011</end>
            <in>22231</in>
            <out>22367</out>
            <file id="file-1"/>
            <sourcetrack>
              <mediatype>audio</mediatype>
              <trackindex>1</trackindex>
            </sourcetrack>
            <link>
              <linkclipref>clipitem-64</linkclipref>
              <mediatype>video</mediatype>
              <trackindex>1</trackindex>
              <clipindex>1</clipindex>
            </link>
            <link>
              <linkclipref>clipitem-65</linkclipref>
              <mediatype>audio</mediatype>
              <trackindex>1</trackindex>
              <clipindex>1</clipindex>
              <groupindex>1</groupindex>
            </link>
            <link>
              <linkclipref>clipitem-66</linkclipref>
              <mediatype>audio</mediatype>
              <trackindex>2</trackindex>
              <clipindex>1</clipindex>
              <groupindex>1</groupindex>
            </link>
            <link>
              <linkclipref>clipitem-67</linkclipref>
              <mediatype>audio</mediatype>
              <trackindex>3</trackindex>
              <clipindex>1</clipindex>
              <groupindex>1</groupindex>
            </link>
            <link>
              <linkclipref>clipitem-68</linkclipref>
              <mediatype>audio</mediatype>
              <trackindex>4</trackindex>
              <clipindex>1</clipindex>
              <groupindex>1</groupindex>
            </link>
            <link>
              <linkclipref>clipitem-69</linkclipref>
              <mediatype>audio</mediatype>
              <trackindex>5</trackindex>
              <clipindex>1</clipindex>
              <groupindex>1</groupindex>
            </link>
            <link>
              <linkclipref>clipitem-70</linkclipref>
              <mediatype>audio</mediatype>
              <trackindex>6</trackindex>
              <clipindex>1</clipindex>
              <groupindex>1</groupindex>
            </link>
          </clipitem>
          <clipitem id="clipitem-72" premiereChannelType="Stereo">
            <masterclipid>masterclip-1</masterclipid>
            <name>2023-04-01 14-56-52溪神带上钻局CC.mp4</name>
            <enabled>TRUE</enabled>
            <rate>
              <timebase>60</timebase>
              <ntsc>FALSE</ntsc>
            </rate>
            <start>1011</start>
            <end>1086</end>
            <in>22676</in>
            <out>22751</out>
            <file id="file-1"/>
            <sourcetrack>
              <mediatype>audio</mediatype>
              <trackindex>1</trackindex>
            </sourcetrack>
            <link>
              <linkclipref>clipitem-71</linkclipref>
              <mediatype>video</mediatype>
              <trackindex>1</trackindex>
              <clipindex>1</clipindex>
            </link>
            <link>
              <linkclipref>clipitem-72</linkclipref>
              <mediatype>audio</mediatype>
              <trackindex>1</trackindex>
              <clipindex>1</clipindex>
              <groupindex>1</groupindex>
            </link>
            <link>
              <linkclipref>clipitem-73</linkclipref>
              <mediatype>audio</mediatype>
              <trackindex>2</trackindex>
              <clipindex>1</clipindex>
              <groupindex>1</groupindex>
            </link>
            <link>
              <linkclipref>clipitem-74</linkclipref>
              <mediatype>audio</mediatype>
              <trackindex>3</trackindex>
              <clipindex>1</clipindex>
              <groupindex>1</groupindex>
            </link>
            <link>
              <linkclipref>clipitem-75</linkclipref>
              <mediatype>audio</mediatype>
              <trackindex>4</trackindex>
              <clipindex>1</clipindex>
              <groupindex>1</groupindex>
            </link>
            <link>
              <linkclipref>clipitem-76</linkclipref>
              <mediatype>audio</mediatype>
              <trackindex>5</trackindex>
              <clipindex>1</clipindex>
              <groupindex>1</groupindex>
            </link>
            <link>
              <linkclipref>clipitem-77</linkclipref>
              <mediatype>audio</mediatype>
              <trackindex>6</trackindex>
              <clipindex>1</clipindex>
              <groupindex>1</groupindex>
            </link>
          </clipitem>
          <clipitem id="clipitem-79" premiereChannelType="Stereo">
            <masterclipid>masterclip-1</masterclipid>
            <name>2023-04-01 14-56-52溪神带上钻局CC.mp4</name>
            <enabled>TRUE</enabled>
            <rate>
              <timebase>60</timebase>
              <ntsc>FALSE</ntsc>
            </rate>
            <start>1086</start>
            <end>1222</end>
            <in>23095</in>
            <out>23231</out>
            <file id="file-1"/>
            <sourcetrack>
              <mediatype>audio</mediatype>
              <trackindex>1</trackindex>
            </sourcetrack>
            <link>
              <linkclipref>clipitem-78</linkclipref>
              <mediatype>video</mediatype>
              <trackindex>1</trackindex>
              <clipindex>1</clipindex>
            </link>
            <link>
              <linkclipref>clipitem-79</linkclipref>
              <mediatype>audio</mediatype>
              <trackindex>1</trackindex>
              <clipindex>1</clipindex>
              <groupindex>1</groupindex>
            </link>
            <link>
              <linkclipref>clipitem-80</linkclipref>
              <mediatype>audio</mediatype>
              <trackindex>2</trackindex>
              <clipindex>1</clipindex>
              <groupindex>1</groupindex>
            </link>
            <link>
              <linkclipref>clipitem-81</linkclipref>
              <mediatype>audio</mediatype>
              <trackindex>3</trackindex>
              <clipindex>1</clipindex>
              <groupindex>1</groupindex>
            </link>
            <link>
              <linkclipref>clipitem-82</linkclipref>
              <mediatype>audio</mediatype>
              <trackindex>4</trackindex>
              <clipindex>1</clipindex>
              <groupindex>1</groupindex>
            </link>
            <link>
              <linkclipref>clipitem-83</linkclipref>
              <mediatype>audio</mediatype>
              <trackindex>5</trackindex>
              <clipindex>1</clipindex>
              <groupindex>1</groupindex>
            </link>
            <link>
              <linkclipref>clipitem-84</linkclipref>
              <mediatype>audio</mediatype>
              <trackindex>6</trackindex>
              <clipindex>1</clipindex>
              <groupindex>1</groupindex>
            </link>
          </clipitem>
          <clipitem id="clipitem-86" premiereChannelType="Stereo">
            <masterclipid>masterclip-1</masterclipid>
            <name>2023-04-01 14-56-52溪神带上钻局CC.mp4</name>
            <enabled>TRUE</enabled>
            <rate>
              <timebase>60</timebase>
              <ntsc>FALSE</ntsc>
            </rate>
            <start>1222</start>
            <end>1377</end>
            <in>23363</in>
            <out>23518</out>
            <file id="file-1"/>
            <sourcetrack>
              <mediatype>audio</mediatype>
              <trackindex>1</trackindex>
            </sourcetrack>
            <link>
              <linkclipref>clipitem-85</linkclipref>
              <mediatype>video</mediatype>
              <trackindex>1</trackindex>
              <clipindex>1</clipindex>
            </link>
            <link>
              <linkclipref>clipitem-86</linkclipref>
              <mediatype>audio</mediatype>
              <trackindex>1</trackindex>
              <clipindex>1</clipindex>
              <groupindex>1</groupindex>
            </link>
            <link>
              <linkclipref>clipitem-87</linkclipref>
              <mediatype>audio</mediatype>
              <trackindex>2</trackindex>
              <clipindex>1</clipindex>
              <groupindex>1</groupindex>
            </link>
            <link>
              <linkclipref>clipitem-88</linkclipref>
              <mediatype>audio</mediatype>
              <trackindex>3</trackindex>
              <clipindex>1</clipindex>
              <groupindex>1</groupindex>
            </link>
            <link>
              <linkclipref>clipitem-89</linkclipref>
              <mediatype>audio</mediatype>
              <trackindex>4</trackindex>
              <clipindex>1</clipindex>
              <groupindex>1</groupindex>
            </link>
            <link>
              <linkclipref>clipitem-90</linkclipref>
              <mediatype>audio</mediatype>
              <trackindex>5</trackindex>
              <clipindex>1</clipindex>
              <groupindex>1</groupindex>
            </link>
            <link>
              <linkclipref>clipitem-91</linkclipref>
              <mediatype>audio</mediatype>
              <trackindex>6</trackindex>
              <clipindex>1</clipindex>
              <groupindex>1</groupindex>
            </link>
          </clipitem>
          <clipitem id="clipitem-93" premiereChannelType="Stereo">
            <masterclipid>masterclip-1</masterclipid>
            <name>2023-04-01 14-56-52溪神带上钻局CC.mp4</name>
            <enabled>TRUE</enabled>
            <rate>
              <timebase>60</timebase>
              <ntsc>FALSE</ntsc>
            </rate>
            <start>1377</start>
            <end>1585</end>
            <in>23972</in>
            <out>24180</out>
            <file id="file-1"/>
            <sourcetrack>
              <mediatype>audio</mediatype>
              <trackindex>1</trackindex>
            </sourcetrack>
            <link>
              <linkclipref>clipitem-92</linkclipref>
              <mediatype>video</mediatype>
              <trackindex>1</trackindex>
              <clipindex>1</clipindex>
            </link>
            <link>
              <linkclipref>clipitem-93</linkclipref>
              <mediatype>audio</mediatype>
              <trackindex>1</trackindex>
              <clipindex>1</clipindex>
              <groupindex>1</groupindex>
            </link>
            <link>
              <linkclipref>clipitem-94</linkclipref>
              <mediatype>audio</mediatype>
              <trackindex>2</trackindex>
              <clipindex>1</clipindex>
              <groupindex>1</groupindex>
            </link>
            <link>
              <linkclipref>clipitem-95</linkclipref>
              <mediatype>audio</mediatype>
              <trackindex>3</trackindex>
              <clipindex>1</clipindex>
              <groupindex>1</groupindex>
            </link>
            <link>
              <linkclipref>clipitem-96</linkclipref>
              <mediatype>audio</mediatype>
              <trackindex>4</trackindex>
              <clipindex>1</clipindex>
              <groupindex>1</groupindex>
            </link>
            <link>
              <linkclipref>clipitem-97</linkclipref>
              <mediatype>audio</mediatype>
              <trackindex>5</trackindex>
              <clipindex>1</clipindex>
              <groupindex>1</groupindex>
            </link>
            <link>
              <linkclipref>clipitem-98</linkclipref>
              <mediatype>audio</mediatype>
              <trackindex>6</trackindex>
              <clipindex>1</clipindex>
              <groupindex>1</groupindex>
            </link>
          </clipitem>
          <clipitem id="clipitem-100" premiereChannelType="Stereo">
            <masterclipid>masterclip-1</masterclipid>
            <name>2023-04-01 14-56-52溪神带上钻局CC.mp4</name>
            <enabled>TRUE</enabled>
            <rate>
              <timebase>60</timebase>
              <ntsc>FALSE</ntsc>
            </rate>
            <start>1585</start>
            <end>1746</end>
            <in>27845</in>
            <out>28006</out>
            <file id="file-1"/>
            <sourcetrack>
              <mediatype>audio</mediatype>
              <trackindex>1</trackindex>
            </sourcetrack>
            <link>
              <linkclipref>clipitem-99</linkclipref>
              <mediatype>video</mediatype>
              <trackindex>1</trackindex>
              <clipindex>1</clipindex>
            </link>
            <link>
              <linkclipref>clipitem-100</linkclipref>
              <mediatype>audio</mediatype>
              <trackindex>1</trackindex>
              <clipindex>1</clipindex>
              <groupindex>1</groupindex>
            </link>
            <link>
              <linkclipref>clipitem-101</linkclipref>
              <mediatype>audio</mediatype>
              <trackindex>2</trackindex>
              <clipindex>1</clipindex>
              <groupindex>1</groupindex>
            </link>
            <link>
              <linkclipref>clipitem-102</linkclipref>
              <mediatype>audio</mediatype>
              <trackindex>3</trackindex>
              <clipindex>1</clipindex>
              <groupindex>1</groupindex>
            </link>
            <link>
              <linkclipref>clipitem-103</linkclipref>
              <mediatype>audio</mediatype>
              <trackindex>4</trackindex>
              <clipindex>1</clipindex>
              <groupindex>1</groupindex>
            </link>
            <link>
              <linkclipref>clipitem-104</linkclipref>
              <mediatype>audio</mediatype>
              <trackindex>5</trackindex>
              <clipindex>1</clipindex>
              <groupindex>1</groupindex>
            </link>
            <link>
              <linkclipref>clipitem-105</linkclipref>
              <mediatype>audio</mediatype>
              <trackindex>6</trackindex>
              <clipindex>1</clipindex>
              <groupindex>1</groupindex>
            </link>
          </clipitem>
          <clipitem id="clipitem-107" premiereChannelType="Stereo">
            <masterclipid>masterclip-1</masterclipid>
            <name>2023-04-01 14-56-52溪神带上钻局CC.mp4</name>
            <enabled>TRUE</enabled>
            <rate>
              <timebase>60</timebase>
              <ntsc>FALSE</ntsc>
            </rate>
            <start>1746</start>
            <end>1825</end>
            <in>28363</in>
            <out>28442</out>
            <file id="file-1"/>
            <sourcetrack>
              <mediatype>audio</mediatype>
              <trackindex>1</trackindex>
            </sourcetrack>
            <link>
              <linkclipref>clipitem-106</linkclipref>
              <mediatype>video</mediatype>
              <trackindex>1</trackindex>
              <clipindex>1</clipindex>
            </link>
            <link>
              <linkclipref>clipitem-107</linkclipref>
              <mediatype>audio</mediatype>
              <trackindex>1</trackindex>
              <clipindex>1</clipindex>
              <groupindex>1</groupindex>
            </link>
            <link>
              <linkclipref>clipitem-108</linkclipref>
              <mediatype>audio</mediatype>
              <trackindex>2</trackindex>
              <clipindex>1</clipindex>
              <groupindex>1</groupindex>
            </link>
            <link>
              <linkclipref>clipitem-109</linkclipref>
              <mediatype>audio</mediatype>
              <trackindex>3</trackindex>
              <clipindex>1</clipindex>
              <groupindex>1</groupindex>
            </link>
            <link>
              <linkclipref>clipitem-110</linkclipref>
              <mediatype>audio</mediatype>
              <trackindex>4</trackindex>
              <clipindex>1</clipindex>
              <groupindex>1</groupindex>
            </link>
            <link>
              <linkclipref>clipitem-111</linkclipref>
              <mediatype>audio</mediatype>
              <trackindex>5</trackindex>
              <clipindex>1</clipindex>
              <groupindex>1</groupindex>
            </link>
            <link>
              <linkclipref>clipitem-112</linkclipref>
              <mediatype>audio</mediatype>
              <trackindex>6</trackindex>
              <clipindex>1</clipindex>
              <groupindex>1</groupindex>
            </link>
          </clipitem>
          <clipitem id="clipitem-114" premiereChannelType="Stereo">
            <masterclipid>masterclip-1</masterclipid>
            <name>2023-04-01 14-56-52溪神带上钻局CC.mp4</name>
            <enabled>TRUE</enabled>
            <rate>
              <timebase>60</timebase>
              <ntsc>FALSE</ntsc>
            </rate>
            <start>1825</start>
            <end>2005</end>
            <in>29080</in>
            <out>29260</out>
            <file id="file-1"/>
            <sourcetrack>
              <mediatype>audio</mediatype>
              <trackindex>1</trackindex>
            </sourcetrack>
            <link>
              <linkclipref>clipitem-113</linkclipref>
              <mediatype>video</mediatype>
              <trackindex>1</trackindex>
              <clipindex>1</clipindex>
            </link>
            <link>
              <linkclipref>clipitem-114</linkclipref>
              <mediatype>audio</mediatype>
              <trackindex>1</trackindex>
              <clipindex>1</clipindex>
              <groupindex>1</groupindex>
            </link>
            <link>
              <linkclipref>clipitem-115</linkclipref>
              <mediatype>audio</mediatype>
              <trackindex>2</trackindex>
              <clipindex>1</clipindex>
              <groupindex>1</groupindex>
            </link>
            <link>
              <linkclipref>clipitem-116</linkclipref>
              <mediatype>audio</mediatype>
              <trackindex>3</trackindex>
              <clipindex>1</clipindex>
              <groupindex>1</groupindex>
            </link>
            <link>
              <linkclipref>clipitem-117</linkclipref>
              <mediatype>audio</mediatype>
              <trackindex>4</trackindex>
              <clipindex>1</clipindex>
              <groupindex>1</groupindex>
            </link>
            <link>
              <linkclipref>clipitem-118</linkclipref>
              <mediatype>audio</mediatype>
              <trackindex>5</trackindex>
              <clipindex>1</clipindex>
              <groupindex>1</groupindex>
            </link>
            <link>
              <linkclipref>clipitem-119</linkclipref>
              <mediatype>audio</mediatype>
              <trackindex>6</trackindex>
              <clipindex>1</clipindex>
              <groupindex>1</groupindex>
            </link>
          </clipitem>
          <clipitem id="clipitem-121" premiereChannelType="Stereo">
            <masterclipid>masterclip-1</masterclipid>
            <name>2023-04-01 14-56-52溪神带上钻局CC.mp4</name>
            <enabled>TRUE</enabled>
            <rate>
              <timebase>60</timebase>
              <ntsc>FALSE</ntsc>
            </rate>
            <start>2005</start>
            <end>2023</end>
            <in>29971</in>
            <out>29989</out>
            <file id="file-1"/>
            <sourcetrack>
              <mediatype>audio</mediatype>
              <trackindex>1</trackindex>
            </sourcetrack>
            <link>
              <linkclipref>clipitem-120</linkclipref>
              <mediatype>video</mediatype>
              <trackindex>1</trackindex>
              <clipindex>1</clipindex>
            </link>
            <link>
              <linkclipref>clipitem-121</linkclipref>
              <mediatype>audio</mediatype>
              <trackindex>1</trackindex>
              <clipindex>1</clipindex>
              <groupindex>1</groupindex>
            </link>
            <link>
              <linkclipref>clipitem-122</linkclipref>
              <mediatype>audio</mediatype>
              <trackindex>2</trackindex>
              <clipindex>1</clipindex>
              <groupindex>1</groupindex>
            </link>
            <link>
              <linkclipref>clipitem-123</linkclipref>
              <mediatype>audio</mediatype>
              <trackindex>3</trackindex>
              <clipindex>1</clipindex>
              <groupindex>1</groupindex>
            </link>
            <link>
              <linkclipref>clipitem-124</linkclipref>
              <mediatype>audio</mediatype>
              <trackindex>4</trackindex>
              <clipindex>1</clipindex>
              <groupindex>1</groupindex>
            </link>
            <link>
              <linkclipref>clipitem-125</linkclipref>
              <mediatype>audio</mediatype>
              <trackindex>5</trackindex>
              <clipindex>1</clipindex>
              <groupindex>1</groupindex>
            </link>
            <link>
              <linkclipref>clipitem-126</linkclipref>
              <mediatype>audio</mediatype>
              <trackindex>6</trackindex>
              <clipindex>1</clipindex>
              <groupindex>1</groupindex>
            </link>
          </clipitem>
          <clipitem id="clipitem-128" premiereChannelType="Stereo">
            <masterclipid>masterclip-1</masterclipid>
            <name>2023-04-01 14-56-52溪神带上钻局CC.mp4</name>
            <enabled>TRUE</enabled>
            <rate>
              <timebase>60</timebase>
              <ntsc>FALSE</ntsc>
            </rate>
            <start>2023</start>
            <end>2100</end>
            <in>30064</in>
            <out>30141</out>
            <file id="file-1"/>
            <sourcetrack>
              <mediatype>audio</mediatype>
              <trackindex>1</trackindex>
            </sourcetrack>
            <link>
              <linkclipref>clipitem-127</linkclipref>
              <mediatype>video</mediatype>
              <trackindex>1</trackindex>
              <clipindex>1</clipindex>
            </link>
            <link>
              <linkclipref>clipitem-128</linkclipref>
              <mediatype>audio</mediatype>
              <trackindex>1</trackindex>
              <clipindex>1</clipindex>
              <groupindex>1</groupindex>
            </link>
            <link>
              <linkclipref>clipitem-129</linkclipref>
              <mediatype>audio</mediatype>
              <trackindex>2</trackindex>
              <clipindex>1</clipindex>
              <groupindex>1</groupindex>
            </link>
            <link>
              <linkclipref>clipitem-130</linkclipref>
              <mediatype>audio</mediatype>
              <trackindex>3</trackindex>
              <clipindex>1</clipindex>
              <groupindex>1</groupindex>
            </link>
            <link>
              <linkclipref>clipitem-131</linkclipref>
              <mediatype>audio</mediatype>
              <trackindex>4</trackindex>
              <clipindex>1</clipindex>
              <groupindex>1</groupindex>
            </link>
            <link>
              <linkclipref>clipitem-132</linkclipref>
              <mediatype>audio</mediatype>
              <trackindex>5</trackindex>
              <clipindex>1</clipindex>
              <groupindex>1</groupindex>
            </link>
            <link>
              <linkclipref>clipitem-133</linkclipref>
              <mediatype>audio</mediatype>
              <trackindex>6</trackindex>
              <clipindex>1</clipindex>
              <groupindex>1</groupindex>
            </link>
          </clipitem>
          <clipitem id="clipitem-135" premiereChannelType="Stereo">
            <masterclipid>masterclip-1</masterclipid>
            <name>2023-04-01 14-56-52溪神带上钻局CC.mp4</name>
            <enabled>TRUE</enabled>
            <rate>
              <timebase>60</timebase>
              <ntsc>FALSE</ntsc>
            </rate>
            <start>2100</start>
            <end>2267</end>
            <in>30347</in>
            <out>30514</out>
            <file id="file-1"/>
            <sourcetrack>
              <mediatype>audio</mediatype>
              <trackindex>1</trackindex>
            </sourcetrack>
            <link>
              <linkclipref>clipitem-134</linkclipref>
              <mediatype>video</mediatype>
              <trackindex>1</trackindex>
              <clipindex>1</clipindex>
            </link>
            <link>
              <linkclipref>clipitem-135</linkclipref>
              <mediatype>audio</mediatype>
              <trackindex>1</trackindex>
              <clipindex>1</clipindex>
              <groupindex>1</groupindex>
            </link>
            <link>
              <linkclipref>clipitem-136</linkclipref>
              <mediatype>audio</mediatype>
              <trackindex>2</trackindex>
              <clipindex>1</clipindex>
              <groupindex>1</groupindex>
            </link>
            <link>
              <linkclipref>clipitem-137</linkclipref>
              <mediatype>audio</mediatype>
              <trackindex>3</trackindex>
              <clipindex>1</clipindex>
              <groupindex>1</groupindex>
            </link>
            <link>
              <linkclipref>clipitem-138</linkclipref>
              <mediatype>audio</mediatype>
              <trackindex>4</trackindex>
              <clipindex>1</clipindex>
              <groupindex>1</groupindex>
            </link>
            <link>
              <linkclipref>clipitem-139</linkclipref>
              <mediatype>audio</mediatype>
              <trackindex>5</trackindex>
              <clipindex>1</clipindex>
              <groupindex>1</groupindex>
            </link>
            <link>
              <linkclipref>clipitem-140</linkclipref>
              <mediatype>audio</mediatype>
              <trackindex>6</trackindex>
              <clipindex>1</clipindex>
              <groupindex>1</groupindex>
            </link>
          </clipitem>
          <clipitem id="clipitem-142" premiereChannelType="Stereo">
            <masterclipid>masterclip-1</masterclipid>
            <name>2023-04-01 14-56-52溪神带上钻局CC.mp4</name>
            <enabled>TRUE</enabled>
            <rate>
              <timebase>60</timebase>
              <ntsc>FALSE</ntsc>
            </rate>
            <start>2267</start>
            <end>2391</end>
            <in>41935</in>
            <out>42059</out>
            <file id="file-1"/>
            <sourcetrack>
              <mediatype>audio</mediatype>
              <trackindex>1</trackindex>
            </sourcetrack>
            <link>
              <linkclipref>clipitem-141</linkclipref>
              <mediatype>video</mediatype>
              <trackindex>1</trackindex>
              <clipindex>1</clipindex>
            </link>
            <link>
              <linkclipref>clipitem-142</linkclipref>
              <mediatype>audio</mediatype>
              <trackindex>1</trackindex>
              <clipindex>1</clipindex>
              <groupindex>1</groupindex>
            </link>
            <link>
              <linkclipref>clipitem-143</linkclipref>
              <mediatype>audio</mediatype>
              <trackindex>2</trackindex>
              <clipindex>1</clipindex>
              <groupindex>1</groupindex>
            </link>
            <link>
              <linkclipref>clipitem-144</linkclipref>
              <mediatype>audio</mediatype>
              <trackindex>3</trackindex>
              <clipindex>1</clipindex>
              <groupindex>1</groupindex>
            </link>
            <link>
              <linkclipref>clipitem-145</linkclipref>
              <mediatype>audio</mediatype>
              <trackindex>4</trackindex>
              <clipindex>1</clipindex>
              <groupindex>1</groupindex>
            </link>
            <link>
              <linkclipref>clipitem-146</linkclipref>
              <mediatype>audio</mediatype>
              <trackindex>5</trackindex>
              <clipindex>1</clipindex>
              <groupindex>1</groupindex>
            </link>
            <link>
              <linkclipref>clipitem-147</linkclipref>
              <mediatype>audio</mediatype>
              <trackindex>6</trackindex>
              <clipindex>1</clipindex>
              <groupindex>1</groupindex>
            </link>
          </clipitem>
          <clipitem id="clipitem-149" premiereChannelType="Stereo">
            <masterclipid>masterclip-1</masterclipid>
            <name>2023-04-01 14-56-52溪神带上钻局CC.mp4</name>
            <enabled>TRUE</enabled>
            <rate>
              <timebase>60</timebase>
              <ntsc>FALSE</ntsc>
            </rate>
            <start>2391</start>
            <end>2618</end>
            <in>46337</in>
            <out>46564</out>
            <file id="file-1"/>
            <sourcetrack>
              <mediatype>audio</mediatype>
              <trackindex>1</trackindex>
            </sourcetrack>
            <link>
              <linkclipref>clipitem-148</linkclipref>
              <mediatype>video</mediatype>
              <trackindex>1</trackindex>
              <clipindex>1</clipindex>
            </link>
            <link>
              <linkclipref>clipitem-149</linkclipref>
              <mediatype>audio</mediatype>
              <trackindex>1</trackindex>
              <clipindex>1</clipindex>
              <groupindex>1</groupindex>
            </link>
            <link>
              <linkclipref>clipitem-150</linkclipref>
              <mediatype>audio</mediatype>
              <trackindex>2</trackindex>
              <clipindex>1</clipindex>
              <groupindex>1</groupindex>
            </link>
            <link>
              <linkclipref>clipitem-151</linkclipref>
              <mediatype>audio</mediatype>
              <trackindex>3</trackindex>
              <clipindex>1</clipindex>
              <groupindex>1</groupindex>
            </link>
            <link>
              <linkclipref>clipitem-152</linkclipref>
              <mediatype>audio</mediatype>
              <trackindex>4</trackindex>
              <clipindex>1</clipindex>
              <groupindex>1</groupindex>
            </link>
            <link>
              <linkclipref>clipitem-153</linkclipref>
              <mediatype>audio</mediatype>
              <trackindex>5</trackindex>
              <clipindex>1</clipindex>
              <groupindex>1</groupindex>
            </link>
            <link>
              <linkclipref>clipitem-154</linkclipref>
              <mediatype>audio</mediatype>
              <trackindex>6</trackindex>
              <clipindex>1</clipindex>
              <groupindex>1</groupindex>
            </link>
          </clipitem>
          <clipitem id="clipitem-156" premiereChannelType="Stereo">
            <masterclipid>masterclip-1</masterclipid>
            <name>2023-04-01 14-56-52溪神带上钻局CC.mp4</name>
            <enabled>TRUE</enabled>
            <rate>
              <timebase>60</timebase>
              <ntsc>FALSE</ntsc>
            </rate>
            <start>2618</start>
            <end>2894</end>
            <in>47608</in>
            <out>47884</out>
            <file id="file-1"/>
            <sourcetrack>
              <mediatype>audio</mediatype>
              <trackindex>1</trackindex>
            </sourcetrack>
            <link>
              <linkclipref>clipitem-155</linkclipref>
              <mediatype>video</mediatype>
              <trackindex>1</trackindex>
              <clipindex>1</clipindex>
            </link>
            <link>
              <linkclipref>clipitem-156</linkclipref>
              <mediatype>audio</mediatype>
              <trackindex>1</trackindex>
              <clipindex>1</clipindex>
              <groupindex>1</groupindex>
            </link>
            <link>
              <linkclipref>clipitem-157</linkclipref>
              <mediatype>audio</mediatype>
              <trackindex>2</trackindex>
              <clipindex>1</clipindex>
              <groupindex>1</groupindex>
            </link>
            <link>
              <linkclipref>clipitem-158</linkclipref>
              <mediatype>audio</mediatype>
              <trackindex>3</trackindex>
              <clipindex>1</clipindex>
              <groupindex>1</groupindex>
            </link>
            <link>
              <linkclipref>clipitem-159</linkclipref>
              <mediatype>audio</mediatype>
              <trackindex>4</trackindex>
              <clipindex>1</clipindex>
              <groupindex>1</groupindex>
            </link>
            <link>
              <linkclipref>clipitem-160</linkclipref>
              <mediatype>audio</mediatype>
              <trackindex>5</trackindex>
              <clipindex>1</clipindex>
              <groupindex>1</groupindex>
            </link>
            <link>
              <linkclipref>clipitem-161</linkclipref>
              <mediatype>audio</mediatype>
              <trackindex>6</trackindex>
              <clipindex>1</clipindex>
              <groupindex>1</groupindex>
            </link>
          </clipitem>
          <clipitem id="clipitem-163" premiereChannelType="Stereo">
            <masterclipid>masterclip-1</masterclipid>
            <name>2023-04-01 14-56-52溪神带上钻局CC.mp4</name>
            <enabled>TRUE</enabled>
            <rate>
              <timebase>60</timebase>
              <ntsc>FALSE</ntsc>
            </rate>
            <start>2894</start>
            <end>3196</end>
            <in>47995</in>
            <out>48297</out>
            <file id="file-1"/>
            <sourcetrack>
              <mediatype>audio</mediatype>
              <trackindex>1</trackindex>
            </sourcetrack>
            <link>
              <linkclipref>clipitem-162</linkclipref>
              <mediatype>video</mediatype>
              <trackindex>1</trackindex>
              <clipindex>1</clipindex>
            </link>
            <link>
              <linkclipref>clipitem-163</linkclipref>
              <mediatype>audio</mediatype>
              <trackindex>1</trackindex>
              <clipindex>1</clipindex>
              <groupindex>1</groupindex>
            </link>
            <link>
              <linkclipref>clipitem-164</linkclipref>
              <mediatype>audio</mediatype>
              <trackindex>2</trackindex>
              <clipindex>1</clipindex>
              <groupindex>1</groupindex>
            </link>
            <link>
              <linkclipref>clipitem-165</linkclipref>
              <mediatype>audio</mediatype>
              <trackindex>3</trackindex>
              <clipindex>1</clipindex>
              <groupindex>1</groupindex>
            </link>
            <link>
              <linkclipref>clipitem-166</linkclipref>
              <mediatype>audio</mediatype>
              <trackindex>4</trackindex>
              <clipindex>1</clipindex>
              <groupindex>1</groupindex>
            </link>
            <link>
              <linkclipref>clipitem-167</linkclipref>
              <mediatype>audio</mediatype>
              <trackindex>5</trackindex>
              <clipindex>1</clipindex>
              <groupindex>1</groupindex>
            </link>
            <link>
              <linkclipref>clipitem-168</linkclipref>
              <mediatype>audio</mediatype>
              <trackindex>6</trackindex>
              <clipindex>1</clipindex>
              <groupindex>1</groupindex>
            </link>
          </clipitem>
          <clipitem id="clipitem-170" premiereChannelType="Stereo">
            <masterclipid>masterclip-1</masterclipid>
            <name>2023-04-01 14-56-52溪神带上钻局CC.mp4</name>
            <enabled>TRUE</enabled>
            <rate>
              <timebase>60</timebase>
              <ntsc>FALSE</ntsc>
            </rate>
            <start>3196</start>
            <end>3357</end>
            <in>49039</in>
            <out>49200</out>
            <file id="file-1"/>
            <sourcetrack>
              <mediatype>audio</mediatype>
              <trackindex>1</trackindex>
            </sourcetrack>
            <link>
              <linkclipref>clipitem-169</linkclipref>
              <mediatype>video</mediatype>
              <trackindex>1</trackindex>
              <clipindex>1</clipindex>
            </link>
            <link>
              <linkclipref>clipitem-170</linkclipref>
              <mediatype>audio</mediatype>
              <trackindex>1</trackindex>
              <clipindex>1</clipindex>
              <groupindex>1</groupindex>
            </link>
            <link>
              <linkclipref>clipitem-171</linkclipref>
              <mediatype>audio</mediatype>
              <trackindex>2</trackindex>
              <clipindex>1</clipindex>
              <groupindex>1</groupindex>
            </link>
            <link>
              <linkclipref>clipitem-172</linkclipref>
              <mediatype>audio</mediatype>
              <trackindex>3</trackindex>
              <clipindex>1</clipindex>
              <groupindex>1</groupindex>
            </link>
            <link>
              <linkclipref>clipitem-173</linkclipref>
              <mediatype>audio</mediatype>
              <trackindex>4</trackindex>
              <clipindex>1</clipindex>
              <groupindex>1</groupindex>
            </link>
            <link>
              <linkclipref>clipitem-174</linkclipref>
              <mediatype>audio</mediatype>
              <trackindex>5</trackindex>
              <clipindex>1</clipindex>
              <groupindex>1</groupindex>
            </link>
            <link>
              <linkclipref>clipitem-175</linkclipref>
              <mediatype>audio</mediatype>
              <trackindex>6</trackindex>
              <clipindex>1</clipindex>
              <groupindex>1</groupindex>
            </link>
          </clipitem>
          <clipitem id="clipitem-177" premiereChannelType="Stereo">
            <masterclipid>masterclip-1</masterclipid>
            <name>2023-04-01 14-56-52溪神带上钻局CC.mp4</name>
            <enabled>TRUE</enabled>
            <rate>
              <timebase>60</timebase>
              <ntsc>FALSE</ntsc>
            </rate>
            <start>3357</start>
            <end>3460</end>
            <in>50487</in>
            <out>50590</out>
            <file id="file-1"/>
            <sourcetrack>
              <mediatype>audio</mediatype>
              <trackindex>1</trackindex>
            </sourcetrack>
            <link>
              <linkclipref>clipitem-176</linkclipref>
              <mediatype>video</mediatype>
              <trackindex>1</trackindex>
              <clipindex>1</clipindex>
            </link>
            <link>
              <linkclipref>clipitem-177</linkclipref>
              <mediatype>audio</mediatype>
              <trackindex>1</trackindex>
              <clipindex>1</clipindex>
              <groupindex>1</groupindex>
            </link>
            <link>
              <linkclipref>clipitem-178</linkclipref>
              <mediatype>audio</mediatype>
              <trackindex>2</trackindex>
              <clipindex>1</clipindex>
              <groupindex>1</groupindex>
            </link>
            <link>
              <linkclipref>clipitem-179</linkclipref>
              <mediatype>audio</mediatype>
              <trackindex>3</trackindex>
              <clipindex>1</clipindex>
              <groupindex>1</groupindex>
            </link>
            <link>
              <linkclipref>clipitem-180</linkclipref>
              <mediatype>audio</mediatype>
              <trackindex>4</trackindex>
              <clipindex>1</clipindex>
              <groupindex>1</groupindex>
            </link>
            <link>
              <linkclipref>clipitem-181</linkclipref>
              <mediatype>audio</mediatype>
              <trackindex>5</trackindex>
              <clipindex>1</clipindex>
              <groupindex>1</groupindex>
            </link>
            <link>
              <linkclipref>clipitem-182</linkclipref>
              <mediatype>audio</mediatype>
              <trackindex>6</trackindex>
              <clipindex>1</clipindex>
              <groupindex>1</groupindex>
            </link>
          </clipitem>
          <clipitem id="clipitem-184" premiereChannelType="Stereo">
            <masterclipid>masterclip-1</masterclipid>
            <name>2023-04-01 14-56-52溪神带上钻局CC.mp4</name>
            <enabled>TRUE</enabled>
            <rate>
              <timebase>60</timebase>
              <ntsc>FALSE</ntsc>
            </rate>
            <start>3460</start>
            <end>3587</end>
            <in>50744</in>
            <out>50871</out>
            <file id="file-1"/>
            <sourcetrack>
              <mediatype>audio</mediatype>
              <trackindex>1</trackindex>
            </sourcetrack>
            <link>
              <linkclipref>clipitem-183</linkclipref>
              <mediatype>video</mediatype>
              <trackindex>1</trackindex>
              <clipindex>1</clipindex>
            </link>
            <link>
              <linkclipref>clipitem-184</linkclipref>
              <mediatype>audio</mediatype>
              <trackindex>1</trackindex>
              <clipindex>1</clipindex>
              <groupindex>1</groupindex>
            </link>
            <link>
              <linkclipref>clipitem-185</linkclipref>
              <mediatype>audio</mediatype>
              <trackindex>2</trackindex>
              <clipindex>1</clipindex>
              <groupindex>1</groupindex>
            </link>
            <link>
              <linkclipref>clipitem-186</linkclipref>
              <mediatype>audio</mediatype>
              <trackindex>3</trackindex>
              <clipindex>1</clipindex>
              <groupindex>1</groupindex>
            </link>
            <link>
              <linkclipref>clipitem-187</linkclipref>
              <mediatype>audio</mediatype>
              <trackindex>4</trackindex>
              <clipindex>1</clipindex>
              <groupindex>1</groupindex>
            </link>
            <link>
              <linkclipref>clipitem-188</linkclipref>
              <mediatype>audio</mediatype>
              <trackindex>5</trackindex>
              <clipindex>1</clipindex>
              <groupindex>1</groupindex>
            </link>
            <link>
              <linkclipref>clipitem-189</linkclipref>
              <mediatype>audio</mediatype>
              <trackindex>6</trackindex>
              <clipindex>1</clipindex>
              <groupindex>1</groupindex>
            </link>
          </clipitem>
          <clipitem id="clipitem-191" premiereChannelType="Stereo">
            <masterclipid>masterclip-1</masterclipid>
            <name>2023-04-01 14-56-52溪神带上钻局CC.mp4</name>
            <enabled>TRUE</enabled>
            <rate>
              <timebase>60</timebase>
              <ntsc>FALSE</ntsc>
            </rate>
            <start>3587</start>
            <end>3794</end>
            <in>50965</in>
            <out>51172</out>
            <file id="file-1"/>
            <sourcetrack>
              <mediatype>audio</mediatype>
              <trackindex>1</trackindex>
            </sourcetrack>
            <link>
              <linkclipref>clipitem-190</linkclipref>
              <mediatype>video</mediatype>
              <trackindex>1</trackindex>
              <clipindex>1</clipindex>
            </link>
            <link>
              <linkclipref>clipitem-191</linkclipref>
              <mediatype>audio</mediatype>
              <trackindex>1</trackindex>
              <clipindex>1</clipindex>
              <groupindex>1</groupindex>
            </link>
            <link>
              <linkclipref>clipitem-192</linkclipref>
              <mediatype>audio</mediatype>
              <trackindex>2</trackindex>
              <clipindex>1</clipindex>
              <groupindex>1</groupindex>
            </link>
            <link>
              <linkclipref>clipitem-193</linkclipref>
              <mediatype>audio</mediatype>
              <trackindex>3</trackindex>
              <clipindex>1</clipindex>
              <groupindex>1</groupindex>
            </link>
            <link>
              <linkclipref>clipitem-194</linkclipref>
              <mediatype>audio</mediatype>
              <trackindex>4</trackindex>
              <clipindex>1</clipindex>
              <groupindex>1</groupindex>
            </link>
            <link>
              <linkclipref>clipitem-195</linkclipref>
              <mediatype>audio</mediatype>
              <trackindex>5</trackindex>
              <clipindex>1</clipindex>
              <groupindex>1</groupindex>
            </link>
            <link>
              <linkclipref>clipitem-196</linkclipref>
              <mediatype>audio</mediatype>
              <trackindex>6</trackindex>
              <clipindex>1</clipindex>
              <groupindex>1</groupindex>
            </link>
          </clipitem>
          <clipitem id="clipitem-198" premiereChannelType="Stereo">
            <masterclipid>masterclip-1</masterclipid>
            <name>2023-04-01 14-56-52溪神带上钻局CC.mp4</name>
            <enabled>TRUE</enabled>
            <rate>
              <timebase>60</timebase>
              <ntsc>FALSE</ntsc>
            </rate>
            <start>3794</start>
            <end>3897</end>
            <in>59295</in>
            <out>59398</out>
            <file id="file-1"/>
            <sourcetrack>
              <mediatype>audio</mediatype>
              <trackindex>1</trackindex>
            </sourcetrack>
            <link>
              <linkclipref>clipitem-197</linkclipref>
              <mediatype>video</mediatype>
              <trackindex>1</trackindex>
              <clipindex>1</clipindex>
            </link>
            <link>
              <linkclipref>clipitem-198</linkclipref>
              <mediatype>audio</mediatype>
              <trackindex>1</trackindex>
              <clipindex>1</clipindex>
              <groupindex>1</groupindex>
            </link>
            <link>
              <linkclipref>clipitem-199</linkclipref>
              <mediatype>audio</mediatype>
              <trackindex>2</trackindex>
              <clipindex>1</clipindex>
              <groupindex>1</groupindex>
            </link>
            <link>
              <linkclipref>clipitem-200</linkclipref>
              <mediatype>audio</mediatype>
              <trackindex>3</trackindex>
              <clipindex>1</clipindex>
              <groupindex>1</groupindex>
            </link>
            <link>
              <linkclipref>clipitem-201</linkclipref>
              <mediatype>audio</mediatype>
              <trackindex>4</trackindex>
              <clipindex>1</clipindex>
              <groupindex>1</groupindex>
            </link>
            <link>
              <linkclipref>clipitem-202</linkclipref>
              <mediatype>audio</mediatype>
              <trackindex>5</trackindex>
              <clipindex>1</clipindex>
              <groupindex>1</groupindex>
            </link>
            <link>
              <linkclipref>clipitem-203</linkclipref>
              <mediatype>audio</mediatype>
              <trackindex>6</trackindex>
              <clipindex>1</clipindex>
              <groupindex>1</groupindex>
            </link>
          </clipitem>
          <clipitem id="clipitem-205" premiereChannelType="Stereo">
            <masterclipid>masterclip-1</masterclipid>
            <name>2023-04-01 14-56-52溪神带上钻局CC.mp4</name>
            <enabled>TRUE</enabled>
            <rate>
              <timebase>60</timebase>
              <ntsc>FALSE</ntsc>
            </rate>
            <start>3897</start>
            <end>4026</end>
            <in>60197</in>
            <out>60326</out>
            <file id="file-1"/>
            <sourcetrack>
              <mediatype>audio</mediatype>
              <trackindex>1</trackindex>
            </sourcetrack>
            <link>
              <linkclipref>clipitem-204</linkclipref>
              <mediatype>video</mediatype>
              <trackindex>1</trackindex>
              <clipindex>1</clipindex>
            </link>
            <link>
              <linkclipref>clipitem-205</linkclipref>
              <mediatype>audio</mediatype>
              <trackindex>1</trackindex>
              <clipindex>1</clipindex>
              <groupindex>1</groupindex>
            </link>
            <link>
              <linkclipref>clipitem-206</linkclipref>
              <mediatype>audio</mediatype>
              <trackindex>2</trackindex>
              <clipindex>1</clipindex>
              <groupindex>1</groupindex>
            </link>
            <link>
              <linkclipref>clipitem-207</linkclipref>
              <mediatype>audio</mediatype>
              <trackindex>3</trackindex>
              <clipindex>1</clipindex>
              <groupindex>1</groupindex>
            </link>
            <link>
              <linkclipref>clipitem-208</linkclipref>
              <mediatype>audio</mediatype>
              <trackindex>4</trackindex>
              <clipindex>1</clipindex>
              <groupindex>1</groupindex>
            </link>
            <link>
              <linkclipref>clipitem-209</linkclipref>
              <mediatype>audio</mediatype>
              <trackindex>5</trackindex>
              <clipindex>1</clipindex>
              <groupindex>1</groupindex>
            </link>
            <link>
              <linkclipref>clipitem-210</linkclipref>
              <mediatype>audio</mediatype>
              <trackindex>6</trackindex>
              <clipindex>1</clipindex>
              <groupindex>1</groupindex>
            </link>
          </clipitem>
          <clipitem id="clipitem-212" premiereChannelType="Stereo">
            <masterclipid>masterclip-1</masterclipid>
            <name>2023-04-01 14-56-52溪神带上钻局CC.mp4</name>
            <enabled>TRUE</enabled>
            <rate>
              <timebase>60</timebase>
              <ntsc>FALSE</ntsc>
            </rate>
            <start>4026</start>
            <end>4128</end>
            <in>60335</in>
            <out>60437</out>
            <file id="file-1"/>
            <sourcetrack>
              <mediatype>audio</mediatype>
              <trackindex>1</trackindex>
            </sourcetrack>
            <link>
              <linkclipref>clipitem-211</linkclipref>
              <mediatype>video</mediatype>
              <trackindex>1</trackindex>
              <clipindex>1</clipindex>
            </link>
            <link>
              <linkclipref>clipitem-212</linkclipref>
              <mediatype>audio</mediatype>
              <trackindex>1</trackindex>
              <clipindex>1</clipindex>
              <groupindex>1</groupindex>
            </link>
            <link>
              <linkclipref>clipitem-213</linkclipref>
              <mediatype>audio</mediatype>
              <trackindex>2</trackindex>
              <clipindex>1</clipindex>
              <groupindex>1</groupindex>
            </link>
            <link>
              <linkclipref>clipitem-214</linkclipref>
              <mediatype>audio</mediatype>
              <trackindex>3</trackindex>
              <clipindex>1</clipindex>
              <groupindex>1</groupindex>
            </link>
            <link>
              <linkclipref>clipitem-215</linkclipref>
              <mediatype>audio</mediatype>
              <trackindex>4</trackindex>
              <clipindex>1</clipindex>
              <groupindex>1</groupindex>
            </link>
            <link>
              <linkclipref>clipitem-216</linkclipref>
              <mediatype>audio</mediatype>
              <trackindex>5</trackindex>
              <clipindex>1</clipindex>
              <groupindex>1</groupindex>
            </link>
            <link>
              <linkclipref>clipitem-217</linkclipref>
              <mediatype>audio</mediatype>
              <trackindex>6</trackindex>
              <clipindex>1</clipindex>
              <groupindex>1</groupindex>
            </link>
          </clipitem>
          <clipitem id="clipitem-219" premiereChannelType="Stereo">
            <masterclipid>masterclip-1</masterclipid>
            <name>2023-04-01 14-56-52溪神带上钻局CC.mp4</name>
            <enabled>TRUE</enabled>
            <rate>
              <timebase>60</timebase>
              <ntsc>FALSE</ntsc>
            </rate>
            <start>4128</start>
            <end>4272</end>
            <in>61170</in>
            <out>61314</out>
            <file id="file-1"/>
            <sourcetrack>
              <mediatype>audio</mediatype>
              <trackindex>1</trackindex>
            </sourcetrack>
            <link>
              <linkclipref>clipitem-218</linkclipref>
              <mediatype>video</mediatype>
              <trackindex>1</trackindex>
              <clipindex>1</clipindex>
            </link>
            <link>
              <linkclipref>clipitem-219</linkclipref>
              <mediatype>audio</mediatype>
              <trackindex>1</trackindex>
              <clipindex>1</clipindex>
              <groupindex>1</groupindex>
            </link>
            <link>
              <linkclipref>clipitem-220</linkclipref>
              <mediatype>audio</mediatype>
              <trackindex>2</trackindex>
              <clipindex>1</clipindex>
              <groupindex>1</groupindex>
            </link>
            <link>
              <linkclipref>clipitem-221</linkclipref>
              <mediatype>audio</mediatype>
              <trackindex>3</trackindex>
              <clipindex>1</clipindex>
              <groupindex>1</groupindex>
            </link>
            <link>
              <linkclipref>clipitem-222</linkclipref>
              <mediatype>audio</mediatype>
              <trackindex>4</trackindex>
              <clipindex>1</clipindex>
              <groupindex>1</groupindex>
            </link>
            <link>
              <linkclipref>clipitem-223</linkclipref>
              <mediatype>audio</mediatype>
              <trackindex>5</trackindex>
              <clipindex>1</clipindex>
              <groupindex>1</groupindex>
            </link>
            <link>
              <linkclipref>clipitem-224</linkclipref>
              <mediatype>audio</mediatype>
              <trackindex>6</trackindex>
              <clipindex>1</clipindex>
              <groupindex>1</groupindex>
            </link>
          </clipitem>
          <clipitem id="clipitem-226" premiereChannelType="Stereo">
            <masterclipid>masterclip-1</masterclipid>
            <name>2023-04-01 14-56-52溪神带上钻局CC.mp4</name>
            <enabled>TRUE</enabled>
            <rate>
              <timebase>60</timebase>
              <ntsc>FALSE</ntsc>
            </rate>
            <start>4272</start>
            <end>4399</end>
            <in>61526</in>
            <out>61653</out>
            <file id="file-1"/>
            <sourcetrack>
              <mediatype>audio</mediatype>
              <trackindex>1</trackindex>
            </sourcetrack>
            <link>
              <linkclipref>clipitem-225</linkclipref>
              <mediatype>video</mediatype>
              <trackindex>1</trackindex>
              <clipindex>1</clipindex>
            </link>
            <link>
              <linkclipref>clipitem-226</linkclipref>
              <mediatype>audio</mediatype>
              <trackindex>1</trackindex>
              <clipindex>1</clipindex>
              <groupindex>1</groupindex>
            </link>
            <link>
              <linkclipref>clipitem-227</linkclipref>
              <mediatype>audio</mediatype>
              <trackindex>2</trackindex>
              <clipindex>1</clipindex>
              <groupindex>1</groupindex>
            </link>
            <link>
              <linkclipref>clipitem-228</linkclipref>
              <mediatype>audio</mediatype>
              <trackindex>3</trackindex>
              <clipindex>1</clipindex>
              <groupindex>1</groupindex>
            </link>
            <link>
              <linkclipref>clipitem-229</linkclipref>
              <mediatype>audio</mediatype>
              <trackindex>4</trackindex>
              <clipindex>1</clipindex>
              <groupindex>1</groupindex>
            </link>
            <link>
              <linkclipref>clipitem-230</linkclipref>
              <mediatype>audio</mediatype>
              <trackindex>5</trackindex>
              <clipindex>1</clipindex>
              <groupindex>1</groupindex>
            </link>
            <link>
              <linkclipref>clipitem-231</linkclipref>
              <mediatype>audio</mediatype>
              <trackindex>6</trackindex>
              <clipindex>1</clipindex>
              <groupindex>1</groupindex>
            </link>
          </clipitem>
          <clipitem id="clipitem-233" premiereChannelType="Stereo">
            <masterclipid>masterclip-1</masterclipid>
            <name>2023-04-01 14-56-52溪神带上钻局CC.mp4</name>
            <enabled>TRUE</enabled>
            <rate>
              <timebase>60</timebase>
              <ntsc>FALSE</ntsc>
            </rate>
            <start>4399</start>
            <end>4509</end>
            <in>62041</in>
            <out>62151</out>
            <file id="file-1"/>
            <sourcetrack>
              <mediatype>audio</mediatype>
              <trackindex>1</trackindex>
            </sourcetrack>
            <link>
              <linkclipref>clipitem-232</linkclipref>
              <mediatype>video</mediatype>
              <trackindex>1</trackindex>
              <clipindex>1</clipindex>
            </link>
            <link>
              <linkclipref>clipitem-233</linkclipref>
              <mediatype>audio</mediatype>
              <trackindex>1</trackindex>
              <clipindex>1</clipindex>
              <groupindex>1</groupindex>
            </link>
            <link>
              <linkclipref>clipitem-234</linkclipref>
              <mediatype>audio</mediatype>
              <trackindex>2</trackindex>
              <clipindex>1</clipindex>
              <groupindex>1</groupindex>
            </link>
            <link>
              <linkclipref>clipitem-235</linkclipref>
              <mediatype>audio</mediatype>
              <trackindex>3</trackindex>
              <clipindex>1</clipindex>
              <groupindex>1</groupindex>
            </link>
            <link>
              <linkclipref>clipitem-236</linkclipref>
              <mediatype>audio</mediatype>
              <trackindex>4</trackindex>
              <clipindex>1</clipindex>
              <groupindex>1</groupindex>
            </link>
            <link>
              <linkclipref>clipitem-237</linkclipref>
              <mediatype>audio</mediatype>
              <trackindex>5</trackindex>
              <clipindex>1</clipindex>
              <groupindex>1</groupindex>
            </link>
            <link>
              <linkclipref>clipitem-238</linkclipref>
              <mediatype>audio</mediatype>
              <trackindex>6</trackindex>
              <clipindex>1</clipindex>
              <groupindex>1</groupindex>
            </link>
          </clipitem>
          <clipitem id="clipitem-240" premiereChannelType="Stereo">
            <masterclipid>masterclip-2</masterclipid>
            <name>2023-04-01 13-58-58溪神带飞王源5KCC.mp4</name>
            <enabled>TRUE</enabled>
            <rate>
              <timebase>60</timebase>
              <ntsc>FALSE</ntsc>
            </rate>
            <start>4509</start>
            <end>4526</end>
            <in>1764</in>
            <out>1781</out>
            <file id="file-2"/>
            <sourcetrack>
              <mediatype>audio</mediatype>
              <trackindex>1</trackindex>
            </sourcetrack>
            <link>
              <linkclipref>clipitem-239</linkclipref>
              <mediatype>video</mediatype>
              <trackindex>1</trackindex>
              <clipindex>1</clipindex>
            </link>
            <link>
              <linkclipref>clipitem-240</linkclipref>
              <mediatype>audio</mediatype>
              <trackindex>1</trackindex>
              <clipindex>1</clipindex>
              <groupindex>1</groupindex>
            </link>
            <link>
              <linkclipref>clipitem-241</linkclipref>
              <mediatype>audio</mediatype>
              <trackindex>2</trackindex>
              <clipindex>1</clipindex>
              <groupindex>1</groupindex>
            </link>
            <link>
              <linkclipref>clipitem-242</linkclipref>
              <mediatype>audio</mediatype>
              <trackindex>3</trackindex>
              <clipindex>1</clipindex>
              <groupindex>1</groupindex>
            </link>
            <link>
              <linkclipref>clipitem-243</linkclipref>
              <mediatype>audio</mediatype>
              <trackindex>4</trackindex>
              <clipindex>1</clipindex>
              <groupindex>1</groupindex>
            </link>
            <link>
              <linkclipref>clipitem-244</linkclipref>
              <mediatype>audio</mediatype>
              <trackindex>5</trackindex>
              <clipindex>1</clipindex>
              <groupindex>1</groupindex>
            </link>
            <link>
              <linkclipref>clipitem-245</linkclipref>
              <mediatype>audio</mediatype>
              <trackindex>6</trackindex>
              <clipindex>1</clipindex>
              <groupindex>1</groupindex>
            </link>
          </clipitem>
          <clipitem id="clipitem-247" premiereChannelType="Stereo">
            <masterclipid>masterclip-2</masterclipid>
            <name>2023-04-01 13-58-58溪神带飞王源5KCC.mp4</name>
            <enabled>TRUE</enabled>
            <rate>
              <timebase>60</timebase>
              <ntsc>FALSE</ntsc>
            </rate>
            <start>4526</start>
            <end>4596</end>
            <in>22846</in>
            <out>22916</out>
            <file id="file-2"/>
            <sourcetrack>
              <mediatype>audio</mediatype>
              <trackindex>1</trackindex>
            </sourcetrack>
            <link>
              <linkclipref>clipitem-246</linkclipref>
              <mediatype>video</mediatype>
              <trackindex>1</trackindex>
              <clipindex>1</clipindex>
            </link>
            <link>
              <linkclipref>clipitem-247</linkclipref>
              <mediatype>audio</mediatype>
              <trackindex>1</trackindex>
              <clipindex>1</clipindex>
              <groupindex>1</groupindex>
            </link>
            <link>
              <linkclipref>clipitem-248</linkclipref>
              <mediatype>audio</mediatype>
              <trackindex>2</trackindex>
              <clipindex>1</clipindex>
              <groupindex>1</groupindex>
            </link>
            <link>
              <linkclipref>clipitem-249</linkclipref>
              <mediatype>audio</mediatype>
              <trackindex>3</trackindex>
              <clipindex>1</clipindex>
              <groupindex>1</groupindex>
            </link>
            <link>
              <linkclipref>clipitem-250</linkclipref>
              <mediatype>audio</mediatype>
              <trackindex>4</trackindex>
              <clipindex>1</clipindex>
              <groupindex>1</groupindex>
            </link>
            <link>
              <linkclipref>clipitem-251</linkclipref>
              <mediatype>audio</mediatype>
              <trackindex>5</trackindex>
              <clipindex>1</clipindex>
              <groupindex>1</groupindex>
            </link>
            <link>
              <linkclipref>clipitem-252</linkclipref>
              <mediatype>audio</mediatype>
              <trackindex>6</trackindex>
              <clipindex>1</clipindex>
              <groupindex>1</groupindex>
            </link>
          </clipitem>
          <clipitem id="clipitem-254" premiereChannelType="Stereo">
            <masterclipid>masterclip-2</masterclipid>
            <name>2023-04-01 13-58-58溪神带飞王源5KCC.mp4</name>
            <enabled>TRUE</enabled>
            <rate>
              <timebase>60</timebase>
              <ntsc>FALSE</ntsc>
            </rate>
            <start>4596</start>
            <end>4848</end>
            <in>22937</in>
            <out>23189</out>
            <file id="file-2"/>
            <sourcetrack>
              <mediatype>audio</mediatype>
              <trackindex>1</trackindex>
            </sourcetrack>
            <link>
              <linkclipref>clipitem-253</linkclipref>
              <mediatype>video</mediatype>
              <trackindex>1</trackindex>
              <clipindex>1</clipindex>
            </link>
            <link>
              <linkclipref>clipitem-254</linkclipref>
              <mediatype>audio</mediatype>
              <trackindex>1</trackindex>
              <clipindex>1</clipindex>
              <groupindex>1</groupindex>
            </link>
            <link>
              <linkclipref>clipitem-255</linkclipref>
              <mediatype>audio</mediatype>
              <trackindex>2</trackindex>
              <clipindex>1</clipindex>
              <groupindex>1</groupindex>
            </link>
            <link>
              <linkclipref>clipitem-256</linkclipref>
              <mediatype>audio</mediatype>
              <trackindex>3</trackindex>
              <clipindex>1</clipindex>
              <groupindex>1</groupindex>
            </link>
            <link>
              <linkclipref>clipitem-257</linkclipref>
              <mediatype>audio</mediatype>
              <trackindex>4</trackindex>
              <clipindex>1</clipindex>
              <groupindex>1</groupindex>
            </link>
            <link>
              <linkclipref>clipitem-258</linkclipref>
              <mediatype>audio</mediatype>
              <trackindex>5</trackindex>
              <clipindex>1</clipindex>
              <groupindex>1</groupindex>
            </link>
            <link>
              <linkclipref>clipitem-259</linkclipref>
              <mediatype>audio</mediatype>
              <trackindex>6</trackindex>
              <clipindex>1</clipindex>
              <groupindex>1</groupindex>
            </link>
          </clipitem>
          <clipitem id="clipitem-261" premiereChannelType="Stereo">
            <masterclipid>masterclip-2</masterclipid>
            <name>2023-04-01 13-58-58溪神带飞王源5KCC.mp4</name>
            <enabled>TRUE</enabled>
            <rate>
              <timebase>60</timebase>
              <ntsc>FALSE</ntsc>
            </rate>
            <start>4848</start>
            <end>5027</end>
            <in>24127</in>
            <out>24306</out>
            <file id="file-2"/>
            <sourcetrack>
              <mediatype>audio</mediatype>
              <trackindex>1</trackindex>
            </sourcetrack>
            <link>
              <linkclipref>clipitem-260</linkclipref>
              <mediatype>video</mediatype>
              <trackindex>1</trackindex>
              <clipindex>1</clipindex>
            </link>
            <link>
              <linkclipref>clipitem-261</linkclipref>
              <mediatype>audio</mediatype>
              <trackindex>1</trackindex>
              <clipindex>1</clipindex>
              <groupindex>1</groupindex>
            </link>
            <link>
              <linkclipref>clipitem-262</linkclipref>
              <mediatype>audio</mediatype>
              <trackindex>2</trackindex>
              <clipindex>1</clipindex>
              <groupindex>1</groupindex>
            </link>
            <link>
              <linkclipref>clipitem-263</linkclipref>
              <mediatype>audio</mediatype>
              <trackindex>3</trackindex>
              <clipindex>1</clipindex>
              <groupindex>1</groupindex>
            </link>
            <link>
              <linkclipref>clipitem-264</linkclipref>
              <mediatype>audio</mediatype>
              <trackindex>4</trackindex>
              <clipindex>1</clipindex>
              <groupindex>1</groupindex>
            </link>
            <link>
              <linkclipref>clipitem-265</linkclipref>
              <mediatype>audio</mediatype>
              <trackindex>5</trackindex>
              <clipindex>1</clipindex>
              <groupindex>1</groupindex>
            </link>
            <link>
              <linkclipref>clipitem-266</linkclipref>
              <mediatype>audio</mediatype>
              <trackindex>6</trackindex>
              <clipindex>1</clipindex>
              <groupindex>1</groupindex>
            </link>
          </clipitem>
          <clipitem id="clipitem-268" premiereChannelType="Stereo">
            <masterclipid>masterclip-2</masterclipid>
            <name>2023-04-01 13-58-58溪神带飞王源5KCC.mp4</name>
            <enabled>TRUE</enabled>
            <rate>
              <timebase>60</timebase>
              <ntsc>FALSE</ntsc>
            </rate>
            <start>5027</start>
            <end>5103</end>
            <in>24579</in>
            <out>24655</out>
            <file id="file-2"/>
            <sourcetrack>
              <mediatype>audio</mediatype>
              <trackindex>1</trackindex>
            </sourcetrack>
            <link>
              <linkclipref>clipitem-267</linkclipref>
              <mediatype>video</mediatype>
              <trackindex>1</trackindex>
              <clipindex>1</clipindex>
            </link>
            <link>
              <linkclipref>clipitem-268</linkclipref>
              <mediatype>audio</mediatype>
              <trackindex>1</trackindex>
              <clipindex>1</clipindex>
              <groupindex>1</groupindex>
            </link>
            <link>
              <linkclipref>clipitem-269</linkclipref>
              <mediatype>audio</mediatype>
              <trackindex>2</trackindex>
              <clipindex>1</clipindex>
              <groupindex>1</groupindex>
            </link>
            <link>
              <linkclipref>clipitem-270</linkclipref>
              <mediatype>audio</mediatype>
              <trackindex>3</trackindex>
              <clipindex>1</clipindex>
              <groupindex>1</groupindex>
            </link>
            <link>
              <linkclipref>clipitem-271</linkclipref>
              <mediatype>audio</mediatype>
              <trackindex>4</trackindex>
              <clipindex>1</clipindex>
              <groupindex>1</groupindex>
            </link>
            <link>
              <linkclipref>clipitem-272</linkclipref>
              <mediatype>audio</mediatype>
              <trackindex>5</trackindex>
              <clipindex>1</clipindex>
              <groupindex>1</groupindex>
            </link>
            <link>
              <linkclipref>clipitem-273</linkclipref>
              <mediatype>audio</mediatype>
              <trackindex>6</trackindex>
              <clipindex>1</clipindex>
              <groupindex>1</groupindex>
            </link>
          </clipitem>
          <clipitem id="clipitem-275" premiereChannelType="Stereo">
            <masterclipid>masterclip-2</masterclipid>
            <name>2023-04-01 13-58-58溪神带飞王源5KCC.mp4</name>
            <enabled>TRUE</enabled>
            <rate>
              <timebase>60</timebase>
              <ntsc>FALSE</ntsc>
            </rate>
            <start>5103</start>
            <end>5273</end>
            <in>24893</in>
            <out>25063</out>
            <file id="file-2"/>
            <sourcetrack>
              <mediatype>audio</mediatype>
              <trackindex>1</trackindex>
            </sourcetrack>
            <link>
              <linkclipref>clipitem-274</linkclipref>
              <mediatype>video</mediatype>
              <trackindex>1</trackindex>
              <clipindex>1</clipindex>
            </link>
            <link>
              <linkclipref>clipitem-275</linkclipref>
              <mediatype>audio</mediatype>
              <trackindex>1</trackindex>
              <clipindex>1</clipindex>
              <groupindex>1</groupindex>
            </link>
            <link>
              <linkclipref>clipitem-276</linkclipref>
              <mediatype>audio</mediatype>
              <trackindex>2</trackindex>
              <clipindex>1</clipindex>
              <groupindex>1</groupindex>
            </link>
            <link>
              <linkclipref>clipitem-277</linkclipref>
              <mediatype>audio</mediatype>
              <trackindex>3</trackindex>
              <clipindex>1</clipindex>
              <groupindex>1</groupindex>
            </link>
            <link>
              <linkclipref>clipitem-278</linkclipref>
              <mediatype>audio</mediatype>
              <trackindex>4</trackindex>
              <clipindex>1</clipindex>
              <groupindex>1</groupindex>
            </link>
            <link>
              <linkclipref>clipitem-279</linkclipref>
              <mediatype>audio</mediatype>
              <trackindex>5</trackindex>
              <clipindex>1</clipindex>
              <groupindex>1</groupindex>
            </link>
            <link>
              <linkclipref>clipitem-280</linkclipref>
              <mediatype>audio</mediatype>
              <trackindex>6</trackindex>
              <clipindex>1</clipindex>
              <groupindex>1</groupindex>
            </link>
          </clipitem>
          <clipitem id="clipitem-282" premiereChannelType="Stereo">
            <masterclipid>masterclip-2</masterclipid>
            <name>2023-04-01 13-58-58溪神带飞王源5KCC.mp4</name>
            <enabled>TRUE</enabled>
            <rate>
              <timebase>60</timebase>
              <ntsc>FALSE</ntsc>
            </rate>
            <start>5273</start>
            <end>5350</end>
            <in>31222</in>
            <out>31299</out>
            <file id="file-2"/>
            <sourcetrack>
              <mediatype>audio</mediatype>
              <trackindex>1</trackindex>
            </sourcetrack>
            <link>
              <linkclipref>clipitem-281</linkclipref>
              <mediatype>video</mediatype>
              <trackindex>1</trackindex>
              <clipindex>1</clipindex>
            </link>
            <link>
              <linkclipref>clipitem-282</linkclipref>
              <mediatype>audio</mediatype>
              <trackindex>1</trackindex>
              <clipindex>1</clipindex>
              <groupindex>1</groupindex>
            </link>
            <link>
              <linkclipref>clipitem-283</linkclipref>
              <mediatype>audio</mediatype>
              <trackindex>2</trackindex>
              <clipindex>1</clipindex>
              <groupindex>1</groupindex>
            </link>
            <link>
              <linkclipref>clipitem-284</linkclipref>
              <mediatype>audio</mediatype>
              <trackindex>3</trackindex>
              <clipindex>1</clipindex>
              <groupindex>1</groupindex>
            </link>
            <link>
              <linkclipref>clipitem-285</linkclipref>
              <mediatype>audio</mediatype>
              <trackindex>4</trackindex>
              <clipindex>1</clipindex>
              <groupindex>1</groupindex>
            </link>
            <link>
              <linkclipref>clipitem-286</linkclipref>
              <mediatype>audio</mediatype>
              <trackindex>5</trackindex>
              <clipindex>1</clipindex>
              <groupindex>1</groupindex>
            </link>
            <link>
              <linkclipref>clipitem-287</linkclipref>
              <mediatype>audio</mediatype>
              <trackindex>6</trackindex>
              <clipindex>1</clipindex>
              <groupindex>1</groupindex>
            </link>
          </clipitem>
          <clipitem id="clipitem-289" premiereChannelType="Stereo">
            <masterclipid>masterclip-2</masterclipid>
            <name>2023-04-01 13-58-58溪神带飞王源5KCC.mp4</name>
            <enabled>TRUE</enabled>
            <rate>
              <timebase>60</timebase>
              <ntsc>FALSE</ntsc>
            </rate>
            <start>5350</start>
            <end>5459</end>
            <in>31478</in>
            <out>31587</out>
            <file id="file-2"/>
            <sourcetrack>
              <mediatype>audio</mediatype>
              <trackindex>1</trackindex>
            </sourcetrack>
            <link>
              <linkclipref>clipitem-288</linkclipref>
              <mediatype>video</mediatype>
              <trackindex>1</trackindex>
              <clipindex>1</clipindex>
            </link>
            <link>
              <linkclipref>clipitem-289</linkclipref>
              <mediatype>audio</mediatype>
              <trackindex>1</trackindex>
              <clipindex>1</clipindex>
              <groupindex>1</groupindex>
            </link>
            <link>
              <linkclipref>clipitem-290</linkclipref>
              <mediatype>audio</mediatype>
              <trackindex>2</trackindex>
              <clipindex>1</clipindex>
              <groupindex>1</groupindex>
            </link>
            <link>
              <linkclipref>clipitem-291</linkclipref>
              <mediatype>audio</mediatype>
              <trackindex>3</trackindex>
              <clipindex>1</clipindex>
              <groupindex>1</groupindex>
            </link>
            <link>
              <linkclipref>clipitem-292</linkclipref>
              <mediatype>audio</mediatype>
              <trackindex>4</trackindex>
              <clipindex>1</clipindex>
              <groupindex>1</groupindex>
            </link>
            <link>
              <linkclipref>clipitem-293</linkclipref>
              <mediatype>audio</mediatype>
              <trackindex>5</trackindex>
              <clipindex>1</clipindex>
              <groupindex>1</groupindex>
            </link>
            <link>
              <linkclipref>clipitem-294</linkclipref>
              <mediatype>audio</mediatype>
              <trackindex>6</trackindex>
              <clipindex>1</clipindex>
              <groupindex>1</groupindex>
            </link>
          </clipitem>
          <clipitem id="clipitem-296" premiereChannelType="Stereo">
            <masterclipid>masterclip-2</masterclipid>
            <name>2023-04-01 13-58-58溪神带飞王源5KCC.mp4</name>
            <enabled>TRUE</enabled>
            <rate>
              <timebase>60</timebase>
              <ntsc>FALSE</ntsc>
            </rate>
            <start>5459</start>
            <end>5662</end>
            <in>33212</in>
            <out>33415</out>
            <file id="file-2"/>
            <sourcetrack>
              <mediatype>audio</mediatype>
              <trackindex>1</trackindex>
            </sourcetrack>
            <link>
              <linkclipref>clipitem-295</linkclipref>
              <mediatype>video</mediatype>
              <trackindex>1</trackindex>
              <clipindex>1</clipindex>
            </link>
            <link>
              <linkclipref>clipitem-296</linkclipref>
              <mediatype>audio</mediatype>
              <trackindex>1</trackindex>
              <clipindex>1</clipindex>
              <groupindex>1</groupindex>
            </link>
            <link>
              <linkclipref>clipitem-297</linkclipref>
              <mediatype>audio</mediatype>
              <trackindex>2</trackindex>
              <clipindex>1</clipindex>
              <groupindex>1</groupindex>
            </link>
            <link>
              <linkclipref>clipitem-298</linkclipref>
              <mediatype>audio</mediatype>
              <trackindex>3</trackindex>
              <clipindex>1</clipindex>
              <groupindex>1</groupindex>
            </link>
            <link>
              <linkclipref>clipitem-299</linkclipref>
              <mediatype>audio</mediatype>
              <trackindex>4</trackindex>
              <clipindex>1</clipindex>
              <groupindex>1</groupindex>
            </link>
            <link>
              <linkclipref>clipitem-300</linkclipref>
              <mediatype>audio</mediatype>
              <trackindex>5</trackindex>
              <clipindex>1</clipindex>
              <groupindex>1</groupindex>
            </link>
            <link>
              <linkclipref>clipitem-301</linkclipref>
              <mediatype>audio</mediatype>
              <trackindex>6</trackindex>
              <clipindex>1</clipindex>
              <groupindex>1</groupindex>
            </link>
          </clipitem>
          <clipitem id="clipitem-303" premiereChannelType="Stereo">
            <masterclipid>masterclip-2</masterclipid>
            <name>2023-04-01 13-58-58溪神带飞王源5KCC.mp4</name>
            <enabled>TRUE</enabled>
            <rate>
              <timebase>60</timebase>
              <ntsc>FALSE</ntsc>
            </rate>
            <start>5662</start>
            <end>5816</end>
            <in>33743</in>
            <out>33897</out>
            <file id="file-2"/>
            <sourcetrack>
              <mediatype>audio</mediatype>
              <trackindex>1</trackindex>
            </sourcetrack>
            <link>
              <linkclipref>clipitem-302</linkclipref>
              <mediatype>video</mediatype>
              <trackindex>1</trackindex>
              <clipindex>1</clipindex>
            </link>
            <link>
              <linkclipref>clipitem-303</linkclipref>
              <mediatype>audio</mediatype>
              <trackindex>1</trackindex>
              <clipindex>1</clipindex>
              <groupindex>1</groupindex>
            </link>
            <link>
              <linkclipref>clipitem-304</linkclipref>
              <mediatype>audio</mediatype>
              <trackindex>2</trackindex>
              <clipindex>1</clipindex>
              <groupindex>1</groupindex>
            </link>
            <link>
              <linkclipref>clipitem-305</linkclipref>
              <mediatype>audio</mediatype>
              <trackindex>3</trackindex>
              <clipindex>1</clipindex>
              <groupindex>1</groupindex>
            </link>
            <link>
              <linkclipref>clipitem-306</linkclipref>
              <mediatype>audio</mediatype>
              <trackindex>4</trackindex>
              <clipindex>1</clipindex>
              <groupindex>1</groupindex>
            </link>
            <link>
              <linkclipref>clipitem-307</linkclipref>
              <mediatype>audio</mediatype>
              <trackindex>5</trackindex>
              <clipindex>1</clipindex>
              <groupindex>1</groupindex>
            </link>
            <link>
              <linkclipref>clipitem-308</linkclipref>
              <mediatype>audio</mediatype>
              <trackindex>6</trackindex>
              <clipindex>1</clipindex>
              <groupindex>1</groupindex>
            </link>
          </clipitem>
          <clipitem id="clipitem-310" premiereChannelType="Stereo">
            <masterclipid>masterclip-2</masterclipid>
            <name>2023-04-01 13-58-58溪神带飞王源5KCC.mp4</name>
            <enabled>TRUE</enabled>
            <rate>
              <timebase>60</timebase>
              <ntsc>FALSE</ntsc>
            </rate>
            <start>5816</start>
            <end>6008</end>
            <in>34010</in>
            <out>34202</out>
            <file id="file-2"/>
            <sourcetrack>
              <mediatype>audio</mediatype>
              <trackindex>1</trackindex>
            </sourcetrack>
            <link>
              <linkclipref>clipitem-309</linkclipref>
              <mediatype>video</mediatype>
              <trackindex>1</trackindex>
              <clipindex>1</clipindex>
            </link>
            <link>
              <linkclipref>clipitem-310</linkclipref>
              <mediatype>audio</mediatype>
              <trackindex>1</trackindex>
              <clipindex>1</clipindex>
              <groupindex>1</groupindex>
            </link>
            <link>
              <linkclipref>clipitem-311</linkclipref>
              <mediatype>audio</mediatype>
              <trackindex>2</trackindex>
              <clipindex>1</clipindex>
              <groupindex>1</groupindex>
            </link>
            <link>
              <linkclipref>clipitem-312</linkclipref>
              <mediatype>audio</mediatype>
              <trackindex>3</trackindex>
              <clipindex>1</clipindex>
              <groupindex>1</groupindex>
            </link>
            <link>
              <linkclipref>clipitem-313</linkclipref>
              <mediatype>audio</mediatype>
              <trackindex>4</trackindex>
              <clipindex>1</clipindex>
              <groupindex>1</groupindex>
            </link>
            <link>
              <linkclipref>clipitem-314</linkclipref>
              <mediatype>audio</mediatype>
              <trackindex>5</trackindex>
              <clipindex>1</clipindex>
              <groupindex>1</groupindex>
            </link>
            <link>
              <linkclipref>clipitem-315</linkclipref>
              <mediatype>audio</mediatype>
              <trackindex>6</trackindex>
              <clipindex>1</clipindex>
              <groupindex>1</groupindex>
            </link>
          </clipitem>
          <clipitem id="clipitem-317" premiereChannelType="Stereo">
            <masterclipid>masterclip-2</masterclipid>
            <name>2023-04-01 13-58-58溪神带飞王源5KCC.mp4</name>
            <enabled>TRUE</enabled>
            <rate>
              <timebase>60</timebase>
              <ntsc>FALSE</ntsc>
            </rate>
            <start>6008</start>
            <end>6171</end>
            <in>39130</in>
            <out>39293</out>
            <file id="file-2"/>
            <sourcetrack>
              <mediatype>audio</mediatype>
              <trackindex>1</trackindex>
            </sourcetrack>
            <link>
              <linkclipref>clipitem-316</linkclipref>
              <mediatype>video</mediatype>
              <trackindex>1</trackindex>
              <clipindex>1</clipindex>
            </link>
            <link>
              <linkclipref>clipitem-317</linkclipref>
              <mediatype>audio</mediatype>
              <trackindex>1</trackindex>
              <clipindex>1</clipindex>
              <groupindex>1</groupindex>
            </link>
            <link>
              <linkclipref>clipitem-318</linkclipref>
              <mediatype>audio</mediatype>
              <trackindex>2</trackindex>
              <clipindex>1</clipindex>
              <groupindex>1</groupindex>
            </link>
            <link>
              <linkclipref>clipitem-319</linkclipref>
              <mediatype>audio</mediatype>
              <trackindex>3</trackindex>
              <clipindex>1</clipindex>
              <groupindex>1</groupindex>
            </link>
            <link>
              <linkclipref>clipitem-320</linkclipref>
              <mediatype>audio</mediatype>
              <trackindex>4</trackindex>
              <clipindex>1</clipindex>
              <groupindex>1</groupindex>
            </link>
            <link>
              <linkclipref>clipitem-321</linkclipref>
              <mediatype>audio</mediatype>
              <trackindex>5</trackindex>
              <clipindex>1</clipindex>
              <groupindex>1</groupindex>
            </link>
            <link>
              <linkclipref>clipitem-322</linkclipref>
              <mediatype>audio</mediatype>
              <trackindex>6</trackindex>
              <clipindex>1</clipindex>
              <groupindex>1</groupindex>
            </link>
          </clipitem>
          <clipitem id="clipitem-324" premiereChannelType="Stereo">
            <masterclipid>masterclip-2</masterclipid>
            <name>2023-04-01 13-58-58溪神带飞王源5KCC.mp4</name>
            <enabled>TRUE</enabled>
            <rate>
              <timebase>60</timebase>
              <ntsc>FALSE</ntsc>
            </rate>
            <start>6171</start>
            <end>6321</end>
            <in>39388</in>
            <out>39538</out>
            <file id="file-2"/>
            <sourcetrack>
              <mediatype>audio</mediatype>
              <trackindex>1</trackindex>
            </sourcetrack>
            <link>
              <linkclipref>clipitem-323</linkclipref>
              <mediatype>video</mediatype>
              <trackindex>1</trackindex>
              <clipindex>1</clipindex>
            </link>
            <link>
              <linkclipref>clipitem-324</linkclipref>
              <mediatype>audio</mediatype>
              <trackindex>1</trackindex>
              <clipindex>1</clipindex>
              <groupindex>1</groupindex>
            </link>
            <link>
              <linkclipref>clipitem-325</linkclipref>
              <mediatype>audio</mediatype>
              <trackindex>2</trackindex>
              <clipindex>1</clipindex>
              <groupindex>1</groupindex>
            </link>
            <link>
              <linkclipref>clipitem-326</linkclipref>
              <mediatype>audio</mediatype>
              <trackindex>3</trackindex>
              <clipindex>1</clipindex>
              <groupindex>1</groupindex>
            </link>
            <link>
              <linkclipref>clipitem-327</linkclipref>
              <mediatype>audio</mediatype>
              <trackindex>4</trackindex>
              <clipindex>1</clipindex>
              <groupindex>1</groupindex>
            </link>
            <link>
              <linkclipref>clipitem-328</linkclipref>
              <mediatype>audio</mediatype>
              <trackindex>5</trackindex>
              <clipindex>1</clipindex>
              <groupindex>1</groupindex>
            </link>
            <link>
              <linkclipref>clipitem-329</linkclipref>
              <mediatype>audio</mediatype>
              <trackindex>6</trackindex>
              <clipindex>1</clipindex>
              <groupindex>1</groupindex>
            </link>
          </clipitem>
          <clipitem id="clipitem-331" premiereChannelType="Stereo">
            <masterclipid>masterclip-2</masterclipid>
            <name>2023-04-01 13-58-58溪神带飞王源5KCC.mp4</name>
            <enabled>TRUE</enabled>
            <rate>
              <timebase>60</timebase>
              <ntsc>FALSE</ntsc>
            </rate>
            <start>6321</start>
            <end>6559</end>
            <in>39755</in>
            <out>39993</out>
            <file id="file-2"/>
            <sourcetrack>
              <mediatype>audio</mediatype>
              <trackindex>1</trackindex>
            </sourcetrack>
            <link>
              <linkclipref>clipitem-330</linkclipref>
              <mediatype>video</mediatype>
              <trackindex>1</trackindex>
              <clipindex>1</clipindex>
            </link>
            <link>
              <linkclipref>clipitem-331</linkclipref>
              <mediatype>audio</mediatype>
              <trackindex>1</trackindex>
              <clipindex>1</clipindex>
              <groupindex>1</groupindex>
            </link>
            <link>
              <linkclipref>clipitem-332</linkclipref>
              <mediatype>audio</mediatype>
              <trackindex>2</trackindex>
              <clipindex>1</clipindex>
              <groupindex>1</groupindex>
            </link>
            <link>
              <linkclipref>clipitem-333</linkclipref>
              <mediatype>audio</mediatype>
              <trackindex>3</trackindex>
              <clipindex>1</clipindex>
              <groupindex>1</groupindex>
            </link>
            <link>
              <linkclipref>clipitem-334</linkclipref>
              <mediatype>audio</mediatype>
              <trackindex>4</trackindex>
              <clipindex>1</clipindex>
              <groupindex>1</groupindex>
            </link>
            <link>
              <linkclipref>clipitem-335</linkclipref>
              <mediatype>audio</mediatype>
              <trackindex>5</trackindex>
              <clipindex>1</clipindex>
              <groupindex>1</groupindex>
            </link>
            <link>
              <linkclipref>clipitem-336</linkclipref>
              <mediatype>audio</mediatype>
              <trackindex>6</trackindex>
              <clipindex>1</clipindex>
              <groupindex>1</groupindex>
            </link>
          </clipitem>
          <clipitem id="clipitem-338" premiereChannelType="Stereo">
            <masterclipid>masterclip-2</masterclipid>
            <name>2023-04-01 13-58-58溪神带飞王源5KCC.mp4</name>
            <enabled>TRUE</enabled>
            <rate>
              <timebase>60</timebase>
              <ntsc>FALSE</ntsc>
            </rate>
            <start>6559</start>
            <end>6647</end>
            <in>40286</in>
            <out>40374</out>
            <file id="file-2"/>
            <sourcetrack>
              <mediatype>audio</mediatype>
              <trackindex>1</trackindex>
            </sourcetrack>
            <link>
              <linkclipref>clipitem-337</linkclipref>
              <mediatype>video</mediatype>
              <trackindex>1</trackindex>
              <clipindex>1</clipindex>
            </link>
            <link>
              <linkclipref>clipitem-338</linkclipref>
              <mediatype>audio</mediatype>
              <trackindex>1</trackindex>
              <clipindex>1</clipindex>
              <groupindex>1</groupindex>
            </link>
            <link>
              <linkclipref>clipitem-339</linkclipref>
              <mediatype>audio</mediatype>
              <trackindex>2</trackindex>
              <clipindex>1</clipindex>
              <groupindex>1</groupindex>
            </link>
            <link>
              <linkclipref>clipitem-340</linkclipref>
              <mediatype>audio</mediatype>
              <trackindex>3</trackindex>
              <clipindex>1</clipindex>
              <groupindex>1</groupindex>
            </link>
            <link>
              <linkclipref>clipitem-341</linkclipref>
              <mediatype>audio</mediatype>
              <trackindex>4</trackindex>
              <clipindex>1</clipindex>
              <groupindex>1</groupindex>
            </link>
            <link>
              <linkclipref>clipitem-342</linkclipref>
              <mediatype>audio</mediatype>
              <trackindex>5</trackindex>
              <clipindex>1</clipindex>
              <groupindex>1</groupindex>
            </link>
            <link>
              <linkclipref>clipitem-343</linkclipref>
              <mediatype>audio</mediatype>
              <trackindex>6</trackindex>
              <clipindex>1</clipindex>
              <groupindex>1</groupindex>
            </link>
          </clipitem>
          <clipitem id="clipitem-345" premiereChannelType="Stereo">
            <masterclipid>masterclip-2</masterclipid>
            <name>2023-04-01 13-58-58溪神带飞王源5KCC.mp4</name>
            <enabled>TRUE</enabled>
            <rate>
              <timebase>60</timebase>
              <ntsc>FALSE</ntsc>
            </rate>
            <start>6647</start>
            <end>6865</end>
            <in>43166</in>
            <out>43384</out>
            <file id="file-2"/>
            <sourcetrack>
              <mediatype>audio</mediatype>
              <trackindex>1</trackindex>
            </sourcetrack>
            <link>
              <linkclipref>clipitem-344</linkclipref>
              <mediatype>video</mediatype>
              <trackindex>1</trackindex>
              <clipindex>1</clipindex>
            </link>
            <link>
              <linkclipref>clipitem-345</linkclipref>
              <mediatype>audio</mediatype>
              <trackindex>1</trackindex>
              <clipindex>1</clipindex>
              <groupindex>1</groupindex>
            </link>
            <link>
              <linkclipref>clipitem-346</linkclipref>
              <mediatype>audio</mediatype>
              <trackindex>2</trackindex>
              <clipindex>1</clipindex>
              <groupindex>1</groupindex>
            </link>
            <link>
              <linkclipref>clipitem-347</linkclipref>
              <mediatype>audio</mediatype>
              <trackindex>3</trackindex>
              <clipindex>1</clipindex>
              <groupindex>1</groupindex>
            </link>
            <link>
              <linkclipref>clipitem-348</linkclipref>
              <mediatype>audio</mediatype>
              <trackindex>4</trackindex>
              <clipindex>1</clipindex>
              <groupindex>1</groupindex>
            </link>
            <link>
              <linkclipref>clipitem-349</linkclipref>
              <mediatype>audio</mediatype>
              <trackindex>5</trackindex>
              <clipindex>1</clipindex>
              <groupindex>1</groupindex>
            </link>
            <link>
              <linkclipref>clipitem-350</linkclipref>
              <mediatype>audio</mediatype>
              <trackindex>6</trackindex>
              <clipindex>1</clipindex>
              <groupindex>1</groupindex>
            </link>
          </clipitem>
          <clipitem id="clipitem-352" premiereChannelType="Stereo">
            <masterclipid>masterclip-2</masterclipid>
            <name>2023-04-01 13-58-58溪神带飞王源5KCC.mp4</name>
            <enabled>TRUE</enabled>
            <rate>
              <timebase>60</timebase>
              <ntsc>FALSE</ntsc>
            </rate>
            <start>6865</start>
            <end>6977</end>
            <in>43394</in>
            <out>43506</out>
            <file id="file-2"/>
            <sourcetrack>
              <mediatype>audio</mediatype>
              <trackindex>1</trackindex>
            </sourcetrack>
            <link>
              <linkclipref>clipitem-351</linkclipref>
              <mediatype>video</mediatype>
              <trackindex>1</trackindex>
              <clipindex>1</clipindex>
            </link>
            <link>
              <linkclipref>clipitem-352</linkclipref>
              <mediatype>audio</mediatype>
              <trackindex>1</trackindex>
              <clipindex>1</clipindex>
              <groupindex>1</groupindex>
            </link>
            <link>
              <linkclipref>clipitem-353</linkclipref>
              <mediatype>audio</mediatype>
              <trackindex>2</trackindex>
              <clipindex>1</clipindex>
              <groupindex>1</groupindex>
            </link>
            <link>
              <linkclipref>clipitem-354</linkclipref>
              <mediatype>audio</mediatype>
              <trackindex>3</trackindex>
              <clipindex>1</clipindex>
              <groupindex>1</groupindex>
            </link>
            <link>
              <linkclipref>clipitem-355</linkclipref>
              <mediatype>audio</mediatype>
              <trackindex>4</trackindex>
              <clipindex>1</clipindex>
              <groupindex>1</groupindex>
            </link>
            <link>
              <linkclipref>clipitem-356</linkclipref>
              <mediatype>audio</mediatype>
              <trackindex>5</trackindex>
              <clipindex>1</clipindex>
              <groupindex>1</groupindex>
            </link>
            <link>
              <linkclipref>clipitem-357</linkclipref>
              <mediatype>audio</mediatype>
              <trackindex>6</trackindex>
              <clipindex>1</clipindex>
              <groupindex>1</groupindex>
            </link>
          </clipitem>
          <clipitem id="clipitem-359" premiereChannelType="Stereo">
            <masterclipid>masterclip-2</masterclipid>
            <name>2023-04-01 13-58-58溪神带飞王源5KCC.mp4</name>
            <enabled>TRUE</enabled>
            <rate>
              <timebase>60</timebase>
              <ntsc>FALSE</ntsc>
            </rate>
            <start>6977</start>
            <end>7192</end>
            <in>48926</in>
            <out>49141</out>
            <file id="file-2"/>
            <sourcetrack>
              <mediatype>audio</mediatype>
              <trackindex>1</trackindex>
            </sourcetrack>
            <link>
              <linkclipref>clipitem-358</linkclipref>
              <mediatype>video</mediatype>
              <trackindex>1</trackindex>
              <clipindex>1</clipindex>
            </link>
            <link>
              <linkclipref>clipitem-359</linkclipref>
              <mediatype>audio</mediatype>
              <trackindex>1</trackindex>
              <clipindex>1</clipindex>
              <groupindex>1</groupindex>
            </link>
            <link>
              <linkclipref>clipitem-360</linkclipref>
              <mediatype>audio</mediatype>
              <trackindex>2</trackindex>
              <clipindex>1</clipindex>
              <groupindex>1</groupindex>
            </link>
            <link>
              <linkclipref>clipitem-361</linkclipref>
              <mediatype>audio</mediatype>
              <trackindex>3</trackindex>
              <clipindex>1</clipindex>
              <groupindex>1</groupindex>
            </link>
            <link>
              <linkclipref>clipitem-362</linkclipref>
              <mediatype>audio</mediatype>
              <trackindex>4</trackindex>
              <clipindex>1</clipindex>
              <groupindex>1</groupindex>
            </link>
            <link>
              <linkclipref>clipitem-363</linkclipref>
              <mediatype>audio</mediatype>
              <trackindex>5</trackindex>
              <clipindex>1</clipindex>
              <groupindex>1</groupindex>
            </link>
            <link>
              <linkclipref>clipitem-364</linkclipref>
              <mediatype>audio</mediatype>
              <trackindex>6</trackindex>
              <clipindex>1</clipindex>
              <groupindex>1</groupindex>
            </link>
          </clipitem>
          <clipitem id="clipitem-366" premiereChannelType="Stereo">
            <masterclipid>masterclip-2</masterclipid>
            <name>2023-04-01 13-58-58溪神带飞王源5KCC.mp4</name>
            <enabled>TRUE</enabled>
            <rate>
              <timebase>60</timebase>
              <ntsc>FALSE</ntsc>
            </rate>
            <start>7192</start>
            <end>7401</end>
            <in>49153</in>
            <out>49362</out>
            <file id="file-2"/>
            <sourcetrack>
              <mediatype>audio</mediatype>
              <trackindex>1</trackindex>
            </sourcetrack>
            <link>
              <linkclipref>clipitem-365</linkclipref>
              <mediatype>video</mediatype>
              <trackindex>1</trackindex>
              <clipindex>1</clipindex>
            </link>
            <link>
              <linkclipref>clipitem-366</linkclipref>
              <mediatype>audio</mediatype>
              <trackindex>1</trackindex>
              <clipindex>1</clipindex>
              <groupindex>1</groupindex>
            </link>
            <link>
              <linkclipref>clipitem-367</linkclipref>
              <mediatype>audio</mediatype>
              <trackindex>2</trackindex>
              <clipindex>1</clipindex>
              <groupindex>1</groupindex>
            </link>
            <link>
              <linkclipref>clipitem-368</linkclipref>
              <mediatype>audio</mediatype>
              <trackindex>3</trackindex>
              <clipindex>1</clipindex>
              <groupindex>1</groupindex>
            </link>
            <link>
              <linkclipref>clipitem-369</linkclipref>
              <mediatype>audio</mediatype>
              <trackindex>4</trackindex>
              <clipindex>1</clipindex>
              <groupindex>1</groupindex>
            </link>
            <link>
              <linkclipref>clipitem-370</linkclipref>
              <mediatype>audio</mediatype>
              <trackindex>5</trackindex>
              <clipindex>1</clipindex>
              <groupindex>1</groupindex>
            </link>
            <link>
              <linkclipref>clipitem-371</linkclipref>
              <mediatype>audio</mediatype>
              <trackindex>6</trackindex>
              <clipindex>1</clipindex>
              <groupindex>1</groupindex>
            </link>
          </clipitem>
          <clipitem id="clipitem-373" premiereChannelType="Stereo">
            <masterclipid>masterclip-2</masterclipid>
            <name>2023-04-01 13-58-58溪神带飞王源5KCC.mp4</name>
            <enabled>TRUE</enabled>
            <rate>
              <timebase>60</timebase>
              <ntsc>FALSE</ntsc>
            </rate>
            <start>7401</start>
            <end>7529</end>
            <in>49768</in>
            <out>49896</out>
            <file id="file-2"/>
            <sourcetrack>
              <mediatype>audio</mediatype>
              <trackindex>1</trackindex>
            </sourcetrack>
            <link>
              <linkclipref>clipitem-372</linkclipref>
              <mediatype>video</mediatype>
              <trackindex>1</trackindex>
              <clipindex>1</clipindex>
            </link>
            <link>
              <linkclipref>clipitem-373</linkclipref>
              <mediatype>audio</mediatype>
              <trackindex>1</trackindex>
              <clipindex>1</clipindex>
              <groupindex>1</groupindex>
            </link>
            <link>
              <linkclipref>clipitem-374</linkclipref>
              <mediatype>audio</mediatype>
              <trackindex>2</trackindex>
              <clipindex>1</clipindex>
              <groupindex>1</groupindex>
            </link>
            <link>
              <linkclipref>clipitem-375</linkclipref>
              <mediatype>audio</mediatype>
              <trackindex>3</trackindex>
              <clipindex>1</clipindex>
              <groupindex>1</groupindex>
            </link>
            <link>
              <linkclipref>clipitem-376</linkclipref>
              <mediatype>audio</mediatype>
              <trackindex>4</trackindex>
              <clipindex>1</clipindex>
              <groupindex>1</groupindex>
            </link>
            <link>
              <linkclipref>clipitem-377</linkclipref>
              <mediatype>audio</mediatype>
              <trackindex>5</trackindex>
              <clipindex>1</clipindex>
              <groupindex>1</groupindex>
            </link>
            <link>
              <linkclipref>clipitem-378</linkclipref>
              <mediatype>audio</mediatype>
              <trackindex>6</trackindex>
              <clipindex>1</clipindex>
              <groupindex>1</groupindex>
            </link>
          </clipitem>
          <clipitem id="clipitem-380" premiereChannelType="Stereo">
            <masterclipid>masterclip-2</masterclipid>
            <name>2023-04-01 13-58-58溪神带飞王源5KCC.mp4</name>
            <enabled>TRUE</enabled>
            <rate>
              <timebase>60</timebase>
              <ntsc>FALSE</ntsc>
            </rate>
            <start>7529</start>
            <end>7724</end>
            <in>52898</in>
            <out>53093</out>
            <file id="file-2"/>
            <sourcetrack>
              <mediatype>audio</mediatype>
              <trackindex>1</trackindex>
            </sourcetrack>
            <link>
              <linkclipref>clipitem-379</linkclipref>
              <mediatype>video</mediatype>
              <trackindex>1</trackindex>
              <clipindex>1</clipindex>
            </link>
            <link>
              <linkclipref>clipitem-380</linkclipref>
              <mediatype>audio</mediatype>
              <trackindex>1</trackindex>
              <clipindex>1</clipindex>
              <groupindex>1</groupindex>
            </link>
            <link>
              <linkclipref>clipitem-381</linkclipref>
              <mediatype>audio</mediatype>
              <trackindex>2</trackindex>
              <clipindex>1</clipindex>
              <groupindex>1</groupindex>
            </link>
            <link>
              <linkclipref>clipitem-382</linkclipref>
              <mediatype>audio</mediatype>
              <trackindex>3</trackindex>
              <clipindex>1</clipindex>
              <groupindex>1</groupindex>
            </link>
            <link>
              <linkclipref>clipitem-383</linkclipref>
              <mediatype>audio</mediatype>
              <trackindex>4</trackindex>
              <clipindex>1</clipindex>
              <groupindex>1</groupindex>
            </link>
            <link>
              <linkclipref>clipitem-384</linkclipref>
              <mediatype>audio</mediatype>
              <trackindex>5</trackindex>
              <clipindex>1</clipindex>
              <groupindex>1</groupindex>
            </link>
            <link>
              <linkclipref>clipitem-385</linkclipref>
              <mediatype>audio</mediatype>
              <trackindex>6</trackindex>
              <clipindex>1</clipindex>
              <groupindex>1</groupindex>
            </link>
          </clipitem>
          <clipitem id="clipitem-387" premiereChannelType="Stereo">
            <masterclipid>masterclip-2</masterclipid>
            <name>2023-04-01 13-58-58溪神带飞王源5KCC.mp4</name>
            <enabled>TRUE</enabled>
            <rate>
              <timebase>60</timebase>
              <ntsc>FALSE</ntsc>
            </rate>
            <start>7724</start>
            <end>7856</end>
            <in>53201</in>
            <out>53333</out>
            <file id="file-2"/>
            <sourcetrack>
              <mediatype>audio</mediatype>
              <trackindex>1</trackindex>
            </sourcetrack>
            <link>
              <linkclipref>clipitem-386</linkclipref>
              <mediatype>video</mediatype>
              <trackindex>1</trackindex>
              <clipindex>1</clipindex>
            </link>
            <link>
              <linkclipref>clipitem-387</linkclipref>
              <mediatype>audio</mediatype>
              <trackindex>1</trackindex>
              <clipindex>1</clipindex>
              <groupindex>1</groupindex>
            </link>
            <link>
              <linkclipref>clipitem-388</linkclipref>
              <mediatype>audio</mediatype>
              <trackindex>2</trackindex>
              <clipindex>1</clipindex>
              <groupindex>1</groupindex>
            </link>
            <link>
              <linkclipref>clipitem-389</linkclipref>
              <mediatype>audio</mediatype>
              <trackindex>3</trackindex>
              <clipindex>1</clipindex>
              <groupindex>1</groupindex>
            </link>
            <link>
              <linkclipref>clipitem-390</linkclipref>
              <mediatype>audio</mediatype>
              <trackindex>4</trackindex>
              <clipindex>1</clipindex>
              <groupindex>1</groupindex>
            </link>
            <link>
              <linkclipref>clipitem-391</linkclipref>
              <mediatype>audio</mediatype>
              <trackindex>5</trackindex>
              <clipindex>1</clipindex>
              <groupindex>1</groupindex>
            </link>
            <link>
              <linkclipref>clipitem-392</linkclipref>
              <mediatype>audio</mediatype>
              <trackindex>6</trackindex>
              <clipindex>1</clipindex>
              <groupindex>1</groupindex>
            </link>
          </clipitem>
          <clipitem id="clipitem-394" premiereChannelType="Stereo">
            <masterclipid>masterclip-2</masterclipid>
            <name>2023-04-01 13-58-58溪神带飞王源5KCC.mp4</name>
            <enabled>TRUE</enabled>
            <rate>
              <timebase>60</timebase>
              <ntsc>FALSE</ntsc>
            </rate>
            <start>7856</start>
            <end>8015</end>
            <in>53758</in>
            <out>53917</out>
            <file id="file-2"/>
            <sourcetrack>
              <mediatype>audio</mediatype>
              <trackindex>1</trackindex>
            </sourcetrack>
            <link>
              <linkclipref>clipitem-393</linkclipref>
              <mediatype>video</mediatype>
              <trackindex>1</trackindex>
              <clipindex>1</clipindex>
            </link>
            <link>
              <linkclipref>clipitem-394</linkclipref>
              <mediatype>audio</mediatype>
              <trackindex>1</trackindex>
              <clipindex>1</clipindex>
              <groupindex>1</groupindex>
            </link>
            <link>
              <linkclipref>clipitem-395</linkclipref>
              <mediatype>audio</mediatype>
              <trackindex>2</trackindex>
              <clipindex>1</clipindex>
              <groupindex>1</groupindex>
            </link>
            <link>
              <linkclipref>clipitem-396</linkclipref>
              <mediatype>audio</mediatype>
              <trackindex>3</trackindex>
              <clipindex>1</clipindex>
              <groupindex>1</groupindex>
            </link>
            <link>
              <linkclipref>clipitem-397</linkclipref>
              <mediatype>audio</mediatype>
              <trackindex>4</trackindex>
              <clipindex>1</clipindex>
              <groupindex>1</groupindex>
            </link>
            <link>
              <linkclipref>clipitem-398</linkclipref>
              <mediatype>audio</mediatype>
              <trackindex>5</trackindex>
              <clipindex>1</clipindex>
              <groupindex>1</groupindex>
            </link>
            <link>
              <linkclipref>clipitem-399</linkclipref>
              <mediatype>audio</mediatype>
              <trackindex>6</trackindex>
              <clipindex>1</clipindex>
              <groupindex>1</groupindex>
            </link>
          </clipitem>
          <clipitem id="clipitem-401" premiereChannelType="Stereo">
            <masterclipid>masterclip-2</masterclipid>
            <name>2023-04-01 13-58-58溪神带飞王源5KCC.mp4</name>
            <enabled>TRUE</enabled>
            <rate>
              <timebase>60</timebase>
              <ntsc>FALSE</ntsc>
            </rate>
            <start>8015</start>
            <end>8211</end>
            <in>53964</in>
            <out>54160</out>
            <file id="file-2"/>
            <sourcetrack>
              <mediatype>audio</mediatype>
              <trackindex>1</trackindex>
            </sourcetrack>
            <link>
              <linkclipref>clipitem-400</linkclipref>
              <mediatype>video</mediatype>
              <trackindex>1</trackindex>
              <clipindex>1</clipindex>
            </link>
            <link>
              <linkclipref>clipitem-401</linkclipref>
              <mediatype>audio</mediatype>
              <trackindex>1</trackindex>
              <clipindex>1</clipindex>
              <groupindex>1</groupindex>
            </link>
            <link>
              <linkclipref>clipitem-402</linkclipref>
              <mediatype>audio</mediatype>
              <trackindex>2</trackindex>
              <clipindex>1</clipindex>
              <groupindex>1</groupindex>
            </link>
            <link>
              <linkclipref>clipitem-403</linkclipref>
              <mediatype>audio</mediatype>
              <trackindex>3</trackindex>
              <clipindex>1</clipindex>
              <groupindex>1</groupindex>
            </link>
            <link>
              <linkclipref>clipitem-404</linkclipref>
              <mediatype>audio</mediatype>
              <trackindex>4</trackindex>
              <clipindex>1</clipindex>
              <groupindex>1</groupindex>
            </link>
            <link>
              <linkclipref>clipitem-405</linkclipref>
              <mediatype>audio</mediatype>
              <trackindex>5</trackindex>
              <clipindex>1</clipindex>
              <groupindex>1</groupindex>
            </link>
            <link>
              <linkclipref>clipitem-406</linkclipref>
              <mediatype>audio</mediatype>
              <trackindex>6</trackindex>
              <clipindex>1</clipindex>
              <groupindex>1</groupindex>
            </link>
          </clipitem>
          <clipitem id="clipitem-408" premiereChannelType="Stereo">
            <masterclipid>masterclip-2</masterclipid>
            <name>2023-04-01 13-58-58溪神带飞王源5KCC.mp4</name>
            <enabled>TRUE</enabled>
            <rate>
              <timebase>60</timebase>
              <ntsc>FALSE</ntsc>
            </rate>
            <start>8211</start>
            <end>8325</end>
            <in>54222</in>
            <out>54336</out>
            <file id="file-2"/>
            <sourcetrack>
              <mediatype>audio</mediatype>
              <trackindex>1</trackindex>
            </sourcetrack>
            <link>
              <linkclipref>clipitem-407</linkclipref>
              <mediatype>video</mediatype>
              <trackindex>1</trackindex>
              <clipindex>1</clipindex>
            </link>
            <link>
              <linkclipref>clipitem-408</linkclipref>
              <mediatype>audio</mediatype>
              <trackindex>1</trackindex>
              <clipindex>1</clipindex>
              <groupindex>1</groupindex>
            </link>
            <link>
              <linkclipref>clipitem-409</linkclipref>
              <mediatype>audio</mediatype>
              <trackindex>2</trackindex>
              <clipindex>1</clipindex>
              <groupindex>1</groupindex>
            </link>
            <link>
              <linkclipref>clipitem-410</linkclipref>
              <mediatype>audio</mediatype>
              <trackindex>3</trackindex>
              <clipindex>1</clipindex>
              <groupindex>1</groupindex>
            </link>
            <link>
              <linkclipref>clipitem-411</linkclipref>
              <mediatype>audio</mediatype>
              <trackindex>4</trackindex>
              <clipindex>1</clipindex>
              <groupindex>1</groupindex>
            </link>
            <link>
              <linkclipref>clipitem-412</linkclipref>
              <mediatype>audio</mediatype>
              <trackindex>5</trackindex>
              <clipindex>1</clipindex>
              <groupindex>1</groupindex>
            </link>
            <link>
              <linkclipref>clipitem-413</linkclipref>
              <mediatype>audio</mediatype>
              <trackindex>6</trackindex>
              <clipindex>1</clipindex>
              <groupindex>1</groupindex>
            </link>
          </clipitem>
          <clipitem id="clipitem-415" premiereChannelType="Stereo">
            <masterclipid>masterclip-2</masterclipid>
            <name>2023-04-01 13-58-58溪神带飞王源5KCC.mp4</name>
            <enabled>TRUE</enabled>
            <rate>
              <timebase>60</timebase>
              <ntsc>FALSE</ntsc>
            </rate>
            <start>8325</start>
            <end>8452</end>
            <in>58783</in>
            <out>58910</out>
            <file id="file-2"/>
            <sourcetrack>
              <mediatype>audio</mediatype>
              <trackindex>1</trackindex>
            </sourcetrack>
            <link>
              <linkclipref>clipitem-414</linkclipref>
              <mediatype>video</mediatype>
              <trackindex>1</trackindex>
              <clipindex>1</clipindex>
            </link>
            <link>
              <linkclipref>clipitem-415</linkclipref>
              <mediatype>audio</mediatype>
              <trackindex>1</trackindex>
              <clipindex>1</clipindex>
              <groupindex>1</groupindex>
            </link>
            <link>
              <linkclipref>clipitem-416</linkclipref>
              <mediatype>audio</mediatype>
              <trackindex>2</trackindex>
              <clipindex>1</clipindex>
              <groupindex>1</groupindex>
            </link>
            <link>
              <linkclipref>clipitem-417</linkclipref>
              <mediatype>audio</mediatype>
              <trackindex>3</trackindex>
              <clipindex>1</clipindex>
              <groupindex>1</groupindex>
            </link>
            <link>
              <linkclipref>clipitem-418</linkclipref>
              <mediatype>audio</mediatype>
              <trackindex>4</trackindex>
              <clipindex>1</clipindex>
              <groupindex>1</groupindex>
            </link>
            <link>
              <linkclipref>clipitem-419</linkclipref>
              <mediatype>audio</mediatype>
              <trackindex>5</trackindex>
              <clipindex>1</clipindex>
              <groupindex>1</groupindex>
            </link>
            <link>
              <linkclipref>clipitem-420</linkclipref>
              <mediatype>audio</mediatype>
              <trackindex>6</trackindex>
              <clipindex>1</clipindex>
              <groupindex>1</groupindex>
            </link>
          </clipitem>
          <clipitem id="clipitem-422" premiereChannelType="Stereo">
            <masterclipid>masterclip-2</masterclipid>
            <name>2023-04-01 13-58-58溪神带飞王源5KCC.mp4</name>
            <enabled>TRUE</enabled>
            <rate>
              <timebase>60</timebase>
              <ntsc>FALSE</ntsc>
            </rate>
            <start>8452</start>
            <end>8604</end>
            <in>61335</in>
            <out>61487</out>
            <file id="file-2"/>
            <sourcetrack>
              <mediatype>audio</mediatype>
              <trackindex>1</trackindex>
            </sourcetrack>
            <link>
              <linkclipref>clipitem-421</linkclipref>
              <mediatype>video</mediatype>
              <trackindex>1</trackindex>
              <clipindex>1</clipindex>
            </link>
            <link>
              <linkclipref>clipitem-422</linkclipref>
              <mediatype>audio</mediatype>
              <trackindex>1</trackindex>
              <clipindex>1</clipindex>
              <groupindex>1</groupindex>
            </link>
            <link>
              <linkclipref>clipitem-423</linkclipref>
              <mediatype>audio</mediatype>
              <trackindex>2</trackindex>
              <clipindex>1</clipindex>
              <groupindex>1</groupindex>
            </link>
            <link>
              <linkclipref>clipitem-424</linkclipref>
              <mediatype>audio</mediatype>
              <trackindex>3</trackindex>
              <clipindex>1</clipindex>
              <groupindex>1</groupindex>
            </link>
            <link>
              <linkclipref>clipitem-425</linkclipref>
              <mediatype>audio</mediatype>
              <trackindex>4</trackindex>
              <clipindex>1</clipindex>
              <groupindex>1</groupindex>
            </link>
            <link>
              <linkclipref>clipitem-426</linkclipref>
              <mediatype>audio</mediatype>
              <trackindex>5</trackindex>
              <clipindex>1</clipindex>
              <groupindex>1</groupindex>
            </link>
            <link>
              <linkclipref>clipitem-427</linkclipref>
              <mediatype>audio</mediatype>
              <trackindex>6</trackindex>
              <clipindex>1</clipindex>
              <groupindex>1</groupindex>
            </link>
          </clipitem>
          <clipitem id="clipitem-429" premiereChannelType="Stereo">
            <masterclipid>masterclip-2</masterclipid>
            <name>2023-04-01 13-58-58溪神带飞王源5KCC.mp4</name>
            <enabled>TRUE</enabled>
            <rate>
              <timebase>60</timebase>
              <ntsc>FALSE</ntsc>
            </rate>
            <start>8604</start>
            <end>8663</end>
            <in>61479</in>
            <out>61538</out>
            <file id="file-2"/>
            <sourcetrack>
              <mediatype>audio</mediatype>
              <trackindex>1</trackindex>
            </sourcetrack>
            <link>
              <linkclipref>clipitem-428</linkclipref>
              <mediatype>video</mediatype>
              <trackindex>1</trackindex>
              <clipindex>1</clipindex>
            </link>
            <link>
              <linkclipref>clipitem-429</linkclipref>
              <mediatype>audio</mediatype>
              <trackindex>1</trackindex>
              <clipindex>1</clipindex>
              <groupindex>1</groupindex>
            </link>
            <link>
              <linkclipref>clipitem-430</linkclipref>
              <mediatype>audio</mediatype>
              <trackindex>2</trackindex>
              <clipindex>1</clipindex>
              <groupindex>1</groupindex>
            </link>
            <link>
              <linkclipref>clipitem-431</linkclipref>
              <mediatype>audio</mediatype>
              <trackindex>3</trackindex>
              <clipindex>1</clipindex>
              <groupindex>1</groupindex>
            </link>
            <link>
              <linkclipref>clipitem-432</linkclipref>
              <mediatype>audio</mediatype>
              <trackindex>4</trackindex>
              <clipindex>1</clipindex>
              <groupindex>1</groupindex>
            </link>
            <link>
              <linkclipref>clipitem-433</linkclipref>
              <mediatype>audio</mediatype>
              <trackindex>5</trackindex>
              <clipindex>1</clipindex>
              <groupindex>1</groupindex>
            </link>
            <link>
              <linkclipref>clipitem-434</linkclipref>
              <mediatype>audio</mediatype>
              <trackindex>6</trackindex>
              <clipindex>1</clipindex>
              <groupindex>1</groupindex>
            </link>
          </clipitem>
          <clipitem id="clipitem-436" premiereChannelType="Stereo">
            <masterclipid>masterclip-2</masterclipid>
            <name>2023-04-01 13-58-58溪神带飞王源5KCC.mp4</name>
            <enabled>TRUE</enabled>
            <rate>
              <timebase>60</timebase>
              <ntsc>FALSE</ntsc>
            </rate>
            <start>8663</start>
            <end>8756</end>
            <in>61668</in>
            <out>61761</out>
            <file id="file-2"/>
            <sourcetrack>
              <mediatype>audio</mediatype>
              <trackindex>1</trackindex>
            </sourcetrack>
            <link>
              <linkclipref>clipitem-435</linkclipref>
              <mediatype>video</mediatype>
              <trackindex>1</trackindex>
              <clipindex>1</clipindex>
            </link>
            <link>
              <linkclipref>clipitem-436</linkclipref>
              <mediatype>audio</mediatype>
              <trackindex>1</trackindex>
              <clipindex>1</clipindex>
              <groupindex>1</groupindex>
            </link>
            <link>
              <linkclipref>clipitem-437</linkclipref>
              <mediatype>audio</mediatype>
              <trackindex>2</trackindex>
              <clipindex>1</clipindex>
              <groupindex>1</groupindex>
            </link>
            <link>
              <linkclipref>clipitem-438</linkclipref>
              <mediatype>audio</mediatype>
              <trackindex>3</trackindex>
              <clipindex>1</clipindex>
              <groupindex>1</groupindex>
            </link>
            <link>
              <linkclipref>clipitem-439</linkclipref>
              <mediatype>audio</mediatype>
              <trackindex>4</trackindex>
              <clipindex>1</clipindex>
              <groupindex>1</groupindex>
            </link>
            <link>
              <linkclipref>clipitem-440</linkclipref>
              <mediatype>audio</mediatype>
              <trackindex>5</trackindex>
              <clipindex>1</clipindex>
              <groupindex>1</groupindex>
            </link>
            <link>
              <linkclipref>clipitem-441</linkclipref>
              <mediatype>audio</mediatype>
              <trackindex>6</trackindex>
              <clipindex>1</clipindex>
              <groupindex>1</groupindex>
            </link>
          </clipitem>
          <clipitem id="clipitem-443" premiereChannelType="Stereo">
            <masterclipid>masterclip-2</masterclipid>
            <name>2023-04-01 13-58-58溪神带飞王源5KCC.mp4</name>
            <enabled>TRUE</enabled>
            <rate>
              <timebase>60</timebase>
              <ntsc>FALSE</ntsc>
            </rate>
            <start>8756</start>
            <end>8834</end>
            <in>63731</in>
            <out>63809</out>
            <file id="file-2"/>
            <sourcetrack>
              <mediatype>audio</mediatype>
              <trackindex>1</trackindex>
            </sourcetrack>
            <link>
              <linkclipref>clipitem-442</linkclipref>
              <mediatype>video</mediatype>
              <trackindex>1</trackindex>
              <clipindex>1</clipindex>
            </link>
            <link>
              <linkclipref>clipitem-443</linkclipref>
              <mediatype>audio</mediatype>
              <trackindex>1</trackindex>
              <clipindex>1</clipindex>
              <groupindex>1</groupindex>
            </link>
            <link>
              <linkclipref>clipitem-444</linkclipref>
              <mediatype>audio</mediatype>
              <trackindex>2</trackindex>
              <clipindex>1</clipindex>
              <groupindex>1</groupindex>
            </link>
            <link>
              <linkclipref>clipitem-445</linkclipref>
              <mediatype>audio</mediatype>
              <trackindex>3</trackindex>
              <clipindex>1</clipindex>
              <groupindex>1</groupindex>
            </link>
            <link>
              <linkclipref>clipitem-446</linkclipref>
              <mediatype>audio</mediatype>
              <trackindex>4</trackindex>
              <clipindex>1</clipindex>
              <groupindex>1</groupindex>
            </link>
            <link>
              <linkclipref>clipitem-447</linkclipref>
              <mediatype>audio</mediatype>
              <trackindex>5</trackindex>
              <clipindex>1</clipindex>
              <groupindex>1</groupindex>
            </link>
            <link>
              <linkclipref>clipitem-448</linkclipref>
              <mediatype>audio</mediatype>
              <trackindex>6</trackindex>
              <clipindex>1</clipindex>
              <groupindex>1</groupindex>
            </link>
          </clipitem>
          <clipitem id="clipitem-450" premiereChannelType="Stereo">
            <masterclipid>masterclip-2</masterclipid>
            <name>2023-04-01 13-58-58溪神带飞王源5KCC.mp4</name>
            <enabled>TRUE</enabled>
            <rate>
              <timebase>60</timebase>
              <ntsc>FALSE</ntsc>
            </rate>
            <start>8834</start>
            <end>8926</end>
            <in>65937</in>
            <out>66029</out>
            <file id="file-2"/>
            <sourcetrack>
              <mediatype>audio</mediatype>
              <trackindex>1</trackindex>
            </sourcetrack>
            <link>
              <linkclipref>clipitem-449</linkclipref>
              <mediatype>video</mediatype>
              <trackindex>1</trackindex>
              <clipindex>1</clipindex>
            </link>
            <link>
              <linkclipref>clipitem-450</linkclipref>
              <mediatype>audio</mediatype>
              <trackindex>1</trackindex>
              <clipindex>1</clipindex>
              <groupindex>1</groupindex>
            </link>
            <link>
              <linkclipref>clipitem-451</linkclipref>
              <mediatype>audio</mediatype>
              <trackindex>2</trackindex>
              <clipindex>1</clipindex>
              <groupindex>1</groupindex>
            </link>
            <link>
              <linkclipref>clipitem-452</linkclipref>
              <mediatype>audio</mediatype>
              <trackindex>3</trackindex>
              <clipindex>1</clipindex>
              <groupindex>1</groupindex>
            </link>
            <link>
              <linkclipref>clipitem-453</linkclipref>
              <mediatype>audio</mediatype>
              <trackindex>4</trackindex>
              <clipindex>1</clipindex>
              <groupindex>1</groupindex>
            </link>
            <link>
              <linkclipref>clipitem-454</linkclipref>
              <mediatype>audio</mediatype>
              <trackindex>5</trackindex>
              <clipindex>1</clipindex>
              <groupindex>1</groupindex>
            </link>
            <link>
              <linkclipref>clipitem-455</linkclipref>
              <mediatype>audio</mediatype>
              <trackindex>6</trackindex>
              <clipindex>1</clipindex>
              <groupindex>1</groupindex>
            </link>
          </clipitem>
          <clipitem id="clipitem-457" premiereChannelType="Stereo">
            <masterclipid>masterclip-2</masterclipid>
            <name>2023-04-01 13-58-58溪神带飞王源5KCC.mp4</name>
            <enabled>TRUE</enabled>
            <rate>
              <timebase>60</timebase>
              <ntsc>FALSE</ntsc>
            </rate>
            <start>8926</start>
            <end>9026</end>
            <in>67489</in>
            <out>67589</out>
            <file id="file-2"/>
            <sourcetrack>
              <mediatype>audio</mediatype>
              <trackindex>1</trackindex>
            </sourcetrack>
            <link>
              <linkclipref>clipitem-456</linkclipref>
              <mediatype>video</mediatype>
              <trackindex>1</trackindex>
              <clipindex>1</clipindex>
            </link>
            <link>
              <linkclipref>clipitem-457</linkclipref>
              <mediatype>audio</mediatype>
              <trackindex>1</trackindex>
              <clipindex>1</clipindex>
              <groupindex>1</groupindex>
            </link>
            <link>
              <linkclipref>clipitem-458</linkclipref>
              <mediatype>audio</mediatype>
              <trackindex>2</trackindex>
              <clipindex>1</clipindex>
              <groupindex>1</groupindex>
            </link>
            <link>
              <linkclipref>clipitem-459</linkclipref>
              <mediatype>audio</mediatype>
              <trackindex>3</trackindex>
              <clipindex>1</clipindex>
              <groupindex>1</groupindex>
            </link>
            <link>
              <linkclipref>clipitem-460</linkclipref>
              <mediatype>audio</mediatype>
              <trackindex>4</trackindex>
              <clipindex>1</clipindex>
              <groupindex>1</groupindex>
            </link>
            <link>
              <linkclipref>clipitem-461</linkclipref>
              <mediatype>audio</mediatype>
              <trackindex>5</trackindex>
              <clipindex>1</clipindex>
              <groupindex>1</groupindex>
            </link>
            <link>
              <linkclipref>clipitem-462</linkclipref>
              <mediatype>audio</mediatype>
              <trackindex>6</trackindex>
              <clipindex>1</clipindex>
              <groupindex>1</groupindex>
            </link>
          </clipitem>
          <clipitem id="clipitem-464" premiereChannelType="Stereo">
            <masterclipid>masterclip-2</masterclipid>
            <name>2023-04-01 13-58-58溪神带飞王源5KCC.mp4</name>
            <enabled>TRUE</enabled>
            <rate>
              <timebase>60</timebase>
              <ntsc>FALSE</ntsc>
            </rate>
            <start>9026</start>
            <end>9186</end>
            <in>69990</in>
            <out>70150</out>
            <file id="file-2"/>
            <sourcetrack>
              <mediatype>audio</mediatype>
              <trackindex>1</trackindex>
            </sourcetrack>
            <link>
              <linkclipref>clipitem-463</linkclipref>
              <mediatype>video</mediatype>
              <trackindex>1</trackindex>
              <clipindex>1</clipindex>
            </link>
            <link>
              <linkclipref>clipitem-464</linkclipref>
              <mediatype>audio</mediatype>
              <trackindex>1</trackindex>
              <clipindex>1</clipindex>
              <groupindex>1</groupindex>
            </link>
            <link>
              <linkclipref>clipitem-465</linkclipref>
              <mediatype>audio</mediatype>
              <trackindex>2</trackindex>
              <clipindex>1</clipindex>
              <groupindex>1</groupindex>
            </link>
            <link>
              <linkclipref>clipitem-466</linkclipref>
              <mediatype>audio</mediatype>
              <trackindex>3</trackindex>
              <clipindex>1</clipindex>
              <groupindex>1</groupindex>
            </link>
            <link>
              <linkclipref>clipitem-467</linkclipref>
              <mediatype>audio</mediatype>
              <trackindex>4</trackindex>
              <clipindex>1</clipindex>
              <groupindex>1</groupindex>
            </link>
            <link>
              <linkclipref>clipitem-468</linkclipref>
              <mediatype>audio</mediatype>
              <trackindex>5</trackindex>
              <clipindex>1</clipindex>
              <groupindex>1</groupindex>
            </link>
            <link>
              <linkclipref>clipitem-469</linkclipref>
              <mediatype>audio</mediatype>
              <trackindex>6</trackindex>
              <clipindex>1</clipindex>
              <groupindex>1</groupindex>
            </link>
          </clipitem>
          <clipitem id="clipitem-471" premiereChannelType="Stereo">
            <masterclipid>masterclip-2</masterclipid>
            <name>2023-04-01 13-58-58溪神带飞王源5KCC.mp4</name>
            <enabled>TRUE</enabled>
            <rate>
              <timebase>60</timebase>
              <ntsc>FALSE</ntsc>
            </rate>
            <start>9186</start>
            <end>9346</end>
            <in>70337</in>
            <out>70497</out>
            <file id="file-2"/>
            <sourcetrack>
              <mediatype>audio</mediatype>
              <trackindex>1</trackindex>
            </sourcetrack>
            <link>
              <linkclipref>clipitem-470</linkclipref>
              <mediatype>video</mediatype>
              <trackindex>1</trackindex>
              <clipindex>1</clipindex>
            </link>
            <link>
              <linkclipref>clipitem-471</linkclipref>
              <mediatype>audio</mediatype>
              <trackindex>1</trackindex>
              <clipindex>1</clipindex>
              <groupindex>1</groupindex>
            </link>
            <link>
              <linkclipref>clipitem-472</linkclipref>
              <mediatype>audio</mediatype>
              <trackindex>2</trackindex>
              <clipindex>1</clipindex>
              <groupindex>1</groupindex>
            </link>
            <link>
              <linkclipref>clipitem-473</linkclipref>
              <mediatype>audio</mediatype>
              <trackindex>3</trackindex>
              <clipindex>1</clipindex>
              <groupindex>1</groupindex>
            </link>
            <link>
              <linkclipref>clipitem-474</linkclipref>
              <mediatype>audio</mediatype>
              <trackindex>4</trackindex>
              <clipindex>1</clipindex>
              <groupindex>1</groupindex>
            </link>
            <link>
              <linkclipref>clipitem-475</linkclipref>
              <mediatype>audio</mediatype>
              <trackindex>5</trackindex>
              <clipindex>1</clipindex>
              <groupindex>1</groupindex>
            </link>
            <link>
              <linkclipref>clipitem-476</linkclipref>
              <mediatype>audio</mediatype>
              <trackindex>6</trackindex>
              <clipindex>1</clipindex>
              <groupindex>1</groupindex>
            </link>
          </clipitem>
          <clipitem id="clipitem-478" premiereChannelType="Stereo">
            <masterclipid>masterclip-2</masterclipid>
            <name>2023-04-01 13-58-58溪神带飞王源5KCC.mp4</name>
            <enabled>TRUE</enabled>
            <rate>
              <timebase>60</timebase>
              <ntsc>FALSE</ntsc>
            </rate>
            <start>9346</start>
            <end>9428</end>
            <in>72878</in>
            <out>72960</out>
            <file id="file-2"/>
            <sourcetrack>
              <mediatype>audio</mediatype>
              <trackindex>1</trackindex>
            </sourcetrack>
            <link>
              <linkclipref>clipitem-477</linkclipref>
              <mediatype>video</mediatype>
              <trackindex>1</trackindex>
              <clipindex>1</clipindex>
            </link>
            <link>
              <linkclipref>clipitem-478</linkclipref>
              <mediatype>audio</mediatype>
              <trackindex>1</trackindex>
              <clipindex>1</clipindex>
              <groupindex>1</groupindex>
            </link>
            <link>
              <linkclipref>clipitem-479</linkclipref>
              <mediatype>audio</mediatype>
              <trackindex>2</trackindex>
              <clipindex>1</clipindex>
              <groupindex>1</groupindex>
            </link>
            <link>
              <linkclipref>clipitem-480</linkclipref>
              <mediatype>audio</mediatype>
              <trackindex>3</trackindex>
              <clipindex>1</clipindex>
              <groupindex>1</groupindex>
            </link>
            <link>
              <linkclipref>clipitem-481</linkclipref>
              <mediatype>audio</mediatype>
              <trackindex>4</trackindex>
              <clipindex>1</clipindex>
              <groupindex>1</groupindex>
            </link>
            <link>
              <linkclipref>clipitem-482</linkclipref>
              <mediatype>audio</mediatype>
              <trackindex>5</trackindex>
              <clipindex>1</clipindex>
              <groupindex>1</groupindex>
            </link>
            <link>
              <linkclipref>clipitem-483</linkclipref>
              <mediatype>audio</mediatype>
              <trackindex>6</trackindex>
              <clipindex>1</clipindex>
              <groupindex>1</groupindex>
            </link>
          </clipitem>
          <clipitem id="clipitem-485" premiereChannelType="Stereo">
            <masterclipid>masterclip-3</masterclipid>
            <name>2023-03-30 21-15-31艾许决赛圈2V6 8KCC.mp4</name>
            <enabled>TRUE</enabled>
            <rate>
              <timebase>60</timebase>
              <ntsc>FALSE</ntsc>
            </rate>
            <start>9428</start>
            <end>9920</end>
            <in>3281</in>
            <out>3773</out>
            <file id="file-3"/>
            <sourcetrack>
              <mediatype>audio</mediatype>
              <trackindex>1</trackindex>
            </sourcetrack>
            <link>
              <linkclipref>clipitem-484</linkclipref>
              <mediatype>video</mediatype>
              <trackindex>1</trackindex>
              <clipindex>1</clipindex>
            </link>
            <link>
              <linkclipref>clipitem-485</linkclipref>
              <mediatype>audio</mediatype>
              <trackindex>1</trackindex>
              <clipindex>1</clipindex>
              <groupindex>1</groupindex>
            </link>
            <link>
              <linkclipref>clipitem-486</linkclipref>
              <mediatype>audio</mediatype>
              <trackindex>2</trackindex>
              <clipindex>1</clipindex>
              <groupindex>1</groupindex>
            </link>
            <link>
              <linkclipref>clipitem-487</linkclipref>
              <mediatype>audio</mediatype>
              <trackindex>3</trackindex>
              <clipindex>1</clipindex>
              <groupindex>1</groupindex>
            </link>
            <link>
              <linkclipref>clipitem-488</linkclipref>
              <mediatype>audio</mediatype>
              <trackindex>4</trackindex>
              <clipindex>1</clipindex>
              <groupindex>1</groupindex>
            </link>
            <link>
              <linkclipref>clipitem-489</linkclipref>
              <mediatype>audio</mediatype>
              <trackindex>5</trackindex>
              <clipindex>1</clipindex>
              <groupindex>1</groupindex>
            </link>
            <link>
              <linkclipref>clipitem-490</linkclipref>
              <mediatype>audio</mediatype>
              <trackindex>6</trackindex>
              <clipindex>1</clipindex>
              <groupindex>1</groupindex>
            </link>
          </clipitem>
          <clipitem id="clipitem-492" premiereChannelType="Stereo">
            <masterclipid>masterclip-3</masterclipid>
            <name>2023-03-30 21-15-31艾许决赛圈2V6 8KCC.mp4</name>
            <enabled>TRUE</enabled>
            <rate>
              <timebase>60</timebase>
              <ntsc>FALSE</ntsc>
            </rate>
            <start>9920</start>
            <end>10196</end>
            <in>7193</in>
            <out>7469</out>
            <file id="file-3"/>
            <sourcetrack>
              <mediatype>audio</mediatype>
              <trackindex>1</trackindex>
            </sourcetrack>
            <link>
              <linkclipref>clipitem-491</linkclipref>
              <mediatype>video</mediatype>
              <trackindex>1</trackindex>
              <clipindex>1</clipindex>
            </link>
            <link>
              <linkclipref>clipitem-492</linkclipref>
              <mediatype>audio</mediatype>
              <trackindex>1</trackindex>
              <clipindex>1</clipindex>
              <groupindex>1</groupindex>
            </link>
            <link>
              <linkclipref>clipitem-493</linkclipref>
              <mediatype>audio</mediatype>
              <trackindex>2</trackindex>
              <clipindex>1</clipindex>
              <groupindex>1</groupindex>
            </link>
            <link>
              <linkclipref>clipitem-494</linkclipref>
              <mediatype>audio</mediatype>
              <trackindex>3</trackindex>
              <clipindex>1</clipindex>
              <groupindex>1</groupindex>
            </link>
            <link>
              <linkclipref>clipitem-495</linkclipref>
              <mediatype>audio</mediatype>
              <trackindex>4</trackindex>
              <clipindex>1</clipindex>
              <groupindex>1</groupindex>
            </link>
            <link>
              <linkclipref>clipitem-496</linkclipref>
              <mediatype>audio</mediatype>
              <trackindex>5</trackindex>
              <clipindex>1</clipindex>
              <groupindex>1</groupindex>
            </link>
            <link>
              <linkclipref>clipitem-497</linkclipref>
              <mediatype>audio</mediatype>
              <trackindex>6</trackindex>
              <clipindex>1</clipindex>
              <groupindex>1</groupindex>
            </link>
          </clipitem>
          <clipitem id="clipitem-499" premiereChannelType="Stereo">
            <masterclipid>masterclip-3</masterclipid>
            <name>2023-03-30 21-15-31艾许决赛圈2V6 8KCC.mp4</name>
            <enabled>TRUE</enabled>
            <rate>
              <timebase>60</timebase>
              <ntsc>FALSE</ntsc>
            </rate>
            <start>10196</start>
            <end>10286</end>
            <in>7646</in>
            <out>7736</out>
            <file id="file-3"/>
            <sourcetrack>
              <mediatype>audio</mediatype>
              <trackindex>1</trackindex>
            </sourcetrack>
            <link>
              <linkclipref>clipitem-498</linkclipref>
              <mediatype>video</mediatype>
              <trackindex>1</trackindex>
              <clipindex>1</clipindex>
            </link>
            <link>
              <linkclipref>clipitem-499</linkclipref>
              <mediatype>audio</mediatype>
              <trackindex>1</trackindex>
              <clipindex>1</clipindex>
              <groupindex>1</groupindex>
            </link>
            <link>
              <linkclipref>clipitem-500</linkclipref>
              <mediatype>audio</mediatype>
              <trackindex>2</trackindex>
              <clipindex>1</clipindex>
              <groupindex>1</groupindex>
            </link>
            <link>
              <linkclipref>clipitem-501</linkclipref>
              <mediatype>audio</mediatype>
              <trackindex>3</trackindex>
              <clipindex>1</clipindex>
              <groupindex>1</groupindex>
            </link>
            <link>
              <linkclipref>clipitem-502</linkclipref>
              <mediatype>audio</mediatype>
              <trackindex>4</trackindex>
              <clipindex>1</clipindex>
              <groupindex>1</groupindex>
            </link>
            <link>
              <linkclipref>clipitem-503</linkclipref>
              <mediatype>audio</mediatype>
              <trackindex>5</trackindex>
              <clipindex>1</clipindex>
              <groupindex>1</groupindex>
            </link>
            <link>
              <linkclipref>clipitem-504</linkclipref>
              <mediatype>audio</mediatype>
              <trackindex>6</trackindex>
              <clipindex>1</clipindex>
              <groupindex>1</groupindex>
            </link>
          </clipitem>
          <clipitem id="clipitem-506" premiereChannelType="Stereo">
            <masterclipid>masterclip-3</masterclipid>
            <name>2023-03-30 21-15-31艾许决赛圈2V6 8KCC.mp4</name>
            <enabled>TRUE</enabled>
            <rate>
              <timebase>60</timebase>
              <ntsc>FALSE</ntsc>
            </rate>
            <start>10286</start>
            <end>10401</end>
            <in>7813</in>
            <out>7928</out>
            <file id="file-3"/>
            <sourcetrack>
              <mediatype>audio</mediatype>
              <trackindex>1</trackindex>
            </sourcetrack>
            <link>
              <linkclipref>clipitem-505</linkclipref>
              <mediatype>video</mediatype>
              <trackindex>1</trackindex>
              <clipindex>1</clipindex>
            </link>
            <link>
              <linkclipref>clipitem-506</linkclipref>
              <mediatype>audio</mediatype>
              <trackindex>1</trackindex>
              <clipindex>1</clipindex>
              <groupindex>1</groupindex>
            </link>
            <link>
              <linkclipref>clipitem-507</linkclipref>
              <mediatype>audio</mediatype>
              <trackindex>2</trackindex>
              <clipindex>1</clipindex>
              <groupindex>1</groupindex>
            </link>
            <link>
              <linkclipref>clipitem-508</linkclipref>
              <mediatype>audio</mediatype>
              <trackindex>3</trackindex>
              <clipindex>1</clipindex>
              <groupindex>1</groupindex>
            </link>
            <link>
              <linkclipref>clipitem-509</linkclipref>
              <mediatype>audio</mediatype>
              <trackindex>4</trackindex>
              <clipindex>1</clipindex>
              <groupindex>1</groupindex>
            </link>
            <link>
              <linkclipref>clipitem-510</linkclipref>
              <mediatype>audio</mediatype>
              <trackindex>5</trackindex>
              <clipindex>1</clipindex>
              <groupindex>1</groupindex>
            </link>
            <link>
              <linkclipref>clipitem-511</linkclipref>
              <mediatype>audio</mediatype>
              <trackindex>6</trackindex>
              <clipindex>1</clipindex>
              <groupindex>1</groupindex>
            </link>
          </clipitem>
          <clipitem id="clipitem-513" premiereChannelType="Stereo">
            <masterclipid>masterclip-3</masterclipid>
            <name>2023-03-30 21-15-31艾许决赛圈2V6 8KCC.mp4</name>
            <enabled>TRUE</enabled>
            <rate>
              <timebase>60</timebase>
              <ntsc>FALSE</ntsc>
            </rate>
            <start>10401</start>
            <end>10519</end>
            <in>9404</in>
            <out>9522</out>
            <file id="file-3"/>
            <sourcetrack>
              <mediatype>audio</mediatype>
              <trackindex>1</trackindex>
            </sourcetrack>
            <link>
              <linkclipref>clipitem-512</linkclipref>
              <mediatype>video</mediatype>
              <trackindex>1</trackindex>
              <clipindex>1</clipindex>
            </link>
            <link>
              <linkclipref>clipitem-513</linkclipref>
              <mediatype>audio</mediatype>
              <trackindex>1</trackindex>
              <clipindex>1</clipindex>
              <groupindex>1</groupindex>
            </link>
            <link>
              <linkclipref>clipitem-514</linkclipref>
              <mediatype>audio</mediatype>
              <trackindex>2</trackindex>
              <clipindex>1</clipindex>
              <groupindex>1</groupindex>
            </link>
            <link>
              <linkclipref>clipitem-515</linkclipref>
              <mediatype>audio</mediatype>
              <trackindex>3</trackindex>
              <clipindex>1</clipindex>
              <groupindex>1</groupindex>
            </link>
            <link>
              <linkclipref>clipitem-516</linkclipref>
              <mediatype>audio</mediatype>
              <trackindex>4</trackindex>
              <clipindex>1</clipindex>
              <groupindex>1</groupindex>
            </link>
            <link>
              <linkclipref>clipitem-517</linkclipref>
              <mediatype>audio</mediatype>
              <trackindex>5</trackindex>
              <clipindex>1</clipindex>
              <groupindex>1</groupindex>
            </link>
            <link>
              <linkclipref>clipitem-518</linkclipref>
              <mediatype>audio</mediatype>
              <trackindex>6</trackindex>
              <clipindex>1</clipindex>
              <groupindex>1</groupindex>
            </link>
          </clipitem>
          <clipitem id="clipitem-520" premiereChannelType="Stereo">
            <masterclipid>masterclip-3</masterclipid>
            <name>2023-03-30 21-15-31艾许决赛圈2V6 8KCC.mp4</name>
            <enabled>TRUE</enabled>
            <rate>
              <timebase>60</timebase>
              <ntsc>FALSE</ntsc>
            </rate>
            <start>10519</start>
            <end>10600</end>
            <in>9637</in>
            <out>9718</out>
            <file id="file-3"/>
            <sourcetrack>
              <mediatype>audio</mediatype>
              <trackindex>1</trackindex>
            </sourcetrack>
            <link>
              <linkclipref>clipitem-519</linkclipref>
              <mediatype>video</mediatype>
              <trackindex>1</trackindex>
              <clipindex>1</clipindex>
            </link>
            <link>
              <linkclipref>clipitem-520</linkclipref>
              <mediatype>audio</mediatype>
              <trackindex>1</trackindex>
              <clipindex>1</clipindex>
              <groupindex>1</groupindex>
            </link>
            <link>
              <linkclipref>clipitem-521</linkclipref>
              <mediatype>audio</mediatype>
              <trackindex>2</trackindex>
              <clipindex>1</clipindex>
              <groupindex>1</groupindex>
            </link>
            <link>
              <linkclipref>clipitem-522</linkclipref>
              <mediatype>audio</mediatype>
              <trackindex>3</trackindex>
              <clipindex>1</clipindex>
              <groupindex>1</groupindex>
            </link>
            <link>
              <linkclipref>clipitem-523</linkclipref>
              <mediatype>audio</mediatype>
              <trackindex>4</trackindex>
              <clipindex>1</clipindex>
              <groupindex>1</groupindex>
            </link>
            <link>
              <linkclipref>clipitem-524</linkclipref>
              <mediatype>audio</mediatype>
              <trackindex>5</trackindex>
              <clipindex>1</clipindex>
              <groupindex>1</groupindex>
            </link>
            <link>
              <linkclipref>clipitem-525</linkclipref>
              <mediatype>audio</mediatype>
              <trackindex>6</trackindex>
              <clipindex>1</clipindex>
              <groupindex>1</groupindex>
            </link>
          </clipitem>
          <clipitem id="clipitem-527" premiereChannelType="Stereo">
            <masterclipid>masterclip-3</masterclipid>
            <name>2023-03-30 21-15-31艾许决赛圈2V6 8KCC.mp4</name>
            <enabled>TRUE</enabled>
            <rate>
              <timebase>60</timebase>
              <ntsc>FALSE</ntsc>
            </rate>
            <start>10600</start>
            <end>10751</end>
            <in>10314</in>
            <out>10465</out>
            <file id="file-3"/>
            <sourcetrack>
              <mediatype>audio</mediatype>
              <trackindex>1</trackindex>
            </sourcetrack>
            <link>
              <linkclipref>clipitem-526</linkclipref>
              <mediatype>video</mediatype>
              <trackindex>1</trackindex>
              <clipindex>1</clipindex>
            </link>
            <link>
              <linkclipref>clipitem-527</linkclipref>
              <mediatype>audio</mediatype>
              <trackindex>1</trackindex>
              <clipindex>1</clipindex>
              <groupindex>1</groupindex>
            </link>
            <link>
              <linkclipref>clipitem-528</linkclipref>
              <mediatype>audio</mediatype>
              <trackindex>2</trackindex>
              <clipindex>1</clipindex>
              <groupindex>1</groupindex>
            </link>
            <link>
              <linkclipref>clipitem-529</linkclipref>
              <mediatype>audio</mediatype>
              <trackindex>3</trackindex>
              <clipindex>1</clipindex>
              <groupindex>1</groupindex>
            </link>
            <link>
              <linkclipref>clipitem-530</linkclipref>
              <mediatype>audio</mediatype>
              <trackindex>4</trackindex>
              <clipindex>1</clipindex>
              <groupindex>1</groupindex>
            </link>
            <link>
              <linkclipref>clipitem-531</linkclipref>
              <mediatype>audio</mediatype>
              <trackindex>5</trackindex>
              <clipindex>1</clipindex>
              <groupindex>1</groupindex>
            </link>
            <link>
              <linkclipref>clipitem-532</linkclipref>
              <mediatype>audio</mediatype>
              <trackindex>6</trackindex>
              <clipindex>1</clipindex>
              <groupindex>1</groupindex>
            </link>
          </clipitem>
          <clipitem id="clipitem-534" premiereChannelType="Stereo">
            <masterclipid>masterclip-3</masterclipid>
            <name>2023-03-30 21-15-31艾许决赛圈2V6 8KCC.mp4</name>
            <enabled>TRUE</enabled>
            <rate>
              <timebase>60</timebase>
              <ntsc>FALSE</ntsc>
            </rate>
            <start>10751</start>
            <end>10883</end>
            <in>10779</in>
            <out>10911</out>
            <file id="file-3"/>
            <sourcetrack>
              <mediatype>audio</mediatype>
              <trackindex>1</trackindex>
            </sourcetrack>
            <link>
              <linkclipref>clipitem-533</linkclipref>
              <mediatype>video</mediatype>
              <trackindex>1</trackindex>
              <clipindex>1</clipindex>
            </link>
            <link>
              <linkclipref>clipitem-534</linkclipref>
              <mediatype>audio</mediatype>
              <trackindex>1</trackindex>
              <clipindex>1</clipindex>
              <groupindex>1</groupindex>
            </link>
            <link>
              <linkclipref>clipitem-535</linkclipref>
              <mediatype>audio</mediatype>
              <trackindex>2</trackindex>
              <clipindex>1</clipindex>
              <groupindex>1</groupindex>
            </link>
            <link>
              <linkclipref>clipitem-536</linkclipref>
              <mediatype>audio</mediatype>
              <trackindex>3</trackindex>
              <clipindex>1</clipindex>
              <groupindex>1</groupindex>
            </link>
            <link>
              <linkclipref>clipitem-537</linkclipref>
              <mediatype>audio</mediatype>
              <trackindex>4</trackindex>
              <clipindex>1</clipindex>
              <groupindex>1</groupindex>
            </link>
            <link>
              <linkclipref>clipitem-538</linkclipref>
              <mediatype>audio</mediatype>
              <trackindex>5</trackindex>
              <clipindex>1</clipindex>
              <groupindex>1</groupindex>
            </link>
            <link>
              <linkclipref>clipitem-539</linkclipref>
              <mediatype>audio</mediatype>
              <trackindex>6</trackindex>
              <clipindex>1</clipindex>
              <groupindex>1</groupindex>
            </link>
          </clipitem>
          <clipitem id="clipitem-541" premiereChannelType="Stereo">
            <masterclipid>masterclip-3</masterclipid>
            <name>2023-03-30 21-15-31艾许决赛圈2V6 8KCC.mp4</name>
            <enabled>TRUE</enabled>
            <rate>
              <timebase>60</timebase>
              <ntsc>FALSE</ntsc>
            </rate>
            <start>10883</start>
            <end>10966</end>
            <in>10974</in>
            <out>11057</out>
            <file id="file-3"/>
            <sourcetrack>
              <mediatype>audio</mediatype>
              <trackindex>1</trackindex>
            </sourcetrack>
            <link>
              <linkclipref>clipitem-540</linkclipref>
              <mediatype>video</mediatype>
              <trackindex>1</trackindex>
              <clipindex>1</clipindex>
            </link>
            <link>
              <linkclipref>clipitem-541</linkclipref>
              <mediatype>audio</mediatype>
              <trackindex>1</trackindex>
              <clipindex>1</clipindex>
              <groupindex>1</groupindex>
            </link>
            <link>
              <linkclipref>clipitem-542</linkclipref>
              <mediatype>audio</mediatype>
              <trackindex>2</trackindex>
              <clipindex>1</clipindex>
              <groupindex>1</groupindex>
            </link>
            <link>
              <linkclipref>clipitem-543</linkclipref>
              <mediatype>audio</mediatype>
              <trackindex>3</trackindex>
              <clipindex>1</clipindex>
              <groupindex>1</groupindex>
            </link>
            <link>
              <linkclipref>clipitem-544</linkclipref>
              <mediatype>audio</mediatype>
              <trackindex>4</trackindex>
              <clipindex>1</clipindex>
              <groupindex>1</groupindex>
            </link>
            <link>
              <linkclipref>clipitem-545</linkclipref>
              <mediatype>audio</mediatype>
              <trackindex>5</trackindex>
              <clipindex>1</clipindex>
              <groupindex>1</groupindex>
            </link>
            <link>
              <linkclipref>clipitem-546</linkclipref>
              <mediatype>audio</mediatype>
              <trackindex>6</trackindex>
              <clipindex>1</clipindex>
              <groupindex>1</groupindex>
            </link>
          </clipitem>
          <clipitem id="clipitem-548" premiereChannelType="Stereo">
            <masterclipid>masterclip-3</masterclipid>
            <name>2023-03-30 21-15-31艾许决赛圈2V6 8KCC.mp4</name>
            <enabled>TRUE</enabled>
            <rate>
              <timebase>60</timebase>
              <ntsc>FALSE</ntsc>
            </rate>
            <start>10966</start>
            <end>11074</end>
            <in>11992</in>
            <out>12100</out>
            <file id="file-3"/>
            <sourcetrack>
              <mediatype>audio</mediatype>
              <trackindex>1</trackindex>
            </sourcetrack>
            <link>
              <linkclipref>clipitem-547</linkclipref>
              <mediatype>video</mediatype>
              <trackindex>1</trackindex>
              <clipindex>1</clipindex>
            </link>
            <link>
              <linkclipref>clipitem-548</linkclipref>
              <mediatype>audio</mediatype>
              <trackindex>1</trackindex>
              <clipindex>1</clipindex>
              <groupindex>1</groupindex>
            </link>
            <link>
              <linkclipref>clipitem-549</linkclipref>
              <mediatype>audio</mediatype>
              <trackindex>2</trackindex>
              <clipindex>1</clipindex>
              <groupindex>1</groupindex>
            </link>
            <link>
              <linkclipref>clipitem-550</linkclipref>
              <mediatype>audio</mediatype>
              <trackindex>3</trackindex>
              <clipindex>1</clipindex>
              <groupindex>1</groupindex>
            </link>
            <link>
              <linkclipref>clipitem-551</linkclipref>
              <mediatype>audio</mediatype>
              <trackindex>4</trackindex>
              <clipindex>1</clipindex>
              <groupindex>1</groupindex>
            </link>
            <link>
              <linkclipref>clipitem-552</linkclipref>
              <mediatype>audio</mediatype>
              <trackindex>5</trackindex>
              <clipindex>1</clipindex>
              <groupindex>1</groupindex>
            </link>
            <link>
              <linkclipref>clipitem-553</linkclipref>
              <mediatype>audio</mediatype>
              <trackindex>6</trackindex>
              <clipindex>1</clipindex>
              <groupindex>1</groupindex>
            </link>
          </clipitem>
          <clipitem id="clipitem-555" premiereChannelType="Stereo">
            <masterclipid>masterclip-3</masterclipid>
            <name>2023-03-30 21-15-31艾许决赛圈2V6 8KCC.mp4</name>
            <enabled>TRUE</enabled>
            <rate>
              <timebase>60</timebase>
              <ntsc>FALSE</ntsc>
            </rate>
            <start>11074</start>
            <end>11182</end>
            <in>12377</in>
            <out>12485</out>
            <file id="file-3"/>
            <sourcetrack>
              <mediatype>audio</mediatype>
              <trackindex>1</trackindex>
            </sourcetrack>
            <link>
              <linkclipref>clipitem-554</linkclipref>
              <mediatype>video</mediatype>
              <trackindex>1</trackindex>
              <clipindex>1</clipindex>
            </link>
            <link>
              <linkclipref>clipitem-555</linkclipref>
              <mediatype>audio</mediatype>
              <trackindex>1</trackindex>
              <clipindex>1</clipindex>
              <groupindex>1</groupindex>
            </link>
            <link>
              <linkclipref>clipitem-556</linkclipref>
              <mediatype>audio</mediatype>
              <trackindex>2</trackindex>
              <clipindex>1</clipindex>
              <groupindex>1</groupindex>
            </link>
            <link>
              <linkclipref>clipitem-557</linkclipref>
              <mediatype>audio</mediatype>
              <trackindex>3</trackindex>
              <clipindex>1</clipindex>
              <groupindex>1</groupindex>
            </link>
            <link>
              <linkclipref>clipitem-558</linkclipref>
              <mediatype>audio</mediatype>
              <trackindex>4</trackindex>
              <clipindex>1</clipindex>
              <groupindex>1</groupindex>
            </link>
            <link>
              <linkclipref>clipitem-559</linkclipref>
              <mediatype>audio</mediatype>
              <trackindex>5</trackindex>
              <clipindex>1</clipindex>
              <groupindex>1</groupindex>
            </link>
            <link>
              <linkclipref>clipitem-560</linkclipref>
              <mediatype>audio</mediatype>
              <trackindex>6</trackindex>
              <clipindex>1</clipindex>
              <groupindex>1</groupindex>
            </link>
          </clipitem>
          <clipitem id="clipitem-562" premiereChannelType="Stereo">
            <masterclipid>masterclip-3</masterclipid>
            <name>2023-03-30 21-15-31艾许决赛圈2V6 8KCC.mp4</name>
            <enabled>TRUE</enabled>
            <rate>
              <timebase>60</timebase>
              <ntsc>FALSE</ntsc>
            </rate>
            <start>11182</start>
            <end>11342</end>
            <in>13849</in>
            <out>14009</out>
            <file id="file-3"/>
            <sourcetrack>
              <mediatype>audio</mediatype>
              <trackindex>1</trackindex>
            </sourcetrack>
            <link>
              <linkclipref>clipitem-561</linkclipref>
              <mediatype>video</mediatype>
              <trackindex>1</trackindex>
              <clipindex>1</clipindex>
            </link>
            <link>
              <linkclipref>clipitem-562</linkclipref>
              <mediatype>audio</mediatype>
              <trackindex>1</trackindex>
              <clipindex>1</clipindex>
              <groupindex>1</groupindex>
            </link>
            <link>
              <linkclipref>clipitem-563</linkclipref>
              <mediatype>audio</mediatype>
              <trackindex>2</trackindex>
              <clipindex>1</clipindex>
              <groupindex>1</groupindex>
            </link>
            <link>
              <linkclipref>clipitem-564</linkclipref>
              <mediatype>audio</mediatype>
              <trackindex>3</trackindex>
              <clipindex>1</clipindex>
              <groupindex>1</groupindex>
            </link>
            <link>
              <linkclipref>clipitem-565</linkclipref>
              <mediatype>audio</mediatype>
              <trackindex>4</trackindex>
              <clipindex>1</clipindex>
              <groupindex>1</groupindex>
            </link>
            <link>
              <linkclipref>clipitem-566</linkclipref>
              <mediatype>audio</mediatype>
              <trackindex>5</trackindex>
              <clipindex>1</clipindex>
              <groupindex>1</groupindex>
            </link>
            <link>
              <linkclipref>clipitem-567</linkclipref>
              <mediatype>audio</mediatype>
              <trackindex>6</trackindex>
              <clipindex>1</clipindex>
              <groupindex>1</groupindex>
            </link>
          </clipitem>
          <clipitem id="clipitem-569" premiereChannelType="Stereo">
            <masterclipid>masterclip-3</masterclipid>
            <name>2023-03-30 21-15-31艾许决赛圈2V6 8KCC.mp4</name>
            <enabled>TRUE</enabled>
            <rate>
              <timebase>60</timebase>
              <ntsc>FALSE</ntsc>
            </rate>
            <start>11342</start>
            <end>11465</end>
            <in>14114</in>
            <out>14237</out>
            <file id="file-3"/>
            <sourcetrack>
              <mediatype>audio</mediatype>
              <trackindex>1</trackindex>
            </sourcetrack>
            <link>
              <linkclipref>clipitem-568</linkclipref>
              <mediatype>video</mediatype>
              <trackindex>1</trackindex>
              <clipindex>1</clipindex>
            </link>
            <link>
              <linkclipref>clipitem-569</linkclipref>
              <mediatype>audio</mediatype>
              <trackindex>1</trackindex>
              <clipindex>1</clipindex>
              <groupindex>1</groupindex>
            </link>
            <link>
              <linkclipref>clipitem-570</linkclipref>
              <mediatype>audio</mediatype>
              <trackindex>2</trackindex>
              <clipindex>1</clipindex>
              <groupindex>1</groupindex>
            </link>
            <link>
              <linkclipref>clipitem-571</linkclipref>
              <mediatype>audio</mediatype>
              <trackindex>3</trackindex>
              <clipindex>1</clipindex>
              <groupindex>1</groupindex>
            </link>
            <link>
              <linkclipref>clipitem-572</linkclipref>
              <mediatype>audio</mediatype>
              <trackindex>4</trackindex>
              <clipindex>1</clipindex>
              <groupindex>1</groupindex>
            </link>
            <link>
              <linkclipref>clipitem-573</linkclipref>
              <mediatype>audio</mediatype>
              <trackindex>5</trackindex>
              <clipindex>1</clipindex>
              <groupindex>1</groupindex>
            </link>
            <link>
              <linkclipref>clipitem-574</linkclipref>
              <mediatype>audio</mediatype>
              <trackindex>6</trackindex>
              <clipindex>1</clipindex>
              <groupindex>1</groupindex>
            </link>
          </clipitem>
          <clipitem id="clipitem-576" premiereChannelType="Stereo">
            <masterclipid>masterclip-3</masterclipid>
            <name>2023-03-30 21-15-31艾许决赛圈2V6 8KCC.mp4</name>
            <enabled>TRUE</enabled>
            <rate>
              <timebase>60</timebase>
              <ntsc>FALSE</ntsc>
            </rate>
            <start>11465</start>
            <end>11536</end>
            <in>14267</in>
            <out>14338</out>
            <file id="file-3"/>
            <sourcetrack>
              <mediatype>audio</mediatype>
              <trackindex>1</trackindex>
            </sourcetrack>
            <link>
              <linkclipref>clipitem-575</linkclipref>
              <mediatype>video</mediatype>
              <trackindex>1</trackindex>
              <clipindex>1</clipindex>
            </link>
            <link>
              <linkclipref>clipitem-576</linkclipref>
              <mediatype>audio</mediatype>
              <trackindex>1</trackindex>
              <clipindex>1</clipindex>
              <groupindex>1</groupindex>
            </link>
            <link>
              <linkclipref>clipitem-577</linkclipref>
              <mediatype>audio</mediatype>
              <trackindex>2</trackindex>
              <clipindex>1</clipindex>
              <groupindex>1</groupindex>
            </link>
            <link>
              <linkclipref>clipitem-578</linkclipref>
              <mediatype>audio</mediatype>
              <trackindex>3</trackindex>
              <clipindex>1</clipindex>
              <groupindex>1</groupindex>
            </link>
            <link>
              <linkclipref>clipitem-579</linkclipref>
              <mediatype>audio</mediatype>
              <trackindex>4</trackindex>
              <clipindex>1</clipindex>
              <groupindex>1</groupindex>
            </link>
            <link>
              <linkclipref>clipitem-580</linkclipref>
              <mediatype>audio</mediatype>
              <trackindex>5</trackindex>
              <clipindex>1</clipindex>
              <groupindex>1</groupindex>
            </link>
            <link>
              <linkclipref>clipitem-581</linkclipref>
              <mediatype>audio</mediatype>
              <trackindex>6</trackindex>
              <clipindex>1</clipindex>
              <groupindex>1</groupindex>
            </link>
          </clipitem>
          <clipitem id="clipitem-583" premiereChannelType="Stereo">
            <masterclipid>masterclip-3</masterclipid>
            <name>2023-03-30 21-15-31艾许决赛圈2V6 8KCC.mp4</name>
            <enabled>TRUE</enabled>
            <rate>
              <timebase>60</timebase>
              <ntsc>FALSE</ntsc>
            </rate>
            <start>11536</start>
            <end>11721</end>
            <in>15371</in>
            <out>15556</out>
            <file id="file-3"/>
            <sourcetrack>
              <mediatype>audio</mediatype>
              <trackindex>1</trackindex>
            </sourcetrack>
            <link>
              <linkclipref>clipitem-582</linkclipref>
              <mediatype>video</mediatype>
              <trackindex>1</trackindex>
              <clipindex>1</clipindex>
            </link>
            <link>
              <linkclipref>clipitem-583</linkclipref>
              <mediatype>audio</mediatype>
              <trackindex>1</trackindex>
              <clipindex>1</clipindex>
              <groupindex>1</groupindex>
            </link>
            <link>
              <linkclipref>clipitem-584</linkclipref>
              <mediatype>audio</mediatype>
              <trackindex>2</trackindex>
              <clipindex>1</clipindex>
              <groupindex>1</groupindex>
            </link>
            <link>
              <linkclipref>clipitem-585</linkclipref>
              <mediatype>audio</mediatype>
              <trackindex>3</trackindex>
              <clipindex>1</clipindex>
              <groupindex>1</groupindex>
            </link>
            <link>
              <linkclipref>clipitem-586</linkclipref>
              <mediatype>audio</mediatype>
              <trackindex>4</trackindex>
              <clipindex>1</clipindex>
              <groupindex>1</groupindex>
            </link>
            <link>
              <linkclipref>clipitem-587</linkclipref>
              <mediatype>audio</mediatype>
              <trackindex>5</trackindex>
              <clipindex>1</clipindex>
              <groupindex>1</groupindex>
            </link>
            <link>
              <linkclipref>clipitem-588</linkclipref>
              <mediatype>audio</mediatype>
              <trackindex>6</trackindex>
              <clipindex>1</clipindex>
              <groupindex>1</groupindex>
            </link>
          </clipitem>
          <clipitem id="clipitem-590" premiereChannelType="Stereo">
            <masterclipid>masterclip-3</masterclipid>
            <name>2023-03-30 21-15-31艾许决赛圈2V6 8KCC.mp4</name>
            <enabled>TRUE</enabled>
            <rate>
              <timebase>60</timebase>
              <ntsc>FALSE</ntsc>
            </rate>
            <start>11721</start>
            <end>11912</end>
            <in>16453</in>
            <out>16644</out>
            <file id="file-3"/>
            <sourcetrack>
              <mediatype>audio</mediatype>
              <trackindex>1</trackindex>
            </sourcetrack>
            <link>
              <linkclipref>clipitem-589</linkclipref>
              <mediatype>video</mediatype>
              <trackindex>1</trackindex>
              <clipindex>1</clipindex>
            </link>
            <link>
              <linkclipref>clipitem-590</linkclipref>
              <mediatype>audio</mediatype>
              <trackindex>1</trackindex>
              <clipindex>1</clipindex>
              <groupindex>1</groupindex>
            </link>
            <link>
              <linkclipref>clipitem-591</linkclipref>
              <mediatype>audio</mediatype>
              <trackindex>2</trackindex>
              <clipindex>1</clipindex>
              <groupindex>1</groupindex>
            </link>
            <link>
              <linkclipref>clipitem-592</linkclipref>
              <mediatype>audio</mediatype>
              <trackindex>3</trackindex>
              <clipindex>1</clipindex>
              <groupindex>1</groupindex>
            </link>
            <link>
              <linkclipref>clipitem-593</linkclipref>
              <mediatype>audio</mediatype>
              <trackindex>4</trackindex>
              <clipindex>1</clipindex>
              <groupindex>1</groupindex>
            </link>
            <link>
              <linkclipref>clipitem-594</linkclipref>
              <mediatype>audio</mediatype>
              <trackindex>5</trackindex>
              <clipindex>1</clipindex>
              <groupindex>1</groupindex>
            </link>
            <link>
              <linkclipref>clipitem-595</linkclipref>
              <mediatype>audio</mediatype>
              <trackindex>6</trackindex>
              <clipindex>1</clipindex>
              <groupindex>1</groupindex>
            </link>
          </clipitem>
          <clipitem id="clipitem-597" premiereChannelType="Stereo">
            <masterclipid>masterclip-3</masterclipid>
            <name>2023-03-30 21-15-31艾许决赛圈2V6 8KCC.mp4</name>
            <enabled>TRUE</enabled>
            <rate>
              <timebase>60</timebase>
              <ntsc>FALSE</ntsc>
            </rate>
            <start>11912</start>
            <end>12140</end>
            <in>16757</in>
            <out>16985</out>
            <file id="file-3"/>
            <sourcetrack>
              <mediatype>audio</mediatype>
              <trackindex>1</trackindex>
            </sourcetrack>
            <link>
              <linkclipref>clipitem-596</linkclipref>
              <mediatype>video</mediatype>
              <trackindex>1</trackindex>
              <clipindex>1</clipindex>
            </link>
            <link>
              <linkclipref>clipitem-597</linkclipref>
              <mediatype>audio</mediatype>
              <trackindex>1</trackindex>
              <clipindex>1</clipindex>
              <groupindex>1</groupindex>
            </link>
            <link>
              <linkclipref>clipitem-598</linkclipref>
              <mediatype>audio</mediatype>
              <trackindex>2</trackindex>
              <clipindex>1</clipindex>
              <groupindex>1</groupindex>
            </link>
            <link>
              <linkclipref>clipitem-599</linkclipref>
              <mediatype>audio</mediatype>
              <trackindex>3</trackindex>
              <clipindex>1</clipindex>
              <groupindex>1</groupindex>
            </link>
            <link>
              <linkclipref>clipitem-600</linkclipref>
              <mediatype>audio</mediatype>
              <trackindex>4</trackindex>
              <clipindex>1</clipindex>
              <groupindex>1</groupindex>
            </link>
            <link>
              <linkclipref>clipitem-601</linkclipref>
              <mediatype>audio</mediatype>
              <trackindex>5</trackindex>
              <clipindex>1</clipindex>
              <groupindex>1</groupindex>
            </link>
            <link>
              <linkclipref>clipitem-602</linkclipref>
              <mediatype>audio</mediatype>
              <trackindex>6</trackindex>
              <clipindex>1</clipindex>
              <groupindex>1</groupindex>
            </link>
          </clipitem>
          <clipitem id="clipitem-604" premiereChannelType="Stereo">
            <masterclipid>masterclip-3</masterclipid>
            <name>2023-03-30 21-15-31艾许决赛圈2V6 8KCC.mp4</name>
            <enabled>TRUE</enabled>
            <rate>
              <timebase>60</timebase>
              <ntsc>FALSE</ntsc>
            </rate>
            <start>12140</start>
            <end>12316</end>
            <in>17536</in>
            <out>17712</out>
            <file id="file-3"/>
            <sourcetrack>
              <mediatype>audio</mediatype>
              <trackindex>1</trackindex>
            </sourcetrack>
            <link>
              <linkclipref>clipitem-603</linkclipref>
              <mediatype>video</mediatype>
              <trackindex>1</trackindex>
              <clipindex>1</clipindex>
            </link>
            <link>
              <linkclipref>clipitem-604</linkclipref>
              <mediatype>audio</mediatype>
              <trackindex>1</trackindex>
              <clipindex>1</clipindex>
              <groupindex>1</groupindex>
            </link>
            <link>
              <linkclipref>clipitem-605</linkclipref>
              <mediatype>audio</mediatype>
              <trackindex>2</trackindex>
              <clipindex>1</clipindex>
              <groupindex>1</groupindex>
            </link>
            <link>
              <linkclipref>clipitem-606</linkclipref>
              <mediatype>audio</mediatype>
              <trackindex>3</trackindex>
              <clipindex>1</clipindex>
              <groupindex>1</groupindex>
            </link>
            <link>
              <linkclipref>clipitem-607</linkclipref>
              <mediatype>audio</mediatype>
              <trackindex>4</trackindex>
              <clipindex>1</clipindex>
              <groupindex>1</groupindex>
            </link>
            <link>
              <linkclipref>clipitem-608</linkclipref>
              <mediatype>audio</mediatype>
              <trackindex>5</trackindex>
              <clipindex>1</clipindex>
              <groupindex>1</groupindex>
            </link>
            <link>
              <linkclipref>clipitem-609</linkclipref>
              <mediatype>audio</mediatype>
              <trackindex>6</trackindex>
              <clipindex>1</clipindex>
              <groupindex>1</groupindex>
            </link>
          </clipitem>
          <clipitem id="clipitem-611" premiereChannelType="Stereo">
            <masterclipid>masterclip-3</masterclipid>
            <name>2023-03-30 21-15-31艾许决赛圈2V6 8KCC.mp4</name>
            <enabled>TRUE</enabled>
            <rate>
              <timebase>60</timebase>
              <ntsc>FALSE</ntsc>
            </rate>
            <start>12316</start>
            <end>12524</end>
            <in>18299</in>
            <out>18507</out>
            <file id="file-3"/>
            <sourcetrack>
              <mediatype>audio</mediatype>
              <trackindex>1</trackindex>
            </sourcetrack>
            <link>
              <linkclipref>clipitem-610</linkclipref>
              <mediatype>video</mediatype>
              <trackindex>1</trackindex>
              <clipindex>1</clipindex>
            </link>
            <link>
              <linkclipref>clipitem-611</linkclipref>
              <mediatype>audio</mediatype>
              <trackindex>1</trackindex>
              <clipindex>1</clipindex>
              <groupindex>1</groupindex>
            </link>
            <link>
              <linkclipref>clipitem-612</linkclipref>
              <mediatype>audio</mediatype>
              <trackindex>2</trackindex>
              <clipindex>1</clipindex>
              <groupindex>1</groupindex>
            </link>
            <link>
              <linkclipref>clipitem-613</linkclipref>
              <mediatype>audio</mediatype>
              <trackindex>3</trackindex>
              <clipindex>1</clipindex>
              <groupindex>1</groupindex>
            </link>
            <link>
              <linkclipref>clipitem-614</linkclipref>
              <mediatype>audio</mediatype>
              <trackindex>4</trackindex>
              <clipindex>1</clipindex>
              <groupindex>1</groupindex>
            </link>
            <link>
              <linkclipref>clipitem-615</linkclipref>
              <mediatype>audio</mediatype>
              <trackindex>5</trackindex>
              <clipindex>1</clipindex>
              <groupindex>1</groupindex>
            </link>
            <link>
              <linkclipref>clipitem-616</linkclipref>
              <mediatype>audio</mediatype>
              <trackindex>6</trackindex>
              <clipindex>1</clipindex>
              <groupindex>1</groupindex>
            </link>
          </clipitem>
          <clipitem id="clipitem-618" premiereChannelType="Stereo">
            <masterclipid>masterclip-3</masterclipid>
            <name>2023-03-30 21-15-31艾许决赛圈2V6 8KCC.mp4</name>
            <enabled>TRUE</enabled>
            <rate>
              <timebase>60</timebase>
              <ntsc>FALSE</ntsc>
            </rate>
            <start>12524</start>
            <end>12590</end>
            <in>18532</in>
            <out>18598</out>
            <file id="file-3"/>
            <sourcetrack>
              <mediatype>audio</mediatype>
              <trackindex>1</trackindex>
            </sourcetrack>
            <link>
              <linkclipref>clipitem-617</linkclipref>
              <mediatype>video</mediatype>
              <trackindex>1</trackindex>
              <clipindex>1</clipindex>
            </link>
            <link>
              <linkclipref>clipitem-618</linkclipref>
              <mediatype>audio</mediatype>
              <trackindex>1</trackindex>
              <clipindex>1</clipindex>
              <groupindex>1</groupindex>
            </link>
            <link>
              <linkclipref>clipitem-619</linkclipref>
              <mediatype>audio</mediatype>
              <trackindex>2</trackindex>
              <clipindex>1</clipindex>
              <groupindex>1</groupindex>
            </link>
            <link>
              <linkclipref>clipitem-620</linkclipref>
              <mediatype>audio</mediatype>
              <trackindex>3</trackindex>
              <clipindex>1</clipindex>
              <groupindex>1</groupindex>
            </link>
            <link>
              <linkclipref>clipitem-621</linkclipref>
              <mediatype>audio</mediatype>
              <trackindex>4</trackindex>
              <clipindex>1</clipindex>
              <groupindex>1</groupindex>
            </link>
            <link>
              <linkclipref>clipitem-622</linkclipref>
              <mediatype>audio</mediatype>
              <trackindex>5</trackindex>
              <clipindex>1</clipindex>
              <groupindex>1</groupindex>
            </link>
            <link>
              <linkclipref>clipitem-623</linkclipref>
              <mediatype>audio</mediatype>
              <trackindex>6</trackindex>
              <clipindex>1</clipindex>
              <groupindex>1</groupindex>
            </link>
          </clipitem>
          <clipitem id="clipitem-625" premiereChannelType="Stereo">
            <masterclipid>masterclip-3</masterclipid>
            <name>2023-03-30 21-15-31艾许决赛圈2V6 8KCC.mp4</name>
            <enabled>TRUE</enabled>
            <rate>
              <timebase>60</timebase>
              <ntsc>FALSE</ntsc>
            </rate>
            <start>12590</start>
            <end>12690</end>
            <in>18756</in>
            <out>18856</out>
            <file id="file-3"/>
            <sourcetrack>
              <mediatype>audio</mediatype>
              <trackindex>1</trackindex>
            </sourcetrack>
            <link>
              <linkclipref>clipitem-624</linkclipref>
              <mediatype>video</mediatype>
              <trackindex>1</trackindex>
              <clipindex>1</clipindex>
            </link>
            <link>
              <linkclipref>clipitem-625</linkclipref>
              <mediatype>audio</mediatype>
              <trackindex>1</trackindex>
              <clipindex>1</clipindex>
              <groupindex>1</groupindex>
            </link>
            <link>
              <linkclipref>clipitem-626</linkclipref>
              <mediatype>audio</mediatype>
              <trackindex>2</trackindex>
              <clipindex>1</clipindex>
              <groupindex>1</groupindex>
            </link>
            <link>
              <linkclipref>clipitem-627</linkclipref>
              <mediatype>audio</mediatype>
              <trackindex>3</trackindex>
              <clipindex>1</clipindex>
              <groupindex>1</groupindex>
            </link>
            <link>
              <linkclipref>clipitem-628</linkclipref>
              <mediatype>audio</mediatype>
              <trackindex>4</trackindex>
              <clipindex>1</clipindex>
              <groupindex>1</groupindex>
            </link>
            <link>
              <linkclipref>clipitem-629</linkclipref>
              <mediatype>audio</mediatype>
              <trackindex>5</trackindex>
              <clipindex>1</clipindex>
              <groupindex>1</groupindex>
            </link>
            <link>
              <linkclipref>clipitem-630</linkclipref>
              <mediatype>audio</mediatype>
              <trackindex>6</trackindex>
              <clipindex>1</clipindex>
              <groupindex>1</groupindex>
            </link>
          </clipitem>
          <clipitem id="clipitem-632" premiereChannelType="Stereo">
            <masterclipid>masterclip-3</masterclipid>
            <name>2023-03-30 21-15-31艾许决赛圈2V6 8KCC.mp4</name>
            <enabled>TRUE</enabled>
            <rate>
              <timebase>60</timebase>
              <ntsc>FALSE</ntsc>
            </rate>
            <start>12690</start>
            <end>12770</end>
            <in>29766</in>
            <out>29846</out>
            <file id="file-3"/>
            <sourcetrack>
              <mediatype>audio</mediatype>
              <trackindex>1</trackindex>
            </sourcetrack>
            <link>
              <linkclipref>clipitem-631</linkclipref>
              <mediatype>video</mediatype>
              <trackindex>1</trackindex>
              <clipindex>1</clipindex>
            </link>
            <link>
              <linkclipref>clipitem-632</linkclipref>
              <mediatype>audio</mediatype>
              <trackindex>1</trackindex>
              <clipindex>1</clipindex>
              <groupindex>1</groupindex>
            </link>
            <link>
              <linkclipref>clipitem-633</linkclipref>
              <mediatype>audio</mediatype>
              <trackindex>2</trackindex>
              <clipindex>1</clipindex>
              <groupindex>1</groupindex>
            </link>
            <link>
              <linkclipref>clipitem-634</linkclipref>
              <mediatype>audio</mediatype>
              <trackindex>3</trackindex>
              <clipindex>1</clipindex>
              <groupindex>1</groupindex>
            </link>
            <link>
              <linkclipref>clipitem-635</linkclipref>
              <mediatype>audio</mediatype>
              <trackindex>4</trackindex>
              <clipindex>1</clipindex>
              <groupindex>1</groupindex>
            </link>
            <link>
              <linkclipref>clipitem-636</linkclipref>
              <mediatype>audio</mediatype>
              <trackindex>5</trackindex>
              <clipindex>1</clipindex>
              <groupindex>1</groupindex>
            </link>
            <link>
              <linkclipref>clipitem-637</linkclipref>
              <mediatype>audio</mediatype>
              <trackindex>6</trackindex>
              <clipindex>1</clipindex>
              <groupindex>1</groupindex>
            </link>
          </clipitem>
          <clipitem id="clipitem-639" premiereChannelType="Stereo">
            <masterclipid>masterclip-3</masterclipid>
            <name>2023-03-30 21-15-31艾许决赛圈2V6 8KCC.mp4</name>
            <enabled>TRUE</enabled>
            <rate>
              <timebase>60</timebase>
              <ntsc>FALSE</ntsc>
            </rate>
            <start>12770</start>
            <end>12919</end>
            <in>30276</in>
            <out>30425</out>
            <file id="file-3"/>
            <sourcetrack>
              <mediatype>audio</mediatype>
              <trackindex>1</trackindex>
            </sourcetrack>
            <link>
              <linkclipref>clipitem-638</linkclipref>
              <mediatype>video</mediatype>
              <trackindex>1</trackindex>
              <clipindex>1</clipindex>
            </link>
            <link>
              <linkclipref>clipitem-639</linkclipref>
              <mediatype>audio</mediatype>
              <trackindex>1</trackindex>
              <clipindex>1</clipindex>
              <groupindex>1</groupindex>
            </link>
            <link>
              <linkclipref>clipitem-640</linkclipref>
              <mediatype>audio</mediatype>
              <trackindex>2</trackindex>
              <clipindex>1</clipindex>
              <groupindex>1</groupindex>
            </link>
            <link>
              <linkclipref>clipitem-641</linkclipref>
              <mediatype>audio</mediatype>
              <trackindex>3</trackindex>
              <clipindex>1</clipindex>
              <groupindex>1</groupindex>
            </link>
            <link>
              <linkclipref>clipitem-642</linkclipref>
              <mediatype>audio</mediatype>
              <trackindex>4</trackindex>
              <clipindex>1</clipindex>
              <groupindex>1</groupindex>
            </link>
            <link>
              <linkclipref>clipitem-643</linkclipref>
              <mediatype>audio</mediatype>
              <trackindex>5</trackindex>
              <clipindex>1</clipindex>
              <groupindex>1</groupindex>
            </link>
            <link>
              <linkclipref>clipitem-644</linkclipref>
              <mediatype>audio</mediatype>
              <trackindex>6</trackindex>
              <clipindex>1</clipindex>
              <groupindex>1</groupindex>
            </link>
          </clipitem>
          <clipitem id="clipitem-646" premiereChannelType="Stereo">
            <masterclipid>masterclip-3</masterclipid>
            <name>2023-03-30 21-15-31艾许决赛圈2V6 8KCC.mp4</name>
            <enabled>TRUE</enabled>
            <rate>
              <timebase>60</timebase>
              <ntsc>FALSE</ntsc>
            </rate>
            <start>12919</start>
            <end>13039</end>
            <in>30422</in>
            <out>30542</out>
            <file id="file-3"/>
            <sourcetrack>
              <mediatype>audio</mediatype>
              <trackindex>1</trackindex>
            </sourcetrack>
            <link>
              <linkclipref>clipitem-645</linkclipref>
              <mediatype>video</mediatype>
              <trackindex>1</trackindex>
              <clipindex>1</clipindex>
            </link>
            <link>
              <linkclipref>clipitem-646</linkclipref>
              <mediatype>audio</mediatype>
              <trackindex>1</trackindex>
              <clipindex>1</clipindex>
              <groupindex>1</groupindex>
            </link>
            <link>
              <linkclipref>clipitem-647</linkclipref>
              <mediatype>audio</mediatype>
              <trackindex>2</trackindex>
              <clipindex>1</clipindex>
              <groupindex>1</groupindex>
            </link>
            <link>
              <linkclipref>clipitem-648</linkclipref>
              <mediatype>audio</mediatype>
              <trackindex>3</trackindex>
              <clipindex>1</clipindex>
              <groupindex>1</groupindex>
            </link>
            <link>
              <linkclipref>clipitem-649</linkclipref>
              <mediatype>audio</mediatype>
              <trackindex>4</trackindex>
              <clipindex>1</clipindex>
              <groupindex>1</groupindex>
            </link>
            <link>
              <linkclipref>clipitem-650</linkclipref>
              <mediatype>audio</mediatype>
              <trackindex>5</trackindex>
              <clipindex>1</clipindex>
              <groupindex>1</groupindex>
            </link>
            <link>
              <linkclipref>clipitem-651</linkclipref>
              <mediatype>audio</mediatype>
              <trackindex>6</trackindex>
              <clipindex>1</clipindex>
              <groupindex>1</groupindex>
            </link>
          </clipitem>
          <clipitem id="clipitem-653" premiereChannelType="Stereo">
            <masterclipid>masterclip-3</masterclipid>
            <name>2023-03-30 21-15-31艾许决赛圈2V6 8KCC.mp4</name>
            <enabled>TRUE</enabled>
            <rate>
              <timebase>60</timebase>
              <ntsc>FALSE</ntsc>
            </rate>
            <start>13039</start>
            <end>13141</end>
            <in>30545</in>
            <out>30647</out>
            <file id="file-3"/>
            <sourcetrack>
              <mediatype>audio</mediatype>
              <trackindex>1</trackindex>
            </sourcetrack>
            <link>
              <linkclipref>clipitem-652</linkclipref>
              <mediatype>video</mediatype>
              <trackindex>1</trackindex>
              <clipindex>1</clipindex>
            </link>
            <link>
              <linkclipref>clipitem-653</linkclipref>
              <mediatype>audio</mediatype>
              <trackindex>1</trackindex>
              <clipindex>1</clipindex>
              <groupindex>1</groupindex>
            </link>
            <link>
              <linkclipref>clipitem-654</linkclipref>
              <mediatype>audio</mediatype>
              <trackindex>2</trackindex>
              <clipindex>1</clipindex>
              <groupindex>1</groupindex>
            </link>
            <link>
              <linkclipref>clipitem-655</linkclipref>
              <mediatype>audio</mediatype>
              <trackindex>3</trackindex>
              <clipindex>1</clipindex>
              <groupindex>1</groupindex>
            </link>
            <link>
              <linkclipref>clipitem-656</linkclipref>
              <mediatype>audio</mediatype>
              <trackindex>4</trackindex>
              <clipindex>1</clipindex>
              <groupindex>1</groupindex>
            </link>
            <link>
              <linkclipref>clipitem-657</linkclipref>
              <mediatype>audio</mediatype>
              <trackindex>5</trackindex>
              <clipindex>1</clipindex>
              <groupindex>1</groupindex>
            </link>
            <link>
              <linkclipref>clipitem-658</linkclipref>
              <mediatype>audio</mediatype>
              <trackindex>6</trackindex>
              <clipindex>1</clipindex>
              <groupindex>1</groupindex>
            </link>
          </clipitem>
          <clipitem id="clipitem-660" premiereChannelType="Stereo">
            <masterclipid>masterclip-3</masterclipid>
            <name>2023-03-30 21-15-31艾许决赛圈2V6 8KCC.mp4</name>
            <enabled>TRUE</enabled>
            <rate>
              <timebase>60</timebase>
              <ntsc>FALSE</ntsc>
            </rate>
            <start>13141</start>
            <end>13330</end>
            <in>32618</in>
            <out>32807</out>
            <file id="file-3"/>
            <sourcetrack>
              <mediatype>audio</mediatype>
              <trackindex>1</trackindex>
            </sourcetrack>
            <link>
              <linkclipref>clipitem-659</linkclipref>
              <mediatype>video</mediatype>
              <trackindex>1</trackindex>
              <clipindex>1</clipindex>
            </link>
            <link>
              <linkclipref>clipitem-660</linkclipref>
              <mediatype>audio</mediatype>
              <trackindex>1</trackindex>
              <clipindex>1</clipindex>
              <groupindex>1</groupindex>
            </link>
            <link>
              <linkclipref>clipitem-661</linkclipref>
              <mediatype>audio</mediatype>
              <trackindex>2</trackindex>
              <clipindex>1</clipindex>
              <groupindex>1</groupindex>
            </link>
            <link>
              <linkclipref>clipitem-662</linkclipref>
              <mediatype>audio</mediatype>
              <trackindex>3</trackindex>
              <clipindex>1</clipindex>
              <groupindex>1</groupindex>
            </link>
            <link>
              <linkclipref>clipitem-663</linkclipref>
              <mediatype>audio</mediatype>
              <trackindex>4</trackindex>
              <clipindex>1</clipindex>
              <groupindex>1</groupindex>
            </link>
            <link>
              <linkclipref>clipitem-664</linkclipref>
              <mediatype>audio</mediatype>
              <trackindex>5</trackindex>
              <clipindex>1</clipindex>
              <groupindex>1</groupindex>
            </link>
            <link>
              <linkclipref>clipitem-665</linkclipref>
              <mediatype>audio</mediatype>
              <trackindex>6</trackindex>
              <clipindex>1</clipindex>
              <groupindex>1</groupindex>
            </link>
          </clipitem>
          <clipitem id="clipitem-667" premiereChannelType="Stereo">
            <masterclipid>masterclip-3</masterclipid>
            <name>2023-03-30 21-15-31艾许决赛圈2V6 8KCC.mp4</name>
            <enabled>TRUE</enabled>
            <rate>
              <timebase>60</timebase>
              <ntsc>FALSE</ntsc>
            </rate>
            <start>13330</start>
            <end>13454</end>
            <in>33866</in>
            <out>33990</out>
            <file id="file-3"/>
            <sourcetrack>
              <mediatype>audio</mediatype>
              <trackindex>1</trackindex>
            </sourcetrack>
            <link>
              <linkclipref>clipitem-666</linkclipref>
              <mediatype>video</mediatype>
              <trackindex>1</trackindex>
              <clipindex>1</clipindex>
            </link>
            <link>
              <linkclipref>clipitem-667</linkclipref>
              <mediatype>audio</mediatype>
              <trackindex>1</trackindex>
              <clipindex>1</clipindex>
              <groupindex>1</groupindex>
            </link>
            <link>
              <linkclipref>clipitem-668</linkclipref>
              <mediatype>audio</mediatype>
              <trackindex>2</trackindex>
              <clipindex>1</clipindex>
              <groupindex>1</groupindex>
            </link>
            <link>
              <linkclipref>clipitem-669</linkclipref>
              <mediatype>audio</mediatype>
              <trackindex>3</trackindex>
              <clipindex>1</clipindex>
              <groupindex>1</groupindex>
            </link>
            <link>
              <linkclipref>clipitem-670</linkclipref>
              <mediatype>audio</mediatype>
              <trackindex>4</trackindex>
              <clipindex>1</clipindex>
              <groupindex>1</groupindex>
            </link>
            <link>
              <linkclipref>clipitem-671</linkclipref>
              <mediatype>audio</mediatype>
              <trackindex>5</trackindex>
              <clipindex>1</clipindex>
              <groupindex>1</groupindex>
            </link>
            <link>
              <linkclipref>clipitem-672</linkclipref>
              <mediatype>audio</mediatype>
              <trackindex>6</trackindex>
              <clipindex>1</clipindex>
              <groupindex>1</groupindex>
            </link>
          </clipitem>
          <clipitem id="clipitem-674" premiereChannelType="Stereo">
            <masterclipid>masterclip-3</masterclipid>
            <name>2023-03-30 21-15-31艾许决赛圈2V6 8KCC.mp4</name>
            <enabled>TRUE</enabled>
            <rate>
              <timebase>60</timebase>
              <ntsc>FALSE</ntsc>
            </rate>
            <start>13454</start>
            <end>13564</end>
            <in>41673</in>
            <out>41783</out>
            <file id="file-3"/>
            <sourcetrack>
              <mediatype>audio</mediatype>
              <trackindex>1</trackindex>
            </sourcetrack>
            <link>
              <linkclipref>clipitem-673</linkclipref>
              <mediatype>video</mediatype>
              <trackindex>1</trackindex>
              <clipindex>1</clipindex>
            </link>
            <link>
              <linkclipref>clipitem-674</linkclipref>
              <mediatype>audio</mediatype>
              <trackindex>1</trackindex>
              <clipindex>1</clipindex>
              <groupindex>1</groupindex>
            </link>
            <link>
              <linkclipref>clipitem-675</linkclipref>
              <mediatype>audio</mediatype>
              <trackindex>2</trackindex>
              <clipindex>1</clipindex>
              <groupindex>1</groupindex>
            </link>
            <link>
              <linkclipref>clipitem-676</linkclipref>
              <mediatype>audio</mediatype>
              <trackindex>3</trackindex>
              <clipindex>1</clipindex>
              <groupindex>1</groupindex>
            </link>
            <link>
              <linkclipref>clipitem-677</linkclipref>
              <mediatype>audio</mediatype>
              <trackindex>4</trackindex>
              <clipindex>1</clipindex>
              <groupindex>1</groupindex>
            </link>
            <link>
              <linkclipref>clipitem-678</linkclipref>
              <mediatype>audio</mediatype>
              <trackindex>5</trackindex>
              <clipindex>1</clipindex>
              <groupindex>1</groupindex>
            </link>
            <link>
              <linkclipref>clipitem-679</linkclipref>
              <mediatype>audio</mediatype>
              <trackindex>6</trackindex>
              <clipindex>1</clipindex>
              <groupindex>1</groupindex>
            </link>
          </clipitem>
          <clipitem id="clipitem-681" premiereChannelType="Stereo">
            <masterclipid>masterclip-3</masterclipid>
            <name>2023-03-30 21-15-31艾许决赛圈2V6 8KCC.mp4</name>
            <enabled>TRUE</enabled>
            <rate>
              <timebase>60</timebase>
              <ntsc>FALSE</ntsc>
            </rate>
            <start>13564</start>
            <end>13644</end>
            <in>42037</in>
            <out>42117</out>
            <file id="file-3"/>
            <sourcetrack>
              <mediatype>audio</mediatype>
              <trackindex>1</trackindex>
            </sourcetrack>
            <link>
              <linkclipref>clipitem-680</linkclipref>
              <mediatype>video</mediatype>
              <trackindex>1</trackindex>
              <clipindex>1</clipindex>
            </link>
            <link>
              <linkclipref>clipitem-681</linkclipref>
              <mediatype>audio</mediatype>
              <trackindex>1</trackindex>
              <clipindex>1</clipindex>
              <groupindex>1</groupindex>
            </link>
            <link>
              <linkclipref>clipitem-682</linkclipref>
              <mediatype>audio</mediatype>
              <trackindex>2</trackindex>
              <clipindex>1</clipindex>
              <groupindex>1</groupindex>
            </link>
            <link>
              <linkclipref>clipitem-683</linkclipref>
              <mediatype>audio</mediatype>
              <trackindex>3</trackindex>
              <clipindex>1</clipindex>
              <groupindex>1</groupindex>
            </link>
            <link>
              <linkclipref>clipitem-684</linkclipref>
              <mediatype>audio</mediatype>
              <trackindex>4</trackindex>
              <clipindex>1</clipindex>
              <groupindex>1</groupindex>
            </link>
            <link>
              <linkclipref>clipitem-685</linkclipref>
              <mediatype>audio</mediatype>
              <trackindex>5</trackindex>
              <clipindex>1</clipindex>
              <groupindex>1</groupindex>
            </link>
            <link>
              <linkclipref>clipitem-686</linkclipref>
              <mediatype>audio</mediatype>
              <trackindex>6</trackindex>
              <clipindex>1</clipindex>
              <groupindex>1</groupindex>
            </link>
          </clipitem>
          <clipitem id="clipitem-688" premiereChannelType="Stereo">
            <masterclipid>masterclip-3</masterclipid>
            <name>2023-03-30 21-15-31艾许决赛圈2V6 8KCC.mp4</name>
            <enabled>TRUE</enabled>
            <rate>
              <timebase>60</timebase>
              <ntsc>FALSE</ntsc>
            </rate>
            <start>13644</start>
            <end>13724</end>
            <in>43943</in>
            <out>44023</out>
            <file id="file-3"/>
            <sourcetrack>
              <mediatype>audio</mediatype>
              <trackindex>1</trackindex>
            </sourcetrack>
            <link>
              <linkclipref>clipitem-687</linkclipref>
              <mediatype>video</mediatype>
              <trackindex>1</trackindex>
              <clipindex>1</clipindex>
            </link>
            <link>
              <linkclipref>clipitem-688</linkclipref>
              <mediatype>audio</mediatype>
              <trackindex>1</trackindex>
              <clipindex>1</clipindex>
              <groupindex>1</groupindex>
            </link>
            <link>
              <linkclipref>clipitem-689</linkclipref>
              <mediatype>audio</mediatype>
              <trackindex>2</trackindex>
              <clipindex>1</clipindex>
              <groupindex>1</groupindex>
            </link>
            <link>
              <linkclipref>clipitem-690</linkclipref>
              <mediatype>audio</mediatype>
              <trackindex>3</trackindex>
              <clipindex>1</clipindex>
              <groupindex>1</groupindex>
            </link>
            <link>
              <linkclipref>clipitem-691</linkclipref>
              <mediatype>audio</mediatype>
              <trackindex>4</trackindex>
              <clipindex>1</clipindex>
              <groupindex>1</groupindex>
            </link>
            <link>
              <linkclipref>clipitem-692</linkclipref>
              <mediatype>audio</mediatype>
              <trackindex>5</trackindex>
              <clipindex>1</clipindex>
              <groupindex>1</groupindex>
            </link>
            <link>
              <linkclipref>clipitem-693</linkclipref>
              <mediatype>audio</mediatype>
              <trackindex>6</trackindex>
              <clipindex>1</clipindex>
              <groupindex>1</groupindex>
            </link>
          </clipitem>
          <clipitem id="clipitem-695" premiereChannelType="Stereo">
            <masterclipid>masterclip-3</masterclipid>
            <name>2023-03-30 21-15-31艾许决赛圈2V6 8KCC.mp4</name>
            <enabled>TRUE</enabled>
            <rate>
              <timebase>60</timebase>
              <ntsc>FALSE</ntsc>
            </rate>
            <start>13724</start>
            <end>13838</end>
            <in>44030</in>
            <out>44144</out>
            <file id="file-3"/>
            <sourcetrack>
              <mediatype>audio</mediatype>
              <trackindex>1</trackindex>
            </sourcetrack>
            <link>
              <linkclipref>clipitem-694</linkclipref>
              <mediatype>video</mediatype>
              <trackindex>1</trackindex>
              <clipindex>1</clipindex>
            </link>
            <link>
              <linkclipref>clipitem-695</linkclipref>
              <mediatype>audio</mediatype>
              <trackindex>1</trackindex>
              <clipindex>1</clipindex>
              <groupindex>1</groupindex>
            </link>
            <link>
              <linkclipref>clipitem-696</linkclipref>
              <mediatype>audio</mediatype>
              <trackindex>2</trackindex>
              <clipindex>1</clipindex>
              <groupindex>1</groupindex>
            </link>
            <link>
              <linkclipref>clipitem-697</linkclipref>
              <mediatype>audio</mediatype>
              <trackindex>3</trackindex>
              <clipindex>1</clipindex>
              <groupindex>1</groupindex>
            </link>
            <link>
              <linkclipref>clipitem-698</linkclipref>
              <mediatype>audio</mediatype>
              <trackindex>4</trackindex>
              <clipindex>1</clipindex>
              <groupindex>1</groupindex>
            </link>
            <link>
              <linkclipref>clipitem-699</linkclipref>
              <mediatype>audio</mediatype>
              <trackindex>5</trackindex>
              <clipindex>1</clipindex>
              <groupindex>1</groupindex>
            </link>
            <link>
              <linkclipref>clipitem-700</linkclipref>
              <mediatype>audio</mediatype>
              <trackindex>6</trackindex>
              <clipindex>1</clipindex>
              <groupindex>1</groupindex>
            </link>
          </clipitem>
          <clipitem id="clipitem-702" premiereChannelType="Stereo">
            <masterclipid>masterclip-3</masterclipid>
            <name>2023-03-30 21-15-31艾许决赛圈2V6 8KCC.mp4</name>
            <enabled>TRUE</enabled>
            <rate>
              <timebase>60</timebase>
              <ntsc>FALSE</ntsc>
            </rate>
            <start>13838</start>
            <end>13903</end>
            <in>44850</in>
            <out>44915</out>
            <file id="file-3"/>
            <sourcetrack>
              <mediatype>audio</mediatype>
              <trackindex>1</trackindex>
            </sourcetrack>
            <link>
              <linkclipref>clipitem-701</linkclipref>
              <mediatype>video</mediatype>
              <trackindex>1</trackindex>
              <clipindex>1</clipindex>
            </link>
            <link>
              <linkclipref>clipitem-702</linkclipref>
              <mediatype>audio</mediatype>
              <trackindex>1</trackindex>
              <clipindex>1</clipindex>
              <groupindex>1</groupindex>
            </link>
            <link>
              <linkclipref>clipitem-703</linkclipref>
              <mediatype>audio</mediatype>
              <trackindex>2</trackindex>
              <clipindex>1</clipindex>
              <groupindex>1</groupindex>
            </link>
            <link>
              <linkclipref>clipitem-704</linkclipref>
              <mediatype>audio</mediatype>
              <trackindex>3</trackindex>
              <clipindex>1</clipindex>
              <groupindex>1</groupindex>
            </link>
            <link>
              <linkclipref>clipitem-705</linkclipref>
              <mediatype>audio</mediatype>
              <trackindex>4</trackindex>
              <clipindex>1</clipindex>
              <groupindex>1</groupindex>
            </link>
            <link>
              <linkclipref>clipitem-706</linkclipref>
              <mediatype>audio</mediatype>
              <trackindex>5</trackindex>
              <clipindex>1</clipindex>
              <groupindex>1</groupindex>
            </link>
            <link>
              <linkclipref>clipitem-707</linkclipref>
              <mediatype>audio</mediatype>
              <trackindex>6</trackindex>
              <clipindex>1</clipindex>
              <groupindex>1</groupindex>
            </link>
          </clipitem>
          <clipitem id="clipitem-709" premiereChannelType="Stereo">
            <masterclipid>masterclip-3</masterclipid>
            <name>2023-03-30 21-15-31艾许决赛圈2V6 8KCC.mp4</name>
            <enabled>TRUE</enabled>
            <rate>
              <timebase>60</timebase>
              <ntsc>FALSE</ntsc>
            </rate>
            <start>13903</start>
            <end>14190</end>
            <in>46715</in>
            <out>47002</out>
            <file id="file-3"/>
            <sourcetrack>
              <mediatype>audio</mediatype>
              <trackindex>1</trackindex>
            </sourcetrack>
            <link>
              <linkclipref>clipitem-708</linkclipref>
              <mediatype>video</mediatype>
              <trackindex>1</trackindex>
              <clipindex>1</clipindex>
            </link>
            <link>
              <linkclipref>clipitem-709</linkclipref>
              <mediatype>audio</mediatype>
              <trackindex>1</trackindex>
              <clipindex>1</clipindex>
              <groupindex>1</groupindex>
            </link>
            <link>
              <linkclipref>clipitem-710</linkclipref>
              <mediatype>audio</mediatype>
              <trackindex>2</trackindex>
              <clipindex>1</clipindex>
              <groupindex>1</groupindex>
            </link>
            <link>
              <linkclipref>clipitem-711</linkclipref>
              <mediatype>audio</mediatype>
              <trackindex>3</trackindex>
              <clipindex>1</clipindex>
              <groupindex>1</groupindex>
            </link>
            <link>
              <linkclipref>clipitem-712</linkclipref>
              <mediatype>audio</mediatype>
              <trackindex>4</trackindex>
              <clipindex>1</clipindex>
              <groupindex>1</groupindex>
            </link>
            <link>
              <linkclipref>clipitem-713</linkclipref>
              <mediatype>audio</mediatype>
              <trackindex>5</trackindex>
              <clipindex>1</clipindex>
              <groupindex>1</groupindex>
            </link>
            <link>
              <linkclipref>clipitem-714</linkclipref>
              <mediatype>audio</mediatype>
              <trackindex>6</trackindex>
              <clipindex>1</clipindex>
              <groupindex>1</groupindex>
            </link>
          </clipitem>
          <clipitem id="clipitem-716" premiereChannelType="Stereo">
            <masterclipid>masterclip-3</masterclipid>
            <name>2023-03-30 21-15-31艾许决赛圈2V6 8KCC.mp4</name>
            <enabled>TRUE</enabled>
            <rate>
              <timebase>60</timebase>
              <ntsc>FALSE</ntsc>
            </rate>
            <start>14190</start>
            <end>14385</end>
            <in>48602</in>
            <out>48797</out>
            <file id="file-3"/>
            <sourcetrack>
              <mediatype>audio</mediatype>
              <trackindex>1</trackindex>
            </sourcetrack>
            <link>
              <linkclipref>clipitem-715</linkclipref>
              <mediatype>video</mediatype>
              <trackindex>1</trackindex>
              <clipindex>1</clipindex>
            </link>
            <link>
              <linkclipref>clipitem-716</linkclipref>
              <mediatype>audio</mediatype>
              <trackindex>1</trackindex>
              <clipindex>1</clipindex>
              <groupindex>1</groupindex>
            </link>
            <link>
              <linkclipref>clipitem-717</linkclipref>
              <mediatype>audio</mediatype>
              <trackindex>2</trackindex>
              <clipindex>1</clipindex>
              <groupindex>1</groupindex>
            </link>
            <link>
              <linkclipref>clipitem-718</linkclipref>
              <mediatype>audio</mediatype>
              <trackindex>3</trackindex>
              <clipindex>1</clipindex>
              <groupindex>1</groupindex>
            </link>
            <link>
              <linkclipref>clipitem-719</linkclipref>
              <mediatype>audio</mediatype>
              <trackindex>4</trackindex>
              <clipindex>1</clipindex>
              <groupindex>1</groupindex>
            </link>
            <link>
              <linkclipref>clipitem-720</linkclipref>
              <mediatype>audio</mediatype>
              <trackindex>5</trackindex>
              <clipindex>1</clipindex>
              <groupindex>1</groupindex>
            </link>
            <link>
              <linkclipref>clipitem-721</linkclipref>
              <mediatype>audio</mediatype>
              <trackindex>6</trackindex>
              <clipindex>1</clipindex>
              <groupindex>1</groupindex>
            </link>
          </clipitem>
          <clipitem id="clipitem-723" premiereChannelType="Stereo">
            <masterclipid>masterclip-3</masterclipid>
            <name>2023-03-30 21-15-31艾许决赛圈2V6 8KCC.mp4</name>
            <enabled>TRUE</enabled>
            <rate>
              <timebase>60</timebase>
              <ntsc>FALSE</ntsc>
            </rate>
            <start>14385</start>
            <end>14465</end>
            <in>48819</in>
            <out>48899</out>
            <file id="file-3"/>
            <sourcetrack>
              <mediatype>audio</mediatype>
              <trackindex>1</trackindex>
            </sourcetrack>
            <link>
              <linkclipref>clipitem-722</linkclipref>
              <mediatype>video</mediatype>
              <trackindex>1</trackindex>
              <clipindex>1</clipindex>
            </link>
            <link>
              <linkclipref>clipitem-723</linkclipref>
              <mediatype>audio</mediatype>
              <trackindex>1</trackindex>
              <clipindex>1</clipindex>
              <groupindex>1</groupindex>
            </link>
            <link>
              <linkclipref>clipitem-724</linkclipref>
              <mediatype>audio</mediatype>
              <trackindex>2</trackindex>
              <clipindex>1</clipindex>
              <groupindex>1</groupindex>
            </link>
            <link>
              <linkclipref>clipitem-725</linkclipref>
              <mediatype>audio</mediatype>
              <trackindex>3</trackindex>
              <clipindex>1</clipindex>
              <groupindex>1</groupindex>
            </link>
            <link>
              <linkclipref>clipitem-726</linkclipref>
              <mediatype>audio</mediatype>
              <trackindex>4</trackindex>
              <clipindex>1</clipindex>
              <groupindex>1</groupindex>
            </link>
            <link>
              <linkclipref>clipitem-727</linkclipref>
              <mediatype>audio</mediatype>
              <trackindex>5</trackindex>
              <clipindex>1</clipindex>
              <groupindex>1</groupindex>
            </link>
            <link>
              <linkclipref>clipitem-728</linkclipref>
              <mediatype>audio</mediatype>
              <trackindex>6</trackindex>
              <clipindex>1</clipindex>
              <groupindex>1</groupindex>
            </link>
          </clipitem>
          <clipitem id="clipitem-730" premiereChannelType="Stereo">
            <masterclipid>masterclip-3</masterclipid>
            <name>2023-03-30 21-15-31艾许决赛圈2V6 8KCC.mp4</name>
            <enabled>TRUE</enabled>
            <rate>
              <timebase>60</timebase>
              <ntsc>FALSE</ntsc>
            </rate>
            <start>14465</start>
            <end>14614</end>
            <in>67987</in>
            <out>68136</out>
            <file id="file-3"/>
            <sourcetrack>
              <mediatype>audio</mediatype>
              <trackindex>1</trackindex>
            </sourcetrack>
            <link>
              <linkclipref>clipitem-729</linkclipref>
              <mediatype>video</mediatype>
              <trackindex>1</trackindex>
              <clipindex>1</clipindex>
            </link>
            <link>
              <linkclipref>clipitem-730</linkclipref>
              <mediatype>audio</mediatype>
              <trackindex>1</trackindex>
              <clipindex>1</clipindex>
              <groupindex>1</groupindex>
            </link>
            <link>
              <linkclipref>clipitem-731</linkclipref>
              <mediatype>audio</mediatype>
              <trackindex>2</trackindex>
              <clipindex>1</clipindex>
              <groupindex>1</groupindex>
            </link>
            <link>
              <linkclipref>clipitem-732</linkclipref>
              <mediatype>audio</mediatype>
              <trackindex>3</trackindex>
              <clipindex>1</clipindex>
              <groupindex>1</groupindex>
            </link>
            <link>
              <linkclipref>clipitem-733</linkclipref>
              <mediatype>audio</mediatype>
              <trackindex>4</trackindex>
              <clipindex>1</clipindex>
              <groupindex>1</groupindex>
            </link>
            <link>
              <linkclipref>clipitem-734</linkclipref>
              <mediatype>audio</mediatype>
              <trackindex>5</trackindex>
              <clipindex>1</clipindex>
              <groupindex>1</groupindex>
            </link>
            <link>
              <linkclipref>clipitem-735</linkclipref>
              <mediatype>audio</mediatype>
              <trackindex>6</trackindex>
              <clipindex>1</clipindex>
              <groupindex>1</groupindex>
            </link>
          </clipitem>
          <clipitem id="clipitem-737" premiereChannelType="Stereo">
            <masterclipid>masterclip-3</masterclipid>
            <name>2023-03-30 21-15-31艾许决赛圈2V6 8KCC.mp4</name>
            <enabled>TRUE</enabled>
            <rate>
              <timebase>60</timebase>
              <ntsc>FALSE</ntsc>
            </rate>
            <start>14614</start>
            <end>14702</end>
            <in>69856</in>
            <out>69944</out>
            <file id="file-3"/>
            <sourcetrack>
              <mediatype>audio</mediatype>
              <trackindex>1</trackindex>
            </sourcetrack>
            <link>
              <linkclipref>clipitem-736</linkclipref>
              <mediatype>video</mediatype>
              <trackindex>1</trackindex>
              <clipindex>1</clipindex>
            </link>
            <link>
              <linkclipref>clipitem-737</linkclipref>
              <mediatype>audio</mediatype>
              <trackindex>1</trackindex>
              <clipindex>1</clipindex>
              <groupindex>1</groupindex>
            </link>
            <link>
              <linkclipref>clipitem-738</linkclipref>
              <mediatype>audio</mediatype>
              <trackindex>2</trackindex>
              <clipindex>1</clipindex>
              <groupindex>1</groupindex>
            </link>
            <link>
              <linkclipref>clipitem-739</linkclipref>
              <mediatype>audio</mediatype>
              <trackindex>3</trackindex>
              <clipindex>1</clipindex>
              <groupindex>1</groupindex>
            </link>
            <link>
              <linkclipref>clipitem-740</linkclipref>
              <mediatype>audio</mediatype>
              <trackindex>4</trackindex>
              <clipindex>1</clipindex>
              <groupindex>1</groupindex>
            </link>
            <link>
              <linkclipref>clipitem-741</linkclipref>
              <mediatype>audio</mediatype>
              <trackindex>5</trackindex>
              <clipindex>1</clipindex>
              <groupindex>1</groupindex>
            </link>
            <link>
              <linkclipref>clipitem-742</linkclipref>
              <mediatype>audio</mediatype>
              <trackindex>6</trackindex>
              <clipindex>1</clipindex>
              <groupindex>1</groupindex>
            </link>
          </clipitem>
          <clipitem id="clipitem-744" premiereChannelType="Stereo">
            <masterclipid>masterclip-3</masterclipid>
            <name>2023-03-30 21-15-31艾许决赛圈2V6 8KCC.mp4</name>
            <enabled>TRUE</enabled>
            <rate>
              <timebase>60</timebase>
              <ntsc>FALSE</ntsc>
            </rate>
            <start>14702</start>
            <end>14790</end>
            <in>69984</in>
            <out>70072</out>
            <file id="file-3"/>
            <sourcetrack>
              <mediatype>audio</mediatype>
              <trackindex>1</trackindex>
            </sourcetrack>
            <link>
              <linkclipref>clipitem-743</linkclipref>
              <mediatype>video</mediatype>
              <trackindex>1</trackindex>
              <clipindex>1</clipindex>
            </link>
            <link>
              <linkclipref>clipitem-744</linkclipref>
              <mediatype>audio</mediatype>
              <trackindex>1</trackindex>
              <clipindex>1</clipindex>
              <groupindex>1</groupindex>
            </link>
            <link>
              <linkclipref>clipitem-745</linkclipref>
              <mediatype>audio</mediatype>
              <trackindex>2</trackindex>
              <clipindex>1</clipindex>
              <groupindex>1</groupindex>
            </link>
            <link>
              <linkclipref>clipitem-746</linkclipref>
              <mediatype>audio</mediatype>
              <trackindex>3</trackindex>
              <clipindex>1</clipindex>
              <groupindex>1</groupindex>
            </link>
            <link>
              <linkclipref>clipitem-747</linkclipref>
              <mediatype>audio</mediatype>
              <trackindex>4</trackindex>
              <clipindex>1</clipindex>
              <groupindex>1</groupindex>
            </link>
            <link>
              <linkclipref>clipitem-748</linkclipref>
              <mediatype>audio</mediatype>
              <trackindex>5</trackindex>
              <clipindex>1</clipindex>
              <groupindex>1</groupindex>
            </link>
            <link>
              <linkclipref>clipitem-749</linkclipref>
              <mediatype>audio</mediatype>
              <trackindex>6</trackindex>
              <clipindex>1</clipindex>
              <groupindex>1</groupindex>
            </link>
          </clipitem>
          <clipitem id="clipitem-751" premiereChannelType="Stereo">
            <masterclipid>masterclip-3</masterclipid>
            <name>2023-03-30 21-15-31艾许决赛圈2V6 8KCC.mp4</name>
            <enabled>TRUE</enabled>
            <rate>
              <timebase>60</timebase>
              <ntsc>FALSE</ntsc>
            </rate>
            <start>14790</start>
            <end>14971</end>
            <in>70185</in>
            <out>70366</out>
            <file id="file-3"/>
            <sourcetrack>
              <mediatype>audio</mediatype>
              <trackindex>1</trackindex>
            </sourcetrack>
            <link>
              <linkclipref>clipitem-750</linkclipref>
              <mediatype>video</mediatype>
              <trackindex>1</trackindex>
              <clipindex>1</clipindex>
            </link>
            <link>
              <linkclipref>clipitem-751</linkclipref>
              <mediatype>audio</mediatype>
              <trackindex>1</trackindex>
              <clipindex>1</clipindex>
              <groupindex>1</groupindex>
            </link>
            <link>
              <linkclipref>clipitem-752</linkclipref>
              <mediatype>audio</mediatype>
              <trackindex>2</trackindex>
              <clipindex>1</clipindex>
              <groupindex>1</groupindex>
            </link>
            <link>
              <linkclipref>clipitem-753</linkclipref>
              <mediatype>audio</mediatype>
              <trackindex>3</trackindex>
              <clipindex>1</clipindex>
              <groupindex>1</groupindex>
            </link>
            <link>
              <linkclipref>clipitem-754</linkclipref>
              <mediatype>audio</mediatype>
              <trackindex>4</trackindex>
              <clipindex>1</clipindex>
              <groupindex>1</groupindex>
            </link>
            <link>
              <linkclipref>clipitem-755</linkclipref>
              <mediatype>audio</mediatype>
              <trackindex>5</trackindex>
              <clipindex>1</clipindex>
              <groupindex>1</groupindex>
            </link>
            <link>
              <linkclipref>clipitem-756</linkclipref>
              <mediatype>audio</mediatype>
              <trackindex>6</trackindex>
              <clipindex>1</clipindex>
              <groupindex>1</groupindex>
            </link>
          </clipitem>
          <clipitem id="clipitem-758" premiereChannelType="Stereo">
            <masterclipid>masterclip-3</masterclipid>
            <name>2023-03-30 21-15-31艾许决赛圈2V6 8KCC.mp4</name>
            <enabled>TRUE</enabled>
            <rate>
              <timebase>60</timebase>
              <ntsc>FALSE</ntsc>
            </rate>
            <start>14971</start>
            <end>15120</end>
            <in>70493</in>
            <out>70642</out>
            <file id="file-3"/>
            <sourcetrack>
              <mediatype>audio</mediatype>
              <trackindex>1</trackindex>
            </sourcetrack>
            <link>
              <linkclipref>clipitem-757</linkclipref>
              <mediatype>video</mediatype>
              <trackindex>1</trackindex>
              <clipindex>1</clipindex>
            </link>
            <link>
              <linkclipref>clipitem-758</linkclipref>
              <mediatype>audio</mediatype>
              <trackindex>1</trackindex>
              <clipindex>1</clipindex>
              <groupindex>1</groupindex>
            </link>
            <link>
              <linkclipref>clipitem-759</linkclipref>
              <mediatype>audio</mediatype>
              <trackindex>2</trackindex>
              <clipindex>1</clipindex>
              <groupindex>1</groupindex>
            </link>
            <link>
              <linkclipref>clipitem-760</linkclipref>
              <mediatype>audio</mediatype>
              <trackindex>3</trackindex>
              <clipindex>1</clipindex>
              <groupindex>1</groupindex>
            </link>
            <link>
              <linkclipref>clipitem-761</linkclipref>
              <mediatype>audio</mediatype>
              <trackindex>4</trackindex>
              <clipindex>1</clipindex>
              <groupindex>1</groupindex>
            </link>
            <link>
              <linkclipref>clipitem-762</linkclipref>
              <mediatype>audio</mediatype>
              <trackindex>5</trackindex>
              <clipindex>1</clipindex>
              <groupindex>1</groupindex>
            </link>
            <link>
              <linkclipref>clipitem-763</linkclipref>
              <mediatype>audio</mediatype>
              <trackindex>6</trackindex>
              <clipindex>1</clipindex>
              <groupindex>1</groupindex>
            </link>
          </clipitem>
          <clipitem id="clipitem-765" premiereChannelType="Stereo">
            <masterclipid>masterclip-3</masterclipid>
            <name>2023-03-30 21-15-31艾许决赛圈2V6 8KCC.mp4</name>
            <enabled>TRUE</enabled>
            <rate>
              <timebase>60</timebase>
              <ntsc>FALSE</ntsc>
            </rate>
            <start>15120</start>
            <end>15197</end>
            <in>70712</in>
            <out>70789</out>
            <file id="file-3"/>
            <sourcetrack>
              <mediatype>audio</mediatype>
              <trackindex>1</trackindex>
            </sourcetrack>
            <link>
              <linkclipref>clipitem-764</linkclipref>
              <mediatype>video</mediatype>
              <trackindex>1</trackindex>
              <clipindex>1</clipindex>
            </link>
            <link>
              <linkclipref>clipitem-765</linkclipref>
              <mediatype>audio</mediatype>
              <trackindex>1</trackindex>
              <clipindex>1</clipindex>
              <groupindex>1</groupindex>
            </link>
            <link>
              <linkclipref>clipitem-766</linkclipref>
              <mediatype>audio</mediatype>
              <trackindex>2</trackindex>
              <clipindex>1</clipindex>
              <groupindex>1</groupindex>
            </link>
            <link>
              <linkclipref>clipitem-767</linkclipref>
              <mediatype>audio</mediatype>
              <trackindex>3</trackindex>
              <clipindex>1</clipindex>
              <groupindex>1</groupindex>
            </link>
            <link>
              <linkclipref>clipitem-768</linkclipref>
              <mediatype>audio</mediatype>
              <trackindex>4</trackindex>
              <clipindex>1</clipindex>
              <groupindex>1</groupindex>
            </link>
            <link>
              <linkclipref>clipitem-769</linkclipref>
              <mediatype>audio</mediatype>
              <trackindex>5</trackindex>
              <clipindex>1</clipindex>
              <groupindex>1</groupindex>
            </link>
            <link>
              <linkclipref>clipitem-770</linkclipref>
              <mediatype>audio</mediatype>
              <trackindex>6</trackindex>
              <clipindex>1</clipindex>
              <groupindex>1</groupindex>
            </link>
          </clipitem>
          <clipitem id="clipitem-772" premiereChannelType="Stereo">
            <masterclipid>masterclip-3</masterclipid>
            <name>2023-03-30 21-15-31艾许决赛圈2V6 8KCC.mp4</name>
            <enabled>TRUE</enabled>
            <rate>
              <timebase>60</timebase>
              <ntsc>FALSE</ntsc>
            </rate>
            <start>15197</start>
            <end>15364</end>
            <in>70867</in>
            <out>71034</out>
            <file id="file-3"/>
            <sourcetrack>
              <mediatype>audio</mediatype>
              <trackindex>1</trackindex>
            </sourcetrack>
            <link>
              <linkclipref>clipitem-771</linkclipref>
              <mediatype>video</mediatype>
              <trackindex>1</trackindex>
              <clipindex>1</clipindex>
            </link>
            <link>
              <linkclipref>clipitem-772</linkclipref>
              <mediatype>audio</mediatype>
              <trackindex>1</trackindex>
              <clipindex>1</clipindex>
              <groupindex>1</groupindex>
            </link>
            <link>
              <linkclipref>clipitem-773</linkclipref>
              <mediatype>audio</mediatype>
              <trackindex>2</trackindex>
              <clipindex>1</clipindex>
              <groupindex>1</groupindex>
            </link>
            <link>
              <linkclipref>clipitem-774</linkclipref>
              <mediatype>audio</mediatype>
              <trackindex>3</trackindex>
              <clipindex>1</clipindex>
              <groupindex>1</groupindex>
            </link>
            <link>
              <linkclipref>clipitem-775</linkclipref>
              <mediatype>audio</mediatype>
              <trackindex>4</trackindex>
              <clipindex>1</clipindex>
              <groupindex>1</groupindex>
            </link>
            <link>
              <linkclipref>clipitem-776</linkclipref>
              <mediatype>audio</mediatype>
              <trackindex>5</trackindex>
              <clipindex>1</clipindex>
              <groupindex>1</groupindex>
            </link>
            <link>
              <linkclipref>clipitem-777</linkclipref>
              <mediatype>audio</mediatype>
              <trackindex>6</trackindex>
              <clipindex>1</clipindex>
              <groupindex>1</groupindex>
            </link>
          </clipitem>
          <clipitem id="clipitem-779" premiereChannelType="Stereo">
            <masterclipid>masterclip-3</masterclipid>
            <name>2023-03-30 21-15-31艾许决赛圈2V6 8KCC.mp4</name>
            <enabled>TRUE</enabled>
            <rate>
              <timebase>60</timebase>
              <ntsc>FALSE</ntsc>
            </rate>
            <start>15364</start>
            <end>15429</end>
            <in>72138</in>
            <out>72203</out>
            <file id="file-3"/>
            <sourcetrack>
              <mediatype>audio</mediatype>
              <trackindex>1</trackindex>
            </sourcetrack>
            <link>
              <linkclipref>clipitem-778</linkclipref>
              <mediatype>video</mediatype>
              <trackindex>1</trackindex>
              <clipindex>1</clipindex>
            </link>
            <link>
              <linkclipref>clipitem-779</linkclipref>
              <mediatype>audio</mediatype>
              <trackindex>1</trackindex>
              <clipindex>1</clipindex>
              <groupindex>1</groupindex>
            </link>
            <link>
              <linkclipref>clipitem-780</linkclipref>
              <mediatype>audio</mediatype>
              <trackindex>2</trackindex>
              <clipindex>1</clipindex>
              <groupindex>1</groupindex>
            </link>
            <link>
              <linkclipref>clipitem-781</linkclipref>
              <mediatype>audio</mediatype>
              <trackindex>3</trackindex>
              <clipindex>1</clipindex>
              <groupindex>1</groupindex>
            </link>
            <link>
              <linkclipref>clipitem-782</linkclipref>
              <mediatype>audio</mediatype>
              <trackindex>4</trackindex>
              <clipindex>1</clipindex>
              <groupindex>1</groupindex>
            </link>
            <link>
              <linkclipref>clipitem-783</linkclipref>
              <mediatype>audio</mediatype>
              <trackindex>5</trackindex>
              <clipindex>1</clipindex>
              <groupindex>1</groupindex>
            </link>
            <link>
              <linkclipref>clipitem-784</linkclipref>
              <mediatype>audio</mediatype>
              <trackindex>6</trackindex>
              <clipindex>1</clipindex>
              <groupindex>1</groupindex>
            </link>
          </clipitem>
          <clipitem id="clipitem-786" premiereChannelType="Stereo">
            <masterclipid>masterclip-3</masterclipid>
            <name>2023-03-30 21-15-31艾许决赛圈2V6 8KCC.mp4</name>
            <enabled>TRUE</enabled>
            <rate>
              <timebase>60</timebase>
              <ntsc>FALSE</ntsc>
            </rate>
            <start>15429</start>
            <end>15575</end>
            <in>72355</in>
            <out>72501</out>
            <file id="file-3"/>
            <sourcetrack>
              <mediatype>audio</mediatype>
              <trackindex>1</trackindex>
            </sourcetrack>
            <link>
              <linkclipref>clipitem-785</linkclipref>
              <mediatype>video</mediatype>
              <trackindex>1</trackindex>
              <clipindex>1</clipindex>
            </link>
            <link>
              <linkclipref>clipitem-786</linkclipref>
              <mediatype>audio</mediatype>
              <trackindex>1</trackindex>
              <clipindex>1</clipindex>
              <groupindex>1</groupindex>
            </link>
            <link>
              <linkclipref>clipitem-787</linkclipref>
              <mediatype>audio</mediatype>
              <trackindex>2</trackindex>
              <clipindex>1</clipindex>
              <groupindex>1</groupindex>
            </link>
            <link>
              <linkclipref>clipitem-788</linkclipref>
              <mediatype>audio</mediatype>
              <trackindex>3</trackindex>
              <clipindex>1</clipindex>
              <groupindex>1</groupindex>
            </link>
            <link>
              <linkclipref>clipitem-789</linkclipref>
              <mediatype>audio</mediatype>
              <trackindex>4</trackindex>
              <clipindex>1</clipindex>
              <groupindex>1</groupindex>
            </link>
            <link>
              <linkclipref>clipitem-790</linkclipref>
              <mediatype>audio</mediatype>
              <trackindex>5</trackindex>
              <clipindex>1</clipindex>
              <groupindex>1</groupindex>
            </link>
            <link>
              <linkclipref>clipitem-791</linkclipref>
              <mediatype>audio</mediatype>
              <trackindex>6</trackindex>
              <clipindex>1</clipindex>
              <groupindex>1</groupindex>
            </link>
          </clipitem>
          <clipitem id="clipitem-793" premiereChannelType="Stereo">
            <masterclipid>masterclip-3</masterclipid>
            <name>2023-03-30 21-15-31艾许决赛圈2V6 8KCC.mp4</name>
            <enabled>TRUE</enabled>
            <rate>
              <timebase>60</timebase>
              <ntsc>FALSE</ntsc>
            </rate>
            <start>15575</start>
            <end>15661</end>
            <in>72584</in>
            <out>72670</out>
            <file id="file-3"/>
            <sourcetrack>
              <mediatype>audio</mediatype>
              <trackindex>1</trackindex>
            </sourcetrack>
            <link>
              <linkclipref>clipitem-792</linkclipref>
              <mediatype>video</mediatype>
              <trackindex>1</trackindex>
              <clipindex>1</clipindex>
            </link>
            <link>
              <linkclipref>clipitem-793</linkclipref>
              <mediatype>audio</mediatype>
              <trackindex>1</trackindex>
              <clipindex>1</clipindex>
              <groupindex>1</groupindex>
            </link>
            <link>
              <linkclipref>clipitem-794</linkclipref>
              <mediatype>audio</mediatype>
              <trackindex>2</trackindex>
              <clipindex>1</clipindex>
              <groupindex>1</groupindex>
            </link>
            <link>
              <linkclipref>clipitem-795</linkclipref>
              <mediatype>audio</mediatype>
              <trackindex>3</trackindex>
              <clipindex>1</clipindex>
              <groupindex>1</groupindex>
            </link>
            <link>
              <linkclipref>clipitem-796</linkclipref>
              <mediatype>audio</mediatype>
              <trackindex>4</trackindex>
              <clipindex>1</clipindex>
              <groupindex>1</groupindex>
            </link>
            <link>
              <linkclipref>clipitem-797</linkclipref>
              <mediatype>audio</mediatype>
              <trackindex>5</trackindex>
              <clipindex>1</clipindex>
              <groupindex>1</groupindex>
            </link>
            <link>
              <linkclipref>clipitem-798</linkclipref>
              <mediatype>audio</mediatype>
              <trackindex>6</trackindex>
              <clipindex>1</clipindex>
              <groupindex>1</groupindex>
            </link>
          </clipitem>
          <enabled>TRUE</enabled>
          <locked>FALSE</locked>
          <outputchannelindex>1</outputchannelindex>
        </track>
        <track TL.SQTrackAudioKeyframeStyle="0" TL.SQTrackShy="0" TL.SQTrackExpandedHeight="25" TL.SQTrackExpanded="0" MZ.TrackTargeted="1" PannerCurrentValue="0.5" PannerIsInverted="true" PannerStartKeyframe="-91445760000000000,0.5,0,0,0,0,0,0" PannerName="平衡" currentExplodedTrackIndex="1" totalExplodedTrackCount="2" premiereTrackType="Stereo">
          <clipitem id="clipitem-3" premiereChannelType="Stereo">
            <masterclipid>masterclip-1</masterclipid>
            <name>2023-04-01 14-56-52溪神带上钻局CC.mp4</name>
            <enabled>TRUE</enabled>
            <rate>
              <timebase>60</timebase>
              <ntsc>FALSE</ntsc>
            </rate>
            <start>0</start>
            <end>17</end>
            <in>3303</in>
            <out>3320</out>
            <file id="file-1"/>
            <sourcetrack>
              <mediatype>audio</mediatype>
              <trackindex>1</trackindex>
            </sourcetrack>
            <link>
              <linkclipref>clipitem-1</linkclipref>
              <mediatype>video</mediatype>
              <trackindex>1</trackindex>
              <clipindex>1</clipindex>
            </link>
            <link>
              <linkclipref>clipitem-2</linkclipref>
              <mediatype>audio</mediatype>
              <trackindex>1</trackindex>
              <clipindex>1</clipindex>
              <groupindex>1</groupindex>
            </link>
            <link>
              <linkclipref>clipitem-3</linkclipref>
              <mediatype>audio</mediatype>
              <trackindex>2</trackindex>
              <clipindex>1</clipindex>
              <groupindex>1</groupindex>
            </link>
            <link>
              <linkclipref>clipitem-4</linkclipref>
              <mediatype>audio</mediatype>
              <trackindex>3</trackindex>
              <clipindex>1</clipindex>
              <groupindex>1</groupindex>
            </link>
            <link>
              <linkclipref>clipitem-5</linkclipref>
              <mediatype>audio</mediatype>
              <trackindex>4</trackindex>
              <clipindex>1</clipindex>
              <groupindex>1</groupindex>
            </link>
            <link>
              <linkclipref>clipitem-6</linkclipref>
              <mediatype>audio</mediatype>
              <trackindex>5</trackindex>
              <clipindex>1</clipindex>
              <groupindex>1</groupindex>
            </link>
            <link>
              <linkclipref>clipitem-7</linkclipref>
              <mediatype>audio</mediatype>
              <trackindex>6</trackindex>
              <clipindex>1</clipindex>
              <groupindex>1</groupindex>
            </link>
          </clipitem>
          <clipitem id="clipitem-10" premiereChannelType="Stereo">
            <masterclipid>masterclip-1</masterclipid>
            <name>2023-04-01 14-56-52溪神带上钻局CC.mp4</name>
            <enabled>TRUE</enabled>
            <rate>
              <timebase>60</timebase>
              <ntsc>FALSE</ntsc>
            </rate>
            <start>17</start>
            <end>27</end>
            <in>6094</in>
            <out>6104</out>
            <file id="file-1"/>
            <sourcetrack>
              <mediatype>audio</mediatype>
              <trackindex>1</trackindex>
            </sourcetrack>
            <link>
              <linkclipref>clipitem-8</linkclipref>
              <mediatype>video</mediatype>
              <trackindex>1</trackindex>
              <clipindex>1</clipindex>
            </link>
            <link>
              <linkclipref>clipitem-9</linkclipref>
              <mediatype>audio</mediatype>
              <trackindex>1</trackindex>
              <clipindex>1</clipindex>
              <groupindex>1</groupindex>
            </link>
            <link>
              <linkclipref>clipitem-10</linkclipref>
              <mediatype>audio</mediatype>
              <trackindex>2</trackindex>
              <clipindex>1</clipindex>
              <groupindex>1</groupindex>
            </link>
            <link>
              <linkclipref>clipitem-11</linkclipref>
              <mediatype>audio</mediatype>
              <trackindex>3</trackindex>
              <clipindex>1</clipindex>
              <groupindex>1</groupindex>
            </link>
            <link>
              <linkclipref>clipitem-12</linkclipref>
              <mediatype>audio</mediatype>
              <trackindex>4</trackindex>
              <clipindex>1</clipindex>
              <groupindex>1</groupindex>
            </link>
            <link>
              <linkclipref>clipitem-13</linkclipref>
              <mediatype>audio</mediatype>
              <trackindex>5</trackindex>
              <clipindex>1</clipindex>
              <groupindex>1</groupindex>
            </link>
            <link>
              <linkclipref>clipitem-14</linkclipref>
              <mediatype>audio</mediatype>
              <trackindex>6</trackindex>
              <clipindex>1</clipindex>
              <groupindex>1</groupindex>
            </link>
          </clipitem>
          <clipitem id="clipitem-17" premiereChannelType="Stereo">
            <masterclipid>masterclip-1</masterclipid>
            <name>2023-04-01 14-56-52溪神带上钻局CC.mp4</name>
            <enabled>TRUE</enabled>
            <rate>
              <timebase>60</timebase>
              <ntsc>FALSE</ntsc>
            </rate>
            <start>27</start>
            <end>38</end>
            <in>6096</in>
            <out>6107</out>
            <file id="file-1"/>
            <sourcetrack>
              <mediatype>audio</mediatype>
              <trackindex>1</trackindex>
            </sourcetrack>
            <link>
              <linkclipref>clipitem-15</linkclipref>
              <mediatype>video</mediatype>
              <trackindex>1</trackindex>
              <clipindex>1</clipindex>
            </link>
            <link>
              <linkclipref>clipitem-16</linkclipref>
              <mediatype>audio</mediatype>
              <trackindex>1</trackindex>
              <clipindex>1</clipindex>
              <groupindex>1</groupindex>
            </link>
            <link>
              <linkclipref>clipitem-17</linkclipref>
              <mediatype>audio</mediatype>
              <trackindex>2</trackindex>
              <clipindex>1</clipindex>
              <groupindex>1</groupindex>
            </link>
            <link>
              <linkclipref>clipitem-18</linkclipref>
              <mediatype>audio</mediatype>
              <trackindex>3</trackindex>
              <clipindex>1</clipindex>
              <groupindex>1</groupindex>
            </link>
            <link>
              <linkclipref>clipitem-19</linkclipref>
              <mediatype>audio</mediatype>
              <trackindex>4</trackindex>
              <clipindex>1</clipindex>
              <groupindex>1</groupindex>
            </link>
            <link>
              <linkclipref>clipitem-20</linkclipref>
              <mediatype>audio</mediatype>
              <trackindex>5</trackindex>
              <clipindex>1</clipindex>
              <groupindex>1</groupindex>
            </link>
            <link>
              <linkclipref>clipitem-21</linkclipref>
              <mediatype>audio</mediatype>
              <trackindex>6</trackindex>
              <clipindex>1</clipindex>
              <groupindex>1</groupindex>
            </link>
          </clipitem>
          <clipitem id="clipitem-24" premiereChannelType="Stereo">
            <masterclipid>masterclip-1</masterclipid>
            <name>2023-04-01 14-56-52溪神带上钻局CC.mp4</name>
            <enabled>TRUE</enabled>
            <rate>
              <timebase>60</timebase>
              <ntsc>FALSE</ntsc>
            </rate>
            <start>38</start>
            <end>174</end>
            <in>15816</in>
            <out>15952</out>
            <file id="file-1"/>
            <sourcetrack>
              <mediatype>audio</mediatype>
              <trackindex>1</trackindex>
            </sourcetrack>
            <link>
              <linkclipref>clipitem-22</linkclipref>
              <mediatype>video</mediatype>
              <trackindex>1</trackindex>
              <clipindex>1</clipindex>
            </link>
            <link>
              <linkclipref>clipitem-23</linkclipref>
              <mediatype>audio</mediatype>
              <trackindex>1</trackindex>
              <clipindex>1</clipindex>
              <groupindex>1</groupindex>
            </link>
            <link>
              <linkclipref>clipitem-24</linkclipref>
              <mediatype>audio</mediatype>
              <trackindex>2</trackindex>
              <clipindex>1</clipindex>
              <groupindex>1</groupindex>
            </link>
            <link>
              <linkclipref>clipitem-25</linkclipref>
              <mediatype>audio</mediatype>
              <trackindex>3</trackindex>
              <clipindex>1</clipindex>
              <groupindex>1</groupindex>
            </link>
            <link>
              <linkclipref>clipitem-26</linkclipref>
              <mediatype>audio</mediatype>
              <trackindex>4</trackindex>
              <clipindex>1</clipindex>
              <groupindex>1</groupindex>
            </link>
            <link>
              <linkclipref>clipitem-27</linkclipref>
              <mediatype>audio</mediatype>
              <trackindex>5</trackindex>
              <clipindex>1</clipindex>
              <groupindex>1</groupindex>
            </link>
            <link>
              <linkclipref>clipitem-28</linkclipref>
              <mediatype>audio</mediatype>
              <trackindex>6</trackindex>
              <clipindex>1</clipindex>
              <groupindex>1</groupindex>
            </link>
          </clipitem>
          <clipitem id="clipitem-31" premiereChannelType="Stereo">
            <masterclipid>masterclip-1</masterclipid>
            <name>2023-04-01 14-56-52溪神带上钻局CC.mp4</name>
            <enabled>TRUE</enabled>
            <rate>
              <timebase>60</timebase>
              <ntsc>FALSE</ntsc>
            </rate>
            <start>174</start>
            <end>347</end>
            <in>15978</in>
            <out>16151</out>
            <file id="file-1"/>
            <sourcetrack>
              <mediatype>audio</mediatype>
              <trackindex>1</trackindex>
            </sourcetrack>
            <link>
              <linkclipref>clipitem-29</linkclipref>
              <mediatype>video</mediatype>
              <trackindex>1</trackindex>
              <clipindex>1</clipindex>
            </link>
            <link>
              <linkclipref>clipitem-30</linkclipref>
              <mediatype>audio</mediatype>
              <trackindex>1</trackindex>
              <clipindex>1</clipindex>
              <groupindex>1</groupindex>
            </link>
            <link>
              <linkclipref>clipitem-31</linkclipref>
              <mediatype>audio</mediatype>
              <trackindex>2</trackindex>
              <clipindex>1</clipindex>
              <groupindex>1</groupindex>
            </link>
            <link>
              <linkclipref>clipitem-32</linkclipref>
              <mediatype>audio</mediatype>
              <trackindex>3</trackindex>
              <clipindex>1</clipindex>
              <groupindex>1</groupindex>
            </link>
            <link>
              <linkclipref>clipitem-33</linkclipref>
              <mediatype>audio</mediatype>
              <trackindex>4</trackindex>
              <clipindex>1</clipindex>
              <groupindex>1</groupindex>
            </link>
            <link>
              <linkclipref>clipitem-34</linkclipref>
              <mediatype>audio</mediatype>
              <trackindex>5</trackindex>
              <clipindex>1</clipindex>
              <groupindex>1</groupindex>
            </link>
            <link>
              <linkclipref>clipitem-35</linkclipref>
              <mediatype>audio</mediatype>
              <trackindex>6</trackindex>
              <clipindex>1</clipindex>
              <groupindex>1</groupindex>
            </link>
          </clipitem>
          <clipitem id="clipitem-38" premiereChannelType="Stereo">
            <masterclipid>masterclip-1</masterclipid>
            <name>2023-04-01 14-56-52溪神带上钻局CC.mp4</name>
            <enabled>TRUE</enabled>
            <rate>
              <timebase>60</timebase>
              <ntsc>FALSE</ntsc>
            </rate>
            <start>347</start>
            <end>454</end>
            <in>16564</in>
            <out>16671</out>
            <file id="file-1"/>
            <sourcetrack>
              <mediatype>audio</mediatype>
              <trackindex>1</trackindex>
            </sourcetrack>
            <link>
              <linkclipref>clipitem-36</linkclipref>
              <mediatype>video</mediatype>
              <trackindex>1</trackindex>
              <clipindex>1</clipindex>
            </link>
            <link>
              <linkclipref>clipitem-37</linkclipref>
              <mediatype>audio</mediatype>
              <trackindex>1</trackindex>
              <clipindex>1</clipindex>
              <groupindex>1</groupindex>
            </link>
            <link>
              <linkclipref>clipitem-38</linkclipref>
              <mediatype>audio</mediatype>
              <trackindex>2</trackindex>
              <clipindex>1</clipindex>
              <groupindex>1</groupindex>
            </link>
            <link>
              <linkclipref>clipitem-39</linkclipref>
              <mediatype>audio</mediatype>
              <trackindex>3</trackindex>
              <clipindex>1</clipindex>
              <groupindex>1</groupindex>
            </link>
            <link>
              <linkclipref>clipitem-40</linkclipref>
              <mediatype>audio</mediatype>
              <trackindex>4</trackindex>
              <clipindex>1</clipindex>
              <groupindex>1</groupindex>
            </link>
            <link>
              <linkclipref>clipitem-41</linkclipref>
              <mediatype>audio</mediatype>
              <trackindex>5</trackindex>
              <clipindex>1</clipindex>
              <groupindex>1</groupindex>
            </link>
            <link>
              <linkclipref>clipitem-42</linkclipref>
              <mediatype>audio</mediatype>
              <trackindex>6</trackindex>
              <clipindex>1</clipindex>
              <groupindex>1</groupindex>
            </link>
          </clipitem>
          <clipitem id="clipitem-45" premiereChannelType="Stereo">
            <masterclipid>masterclip-1</masterclipid>
            <name>2023-04-01 14-56-52溪神带上钻局CC.mp4</name>
            <enabled>TRUE</enabled>
            <rate>
              <timebase>60</timebase>
              <ntsc>FALSE</ntsc>
            </rate>
            <start>454</start>
            <end>572</end>
            <in>17900</in>
            <out>18018</out>
            <file id="file-1"/>
            <sourcetrack>
              <mediatype>audio</mediatype>
              <trackindex>1</trackindex>
            </sourcetrack>
            <link>
              <linkclipref>clipitem-43</linkclipref>
              <mediatype>video</mediatype>
              <trackindex>1</trackindex>
              <clipindex>1</clipindex>
            </link>
            <link>
              <linkclipref>clipitem-44</linkclipref>
              <mediatype>audio</mediatype>
              <trackindex>1</trackindex>
              <clipindex>1</clipindex>
              <groupindex>1</groupindex>
            </link>
            <link>
              <linkclipref>clipitem-45</linkclipref>
              <mediatype>audio</mediatype>
              <trackindex>2</trackindex>
              <clipindex>1</clipindex>
              <groupindex>1</groupindex>
            </link>
            <link>
              <linkclipref>clipitem-46</linkclipref>
              <mediatype>audio</mediatype>
              <trackindex>3</trackindex>
              <clipindex>1</clipindex>
              <groupindex>1</groupindex>
            </link>
            <link>
              <linkclipref>clipitem-47</linkclipref>
              <mediatype>audio</mediatype>
              <trackindex>4</trackindex>
              <clipindex>1</clipindex>
              <groupindex>1</groupindex>
            </link>
            <link>
              <linkclipref>clipitem-48</linkclipref>
              <mediatype>audio</mediatype>
              <trackindex>5</trackindex>
              <clipindex>1</clipindex>
              <groupindex>1</groupindex>
            </link>
            <link>
              <linkclipref>clipitem-49</linkclipref>
              <mediatype>audio</mediatype>
              <trackindex>6</trackindex>
              <clipindex>1</clipindex>
              <groupindex>1</groupindex>
            </link>
          </clipitem>
          <clipitem id="clipitem-52" premiereChannelType="Stereo">
            <masterclipid>masterclip-1</masterclipid>
            <name>2023-04-01 14-56-52溪神带上钻局CC.mp4</name>
            <enabled>TRUE</enabled>
            <rate>
              <timebase>60</timebase>
              <ntsc>FALSE</ntsc>
            </rate>
            <start>572</start>
            <end>727</end>
            <in>20147</in>
            <out>20302</out>
            <file id="file-1"/>
            <sourcetrack>
              <mediatype>audio</mediatype>
              <trackindex>1</trackindex>
            </sourcetrack>
            <link>
              <linkclipref>clipitem-50</linkclipref>
              <mediatype>video</mediatype>
              <trackindex>1</trackindex>
              <clipindex>1</clipindex>
            </link>
            <link>
              <linkclipref>clipitem-51</linkclipref>
              <mediatype>audio</mediatype>
              <trackindex>1</trackindex>
              <clipindex>1</clipindex>
              <groupindex>1</groupindex>
            </link>
            <link>
              <linkclipref>clipitem-52</linkclipref>
              <mediatype>audio</mediatype>
              <trackindex>2</trackindex>
              <clipindex>1</clipindex>
              <groupindex>1</groupindex>
            </link>
            <link>
              <linkclipref>clipitem-53</linkclipref>
              <mediatype>audio</mediatype>
              <trackindex>3</trackindex>
              <clipindex>1</clipindex>
              <groupindex>1</groupindex>
            </link>
            <link>
              <linkclipref>clipitem-54</linkclipref>
              <mediatype>audio</mediatype>
              <trackindex>4</trackindex>
              <clipindex>1</clipindex>
              <groupindex>1</groupindex>
            </link>
            <link>
              <linkclipref>clipitem-55</linkclipref>
              <mediatype>audio</mediatype>
              <trackindex>5</trackindex>
              <clipindex>1</clipindex>
              <groupindex>1</groupindex>
            </link>
            <link>
              <linkclipref>clipitem-56</linkclipref>
              <mediatype>audio</mediatype>
              <trackindex>6</trackindex>
              <clipindex>1</clipindex>
              <groupindex>1</groupindex>
            </link>
          </clipitem>
          <clipitem id="clipitem-59" premiereChannelType="Stereo">
            <masterclipid>masterclip-1</masterclipid>
            <name>2023-04-01 14-56-52溪神带上钻局CC.mp4</name>
            <enabled>TRUE</enabled>
            <rate>
              <timebase>60</timebase>
              <ntsc>FALSE</ntsc>
            </rate>
            <start>727</start>
            <end>875</end>
            <in>21756</in>
            <out>21904</out>
            <file id="file-1"/>
            <sourcetrack>
              <mediatype>audio</mediatype>
              <trackindex>1</trackindex>
            </sourcetrack>
            <link>
              <linkclipref>clipitem-57</linkclipref>
              <mediatype>video</mediatype>
              <trackindex>1</trackindex>
              <clipindex>1</clipindex>
            </link>
            <link>
              <linkclipref>clipitem-58</linkclipref>
              <mediatype>audio</mediatype>
              <trackindex>1</trackindex>
              <clipindex>1</clipindex>
              <groupindex>1</groupindex>
            </link>
            <link>
              <linkclipref>clipitem-59</linkclipref>
              <mediatype>audio</mediatype>
              <trackindex>2</trackindex>
              <clipindex>1</clipindex>
              <groupindex>1</groupindex>
            </link>
            <link>
              <linkclipref>clipitem-60</linkclipref>
              <mediatype>audio</mediatype>
              <trackindex>3</trackindex>
              <clipindex>1</clipindex>
              <groupindex>1</groupindex>
            </link>
            <link>
              <linkclipref>clipitem-61</linkclipref>
              <mediatype>audio</mediatype>
              <trackindex>4</trackindex>
              <clipindex>1</clipindex>
              <groupindex>1</groupindex>
            </link>
            <link>
              <linkclipref>clipitem-62</linkclipref>
              <mediatype>audio</mediatype>
              <trackindex>5</trackindex>
              <clipindex>1</clipindex>
              <groupindex>1</groupindex>
            </link>
            <link>
              <linkclipref>clipitem-63</linkclipref>
              <mediatype>audio</mediatype>
              <trackindex>6</trackindex>
              <clipindex>1</clipindex>
              <groupindex>1</groupindex>
            </link>
          </clipitem>
          <clipitem id="clipitem-66" premiereChannelType="Stereo">
            <masterclipid>masterclip-1</masterclipid>
            <name>2023-04-01 14-56-52溪神带上钻局CC.mp4</name>
            <enabled>TRUE</enabled>
            <rate>
              <timebase>60</timebase>
              <ntsc>FALSE</ntsc>
            </rate>
            <start>875</start>
            <end>1011</end>
            <in>22231</in>
            <out>22367</out>
            <file id="file-1"/>
            <sourcetrack>
              <mediatype>audio</mediatype>
              <trackindex>1</trackindex>
            </sourcetrack>
            <link>
              <linkclipref>clipitem-64</linkclipref>
              <mediatype>video</mediatype>
              <trackindex>1</trackindex>
              <clipindex>1</clipindex>
            </link>
            <link>
              <linkclipref>clipitem-65</linkclipref>
              <mediatype>audio</mediatype>
              <trackindex>1</trackindex>
              <clipindex>1</clipindex>
              <groupindex>1</groupindex>
            </link>
            <link>
              <linkclipref>clipitem-66</linkclipref>
              <mediatype>audio</mediatype>
              <trackindex>2</trackindex>
              <clipindex>1</clipindex>
              <groupindex>1</groupindex>
            </link>
            <link>
              <linkclipref>clipitem-67</linkclipref>
              <mediatype>audio</mediatype>
              <trackindex>3</trackindex>
              <clipindex>1</clipindex>
              <groupindex>1</groupindex>
            </link>
            <link>
              <linkclipref>clipitem-68</linkclipref>
              <mediatype>audio</mediatype>
              <trackindex>4</trackindex>
              <clipindex>1</clipindex>
              <groupindex>1</groupindex>
            </link>
            <link>
              <linkclipref>clipitem-69</linkclipref>
              <mediatype>audio</mediatype>
              <trackindex>5</trackindex>
              <clipindex>1</clipindex>
              <groupindex>1</groupindex>
            </link>
            <link>
              <linkclipref>clipitem-70</linkclipref>
              <mediatype>audio</mediatype>
              <trackindex>6</trackindex>
              <clipindex>1</clipindex>
              <groupindex>1</groupindex>
            </link>
          </clipitem>
          <clipitem id="clipitem-73" premiereChannelType="Stereo">
            <masterclipid>masterclip-1</masterclipid>
            <name>2023-04-01 14-56-52溪神带上钻局CC.mp4</name>
            <enabled>TRUE</enabled>
            <rate>
              <timebase>60</timebase>
              <ntsc>FALSE</ntsc>
            </rate>
            <start>1011</start>
            <end>1086</end>
            <in>22676</in>
            <out>22751</out>
            <file id="file-1"/>
            <sourcetrack>
              <mediatype>audio</mediatype>
              <trackindex>1</trackindex>
            </sourcetrack>
            <link>
              <linkclipref>clipitem-71</linkclipref>
              <mediatype>video</mediatype>
              <trackindex>1</trackindex>
              <clipindex>1</clipindex>
            </link>
            <link>
              <linkclipref>clipitem-72</linkclipref>
              <mediatype>audio</mediatype>
              <trackindex>1</trackindex>
              <clipindex>1</clipindex>
              <groupindex>1</groupindex>
            </link>
            <link>
              <linkclipref>clipitem-73</linkclipref>
              <mediatype>audio</mediatype>
              <trackindex>2</trackindex>
              <clipindex>1</clipindex>
              <groupindex>1</groupindex>
            </link>
            <link>
              <linkclipref>clipitem-74</linkclipref>
              <mediatype>audio</mediatype>
              <trackindex>3</trackindex>
              <clipindex>1</clipindex>
              <groupindex>1</groupindex>
            </link>
            <link>
              <linkclipref>clipitem-75</linkclipref>
              <mediatype>audio</mediatype>
              <trackindex>4</trackindex>
              <clipindex>1</clipindex>
              <groupindex>1</groupindex>
            </link>
            <link>
              <linkclipref>clipitem-76</linkclipref>
              <mediatype>audio</mediatype>
              <trackindex>5</trackindex>
              <clipindex>1</clipindex>
              <groupindex>1</groupindex>
            </link>
            <link>
              <linkclipref>clipitem-77</linkclipref>
              <mediatype>audio</mediatype>
              <trackindex>6</trackindex>
              <clipindex>1</clipindex>
              <groupindex>1</groupindex>
            </link>
          </clipitem>
          <clipitem id="clipitem-80" premiereChannelType="Stereo">
            <masterclipid>masterclip-1</masterclipid>
            <name>2023-04-01 14-56-52溪神带上钻局CC.mp4</name>
            <enabled>TRUE</enabled>
            <rate>
              <timebase>60</timebase>
              <ntsc>FALSE</ntsc>
            </rate>
            <start>1086</start>
            <end>1222</end>
            <in>23095</in>
            <out>23231</out>
            <file id="file-1"/>
            <sourcetrack>
              <mediatype>audio</mediatype>
              <trackindex>1</trackindex>
            </sourcetrack>
            <link>
              <linkclipref>clipitem-78</linkclipref>
              <mediatype>video</mediatype>
              <trackindex>1</trackindex>
              <clipindex>1</clipindex>
            </link>
            <link>
              <linkclipref>clipitem-79</linkclipref>
              <mediatype>audio</mediatype>
              <trackindex>1</trackindex>
              <clipindex>1</clipindex>
              <groupindex>1</groupindex>
            </link>
            <link>
              <linkclipref>clipitem-80</linkclipref>
              <mediatype>audio</mediatype>
              <trackindex>2</trackindex>
              <clipindex>1</clipindex>
              <groupindex>1</groupindex>
            </link>
            <link>
              <linkclipref>clipitem-81</linkclipref>
              <mediatype>audio</mediatype>
              <trackindex>3</trackindex>
              <clipindex>1</clipindex>
              <groupindex>1</groupindex>
            </link>
            <link>
              <linkclipref>clipitem-82</linkclipref>
              <mediatype>audio</mediatype>
              <trackindex>4</trackindex>
              <clipindex>1</clipindex>
              <groupindex>1</groupindex>
            </link>
            <link>
              <linkclipref>clipitem-83</linkclipref>
              <mediatype>audio</mediatype>
              <trackindex>5</trackindex>
              <clipindex>1</clipindex>
              <groupindex>1</groupindex>
            </link>
            <link>
              <linkclipref>clipitem-84</linkclipref>
              <mediatype>audio</mediatype>
              <trackindex>6</trackindex>
              <clipindex>1</clipindex>
              <groupindex>1</groupindex>
            </link>
          </clipitem>
          <clipitem id="clipitem-87" premiereChannelType="Stereo">
            <masterclipid>masterclip-1</masterclipid>
            <name>2023-04-01 14-56-52溪神带上钻局CC.mp4</name>
            <enabled>TRUE</enabled>
            <rate>
              <timebase>60</timebase>
              <ntsc>FALSE</ntsc>
            </rate>
            <start>1222</start>
            <end>1377</end>
            <in>23363</in>
            <out>23518</out>
            <file id="file-1"/>
            <sourcetrack>
              <mediatype>audio</mediatype>
              <trackindex>1</trackindex>
            </sourcetrack>
            <link>
              <linkclipref>clipitem-85</linkclipref>
              <mediatype>video</mediatype>
              <trackindex>1</trackindex>
              <clipindex>1</clipindex>
            </link>
            <link>
              <linkclipref>clipitem-86</linkclipref>
              <mediatype>audio</mediatype>
              <trackindex>1</trackindex>
              <clipindex>1</clipindex>
              <groupindex>1</groupindex>
            </link>
            <link>
              <linkclipref>clipitem-87</linkclipref>
              <mediatype>audio</mediatype>
              <trackindex>2</trackindex>
              <clipindex>1</clipindex>
              <groupindex>1</groupindex>
            </link>
            <link>
              <linkclipref>clipitem-88</linkclipref>
              <mediatype>audio</mediatype>
              <trackindex>3</trackindex>
              <clipindex>1</clipindex>
              <groupindex>1</groupindex>
            </link>
            <link>
              <linkclipref>clipitem-89</linkclipref>
              <mediatype>audio</mediatype>
              <trackindex>4</trackindex>
              <clipindex>1</clipindex>
              <groupindex>1</groupindex>
            </link>
            <link>
              <linkclipref>clipitem-90</linkclipref>
              <mediatype>audio</mediatype>
              <trackindex>5</trackindex>
              <clipindex>1</clipindex>
              <groupindex>1</groupindex>
            </link>
            <link>
              <linkclipref>clipitem-91</linkclipref>
              <mediatype>audio</mediatype>
              <trackindex>6</trackindex>
              <clipindex>1</clipindex>
              <groupindex>1</groupindex>
            </link>
          </clipitem>
          <clipitem id="clipitem-94" premiereChannelType="Stereo">
            <masterclipid>masterclip-1</masterclipid>
            <name>2023-04-01 14-56-52溪神带上钻局CC.mp4</name>
            <enabled>TRUE</enabled>
            <rate>
              <timebase>60</timebase>
              <ntsc>FALSE</ntsc>
            </rate>
            <start>1377</start>
            <end>1585</end>
            <in>23972</in>
            <out>24180</out>
            <file id="file-1"/>
            <sourcetrack>
              <mediatype>audio</mediatype>
              <trackindex>1</trackindex>
            </sourcetrack>
            <link>
              <linkclipref>clipitem-92</linkclipref>
              <mediatype>video</mediatype>
              <trackindex>1</trackindex>
              <clipindex>1</clipindex>
            </link>
            <link>
              <linkclipref>clipitem-93</linkclipref>
              <mediatype>audio</mediatype>
              <trackindex>1</trackindex>
              <clipindex>1</clipindex>
              <groupindex>1</groupindex>
            </link>
            <link>
              <linkclipref>clipitem-94</linkclipref>
              <mediatype>audio</mediatype>
              <trackindex>2</trackindex>
              <clipindex>1</clipindex>
              <groupindex>1</groupindex>
            </link>
            <link>
              <linkclipref>clipitem-95</linkclipref>
              <mediatype>audio</mediatype>
              <trackindex>3</trackindex>
              <clipindex>1</clipindex>
              <groupindex>1</groupindex>
            </link>
            <link>
              <linkclipref>clipitem-96</linkclipref>
              <mediatype>audio</mediatype>
              <trackindex>4</trackindex>
              <clipindex>1</clipindex>
              <groupindex>1</groupindex>
            </link>
            <link>
              <linkclipref>clipitem-97</linkclipref>
              <mediatype>audio</mediatype>
              <trackindex>5</trackindex>
              <clipindex>1</clipindex>
              <groupindex>1</groupindex>
            </link>
            <link>
              <linkclipref>clipitem-98</linkclipref>
              <mediatype>audio</mediatype>
              <trackindex>6</trackindex>
              <clipindex>1</clipindex>
              <groupindex>1</groupindex>
            </link>
          </clipitem>
          <clipitem id="clipitem-101" premiereChannelType="Stereo">
            <masterclipid>masterclip-1</masterclipid>
            <name>2023-04-01 14-56-52溪神带上钻局CC.mp4</name>
            <enabled>TRUE</enabled>
            <rate>
              <timebase>60</timebase>
              <ntsc>FALSE</ntsc>
            </rate>
            <start>1585</start>
            <end>1746</end>
            <in>27845</in>
            <out>28006</out>
            <file id="file-1"/>
            <sourcetrack>
              <mediatype>audio</mediatype>
              <trackindex>1</trackindex>
            </sourcetrack>
            <link>
              <linkclipref>clipitem-99</linkclipref>
              <mediatype>video</mediatype>
              <trackindex>1</trackindex>
              <clipindex>1</clipindex>
            </link>
            <link>
              <linkclipref>clipitem-100</linkclipref>
              <mediatype>audio</mediatype>
              <trackindex>1</trackindex>
              <clipindex>1</clipindex>
              <groupindex>1</groupindex>
            </link>
            <link>
              <linkclipref>clipitem-101</linkclipref>
              <mediatype>audio</mediatype>
              <trackindex>2</trackindex>
              <clipindex>1</clipindex>
              <groupindex>1</groupindex>
            </link>
            <link>
              <linkclipref>clipitem-102</linkclipref>
              <mediatype>audio</mediatype>
              <trackindex>3</trackindex>
              <clipindex>1</clipindex>
              <groupindex>1</groupindex>
            </link>
            <link>
              <linkclipref>clipitem-103</linkclipref>
              <mediatype>audio</mediatype>
              <trackindex>4</trackindex>
              <clipindex>1</clipindex>
              <groupindex>1</groupindex>
            </link>
            <link>
              <linkclipref>clipitem-104</linkclipref>
              <mediatype>audio</mediatype>
              <trackindex>5</trackindex>
              <clipindex>1</clipindex>
              <groupindex>1</groupindex>
            </link>
            <link>
              <linkclipref>clipitem-105</linkclipref>
              <mediatype>audio</mediatype>
              <trackindex>6</trackindex>
              <clipindex>1</clipindex>
              <groupindex>1</groupindex>
            </link>
          </clipitem>
          <clipitem id="clipitem-108" premiereChannelType="Stereo">
            <masterclipid>masterclip-1</masterclipid>
            <name>2023-04-01 14-56-52溪神带上钻局CC.mp4</name>
            <enabled>TRUE</enabled>
            <rate>
              <timebase>60</timebase>
              <ntsc>FALSE</ntsc>
            </rate>
            <start>1746</start>
            <end>1825</end>
            <in>28363</in>
            <out>28442</out>
            <file id="file-1"/>
            <sourcetrack>
              <mediatype>audio</mediatype>
              <trackindex>1</trackindex>
            </sourcetrack>
            <link>
              <linkclipref>clipitem-106</linkclipref>
              <mediatype>video</mediatype>
              <trackindex>1</trackindex>
              <clipindex>1</clipindex>
            </link>
            <link>
              <linkclipref>clipitem-107</linkclipref>
              <mediatype>audio</mediatype>
              <trackindex>1</trackindex>
              <clipindex>1</clipindex>
              <groupindex>1</groupindex>
            </link>
            <link>
              <linkclipref>clipitem-108</linkclipref>
              <mediatype>audio</mediatype>
              <trackindex>2</trackindex>
              <clipindex>1</clipindex>
              <groupindex>1</groupindex>
            </link>
            <link>
              <linkclipref>clipitem-109</linkclipref>
              <mediatype>audio</mediatype>
              <trackindex>3</trackindex>
              <clipindex>1</clipindex>
              <groupindex>1</groupindex>
            </link>
            <link>
              <linkclipref>clipitem-110</linkclipref>
              <mediatype>audio</mediatype>
              <trackindex>4</trackindex>
              <clipindex>1</clipindex>
              <groupindex>1</groupindex>
            </link>
            <link>
              <linkclipref>clipitem-111</linkclipref>
              <mediatype>audio</mediatype>
              <trackindex>5</trackindex>
              <clipindex>1</clipindex>
              <groupindex>1</groupindex>
            </link>
            <link>
              <linkclipref>clipitem-112</linkclipref>
              <mediatype>audio</mediatype>
              <trackindex>6</trackindex>
              <clipindex>1</clipindex>
              <groupindex>1</groupindex>
            </link>
          </clipitem>
          <clipitem id="clipitem-115" premiereChannelType="Stereo">
            <masterclipid>masterclip-1</masterclipid>
            <name>2023-04-01 14-56-52溪神带上钻局CC.mp4</name>
            <enabled>TRUE</enabled>
            <rate>
              <timebase>60</timebase>
              <ntsc>FALSE</ntsc>
            </rate>
            <start>1825</start>
            <end>2005</end>
            <in>29080</in>
            <out>29260</out>
            <file id="file-1"/>
            <sourcetrack>
              <mediatype>audio</mediatype>
              <trackindex>1</trackindex>
            </sourcetrack>
            <link>
              <linkclipref>clipitem-113</linkclipref>
              <mediatype>video</mediatype>
              <trackindex>1</trackindex>
              <clipindex>1</clipindex>
            </link>
            <link>
              <linkclipref>clipitem-114</linkclipref>
              <mediatype>audio</mediatype>
              <trackindex>1</trackindex>
              <clipindex>1</clipindex>
              <groupindex>1</groupindex>
            </link>
            <link>
              <linkclipref>clipitem-115</linkclipref>
              <mediatype>audio</mediatype>
              <trackindex>2</trackindex>
              <clipindex>1</clipindex>
              <groupindex>1</groupindex>
            </link>
            <link>
              <linkclipref>clipitem-116</linkclipref>
              <mediatype>audio</mediatype>
              <trackindex>3</trackindex>
              <clipindex>1</clipindex>
              <groupindex>1</groupindex>
            </link>
            <link>
              <linkclipref>clipitem-117</linkclipref>
              <mediatype>audio</mediatype>
              <trackindex>4</trackindex>
              <clipindex>1</clipindex>
              <groupindex>1</groupindex>
            </link>
            <link>
              <linkclipref>clipitem-118</linkclipref>
              <mediatype>audio</mediatype>
              <trackindex>5</trackindex>
              <clipindex>1</clipindex>
              <groupindex>1</groupindex>
            </link>
            <link>
              <linkclipref>clipitem-119</linkclipref>
              <mediatype>audio</mediatype>
              <trackindex>6</trackindex>
              <clipindex>1</clipindex>
              <groupindex>1</groupindex>
            </link>
          </clipitem>
          <clipitem id="clipitem-122" premiereChannelType="Stereo">
            <masterclipid>masterclip-1</masterclipid>
            <name>2023-04-01 14-56-52溪神带上钻局CC.mp4</name>
            <enabled>TRUE</enabled>
            <rate>
              <timebase>60</timebase>
              <ntsc>FALSE</ntsc>
            </rate>
            <start>2005</start>
            <end>2023</end>
            <in>29971</in>
            <out>29989</out>
            <file id="file-1"/>
            <sourcetrack>
              <mediatype>audio</mediatype>
              <trackindex>1</trackindex>
            </sourcetrack>
            <link>
              <linkclipref>clipitem-120</linkclipref>
              <mediatype>video</mediatype>
              <trackindex>1</trackindex>
              <clipindex>1</clipindex>
            </link>
            <link>
              <linkclipref>clipitem-121</linkclipref>
              <mediatype>audio</mediatype>
              <trackindex>1</trackindex>
              <clipindex>1</clipindex>
              <groupindex>1</groupindex>
            </link>
            <link>
              <linkclipref>clipitem-122</linkclipref>
              <mediatype>audio</mediatype>
              <trackindex>2</trackindex>
              <clipindex>1</clipindex>
              <groupindex>1</groupindex>
            </link>
            <link>
              <linkclipref>clipitem-123</linkclipref>
              <mediatype>audio</mediatype>
              <trackindex>3</trackindex>
              <clipindex>1</clipindex>
              <groupindex>1</groupindex>
            </link>
            <link>
              <linkclipref>clipitem-124</linkclipref>
              <mediatype>audio</mediatype>
              <trackindex>4</trackindex>
              <clipindex>1</clipindex>
              <groupindex>1</groupindex>
            </link>
            <link>
              <linkclipref>clipitem-125</linkclipref>
              <mediatype>audio</mediatype>
              <trackindex>5</trackindex>
              <clipindex>1</clipindex>
              <groupindex>1</groupindex>
            </link>
            <link>
              <linkclipref>clipitem-126</linkclipref>
              <mediatype>audio</mediatype>
              <trackindex>6</trackindex>
              <clipindex>1</clipindex>
              <groupindex>1</groupindex>
            </link>
          </clipitem>
          <clipitem id="clipitem-129" premiereChannelType="Stereo">
            <masterclipid>masterclip-1</masterclipid>
            <name>2023-04-01 14-56-52溪神带上钻局CC.mp4</name>
            <enabled>TRUE</enabled>
            <rate>
              <timebase>60</timebase>
              <ntsc>FALSE</ntsc>
            </rate>
            <start>2023</start>
            <end>2100</end>
            <in>30064</in>
            <out>30141</out>
            <file id="file-1"/>
            <sourcetrack>
              <mediatype>audio</mediatype>
              <trackindex>1</trackindex>
            </sourcetrack>
            <link>
              <linkclipref>clipitem-127</linkclipref>
              <mediatype>video</mediatype>
              <trackindex>1</trackindex>
              <clipindex>1</clipindex>
            </link>
            <link>
              <linkclipref>clipitem-128</linkclipref>
              <mediatype>audio</mediatype>
              <trackindex>1</trackindex>
              <clipindex>1</clipindex>
              <groupindex>1</groupindex>
            </link>
            <link>
              <linkclipref>clipitem-129</linkclipref>
              <mediatype>audio</mediatype>
              <trackindex>2</trackindex>
              <clipindex>1</clipindex>
              <groupindex>1</groupindex>
            </link>
            <link>
              <linkclipref>clipitem-130</linkclipref>
              <mediatype>audio</mediatype>
              <trackindex>3</trackindex>
              <clipindex>1</clipindex>
              <groupindex>1</groupindex>
            </link>
            <link>
              <linkclipref>clipitem-131</linkclipref>
              <mediatype>audio</mediatype>
              <trackindex>4</trackindex>
              <clipindex>1</clipindex>
              <groupindex>1</groupindex>
            </link>
            <link>
              <linkclipref>clipitem-132</linkclipref>
              <mediatype>audio</mediatype>
              <trackindex>5</trackindex>
              <clipindex>1</clipindex>
              <groupindex>1</groupindex>
            </link>
            <link>
              <linkclipref>clipitem-133</linkclipref>
              <mediatype>audio</mediatype>
              <trackindex>6</trackindex>
              <clipindex>1</clipindex>
              <groupindex>1</groupindex>
            </link>
          </clipitem>
          <clipitem id="clipitem-136" premiereChannelType="Stereo">
            <masterclipid>masterclip-1</masterclipid>
            <name>2023-04-01 14-56-52溪神带上钻局CC.mp4</name>
            <enabled>TRUE</enabled>
            <rate>
              <timebase>60</timebase>
              <ntsc>FALSE</ntsc>
            </rate>
            <start>2100</start>
            <end>2267</end>
            <in>30347</in>
            <out>30514</out>
            <file id="file-1"/>
            <sourcetrack>
              <mediatype>audio</mediatype>
              <trackindex>1</trackindex>
            </sourcetrack>
            <link>
              <linkclipref>clipitem-134</linkclipref>
              <mediatype>video</mediatype>
              <trackindex>1</trackindex>
              <clipindex>1</clipindex>
            </link>
            <link>
              <linkclipref>clipitem-135</linkclipref>
              <mediatype>audio</mediatype>
              <trackindex>1</trackindex>
              <clipindex>1</clipindex>
              <groupindex>1</groupindex>
            </link>
            <link>
              <linkclipref>clipitem-136</linkclipref>
              <mediatype>audio</mediatype>
              <trackindex>2</trackindex>
              <clipindex>1</clipindex>
              <groupindex>1</groupindex>
            </link>
            <link>
              <linkclipref>clipitem-137</linkclipref>
              <mediatype>audio</mediatype>
              <trackindex>3</trackindex>
              <clipindex>1</clipindex>
              <groupindex>1</groupindex>
            </link>
            <link>
              <linkclipref>clipitem-138</linkclipref>
              <mediatype>audio</mediatype>
              <trackindex>4</trackindex>
              <clipindex>1</clipindex>
              <groupindex>1</groupindex>
            </link>
            <link>
              <linkclipref>clipitem-139</linkclipref>
              <mediatype>audio</mediatype>
              <trackindex>5</trackindex>
              <clipindex>1</clipindex>
              <groupindex>1</groupindex>
            </link>
            <link>
              <linkclipref>clipitem-140</linkclipref>
              <mediatype>audio</mediatype>
              <trackindex>6</trackindex>
              <clipindex>1</clipindex>
              <groupindex>1</groupindex>
            </link>
          </clipitem>
          <clipitem id="clipitem-143" premiereChannelType="Stereo">
            <masterclipid>masterclip-1</masterclipid>
            <name>2023-04-01 14-56-52溪神带上钻局CC.mp4</name>
            <enabled>TRUE</enabled>
            <rate>
              <timebase>60</timebase>
              <ntsc>FALSE</ntsc>
            </rate>
            <start>2267</start>
            <end>2391</end>
            <in>41935</in>
            <out>42059</out>
            <file id="file-1"/>
            <sourcetrack>
              <mediatype>audio</mediatype>
              <trackindex>1</trackindex>
            </sourcetrack>
            <link>
              <linkclipref>clipitem-141</linkclipref>
              <mediatype>video</mediatype>
              <trackindex>1</trackindex>
              <clipindex>1</clipindex>
            </link>
            <link>
              <linkclipref>clipitem-142</linkclipref>
              <mediatype>audio</mediatype>
              <trackindex>1</trackindex>
              <clipindex>1</clipindex>
              <groupindex>1</groupindex>
            </link>
            <link>
              <linkclipref>clipitem-143</linkclipref>
              <mediatype>audio</mediatype>
              <trackindex>2</trackindex>
              <clipindex>1</clipindex>
              <groupindex>1</groupindex>
            </link>
            <link>
              <linkclipref>clipitem-144</linkclipref>
              <mediatype>audio</mediatype>
              <trackindex>3</trackindex>
              <clipindex>1</clipindex>
              <groupindex>1</groupindex>
            </link>
            <link>
              <linkclipref>clipitem-145</linkclipref>
              <mediatype>audio</mediatype>
              <trackindex>4</trackindex>
              <clipindex>1</clipindex>
              <groupindex>1</groupindex>
            </link>
            <link>
              <linkclipref>clipitem-146</linkclipref>
              <mediatype>audio</mediatype>
              <trackindex>5</trackindex>
              <clipindex>1</clipindex>
              <groupindex>1</groupindex>
            </link>
            <link>
              <linkclipref>clipitem-147</linkclipref>
              <mediatype>audio</mediatype>
              <trackindex>6</trackindex>
              <clipindex>1</clipindex>
              <groupindex>1</groupindex>
            </link>
          </clipitem>
          <clipitem id="clipitem-150" premiereChannelType="Stereo">
            <masterclipid>masterclip-1</masterclipid>
            <name>2023-04-01 14-56-52溪神带上钻局CC.mp4</name>
            <enabled>TRUE</enabled>
            <rate>
              <timebase>60</timebase>
              <ntsc>FALSE</ntsc>
            </rate>
            <start>2391</start>
            <end>2618</end>
            <in>46337</in>
            <out>46564</out>
            <file id="file-1"/>
            <sourcetrack>
              <mediatype>audio</mediatype>
              <trackindex>1</trackindex>
            </sourcetrack>
            <link>
              <linkclipref>clipitem-148</linkclipref>
              <mediatype>video</mediatype>
              <trackindex>1</trackindex>
              <clipindex>1</clipindex>
            </link>
            <link>
              <linkclipref>clipitem-149</linkclipref>
              <mediatype>audio</mediatype>
              <trackindex>1</trackindex>
              <clipindex>1</clipindex>
              <groupindex>1</groupindex>
            </link>
            <link>
              <linkclipref>clipitem-150</linkclipref>
              <mediatype>audio</mediatype>
              <trackindex>2</trackindex>
              <clipindex>1</clipindex>
              <groupindex>1</groupindex>
            </link>
            <link>
              <linkclipref>clipitem-151</linkclipref>
              <mediatype>audio</mediatype>
              <trackindex>3</trackindex>
              <clipindex>1</clipindex>
              <groupindex>1</groupindex>
            </link>
            <link>
              <linkclipref>clipitem-152</linkclipref>
              <mediatype>audio</mediatype>
              <trackindex>4</trackindex>
              <clipindex>1</clipindex>
              <groupindex>1</groupindex>
            </link>
            <link>
              <linkclipref>clipitem-153</linkclipref>
              <mediatype>audio</mediatype>
              <trackindex>5</trackindex>
              <clipindex>1</clipindex>
              <groupindex>1</groupindex>
            </link>
            <link>
              <linkclipref>clipitem-154</linkclipref>
              <mediatype>audio</mediatype>
              <trackindex>6</trackindex>
              <clipindex>1</clipindex>
              <groupindex>1</groupindex>
            </link>
          </clipitem>
          <clipitem id="clipitem-157" premiereChannelType="Stereo">
            <masterclipid>masterclip-1</masterclipid>
            <name>2023-04-01 14-56-52溪神带上钻局CC.mp4</name>
            <enabled>TRUE</enabled>
            <rate>
              <timebase>60</timebase>
              <ntsc>FALSE</ntsc>
            </rate>
            <start>2618</start>
            <end>2894</end>
            <in>47608</in>
            <out>47884</out>
            <file id="file-1"/>
            <sourcetrack>
              <mediatype>audio</mediatype>
              <trackindex>1</trackindex>
            </sourcetrack>
            <link>
              <linkclipref>clipitem-155</linkclipref>
              <mediatype>video</mediatype>
              <trackindex>1</trackindex>
              <clipindex>1</clipindex>
            </link>
            <link>
              <linkclipref>clipitem-156</linkclipref>
              <mediatype>audio</mediatype>
              <trackindex>1</trackindex>
              <clipindex>1</clipindex>
              <groupindex>1</groupindex>
            </link>
            <link>
              <linkclipref>clipitem-157</linkclipref>
              <mediatype>audio</mediatype>
              <trackindex>2</trackindex>
              <clipindex>1</clipindex>
              <groupindex>1</groupindex>
            </link>
            <link>
              <linkclipref>clipitem-158</linkclipref>
              <mediatype>audio</mediatype>
              <trackindex>3</trackindex>
              <clipindex>1</clipindex>
              <groupindex>1</groupindex>
            </link>
            <link>
              <linkclipref>clipitem-159</linkclipref>
              <mediatype>audio</mediatype>
              <trackindex>4</trackindex>
              <clipindex>1</clipindex>
              <groupindex>1</groupindex>
            </link>
            <link>
              <linkclipref>clipitem-160</linkclipref>
              <mediatype>audio</mediatype>
              <trackindex>5</trackindex>
              <clipindex>1</clipindex>
              <groupindex>1</groupindex>
            </link>
            <link>
              <linkclipref>clipitem-161</linkclipref>
              <mediatype>audio</mediatype>
              <trackindex>6</trackindex>
              <clipindex>1</clipindex>
              <groupindex>1</groupindex>
            </link>
          </clipitem>
          <clipitem id="clipitem-164" premiereChannelType="Stereo">
            <masterclipid>masterclip-1</masterclipid>
            <name>2023-04-01 14-56-52溪神带上钻局CC.mp4</name>
            <enabled>TRUE</enabled>
            <rate>
              <timebase>60</timebase>
              <ntsc>FALSE</ntsc>
            </rate>
            <start>2894</start>
            <end>3196</end>
            <in>47995</in>
            <out>48297</out>
            <file id="file-1"/>
            <sourcetrack>
              <mediatype>audio</mediatype>
              <trackindex>1</trackindex>
            </sourcetrack>
            <link>
              <linkclipref>clipitem-162</linkclipref>
              <mediatype>video</mediatype>
              <trackindex>1</trackindex>
              <clipindex>1</clipindex>
            </link>
            <link>
              <linkclipref>clipitem-163</linkclipref>
              <mediatype>audio</mediatype>
              <trackindex>1</trackindex>
              <clipindex>1</clipindex>
              <groupindex>1</groupindex>
            </link>
            <link>
              <linkclipref>clipitem-164</linkclipref>
              <mediatype>audio</mediatype>
              <trackindex>2</trackindex>
              <clipindex>1</clipindex>
              <groupindex>1</groupindex>
            </link>
            <link>
              <linkclipref>clipitem-165</linkclipref>
              <mediatype>audio</mediatype>
              <trackindex>3</trackindex>
              <clipindex>1</clipindex>
              <groupindex>1</groupindex>
            </link>
            <link>
              <linkclipref>clipitem-166</linkclipref>
              <mediatype>audio</mediatype>
              <trackindex>4</trackindex>
              <clipindex>1</clipindex>
              <groupindex>1</groupindex>
            </link>
            <link>
              <linkclipref>clipitem-167</linkclipref>
              <mediatype>audio</mediatype>
              <trackindex>5</trackindex>
              <clipindex>1</clipindex>
              <groupindex>1</groupindex>
            </link>
            <link>
              <linkclipref>clipitem-168</linkclipref>
              <mediatype>audio</mediatype>
              <trackindex>6</trackindex>
              <clipindex>1</clipindex>
              <groupindex>1</groupindex>
            </link>
          </clipitem>
          <clipitem id="clipitem-171" premiereChannelType="Stereo">
            <masterclipid>masterclip-1</masterclipid>
            <name>2023-04-01 14-56-52溪神带上钻局CC.mp4</name>
            <enabled>TRUE</enabled>
            <rate>
              <timebase>60</timebase>
              <ntsc>FALSE</ntsc>
            </rate>
            <start>3196</start>
            <end>3357</end>
            <in>49039</in>
            <out>49200</out>
            <file id="file-1"/>
            <sourcetrack>
              <mediatype>audio</mediatype>
              <trackindex>1</trackindex>
            </sourcetrack>
            <link>
              <linkclipref>clipitem-169</linkclipref>
              <mediatype>video</mediatype>
              <trackindex>1</trackindex>
              <clipindex>1</clipindex>
            </link>
            <link>
              <linkclipref>clipitem-170</linkclipref>
              <mediatype>audio</mediatype>
              <trackindex>1</trackindex>
              <clipindex>1</clipindex>
              <groupindex>1</groupindex>
            </link>
            <link>
              <linkclipref>clipitem-171</linkclipref>
              <mediatype>audio</mediatype>
              <trackindex>2</trackindex>
              <clipindex>1</clipindex>
              <groupindex>1</groupindex>
            </link>
            <link>
              <linkclipref>clipitem-172</linkclipref>
              <mediatype>audio</mediatype>
              <trackindex>3</trackindex>
              <clipindex>1</clipindex>
              <groupindex>1</groupindex>
            </link>
            <link>
              <linkclipref>clipitem-173</linkclipref>
              <mediatype>audio</mediatype>
              <trackindex>4</trackindex>
              <clipindex>1</clipindex>
              <groupindex>1</groupindex>
            </link>
            <link>
              <linkclipref>clipitem-174</linkclipref>
              <mediatype>audio</mediatype>
              <trackindex>5</trackindex>
              <clipindex>1</clipindex>
              <groupindex>1</groupindex>
            </link>
            <link>
              <linkclipref>clipitem-175</linkclipref>
              <mediatype>audio</mediatype>
              <trackindex>6</trackindex>
              <clipindex>1</clipindex>
              <groupindex>1</groupindex>
            </link>
          </clipitem>
          <clipitem id="clipitem-178" premiereChannelType="Stereo">
            <masterclipid>masterclip-1</masterclipid>
            <name>2023-04-01 14-56-52溪神带上钻局CC.mp4</name>
            <enabled>TRUE</enabled>
            <rate>
              <timebase>60</timebase>
              <ntsc>FALSE</ntsc>
            </rate>
            <start>3357</start>
            <end>3460</end>
            <in>50487</in>
            <out>50590</out>
            <file id="file-1"/>
            <sourcetrack>
              <mediatype>audio</mediatype>
              <trackindex>1</trackindex>
            </sourcetrack>
            <link>
              <linkclipref>clipitem-176</linkclipref>
              <mediatype>video</mediatype>
              <trackindex>1</trackindex>
              <clipindex>1</clipindex>
            </link>
            <link>
              <linkclipref>clipitem-177</linkclipref>
              <mediatype>audio</mediatype>
              <trackindex>1</trackindex>
              <clipindex>1</clipindex>
              <groupindex>1</groupindex>
            </link>
            <link>
              <linkclipref>clipitem-178</linkclipref>
              <mediatype>audio</mediatype>
              <trackindex>2</trackindex>
              <clipindex>1</clipindex>
              <groupindex>1</groupindex>
            </link>
            <link>
              <linkclipref>clipitem-179</linkclipref>
              <mediatype>audio</mediatype>
              <trackindex>3</trackindex>
              <clipindex>1</clipindex>
              <groupindex>1</groupindex>
            </link>
            <link>
              <linkclipref>clipitem-180</linkclipref>
              <mediatype>audio</mediatype>
              <trackindex>4</trackindex>
              <clipindex>1</clipindex>
              <groupindex>1</groupindex>
            </link>
            <link>
              <linkclipref>clipitem-181</linkclipref>
              <mediatype>audio</mediatype>
              <trackindex>5</trackindex>
              <clipindex>1</clipindex>
              <groupindex>1</groupindex>
            </link>
            <link>
              <linkclipref>clipitem-182</linkclipref>
              <mediatype>audio</mediatype>
              <trackindex>6</trackindex>
              <clipindex>1</clipindex>
              <groupindex>1</groupindex>
            </link>
          </clipitem>
          <clipitem id="clipitem-185" premiereChannelType="Stereo">
            <masterclipid>masterclip-1</masterclipid>
            <name>2023-04-01 14-56-52溪神带上钻局CC.mp4</name>
            <enabled>TRUE</enabled>
            <rate>
              <timebase>60</timebase>
              <ntsc>FALSE</ntsc>
            </rate>
            <start>3460</start>
            <end>3587</end>
            <in>50744</in>
            <out>50871</out>
            <file id="file-1"/>
            <sourcetrack>
              <mediatype>audio</mediatype>
              <trackindex>1</trackindex>
            </sourcetrack>
            <link>
              <linkclipref>clipitem-183</linkclipref>
              <mediatype>video</mediatype>
              <trackindex>1</trackindex>
              <clipindex>1</clipindex>
            </link>
            <link>
              <linkclipref>clipitem-184</linkclipref>
              <mediatype>audio</mediatype>
              <trackindex>1</trackindex>
              <clipindex>1</clipindex>
              <groupindex>1</groupindex>
            </link>
            <link>
              <linkclipref>clipitem-185</linkclipref>
              <mediatype>audio</mediatype>
              <trackindex>2</trackindex>
              <clipindex>1</clipindex>
              <groupindex>1</groupindex>
            </link>
            <link>
              <linkclipref>clipitem-186</linkclipref>
              <mediatype>audio</mediatype>
              <trackindex>3</trackindex>
              <clipindex>1</clipindex>
              <groupindex>1</groupindex>
            </link>
            <link>
              <linkclipref>clipitem-187</linkclipref>
              <mediatype>audio</mediatype>
              <trackindex>4</trackindex>
              <clipindex>1</clipindex>
              <groupindex>1</groupindex>
            </link>
            <link>
              <linkclipref>clipitem-188</linkclipref>
              <mediatype>audio</mediatype>
              <trackindex>5</trackindex>
              <clipindex>1</clipindex>
              <groupindex>1</groupindex>
            </link>
            <link>
              <linkclipref>clipitem-189</linkclipref>
              <mediatype>audio</mediatype>
              <trackindex>6</trackindex>
              <clipindex>1</clipindex>
              <groupindex>1</groupindex>
            </link>
          </clipitem>
          <clipitem id="clipitem-192" premiereChannelType="Stereo">
            <masterclipid>masterclip-1</masterclipid>
            <name>2023-04-01 14-56-52溪神带上钻局CC.mp4</name>
            <enabled>TRUE</enabled>
            <rate>
              <timebase>60</timebase>
              <ntsc>FALSE</ntsc>
            </rate>
            <start>3587</start>
            <end>3794</end>
            <in>50965</in>
            <out>51172</out>
            <file id="file-1"/>
            <sourcetrack>
              <mediatype>audio</mediatype>
              <trackindex>1</trackindex>
            </sourcetrack>
            <link>
              <linkclipref>clipitem-190</linkclipref>
              <mediatype>video</mediatype>
              <trackindex>1</trackindex>
              <clipindex>1</clipindex>
            </link>
            <link>
              <linkclipref>clipitem-191</linkclipref>
              <mediatype>audio</mediatype>
              <trackindex>1</trackindex>
              <clipindex>1</clipindex>
              <groupindex>1</groupindex>
            </link>
            <link>
              <linkclipref>clipitem-192</linkclipref>
              <mediatype>audio</mediatype>
              <trackindex>2</trackindex>
              <clipindex>1</clipindex>
              <groupindex>1</groupindex>
            </link>
            <link>
              <linkclipref>clipitem-193</linkclipref>
              <mediatype>audio</mediatype>
              <trackindex>3</trackindex>
              <clipindex>1</clipindex>
              <groupindex>1</groupindex>
            </link>
            <link>
              <linkclipref>clipitem-194</linkclipref>
              <mediatype>audio</mediatype>
              <trackindex>4</trackindex>
              <clipindex>1</clipindex>
              <groupindex>1</groupindex>
            </link>
            <link>
              <linkclipref>clipitem-195</linkclipref>
              <mediatype>audio</mediatype>
              <trackindex>5</trackindex>
              <clipindex>1</clipindex>
              <groupindex>1</groupindex>
            </link>
            <link>
              <linkclipref>clipitem-196</linkclipref>
              <mediatype>audio</mediatype>
              <trackindex>6</trackindex>
              <clipindex>1</clipindex>
              <groupindex>1</groupindex>
            </link>
          </clipitem>
          <clipitem id="clipitem-199" premiereChannelType="Stereo">
            <masterclipid>masterclip-1</masterclipid>
            <name>2023-04-01 14-56-52溪神带上钻局CC.mp4</name>
            <enabled>TRUE</enabled>
            <rate>
              <timebase>60</timebase>
              <ntsc>FALSE</ntsc>
            </rate>
            <start>3794</start>
            <end>3897</end>
            <in>59295</in>
            <out>59398</out>
            <file id="file-1"/>
            <sourcetrack>
              <mediatype>audio</mediatype>
              <trackindex>1</trackindex>
            </sourcetrack>
            <link>
              <linkclipref>clipitem-197</linkclipref>
              <mediatype>video</mediatype>
              <trackindex>1</trackindex>
              <clipindex>1</clipindex>
            </link>
            <link>
              <linkclipref>clipitem-198</linkclipref>
              <mediatype>audio</mediatype>
              <trackindex>1</trackindex>
              <clipindex>1</clipindex>
              <groupindex>1</groupindex>
            </link>
            <link>
              <linkclipref>clipitem-199</linkclipref>
              <mediatype>audio</mediatype>
              <trackindex>2</trackindex>
              <clipindex>1</clipindex>
              <groupindex>1</groupindex>
            </link>
            <link>
              <linkclipref>clipitem-200</linkclipref>
              <mediatype>audio</mediatype>
              <trackindex>3</trackindex>
              <clipindex>1</clipindex>
              <groupindex>1</groupindex>
            </link>
            <link>
              <linkclipref>clipitem-201</linkclipref>
              <mediatype>audio</mediatype>
              <trackindex>4</trackindex>
              <clipindex>1</clipindex>
              <groupindex>1</groupindex>
            </link>
            <link>
              <linkclipref>clipitem-202</linkclipref>
              <mediatype>audio</mediatype>
              <trackindex>5</trackindex>
              <clipindex>1</clipindex>
              <groupindex>1</groupindex>
            </link>
            <link>
              <linkclipref>clipitem-203</linkclipref>
              <mediatype>audio</mediatype>
              <trackindex>6</trackindex>
              <clipindex>1</clipindex>
              <groupindex>1</groupindex>
            </link>
          </clipitem>
          <clipitem id="clipitem-206" premiereChannelType="Stereo">
            <masterclipid>masterclip-1</masterclipid>
            <name>2023-04-01 14-56-52溪神带上钻局CC.mp4</name>
            <enabled>TRUE</enabled>
            <rate>
              <timebase>60</timebase>
              <ntsc>FALSE</ntsc>
            </rate>
            <start>3897</start>
            <end>4026</end>
            <in>60197</in>
            <out>60326</out>
            <file id="file-1"/>
            <sourcetrack>
              <mediatype>audio</mediatype>
              <trackindex>1</trackindex>
            </sourcetrack>
            <link>
              <linkclipref>clipitem-204</linkclipref>
              <mediatype>video</mediatype>
              <trackindex>1</trackindex>
              <clipindex>1</clipindex>
            </link>
            <link>
              <linkclipref>clipitem-205</linkclipref>
              <mediatype>audio</mediatype>
              <trackindex>1</trackindex>
              <clipindex>1</clipindex>
              <groupindex>1</groupindex>
            </link>
            <link>
              <linkclipref>clipitem-206</linkclipref>
              <mediatype>audio</mediatype>
              <trackindex>2</trackindex>
              <clipindex>1</clipindex>
              <groupindex>1</groupindex>
            </link>
            <link>
              <linkclipref>clipitem-207</linkclipref>
              <mediatype>audio</mediatype>
              <trackindex>3</trackindex>
              <clipindex>1</clipindex>
              <groupindex>1</groupindex>
            </link>
            <link>
              <linkclipref>clipitem-208</linkclipref>
              <mediatype>audio</mediatype>
              <trackindex>4</trackindex>
              <clipindex>1</clipindex>
              <groupindex>1</groupindex>
            </link>
            <link>
              <linkclipref>clipitem-209</linkclipref>
              <mediatype>audio</mediatype>
              <trackindex>5</trackindex>
              <clipindex>1</clipindex>
              <groupindex>1</groupindex>
            </link>
            <link>
              <linkclipref>clipitem-210</linkclipref>
              <mediatype>audio</mediatype>
              <trackindex>6</trackindex>
              <clipindex>1</clipindex>
              <groupindex>1</groupindex>
            </link>
          </clipitem>
          <clipitem id="clipitem-213" premiereChannelType="Stereo">
            <masterclipid>masterclip-1</masterclipid>
            <name>2023-04-01 14-56-52溪神带上钻局CC.mp4</name>
            <enabled>TRUE</enabled>
            <rate>
              <timebase>60</timebase>
              <ntsc>FALSE</ntsc>
            </rate>
            <start>4026</start>
            <end>4128</end>
            <in>60335</in>
            <out>60437</out>
            <file id="file-1"/>
            <sourcetrack>
              <mediatype>audio</mediatype>
              <trackindex>1</trackindex>
            </sourcetrack>
            <link>
              <linkclipref>clipitem-211</linkclipref>
              <mediatype>video</mediatype>
              <trackindex>1</trackindex>
              <clipindex>1</clipindex>
            </link>
            <link>
              <linkclipref>clipitem-212</linkclipref>
              <mediatype>audio</mediatype>
              <trackindex>1</trackindex>
              <clipindex>1</clipindex>
              <groupindex>1</groupindex>
            </link>
            <link>
              <linkclipref>clipitem-213</linkclipref>
              <mediatype>audio</mediatype>
              <trackindex>2</trackindex>
              <clipindex>1</clipindex>
              <groupindex>1</groupindex>
            </link>
            <link>
              <linkclipref>clipitem-214</linkclipref>
              <mediatype>audio</mediatype>
              <trackindex>3</trackindex>
              <clipindex>1</clipindex>
              <groupindex>1</groupindex>
            </link>
            <link>
              <linkclipref>clipitem-215</linkclipref>
              <mediatype>audio</mediatype>
              <trackindex>4</trackindex>
              <clipindex>1</clipindex>
              <groupindex>1</groupindex>
            </link>
            <link>
              <linkclipref>clipitem-216</linkclipref>
              <mediatype>audio</mediatype>
              <trackindex>5</trackindex>
              <clipindex>1</clipindex>
              <groupindex>1</groupindex>
            </link>
            <link>
              <linkclipref>clipitem-217</linkclipref>
              <mediatype>audio</mediatype>
              <trackindex>6</trackindex>
              <clipindex>1</clipindex>
              <groupindex>1</groupindex>
            </link>
          </clipitem>
          <clipitem id="clipitem-220" premiereChannelType="Stereo">
            <masterclipid>masterclip-1</masterclipid>
            <name>2023-04-01 14-56-52溪神带上钻局CC.mp4</name>
            <enabled>TRUE</enabled>
            <rate>
              <timebase>60</timebase>
              <ntsc>FALSE</ntsc>
            </rate>
            <start>4128</start>
            <end>4272</end>
            <in>61170</in>
            <out>61314</out>
            <file id="file-1"/>
            <sourcetrack>
              <mediatype>audio</mediatype>
              <trackindex>1</trackindex>
            </sourcetrack>
            <link>
              <linkclipref>clipitem-218</linkclipref>
              <mediatype>video</mediatype>
              <trackindex>1</trackindex>
              <clipindex>1</clipindex>
            </link>
            <link>
              <linkclipref>clipitem-219</linkclipref>
              <mediatype>audio</mediatype>
              <trackindex>1</trackindex>
              <clipindex>1</clipindex>
              <groupindex>1</groupindex>
            </link>
            <link>
              <linkclipref>clipitem-220</linkclipref>
              <mediatype>audio</mediatype>
              <trackindex>2</trackindex>
              <clipindex>1</clipindex>
              <groupindex>1</groupindex>
            </link>
            <link>
              <linkclipref>clipitem-221</linkclipref>
              <mediatype>audio</mediatype>
              <trackindex>3</trackindex>
              <clipindex>1</clipindex>
              <groupindex>1</groupindex>
            </link>
            <link>
              <linkclipref>clipitem-222</linkclipref>
              <mediatype>audio</mediatype>
              <trackindex>4</trackindex>
              <clipindex>1</clipindex>
              <groupindex>1</groupindex>
            </link>
            <link>
              <linkclipref>clipitem-223</linkclipref>
              <mediatype>audio</mediatype>
              <trackindex>5</trackindex>
              <clipindex>1</clipindex>
              <groupindex>1</groupindex>
            </link>
            <link>
              <linkclipref>clipitem-224</linkclipref>
              <mediatype>audio</mediatype>
              <trackindex>6</trackindex>
              <clipindex>1</clipindex>
              <groupindex>1</groupindex>
            </link>
          </clipitem>
          <clipitem id="clipitem-227" premiereChannelType="Stereo">
            <masterclipid>masterclip-1</masterclipid>
            <name>2023-04-01 14-56-52溪神带上钻局CC.mp4</name>
            <enabled>TRUE</enabled>
            <rate>
              <timebase>60</timebase>
              <ntsc>FALSE</ntsc>
            </rate>
            <start>4272</start>
            <end>4399</end>
            <in>61526</in>
            <out>61653</out>
            <file id="file-1"/>
            <sourcetrack>
              <mediatype>audio</mediatype>
              <trackindex>1</trackindex>
            </sourcetrack>
            <link>
              <linkclipref>clipitem-225</linkclipref>
              <mediatype>video</mediatype>
              <trackindex>1</trackindex>
              <clipindex>1</clipindex>
            </link>
            <link>
              <linkclipref>clipitem-226</linkclipref>
              <mediatype>audio</mediatype>
              <trackindex>1</trackindex>
              <clipindex>1</clipindex>
              <groupindex>1</groupindex>
            </link>
            <link>
              <linkclipref>clipitem-227</linkclipref>
              <mediatype>audio</mediatype>
              <trackindex>2</trackindex>
              <clipindex>1</clipindex>
              <groupindex>1</groupindex>
            </link>
            <link>
              <linkclipref>clipitem-228</linkclipref>
              <mediatype>audio</mediatype>
              <trackindex>3</trackindex>
              <clipindex>1</clipindex>
              <groupindex>1</groupindex>
            </link>
            <link>
              <linkclipref>clipitem-229</linkclipref>
              <mediatype>audio</mediatype>
              <trackindex>4</trackindex>
              <clipindex>1</clipindex>
              <groupindex>1</groupindex>
            </link>
            <link>
              <linkclipref>clipitem-230</linkclipref>
              <mediatype>audio</mediatype>
              <trackindex>5</trackindex>
              <clipindex>1</clipindex>
              <groupindex>1</groupindex>
            </link>
            <link>
              <linkclipref>clipitem-231</linkclipref>
              <mediatype>audio</mediatype>
              <trackindex>6</trackindex>
              <clipindex>1</clipindex>
              <groupindex>1</groupindex>
            </link>
          </clipitem>
          <clipitem id="clipitem-234" premiereChannelType="Stereo">
            <masterclipid>masterclip-1</masterclipid>
            <name>2023-04-01 14-56-52溪神带上钻局CC.mp4</name>
            <enabled>TRUE</enabled>
            <rate>
              <timebase>60</timebase>
              <ntsc>FALSE</ntsc>
            </rate>
            <start>4399</start>
            <end>4509</end>
            <in>62041</in>
            <out>62151</out>
            <file id="file-1"/>
            <sourcetrack>
              <mediatype>audio</mediatype>
              <trackindex>1</trackindex>
            </sourcetrack>
            <link>
              <linkclipref>clipitem-232</linkclipref>
              <mediatype>video</mediatype>
              <trackindex>1</trackindex>
              <clipindex>1</clipindex>
            </link>
            <link>
              <linkclipref>clipitem-233</linkclipref>
              <mediatype>audio</mediatype>
              <trackindex>1</trackindex>
              <clipindex>1</clipindex>
              <groupindex>1</groupindex>
            </link>
            <link>
              <linkclipref>clipitem-234</linkclipref>
              <mediatype>audio</mediatype>
              <trackindex>2</trackindex>
              <clipindex>1</clipindex>
              <groupindex>1</groupindex>
            </link>
            <link>
              <linkclipref>clipitem-235</linkclipref>
              <mediatype>audio</mediatype>
              <trackindex>3</trackindex>
              <clipindex>1</clipindex>
              <groupindex>1</groupindex>
            </link>
            <link>
              <linkclipref>clipitem-236</linkclipref>
              <mediatype>audio</mediatype>
              <trackindex>4</trackindex>
              <clipindex>1</clipindex>
              <groupindex>1</groupindex>
            </link>
            <link>
              <linkclipref>clipitem-237</linkclipref>
              <mediatype>audio</mediatype>
              <trackindex>5</trackindex>
              <clipindex>1</clipindex>
              <groupindex>1</groupindex>
            </link>
            <link>
              <linkclipref>clipitem-238</linkclipref>
              <mediatype>audio</mediatype>
              <trackindex>6</trackindex>
              <clipindex>1</clipindex>
              <groupindex>1</groupindex>
            </link>
          </clipitem>
          <clipitem id="clipitem-241" premiereChannelType="Stereo">
            <masterclipid>masterclip-2</masterclipid>
            <name>2023-04-01 13-58-58溪神带飞王源5KCC.mp4</name>
            <enabled>TRUE</enabled>
            <rate>
              <timebase>60</timebase>
              <ntsc>FALSE</ntsc>
            </rate>
            <start>4509</start>
            <end>4526</end>
            <in>1764</in>
            <out>1781</out>
            <file id="file-2"/>
            <sourcetrack>
              <mediatype>audio</mediatype>
              <trackindex>1</trackindex>
            </sourcetrack>
            <link>
              <linkclipref>clipitem-239</linkclipref>
              <mediatype>video</mediatype>
              <trackindex>1</trackindex>
              <clipindex>1</clipindex>
            </link>
            <link>
              <linkclipref>clipitem-240</linkclipref>
              <mediatype>audio</mediatype>
              <trackindex>1</trackindex>
              <clipindex>1</clipindex>
              <groupindex>1</groupindex>
            </link>
            <link>
              <linkclipref>clipitem-241</linkclipref>
              <mediatype>audio</mediatype>
              <trackindex>2</trackindex>
              <clipindex>1</clipindex>
              <groupindex>1</groupindex>
            </link>
            <link>
              <linkclipref>clipitem-242</linkclipref>
              <mediatype>audio</mediatype>
              <trackindex>3</trackindex>
              <clipindex>1</clipindex>
              <groupindex>1</groupindex>
            </link>
            <link>
              <linkclipref>clipitem-243</linkclipref>
              <mediatype>audio</mediatype>
              <trackindex>4</trackindex>
              <clipindex>1</clipindex>
              <groupindex>1</groupindex>
            </link>
            <link>
              <linkclipref>clipitem-244</linkclipref>
              <mediatype>audio</mediatype>
              <trackindex>5</trackindex>
              <clipindex>1</clipindex>
              <groupindex>1</groupindex>
            </link>
            <link>
              <linkclipref>clipitem-245</linkclipref>
              <mediatype>audio</mediatype>
              <trackindex>6</trackindex>
              <clipindex>1</clipindex>
              <groupindex>1</groupindex>
            </link>
          </clipitem>
          <clipitem id="clipitem-248" premiereChannelType="Stereo">
            <masterclipid>masterclip-2</masterclipid>
            <name>2023-04-01 13-58-58溪神带飞王源5KCC.mp4</name>
            <enabled>TRUE</enabled>
            <rate>
              <timebase>60</timebase>
              <ntsc>FALSE</ntsc>
            </rate>
            <start>4526</start>
            <end>4596</end>
            <in>22846</in>
            <out>22916</out>
            <file id="file-2"/>
            <sourcetrack>
              <mediatype>audio</mediatype>
              <trackindex>1</trackindex>
            </sourcetrack>
            <link>
              <linkclipref>clipitem-246</linkclipref>
              <mediatype>video</mediatype>
              <trackindex>1</trackindex>
              <clipindex>1</clipindex>
            </link>
            <link>
              <linkclipref>clipitem-247</linkclipref>
              <mediatype>audio</mediatype>
              <trackindex>1</trackindex>
              <clipindex>1</clipindex>
              <groupindex>1</groupindex>
            </link>
            <link>
              <linkclipref>clipitem-248</linkclipref>
              <mediatype>audio</mediatype>
              <trackindex>2</trackindex>
              <clipindex>1</clipindex>
              <groupindex>1</groupindex>
            </link>
            <link>
              <linkclipref>clipitem-249</linkclipref>
              <mediatype>audio</mediatype>
              <trackindex>3</trackindex>
              <clipindex>1</clipindex>
              <groupindex>1</groupindex>
            </link>
            <link>
              <linkclipref>clipitem-250</linkclipref>
              <mediatype>audio</mediatype>
              <trackindex>4</trackindex>
              <clipindex>1</clipindex>
              <groupindex>1</groupindex>
            </link>
            <link>
              <linkclipref>clipitem-251</linkclipref>
              <mediatype>audio</mediatype>
              <trackindex>5</trackindex>
              <clipindex>1</clipindex>
              <groupindex>1</groupindex>
            </link>
            <link>
              <linkclipref>clipitem-252</linkclipref>
              <mediatype>audio</mediatype>
              <trackindex>6</trackindex>
              <clipindex>1</clipindex>
              <groupindex>1</groupindex>
            </link>
          </clipitem>
          <clipitem id="clipitem-255" premiereChannelType="Stereo">
            <masterclipid>masterclip-2</masterclipid>
            <name>2023-04-01 13-58-58溪神带飞王源5KCC.mp4</name>
            <enabled>TRUE</enabled>
            <rate>
              <timebase>60</timebase>
              <ntsc>FALSE</ntsc>
            </rate>
            <start>4596</start>
            <end>4848</end>
            <in>22937</in>
            <out>23189</out>
            <file id="file-2"/>
            <sourcetrack>
              <mediatype>audio</mediatype>
              <trackindex>1</trackindex>
            </sourcetrack>
            <link>
              <linkclipref>clipitem-253</linkclipref>
              <mediatype>video</mediatype>
              <trackindex>1</trackindex>
              <clipindex>1</clipindex>
            </link>
            <link>
              <linkclipref>clipitem-254</linkclipref>
              <mediatype>audio</mediatype>
              <trackindex>1</trackindex>
              <clipindex>1</clipindex>
              <groupindex>1</groupindex>
            </link>
            <link>
              <linkclipref>clipitem-255</linkclipref>
              <mediatype>audio</mediatype>
              <trackindex>2</trackindex>
              <clipindex>1</clipindex>
              <groupindex>1</groupindex>
            </link>
            <link>
              <linkclipref>clipitem-256</linkclipref>
              <mediatype>audio</mediatype>
              <trackindex>3</trackindex>
              <clipindex>1</clipindex>
              <groupindex>1</groupindex>
            </link>
            <link>
              <linkclipref>clipitem-257</linkclipref>
              <mediatype>audio</mediatype>
              <trackindex>4</trackindex>
              <clipindex>1</clipindex>
              <groupindex>1</groupindex>
            </link>
            <link>
              <linkclipref>clipitem-258</linkclipref>
              <mediatype>audio</mediatype>
              <trackindex>5</trackindex>
              <clipindex>1</clipindex>
              <groupindex>1</groupindex>
            </link>
            <link>
              <linkclipref>clipitem-259</linkclipref>
              <mediatype>audio</mediatype>
              <trackindex>6</trackindex>
              <clipindex>1</clipindex>
              <groupindex>1</groupindex>
            </link>
          </clipitem>
          <clipitem id="clipitem-262" premiereChannelType="Stereo">
            <masterclipid>masterclip-2</masterclipid>
            <name>2023-04-01 13-58-58溪神带飞王源5KCC.mp4</name>
            <enabled>TRUE</enabled>
            <rate>
              <timebase>60</timebase>
              <ntsc>FALSE</ntsc>
            </rate>
            <start>4848</start>
            <end>5027</end>
            <in>24127</in>
            <out>24306</out>
            <file id="file-2"/>
            <sourcetrack>
              <mediatype>audio</mediatype>
              <trackindex>1</trackindex>
            </sourcetrack>
            <link>
              <linkclipref>clipitem-260</linkclipref>
              <mediatype>video</mediatype>
              <trackindex>1</trackindex>
              <clipindex>1</clipindex>
            </link>
            <link>
              <linkclipref>clipitem-261</linkclipref>
              <mediatype>audio</mediatype>
              <trackindex>1</trackindex>
              <clipindex>1</clipindex>
              <groupindex>1</groupindex>
            </link>
            <link>
              <linkclipref>clipitem-262</linkclipref>
              <mediatype>audio</mediatype>
              <trackindex>2</trackindex>
              <clipindex>1</clipindex>
              <groupindex>1</groupindex>
            </link>
            <link>
              <linkclipref>clipitem-263</linkclipref>
              <mediatype>audio</mediatype>
              <trackindex>3</trackindex>
              <clipindex>1</clipindex>
              <groupindex>1</groupindex>
            </link>
            <link>
              <linkclipref>clipitem-264</linkclipref>
              <mediatype>audio</mediatype>
              <trackindex>4</trackindex>
              <clipindex>1</clipindex>
              <groupindex>1</groupindex>
            </link>
            <link>
              <linkclipref>clipitem-265</linkclipref>
              <mediatype>audio</mediatype>
              <trackindex>5</trackindex>
              <clipindex>1</clipindex>
              <groupindex>1</groupindex>
            </link>
            <link>
              <linkclipref>clipitem-266</linkclipref>
              <mediatype>audio</mediatype>
              <trackindex>6</trackindex>
              <clipindex>1</clipindex>
              <groupindex>1</groupindex>
            </link>
          </clipitem>
          <clipitem id="clipitem-269" premiereChannelType="Stereo">
            <masterclipid>masterclip-2</masterclipid>
            <name>2023-04-01 13-58-58溪神带飞王源5KCC.mp4</name>
            <enabled>TRUE</enabled>
            <rate>
              <timebase>60</timebase>
              <ntsc>FALSE</ntsc>
            </rate>
            <start>5027</start>
            <end>5103</end>
            <in>24579</in>
            <out>24655</out>
            <file id="file-2"/>
            <sourcetrack>
              <mediatype>audio</mediatype>
              <trackindex>1</trackindex>
            </sourcetrack>
            <link>
              <linkclipref>clipitem-267</linkclipref>
              <mediatype>video</mediatype>
              <trackindex>1</trackindex>
              <clipindex>1</clipindex>
            </link>
            <link>
              <linkclipref>clipitem-268</linkclipref>
              <mediatype>audio</mediatype>
              <trackindex>1</trackindex>
              <clipindex>1</clipindex>
              <groupindex>1</groupindex>
            </link>
            <link>
              <linkclipref>clipitem-269</linkclipref>
              <mediatype>audio</mediatype>
              <trackindex>2</trackindex>
              <clipindex>1</clipindex>
              <groupindex>1</groupindex>
            </link>
            <link>
              <linkclipref>clipitem-270</linkclipref>
              <mediatype>audio</mediatype>
              <trackindex>3</trackindex>
              <clipindex>1</clipindex>
              <groupindex>1</groupindex>
            </link>
            <link>
              <linkclipref>clipitem-271</linkclipref>
              <mediatype>audio</mediatype>
              <trackindex>4</trackindex>
              <clipindex>1</clipindex>
              <groupindex>1</groupindex>
            </link>
            <link>
              <linkclipref>clipitem-272</linkclipref>
              <mediatype>audio</mediatype>
              <trackindex>5</trackindex>
              <clipindex>1</clipindex>
              <groupindex>1</groupindex>
            </link>
            <link>
              <linkclipref>clipitem-273</linkclipref>
              <mediatype>audio</mediatype>
              <trackindex>6</trackindex>
              <clipindex>1</clipindex>
              <groupindex>1</groupindex>
            </link>
          </clipitem>
          <clipitem id="clipitem-276" premiereChannelType="Stereo">
            <masterclipid>masterclip-2</masterclipid>
            <name>2023-04-01 13-58-58溪神带飞王源5KCC.mp4</name>
            <enabled>TRUE</enabled>
            <rate>
              <timebase>60</timebase>
              <ntsc>FALSE</ntsc>
            </rate>
            <start>5103</start>
            <end>5273</end>
            <in>24893</in>
            <out>25063</out>
            <file id="file-2"/>
            <sourcetrack>
              <mediatype>audio</mediatype>
              <trackindex>1</trackindex>
            </sourcetrack>
            <link>
              <linkclipref>clipitem-274</linkclipref>
              <mediatype>video</mediatype>
              <trackindex>1</trackindex>
              <clipindex>1</clipindex>
            </link>
            <link>
              <linkclipref>clipitem-275</linkclipref>
              <mediatype>audio</mediatype>
              <trackindex>1</trackindex>
              <clipindex>1</clipindex>
              <groupindex>1</groupindex>
            </link>
            <link>
              <linkclipref>clipitem-276</linkclipref>
              <mediatype>audio</mediatype>
              <trackindex>2</trackindex>
              <clipindex>1</clipindex>
              <groupindex>1</groupindex>
            </link>
            <link>
              <linkclipref>clipitem-277</linkclipref>
              <mediatype>audio</mediatype>
              <trackindex>3</trackindex>
              <clipindex>1</clipindex>
              <groupindex>1</groupindex>
            </link>
            <link>
              <linkclipref>clipitem-278</linkclipref>
              <mediatype>audio</mediatype>
              <trackindex>4</trackindex>
              <clipindex>1</clipindex>
              <groupindex>1</groupindex>
            </link>
            <link>
              <linkclipref>clipitem-279</linkclipref>
              <mediatype>audio</mediatype>
              <trackindex>5</trackindex>
              <clipindex>1</clipindex>
              <groupindex>1</groupindex>
            </link>
            <link>
              <linkclipref>clipitem-280</linkclipref>
              <mediatype>audio</mediatype>
              <trackindex>6</trackindex>
              <clipindex>1</clipindex>
              <groupindex>1</groupindex>
            </link>
          </clipitem>
          <clipitem id="clipitem-283" premiereChannelType="Stereo">
            <masterclipid>masterclip-2</masterclipid>
            <name>2023-04-01 13-58-58溪神带飞王源5KCC.mp4</name>
            <enabled>TRUE</enabled>
            <rate>
              <timebase>60</timebase>
              <ntsc>FALSE</ntsc>
            </rate>
            <start>5273</start>
            <end>5350</end>
            <in>31222</in>
            <out>31299</out>
            <file id="file-2"/>
            <sourcetrack>
              <mediatype>audio</mediatype>
              <trackindex>1</trackindex>
            </sourcetrack>
            <link>
              <linkclipref>clipitem-281</linkclipref>
              <mediatype>video</mediatype>
              <trackindex>1</trackindex>
              <clipindex>1</clipindex>
            </link>
            <link>
              <linkclipref>clipitem-282</linkclipref>
              <mediatype>audio</mediatype>
              <trackindex>1</trackindex>
              <clipindex>1</clipindex>
              <groupindex>1</groupindex>
            </link>
            <link>
              <linkclipref>clipitem-283</linkclipref>
              <mediatype>audio</mediatype>
              <trackindex>2</trackindex>
              <clipindex>1</clipindex>
              <groupindex>1</groupindex>
            </link>
            <link>
              <linkclipref>clipitem-284</linkclipref>
              <mediatype>audio</mediatype>
              <trackindex>3</trackindex>
              <clipindex>1</clipindex>
              <groupindex>1</groupindex>
            </link>
            <link>
              <linkclipref>clipitem-285</linkclipref>
              <mediatype>audio</mediatype>
              <trackindex>4</trackindex>
              <clipindex>1</clipindex>
              <groupindex>1</groupindex>
            </link>
            <link>
              <linkclipref>clipitem-286</linkclipref>
              <mediatype>audio</mediatype>
              <trackindex>5</trackindex>
              <clipindex>1</clipindex>
              <groupindex>1</groupindex>
            </link>
            <link>
              <linkclipref>clipitem-287</linkclipref>
              <mediatype>audio</mediatype>
              <trackindex>6</trackindex>
              <clipindex>1</clipindex>
              <groupindex>1</groupindex>
            </link>
          </clipitem>
          <clipitem id="clipitem-290" premiereChannelType="Stereo">
            <masterclipid>masterclip-2</masterclipid>
            <name>2023-04-01 13-58-58溪神带飞王源5KCC.mp4</name>
            <enabled>TRUE</enabled>
            <rate>
              <timebase>60</timebase>
              <ntsc>FALSE</ntsc>
            </rate>
            <start>5350</start>
            <end>5459</end>
            <in>31478</in>
            <out>31587</out>
            <file id="file-2"/>
            <sourcetrack>
              <mediatype>audio</mediatype>
              <trackindex>1</trackindex>
            </sourcetrack>
            <link>
              <linkclipref>clipitem-288</linkclipref>
              <mediatype>video</mediatype>
              <trackindex>1</trackindex>
              <clipindex>1</clipindex>
            </link>
            <link>
              <linkclipref>clipitem-289</linkclipref>
              <mediatype>audio</mediatype>
              <trackindex>1</trackindex>
              <clipindex>1</clipindex>
              <groupindex>1</groupindex>
            </link>
            <link>
              <linkclipref>clipitem-290</linkclipref>
              <mediatype>audio</mediatype>
              <trackindex>2</trackindex>
              <clipindex>1</clipindex>
              <groupindex>1</groupindex>
            </link>
            <link>
              <linkclipref>clipitem-291</linkclipref>
              <mediatype>audio</mediatype>
              <trackindex>3</trackindex>
              <clipindex>1</clipindex>
              <groupindex>1</groupindex>
            </link>
            <link>
              <linkclipref>clipitem-292</linkclipref>
              <mediatype>audio</mediatype>
              <trackindex>4</trackindex>
              <clipindex>1</clipindex>
              <groupindex>1</groupindex>
            </link>
            <link>
              <linkclipref>clipitem-293</linkclipref>
              <mediatype>audio</mediatype>
              <trackindex>5</trackindex>
              <clipindex>1</clipindex>
              <groupindex>1</groupindex>
            </link>
            <link>
              <linkclipref>clipitem-294</linkclipref>
              <mediatype>audio</mediatype>
              <trackindex>6</trackindex>
              <clipindex>1</clipindex>
              <groupindex>1</groupindex>
            </link>
          </clipitem>
          <clipitem id="clipitem-297" premiereChannelType="Stereo">
            <masterclipid>masterclip-2</masterclipid>
            <name>2023-04-01 13-58-58溪神带飞王源5KCC.mp4</name>
            <enabled>TRUE</enabled>
            <rate>
              <timebase>60</timebase>
              <ntsc>FALSE</ntsc>
            </rate>
            <start>5459</start>
            <end>5662</end>
            <in>33212</in>
            <out>33415</out>
            <file id="file-2"/>
            <sourcetrack>
              <mediatype>audio</mediatype>
              <trackindex>1</trackindex>
            </sourcetrack>
            <link>
              <linkclipref>clipitem-295</linkclipref>
              <mediatype>video</mediatype>
              <trackindex>1</trackindex>
              <clipindex>1</clipindex>
            </link>
            <link>
              <linkclipref>clipitem-296</linkclipref>
              <mediatype>audio</mediatype>
              <trackindex>1</trackindex>
              <clipindex>1</clipindex>
              <groupindex>1</groupindex>
            </link>
            <link>
              <linkclipref>clipitem-297</linkclipref>
              <mediatype>audio</mediatype>
              <trackindex>2</trackindex>
              <clipindex>1</clipindex>
              <groupindex>1</groupindex>
            </link>
            <link>
              <linkclipref>clipitem-298</linkclipref>
              <mediatype>audio</mediatype>
              <trackindex>3</trackindex>
              <clipindex>1</clipindex>
              <groupindex>1</groupindex>
            </link>
            <link>
              <linkclipref>clipitem-299</linkclipref>
              <mediatype>audio</mediatype>
              <trackindex>4</trackindex>
              <clipindex>1</clipindex>
              <groupindex>1</groupindex>
            </link>
            <link>
              <linkclipref>clipitem-300</linkclipref>
              <mediatype>audio</mediatype>
              <trackindex>5</trackindex>
              <clipindex>1</clipindex>
              <groupindex>1</groupindex>
            </link>
            <link>
              <linkclipref>clipitem-301</linkclipref>
              <mediatype>audio</mediatype>
              <trackindex>6</trackindex>
              <clipindex>1</clipindex>
              <groupindex>1</groupindex>
            </link>
          </clipitem>
          <clipitem id="clipitem-304" premiereChannelType="Stereo">
            <masterclipid>masterclip-2</masterclipid>
            <name>2023-04-01 13-58-58溪神带飞王源5KCC.mp4</name>
            <enabled>TRUE</enabled>
            <rate>
              <timebase>60</timebase>
              <ntsc>FALSE</ntsc>
            </rate>
            <start>5662</start>
            <end>5816</end>
            <in>33743</in>
            <out>33897</out>
            <file id="file-2"/>
            <sourcetrack>
              <mediatype>audio</mediatype>
              <trackindex>1</trackindex>
            </sourcetrack>
            <link>
              <linkclipref>clipitem-302</linkclipref>
              <mediatype>video</mediatype>
              <trackindex>1</trackindex>
              <clipindex>1</clipindex>
            </link>
            <link>
              <linkclipref>clipitem-303</linkclipref>
              <mediatype>audio</mediatype>
              <trackindex>1</trackindex>
              <clipindex>1</clipindex>
              <groupindex>1</groupindex>
            </link>
            <link>
              <linkclipref>clipitem-304</linkclipref>
              <mediatype>audio</mediatype>
              <trackindex>2</trackindex>
              <clipindex>1</clipindex>
              <groupindex>1</groupindex>
            </link>
            <link>
              <linkclipref>clipitem-305</linkclipref>
              <mediatype>audio</mediatype>
              <trackindex>3</trackindex>
              <clipindex>1</clipindex>
              <groupindex>1</groupindex>
            </link>
            <link>
              <linkclipref>clipitem-306</linkclipref>
              <mediatype>audio</mediatype>
              <trackindex>4</trackindex>
              <clipindex>1</clipindex>
              <groupindex>1</groupindex>
            </link>
            <link>
              <linkclipref>clipitem-307</linkclipref>
              <mediatype>audio</mediatype>
              <trackindex>5</trackindex>
              <clipindex>1</clipindex>
              <groupindex>1</groupindex>
            </link>
            <link>
              <linkclipref>clipitem-308</linkclipref>
              <mediatype>audio</mediatype>
              <trackindex>6</trackindex>
              <clipindex>1</clipindex>
              <groupindex>1</groupindex>
            </link>
          </clipitem>
          <clipitem id="clipitem-311" premiereChannelType="Stereo">
            <masterclipid>masterclip-2</masterclipid>
            <name>2023-04-01 13-58-58溪神带飞王源5KCC.mp4</name>
            <enabled>TRUE</enabled>
            <rate>
              <timebase>60</timebase>
              <ntsc>FALSE</ntsc>
            </rate>
            <start>5816</start>
            <end>6008</end>
            <in>34010</in>
            <out>34202</out>
            <file id="file-2"/>
            <sourcetrack>
              <mediatype>audio</mediatype>
              <trackindex>1</trackindex>
            </sourcetrack>
            <link>
              <linkclipref>clipitem-309</linkclipref>
              <mediatype>video</mediatype>
              <trackindex>1</trackindex>
              <clipindex>1</clipindex>
            </link>
            <link>
              <linkclipref>clipitem-310</linkclipref>
              <mediatype>audio</mediatype>
              <trackindex>1</trackindex>
              <clipindex>1</clipindex>
              <groupindex>1</groupindex>
            </link>
            <link>
              <linkclipref>clipitem-311</linkclipref>
              <mediatype>audio</mediatype>
              <trackindex>2</trackindex>
              <clipindex>1</clipindex>
              <groupindex>1</groupindex>
            </link>
            <link>
              <linkclipref>clipitem-312</linkclipref>
              <mediatype>audio</mediatype>
              <trackindex>3</trackindex>
              <clipindex>1</clipindex>
              <groupindex>1</groupindex>
            </link>
            <link>
              <linkclipref>clipitem-313</linkclipref>
              <mediatype>audio</mediatype>
              <trackindex>4</trackindex>
              <clipindex>1</clipindex>
              <groupindex>1</groupindex>
            </link>
            <link>
              <linkclipref>clipitem-314</linkclipref>
              <mediatype>audio</mediatype>
              <trackindex>5</trackindex>
              <clipindex>1</clipindex>
              <groupindex>1</groupindex>
            </link>
            <link>
              <linkclipref>clipitem-315</linkclipref>
              <mediatype>audio</mediatype>
              <trackindex>6</trackindex>
              <clipindex>1</clipindex>
              <groupindex>1</groupindex>
            </link>
          </clipitem>
          <clipitem id="clipitem-318" premiereChannelType="Stereo">
            <masterclipid>masterclip-2</masterclipid>
            <name>2023-04-01 13-58-58溪神带飞王源5KCC.mp4</name>
            <enabled>TRUE</enabled>
            <rate>
              <timebase>60</timebase>
              <ntsc>FALSE</ntsc>
            </rate>
            <start>6008</start>
            <end>6171</end>
            <in>39130</in>
            <out>39293</out>
            <file id="file-2"/>
            <sourcetrack>
              <mediatype>audio</mediatype>
              <trackindex>1</trackindex>
            </sourcetrack>
            <link>
              <linkclipref>clipitem-316</linkclipref>
              <mediatype>video</mediatype>
              <trackindex>1</trackindex>
              <clipindex>1</clipindex>
            </link>
            <link>
              <linkclipref>clipitem-317</linkclipref>
              <mediatype>audio</mediatype>
              <trackindex>1</trackindex>
              <clipindex>1</clipindex>
              <groupindex>1</groupindex>
            </link>
            <link>
              <linkclipref>clipitem-318</linkclipref>
              <mediatype>audio</mediatype>
              <trackindex>2</trackindex>
              <clipindex>1</clipindex>
              <groupindex>1</groupindex>
            </link>
            <link>
              <linkclipref>clipitem-319</linkclipref>
              <mediatype>audio</mediatype>
              <trackindex>3</trackindex>
              <clipindex>1</clipindex>
              <groupindex>1</groupindex>
            </link>
            <link>
              <linkclipref>clipitem-320</linkclipref>
              <mediatype>audio</mediatype>
              <trackindex>4</trackindex>
              <clipindex>1</clipindex>
              <groupindex>1</groupindex>
            </link>
            <link>
              <linkclipref>clipitem-321</linkclipref>
              <mediatype>audio</mediatype>
              <trackindex>5</trackindex>
              <clipindex>1</clipindex>
              <groupindex>1</groupindex>
            </link>
            <link>
              <linkclipref>clipitem-322</linkclipref>
              <mediatype>audio</mediatype>
              <trackindex>6</trackindex>
              <clipindex>1</clipindex>
              <groupindex>1</groupindex>
            </link>
          </clipitem>
          <clipitem id="clipitem-325" premiereChannelType="Stereo">
            <masterclipid>masterclip-2</masterclipid>
            <name>2023-04-01 13-58-58溪神带飞王源5KCC.mp4</name>
            <enabled>TRUE</enabled>
            <rate>
              <timebase>60</timebase>
              <ntsc>FALSE</ntsc>
            </rate>
            <start>6171</start>
            <end>6321</end>
            <in>39388</in>
            <out>39538</out>
            <file id="file-2"/>
            <sourcetrack>
              <mediatype>audio</mediatype>
              <trackindex>1</trackindex>
            </sourcetrack>
            <link>
              <linkclipref>clipitem-323</linkclipref>
              <mediatype>video</mediatype>
              <trackindex>1</trackindex>
              <clipindex>1</clipindex>
            </link>
            <link>
              <linkclipref>clipitem-324</linkclipref>
              <mediatype>audio</mediatype>
              <trackindex>1</trackindex>
              <clipindex>1</clipindex>
              <groupindex>1</groupindex>
            </link>
            <link>
              <linkclipref>clipitem-325</linkclipref>
              <mediatype>audio</mediatype>
              <trackindex>2</trackindex>
              <clipindex>1</clipindex>
              <groupindex>1</groupindex>
            </link>
            <link>
              <linkclipref>clipitem-326</linkclipref>
              <mediatype>audio</mediatype>
              <trackindex>3</trackindex>
              <clipindex>1</clipindex>
              <groupindex>1</groupindex>
            </link>
            <link>
              <linkclipref>clipitem-327</linkclipref>
              <mediatype>audio</mediatype>
              <trackindex>4</trackindex>
              <clipindex>1</clipindex>
              <groupindex>1</groupindex>
            </link>
            <link>
              <linkclipref>clipitem-328</linkclipref>
              <mediatype>audio</mediatype>
              <trackindex>5</trackindex>
              <clipindex>1</clipindex>
              <groupindex>1</groupindex>
            </link>
            <link>
              <linkclipref>clipitem-329</linkclipref>
              <mediatype>audio</mediatype>
              <trackindex>6</trackindex>
              <clipindex>1</clipindex>
              <groupindex>1</groupindex>
            </link>
          </clipitem>
          <clipitem id="clipitem-332" premiereChannelType="Stereo">
            <masterclipid>masterclip-2</masterclipid>
            <name>2023-04-01 13-58-58溪神带飞王源5KCC.mp4</name>
            <enabled>TRUE</enabled>
            <rate>
              <timebase>60</timebase>
              <ntsc>FALSE</ntsc>
            </rate>
            <start>6321</start>
            <end>6559</end>
            <in>39755</in>
            <out>39993</out>
            <file id="file-2"/>
            <sourcetrack>
              <mediatype>audio</mediatype>
              <trackindex>1</trackindex>
            </sourcetrack>
            <link>
              <linkclipref>clipitem-330</linkclipref>
              <mediatype>video</mediatype>
              <trackindex>1</trackindex>
              <clipindex>1</clipindex>
            </link>
            <link>
              <linkclipref>clipitem-331</linkclipref>
              <mediatype>audio</mediatype>
              <trackindex>1</trackindex>
              <clipindex>1</clipindex>
              <groupindex>1</groupindex>
            </link>
            <link>
              <linkclipref>clipitem-332</linkclipref>
              <mediatype>audio</mediatype>
              <trackindex>2</trackindex>
              <clipindex>1</clipindex>
              <groupindex>1</groupindex>
            </link>
            <link>
              <linkclipref>clipitem-333</linkclipref>
              <mediatype>audio</mediatype>
              <trackindex>3</trackindex>
              <clipindex>1</clipindex>
              <groupindex>1</groupindex>
            </link>
            <link>
              <linkclipref>clipitem-334</linkclipref>
              <mediatype>audio</mediatype>
              <trackindex>4</trackindex>
              <clipindex>1</clipindex>
              <groupindex>1</groupindex>
            </link>
            <link>
              <linkclipref>clipitem-335</linkclipref>
              <mediatype>audio</mediatype>
              <trackindex>5</trackindex>
              <clipindex>1</clipindex>
              <groupindex>1</groupindex>
            </link>
            <link>
              <linkclipref>clipitem-336</linkclipref>
              <mediatype>audio</mediatype>
              <trackindex>6</trackindex>
              <clipindex>1</clipindex>
              <groupindex>1</groupindex>
            </link>
          </clipitem>
          <clipitem id="clipitem-339" premiereChannelType="Stereo">
            <masterclipid>masterclip-2</masterclipid>
            <name>2023-04-01 13-58-58溪神带飞王源5KCC.mp4</name>
            <enabled>TRUE</enabled>
            <rate>
              <timebase>60</timebase>
              <ntsc>FALSE</ntsc>
            </rate>
            <start>6559</start>
            <end>6647</end>
            <in>40286</in>
            <out>40374</out>
            <file id="file-2"/>
            <sourcetrack>
              <mediatype>audio</mediatype>
              <trackindex>1</trackindex>
            </sourcetrack>
            <link>
              <linkclipref>clipitem-337</linkclipref>
              <mediatype>video</mediatype>
              <trackindex>1</trackindex>
              <clipindex>1</clipindex>
            </link>
            <link>
              <linkclipref>clipitem-338</linkclipref>
              <mediatype>audio</mediatype>
              <trackindex>1</trackindex>
              <clipindex>1</clipindex>
              <groupindex>1</groupindex>
            </link>
            <link>
              <linkclipref>clipitem-339</linkclipref>
              <mediatype>audio</mediatype>
              <trackindex>2</trackindex>
              <clipindex>1</clipindex>
              <groupindex>1</groupindex>
            </link>
            <link>
              <linkclipref>clipitem-340</linkclipref>
              <mediatype>audio</mediatype>
              <trackindex>3</trackindex>
              <clipindex>1</clipindex>
              <groupindex>1</groupindex>
            </link>
            <link>
              <linkclipref>clipitem-341</linkclipref>
              <mediatype>audio</mediatype>
              <trackindex>4</trackindex>
              <clipindex>1</clipindex>
              <groupindex>1</groupindex>
            </link>
            <link>
              <linkclipref>clipitem-342</linkclipref>
              <mediatype>audio</mediatype>
              <trackindex>5</trackindex>
              <clipindex>1</clipindex>
              <groupindex>1</groupindex>
            </link>
            <link>
              <linkclipref>clipitem-343</linkclipref>
              <mediatype>audio</mediatype>
              <trackindex>6</trackindex>
              <clipindex>1</clipindex>
              <groupindex>1</groupindex>
            </link>
          </clipitem>
          <clipitem id="clipitem-346" premiereChannelType="Stereo">
            <masterclipid>masterclip-2</masterclipid>
            <name>2023-04-01 13-58-58溪神带飞王源5KCC.mp4</name>
            <enabled>TRUE</enabled>
            <rate>
              <timebase>60</timebase>
              <ntsc>FALSE</ntsc>
            </rate>
            <start>6647</start>
            <end>6865</end>
            <in>43166</in>
            <out>43384</out>
            <file id="file-2"/>
            <sourcetrack>
              <mediatype>audio</mediatype>
              <trackindex>1</trackindex>
            </sourcetrack>
            <link>
              <linkclipref>clipitem-344</linkclipref>
              <mediatype>video</mediatype>
              <trackindex>1</trackindex>
              <clipindex>1</clipindex>
            </link>
            <link>
              <linkclipref>clipitem-345</linkclipref>
              <mediatype>audio</mediatype>
              <trackindex>1</trackindex>
              <clipindex>1</clipindex>
              <groupindex>1</groupindex>
            </link>
            <link>
              <linkclipref>clipitem-346</linkclipref>
              <mediatype>audio</mediatype>
              <trackindex>2</trackindex>
              <clipindex>1</clipindex>
              <groupindex>1</groupindex>
            </link>
            <link>
              <linkclipref>clipitem-347</linkclipref>
              <mediatype>audio</mediatype>
              <trackindex>3</trackindex>
              <clipindex>1</clipindex>
              <groupindex>1</groupindex>
            </link>
            <link>
              <linkclipref>clipitem-348</linkclipref>
              <mediatype>audio</mediatype>
              <trackindex>4</trackindex>
              <clipindex>1</clipindex>
              <groupindex>1</groupindex>
            </link>
            <link>
              <linkclipref>clipitem-349</linkclipref>
              <mediatype>audio</mediatype>
              <trackindex>5</trackindex>
              <clipindex>1</clipindex>
              <groupindex>1</groupindex>
            </link>
            <link>
              <linkclipref>clipitem-350</linkclipref>
              <mediatype>audio</mediatype>
              <trackindex>6</trackindex>
              <clipindex>1</clipindex>
              <groupindex>1</groupindex>
            </link>
          </clipitem>
          <clipitem id="clipitem-353" premiereChannelType="Stereo">
            <masterclipid>masterclip-2</masterclipid>
            <name>2023-04-01 13-58-58溪神带飞王源5KCC.mp4</name>
            <enabled>TRUE</enabled>
            <rate>
              <timebase>60</timebase>
              <ntsc>FALSE</ntsc>
            </rate>
            <start>6865</start>
            <end>6977</end>
            <in>43394</in>
            <out>43506</out>
            <file id="file-2"/>
            <sourcetrack>
              <mediatype>audio</mediatype>
              <trackindex>1</trackindex>
            </sourcetrack>
            <link>
              <linkclipref>clipitem-351</linkclipref>
              <mediatype>video</mediatype>
              <trackindex>1</trackindex>
              <clipindex>1</clipindex>
            </link>
            <link>
              <linkclipref>clipitem-352</linkclipref>
              <mediatype>audio</mediatype>
              <trackindex>1</trackindex>
              <clipindex>1</clipindex>
              <groupindex>1</groupindex>
            </link>
            <link>
              <linkclipref>clipitem-353</linkclipref>
              <mediatype>audio</mediatype>
              <trackindex>2</trackindex>
              <clipindex>1</clipindex>
              <groupindex>1</groupindex>
            </link>
            <link>
              <linkclipref>clipitem-354</linkclipref>
              <mediatype>audio</mediatype>
              <trackindex>3</trackindex>
              <clipindex>1</clipindex>
              <groupindex>1</groupindex>
            </link>
            <link>
              <linkclipref>clipitem-355</linkclipref>
              <mediatype>audio</mediatype>
              <trackindex>4</trackindex>
              <clipindex>1</clipindex>
              <groupindex>1</groupindex>
            </link>
            <link>
              <linkclipref>clipitem-356</linkclipref>
              <mediatype>audio</mediatype>
              <trackindex>5</trackindex>
              <clipindex>1</clipindex>
              <groupindex>1</groupindex>
            </link>
            <link>
              <linkclipref>clipitem-357</linkclipref>
              <mediatype>audio</mediatype>
              <trackindex>6</trackindex>
              <clipindex>1</clipindex>
              <groupindex>1</groupindex>
            </link>
          </clipitem>
          <clipitem id="clipitem-360" premiereChannelType="Stereo">
            <masterclipid>masterclip-2</masterclipid>
            <name>2023-04-01 13-58-58溪神带飞王源5KCC.mp4</name>
            <enabled>TRUE</enabled>
            <rate>
              <timebase>60</timebase>
              <ntsc>FALSE</ntsc>
            </rate>
            <start>6977</start>
            <end>7192</end>
            <in>48926</in>
            <out>49141</out>
            <file id="file-2"/>
            <sourcetrack>
              <mediatype>audio</mediatype>
              <trackindex>1</trackindex>
            </sourcetrack>
            <link>
              <linkclipref>clipitem-358</linkclipref>
              <mediatype>video</mediatype>
              <trackindex>1</trackindex>
              <clipindex>1</clipindex>
            </link>
            <link>
              <linkclipref>clipitem-359</linkclipref>
              <mediatype>audio</mediatype>
              <trackindex>1</trackindex>
              <clipindex>1</clipindex>
              <groupindex>1</groupindex>
            </link>
            <link>
              <linkclipref>clipitem-360</linkclipref>
              <mediatype>audio</mediatype>
              <trackindex>2</trackindex>
              <clipindex>1</clipindex>
              <groupindex>1</groupindex>
            </link>
            <link>
              <linkclipref>clipitem-361</linkclipref>
              <mediatype>audio</mediatype>
              <trackindex>3</trackindex>
              <clipindex>1</clipindex>
              <groupindex>1</groupindex>
            </link>
            <link>
              <linkclipref>clipitem-362</linkclipref>
              <mediatype>audio</mediatype>
              <trackindex>4</trackindex>
              <clipindex>1</clipindex>
              <groupindex>1</groupindex>
            </link>
            <link>
              <linkclipref>clipitem-363</linkclipref>
              <mediatype>audio</mediatype>
              <trackindex>5</trackindex>
              <clipindex>1</clipindex>
              <groupindex>1</groupindex>
            </link>
            <link>
              <linkclipref>clipitem-364</linkclipref>
              <mediatype>audio</mediatype>
              <trackindex>6</trackindex>
              <clipindex>1</clipindex>
              <groupindex>1</groupindex>
            </link>
          </clipitem>
          <clipitem id="clipitem-367" premiereChannelType="Stereo">
            <masterclipid>masterclip-2</masterclipid>
            <name>2023-04-01 13-58-58溪神带飞王源5KCC.mp4</name>
            <enabled>TRUE</enabled>
            <rate>
              <timebase>60</timebase>
              <ntsc>FALSE</ntsc>
            </rate>
            <start>7192</start>
            <end>7401</end>
            <in>49153</in>
            <out>49362</out>
            <file id="file-2"/>
            <sourcetrack>
              <mediatype>audio</mediatype>
              <trackindex>1</trackindex>
            </sourcetrack>
            <link>
              <linkclipref>clipitem-365</linkclipref>
              <mediatype>video</mediatype>
              <trackindex>1</trackindex>
              <clipindex>1</clipindex>
            </link>
            <link>
              <linkclipref>clipitem-366</linkclipref>
              <mediatype>audio</mediatype>
              <trackindex>1</trackindex>
              <clipindex>1</clipindex>
              <groupindex>1</groupindex>
            </link>
            <link>
              <linkclipref>clipitem-367</linkclipref>
              <mediatype>audio</mediatype>
              <trackindex>2</trackindex>
              <clipindex>1</clipindex>
              <groupindex>1</groupindex>
            </link>
            <link>
              <linkclipref>clipitem-368</linkclipref>
              <mediatype>audio</mediatype>
              <trackindex>3</trackindex>
              <clipindex>1</clipindex>
              <groupindex>1</groupindex>
            </link>
            <link>
              <linkclipref>clipitem-369</linkclipref>
              <mediatype>audio</mediatype>
              <trackindex>4</trackindex>
              <clipindex>1</clipindex>
              <groupindex>1</groupindex>
            </link>
            <link>
              <linkclipref>clipitem-370</linkclipref>
              <mediatype>audio</mediatype>
              <trackindex>5</trackindex>
              <clipindex>1</clipindex>
              <groupindex>1</groupindex>
            </link>
            <link>
              <linkclipref>clipitem-371</linkclipref>
              <mediatype>audio</mediatype>
              <trackindex>6</trackindex>
              <clipindex>1</clipindex>
              <groupindex>1</groupindex>
            </link>
          </clipitem>
          <clipitem id="clipitem-374" premiereChannelType="Stereo">
            <masterclipid>masterclip-2</masterclipid>
            <name>2023-04-01 13-58-58溪神带飞王源5KCC.mp4</name>
            <enabled>TRUE</enabled>
            <rate>
              <timebase>60</timebase>
              <ntsc>FALSE</ntsc>
            </rate>
            <start>7401</start>
            <end>7529</end>
            <in>49768</in>
            <out>49896</out>
            <file id="file-2"/>
            <sourcetrack>
              <mediatype>audio</mediatype>
              <trackindex>1</trackindex>
            </sourcetrack>
            <link>
              <linkclipref>clipitem-372</linkclipref>
              <mediatype>video</mediatype>
              <trackindex>1</trackindex>
              <clipindex>1</clipindex>
            </link>
            <link>
              <linkclipref>clipitem-373</linkclipref>
              <mediatype>audio</mediatype>
              <trackindex>1</trackindex>
              <clipindex>1</clipindex>
              <groupindex>1</groupindex>
            </link>
            <link>
              <linkclipref>clipitem-374</linkclipref>
              <mediatype>audio</mediatype>
              <trackindex>2</trackindex>
              <clipindex>1</clipindex>
              <groupindex>1</groupindex>
            </link>
            <link>
              <linkclipref>clipitem-375</linkclipref>
              <mediatype>audio</mediatype>
              <trackindex>3</trackindex>
              <clipindex>1</clipindex>
              <groupindex>1</groupindex>
            </link>
            <link>
              <linkclipref>clipitem-376</linkclipref>
              <mediatype>audio</mediatype>
              <trackindex>4</trackindex>
              <clipindex>1</clipindex>
              <groupindex>1</groupindex>
            </link>
            <link>
              <linkclipref>clipitem-377</linkclipref>
              <mediatype>audio</mediatype>
              <trackindex>5</trackindex>
              <clipindex>1</clipindex>
              <groupindex>1</groupindex>
            </link>
            <link>
              <linkclipref>clipitem-378</linkclipref>
              <mediatype>audio</mediatype>
              <trackindex>6</trackindex>
              <clipindex>1</clipindex>
              <groupindex>1</groupindex>
            </link>
          </clipitem>
          <clipitem id="clipitem-381" premiereChannelType="Stereo">
            <masterclipid>masterclip-2</masterclipid>
            <name>2023-04-01 13-58-58溪神带飞王源5KCC.mp4</name>
            <enabled>TRUE</enabled>
            <rate>
              <timebase>60</timebase>
              <ntsc>FALSE</ntsc>
            </rate>
            <start>7529</start>
            <end>7724</end>
            <in>52898</in>
            <out>53093</out>
            <file id="file-2"/>
            <sourcetrack>
              <mediatype>audio</mediatype>
              <trackindex>1</trackindex>
            </sourcetrack>
            <link>
              <linkclipref>clipitem-379</linkclipref>
              <mediatype>video</mediatype>
              <trackindex>1</trackindex>
              <clipindex>1</clipindex>
            </link>
            <link>
              <linkclipref>clipitem-380</linkclipref>
              <mediatype>audio</mediatype>
              <trackindex>1</trackindex>
              <clipindex>1</clipindex>
              <groupindex>1</groupindex>
            </link>
            <link>
              <linkclipref>clipitem-381</linkclipref>
              <mediatype>audio</mediatype>
              <trackindex>2</trackindex>
              <clipindex>1</clipindex>
              <groupindex>1</groupindex>
            </link>
            <link>
              <linkclipref>clipitem-382</linkclipref>
              <mediatype>audio</mediatype>
              <trackindex>3</trackindex>
              <clipindex>1</clipindex>
              <groupindex>1</groupindex>
            </link>
            <link>
              <linkclipref>clipitem-383</linkclipref>
              <mediatype>audio</mediatype>
              <trackindex>4</trackindex>
              <clipindex>1</clipindex>
              <groupindex>1</groupindex>
            </link>
            <link>
              <linkclipref>clipitem-384</linkclipref>
              <mediatype>audio</mediatype>
              <trackindex>5</trackindex>
              <clipindex>1</clipindex>
              <groupindex>1</groupindex>
            </link>
            <link>
              <linkclipref>clipitem-385</linkclipref>
              <mediatype>audio</mediatype>
              <trackindex>6</trackindex>
              <clipindex>1</clipindex>
              <groupindex>1</groupindex>
            </link>
          </clipitem>
          <clipitem id="clipitem-388" premiereChannelType="Stereo">
            <masterclipid>masterclip-2</masterclipid>
            <name>2023-04-01 13-58-58溪神带飞王源5KCC.mp4</name>
            <enabled>TRUE</enabled>
            <rate>
              <timebase>60</timebase>
              <ntsc>FALSE</ntsc>
            </rate>
            <start>7724</start>
            <end>7856</end>
            <in>53201</in>
            <out>53333</out>
            <file id="file-2"/>
            <sourcetrack>
              <mediatype>audio</mediatype>
              <trackindex>1</trackindex>
            </sourcetrack>
            <link>
              <linkclipref>clipitem-386</linkclipref>
              <mediatype>video</mediatype>
              <trackindex>1</trackindex>
              <clipindex>1</clipindex>
            </link>
            <link>
              <linkclipref>clipitem-387</linkclipref>
              <mediatype>audio</mediatype>
              <trackindex>1</trackindex>
              <clipindex>1</clipindex>
              <groupindex>1</groupindex>
            </link>
            <link>
              <linkclipref>clipitem-388</linkclipref>
              <mediatype>audio</mediatype>
              <trackindex>2</trackindex>
              <clipindex>1</clipindex>
              <groupindex>1</groupindex>
            </link>
            <link>
              <linkclipref>clipitem-389</linkclipref>
              <mediatype>audio</mediatype>
              <trackindex>3</trackindex>
              <clipindex>1</clipindex>
              <groupindex>1</groupindex>
            </link>
            <link>
              <linkclipref>clipitem-390</linkclipref>
              <mediatype>audio</mediatype>
              <trackindex>4</trackindex>
              <clipindex>1</clipindex>
              <groupindex>1</groupindex>
            </link>
            <link>
              <linkclipref>clipitem-391</linkclipref>
              <mediatype>audio</mediatype>
              <trackindex>5</trackindex>
              <clipindex>1</clipindex>
              <groupindex>1</groupindex>
            </link>
            <link>
              <linkclipref>clipitem-392</linkclipref>
              <mediatype>audio</mediatype>
              <trackindex>6</trackindex>
              <clipindex>1</clipindex>
              <groupindex>1</groupindex>
            </link>
          </clipitem>
          <clipitem id="clipitem-395" premiereChannelType="Stereo">
            <masterclipid>masterclip-2</masterclipid>
            <name>2023-04-01 13-58-58溪神带飞王源5KCC.mp4</name>
            <enabled>TRUE</enabled>
            <rate>
              <timebase>60</timebase>
              <ntsc>FALSE</ntsc>
            </rate>
            <start>7856</start>
            <end>8015</end>
            <in>53758</in>
            <out>53917</out>
            <file id="file-2"/>
            <sourcetrack>
              <mediatype>audio</mediatype>
              <trackindex>1</trackindex>
            </sourcetrack>
            <link>
              <linkclipref>clipitem-393</linkclipref>
              <mediatype>video</mediatype>
              <trackindex>1</trackindex>
              <clipindex>1</clipindex>
            </link>
            <link>
              <linkclipref>clipitem-394</linkclipref>
              <mediatype>audio</mediatype>
              <trackindex>1</trackindex>
              <clipindex>1</clipindex>
              <groupindex>1</groupindex>
            </link>
            <link>
              <linkclipref>clipitem-395</linkclipref>
              <mediatype>audio</mediatype>
              <trackindex>2</trackindex>
              <clipindex>1</clipindex>
              <groupindex>1</groupindex>
            </link>
            <link>
              <linkclipref>clipitem-396</linkclipref>
              <mediatype>audio</mediatype>
              <trackindex>3</trackindex>
              <clipindex>1</clipindex>
              <groupindex>1</groupindex>
            </link>
            <link>
              <linkclipref>clipitem-397</linkclipref>
              <mediatype>audio</mediatype>
              <trackindex>4</trackindex>
              <clipindex>1</clipindex>
              <groupindex>1</groupindex>
            </link>
            <link>
              <linkclipref>clipitem-398</linkclipref>
              <mediatype>audio</mediatype>
              <trackindex>5</trackindex>
              <clipindex>1</clipindex>
              <groupindex>1</groupindex>
            </link>
            <link>
              <linkclipref>clipitem-399</linkclipref>
              <mediatype>audio</mediatype>
              <trackindex>6</trackindex>
              <clipindex>1</clipindex>
              <groupindex>1</groupindex>
            </link>
          </clipitem>
          <clipitem id="clipitem-402" premiereChannelType="Stereo">
            <masterclipid>masterclip-2</masterclipid>
            <name>2023-04-01 13-58-58溪神带飞王源5KCC.mp4</name>
            <enabled>TRUE</enabled>
            <rate>
              <timebase>60</timebase>
              <ntsc>FALSE</ntsc>
            </rate>
            <start>8015</start>
            <end>8211</end>
            <in>53964</in>
            <out>54160</out>
            <file id="file-2"/>
            <sourcetrack>
              <mediatype>audio</mediatype>
              <trackindex>1</trackindex>
            </sourcetrack>
            <link>
              <linkclipref>clipitem-400</linkclipref>
              <mediatype>video</mediatype>
              <trackindex>1</trackindex>
              <clipindex>1</clipindex>
            </link>
            <link>
              <linkclipref>clipitem-401</linkclipref>
              <mediatype>audio</mediatype>
              <trackindex>1</trackindex>
              <clipindex>1</clipindex>
              <groupindex>1</groupindex>
            </link>
            <link>
              <linkclipref>clipitem-402</linkclipref>
              <mediatype>audio</mediatype>
              <trackindex>2</trackindex>
              <clipindex>1</clipindex>
              <groupindex>1</groupindex>
            </link>
            <link>
              <linkclipref>clipitem-403</linkclipref>
              <mediatype>audio</mediatype>
              <trackindex>3</trackindex>
              <clipindex>1</clipindex>
              <groupindex>1</groupindex>
            </link>
            <link>
              <linkclipref>clipitem-404</linkclipref>
              <mediatype>audio</mediatype>
              <trackindex>4</trackindex>
              <clipindex>1</clipindex>
              <groupindex>1</groupindex>
            </link>
            <link>
              <linkclipref>clipitem-405</linkclipref>
              <mediatype>audio</mediatype>
              <trackindex>5</trackindex>
              <clipindex>1</clipindex>
              <groupindex>1</groupindex>
            </link>
            <link>
              <linkclipref>clipitem-406</linkclipref>
              <mediatype>audio</mediatype>
              <trackindex>6</trackindex>
              <clipindex>1</clipindex>
              <groupindex>1</groupindex>
            </link>
          </clipitem>
          <clipitem id="clipitem-409" premiereChannelType="Stereo">
            <masterclipid>masterclip-2</masterclipid>
            <name>2023-04-01 13-58-58溪神带飞王源5KCC.mp4</name>
            <enabled>TRUE</enabled>
            <rate>
              <timebase>60</timebase>
              <ntsc>FALSE</ntsc>
            </rate>
            <start>8211</start>
            <end>8325</end>
            <in>54222</in>
            <out>54336</out>
            <file id="file-2"/>
            <sourcetrack>
              <mediatype>audio</mediatype>
              <trackindex>1</trackindex>
            </sourcetrack>
            <link>
              <linkclipref>clipitem-407</linkclipref>
              <mediatype>video</mediatype>
              <trackindex>1</trackindex>
              <clipindex>1</clipindex>
            </link>
            <link>
              <linkclipref>clipitem-408</linkclipref>
              <mediatype>audio</mediatype>
              <trackindex>1</trackindex>
              <clipindex>1</clipindex>
              <groupindex>1</groupindex>
            </link>
            <link>
              <linkclipref>clipitem-409</linkclipref>
              <mediatype>audio</mediatype>
              <trackindex>2</trackindex>
              <clipindex>1</clipindex>
              <groupindex>1</groupindex>
            </link>
            <link>
              <linkclipref>clipitem-410</linkclipref>
              <mediatype>audio</mediatype>
              <trackindex>3</trackindex>
              <clipindex>1</clipindex>
              <groupindex>1</groupindex>
            </link>
            <link>
              <linkclipref>clipitem-411</linkclipref>
              <mediatype>audio</mediatype>
              <trackindex>4</trackindex>
              <clipindex>1</clipindex>
              <groupindex>1</groupindex>
            </link>
            <link>
              <linkclipref>clipitem-412</linkclipref>
              <mediatype>audio</mediatype>
              <trackindex>5</trackindex>
              <clipindex>1</clipindex>
              <groupindex>1</groupindex>
            </link>
            <link>
              <linkclipref>clipitem-413</linkclipref>
              <mediatype>audio</mediatype>
              <trackindex>6</trackindex>
              <clipindex>1</clipindex>
              <groupindex>1</groupindex>
            </link>
          </clipitem>
          <clipitem id="clipitem-416" premiereChannelType="Stereo">
            <masterclipid>masterclip-2</masterclipid>
            <name>2023-04-01 13-58-58溪神带飞王源5KCC.mp4</name>
            <enabled>TRUE</enabled>
            <rate>
              <timebase>60</timebase>
              <ntsc>FALSE</ntsc>
            </rate>
            <start>8325</start>
            <end>8452</end>
            <in>58783</in>
            <out>58910</out>
            <file id="file-2"/>
            <sourcetrack>
              <mediatype>audio</mediatype>
              <trackindex>1</trackindex>
            </sourcetrack>
            <link>
              <linkclipref>clipitem-414</linkclipref>
              <mediatype>video</mediatype>
              <trackindex>1</trackindex>
              <clipindex>1</clipindex>
            </link>
            <link>
              <linkclipref>clipitem-415</linkclipref>
              <mediatype>audio</mediatype>
              <trackindex>1</trackindex>
              <clipindex>1</clipindex>
              <groupindex>1</groupindex>
            </link>
            <link>
              <linkclipref>clipitem-416</linkclipref>
              <mediatype>audio</mediatype>
              <trackindex>2</trackindex>
              <clipindex>1</clipindex>
              <groupindex>1</groupindex>
            </link>
            <link>
              <linkclipref>clipitem-417</linkclipref>
              <mediatype>audio</mediatype>
              <trackindex>3</trackindex>
              <clipindex>1</clipindex>
              <groupindex>1</groupindex>
            </link>
            <link>
              <linkclipref>clipitem-418</linkclipref>
              <mediatype>audio</mediatype>
              <trackindex>4</trackindex>
              <clipindex>1</clipindex>
              <groupindex>1</groupindex>
            </link>
            <link>
              <linkclipref>clipitem-419</linkclipref>
              <mediatype>audio</mediatype>
              <trackindex>5</trackindex>
              <clipindex>1</clipindex>
              <groupindex>1</groupindex>
            </link>
            <link>
              <linkclipref>clipitem-420</linkclipref>
              <mediatype>audio</mediatype>
              <trackindex>6</trackindex>
              <clipindex>1</clipindex>
              <groupindex>1</groupindex>
            </link>
          </clipitem>
          <clipitem id="clipitem-423" premiereChannelType="Stereo">
            <masterclipid>masterclip-2</masterclipid>
            <name>2023-04-01 13-58-58溪神带飞王源5KCC.mp4</name>
            <enabled>TRUE</enabled>
            <rate>
              <timebase>60</timebase>
              <ntsc>FALSE</ntsc>
            </rate>
            <start>8452</start>
            <end>8604</end>
            <in>61335</in>
            <out>61487</out>
            <file id="file-2"/>
            <sourcetrack>
              <mediatype>audio</mediatype>
              <trackindex>1</trackindex>
            </sourcetrack>
            <link>
              <linkclipref>clipitem-421</linkclipref>
              <mediatype>video</mediatype>
              <trackindex>1</trackindex>
              <clipindex>1</clipindex>
            </link>
            <link>
              <linkclipref>clipitem-422</linkclipref>
              <mediatype>audio</mediatype>
              <trackindex>1</trackindex>
              <clipindex>1</clipindex>
              <groupindex>1</groupindex>
            </link>
            <link>
              <linkclipref>clipitem-423</linkclipref>
              <mediatype>audio</mediatype>
              <trackindex>2</trackindex>
              <clipindex>1</clipindex>
              <groupindex>1</groupindex>
            </link>
            <link>
              <linkclipref>clipitem-424</linkclipref>
              <mediatype>audio</mediatype>
              <trackindex>3</trackindex>
              <clipindex>1</clipindex>
              <groupindex>1</groupindex>
            </link>
            <link>
              <linkclipref>clipitem-425</linkclipref>
              <mediatype>audio</mediatype>
              <trackindex>4</trackindex>
              <clipindex>1</clipindex>
              <groupindex>1</groupindex>
            </link>
            <link>
              <linkclipref>clipitem-426</linkclipref>
              <mediatype>audio</mediatype>
              <trackindex>5</trackindex>
              <clipindex>1</clipindex>
              <groupindex>1</groupindex>
            </link>
            <link>
              <linkclipref>clipitem-427</linkclipref>
              <mediatype>audio</mediatype>
              <trackindex>6</trackindex>
              <clipindex>1</clipindex>
              <groupindex>1</groupindex>
            </link>
          </clipitem>
          <clipitem id="clipitem-430" premiereChannelType="Stereo">
            <masterclipid>masterclip-2</masterclipid>
            <name>2023-04-01 13-58-58溪神带飞王源5KCC.mp4</name>
            <enabled>TRUE</enabled>
            <rate>
              <timebase>60</timebase>
              <ntsc>FALSE</ntsc>
            </rate>
            <start>8604</start>
            <end>8663</end>
            <in>61479</in>
            <out>61538</out>
            <file id="file-2"/>
            <sourcetrack>
              <mediatype>audio</mediatype>
              <trackindex>1</trackindex>
            </sourcetrack>
            <link>
              <linkclipref>clipitem-428</linkclipref>
              <mediatype>video</mediatype>
              <trackindex>1</trackindex>
              <clipindex>1</clipindex>
            </link>
            <link>
              <linkclipref>clipitem-429</linkclipref>
              <mediatype>audio</mediatype>
              <trackindex>1</trackindex>
              <clipindex>1</clipindex>
              <groupindex>1</groupindex>
            </link>
            <link>
              <linkclipref>clipitem-430</linkclipref>
              <mediatype>audio</mediatype>
              <trackindex>2</trackindex>
              <clipindex>1</clipindex>
              <groupindex>1</groupindex>
            </link>
            <link>
              <linkclipref>clipitem-431</linkclipref>
              <mediatype>audio</mediatype>
              <trackindex>3</trackindex>
              <clipindex>1</clipindex>
              <groupindex>1</groupindex>
            </link>
            <link>
              <linkclipref>clipitem-432</linkclipref>
              <mediatype>audio</mediatype>
              <trackindex>4</trackindex>
              <clipindex>1</clipindex>
              <groupindex>1</groupindex>
            </link>
            <link>
              <linkclipref>clipitem-433</linkclipref>
              <mediatype>audio</mediatype>
              <trackindex>5</trackindex>
              <clipindex>1</clipindex>
              <groupindex>1</groupindex>
            </link>
            <link>
              <linkclipref>clipitem-434</linkclipref>
              <mediatype>audio</mediatype>
              <trackindex>6</trackindex>
              <clipindex>1</clipindex>
              <groupindex>1</groupindex>
            </link>
          </clipitem>
          <clipitem id="clipitem-437" premiereChannelType="Stereo">
            <masterclipid>masterclip-2</masterclipid>
            <name>2023-04-01 13-58-58溪神带飞王源5KCC.mp4</name>
            <enabled>TRUE</enabled>
            <rate>
              <timebase>60</timebase>
              <ntsc>FALSE</ntsc>
            </rate>
            <start>8663</start>
            <end>8756</end>
            <in>61668</in>
            <out>61761</out>
            <file id="file-2"/>
            <sourcetrack>
              <mediatype>audio</mediatype>
              <trackindex>1</trackindex>
            </sourcetrack>
            <link>
              <linkclipref>clipitem-435</linkclipref>
              <mediatype>video</mediatype>
              <trackindex>1</trackindex>
              <clipindex>1</clipindex>
            </link>
            <link>
              <linkclipref>clipitem-436</linkclipref>
              <mediatype>audio</mediatype>
              <trackindex>1</trackindex>
              <clipindex>1</clipindex>
              <groupindex>1</groupindex>
            </link>
            <link>
              <linkclipref>clipitem-437</linkclipref>
              <mediatype>audio</mediatype>
              <trackindex>2</trackindex>
              <clipindex>1</clipindex>
              <groupindex>1</groupindex>
            </link>
            <link>
              <linkclipref>clipitem-438</linkclipref>
              <mediatype>audio</mediatype>
              <trackindex>3</trackindex>
              <clipindex>1</clipindex>
              <groupindex>1</groupindex>
            </link>
            <link>
              <linkclipref>clipitem-439</linkclipref>
              <mediatype>audio</mediatype>
              <trackindex>4</trackindex>
              <clipindex>1</clipindex>
              <groupindex>1</groupindex>
            </link>
            <link>
              <linkclipref>clipitem-440</linkclipref>
              <mediatype>audio</mediatype>
              <trackindex>5</trackindex>
              <clipindex>1</clipindex>
              <groupindex>1</groupindex>
            </link>
            <link>
              <linkclipref>clipitem-441</linkclipref>
              <mediatype>audio</mediatype>
              <trackindex>6</trackindex>
              <clipindex>1</clipindex>
              <groupindex>1</groupindex>
            </link>
          </clipitem>
          <clipitem id="clipitem-444" premiereChannelType="Stereo">
            <masterclipid>masterclip-2</masterclipid>
            <name>2023-04-01 13-58-58溪神带飞王源5KCC.mp4</name>
            <enabled>TRUE</enabled>
            <rate>
              <timebase>60</timebase>
              <ntsc>FALSE</ntsc>
            </rate>
            <start>8756</start>
            <end>8834</end>
            <in>63731</in>
            <out>63809</out>
            <file id="file-2"/>
            <sourcetrack>
              <mediatype>audio</mediatype>
              <trackindex>1</trackindex>
            </sourcetrack>
            <link>
              <linkclipref>clipitem-442</linkclipref>
              <mediatype>video</mediatype>
              <trackindex>1</trackindex>
              <clipindex>1</clipindex>
            </link>
            <link>
              <linkclipref>clipitem-443</linkclipref>
              <mediatype>audio</mediatype>
              <trackindex>1</trackindex>
              <clipindex>1</clipindex>
              <groupindex>1</groupindex>
            </link>
            <link>
              <linkclipref>clipitem-444</linkclipref>
              <mediatype>audio</mediatype>
              <trackindex>2</trackindex>
              <clipindex>1</clipindex>
              <groupindex>1</groupindex>
            </link>
            <link>
              <linkclipref>clipitem-445</linkclipref>
              <mediatype>audio</mediatype>
              <trackindex>3</trackindex>
              <clipindex>1</clipindex>
              <groupindex>1</groupindex>
            </link>
            <link>
              <linkclipref>clipitem-446</linkclipref>
              <mediatype>audio</mediatype>
              <trackindex>4</trackindex>
              <clipindex>1</clipindex>
              <groupindex>1</groupindex>
            </link>
            <link>
              <linkclipref>clipitem-447</linkclipref>
              <mediatype>audio</mediatype>
              <trackindex>5</trackindex>
              <clipindex>1</clipindex>
              <groupindex>1</groupindex>
            </link>
            <link>
              <linkclipref>clipitem-448</linkclipref>
              <mediatype>audio</mediatype>
              <trackindex>6</trackindex>
              <clipindex>1</clipindex>
              <groupindex>1</groupindex>
            </link>
          </clipitem>
          <clipitem id="clipitem-451" premiereChannelType="Stereo">
            <masterclipid>masterclip-2</masterclipid>
            <name>2023-04-01 13-58-58溪神带飞王源5KCC.mp4</name>
            <enabled>TRUE</enabled>
            <rate>
              <timebase>60</timebase>
              <ntsc>FALSE</ntsc>
            </rate>
            <start>8834</start>
            <end>8926</end>
            <in>65937</in>
            <out>66029</out>
            <file id="file-2"/>
            <sourcetrack>
              <mediatype>audio</mediatype>
              <trackindex>1</trackindex>
            </sourcetrack>
            <link>
              <linkclipref>clipitem-449</linkclipref>
              <mediatype>video</mediatype>
              <trackindex>1</trackindex>
              <clipindex>1</clipindex>
            </link>
            <link>
              <linkclipref>clipitem-450</linkclipref>
              <mediatype>audio</mediatype>
              <trackindex>1</trackindex>
              <clipindex>1</clipindex>
              <groupindex>1</groupindex>
            </link>
            <link>
              <linkclipref>clipitem-451</linkclipref>
              <mediatype>audio</mediatype>
              <trackindex>2</trackindex>
              <clipindex>1</clipindex>
              <groupindex>1</groupindex>
            </link>
            <link>
              <linkclipref>clipitem-452</linkclipref>
              <mediatype>audio</mediatype>
              <trackindex>3</trackindex>
              <clipindex>1</clipindex>
              <groupindex>1</groupindex>
            </link>
            <link>
              <linkclipref>clipitem-453</linkclipref>
              <mediatype>audio</mediatype>
              <trackindex>4</trackindex>
              <clipindex>1</clipindex>
              <groupindex>1</groupindex>
            </link>
            <link>
              <linkclipref>clipitem-454</linkclipref>
              <mediatype>audio</mediatype>
              <trackindex>5</trackindex>
              <clipindex>1</clipindex>
              <groupindex>1</groupindex>
            </link>
            <link>
              <linkclipref>clipitem-455</linkclipref>
              <mediatype>audio</mediatype>
              <trackindex>6</trackindex>
              <clipindex>1</clipindex>
              <groupindex>1</groupindex>
            </link>
          </clipitem>
          <clipitem id="clipitem-458" premiereChannelType="Stereo">
            <masterclipid>masterclip-2</masterclipid>
            <name>2023-04-01 13-58-58溪神带飞王源5KCC.mp4</name>
            <enabled>TRUE</enabled>
            <rate>
              <timebase>60</timebase>
              <ntsc>FALSE</ntsc>
            </rate>
            <start>8926</start>
            <end>9026</end>
            <in>67489</in>
            <out>67589</out>
            <file id="file-2"/>
            <sourcetrack>
              <mediatype>audio</mediatype>
              <trackindex>1</trackindex>
            </sourcetrack>
            <link>
              <linkclipref>clipitem-456</linkclipref>
              <mediatype>video</mediatype>
              <trackindex>1</trackindex>
              <clipindex>1</clipindex>
            </link>
            <link>
              <linkclipref>clipitem-457</linkclipref>
              <mediatype>audio</mediatype>
              <trackindex>1</trackindex>
              <clipindex>1</clipindex>
              <groupindex>1</groupindex>
            </link>
            <link>
              <linkclipref>clipitem-458</linkclipref>
              <mediatype>audio</mediatype>
              <trackindex>2</trackindex>
              <clipindex>1</clipindex>
              <groupindex>1</groupindex>
            </link>
            <link>
              <linkclipref>clipitem-459</linkclipref>
              <mediatype>audio</mediatype>
              <trackindex>3</trackindex>
              <clipindex>1</clipindex>
              <groupindex>1</groupindex>
            </link>
            <link>
              <linkclipref>clipitem-460</linkclipref>
              <mediatype>audio</mediatype>
              <trackindex>4</trackindex>
              <clipindex>1</clipindex>
              <groupindex>1</groupindex>
            </link>
            <link>
              <linkclipref>clipitem-461</linkclipref>
              <mediatype>audio</mediatype>
              <trackindex>5</trackindex>
              <clipindex>1</clipindex>
              <groupindex>1</groupindex>
            </link>
            <link>
              <linkclipref>clipitem-462</linkclipref>
              <mediatype>audio</mediatype>
              <trackindex>6</trackindex>
              <clipindex>1</clipindex>
              <groupindex>1</groupindex>
            </link>
          </clipitem>
          <clipitem id="clipitem-465" premiereChannelType="Stereo">
            <masterclipid>masterclip-2</masterclipid>
            <name>2023-04-01 13-58-58溪神带飞王源5KCC.mp4</name>
            <enabled>TRUE</enabled>
            <rate>
              <timebase>60</timebase>
              <ntsc>FALSE</ntsc>
            </rate>
            <start>9026</start>
            <end>9186</end>
            <in>69990</in>
            <out>70150</out>
            <file id="file-2"/>
            <sourcetrack>
              <mediatype>audio</mediatype>
              <trackindex>1</trackindex>
            </sourcetrack>
            <link>
              <linkclipref>clipitem-463</linkclipref>
              <mediatype>video</mediatype>
              <trackindex>1</trackindex>
              <clipindex>1</clipindex>
            </link>
            <link>
              <linkclipref>clipitem-464</linkclipref>
              <mediatype>audio</mediatype>
              <trackindex>1</trackindex>
              <clipindex>1</clipindex>
              <groupindex>1</groupindex>
            </link>
            <link>
              <linkclipref>clipitem-465</linkclipref>
              <mediatype>audio</mediatype>
              <trackindex>2</trackindex>
              <clipindex>1</clipindex>
              <groupindex>1</groupindex>
            </link>
            <link>
              <linkclipref>clipitem-466</linkclipref>
              <mediatype>audio</mediatype>
              <trackindex>3</trackindex>
              <clipindex>1</clipindex>
              <groupindex>1</groupindex>
            </link>
            <link>
              <linkclipref>clipitem-467</linkclipref>
              <mediatype>audio</mediatype>
              <trackindex>4</trackindex>
              <clipindex>1</clipindex>
              <groupindex>1</groupindex>
            </link>
            <link>
              <linkclipref>clipitem-468</linkclipref>
              <mediatype>audio</mediatype>
              <trackindex>5</trackindex>
              <clipindex>1</clipindex>
              <groupindex>1</groupindex>
            </link>
            <link>
              <linkclipref>clipitem-469</linkclipref>
              <mediatype>audio</mediatype>
              <trackindex>6</trackindex>
              <clipindex>1</clipindex>
              <groupindex>1</groupindex>
            </link>
          </clipitem>
          <clipitem id="clipitem-472" premiereChannelType="Stereo">
            <masterclipid>masterclip-2</masterclipid>
            <name>2023-04-01 13-58-58溪神带飞王源5KCC.mp4</name>
            <enabled>TRUE</enabled>
            <rate>
              <timebase>60</timebase>
              <ntsc>FALSE</ntsc>
            </rate>
            <start>9186</start>
            <end>9346</end>
            <in>70337</in>
            <out>70497</out>
            <file id="file-2"/>
            <sourcetrack>
              <mediatype>audio</mediatype>
              <trackindex>1</trackindex>
            </sourcetrack>
            <link>
              <linkclipref>clipitem-470</linkclipref>
              <mediatype>video</mediatype>
              <trackindex>1</trackindex>
              <clipindex>1</clipindex>
            </link>
            <link>
              <linkclipref>clipitem-471</linkclipref>
              <mediatype>audio</mediatype>
              <trackindex>1</trackindex>
              <clipindex>1</clipindex>
              <groupindex>1</groupindex>
            </link>
            <link>
              <linkclipref>clipitem-472</linkclipref>
              <mediatype>audio</mediatype>
              <trackindex>2</trackindex>
              <clipindex>1</clipindex>
              <groupindex>1</groupindex>
            </link>
            <link>
              <linkclipref>clipitem-473</linkclipref>
              <mediatype>audio</mediatype>
              <trackindex>3</trackindex>
              <clipindex>1</clipindex>
              <groupindex>1</groupindex>
            </link>
            <link>
              <linkclipref>clipitem-474</linkclipref>
              <mediatype>audio</mediatype>
              <trackindex>4</trackindex>
              <clipindex>1</clipindex>
              <groupindex>1</groupindex>
            </link>
            <link>
              <linkclipref>clipitem-475</linkclipref>
              <mediatype>audio</mediatype>
              <trackindex>5</trackindex>
              <clipindex>1</clipindex>
              <groupindex>1</groupindex>
            </link>
            <link>
              <linkclipref>clipitem-476</linkclipref>
              <mediatype>audio</mediatype>
              <trackindex>6</trackindex>
              <clipindex>1</clipindex>
              <groupindex>1</groupindex>
            </link>
          </clipitem>
          <clipitem id="clipitem-479" premiereChannelType="Stereo">
            <masterclipid>masterclip-2</masterclipid>
            <name>2023-04-01 13-58-58溪神带飞王源5KCC.mp4</name>
            <enabled>TRUE</enabled>
            <rate>
              <timebase>60</timebase>
              <ntsc>FALSE</ntsc>
            </rate>
            <start>9346</start>
            <end>9428</end>
            <in>72878</in>
            <out>72960</out>
            <file id="file-2"/>
            <sourcetrack>
              <mediatype>audio</mediatype>
              <trackindex>1</trackindex>
            </sourcetrack>
            <link>
              <linkclipref>clipitem-477</linkclipref>
              <mediatype>video</mediatype>
              <trackindex>1</trackindex>
              <clipindex>1</clipindex>
            </link>
            <link>
              <linkclipref>clipitem-478</linkclipref>
              <mediatype>audio</mediatype>
              <trackindex>1</trackindex>
              <clipindex>1</clipindex>
              <groupindex>1</groupindex>
            </link>
            <link>
              <linkclipref>clipitem-479</linkclipref>
              <mediatype>audio</mediatype>
              <trackindex>2</trackindex>
              <clipindex>1</clipindex>
              <groupindex>1</groupindex>
            </link>
            <link>
              <linkclipref>clipitem-480</linkclipref>
              <mediatype>audio</mediatype>
              <trackindex>3</trackindex>
              <clipindex>1</clipindex>
              <groupindex>1</groupindex>
            </link>
            <link>
              <linkclipref>clipitem-481</linkclipref>
              <mediatype>audio</mediatype>
              <trackindex>4</trackindex>
              <clipindex>1</clipindex>
              <groupindex>1</groupindex>
            </link>
            <link>
              <linkclipref>clipitem-482</linkclipref>
              <mediatype>audio</mediatype>
              <trackindex>5</trackindex>
              <clipindex>1</clipindex>
              <groupindex>1</groupindex>
            </link>
            <link>
              <linkclipref>clipitem-483</linkclipref>
              <mediatype>audio</mediatype>
              <trackindex>6</trackindex>
              <clipindex>1</clipindex>
              <groupindex>1</groupindex>
            </link>
          </clipitem>
          <clipitem id="clipitem-486" premiereChannelType="Stereo">
            <masterclipid>masterclip-3</masterclipid>
            <name>2023-03-30 21-15-31艾许决赛圈2V6 8KCC.mp4</name>
            <enabled>TRUE</enabled>
            <rate>
              <timebase>60</timebase>
              <ntsc>FALSE</ntsc>
            </rate>
            <start>9428</start>
            <end>9920</end>
            <in>3281</in>
            <out>3773</out>
            <file id="file-3"/>
            <sourcetrack>
              <mediatype>audio</mediatype>
              <trackindex>1</trackindex>
            </sourcetrack>
            <link>
              <linkclipref>clipitem-484</linkclipref>
              <mediatype>video</mediatype>
              <trackindex>1</trackindex>
              <clipindex>1</clipindex>
            </link>
            <link>
              <linkclipref>clipitem-485</linkclipref>
              <mediatype>audio</mediatype>
              <trackindex>1</trackindex>
              <clipindex>1</clipindex>
              <groupindex>1</groupindex>
            </link>
            <link>
              <linkclipref>clipitem-486</linkclipref>
              <mediatype>audio</mediatype>
              <trackindex>2</trackindex>
              <clipindex>1</clipindex>
              <groupindex>1</groupindex>
            </link>
            <link>
              <linkclipref>clipitem-487</linkclipref>
              <mediatype>audio</mediatype>
              <trackindex>3</trackindex>
              <clipindex>1</clipindex>
              <groupindex>1</groupindex>
            </link>
            <link>
              <linkclipref>clipitem-488</linkclipref>
              <mediatype>audio</mediatype>
              <trackindex>4</trackindex>
              <clipindex>1</clipindex>
              <groupindex>1</groupindex>
            </link>
            <link>
              <linkclipref>clipitem-489</linkclipref>
              <mediatype>audio</mediatype>
              <trackindex>5</trackindex>
              <clipindex>1</clipindex>
              <groupindex>1</groupindex>
            </link>
            <link>
              <linkclipref>clipitem-490</linkclipref>
              <mediatype>audio</mediatype>
              <trackindex>6</trackindex>
              <clipindex>1</clipindex>
              <groupindex>1</groupindex>
            </link>
          </clipitem>
          <clipitem id="clipitem-493" premiereChannelType="Stereo">
            <masterclipid>masterclip-3</masterclipid>
            <name>2023-03-30 21-15-31艾许决赛圈2V6 8KCC.mp4</name>
            <enabled>TRUE</enabled>
            <rate>
              <timebase>60</timebase>
              <ntsc>FALSE</ntsc>
            </rate>
            <start>9920</start>
            <end>10196</end>
            <in>7193</in>
            <out>7469</out>
            <file id="file-3"/>
            <sourcetrack>
              <mediatype>audio</mediatype>
              <trackindex>1</trackindex>
            </sourcetrack>
            <link>
              <linkclipref>clipitem-491</linkclipref>
              <mediatype>video</mediatype>
              <trackindex>1</trackindex>
              <clipindex>1</clipindex>
            </link>
            <link>
              <linkclipref>clipitem-492</linkclipref>
              <mediatype>audio</mediatype>
              <trackindex>1</trackindex>
              <clipindex>1</clipindex>
              <groupindex>1</groupindex>
            </link>
            <link>
              <linkclipref>clipitem-493</linkclipref>
              <mediatype>audio</mediatype>
              <trackindex>2</trackindex>
              <clipindex>1</clipindex>
              <groupindex>1</groupindex>
            </link>
            <link>
              <linkclipref>clipitem-494</linkclipref>
              <mediatype>audio</mediatype>
              <trackindex>3</trackindex>
              <clipindex>1</clipindex>
              <groupindex>1</groupindex>
            </link>
            <link>
              <linkclipref>clipitem-495</linkclipref>
              <mediatype>audio</mediatype>
              <trackindex>4</trackindex>
              <clipindex>1</clipindex>
              <groupindex>1</groupindex>
            </link>
            <link>
              <linkclipref>clipitem-496</linkclipref>
              <mediatype>audio</mediatype>
              <trackindex>5</trackindex>
              <clipindex>1</clipindex>
              <groupindex>1</groupindex>
            </link>
            <link>
              <linkclipref>clipitem-497</linkclipref>
              <mediatype>audio</mediatype>
              <trackindex>6</trackindex>
              <clipindex>1</clipindex>
              <groupindex>1</groupindex>
            </link>
          </clipitem>
          <clipitem id="clipitem-500" premiereChannelType="Stereo">
            <masterclipid>masterclip-3</masterclipid>
            <name>2023-03-30 21-15-31艾许决赛圈2V6 8KCC.mp4</name>
            <enabled>TRUE</enabled>
            <rate>
              <timebase>60</timebase>
              <ntsc>FALSE</ntsc>
            </rate>
            <start>10196</start>
            <end>10286</end>
            <in>7646</in>
            <out>7736</out>
            <file id="file-3"/>
            <sourcetrack>
              <mediatype>audio</mediatype>
              <trackindex>1</trackindex>
            </sourcetrack>
            <link>
              <linkclipref>clipitem-498</linkclipref>
              <mediatype>video</mediatype>
              <trackindex>1</trackindex>
              <clipindex>1</clipindex>
            </link>
            <link>
              <linkclipref>clipitem-499</linkclipref>
              <mediatype>audio</mediatype>
              <trackindex>1</trackindex>
              <clipindex>1</clipindex>
              <groupindex>1</groupindex>
            </link>
            <link>
              <linkclipref>clipitem-500</linkclipref>
              <mediatype>audio</mediatype>
              <trackindex>2</trackindex>
              <clipindex>1</clipindex>
              <groupindex>1</groupindex>
            </link>
            <link>
              <linkclipref>clipitem-501</linkclipref>
              <mediatype>audio</mediatype>
              <trackindex>3</trackindex>
              <clipindex>1</clipindex>
              <groupindex>1</groupindex>
            </link>
            <link>
              <linkclipref>clipitem-502</linkclipref>
              <mediatype>audio</mediatype>
              <trackindex>4</trackindex>
              <clipindex>1</clipindex>
              <groupindex>1</groupindex>
            </link>
            <link>
              <linkclipref>clipitem-503</linkclipref>
              <mediatype>audio</mediatype>
              <trackindex>5</trackindex>
              <clipindex>1</clipindex>
              <groupindex>1</groupindex>
            </link>
            <link>
              <linkclipref>clipitem-504</linkclipref>
              <mediatype>audio</mediatype>
              <trackindex>6</trackindex>
              <clipindex>1</clipindex>
              <groupindex>1</groupindex>
            </link>
          </clipitem>
          <clipitem id="clipitem-507" premiereChannelType="Stereo">
            <masterclipid>masterclip-3</masterclipid>
            <name>2023-03-30 21-15-31艾许决赛圈2V6 8KCC.mp4</name>
            <enabled>TRUE</enabled>
            <rate>
              <timebase>60</timebase>
              <ntsc>FALSE</ntsc>
            </rate>
            <start>10286</start>
            <end>10401</end>
            <in>7813</in>
            <out>7928</out>
            <file id="file-3"/>
            <sourcetrack>
              <mediatype>audio</mediatype>
              <trackindex>1</trackindex>
            </sourcetrack>
            <link>
              <linkclipref>clipitem-505</linkclipref>
              <mediatype>video</mediatype>
              <trackindex>1</trackindex>
              <clipindex>1</clipindex>
            </link>
            <link>
              <linkclipref>clipitem-506</linkclipref>
              <mediatype>audio</mediatype>
              <trackindex>1</trackindex>
              <clipindex>1</clipindex>
              <groupindex>1</groupindex>
            </link>
            <link>
              <linkclipref>clipitem-507</linkclipref>
              <mediatype>audio</mediatype>
              <trackindex>2</trackindex>
              <clipindex>1</clipindex>
              <groupindex>1</groupindex>
            </link>
            <link>
              <linkclipref>clipitem-508</linkclipref>
              <mediatype>audio</mediatype>
              <trackindex>3</trackindex>
              <clipindex>1</clipindex>
              <groupindex>1</groupindex>
            </link>
            <link>
              <linkclipref>clipitem-509</linkclipref>
              <mediatype>audio</mediatype>
              <trackindex>4</trackindex>
              <clipindex>1</clipindex>
              <groupindex>1</groupindex>
            </link>
            <link>
              <linkclipref>clipitem-510</linkclipref>
              <mediatype>audio</mediatype>
              <trackindex>5</trackindex>
              <clipindex>1</clipindex>
              <groupindex>1</groupindex>
            </link>
            <link>
              <linkclipref>clipitem-511</linkclipref>
              <mediatype>audio</mediatype>
              <trackindex>6</trackindex>
              <clipindex>1</clipindex>
              <groupindex>1</groupindex>
            </link>
          </clipitem>
          <clipitem id="clipitem-514" premiereChannelType="Stereo">
            <masterclipid>masterclip-3</masterclipid>
            <name>2023-03-30 21-15-31艾许决赛圈2V6 8KCC.mp4</name>
            <enabled>TRUE</enabled>
            <rate>
              <timebase>60</timebase>
              <ntsc>FALSE</ntsc>
            </rate>
            <start>10401</start>
            <end>10519</end>
            <in>9404</in>
            <out>9522</out>
            <file id="file-3"/>
            <sourcetrack>
              <mediatype>audio</mediatype>
              <trackindex>1</trackindex>
            </sourcetrack>
            <link>
              <linkclipref>clipitem-512</linkclipref>
              <mediatype>video</mediatype>
              <trackindex>1</trackindex>
              <clipindex>1</clipindex>
            </link>
            <link>
              <linkclipref>clipitem-513</linkclipref>
              <mediatype>audio</mediatype>
              <trackindex>1</trackindex>
              <clipindex>1</clipindex>
              <groupindex>1</groupindex>
            </link>
            <link>
              <linkclipref>clipitem-514</linkclipref>
              <mediatype>audio</mediatype>
              <trackindex>2</trackindex>
              <clipindex>1</clipindex>
              <groupindex>1</groupindex>
            </link>
            <link>
              <linkclipref>clipitem-515</linkclipref>
              <mediatype>audio</mediatype>
              <trackindex>3</trackindex>
              <clipindex>1</clipindex>
              <groupindex>1</groupindex>
            </link>
            <link>
              <linkclipref>clipitem-516</linkclipref>
              <mediatype>audio</mediatype>
              <trackindex>4</trackindex>
              <clipindex>1</clipindex>
              <groupindex>1</groupindex>
            </link>
            <link>
              <linkclipref>clipitem-517</linkclipref>
              <mediatype>audio</mediatype>
              <trackindex>5</trackindex>
              <clipindex>1</clipindex>
              <groupindex>1</groupindex>
            </link>
            <link>
              <linkclipref>clipitem-518</linkclipref>
              <mediatype>audio</mediatype>
              <trackindex>6</trackindex>
              <clipindex>1</clipindex>
              <groupindex>1</groupindex>
            </link>
          </clipitem>
          <clipitem id="clipitem-521" premiereChannelType="Stereo">
            <masterclipid>masterclip-3</masterclipid>
            <name>2023-03-30 21-15-31艾许决赛圈2V6 8KCC.mp4</name>
            <enabled>TRUE</enabled>
            <rate>
              <timebase>60</timebase>
              <ntsc>FALSE</ntsc>
            </rate>
            <start>10519</start>
            <end>10600</end>
            <in>9637</in>
            <out>9718</out>
            <file id="file-3"/>
            <sourcetrack>
              <mediatype>audio</mediatype>
              <trackindex>1</trackindex>
            </sourcetrack>
            <link>
              <linkclipref>clipitem-519</linkclipref>
              <mediatype>video</mediatype>
              <trackindex>1</trackindex>
              <clipindex>1</clipindex>
            </link>
            <link>
              <linkclipref>clipitem-520</linkclipref>
              <mediatype>audio</mediatype>
              <trackindex>1</trackindex>
              <clipindex>1</clipindex>
              <groupindex>1</groupindex>
            </link>
            <link>
              <linkclipref>clipitem-521</linkclipref>
              <mediatype>audio</mediatype>
              <trackindex>2</trackindex>
              <clipindex>1</clipindex>
              <groupindex>1</groupindex>
            </link>
            <link>
              <linkclipref>clipitem-522</linkclipref>
              <mediatype>audio</mediatype>
              <trackindex>3</trackindex>
              <clipindex>1</clipindex>
              <groupindex>1</groupindex>
            </link>
            <link>
              <linkclipref>clipitem-523</linkclipref>
              <mediatype>audio</mediatype>
              <trackindex>4</trackindex>
              <clipindex>1</clipindex>
              <groupindex>1</groupindex>
            </link>
            <link>
              <linkclipref>clipitem-524</linkclipref>
              <mediatype>audio</mediatype>
              <trackindex>5</trackindex>
              <clipindex>1</clipindex>
              <groupindex>1</groupindex>
            </link>
            <link>
              <linkclipref>clipitem-525</linkclipref>
              <mediatype>audio</mediatype>
              <trackindex>6</trackindex>
              <clipindex>1</clipindex>
              <groupindex>1</groupindex>
            </link>
          </clipitem>
          <clipitem id="clipitem-528" premiereChannelType="Stereo">
            <masterclipid>masterclip-3</masterclipid>
            <name>2023-03-30 21-15-31艾许决赛圈2V6 8KCC.mp4</name>
            <enabled>TRUE</enabled>
            <rate>
              <timebase>60</timebase>
              <ntsc>FALSE</ntsc>
            </rate>
            <start>10600</start>
            <end>10751</end>
            <in>10314</in>
            <out>10465</out>
            <file id="file-3"/>
            <sourcetrack>
              <mediatype>audio</mediatype>
              <trackindex>1</trackindex>
            </sourcetrack>
            <link>
              <linkclipref>clipitem-526</linkclipref>
              <mediatype>video</mediatype>
              <trackindex>1</trackindex>
              <clipindex>1</clipindex>
            </link>
            <link>
              <linkclipref>clipitem-527</linkclipref>
              <mediatype>audio</mediatype>
              <trackindex>1</trackindex>
              <clipindex>1</clipindex>
              <groupindex>1</groupindex>
            </link>
            <link>
              <linkclipref>clipitem-528</linkclipref>
              <mediatype>audio</mediatype>
              <trackindex>2</trackindex>
              <clipindex>1</clipindex>
              <groupindex>1</groupindex>
            </link>
            <link>
              <linkclipref>clipitem-529</linkclipref>
              <mediatype>audio</mediatype>
              <trackindex>3</trackindex>
              <clipindex>1</clipindex>
              <groupindex>1</groupindex>
            </link>
            <link>
              <linkclipref>clipitem-530</linkclipref>
              <mediatype>audio</mediatype>
              <trackindex>4</trackindex>
              <clipindex>1</clipindex>
              <groupindex>1</groupindex>
            </link>
            <link>
              <linkclipref>clipitem-531</linkclipref>
              <mediatype>audio</mediatype>
              <trackindex>5</trackindex>
              <clipindex>1</clipindex>
              <groupindex>1</groupindex>
            </link>
            <link>
              <linkclipref>clipitem-532</linkclipref>
              <mediatype>audio</mediatype>
              <trackindex>6</trackindex>
              <clipindex>1</clipindex>
              <groupindex>1</groupindex>
            </link>
          </clipitem>
          <clipitem id="clipitem-535" premiereChannelType="Stereo">
            <masterclipid>masterclip-3</masterclipid>
            <name>2023-03-30 21-15-31艾许决赛圈2V6 8KCC.mp4</name>
            <enabled>TRUE</enabled>
            <rate>
              <timebase>60</timebase>
              <ntsc>FALSE</ntsc>
            </rate>
            <start>10751</start>
            <end>10883</end>
            <in>10779</in>
            <out>10911</out>
            <file id="file-3"/>
            <sourcetrack>
              <mediatype>audio</mediatype>
              <trackindex>1</trackindex>
            </sourcetrack>
            <link>
              <linkclipref>clipitem-533</linkclipref>
              <mediatype>video</mediatype>
              <trackindex>1</trackindex>
              <clipindex>1</clipindex>
            </link>
            <link>
              <linkclipref>clipitem-534</linkclipref>
              <mediatype>audio</mediatype>
              <trackindex>1</trackindex>
              <clipindex>1</clipindex>
              <groupindex>1</groupindex>
            </link>
            <link>
              <linkclipref>clipitem-535</linkclipref>
              <mediatype>audio</mediatype>
              <trackindex>2</trackindex>
              <clipindex>1</clipindex>
              <groupindex>1</groupindex>
            </link>
            <link>
              <linkclipref>clipitem-536</linkclipref>
              <mediatype>audio</mediatype>
              <trackindex>3</trackindex>
              <clipindex>1</clipindex>
              <groupindex>1</groupindex>
            </link>
            <link>
              <linkclipref>clipitem-537</linkclipref>
              <mediatype>audio</mediatype>
              <trackindex>4</trackindex>
              <clipindex>1</clipindex>
              <groupindex>1</groupindex>
            </link>
            <link>
              <linkclipref>clipitem-538</linkclipref>
              <mediatype>audio</mediatype>
              <trackindex>5</trackindex>
              <clipindex>1</clipindex>
              <groupindex>1</groupindex>
            </link>
            <link>
              <linkclipref>clipitem-539</linkclipref>
              <mediatype>audio</mediatype>
              <trackindex>6</trackindex>
              <clipindex>1</clipindex>
              <groupindex>1</groupindex>
            </link>
          </clipitem>
          <clipitem id="clipitem-542" premiereChannelType="Stereo">
            <masterclipid>masterclip-3</masterclipid>
            <name>2023-03-30 21-15-31艾许决赛圈2V6 8KCC.mp4</name>
            <enabled>TRUE</enabled>
            <rate>
              <timebase>60</timebase>
              <ntsc>FALSE</ntsc>
            </rate>
            <start>10883</start>
            <end>10966</end>
            <in>10974</in>
            <out>11057</out>
            <file id="file-3"/>
            <sourcetrack>
              <mediatype>audio</mediatype>
              <trackindex>1</trackindex>
            </sourcetrack>
            <link>
              <linkclipref>clipitem-540</linkclipref>
              <mediatype>video</mediatype>
              <trackindex>1</trackindex>
              <clipindex>1</clipindex>
            </link>
            <link>
              <linkclipref>clipitem-541</linkclipref>
              <mediatype>audio</mediatype>
              <trackindex>1</trackindex>
              <clipindex>1</clipindex>
              <groupindex>1</groupindex>
            </link>
            <link>
              <linkclipref>clipitem-542</linkclipref>
              <mediatype>audio</mediatype>
              <trackindex>2</trackindex>
              <clipindex>1</clipindex>
              <groupindex>1</groupindex>
            </link>
            <link>
              <linkclipref>clipitem-543</linkclipref>
              <mediatype>audio</mediatype>
              <trackindex>3</trackindex>
              <clipindex>1</clipindex>
              <groupindex>1</groupindex>
            </link>
            <link>
              <linkclipref>clipitem-544</linkclipref>
              <mediatype>audio</mediatype>
              <trackindex>4</trackindex>
              <clipindex>1</clipindex>
              <groupindex>1</groupindex>
            </link>
            <link>
              <linkclipref>clipitem-545</linkclipref>
              <mediatype>audio</mediatype>
              <trackindex>5</trackindex>
              <clipindex>1</clipindex>
              <groupindex>1</groupindex>
            </link>
            <link>
              <linkclipref>clipitem-546</linkclipref>
              <mediatype>audio</mediatype>
              <trackindex>6</trackindex>
              <clipindex>1</clipindex>
              <groupindex>1</groupindex>
            </link>
          </clipitem>
          <clipitem id="clipitem-549" premiereChannelType="Stereo">
            <masterclipid>masterclip-3</masterclipid>
            <name>2023-03-30 21-15-31艾许决赛圈2V6 8KCC.mp4</name>
            <enabled>TRUE</enabled>
            <rate>
              <timebase>60</timebase>
              <ntsc>FALSE</ntsc>
            </rate>
            <start>10966</start>
            <end>11074</end>
            <in>11992</in>
            <out>12100</out>
            <file id="file-3"/>
            <sourcetrack>
              <mediatype>audio</mediatype>
              <trackindex>1</trackindex>
            </sourcetrack>
            <link>
              <linkclipref>clipitem-547</linkclipref>
              <mediatype>video</mediatype>
              <trackindex>1</trackindex>
              <clipindex>1</clipindex>
            </link>
            <link>
              <linkclipref>clipitem-548</linkclipref>
              <mediatype>audio</mediatype>
              <trackindex>1</trackindex>
              <clipindex>1</clipindex>
              <groupindex>1</groupindex>
            </link>
            <link>
              <linkclipref>clipitem-549</linkclipref>
              <mediatype>audio</mediatype>
              <trackindex>2</trackindex>
              <clipindex>1</clipindex>
              <groupindex>1</groupindex>
            </link>
            <link>
              <linkclipref>clipitem-550</linkclipref>
              <mediatype>audio</mediatype>
              <trackindex>3</trackindex>
              <clipindex>1</clipindex>
              <groupindex>1</groupindex>
            </link>
            <link>
              <linkclipref>clipitem-551</linkclipref>
              <mediatype>audio</mediatype>
              <trackindex>4</trackindex>
              <clipindex>1</clipindex>
              <groupindex>1</groupindex>
            </link>
            <link>
              <linkclipref>clipitem-552</linkclipref>
              <mediatype>audio</mediatype>
              <trackindex>5</trackindex>
              <clipindex>1</clipindex>
              <groupindex>1</groupindex>
            </link>
            <link>
              <linkclipref>clipitem-553</linkclipref>
              <mediatype>audio</mediatype>
              <trackindex>6</trackindex>
              <clipindex>1</clipindex>
              <groupindex>1</groupindex>
            </link>
          </clipitem>
          <clipitem id="clipitem-556" premiereChannelType="Stereo">
            <masterclipid>masterclip-3</masterclipid>
            <name>2023-03-30 21-15-31艾许决赛圈2V6 8KCC.mp4</name>
            <enabled>TRUE</enabled>
            <rate>
              <timebase>60</timebase>
              <ntsc>FALSE</ntsc>
            </rate>
            <start>11074</start>
            <end>11182</end>
            <in>12377</in>
            <out>12485</out>
            <file id="file-3"/>
            <sourcetrack>
              <mediatype>audio</mediatype>
              <trackindex>1</trackindex>
            </sourcetrack>
            <link>
              <linkclipref>clipitem-554</linkclipref>
              <mediatype>video</mediatype>
              <trackindex>1</trackindex>
              <clipindex>1</clipindex>
            </link>
            <link>
              <linkclipref>clipitem-555</linkclipref>
              <mediatype>audio</mediatype>
              <trackindex>1</trackindex>
              <clipindex>1</clipindex>
              <groupindex>1</groupindex>
            </link>
            <link>
              <linkclipref>clipitem-556</linkclipref>
              <mediatype>audio</mediatype>
              <trackindex>2</trackindex>
              <clipindex>1</clipindex>
              <groupindex>1</groupindex>
            </link>
            <link>
              <linkclipref>clipitem-557</linkclipref>
              <mediatype>audio</mediatype>
              <trackindex>3</trackindex>
              <clipindex>1</clipindex>
              <groupindex>1</groupindex>
            </link>
            <link>
              <linkclipref>clipitem-558</linkclipref>
              <mediatype>audio</mediatype>
              <trackindex>4</trackindex>
              <clipindex>1</clipindex>
              <groupindex>1</groupindex>
            </link>
            <link>
              <linkclipref>clipitem-559</linkclipref>
              <mediatype>audio</mediatype>
              <trackindex>5</trackindex>
              <clipindex>1</clipindex>
              <groupindex>1</groupindex>
            </link>
            <link>
              <linkclipref>clipitem-560</linkclipref>
              <mediatype>audio</mediatype>
              <trackindex>6</trackindex>
              <clipindex>1</clipindex>
              <groupindex>1</groupindex>
            </link>
          </clipitem>
          <clipitem id="clipitem-563" premiereChannelType="Stereo">
            <masterclipid>masterclip-3</masterclipid>
            <name>2023-03-30 21-15-31艾许决赛圈2V6 8KCC.mp4</name>
            <enabled>TRUE</enabled>
            <rate>
              <timebase>60</timebase>
              <ntsc>FALSE</ntsc>
            </rate>
            <start>11182</start>
            <end>11342</end>
            <in>13849</in>
            <out>14009</out>
            <file id="file-3"/>
            <sourcetrack>
              <mediatype>audio</mediatype>
              <trackindex>1</trackindex>
            </sourcetrack>
            <link>
              <linkclipref>clipitem-561</linkclipref>
              <mediatype>video</mediatype>
              <trackindex>1</trackindex>
              <clipindex>1</clipindex>
            </link>
            <link>
              <linkclipref>clipitem-562</linkclipref>
              <mediatype>audio</mediatype>
              <trackindex>1</trackindex>
              <clipindex>1</clipindex>
              <groupindex>1</groupindex>
            </link>
            <link>
              <linkclipref>clipitem-563</linkclipref>
              <mediatype>audio</mediatype>
              <trackindex>2</trackindex>
              <clipindex>1</clipindex>
              <groupindex>1</groupindex>
            </link>
            <link>
              <linkclipref>clipitem-564</linkclipref>
              <mediatype>audio</mediatype>
              <trackindex>3</trackindex>
              <clipindex>1</clipindex>
              <groupindex>1</groupindex>
            </link>
            <link>
              <linkclipref>clipitem-565</linkclipref>
              <mediatype>audio</mediatype>
              <trackindex>4</trackindex>
              <clipindex>1</clipindex>
              <groupindex>1</groupindex>
            </link>
            <link>
              <linkclipref>clipitem-566</linkclipref>
              <mediatype>audio</mediatype>
              <trackindex>5</trackindex>
              <clipindex>1</clipindex>
              <groupindex>1</groupindex>
            </link>
            <link>
              <linkclipref>clipitem-567</linkclipref>
              <mediatype>audio</mediatype>
              <trackindex>6</trackindex>
              <clipindex>1</clipindex>
              <groupindex>1</groupindex>
            </link>
          </clipitem>
          <clipitem id="clipitem-570" premiereChannelType="Stereo">
            <masterclipid>masterclip-3</masterclipid>
            <name>2023-03-30 21-15-31艾许决赛圈2V6 8KCC.mp4</name>
            <enabled>TRUE</enabled>
            <rate>
              <timebase>60</timebase>
              <ntsc>FALSE</ntsc>
            </rate>
            <start>11342</start>
            <end>11465</end>
            <in>14114</in>
            <out>14237</out>
            <file id="file-3"/>
            <sourcetrack>
              <mediatype>audio</mediatype>
              <trackindex>1</trackindex>
            </sourcetrack>
            <link>
              <linkclipref>clipitem-568</linkclipref>
              <mediatype>video</mediatype>
              <trackindex>1</trackindex>
              <clipindex>1</clipindex>
            </link>
            <link>
              <linkclipref>clipitem-569</linkclipref>
              <mediatype>audio</mediatype>
              <trackindex>1</trackindex>
              <clipindex>1</clipindex>
              <groupindex>1</groupindex>
            </link>
            <link>
              <linkclipref>clipitem-570</linkclipref>
              <mediatype>audio</mediatype>
              <trackindex>2</trackindex>
              <clipindex>1</clipindex>
              <groupindex>1</groupindex>
            </link>
            <link>
              <linkclipref>clipitem-571</linkclipref>
              <mediatype>audio</mediatype>
              <trackindex>3</trackindex>
              <clipindex>1</clipindex>
              <groupindex>1</groupindex>
            </link>
            <link>
              <linkclipref>clipitem-572</linkclipref>
              <mediatype>audio</mediatype>
              <trackindex>4</trackindex>
              <clipindex>1</clipindex>
              <groupindex>1</groupindex>
            </link>
            <link>
              <linkclipref>clipitem-573</linkclipref>
              <mediatype>audio</mediatype>
              <trackindex>5</trackindex>
              <clipindex>1</clipindex>
              <groupindex>1</groupindex>
            </link>
            <link>
              <linkclipref>clipitem-574</linkclipref>
              <mediatype>audio</mediatype>
              <trackindex>6</trackindex>
              <clipindex>1</clipindex>
              <groupindex>1</groupindex>
            </link>
          </clipitem>
          <clipitem id="clipitem-577" premiereChannelType="Stereo">
            <masterclipid>masterclip-3</masterclipid>
            <name>2023-03-30 21-15-31艾许决赛圈2V6 8KCC.mp4</name>
            <enabled>TRUE</enabled>
            <rate>
              <timebase>60</timebase>
              <ntsc>FALSE</ntsc>
            </rate>
            <start>11465</start>
            <end>11536</end>
            <in>14267</in>
            <out>14338</out>
            <file id="file-3"/>
            <sourcetrack>
              <mediatype>audio</mediatype>
              <trackindex>1</trackindex>
            </sourcetrack>
            <link>
              <linkclipref>clipitem-575</linkclipref>
              <mediatype>video</mediatype>
              <trackindex>1</trackindex>
              <clipindex>1</clipindex>
            </link>
            <link>
              <linkclipref>clipitem-576</linkclipref>
              <mediatype>audio</mediatype>
              <trackindex>1</trackindex>
              <clipindex>1</clipindex>
              <groupindex>1</groupindex>
            </link>
            <link>
              <linkclipref>clipitem-577</linkclipref>
              <mediatype>audio</mediatype>
              <trackindex>2</trackindex>
              <clipindex>1</clipindex>
              <groupindex>1</groupindex>
            </link>
            <link>
              <linkclipref>clipitem-578</linkclipref>
              <mediatype>audio</mediatype>
              <trackindex>3</trackindex>
              <clipindex>1</clipindex>
              <groupindex>1</groupindex>
            </link>
            <link>
              <linkclipref>clipitem-579</linkclipref>
              <mediatype>audio</mediatype>
              <trackindex>4</trackindex>
              <clipindex>1</clipindex>
              <groupindex>1</groupindex>
            </link>
            <link>
              <linkclipref>clipitem-580</linkclipref>
              <mediatype>audio</mediatype>
              <trackindex>5</trackindex>
              <clipindex>1</clipindex>
              <groupindex>1</groupindex>
            </link>
            <link>
              <linkclipref>clipitem-581</linkclipref>
              <mediatype>audio</mediatype>
              <trackindex>6</trackindex>
              <clipindex>1</clipindex>
              <groupindex>1</groupindex>
            </link>
          </clipitem>
          <clipitem id="clipitem-584" premiereChannelType="Stereo">
            <masterclipid>masterclip-3</masterclipid>
            <name>2023-03-30 21-15-31艾许决赛圈2V6 8KCC.mp4</name>
            <enabled>TRUE</enabled>
            <rate>
              <timebase>60</timebase>
              <ntsc>FALSE</ntsc>
            </rate>
            <start>11536</start>
            <end>11721</end>
            <in>15371</in>
            <out>15556</out>
            <file id="file-3"/>
            <sourcetrack>
              <mediatype>audio</mediatype>
              <trackindex>1</trackindex>
            </sourcetrack>
            <link>
              <linkclipref>clipitem-582</linkclipref>
              <mediatype>video</mediatype>
              <trackindex>1</trackindex>
              <clipindex>1</clipindex>
            </link>
            <link>
              <linkclipref>clipitem-583</linkclipref>
              <mediatype>audio</mediatype>
              <trackindex>1</trackindex>
              <clipindex>1</clipindex>
              <groupindex>1</groupindex>
            </link>
            <link>
              <linkclipref>clipitem-584</linkclipref>
              <mediatype>audio</mediatype>
              <trackindex>2</trackindex>
              <clipindex>1</clipindex>
              <groupindex>1</groupindex>
            </link>
            <link>
              <linkclipref>clipitem-585</linkclipref>
              <mediatype>audio</mediatype>
              <trackindex>3</trackindex>
              <clipindex>1</clipindex>
              <groupindex>1</groupindex>
            </link>
            <link>
              <linkclipref>clipitem-586</linkclipref>
              <mediatype>audio</mediatype>
              <trackindex>4</trackindex>
              <clipindex>1</clipindex>
              <groupindex>1</groupindex>
            </link>
            <link>
              <linkclipref>clipitem-587</linkclipref>
              <mediatype>audio</mediatype>
              <trackindex>5</trackindex>
              <clipindex>1</clipindex>
              <groupindex>1</groupindex>
            </link>
            <link>
              <linkclipref>clipitem-588</linkclipref>
              <mediatype>audio</mediatype>
              <trackindex>6</trackindex>
              <clipindex>1</clipindex>
              <groupindex>1</groupindex>
            </link>
          </clipitem>
          <clipitem id="clipitem-591" premiereChannelType="Stereo">
            <masterclipid>masterclip-3</masterclipid>
            <name>2023-03-30 21-15-31艾许决赛圈2V6 8KCC.mp4</name>
            <enabled>TRUE</enabled>
            <rate>
              <timebase>60</timebase>
              <ntsc>FALSE</ntsc>
            </rate>
            <start>11721</start>
            <end>11912</end>
            <in>16453</in>
            <out>16644</out>
            <file id="file-3"/>
            <sourcetrack>
              <mediatype>audio</mediatype>
              <trackindex>1</trackindex>
            </sourcetrack>
            <link>
              <linkclipref>clipitem-589</linkclipref>
              <mediatype>video</mediatype>
              <trackindex>1</trackindex>
              <clipindex>1</clipindex>
            </link>
            <link>
              <linkclipref>clipitem-590</linkclipref>
              <mediatype>audio</mediatype>
              <trackindex>1</trackindex>
              <clipindex>1</clipindex>
              <groupindex>1</groupindex>
            </link>
            <link>
              <linkclipref>clipitem-591</linkclipref>
              <mediatype>audio</mediatype>
              <trackindex>2</trackindex>
              <clipindex>1</clipindex>
              <groupindex>1</groupindex>
            </link>
            <link>
              <linkclipref>clipitem-592</linkclipref>
              <mediatype>audio</mediatype>
              <trackindex>3</trackindex>
              <clipindex>1</clipindex>
              <groupindex>1</groupindex>
            </link>
            <link>
              <linkclipref>clipitem-593</linkclipref>
              <mediatype>audio</mediatype>
              <trackindex>4</trackindex>
              <clipindex>1</clipindex>
              <groupindex>1</groupindex>
            </link>
            <link>
              <linkclipref>clipitem-594</linkclipref>
              <mediatype>audio</mediatype>
              <trackindex>5</trackindex>
              <clipindex>1</clipindex>
              <groupindex>1</groupindex>
            </link>
            <link>
              <linkclipref>clipitem-595</linkclipref>
              <mediatype>audio</mediatype>
              <trackindex>6</trackindex>
              <clipindex>1</clipindex>
              <groupindex>1</groupindex>
            </link>
          </clipitem>
          <clipitem id="clipitem-598" premiereChannelType="Stereo">
            <masterclipid>masterclip-3</masterclipid>
            <name>2023-03-30 21-15-31艾许决赛圈2V6 8KCC.mp4</name>
            <enabled>TRUE</enabled>
            <rate>
              <timebase>60</timebase>
              <ntsc>FALSE</ntsc>
            </rate>
            <start>11912</start>
            <end>12140</end>
            <in>16757</in>
            <out>16985</out>
            <file id="file-3"/>
            <sourcetrack>
              <mediatype>audio</mediatype>
              <trackindex>1</trackindex>
            </sourcetrack>
            <link>
              <linkclipref>clipitem-596</linkclipref>
              <mediatype>video</mediatype>
              <trackindex>1</trackindex>
              <clipindex>1</clipindex>
            </link>
            <link>
              <linkclipref>clipitem-597</linkclipref>
              <mediatype>audio</mediatype>
              <trackindex>1</trackindex>
              <clipindex>1</clipindex>
              <groupindex>1</groupindex>
            </link>
            <link>
              <linkclipref>clipitem-598</linkclipref>
              <mediatype>audio</mediatype>
              <trackindex>2</trackindex>
              <clipindex>1</clipindex>
              <groupindex>1</groupindex>
            </link>
            <link>
              <linkclipref>clipitem-599</linkclipref>
              <mediatype>audio</mediatype>
              <trackindex>3</trackindex>
              <clipindex>1</clipindex>
              <groupindex>1</groupindex>
            </link>
            <link>
              <linkclipref>clipitem-600</linkclipref>
              <mediatype>audio</mediatype>
              <trackindex>4</trackindex>
              <clipindex>1</clipindex>
              <groupindex>1</groupindex>
            </link>
            <link>
              <linkclipref>clipitem-601</linkclipref>
              <mediatype>audio</mediatype>
              <trackindex>5</trackindex>
              <clipindex>1</clipindex>
              <groupindex>1</groupindex>
            </link>
            <link>
              <linkclipref>clipitem-602</linkclipref>
              <mediatype>audio</mediatype>
              <trackindex>6</trackindex>
              <clipindex>1</clipindex>
              <groupindex>1</groupindex>
            </link>
          </clipitem>
          <clipitem id="clipitem-605" premiereChannelType="Stereo">
            <masterclipid>masterclip-3</masterclipid>
            <name>2023-03-30 21-15-31艾许决赛圈2V6 8KCC.mp4</name>
            <enabled>TRUE</enabled>
            <rate>
              <timebase>60</timebase>
              <ntsc>FALSE</ntsc>
            </rate>
            <start>12140</start>
            <end>12316</end>
            <in>17536</in>
            <out>17712</out>
            <file id="file-3"/>
            <sourcetrack>
              <mediatype>audio</mediatype>
              <trackindex>1</trackindex>
            </sourcetrack>
            <link>
              <linkclipref>clipitem-603</linkclipref>
              <mediatype>video</mediatype>
              <trackindex>1</trackindex>
              <clipindex>1</clipindex>
            </link>
            <link>
              <linkclipref>clipitem-604</linkclipref>
              <mediatype>audio</mediatype>
              <trackindex>1</trackindex>
              <clipindex>1</clipindex>
              <groupindex>1</groupindex>
            </link>
            <link>
              <linkclipref>clipitem-605</linkclipref>
              <mediatype>audio</mediatype>
              <trackindex>2</trackindex>
              <clipindex>1</clipindex>
              <groupindex>1</groupindex>
            </link>
            <link>
              <linkclipref>clipitem-606</linkclipref>
              <mediatype>audio</mediatype>
              <trackindex>3</trackindex>
              <clipindex>1</clipindex>
              <groupindex>1</groupindex>
            </link>
            <link>
              <linkclipref>clipitem-607</linkclipref>
              <mediatype>audio</mediatype>
              <trackindex>4</trackindex>
              <clipindex>1</clipindex>
              <groupindex>1</groupindex>
            </link>
            <link>
              <linkclipref>clipitem-608</linkclipref>
              <mediatype>audio</mediatype>
              <trackindex>5</trackindex>
              <clipindex>1</clipindex>
              <groupindex>1</groupindex>
            </link>
            <link>
              <linkclipref>clipitem-609</linkclipref>
              <mediatype>audio</mediatype>
              <trackindex>6</trackindex>
              <clipindex>1</clipindex>
              <groupindex>1</groupindex>
            </link>
          </clipitem>
          <clipitem id="clipitem-612" premiereChannelType="Stereo">
            <masterclipid>masterclip-3</masterclipid>
            <name>2023-03-30 21-15-31艾许决赛圈2V6 8KCC.mp4</name>
            <enabled>TRUE</enabled>
            <rate>
              <timebase>60</timebase>
              <ntsc>FALSE</ntsc>
            </rate>
            <start>12316</start>
            <end>12524</end>
            <in>18299</in>
            <out>18507</out>
            <file id="file-3"/>
            <sourcetrack>
              <mediatype>audio</mediatype>
              <trackindex>1</trackindex>
            </sourcetrack>
            <link>
              <linkclipref>clipitem-610</linkclipref>
              <mediatype>video</mediatype>
              <trackindex>1</trackindex>
              <clipindex>1</clipindex>
            </link>
            <link>
              <linkclipref>clipitem-611</linkclipref>
              <mediatype>audio</mediatype>
              <trackindex>1</trackindex>
              <clipindex>1</clipindex>
              <groupindex>1</groupindex>
            </link>
            <link>
              <linkclipref>clipitem-612</linkclipref>
              <mediatype>audio</mediatype>
              <trackindex>2</trackindex>
              <clipindex>1</clipindex>
              <groupindex>1</groupindex>
            </link>
            <link>
              <linkclipref>clipitem-613</linkclipref>
              <mediatype>audio</mediatype>
              <trackindex>3</trackindex>
              <clipindex>1</clipindex>
              <groupindex>1</groupindex>
            </link>
            <link>
              <linkclipref>clipitem-614</linkclipref>
              <mediatype>audio</mediatype>
              <trackindex>4</trackindex>
              <clipindex>1</clipindex>
              <groupindex>1</groupindex>
            </link>
            <link>
              <linkclipref>clipitem-615</linkclipref>
              <mediatype>audio</mediatype>
              <trackindex>5</trackindex>
              <clipindex>1</clipindex>
              <groupindex>1</groupindex>
            </link>
            <link>
              <linkclipref>clipitem-616</linkclipref>
              <mediatype>audio</mediatype>
              <trackindex>6</trackindex>
              <clipindex>1</clipindex>
              <groupindex>1</groupindex>
            </link>
          </clipitem>
          <clipitem id="clipitem-619" premiereChannelType="Stereo">
            <masterclipid>masterclip-3</masterclipid>
            <name>2023-03-30 21-15-31艾许决赛圈2V6 8KCC.mp4</name>
            <enabled>TRUE</enabled>
            <rate>
              <timebase>60</timebase>
              <ntsc>FALSE</ntsc>
            </rate>
            <start>12524</start>
            <end>12590</end>
            <in>18532</in>
            <out>18598</out>
            <file id="file-3"/>
            <sourcetrack>
              <mediatype>audio</mediatype>
              <trackindex>1</trackindex>
            </sourcetrack>
            <link>
              <linkclipref>clipitem-617</linkclipref>
              <mediatype>video</mediatype>
              <trackindex>1</trackindex>
              <clipindex>1</clipindex>
            </link>
            <link>
              <linkclipref>clipitem-618</linkclipref>
              <mediatype>audio</mediatype>
              <trackindex>1</trackindex>
              <clipindex>1</clipindex>
              <groupindex>1</groupindex>
            </link>
            <link>
              <linkclipref>clipitem-619</linkclipref>
              <mediatype>audio</mediatype>
              <trackindex>2</trackindex>
              <clipindex>1</clipindex>
              <groupindex>1</groupindex>
            </link>
            <link>
              <linkclipref>clipitem-620</linkclipref>
              <mediatype>audio</mediatype>
              <trackindex>3</trackindex>
              <clipindex>1</clipindex>
              <groupindex>1</groupindex>
            </link>
            <link>
              <linkclipref>clipitem-621</linkclipref>
              <mediatype>audio</mediatype>
              <trackindex>4</trackindex>
              <clipindex>1</clipindex>
              <groupindex>1</groupindex>
            </link>
            <link>
              <linkclipref>clipitem-622</linkclipref>
              <mediatype>audio</mediatype>
              <trackindex>5</trackindex>
              <clipindex>1</clipindex>
              <groupindex>1</groupindex>
            </link>
            <link>
              <linkclipref>clipitem-623</linkclipref>
              <mediatype>audio</mediatype>
              <trackindex>6</trackindex>
              <clipindex>1</clipindex>
              <groupindex>1</groupindex>
            </link>
          </clipitem>
          <clipitem id="clipitem-626" premiereChannelType="Stereo">
            <masterclipid>masterclip-3</masterclipid>
            <name>2023-03-30 21-15-31艾许决赛圈2V6 8KCC.mp4</name>
            <enabled>TRUE</enabled>
            <rate>
              <timebase>60</timebase>
              <ntsc>FALSE</ntsc>
            </rate>
            <start>12590</start>
            <end>12690</end>
            <in>18756</in>
            <out>18856</out>
            <file id="file-3"/>
            <sourcetrack>
              <mediatype>audio</mediatype>
              <trackindex>1</trackindex>
            </sourcetrack>
            <link>
              <linkclipref>clipitem-624</linkclipref>
              <mediatype>video</mediatype>
              <trackindex>1</trackindex>
              <clipindex>1</clipindex>
            </link>
            <link>
              <linkclipref>clipitem-625</linkclipref>
              <mediatype>audio</mediatype>
              <trackindex>1</trackindex>
              <clipindex>1</clipindex>
              <groupindex>1</groupindex>
            </link>
            <link>
              <linkclipref>clipitem-626</linkclipref>
              <mediatype>audio</mediatype>
              <trackindex>2</trackindex>
              <clipindex>1</clipindex>
              <groupindex>1</groupindex>
            </link>
            <link>
              <linkclipref>clipitem-627</linkclipref>
              <mediatype>audio</mediatype>
              <trackindex>3</trackindex>
              <clipindex>1</clipindex>
              <groupindex>1</groupindex>
            </link>
            <link>
              <linkclipref>clipitem-628</linkclipref>
              <mediatype>audio</mediatype>
              <trackindex>4</trackindex>
              <clipindex>1</clipindex>
              <groupindex>1</groupindex>
            </link>
            <link>
              <linkclipref>clipitem-629</linkclipref>
              <mediatype>audio</mediatype>
              <trackindex>5</trackindex>
              <clipindex>1</clipindex>
              <groupindex>1</groupindex>
            </link>
            <link>
              <linkclipref>clipitem-630</linkclipref>
              <mediatype>audio</mediatype>
              <trackindex>6</trackindex>
              <clipindex>1</clipindex>
              <groupindex>1</groupindex>
            </link>
          </clipitem>
          <clipitem id="clipitem-633" premiereChannelType="Stereo">
            <masterclipid>masterclip-3</masterclipid>
            <name>2023-03-30 21-15-31艾许决赛圈2V6 8KCC.mp4</name>
            <enabled>TRUE</enabled>
            <rate>
              <timebase>60</timebase>
              <ntsc>FALSE</ntsc>
            </rate>
            <start>12690</start>
            <end>12770</end>
            <in>29766</in>
            <out>29846</out>
            <file id="file-3"/>
            <sourcetrack>
              <mediatype>audio</mediatype>
              <trackindex>1</trackindex>
            </sourcetrack>
            <link>
              <linkclipref>clipitem-631</linkclipref>
              <mediatype>video</mediatype>
              <trackindex>1</trackindex>
              <clipindex>1</clipindex>
            </link>
            <link>
              <linkclipref>clipitem-632</linkclipref>
              <mediatype>audio</mediatype>
              <trackindex>1</trackindex>
              <clipindex>1</clipindex>
              <groupindex>1</groupindex>
            </link>
            <link>
              <linkclipref>clipitem-633</linkclipref>
              <mediatype>audio</mediatype>
              <trackindex>2</trackindex>
              <clipindex>1</clipindex>
              <groupindex>1</groupindex>
            </link>
            <link>
              <linkclipref>clipitem-634</linkclipref>
              <mediatype>audio</mediatype>
              <trackindex>3</trackindex>
              <clipindex>1</clipindex>
              <groupindex>1</groupindex>
            </link>
            <link>
              <linkclipref>clipitem-635</linkclipref>
              <mediatype>audio</mediatype>
              <trackindex>4</trackindex>
              <clipindex>1</clipindex>
              <groupindex>1</groupindex>
            </link>
            <link>
              <linkclipref>clipitem-636</linkclipref>
              <mediatype>audio</mediatype>
              <trackindex>5</trackindex>
              <clipindex>1</clipindex>
              <groupindex>1</groupindex>
            </link>
            <link>
              <linkclipref>clipitem-637</linkclipref>
              <mediatype>audio</mediatype>
              <trackindex>6</trackindex>
              <clipindex>1</clipindex>
              <groupindex>1</groupindex>
            </link>
          </clipitem>
          <clipitem id="clipitem-640" premiereChannelType="Stereo">
            <masterclipid>masterclip-3</masterclipid>
            <name>2023-03-30 21-15-31艾许决赛圈2V6 8KCC.mp4</name>
            <enabled>TRUE</enabled>
            <rate>
              <timebase>60</timebase>
              <ntsc>FALSE</ntsc>
            </rate>
            <start>12770</start>
            <end>12919</end>
            <in>30276</in>
            <out>30425</out>
            <file id="file-3"/>
            <sourcetrack>
              <mediatype>audio</mediatype>
              <trackindex>1</trackindex>
            </sourcetrack>
            <link>
              <linkclipref>clipitem-638</linkclipref>
              <mediatype>video</mediatype>
              <trackindex>1</trackindex>
              <clipindex>1</clipindex>
            </link>
            <link>
              <linkclipref>clipitem-639</linkclipref>
              <mediatype>audio</mediatype>
              <trackindex>1</trackindex>
              <clipindex>1</clipindex>
              <groupindex>1</groupindex>
            </link>
            <link>
              <linkclipref>clipitem-640</linkclipref>
              <mediatype>audio</mediatype>
              <trackindex>2</trackindex>
              <clipindex>1</clipindex>
              <groupindex>1</groupindex>
            </link>
            <link>
              <linkclipref>clipitem-641</linkclipref>
              <mediatype>audio</mediatype>
              <trackindex>3</trackindex>
              <clipindex>1</clipindex>
              <groupindex>1</groupindex>
            </link>
            <link>
              <linkclipref>clipitem-642</linkclipref>
              <mediatype>audio</mediatype>
              <trackindex>4</trackindex>
              <clipindex>1</clipindex>
              <groupindex>1</groupindex>
            </link>
            <link>
              <linkclipref>clipitem-643</linkclipref>
              <mediatype>audio</mediatype>
              <trackindex>5</trackindex>
              <clipindex>1</clipindex>
              <groupindex>1</groupindex>
            </link>
            <link>
              <linkclipref>clipitem-644</linkclipref>
              <mediatype>audio</mediatype>
              <trackindex>6</trackindex>
              <clipindex>1</clipindex>
              <groupindex>1</groupindex>
            </link>
          </clipitem>
          <clipitem id="clipitem-647" premiereChannelType="Stereo">
            <masterclipid>masterclip-3</masterclipid>
            <name>2023-03-30 21-15-31艾许决赛圈2V6 8KCC.mp4</name>
            <enabled>TRUE</enabled>
            <rate>
              <timebase>60</timebase>
              <ntsc>FALSE</ntsc>
            </rate>
            <start>12919</start>
            <end>13039</end>
            <in>30422</in>
            <out>30542</out>
            <file id="file-3"/>
            <sourcetrack>
              <mediatype>audio</mediatype>
              <trackindex>1</trackindex>
            </sourcetrack>
            <link>
              <linkclipref>clipitem-645</linkclipref>
              <mediatype>video</mediatype>
              <trackindex>1</trackindex>
              <clipindex>1</clipindex>
            </link>
            <link>
              <linkclipref>clipitem-646</linkclipref>
              <mediatype>audio</mediatype>
              <trackindex>1</trackindex>
              <clipindex>1</clipindex>
              <groupindex>1</groupindex>
            </link>
            <link>
              <linkclipref>clipitem-647</linkclipref>
              <mediatype>audio</mediatype>
              <trackindex>2</trackindex>
              <clipindex>1</clipindex>
              <groupindex>1</groupindex>
            </link>
            <link>
              <linkclipref>clipitem-648</linkclipref>
              <mediatype>audio</mediatype>
              <trackindex>3</trackindex>
              <clipindex>1</clipindex>
              <groupindex>1</groupindex>
            </link>
            <link>
              <linkclipref>clipitem-649</linkclipref>
              <mediatype>audio</mediatype>
              <trackindex>4</trackindex>
              <clipindex>1</clipindex>
              <groupindex>1</groupindex>
            </link>
            <link>
              <linkclipref>clipitem-650</linkclipref>
              <mediatype>audio</mediatype>
              <trackindex>5</trackindex>
              <clipindex>1</clipindex>
              <groupindex>1</groupindex>
            </link>
            <link>
              <linkclipref>clipitem-651</linkclipref>
              <mediatype>audio</mediatype>
              <trackindex>6</trackindex>
              <clipindex>1</clipindex>
              <groupindex>1</groupindex>
            </link>
          </clipitem>
          <clipitem id="clipitem-654" premiereChannelType="Stereo">
            <masterclipid>masterclip-3</masterclipid>
            <name>2023-03-30 21-15-31艾许决赛圈2V6 8KCC.mp4</name>
            <enabled>TRUE</enabled>
            <rate>
              <timebase>60</timebase>
              <ntsc>FALSE</ntsc>
            </rate>
            <start>13039</start>
            <end>13141</end>
            <in>30545</in>
            <out>30647</out>
            <file id="file-3"/>
            <sourcetrack>
              <mediatype>audio</mediatype>
              <trackindex>1</trackindex>
            </sourcetrack>
            <link>
              <linkclipref>clipitem-652</linkclipref>
              <mediatype>video</mediatype>
              <trackindex>1</trackindex>
              <clipindex>1</clipindex>
            </link>
            <link>
              <linkclipref>clipitem-653</linkclipref>
              <mediatype>audio</mediatype>
              <trackindex>1</trackindex>
              <clipindex>1</clipindex>
              <groupindex>1</groupindex>
            </link>
            <link>
              <linkclipref>clipitem-654</linkclipref>
              <mediatype>audio</mediatype>
              <trackindex>2</trackindex>
              <clipindex>1</clipindex>
              <groupindex>1</groupindex>
            </link>
            <link>
              <linkclipref>clipitem-655</linkclipref>
              <mediatype>audio</mediatype>
              <trackindex>3</trackindex>
              <clipindex>1</clipindex>
              <groupindex>1</groupindex>
            </link>
            <link>
              <linkclipref>clipitem-656</linkclipref>
              <mediatype>audio</mediatype>
              <trackindex>4</trackindex>
              <clipindex>1</clipindex>
              <groupindex>1</groupindex>
            </link>
            <link>
              <linkclipref>clipitem-657</linkclipref>
              <mediatype>audio</mediatype>
              <trackindex>5</trackindex>
              <clipindex>1</clipindex>
              <groupindex>1</groupindex>
            </link>
            <link>
              <linkclipref>clipitem-658</linkclipref>
              <mediatype>audio</mediatype>
              <trackindex>6</trackindex>
              <clipindex>1</clipindex>
              <groupindex>1</groupindex>
            </link>
          </clipitem>
          <clipitem id="clipitem-661" premiereChannelType="Stereo">
            <masterclipid>masterclip-3</masterclipid>
            <name>2023-03-30 21-15-31艾许决赛圈2V6 8KCC.mp4</name>
            <enabled>TRUE</enabled>
            <rate>
              <timebase>60</timebase>
              <ntsc>FALSE</ntsc>
            </rate>
            <start>13141</start>
            <end>13330</end>
            <in>32618</in>
            <out>32807</out>
            <file id="file-3"/>
            <sourcetrack>
              <mediatype>audio</mediatype>
              <trackindex>1</trackindex>
            </sourcetrack>
            <link>
              <linkclipref>clipitem-659</linkclipref>
              <mediatype>video</mediatype>
              <trackindex>1</trackindex>
              <clipindex>1</clipindex>
            </link>
            <link>
              <linkclipref>clipitem-660</linkclipref>
              <mediatype>audio</mediatype>
              <trackindex>1</trackindex>
              <clipindex>1</clipindex>
              <groupindex>1</groupindex>
            </link>
            <link>
              <linkclipref>clipitem-661</linkclipref>
              <mediatype>audio</mediatype>
              <trackindex>2</trackindex>
              <clipindex>1</clipindex>
              <groupindex>1</groupindex>
            </link>
            <link>
              <linkclipref>clipitem-662</linkclipref>
              <mediatype>audio</mediatype>
              <trackindex>3</trackindex>
              <clipindex>1</clipindex>
              <groupindex>1</groupindex>
            </link>
            <link>
              <linkclipref>clipitem-663</linkclipref>
              <mediatype>audio</mediatype>
              <trackindex>4</trackindex>
              <clipindex>1</clipindex>
              <groupindex>1</groupindex>
            </link>
            <link>
              <linkclipref>clipitem-664</linkclipref>
              <mediatype>audio</mediatype>
              <trackindex>5</trackindex>
              <clipindex>1</clipindex>
              <groupindex>1</groupindex>
            </link>
            <link>
              <linkclipref>clipitem-665</linkclipref>
              <mediatype>audio</mediatype>
              <trackindex>6</trackindex>
              <clipindex>1</clipindex>
              <groupindex>1</groupindex>
            </link>
          </clipitem>
          <clipitem id="clipitem-668" premiereChannelType="Stereo">
            <masterclipid>masterclip-3</masterclipid>
            <name>2023-03-30 21-15-31艾许决赛圈2V6 8KCC.mp4</name>
            <enabled>TRUE</enabled>
            <rate>
              <timebase>60</timebase>
              <ntsc>FALSE</ntsc>
            </rate>
            <start>13330</start>
            <end>13454</end>
            <in>33866</in>
            <out>33990</out>
            <file id="file-3"/>
            <sourcetrack>
              <mediatype>audio</mediatype>
              <trackindex>1</trackindex>
            </sourcetrack>
            <link>
              <linkclipref>clipitem-666</linkclipref>
              <mediatype>video</mediatype>
              <trackindex>1</trackindex>
              <clipindex>1</clipindex>
            </link>
            <link>
              <linkclipref>clipitem-667</linkclipref>
              <mediatype>audio</mediatype>
              <trackindex>1</trackindex>
              <clipindex>1</clipindex>
              <groupindex>1</groupindex>
            </link>
            <link>
              <linkclipref>clipitem-668</linkclipref>
              <mediatype>audio</mediatype>
              <trackindex>2</trackindex>
              <clipindex>1</clipindex>
              <groupindex>1</groupindex>
            </link>
            <link>
              <linkclipref>clipitem-669</linkclipref>
              <mediatype>audio</mediatype>
              <trackindex>3</trackindex>
              <clipindex>1</clipindex>
              <groupindex>1</groupindex>
            </link>
            <link>
              <linkclipref>clipitem-670</linkclipref>
              <mediatype>audio</mediatype>
              <trackindex>4</trackindex>
              <clipindex>1</clipindex>
              <groupindex>1</groupindex>
            </link>
            <link>
              <linkclipref>clipitem-671</linkclipref>
              <mediatype>audio</mediatype>
              <trackindex>5</trackindex>
              <clipindex>1</clipindex>
              <groupindex>1</groupindex>
            </link>
            <link>
              <linkclipref>clipitem-672</linkclipref>
              <mediatype>audio</mediatype>
              <trackindex>6</trackindex>
              <clipindex>1</clipindex>
              <groupindex>1</groupindex>
            </link>
          </clipitem>
          <clipitem id="clipitem-675" premiereChannelType="Stereo">
            <masterclipid>masterclip-3</masterclipid>
            <name>2023-03-30 21-15-31艾许决赛圈2V6 8KCC.mp4</name>
            <enabled>TRUE</enabled>
            <rate>
              <timebase>60</timebase>
              <ntsc>FALSE</ntsc>
            </rate>
            <start>13454</start>
            <end>13564</end>
            <in>41673</in>
            <out>41783</out>
            <file id="file-3"/>
            <sourcetrack>
              <mediatype>audio</mediatype>
              <trackindex>1</trackindex>
            </sourcetrack>
            <link>
              <linkclipref>clipitem-673</linkclipref>
              <mediatype>video</mediatype>
              <trackindex>1</trackindex>
              <clipindex>1</clipindex>
            </link>
            <link>
              <linkclipref>clipitem-674</linkclipref>
              <mediatype>audio</mediatype>
              <trackindex>1</trackindex>
              <clipindex>1</clipindex>
              <groupindex>1</groupindex>
            </link>
            <link>
              <linkclipref>clipitem-675</linkclipref>
              <mediatype>audio</mediatype>
              <trackindex>2</trackindex>
              <clipindex>1</clipindex>
              <groupindex>1</groupindex>
            </link>
            <link>
              <linkclipref>clipitem-676</linkclipref>
              <mediatype>audio</mediatype>
              <trackindex>3</trackindex>
              <clipindex>1</clipindex>
              <groupindex>1</groupindex>
            </link>
            <link>
              <linkclipref>clipitem-677</linkclipref>
              <mediatype>audio</mediatype>
              <trackindex>4</trackindex>
              <clipindex>1</clipindex>
              <groupindex>1</groupindex>
            </link>
            <link>
              <linkclipref>clipitem-678</linkclipref>
              <mediatype>audio</mediatype>
              <trackindex>5</trackindex>
              <clipindex>1</clipindex>
              <groupindex>1</groupindex>
            </link>
            <link>
              <linkclipref>clipitem-679</linkclipref>
              <mediatype>audio</mediatype>
              <trackindex>6</trackindex>
              <clipindex>1</clipindex>
              <groupindex>1</groupindex>
            </link>
          </clipitem>
          <clipitem id="clipitem-682" premiereChannelType="Stereo">
            <masterclipid>masterclip-3</masterclipid>
            <name>2023-03-30 21-15-31艾许决赛圈2V6 8KCC.mp4</name>
            <enabled>TRUE</enabled>
            <rate>
              <timebase>60</timebase>
              <ntsc>FALSE</ntsc>
            </rate>
            <start>13564</start>
            <end>13644</end>
            <in>42037</in>
            <out>42117</out>
            <file id="file-3"/>
            <sourcetrack>
              <mediatype>audio</mediatype>
              <trackindex>1</trackindex>
            </sourcetrack>
            <link>
              <linkclipref>clipitem-680</linkclipref>
              <mediatype>video</mediatype>
              <trackindex>1</trackindex>
              <clipindex>1</clipindex>
            </link>
            <link>
              <linkclipref>clipitem-681</linkclipref>
              <mediatype>audio</mediatype>
              <trackindex>1</trackindex>
              <clipindex>1</clipindex>
              <groupindex>1</groupindex>
            </link>
            <link>
              <linkclipref>clipitem-682</linkclipref>
              <mediatype>audio</mediatype>
              <trackindex>2</trackindex>
              <clipindex>1</clipindex>
              <groupindex>1</groupindex>
            </link>
            <link>
              <linkclipref>clipitem-683</linkclipref>
              <mediatype>audio</mediatype>
              <trackindex>3</trackindex>
              <clipindex>1</clipindex>
              <groupindex>1</groupindex>
            </link>
            <link>
              <linkclipref>clipitem-684</linkclipref>
              <mediatype>audio</mediatype>
              <trackindex>4</trackindex>
              <clipindex>1</clipindex>
              <groupindex>1</groupindex>
            </link>
            <link>
              <linkclipref>clipitem-685</linkclipref>
              <mediatype>audio</mediatype>
              <trackindex>5</trackindex>
              <clipindex>1</clipindex>
              <groupindex>1</groupindex>
            </link>
            <link>
              <linkclipref>clipitem-686</linkclipref>
              <mediatype>audio</mediatype>
              <trackindex>6</trackindex>
              <clipindex>1</clipindex>
              <groupindex>1</groupindex>
            </link>
          </clipitem>
          <clipitem id="clipitem-689" premiereChannelType="Stereo">
            <masterclipid>masterclip-3</masterclipid>
            <name>2023-03-30 21-15-31艾许决赛圈2V6 8KCC.mp4</name>
            <enabled>TRUE</enabled>
            <rate>
              <timebase>60</timebase>
              <ntsc>FALSE</ntsc>
            </rate>
            <start>13644</start>
            <end>13724</end>
            <in>43943</in>
            <out>44023</out>
            <file id="file-3"/>
            <sourcetrack>
              <mediatype>audio</mediatype>
              <trackindex>1</trackindex>
            </sourcetrack>
            <link>
              <linkclipref>clipitem-687</linkclipref>
              <mediatype>video</mediatype>
              <trackindex>1</trackindex>
              <clipindex>1</clipindex>
            </link>
            <link>
              <linkclipref>clipitem-688</linkclipref>
              <mediatype>audio</mediatype>
              <trackindex>1</trackindex>
              <clipindex>1</clipindex>
              <groupindex>1</groupindex>
            </link>
            <link>
              <linkclipref>clipitem-689</linkclipref>
              <mediatype>audio</mediatype>
              <trackindex>2</trackindex>
              <clipindex>1</clipindex>
              <groupindex>1</groupindex>
            </link>
            <link>
              <linkclipref>clipitem-690</linkclipref>
              <mediatype>audio</mediatype>
              <trackindex>3</trackindex>
              <clipindex>1</clipindex>
              <groupindex>1</groupindex>
            </link>
            <link>
              <linkclipref>clipitem-691</linkclipref>
              <mediatype>audio</mediatype>
              <trackindex>4</trackindex>
              <clipindex>1</clipindex>
              <groupindex>1</groupindex>
            </link>
            <link>
              <linkclipref>clipitem-692</linkclipref>
              <mediatype>audio</mediatype>
              <trackindex>5</trackindex>
              <clipindex>1</clipindex>
              <groupindex>1</groupindex>
            </link>
            <link>
              <linkclipref>clipitem-693</linkclipref>
              <mediatype>audio</mediatype>
              <trackindex>6</trackindex>
              <clipindex>1</clipindex>
              <groupindex>1</groupindex>
            </link>
          </clipitem>
          <clipitem id="clipitem-696" premiereChannelType="Stereo">
            <masterclipid>masterclip-3</masterclipid>
            <name>2023-03-30 21-15-31艾许决赛圈2V6 8KCC.mp4</name>
            <enabled>TRUE</enabled>
            <rate>
              <timebase>60</timebase>
              <ntsc>FALSE</ntsc>
            </rate>
            <start>13724</start>
            <end>13838</end>
            <in>44030</in>
            <out>44144</out>
            <file id="file-3"/>
            <sourcetrack>
              <mediatype>audio</mediatype>
              <trackindex>1</trackindex>
            </sourcetrack>
            <link>
              <linkclipref>clipitem-694</linkclipref>
              <mediatype>video</mediatype>
              <trackindex>1</trackindex>
              <clipindex>1</clipindex>
            </link>
            <link>
              <linkclipref>clipitem-695</linkclipref>
              <mediatype>audio</mediatype>
              <trackindex>1</trackindex>
              <clipindex>1</clipindex>
              <groupindex>1</groupindex>
            </link>
            <link>
              <linkclipref>clipitem-696</linkclipref>
              <mediatype>audio</mediatype>
              <trackindex>2</trackindex>
              <clipindex>1</clipindex>
              <groupindex>1</groupindex>
            </link>
            <link>
              <linkclipref>clipitem-697</linkclipref>
              <mediatype>audio</mediatype>
              <trackindex>3</trackindex>
              <clipindex>1</clipindex>
              <groupindex>1</groupindex>
            </link>
            <link>
              <linkclipref>clipitem-698</linkclipref>
              <mediatype>audio</mediatype>
              <trackindex>4</trackindex>
              <clipindex>1</clipindex>
              <groupindex>1</groupindex>
            </link>
            <link>
              <linkclipref>clipitem-699</linkclipref>
              <mediatype>audio</mediatype>
              <trackindex>5</trackindex>
              <clipindex>1</clipindex>
              <groupindex>1</groupindex>
            </link>
            <link>
              <linkclipref>clipitem-700</linkclipref>
              <mediatype>audio</mediatype>
              <trackindex>6</trackindex>
              <clipindex>1</clipindex>
              <groupindex>1</groupindex>
            </link>
          </clipitem>
          <clipitem id="clipitem-703" premiereChannelType="Stereo">
            <masterclipid>masterclip-3</masterclipid>
            <name>2023-03-30 21-15-31艾许决赛圈2V6 8KCC.mp4</name>
            <enabled>TRUE</enabled>
            <rate>
              <timebase>60</timebase>
              <ntsc>FALSE</ntsc>
            </rate>
            <start>13838</start>
            <end>13903</end>
            <in>44850</in>
            <out>44915</out>
            <file id="file-3"/>
            <sourcetrack>
              <mediatype>audio</mediatype>
              <trackindex>1</trackindex>
            </sourcetrack>
            <link>
              <linkclipref>clipitem-701</linkclipref>
              <mediatype>video</mediatype>
              <trackindex>1</trackindex>
              <clipindex>1</clipindex>
            </link>
            <link>
              <linkclipref>clipitem-702</linkclipref>
              <mediatype>audio</mediatype>
              <trackindex>1</trackindex>
              <clipindex>1</clipindex>
              <groupindex>1</groupindex>
            </link>
            <link>
              <linkclipref>clipitem-703</linkclipref>
              <mediatype>audio</mediatype>
              <trackindex>2</trackindex>
              <clipindex>1</clipindex>
              <groupindex>1</groupindex>
            </link>
            <link>
              <linkclipref>clipitem-704</linkclipref>
              <mediatype>audio</mediatype>
              <trackindex>3</trackindex>
              <clipindex>1</clipindex>
              <groupindex>1</groupindex>
            </link>
            <link>
              <linkclipref>clipitem-705</linkclipref>
              <mediatype>audio</mediatype>
              <trackindex>4</trackindex>
              <clipindex>1</clipindex>
              <groupindex>1</groupindex>
            </link>
            <link>
              <linkclipref>clipitem-706</linkclipref>
              <mediatype>audio</mediatype>
              <trackindex>5</trackindex>
              <clipindex>1</clipindex>
              <groupindex>1</groupindex>
            </link>
            <link>
              <linkclipref>clipitem-707</linkclipref>
              <mediatype>audio</mediatype>
              <trackindex>6</trackindex>
              <clipindex>1</clipindex>
              <groupindex>1</groupindex>
            </link>
          </clipitem>
          <clipitem id="clipitem-710" premiereChannelType="Stereo">
            <masterclipid>masterclip-3</masterclipid>
            <name>2023-03-30 21-15-31艾许决赛圈2V6 8KCC.mp4</name>
            <enabled>TRUE</enabled>
            <rate>
              <timebase>60</timebase>
              <ntsc>FALSE</ntsc>
            </rate>
            <start>13903</start>
            <end>14190</end>
            <in>46715</in>
            <out>47002</out>
            <file id="file-3"/>
            <sourcetrack>
              <mediatype>audio</mediatype>
              <trackindex>1</trackindex>
            </sourcetrack>
            <link>
              <linkclipref>clipitem-708</linkclipref>
              <mediatype>video</mediatype>
              <trackindex>1</trackindex>
              <clipindex>1</clipindex>
            </link>
            <link>
              <linkclipref>clipitem-709</linkclipref>
              <mediatype>audio</mediatype>
              <trackindex>1</trackindex>
              <clipindex>1</clipindex>
              <groupindex>1</groupindex>
            </link>
            <link>
              <linkclipref>clipitem-710</linkclipref>
              <mediatype>audio</mediatype>
              <trackindex>2</trackindex>
              <clipindex>1</clipindex>
              <groupindex>1</groupindex>
            </link>
            <link>
              <linkclipref>clipitem-711</linkclipref>
              <mediatype>audio</mediatype>
              <trackindex>3</trackindex>
              <clipindex>1</clipindex>
              <groupindex>1</groupindex>
            </link>
            <link>
              <linkclipref>clipitem-712</linkclipref>
              <mediatype>audio</mediatype>
              <trackindex>4</trackindex>
              <clipindex>1</clipindex>
              <groupindex>1</groupindex>
            </link>
            <link>
              <linkclipref>clipitem-713</linkclipref>
              <mediatype>audio</mediatype>
              <trackindex>5</trackindex>
              <clipindex>1</clipindex>
              <groupindex>1</groupindex>
            </link>
            <link>
              <linkclipref>clipitem-714</linkclipref>
              <mediatype>audio</mediatype>
              <trackindex>6</trackindex>
              <clipindex>1</clipindex>
              <groupindex>1</groupindex>
            </link>
          </clipitem>
          <clipitem id="clipitem-717" premiereChannelType="Stereo">
            <masterclipid>masterclip-3</masterclipid>
            <name>2023-03-30 21-15-31艾许决赛圈2V6 8KCC.mp4</name>
            <enabled>TRUE</enabled>
            <rate>
              <timebase>60</timebase>
              <ntsc>FALSE</ntsc>
            </rate>
            <start>14190</start>
            <end>14385</end>
            <in>48602</in>
            <out>48797</out>
            <file id="file-3"/>
            <sourcetrack>
              <mediatype>audio</mediatype>
              <trackindex>1</trackindex>
            </sourcetrack>
            <link>
              <linkclipref>clipitem-715</linkclipref>
              <mediatype>video</mediatype>
              <trackindex>1</trackindex>
              <clipindex>1</clipindex>
            </link>
            <link>
              <linkclipref>clipitem-716</linkclipref>
              <mediatype>audio</mediatype>
              <trackindex>1</trackindex>
              <clipindex>1</clipindex>
              <groupindex>1</groupindex>
            </link>
            <link>
              <linkclipref>clipitem-717</linkclipref>
              <mediatype>audio</mediatype>
              <trackindex>2</trackindex>
              <clipindex>1</clipindex>
              <groupindex>1</groupindex>
            </link>
            <link>
              <linkclipref>clipitem-718</linkclipref>
              <mediatype>audio</mediatype>
              <trackindex>3</trackindex>
              <clipindex>1</clipindex>
              <groupindex>1</groupindex>
            </link>
            <link>
              <linkclipref>clipitem-719</linkclipref>
              <mediatype>audio</mediatype>
              <trackindex>4</trackindex>
              <clipindex>1</clipindex>
              <groupindex>1</groupindex>
            </link>
            <link>
              <linkclipref>clipitem-720</linkclipref>
              <mediatype>audio</mediatype>
              <trackindex>5</trackindex>
              <clipindex>1</clipindex>
              <groupindex>1</groupindex>
            </link>
            <link>
              <linkclipref>clipitem-721</linkclipref>
              <mediatype>audio</mediatype>
              <trackindex>6</trackindex>
              <clipindex>1</clipindex>
              <groupindex>1</groupindex>
            </link>
          </clipitem>
          <clipitem id="clipitem-724" premiereChannelType="Stereo">
            <masterclipid>masterclip-3</masterclipid>
            <name>2023-03-30 21-15-31艾许决赛圈2V6 8KCC.mp4</name>
            <enabled>TRUE</enabled>
            <rate>
              <timebase>60</timebase>
              <ntsc>FALSE</ntsc>
            </rate>
            <start>14385</start>
            <end>14465</end>
            <in>48819</in>
            <out>48899</out>
            <file id="file-3"/>
            <sourcetrack>
              <mediatype>audio</mediatype>
              <trackindex>1</trackindex>
            </sourcetrack>
            <link>
              <linkclipref>clipitem-722</linkclipref>
              <mediatype>video</mediatype>
              <trackindex>1</trackindex>
              <clipindex>1</clipindex>
            </link>
            <link>
              <linkclipref>clipitem-723</linkclipref>
              <mediatype>audio</mediatype>
              <trackindex>1</trackindex>
              <clipindex>1</clipindex>
              <groupindex>1</groupindex>
            </link>
            <link>
              <linkclipref>clipitem-724</linkclipref>
              <mediatype>audio</mediatype>
              <trackindex>2</trackindex>
              <clipindex>1</clipindex>
              <groupindex>1</groupindex>
            </link>
            <link>
              <linkclipref>clipitem-725</linkclipref>
              <mediatype>audio</mediatype>
              <trackindex>3</trackindex>
              <clipindex>1</clipindex>
              <groupindex>1</groupindex>
            </link>
            <link>
              <linkclipref>clipitem-726</linkclipref>
              <mediatype>audio</mediatype>
              <trackindex>4</trackindex>
              <clipindex>1</clipindex>
              <groupindex>1</groupindex>
            </link>
            <link>
              <linkclipref>clipitem-727</linkclipref>
              <mediatype>audio</mediatype>
              <trackindex>5</trackindex>
              <clipindex>1</clipindex>
              <groupindex>1</groupindex>
            </link>
            <link>
              <linkclipref>clipitem-728</linkclipref>
              <mediatype>audio</mediatype>
              <trackindex>6</trackindex>
              <clipindex>1</clipindex>
              <groupindex>1</groupindex>
            </link>
          </clipitem>
          <clipitem id="clipitem-731" premiereChannelType="Stereo">
            <masterclipid>masterclip-3</masterclipid>
            <name>2023-03-30 21-15-31艾许决赛圈2V6 8KCC.mp4</name>
            <enabled>TRUE</enabled>
            <rate>
              <timebase>60</timebase>
              <ntsc>FALSE</ntsc>
            </rate>
            <start>14465</start>
            <end>14614</end>
            <in>67987</in>
            <out>68136</out>
            <file id="file-3"/>
            <sourcetrack>
              <mediatype>audio</mediatype>
              <trackindex>1</trackindex>
            </sourcetrack>
            <link>
              <linkclipref>clipitem-729</linkclipref>
              <mediatype>video</mediatype>
              <trackindex>1</trackindex>
              <clipindex>1</clipindex>
            </link>
            <link>
              <linkclipref>clipitem-730</linkclipref>
              <mediatype>audio</mediatype>
              <trackindex>1</trackindex>
              <clipindex>1</clipindex>
              <groupindex>1</groupindex>
            </link>
            <link>
              <linkclipref>clipitem-731</linkclipref>
              <mediatype>audio</mediatype>
              <trackindex>2</trackindex>
              <clipindex>1</clipindex>
              <groupindex>1</groupindex>
            </link>
            <link>
              <linkclipref>clipitem-732</linkclipref>
              <mediatype>audio</mediatype>
              <trackindex>3</trackindex>
              <clipindex>1</clipindex>
              <groupindex>1</groupindex>
            </link>
            <link>
              <linkclipref>clipitem-733</linkclipref>
              <mediatype>audio</mediatype>
              <trackindex>4</trackindex>
              <clipindex>1</clipindex>
              <groupindex>1</groupindex>
            </link>
            <link>
              <linkclipref>clipitem-734</linkclipref>
              <mediatype>audio</mediatype>
              <trackindex>5</trackindex>
              <clipindex>1</clipindex>
              <groupindex>1</groupindex>
            </link>
            <link>
              <linkclipref>clipitem-735</linkclipref>
              <mediatype>audio</mediatype>
              <trackindex>6</trackindex>
              <clipindex>1</clipindex>
              <groupindex>1</groupindex>
            </link>
          </clipitem>
          <clipitem id="clipitem-738" premiereChannelType="Stereo">
            <masterclipid>masterclip-3</masterclipid>
            <name>2023-03-30 21-15-31艾许决赛圈2V6 8KCC.mp4</name>
            <enabled>TRUE</enabled>
            <rate>
              <timebase>60</timebase>
              <ntsc>FALSE</ntsc>
            </rate>
            <start>14614</start>
            <end>14702</end>
            <in>69856</in>
            <out>69944</out>
            <file id="file-3"/>
            <sourcetrack>
              <mediatype>audio</mediatype>
              <trackindex>1</trackindex>
            </sourcetrack>
            <link>
              <linkclipref>clipitem-736</linkclipref>
              <mediatype>video</mediatype>
              <trackindex>1</trackindex>
              <clipindex>1</clipindex>
            </link>
            <link>
              <linkclipref>clipitem-737</linkclipref>
              <mediatype>audio</mediatype>
              <trackindex>1</trackindex>
              <clipindex>1</clipindex>
              <groupindex>1</groupindex>
            </link>
            <link>
              <linkclipref>clipitem-738</linkclipref>
              <mediatype>audio</mediatype>
              <trackindex>2</trackindex>
              <clipindex>1</clipindex>
              <groupindex>1</groupindex>
            </link>
            <link>
              <linkclipref>clipitem-739</linkclipref>
              <mediatype>audio</mediatype>
              <trackindex>3</trackindex>
              <clipindex>1</clipindex>
              <groupindex>1</groupindex>
            </link>
            <link>
              <linkclipref>clipitem-740</linkclipref>
              <mediatype>audio</mediatype>
              <trackindex>4</trackindex>
              <clipindex>1</clipindex>
              <groupindex>1</groupindex>
            </link>
            <link>
              <linkclipref>clipitem-741</linkclipref>
              <mediatype>audio</mediatype>
              <trackindex>5</trackindex>
              <clipindex>1</clipindex>
              <groupindex>1</groupindex>
            </link>
            <link>
              <linkclipref>clipitem-742</linkclipref>
              <mediatype>audio</mediatype>
              <trackindex>6</trackindex>
              <clipindex>1</clipindex>
              <groupindex>1</groupindex>
            </link>
          </clipitem>
          <clipitem id="clipitem-745" premiereChannelType="Stereo">
            <masterclipid>masterclip-3</masterclipid>
            <name>2023-03-30 21-15-31艾许决赛圈2V6 8KCC.mp4</name>
            <enabled>TRUE</enabled>
            <rate>
              <timebase>60</timebase>
              <ntsc>FALSE</ntsc>
            </rate>
            <start>14702</start>
            <end>14790</end>
            <in>69984</in>
            <out>70072</out>
            <file id="file-3"/>
            <sourcetrack>
              <mediatype>audio</mediatype>
              <trackindex>1</trackindex>
            </sourcetrack>
            <link>
              <linkclipref>clipitem-743</linkclipref>
              <mediatype>video</mediatype>
              <trackindex>1</trackindex>
              <clipindex>1</clipindex>
            </link>
            <link>
              <linkclipref>clipitem-744</linkclipref>
              <mediatype>audio</mediatype>
              <trackindex>1</trackindex>
              <clipindex>1</clipindex>
              <groupindex>1</groupindex>
            </link>
            <link>
              <linkclipref>clipitem-745</linkclipref>
              <mediatype>audio</mediatype>
              <trackindex>2</trackindex>
              <clipindex>1</clipindex>
              <groupindex>1</groupindex>
            </link>
            <link>
              <linkclipref>clipitem-746</linkclipref>
              <mediatype>audio</mediatype>
              <trackindex>3</trackindex>
              <clipindex>1</clipindex>
              <groupindex>1</groupindex>
            </link>
            <link>
              <linkclipref>clipitem-747</linkclipref>
              <mediatype>audio</mediatype>
              <trackindex>4</trackindex>
              <clipindex>1</clipindex>
              <groupindex>1</groupindex>
            </link>
            <link>
              <linkclipref>clipitem-748</linkclipref>
              <mediatype>audio</mediatype>
              <trackindex>5</trackindex>
              <clipindex>1</clipindex>
              <groupindex>1</groupindex>
            </link>
            <link>
              <linkclipref>clipitem-749</linkclipref>
              <mediatype>audio</mediatype>
              <trackindex>6</trackindex>
              <clipindex>1</clipindex>
              <groupindex>1</groupindex>
            </link>
          </clipitem>
          <clipitem id="clipitem-752" premiereChannelType="Stereo">
            <masterclipid>masterclip-3</masterclipid>
            <name>2023-03-30 21-15-31艾许决赛圈2V6 8KCC.mp4</name>
            <enabled>TRUE</enabled>
            <rate>
              <timebase>60</timebase>
              <ntsc>FALSE</ntsc>
            </rate>
            <start>14790</start>
            <end>14971</end>
            <in>70185</in>
            <out>70366</out>
            <file id="file-3"/>
            <sourcetrack>
              <mediatype>audio</mediatype>
              <trackindex>1</trackindex>
            </sourcetrack>
            <link>
              <linkclipref>clipitem-750</linkclipref>
              <mediatype>video</mediatype>
              <trackindex>1</trackindex>
              <clipindex>1</clipindex>
            </link>
            <link>
              <linkclipref>clipitem-751</linkclipref>
              <mediatype>audio</mediatype>
              <trackindex>1</trackindex>
              <clipindex>1</clipindex>
              <groupindex>1</groupindex>
            </link>
            <link>
              <linkclipref>clipitem-752</linkclipref>
              <mediatype>audio</mediatype>
              <trackindex>2</trackindex>
              <clipindex>1</clipindex>
              <groupindex>1</groupindex>
            </link>
            <link>
              <linkclipref>clipitem-753</linkclipref>
              <mediatype>audio</mediatype>
              <trackindex>3</trackindex>
              <clipindex>1</clipindex>
              <groupindex>1</groupindex>
            </link>
            <link>
              <linkclipref>clipitem-754</linkclipref>
              <mediatype>audio</mediatype>
              <trackindex>4</trackindex>
              <clipindex>1</clipindex>
              <groupindex>1</groupindex>
            </link>
            <link>
              <linkclipref>clipitem-755</linkclipref>
              <mediatype>audio</mediatype>
              <trackindex>5</trackindex>
              <clipindex>1</clipindex>
              <groupindex>1</groupindex>
            </link>
            <link>
              <linkclipref>clipitem-756</linkclipref>
              <mediatype>audio</mediatype>
              <trackindex>6</trackindex>
              <clipindex>1</clipindex>
              <groupindex>1</groupindex>
            </link>
          </clipitem>
          <clipitem id="clipitem-759" premiereChannelType="Stereo">
            <masterclipid>masterclip-3</masterclipid>
            <name>2023-03-30 21-15-31艾许决赛圈2V6 8KCC.mp4</name>
            <enabled>TRUE</enabled>
            <rate>
              <timebase>60</timebase>
              <ntsc>FALSE</ntsc>
            </rate>
            <start>14971</start>
            <end>15120</end>
            <in>70493</in>
            <out>70642</out>
            <file id="file-3"/>
            <sourcetrack>
              <mediatype>audio</mediatype>
              <trackindex>1</trackindex>
            </sourcetrack>
            <link>
              <linkclipref>clipitem-757</linkclipref>
              <mediatype>video</mediatype>
              <trackindex>1</trackindex>
              <clipindex>1</clipindex>
            </link>
            <link>
              <linkclipref>clipitem-758</linkclipref>
              <mediatype>audio</mediatype>
              <trackindex>1</trackindex>
              <clipindex>1</clipindex>
              <groupindex>1</groupindex>
            </link>
            <link>
              <linkclipref>clipitem-759</linkclipref>
              <mediatype>audio</mediatype>
              <trackindex>2</trackindex>
              <clipindex>1</clipindex>
              <groupindex>1</groupindex>
            </link>
            <link>
              <linkclipref>clipitem-760</linkclipref>
              <mediatype>audio</mediatype>
              <trackindex>3</trackindex>
              <clipindex>1</clipindex>
              <groupindex>1</groupindex>
            </link>
            <link>
              <linkclipref>clipitem-761</linkclipref>
              <mediatype>audio</mediatype>
              <trackindex>4</trackindex>
              <clipindex>1</clipindex>
              <groupindex>1</groupindex>
            </link>
            <link>
              <linkclipref>clipitem-762</linkclipref>
              <mediatype>audio</mediatype>
              <trackindex>5</trackindex>
              <clipindex>1</clipindex>
              <groupindex>1</groupindex>
            </link>
            <link>
              <linkclipref>clipitem-763</linkclipref>
              <mediatype>audio</mediatype>
              <trackindex>6</trackindex>
              <clipindex>1</clipindex>
              <groupindex>1</groupindex>
            </link>
          </clipitem>
          <clipitem id="clipitem-766" premiereChannelType="Stereo">
            <masterclipid>masterclip-3</masterclipid>
            <name>2023-03-30 21-15-31艾许决赛圈2V6 8KCC.mp4</name>
            <enabled>TRUE</enabled>
            <rate>
              <timebase>60</timebase>
              <ntsc>FALSE</ntsc>
            </rate>
            <start>15120</start>
            <end>15197</end>
            <in>70712</in>
            <out>70789</out>
            <file id="file-3"/>
            <sourcetrack>
              <mediatype>audio</mediatype>
              <trackindex>1</trackindex>
            </sourcetrack>
            <link>
              <linkclipref>clipitem-764</linkclipref>
              <mediatype>video</mediatype>
              <trackindex>1</trackindex>
              <clipindex>1</clipindex>
            </link>
            <link>
              <linkclipref>clipitem-765</linkclipref>
              <mediatype>audio</mediatype>
              <trackindex>1</trackindex>
              <clipindex>1</clipindex>
              <groupindex>1</groupindex>
            </link>
            <link>
              <linkclipref>clipitem-766</linkclipref>
              <mediatype>audio</mediatype>
              <trackindex>2</trackindex>
              <clipindex>1</clipindex>
              <groupindex>1</groupindex>
            </link>
            <link>
              <linkclipref>clipitem-767</linkclipref>
              <mediatype>audio</mediatype>
              <trackindex>3</trackindex>
              <clipindex>1</clipindex>
              <groupindex>1</groupindex>
            </link>
            <link>
              <linkclipref>clipitem-768</linkclipref>
              <mediatype>audio</mediatype>
              <trackindex>4</trackindex>
              <clipindex>1</clipindex>
              <groupindex>1</groupindex>
            </link>
            <link>
              <linkclipref>clipitem-769</linkclipref>
              <mediatype>audio</mediatype>
              <trackindex>5</trackindex>
              <clipindex>1</clipindex>
              <groupindex>1</groupindex>
            </link>
            <link>
              <linkclipref>clipitem-770</linkclipref>
              <mediatype>audio</mediatype>
              <trackindex>6</trackindex>
              <clipindex>1</clipindex>
              <groupindex>1</groupindex>
            </link>
          </clipitem>
          <clipitem id="clipitem-773" premiereChannelType="Stereo">
            <masterclipid>masterclip-3</masterclipid>
            <name>2023-03-30 21-15-31艾许决赛圈2V6 8KCC.mp4</name>
            <enabled>TRUE</enabled>
            <rate>
              <timebase>60</timebase>
              <ntsc>FALSE</ntsc>
            </rate>
            <start>15197</start>
            <end>15364</end>
            <in>70867</in>
            <out>71034</out>
            <file id="file-3"/>
            <sourcetrack>
              <mediatype>audio</mediatype>
              <trackindex>1</trackindex>
            </sourcetrack>
            <link>
              <linkclipref>clipitem-771</linkclipref>
              <mediatype>video</mediatype>
              <trackindex>1</trackindex>
              <clipindex>1</clipindex>
            </link>
            <link>
              <linkclipref>clipitem-772</linkclipref>
              <mediatype>audio</mediatype>
              <trackindex>1</trackindex>
              <clipindex>1</clipindex>
              <groupindex>1</groupindex>
            </link>
            <link>
              <linkclipref>clipitem-773</linkclipref>
              <mediatype>audio</mediatype>
              <trackindex>2</trackindex>
              <clipindex>1</clipindex>
              <groupindex>1</groupindex>
            </link>
            <link>
              <linkclipref>clipitem-774</linkclipref>
              <mediatype>audio</mediatype>
              <trackindex>3</trackindex>
              <clipindex>1</clipindex>
              <groupindex>1</groupindex>
            </link>
            <link>
              <linkclipref>clipitem-775</linkclipref>
              <mediatype>audio</mediatype>
              <trackindex>4</trackindex>
              <clipindex>1</clipindex>
              <groupindex>1</groupindex>
            </link>
            <link>
              <linkclipref>clipitem-776</linkclipref>
              <mediatype>audio</mediatype>
              <trackindex>5</trackindex>
              <clipindex>1</clipindex>
              <groupindex>1</groupindex>
            </link>
            <link>
              <linkclipref>clipitem-777</linkclipref>
              <mediatype>audio</mediatype>
              <trackindex>6</trackindex>
              <clipindex>1</clipindex>
              <groupindex>1</groupindex>
            </link>
          </clipitem>
          <clipitem id="clipitem-780" premiereChannelType="Stereo">
            <masterclipid>masterclip-3</masterclipid>
            <name>2023-03-30 21-15-31艾许决赛圈2V6 8KCC.mp4</name>
            <enabled>TRUE</enabled>
            <rate>
              <timebase>60</timebase>
              <ntsc>FALSE</ntsc>
            </rate>
            <start>15364</start>
            <end>15429</end>
            <in>72138</in>
            <out>72203</out>
            <file id="file-3"/>
            <sourcetrack>
              <mediatype>audio</mediatype>
              <trackindex>1</trackindex>
            </sourcetrack>
            <link>
              <linkclipref>clipitem-778</linkclipref>
              <mediatype>video</mediatype>
              <trackindex>1</trackindex>
              <clipindex>1</clipindex>
            </link>
            <link>
              <linkclipref>clipitem-779</linkclipref>
              <mediatype>audio</mediatype>
              <trackindex>1</trackindex>
              <clipindex>1</clipindex>
              <groupindex>1</groupindex>
            </link>
            <link>
              <linkclipref>clipitem-780</linkclipref>
              <mediatype>audio</mediatype>
              <trackindex>2</trackindex>
              <clipindex>1</clipindex>
              <groupindex>1</groupindex>
            </link>
            <link>
              <linkclipref>clipitem-781</linkclipref>
              <mediatype>audio</mediatype>
              <trackindex>3</trackindex>
              <clipindex>1</clipindex>
              <groupindex>1</groupindex>
            </link>
            <link>
              <linkclipref>clipitem-782</linkclipref>
              <mediatype>audio</mediatype>
              <trackindex>4</trackindex>
              <clipindex>1</clipindex>
              <groupindex>1</groupindex>
            </link>
            <link>
              <linkclipref>clipitem-783</linkclipref>
              <mediatype>audio</mediatype>
              <trackindex>5</trackindex>
              <clipindex>1</clipindex>
              <groupindex>1</groupindex>
            </link>
            <link>
              <linkclipref>clipitem-784</linkclipref>
              <mediatype>audio</mediatype>
              <trackindex>6</trackindex>
              <clipindex>1</clipindex>
              <groupindex>1</groupindex>
            </link>
          </clipitem>
          <clipitem id="clipitem-787" premiereChannelType="Stereo">
            <masterclipid>masterclip-3</masterclipid>
            <name>2023-03-30 21-15-31艾许决赛圈2V6 8KCC.mp4</name>
            <enabled>TRUE</enabled>
            <rate>
              <timebase>60</timebase>
              <ntsc>FALSE</ntsc>
            </rate>
            <start>15429</start>
            <end>15575</end>
            <in>72355</in>
            <out>72501</out>
            <file id="file-3"/>
            <sourcetrack>
              <mediatype>audio</mediatype>
              <trackindex>1</trackindex>
            </sourcetrack>
            <link>
              <linkclipref>clipitem-785</linkclipref>
              <mediatype>video</mediatype>
              <trackindex>1</trackindex>
              <clipindex>1</clipindex>
            </link>
            <link>
              <linkclipref>clipitem-786</linkclipref>
              <mediatype>audio</mediatype>
              <trackindex>1</trackindex>
              <clipindex>1</clipindex>
              <groupindex>1</groupindex>
            </link>
            <link>
              <linkclipref>clipitem-787</linkclipref>
              <mediatype>audio</mediatype>
              <trackindex>2</trackindex>
              <clipindex>1</clipindex>
              <groupindex>1</groupindex>
            </link>
            <link>
              <linkclipref>clipitem-788</linkclipref>
              <mediatype>audio</mediatype>
              <trackindex>3</trackindex>
              <clipindex>1</clipindex>
              <groupindex>1</groupindex>
            </link>
            <link>
              <linkclipref>clipitem-789</linkclipref>
              <mediatype>audio</mediatype>
              <trackindex>4</trackindex>
              <clipindex>1</clipindex>
              <groupindex>1</groupindex>
            </link>
            <link>
              <linkclipref>clipitem-790</linkclipref>
              <mediatype>audio</mediatype>
              <trackindex>5</trackindex>
              <clipindex>1</clipindex>
              <groupindex>1</groupindex>
            </link>
            <link>
              <linkclipref>clipitem-791</linkclipref>
              <mediatype>audio</mediatype>
              <trackindex>6</trackindex>
              <clipindex>1</clipindex>
              <groupindex>1</groupindex>
            </link>
          </clipitem>
          <clipitem id="clipitem-794" premiereChannelType="Stereo">
            <masterclipid>masterclip-3</masterclipid>
            <name>2023-03-30 21-15-31艾许决赛圈2V6 8KCC.mp4</name>
            <enabled>TRUE</enabled>
            <rate>
              <timebase>60</timebase>
              <ntsc>FALSE</ntsc>
            </rate>
            <start>15575</start>
            <end>15661</end>
            <in>72584</in>
            <out>72670</out>
            <file id="file-3"/>
            <sourcetrack>
              <mediatype>audio</mediatype>
              <trackindex>1</trackindex>
            </sourcetrack>
            <link>
              <linkclipref>clipitem-792</linkclipref>
              <mediatype>video</mediatype>
              <trackindex>1</trackindex>
              <clipindex>1</clipindex>
            </link>
            <link>
              <linkclipref>clipitem-793</linkclipref>
              <mediatype>audio</mediatype>
              <trackindex>1</trackindex>
              <clipindex>1</clipindex>
              <groupindex>1</groupindex>
            </link>
            <link>
              <linkclipref>clipitem-794</linkclipref>
              <mediatype>audio</mediatype>
              <trackindex>2</trackindex>
              <clipindex>1</clipindex>
              <groupindex>1</groupindex>
            </link>
            <link>
              <linkclipref>clipitem-795</linkclipref>
              <mediatype>audio</mediatype>
              <trackindex>3</trackindex>
              <clipindex>1</clipindex>
              <groupindex>1</groupindex>
            </link>
            <link>
              <linkclipref>clipitem-796</linkclipref>
              <mediatype>audio</mediatype>
              <trackindex>4</trackindex>
              <clipindex>1</clipindex>
              <groupindex>1</groupindex>
            </link>
            <link>
              <linkclipref>clipitem-797</linkclipref>
              <mediatype>audio</mediatype>
              <trackindex>5</trackindex>
              <clipindex>1</clipindex>
              <groupindex>1</groupindex>
            </link>
            <link>
              <linkclipref>clipitem-798</linkclipref>
              <mediatype>audio</mediatype>
              <trackindex>6</trackindex>
              <clipindex>1</clipindex>
              <groupindex>1</groupindex>
            </link>
          </clipitem>
          <enabled>TRUE</enabled>
          <locked>FALSE</locked>
          <outputchannelindex>2</outputchannelindex>
        </track>
        <track TL.SQTrackAudioKeyframeStyle="0" TL.SQTrackShy="0" TL.SQTrackExpandedHeight="25" TL.SQTrackExpanded="0" MZ.TrackTargeted="1" PannerCurrentValue="0.5" PannerIsInverted="true" PannerStartKeyframe="-91445760000000000,0.5,0,0,0,0,0,0" PannerName="平衡" currentExplodedTrackIndex="0" totalExplodedTrackCount="2" premiereTrackType="Stereo">
          <clipitem id="clipitem-4" premiereChannelType="Stereo">
            <masterclipid>masterclip-1</masterclipid>
            <name>2023-04-01 14-56-52溪神带上钻局CC.mp4</name>
            <enabled>TRUE</enabled>
            <rate>
              <timebase>60</timebase>
              <ntsc>FALSE</ntsc>
            </rate>
            <start>0</start>
            <end>17</end>
            <in>3303</in>
            <out>3320</out>
            <file id="file-1"/>
            <sourcetrack>
              <mediatype>audio</mediatype>
              <trackindex>2</trackindex>
            </sourcetrack>
            <link>
              <linkclipref>clipitem-1</linkclipref>
              <mediatype>video</mediatype>
              <trackindex>1</trackindex>
              <clipindex>1</clipindex>
            </link>
            <link>
              <linkclipref>clipitem-2</linkclipref>
              <mediatype>audio</mediatype>
              <trackindex>1</trackindex>
              <clipindex>1</clipindex>
              <groupindex>1</groupindex>
            </link>
            <link>
              <linkclipref>clipitem-3</linkclipref>
              <mediatype>audio</mediatype>
              <trackindex>2</trackindex>
              <clipindex>1</clipindex>
              <groupindex>1</groupindex>
            </link>
            <link>
              <linkclipref>clipitem-4</linkclipref>
              <mediatype>audio</mediatype>
              <trackindex>3</trackindex>
              <clipindex>1</clipindex>
              <groupindex>1</groupindex>
            </link>
            <link>
              <linkclipref>clipitem-5</linkclipref>
              <mediatype>audio</mediatype>
              <trackindex>4</trackindex>
              <clipindex>1</clipindex>
              <groupindex>1</groupindex>
            </link>
            <link>
              <linkclipref>clipitem-6</linkclipref>
              <mediatype>audio</mediatype>
              <trackindex>5</trackindex>
              <clipindex>1</clipindex>
              <groupindex>1</groupindex>
            </link>
            <link>
              <linkclipref>clipitem-7</linkclipref>
              <mediatype>audio</mediatype>
              <trackindex>6</trackindex>
              <clipindex>1</clipindex>
              <groupindex>1</groupindex>
            </link>
          </clipitem>
          <clipitem id="clipitem-11" premiereChannelType="Stereo">
            <masterclipid>masterclip-1</masterclipid>
            <name>2023-04-01 14-56-52溪神带上钻局CC.mp4</name>
            <enabled>TRUE</enabled>
            <rate>
              <timebase>60</timebase>
              <ntsc>FALSE</ntsc>
            </rate>
            <start>17</start>
            <end>27</end>
            <in>6094</in>
            <out>6104</out>
            <file id="file-1"/>
            <sourcetrack>
              <mediatype>audio</mediatype>
              <trackindex>2</trackindex>
            </sourcetrack>
            <link>
              <linkclipref>clipitem-8</linkclipref>
              <mediatype>video</mediatype>
              <trackindex>1</trackindex>
              <clipindex>1</clipindex>
            </link>
            <link>
              <linkclipref>clipitem-9</linkclipref>
              <mediatype>audio</mediatype>
              <trackindex>1</trackindex>
              <clipindex>1</clipindex>
              <groupindex>1</groupindex>
            </link>
            <link>
              <linkclipref>clipitem-10</linkclipref>
              <mediatype>audio</mediatype>
              <trackindex>2</trackindex>
              <clipindex>1</clipindex>
              <groupindex>1</groupindex>
            </link>
            <link>
              <linkclipref>clipitem-11</linkclipref>
              <mediatype>audio</mediatype>
              <trackindex>3</trackindex>
              <clipindex>1</clipindex>
              <groupindex>1</groupindex>
            </link>
            <link>
              <linkclipref>clipitem-12</linkclipref>
              <mediatype>audio</mediatype>
              <trackindex>4</trackindex>
              <clipindex>1</clipindex>
              <groupindex>1</groupindex>
            </link>
            <link>
              <linkclipref>clipitem-13</linkclipref>
              <mediatype>audio</mediatype>
              <trackindex>5</trackindex>
              <clipindex>1</clipindex>
              <groupindex>1</groupindex>
            </link>
            <link>
              <linkclipref>clipitem-14</linkclipref>
              <mediatype>audio</mediatype>
              <trackindex>6</trackindex>
              <clipindex>1</clipindex>
              <groupindex>1</groupindex>
            </link>
          </clipitem>
          <clipitem id="clipitem-18" premiereChannelType="Stereo">
            <masterclipid>masterclip-1</masterclipid>
            <name>2023-04-01 14-56-52溪神带上钻局CC.mp4</name>
            <enabled>TRUE</enabled>
            <rate>
              <timebase>60</timebase>
              <ntsc>FALSE</ntsc>
            </rate>
            <start>27</start>
            <end>38</end>
            <in>6096</in>
            <out>6107</out>
            <file id="file-1"/>
            <sourcetrack>
              <mediatype>audio</mediatype>
              <trackindex>2</trackindex>
            </sourcetrack>
            <link>
              <linkclipref>clipitem-15</linkclipref>
              <mediatype>video</mediatype>
              <trackindex>1</trackindex>
              <clipindex>1</clipindex>
            </link>
            <link>
              <linkclipref>clipitem-16</linkclipref>
              <mediatype>audio</mediatype>
              <trackindex>1</trackindex>
              <clipindex>1</clipindex>
              <groupindex>1</groupindex>
            </link>
            <link>
              <linkclipref>clipitem-17</linkclipref>
              <mediatype>audio</mediatype>
              <trackindex>2</trackindex>
              <clipindex>1</clipindex>
              <groupindex>1</groupindex>
            </link>
            <link>
              <linkclipref>clipitem-18</linkclipref>
              <mediatype>audio</mediatype>
              <trackindex>3</trackindex>
              <clipindex>1</clipindex>
              <groupindex>1</groupindex>
            </link>
            <link>
              <linkclipref>clipitem-19</linkclipref>
              <mediatype>audio</mediatype>
              <trackindex>4</trackindex>
              <clipindex>1</clipindex>
              <groupindex>1</groupindex>
            </link>
            <link>
              <linkclipref>clipitem-20</linkclipref>
              <mediatype>audio</mediatype>
              <trackindex>5</trackindex>
              <clipindex>1</clipindex>
              <groupindex>1</groupindex>
            </link>
            <link>
              <linkclipref>clipitem-21</linkclipref>
              <mediatype>audio</mediatype>
              <trackindex>6</trackindex>
              <clipindex>1</clipindex>
              <groupindex>1</groupindex>
            </link>
          </clipitem>
          <clipitem id="clipitem-25" premiereChannelType="Stereo">
            <masterclipid>masterclip-1</masterclipid>
            <name>2023-04-01 14-56-52溪神带上钻局CC.mp4</name>
            <enabled>TRUE</enabled>
            <rate>
              <timebase>60</timebase>
              <ntsc>FALSE</ntsc>
            </rate>
            <start>38</start>
            <end>174</end>
            <in>15816</in>
            <out>15952</out>
            <file id="file-1"/>
            <sourcetrack>
              <mediatype>audio</mediatype>
              <trackindex>2</trackindex>
            </sourcetrack>
            <link>
              <linkclipref>clipitem-22</linkclipref>
              <mediatype>video</mediatype>
              <trackindex>1</trackindex>
              <clipindex>1</clipindex>
            </link>
            <link>
              <linkclipref>clipitem-23</linkclipref>
              <mediatype>audio</mediatype>
              <trackindex>1</trackindex>
              <clipindex>1</clipindex>
              <groupindex>1</groupindex>
            </link>
            <link>
              <linkclipref>clipitem-24</linkclipref>
              <mediatype>audio</mediatype>
              <trackindex>2</trackindex>
              <clipindex>1</clipindex>
              <groupindex>1</groupindex>
            </link>
            <link>
              <linkclipref>clipitem-25</linkclipref>
              <mediatype>audio</mediatype>
              <trackindex>3</trackindex>
              <clipindex>1</clipindex>
              <groupindex>1</groupindex>
            </link>
            <link>
              <linkclipref>clipitem-26</linkclipref>
              <mediatype>audio</mediatype>
              <trackindex>4</trackindex>
              <clipindex>1</clipindex>
              <groupindex>1</groupindex>
            </link>
            <link>
              <linkclipref>clipitem-27</linkclipref>
              <mediatype>audio</mediatype>
              <trackindex>5</trackindex>
              <clipindex>1</clipindex>
              <groupindex>1</groupindex>
            </link>
            <link>
              <linkclipref>clipitem-28</linkclipref>
              <mediatype>audio</mediatype>
              <trackindex>6</trackindex>
              <clipindex>1</clipindex>
              <groupindex>1</groupindex>
            </link>
          </clipitem>
          <clipitem id="clipitem-32" premiereChannelType="Stereo">
            <masterclipid>masterclip-1</masterclipid>
            <name>2023-04-01 14-56-52溪神带上钻局CC.mp4</name>
            <enabled>TRUE</enabled>
            <rate>
              <timebase>60</timebase>
              <ntsc>FALSE</ntsc>
            </rate>
            <start>174</start>
            <end>347</end>
            <in>15978</in>
            <out>16151</out>
            <file id="file-1"/>
            <sourcetrack>
              <mediatype>audio</mediatype>
              <trackindex>2</trackindex>
            </sourcetrack>
            <link>
              <linkclipref>clipitem-29</linkclipref>
              <mediatype>video</mediatype>
              <trackindex>1</trackindex>
              <clipindex>1</clipindex>
            </link>
            <link>
              <linkclipref>clipitem-30</linkclipref>
              <mediatype>audio</mediatype>
              <trackindex>1</trackindex>
              <clipindex>1</clipindex>
              <groupindex>1</groupindex>
            </link>
            <link>
              <linkclipref>clipitem-31</linkclipref>
              <mediatype>audio</mediatype>
              <trackindex>2</trackindex>
              <clipindex>1</clipindex>
              <groupindex>1</groupindex>
            </link>
            <link>
              <linkclipref>clipitem-32</linkclipref>
              <mediatype>audio</mediatype>
              <trackindex>3</trackindex>
              <clipindex>1</clipindex>
              <groupindex>1</groupindex>
            </link>
            <link>
              <linkclipref>clipitem-33</linkclipref>
              <mediatype>audio</mediatype>
              <trackindex>4</trackindex>
              <clipindex>1</clipindex>
              <groupindex>1</groupindex>
            </link>
            <link>
              <linkclipref>clipitem-34</linkclipref>
              <mediatype>audio</mediatype>
              <trackindex>5</trackindex>
              <clipindex>1</clipindex>
              <groupindex>1</groupindex>
            </link>
            <link>
              <linkclipref>clipitem-35</linkclipref>
              <mediatype>audio</mediatype>
              <trackindex>6</trackindex>
              <clipindex>1</clipindex>
              <groupindex>1</groupindex>
            </link>
          </clipitem>
          <clipitem id="clipitem-39" premiereChannelType="Stereo">
            <masterclipid>masterclip-1</masterclipid>
            <name>2023-04-01 14-56-52溪神带上钻局CC.mp4</name>
            <enabled>TRUE</enabled>
            <rate>
              <timebase>60</timebase>
              <ntsc>FALSE</ntsc>
            </rate>
            <start>347</start>
            <end>454</end>
            <in>16564</in>
            <out>16671</out>
            <file id="file-1"/>
            <sourcetrack>
              <mediatype>audio</mediatype>
              <trackindex>2</trackindex>
            </sourcetrack>
            <link>
              <linkclipref>clipitem-36</linkclipref>
              <mediatype>video</mediatype>
              <trackindex>1</trackindex>
              <clipindex>1</clipindex>
            </link>
            <link>
              <linkclipref>clipitem-37</linkclipref>
              <mediatype>audio</mediatype>
              <trackindex>1</trackindex>
              <clipindex>1</clipindex>
              <groupindex>1</groupindex>
            </link>
            <link>
              <linkclipref>clipitem-38</linkclipref>
              <mediatype>audio</mediatype>
              <trackindex>2</trackindex>
              <clipindex>1</clipindex>
              <groupindex>1</groupindex>
            </link>
            <link>
              <linkclipref>clipitem-39</linkclipref>
              <mediatype>audio</mediatype>
              <trackindex>3</trackindex>
              <clipindex>1</clipindex>
              <groupindex>1</groupindex>
            </link>
            <link>
              <linkclipref>clipitem-40</linkclipref>
              <mediatype>audio</mediatype>
              <trackindex>4</trackindex>
              <clipindex>1</clipindex>
              <groupindex>1</groupindex>
            </link>
            <link>
              <linkclipref>clipitem-41</linkclipref>
              <mediatype>audio</mediatype>
              <trackindex>5</trackindex>
              <clipindex>1</clipindex>
              <groupindex>1</groupindex>
            </link>
            <link>
              <linkclipref>clipitem-42</linkclipref>
              <mediatype>audio</mediatype>
              <trackindex>6</trackindex>
              <clipindex>1</clipindex>
              <groupindex>1</groupindex>
            </link>
          </clipitem>
          <clipitem id="clipitem-46" premiereChannelType="Stereo">
            <masterclipid>masterclip-1</masterclipid>
            <name>2023-04-01 14-56-52溪神带上钻局CC.mp4</name>
            <enabled>TRUE</enabled>
            <rate>
              <timebase>60</timebase>
              <ntsc>FALSE</ntsc>
            </rate>
            <start>454</start>
            <end>572</end>
            <in>17900</in>
            <out>18018</out>
            <file id="file-1"/>
            <sourcetrack>
              <mediatype>audio</mediatype>
              <trackindex>2</trackindex>
            </sourcetrack>
            <link>
              <linkclipref>clipitem-43</linkclipref>
              <mediatype>video</mediatype>
              <trackindex>1</trackindex>
              <clipindex>1</clipindex>
            </link>
            <link>
              <linkclipref>clipitem-44</linkclipref>
              <mediatype>audio</mediatype>
              <trackindex>1</trackindex>
              <clipindex>1</clipindex>
              <groupindex>1</groupindex>
            </link>
            <link>
              <linkclipref>clipitem-45</linkclipref>
              <mediatype>audio</mediatype>
              <trackindex>2</trackindex>
              <clipindex>1</clipindex>
              <groupindex>1</groupindex>
            </link>
            <link>
              <linkclipref>clipitem-46</linkclipref>
              <mediatype>audio</mediatype>
              <trackindex>3</trackindex>
              <clipindex>1</clipindex>
              <groupindex>1</groupindex>
            </link>
            <link>
              <linkclipref>clipitem-47</linkclipref>
              <mediatype>audio</mediatype>
              <trackindex>4</trackindex>
              <clipindex>1</clipindex>
              <groupindex>1</groupindex>
            </link>
            <link>
              <linkclipref>clipitem-48</linkclipref>
              <mediatype>audio</mediatype>
              <trackindex>5</trackindex>
              <clipindex>1</clipindex>
              <groupindex>1</groupindex>
            </link>
            <link>
              <linkclipref>clipitem-49</linkclipref>
              <mediatype>audio</mediatype>
              <trackindex>6</trackindex>
              <clipindex>1</clipindex>
              <groupindex>1</groupindex>
            </link>
          </clipitem>
          <clipitem id="clipitem-53" premiereChannelType="Stereo">
            <masterclipid>masterclip-1</masterclipid>
            <name>2023-04-01 14-56-52溪神带上钻局CC.mp4</name>
            <enabled>TRUE</enabled>
            <rate>
              <timebase>60</timebase>
              <ntsc>FALSE</ntsc>
            </rate>
            <start>572</start>
            <end>727</end>
            <in>20147</in>
            <out>20302</out>
            <file id="file-1"/>
            <sourcetrack>
              <mediatype>audio</mediatype>
              <trackindex>2</trackindex>
            </sourcetrack>
            <link>
              <linkclipref>clipitem-50</linkclipref>
              <mediatype>video</mediatype>
              <trackindex>1</trackindex>
              <clipindex>1</clipindex>
            </link>
            <link>
              <linkclipref>clipitem-51</linkclipref>
              <mediatype>audio</mediatype>
              <trackindex>1</trackindex>
              <clipindex>1</clipindex>
              <groupindex>1</groupindex>
            </link>
            <link>
              <linkclipref>clipitem-52</linkclipref>
              <mediatype>audio</mediatype>
              <trackindex>2</trackindex>
              <clipindex>1</clipindex>
              <groupindex>1</groupindex>
            </link>
            <link>
              <linkclipref>clipitem-53</linkclipref>
              <mediatype>audio</mediatype>
              <trackindex>3</trackindex>
              <clipindex>1</clipindex>
              <groupindex>1</groupindex>
            </link>
            <link>
              <linkclipref>clipitem-54</linkclipref>
              <mediatype>audio</mediatype>
              <trackindex>4</trackindex>
              <clipindex>1</clipindex>
              <groupindex>1</groupindex>
            </link>
            <link>
              <linkclipref>clipitem-55</linkclipref>
              <mediatype>audio</mediatype>
              <trackindex>5</trackindex>
              <clipindex>1</clipindex>
              <groupindex>1</groupindex>
            </link>
            <link>
              <linkclipref>clipitem-56</linkclipref>
              <mediatype>audio</mediatype>
              <trackindex>6</trackindex>
              <clipindex>1</clipindex>
              <groupindex>1</groupindex>
            </link>
          </clipitem>
          <clipitem id="clipitem-60" premiereChannelType="Stereo">
            <masterclipid>masterclip-1</masterclipid>
            <name>2023-04-01 14-56-52溪神带上钻局CC.mp4</name>
            <enabled>TRUE</enabled>
            <rate>
              <timebase>60</timebase>
              <ntsc>FALSE</ntsc>
            </rate>
            <start>727</start>
            <end>875</end>
            <in>21756</in>
            <out>21904</out>
            <file id="file-1"/>
            <sourcetrack>
              <mediatype>audio</mediatype>
              <trackindex>2</trackindex>
            </sourcetrack>
            <link>
              <linkclipref>clipitem-57</linkclipref>
              <mediatype>video</mediatype>
              <trackindex>1</trackindex>
              <clipindex>1</clipindex>
            </link>
            <link>
              <linkclipref>clipitem-58</linkclipref>
              <mediatype>audio</mediatype>
              <trackindex>1</trackindex>
              <clipindex>1</clipindex>
              <groupindex>1</groupindex>
            </link>
            <link>
              <linkclipref>clipitem-59</linkclipref>
              <mediatype>audio</mediatype>
              <trackindex>2</trackindex>
              <clipindex>1</clipindex>
              <groupindex>1</groupindex>
            </link>
            <link>
              <linkclipref>clipitem-60</linkclipref>
              <mediatype>audio</mediatype>
              <trackindex>3</trackindex>
              <clipindex>1</clipindex>
              <groupindex>1</groupindex>
            </link>
            <link>
              <linkclipref>clipitem-61</linkclipref>
              <mediatype>audio</mediatype>
              <trackindex>4</trackindex>
              <clipindex>1</clipindex>
              <groupindex>1</groupindex>
            </link>
            <link>
              <linkclipref>clipitem-62</linkclipref>
              <mediatype>audio</mediatype>
              <trackindex>5</trackindex>
              <clipindex>1</clipindex>
              <groupindex>1</groupindex>
            </link>
            <link>
              <linkclipref>clipitem-63</linkclipref>
              <mediatype>audio</mediatype>
              <trackindex>6</trackindex>
              <clipindex>1</clipindex>
              <groupindex>1</groupindex>
            </link>
          </clipitem>
          <clipitem id="clipitem-67" premiereChannelType="Stereo">
            <masterclipid>masterclip-1</masterclipid>
            <name>2023-04-01 14-56-52溪神带上钻局CC.mp4</name>
            <enabled>TRUE</enabled>
            <rate>
              <timebase>60</timebase>
              <ntsc>FALSE</ntsc>
            </rate>
            <start>875</start>
            <end>1011</end>
            <in>22231</in>
            <out>22367</out>
            <file id="file-1"/>
            <sourcetrack>
              <mediatype>audio</mediatype>
              <trackindex>2</trackindex>
            </sourcetrack>
            <link>
              <linkclipref>clipitem-64</linkclipref>
              <mediatype>video</mediatype>
              <trackindex>1</trackindex>
              <clipindex>1</clipindex>
            </link>
            <link>
              <linkclipref>clipitem-65</linkclipref>
              <mediatype>audio</mediatype>
              <trackindex>1</trackindex>
              <clipindex>1</clipindex>
              <groupindex>1</groupindex>
            </link>
            <link>
              <linkclipref>clipitem-66</linkclipref>
              <mediatype>audio</mediatype>
              <trackindex>2</trackindex>
              <clipindex>1</clipindex>
              <groupindex>1</groupindex>
            </link>
            <link>
              <linkclipref>clipitem-67</linkclipref>
              <mediatype>audio</mediatype>
              <trackindex>3</trackindex>
              <clipindex>1</clipindex>
              <groupindex>1</groupindex>
            </link>
            <link>
              <linkclipref>clipitem-68</linkclipref>
              <mediatype>audio</mediatype>
              <trackindex>4</trackindex>
              <clipindex>1</clipindex>
              <groupindex>1</groupindex>
            </link>
            <link>
              <linkclipref>clipitem-69</linkclipref>
              <mediatype>audio</mediatype>
              <trackindex>5</trackindex>
              <clipindex>1</clipindex>
              <groupindex>1</groupindex>
            </link>
            <link>
              <linkclipref>clipitem-70</linkclipref>
              <mediatype>audio</mediatype>
              <trackindex>6</trackindex>
              <clipindex>1</clipindex>
              <groupindex>1</groupindex>
            </link>
          </clipitem>
          <clipitem id="clipitem-74" premiereChannelType="Stereo">
            <masterclipid>masterclip-1</masterclipid>
            <name>2023-04-01 14-56-52溪神带上钻局CC.mp4</name>
            <enabled>TRUE</enabled>
            <rate>
              <timebase>60</timebase>
              <ntsc>FALSE</ntsc>
            </rate>
            <start>1011</start>
            <end>1086</end>
            <in>22676</in>
            <out>22751</out>
            <file id="file-1"/>
            <sourcetrack>
              <mediatype>audio</mediatype>
              <trackindex>2</trackindex>
            </sourcetrack>
            <link>
              <linkclipref>clipitem-71</linkclipref>
              <mediatype>video</mediatype>
              <trackindex>1</trackindex>
              <clipindex>1</clipindex>
            </link>
            <link>
              <linkclipref>clipitem-72</linkclipref>
              <mediatype>audio</mediatype>
              <trackindex>1</trackindex>
              <clipindex>1</clipindex>
              <groupindex>1</groupindex>
            </link>
            <link>
              <linkclipref>clipitem-73</linkclipref>
              <mediatype>audio</mediatype>
              <trackindex>2</trackindex>
              <clipindex>1</clipindex>
              <groupindex>1</groupindex>
            </link>
            <link>
              <linkclipref>clipitem-74</linkclipref>
              <mediatype>audio</mediatype>
              <trackindex>3</trackindex>
              <clipindex>1</clipindex>
              <groupindex>1</groupindex>
            </link>
            <link>
              <linkclipref>clipitem-75</linkclipref>
              <mediatype>audio</mediatype>
              <trackindex>4</trackindex>
              <clipindex>1</clipindex>
              <groupindex>1</groupindex>
            </link>
            <link>
              <linkclipref>clipitem-76</linkclipref>
              <mediatype>audio</mediatype>
              <trackindex>5</trackindex>
              <clipindex>1</clipindex>
              <groupindex>1</groupindex>
            </link>
            <link>
              <linkclipref>clipitem-77</linkclipref>
              <mediatype>audio</mediatype>
              <trackindex>6</trackindex>
              <clipindex>1</clipindex>
              <groupindex>1</groupindex>
            </link>
          </clipitem>
          <clipitem id="clipitem-81" premiereChannelType="Stereo">
            <masterclipid>masterclip-1</masterclipid>
            <name>2023-04-01 14-56-52溪神带上钻局CC.mp4</name>
            <enabled>TRUE</enabled>
            <rate>
              <timebase>60</timebase>
              <ntsc>FALSE</ntsc>
            </rate>
            <start>1086</start>
            <end>1222</end>
            <in>23095</in>
            <out>23231</out>
            <file id="file-1"/>
            <sourcetrack>
              <mediatype>audio</mediatype>
              <trackindex>2</trackindex>
            </sourcetrack>
            <link>
              <linkclipref>clipitem-78</linkclipref>
              <mediatype>video</mediatype>
              <trackindex>1</trackindex>
              <clipindex>1</clipindex>
            </link>
            <link>
              <linkclipref>clipitem-79</linkclipref>
              <mediatype>audio</mediatype>
              <trackindex>1</trackindex>
              <clipindex>1</clipindex>
              <groupindex>1</groupindex>
            </link>
            <link>
              <linkclipref>clipitem-80</linkclipref>
              <mediatype>audio</mediatype>
              <trackindex>2</trackindex>
              <clipindex>1</clipindex>
              <groupindex>1</groupindex>
            </link>
            <link>
              <linkclipref>clipitem-81</linkclipref>
              <mediatype>audio</mediatype>
              <trackindex>3</trackindex>
              <clipindex>1</clipindex>
              <groupindex>1</groupindex>
            </link>
            <link>
              <linkclipref>clipitem-82</linkclipref>
              <mediatype>audio</mediatype>
              <trackindex>4</trackindex>
              <clipindex>1</clipindex>
              <groupindex>1</groupindex>
            </link>
            <link>
              <linkclipref>clipitem-83</linkclipref>
              <mediatype>audio</mediatype>
              <trackindex>5</trackindex>
              <clipindex>1</clipindex>
              <groupindex>1</groupindex>
            </link>
            <link>
              <linkclipref>clipitem-84</linkclipref>
              <mediatype>audio</mediatype>
              <trackindex>6</trackindex>
              <clipindex>1</clipindex>
              <groupindex>1</groupindex>
            </link>
          </clipitem>
          <clipitem id="clipitem-88" premiereChannelType="Stereo">
            <masterclipid>masterclip-1</masterclipid>
            <name>2023-04-01 14-56-52溪神带上钻局CC.mp4</name>
            <enabled>TRUE</enabled>
            <rate>
              <timebase>60</timebase>
              <ntsc>FALSE</ntsc>
            </rate>
            <start>1222</start>
            <end>1377</end>
            <in>23363</in>
            <out>23518</out>
            <file id="file-1"/>
            <sourcetrack>
              <mediatype>audio</mediatype>
              <trackindex>2</trackindex>
            </sourcetrack>
            <link>
              <linkclipref>clipitem-85</linkclipref>
              <mediatype>video</mediatype>
              <trackindex>1</trackindex>
              <clipindex>1</clipindex>
            </link>
            <link>
              <linkclipref>clipitem-86</linkclipref>
              <mediatype>audio</mediatype>
              <trackindex>1</trackindex>
              <clipindex>1</clipindex>
              <groupindex>1</groupindex>
            </link>
            <link>
              <linkclipref>clipitem-87</linkclipref>
              <mediatype>audio</mediatype>
              <trackindex>2</trackindex>
              <clipindex>1</clipindex>
              <groupindex>1</groupindex>
            </link>
            <link>
              <linkclipref>clipitem-88</linkclipref>
              <mediatype>audio</mediatype>
              <trackindex>3</trackindex>
              <clipindex>1</clipindex>
              <groupindex>1</groupindex>
            </link>
            <link>
              <linkclipref>clipitem-89</linkclipref>
              <mediatype>audio</mediatype>
              <trackindex>4</trackindex>
              <clipindex>1</clipindex>
              <groupindex>1</groupindex>
            </link>
            <link>
              <linkclipref>clipitem-90</linkclipref>
              <mediatype>audio</mediatype>
              <trackindex>5</trackindex>
              <clipindex>1</clipindex>
              <groupindex>1</groupindex>
            </link>
            <link>
              <linkclipref>clipitem-91</linkclipref>
              <mediatype>audio</mediatype>
              <trackindex>6</trackindex>
              <clipindex>1</clipindex>
              <groupindex>1</groupindex>
            </link>
          </clipitem>
          <clipitem id="clipitem-95" premiereChannelType="Stereo">
            <masterclipid>masterclip-1</masterclipid>
            <name>2023-04-01 14-56-52溪神带上钻局CC.mp4</name>
            <enabled>TRUE</enabled>
            <rate>
              <timebase>60</timebase>
              <ntsc>FALSE</ntsc>
            </rate>
            <start>1377</start>
            <end>1585</end>
            <in>23972</in>
            <out>24180</out>
            <file id="file-1"/>
            <sourcetrack>
              <mediatype>audio</mediatype>
              <trackindex>2</trackindex>
            </sourcetrack>
            <link>
              <linkclipref>clipitem-92</linkclipref>
              <mediatype>video</mediatype>
              <trackindex>1</trackindex>
              <clipindex>1</clipindex>
            </link>
            <link>
              <linkclipref>clipitem-93</linkclipref>
              <mediatype>audio</mediatype>
              <trackindex>1</trackindex>
              <clipindex>1</clipindex>
              <groupindex>1</groupindex>
            </link>
            <link>
              <linkclipref>clipitem-94</linkclipref>
              <mediatype>audio</mediatype>
              <trackindex>2</trackindex>
              <clipindex>1</clipindex>
              <groupindex>1</groupindex>
            </link>
            <link>
              <linkclipref>clipitem-95</linkclipref>
              <mediatype>audio</mediatype>
              <trackindex>3</trackindex>
              <clipindex>1</clipindex>
              <groupindex>1</groupindex>
            </link>
            <link>
              <linkclipref>clipitem-96</linkclipref>
              <mediatype>audio</mediatype>
              <trackindex>4</trackindex>
              <clipindex>1</clipindex>
              <groupindex>1</groupindex>
            </link>
            <link>
              <linkclipref>clipitem-97</linkclipref>
              <mediatype>audio</mediatype>
              <trackindex>5</trackindex>
              <clipindex>1</clipindex>
              <groupindex>1</groupindex>
            </link>
            <link>
              <linkclipref>clipitem-98</linkclipref>
              <mediatype>audio</mediatype>
              <trackindex>6</trackindex>
              <clipindex>1</clipindex>
              <groupindex>1</groupindex>
            </link>
          </clipitem>
          <clipitem id="clipitem-102" premiereChannelType="Stereo">
            <masterclipid>masterclip-1</masterclipid>
            <name>2023-04-01 14-56-52溪神带上钻局CC.mp4</name>
            <enabled>TRUE</enabled>
            <rate>
              <timebase>60</timebase>
              <ntsc>FALSE</ntsc>
            </rate>
            <start>1585</start>
            <end>1746</end>
            <in>27845</in>
            <out>28006</out>
            <file id="file-1"/>
            <sourcetrack>
              <mediatype>audio</mediatype>
              <trackindex>2</trackindex>
            </sourcetrack>
            <link>
              <linkclipref>clipitem-99</linkclipref>
              <mediatype>video</mediatype>
              <trackindex>1</trackindex>
              <clipindex>1</clipindex>
            </link>
            <link>
              <linkclipref>clipitem-100</linkclipref>
              <mediatype>audio</mediatype>
              <trackindex>1</trackindex>
              <clipindex>1</clipindex>
              <groupindex>1</groupindex>
            </link>
            <link>
              <linkclipref>clipitem-101</linkclipref>
              <mediatype>audio</mediatype>
              <trackindex>2</trackindex>
              <clipindex>1</clipindex>
              <groupindex>1</groupindex>
            </link>
            <link>
              <linkclipref>clipitem-102</linkclipref>
              <mediatype>audio</mediatype>
              <trackindex>3</trackindex>
              <clipindex>1</clipindex>
              <groupindex>1</groupindex>
            </link>
            <link>
              <linkclipref>clipitem-103</linkclipref>
              <mediatype>audio</mediatype>
              <trackindex>4</trackindex>
              <clipindex>1</clipindex>
              <groupindex>1</groupindex>
            </link>
            <link>
              <linkclipref>clipitem-104</linkclipref>
              <mediatype>audio</mediatype>
              <trackindex>5</trackindex>
              <clipindex>1</clipindex>
              <groupindex>1</groupindex>
            </link>
            <link>
              <linkclipref>clipitem-105</linkclipref>
              <mediatype>audio</mediatype>
              <trackindex>6</trackindex>
              <clipindex>1</clipindex>
              <groupindex>1</groupindex>
            </link>
          </clipitem>
          <clipitem id="clipitem-109" premiereChannelType="Stereo">
            <masterclipid>masterclip-1</masterclipid>
            <name>2023-04-01 14-56-52溪神带上钻局CC.mp4</name>
            <enabled>TRUE</enabled>
            <rate>
              <timebase>60</timebase>
              <ntsc>FALSE</ntsc>
            </rate>
            <start>1746</start>
            <end>1825</end>
            <in>28363</in>
            <out>28442</out>
            <file id="file-1"/>
            <sourcetrack>
              <mediatype>audio</mediatype>
              <trackindex>2</trackindex>
            </sourcetrack>
            <link>
              <linkclipref>clipitem-106</linkclipref>
              <mediatype>video</mediatype>
              <trackindex>1</trackindex>
              <clipindex>1</clipindex>
            </link>
            <link>
              <linkclipref>clipitem-107</linkclipref>
              <mediatype>audio</mediatype>
              <trackindex>1</trackindex>
              <clipindex>1</clipindex>
              <groupindex>1</groupindex>
            </link>
            <link>
              <linkclipref>clipitem-108</linkclipref>
              <mediatype>audio</mediatype>
              <trackindex>2</trackindex>
              <clipindex>1</clipindex>
              <groupindex>1</groupindex>
            </link>
            <link>
              <linkclipref>clipitem-109</linkclipref>
              <mediatype>audio</mediatype>
              <trackindex>3</trackindex>
              <clipindex>1</clipindex>
              <groupindex>1</groupindex>
            </link>
            <link>
              <linkclipref>clipitem-110</linkclipref>
              <mediatype>audio</mediatype>
              <trackindex>4</trackindex>
              <clipindex>1</clipindex>
              <groupindex>1</groupindex>
            </link>
            <link>
              <linkclipref>clipitem-111</linkclipref>
              <mediatype>audio</mediatype>
              <trackindex>5</trackindex>
              <clipindex>1</clipindex>
              <groupindex>1</groupindex>
            </link>
            <link>
              <linkclipref>clipitem-112</linkclipref>
              <mediatype>audio</mediatype>
              <trackindex>6</trackindex>
              <clipindex>1</clipindex>
              <groupindex>1</groupindex>
            </link>
          </clipitem>
          <clipitem id="clipitem-116" premiereChannelType="Stereo">
            <masterclipid>masterclip-1</masterclipid>
            <name>2023-04-01 14-56-52溪神带上钻局CC.mp4</name>
            <enabled>TRUE</enabled>
            <rate>
              <timebase>60</timebase>
              <ntsc>FALSE</ntsc>
            </rate>
            <start>1825</start>
            <end>2005</end>
            <in>29080</in>
            <out>29260</out>
            <file id="file-1"/>
            <sourcetrack>
              <mediatype>audio</mediatype>
              <trackindex>2</trackindex>
            </sourcetrack>
            <link>
              <linkclipref>clipitem-113</linkclipref>
              <mediatype>video</mediatype>
              <trackindex>1</trackindex>
              <clipindex>1</clipindex>
            </link>
            <link>
              <linkclipref>clipitem-114</linkclipref>
              <mediatype>audio</mediatype>
              <trackindex>1</trackindex>
              <clipindex>1</clipindex>
              <groupindex>1</groupindex>
            </link>
            <link>
              <linkclipref>clipitem-115</linkclipref>
              <mediatype>audio</mediatype>
              <trackindex>2</trackindex>
              <clipindex>1</clipindex>
              <groupindex>1</groupindex>
            </link>
            <link>
              <linkclipref>clipitem-116</linkclipref>
              <mediatype>audio</mediatype>
              <trackindex>3</trackindex>
              <clipindex>1</clipindex>
              <groupindex>1</groupindex>
            </link>
            <link>
              <linkclipref>clipitem-117</linkclipref>
              <mediatype>audio</mediatype>
              <trackindex>4</trackindex>
              <clipindex>1</clipindex>
              <groupindex>1</groupindex>
            </link>
            <link>
              <linkclipref>clipitem-118</linkclipref>
              <mediatype>audio</mediatype>
              <trackindex>5</trackindex>
              <clipindex>1</clipindex>
              <groupindex>1</groupindex>
            </link>
            <link>
              <linkclipref>clipitem-119</linkclipref>
              <mediatype>audio</mediatype>
              <trackindex>6</trackindex>
              <clipindex>1</clipindex>
              <groupindex>1</groupindex>
            </link>
          </clipitem>
          <clipitem id="clipitem-123" premiereChannelType="Stereo">
            <masterclipid>masterclip-1</masterclipid>
            <name>2023-04-01 14-56-52溪神带上钻局CC.mp4</name>
            <enabled>TRUE</enabled>
            <rate>
              <timebase>60</timebase>
              <ntsc>FALSE</ntsc>
            </rate>
            <start>2005</start>
            <end>2023</end>
            <in>29971</in>
            <out>29989</out>
            <file id="file-1"/>
            <sourcetrack>
              <mediatype>audio</mediatype>
              <trackindex>2</trackindex>
            </sourcetrack>
            <link>
              <linkclipref>clipitem-120</linkclipref>
              <mediatype>video</mediatype>
              <trackindex>1</trackindex>
              <clipindex>1</clipindex>
            </link>
            <link>
              <linkclipref>clipitem-121</linkclipref>
              <mediatype>audio</mediatype>
              <trackindex>1</trackindex>
              <clipindex>1</clipindex>
              <groupindex>1</groupindex>
            </link>
            <link>
              <linkclipref>clipitem-122</linkclipref>
              <mediatype>audio</mediatype>
              <trackindex>2</trackindex>
              <clipindex>1</clipindex>
              <groupindex>1</groupindex>
            </link>
            <link>
              <linkclipref>clipitem-123</linkclipref>
              <mediatype>audio</mediatype>
              <trackindex>3</trackindex>
              <clipindex>1</clipindex>
              <groupindex>1</groupindex>
            </link>
            <link>
              <linkclipref>clipitem-124</linkclipref>
              <mediatype>audio</mediatype>
              <trackindex>4</trackindex>
              <clipindex>1</clipindex>
              <groupindex>1</groupindex>
            </link>
            <link>
              <linkclipref>clipitem-125</linkclipref>
              <mediatype>audio</mediatype>
              <trackindex>5</trackindex>
              <clipindex>1</clipindex>
              <groupindex>1</groupindex>
            </link>
            <link>
              <linkclipref>clipitem-126</linkclipref>
              <mediatype>audio</mediatype>
              <trackindex>6</trackindex>
              <clipindex>1</clipindex>
              <groupindex>1</groupindex>
            </link>
          </clipitem>
          <clipitem id="clipitem-130" premiereChannelType="Stereo">
            <masterclipid>masterclip-1</masterclipid>
            <name>2023-04-01 14-56-52溪神带上钻局CC.mp4</name>
            <enabled>TRUE</enabled>
            <rate>
              <timebase>60</timebase>
              <ntsc>FALSE</ntsc>
            </rate>
            <start>2023</start>
            <end>2100</end>
            <in>30064</in>
            <out>30141</out>
            <file id="file-1"/>
            <sourcetrack>
              <mediatype>audio</mediatype>
              <trackindex>2</trackindex>
            </sourcetrack>
            <link>
              <linkclipref>clipitem-127</linkclipref>
              <mediatype>video</mediatype>
              <trackindex>1</trackindex>
              <clipindex>1</clipindex>
            </link>
            <link>
              <linkclipref>clipitem-128</linkclipref>
              <mediatype>audio</mediatype>
              <trackindex>1</trackindex>
              <clipindex>1</clipindex>
              <groupindex>1</groupindex>
            </link>
            <link>
              <linkclipref>clipitem-129</linkclipref>
              <mediatype>audio</mediatype>
              <trackindex>2</trackindex>
              <clipindex>1</clipindex>
              <groupindex>1</groupindex>
            </link>
            <link>
              <linkclipref>clipitem-130</linkclipref>
              <mediatype>audio</mediatype>
              <trackindex>3</trackindex>
              <clipindex>1</clipindex>
              <groupindex>1</groupindex>
            </link>
            <link>
              <linkclipref>clipitem-131</linkclipref>
              <mediatype>audio</mediatype>
              <trackindex>4</trackindex>
              <clipindex>1</clipindex>
              <groupindex>1</groupindex>
            </link>
            <link>
              <linkclipref>clipitem-132</linkclipref>
              <mediatype>audio</mediatype>
              <trackindex>5</trackindex>
              <clipindex>1</clipindex>
              <groupindex>1</groupindex>
            </link>
            <link>
              <linkclipref>clipitem-133</linkclipref>
              <mediatype>audio</mediatype>
              <trackindex>6</trackindex>
              <clipindex>1</clipindex>
              <groupindex>1</groupindex>
            </link>
          </clipitem>
          <clipitem id="clipitem-137" premiereChannelType="Stereo">
            <masterclipid>masterclip-1</masterclipid>
            <name>2023-04-01 14-56-52溪神带上钻局CC.mp4</name>
            <enabled>TRUE</enabled>
            <rate>
              <timebase>60</timebase>
              <ntsc>FALSE</ntsc>
            </rate>
            <start>2100</start>
            <end>2267</end>
            <in>30347</in>
            <out>30514</out>
            <file id="file-1"/>
            <sourcetrack>
              <mediatype>audio</mediatype>
              <trackindex>2</trackindex>
            </sourcetrack>
            <link>
              <linkclipref>clipitem-134</linkclipref>
              <mediatype>video</mediatype>
              <trackindex>1</trackindex>
              <clipindex>1</clipindex>
            </link>
            <link>
              <linkclipref>clipitem-135</linkclipref>
              <mediatype>audio</mediatype>
              <trackindex>1</trackindex>
              <clipindex>1</clipindex>
              <groupindex>1</groupindex>
            </link>
            <link>
              <linkclipref>clipitem-136</linkclipref>
              <mediatype>audio</mediatype>
              <trackindex>2</trackindex>
              <clipindex>1</clipindex>
              <groupindex>1</groupindex>
            </link>
            <link>
              <linkclipref>clipitem-137</linkclipref>
              <mediatype>audio</mediatype>
              <trackindex>3</trackindex>
              <clipindex>1</clipindex>
              <groupindex>1</groupindex>
            </link>
            <link>
              <linkclipref>clipitem-138</linkclipref>
              <mediatype>audio</mediatype>
              <trackindex>4</trackindex>
              <clipindex>1</clipindex>
              <groupindex>1</groupindex>
            </link>
            <link>
              <linkclipref>clipitem-139</linkclipref>
              <mediatype>audio</mediatype>
              <trackindex>5</trackindex>
              <clipindex>1</clipindex>
              <groupindex>1</groupindex>
            </link>
            <link>
              <linkclipref>clipitem-140</linkclipref>
              <mediatype>audio</mediatype>
              <trackindex>6</trackindex>
              <clipindex>1</clipindex>
              <groupindex>1</groupindex>
            </link>
          </clipitem>
          <clipitem id="clipitem-144" premiereChannelType="Stereo">
            <masterclipid>masterclip-1</masterclipid>
            <name>2023-04-01 14-56-52溪神带上钻局CC.mp4</name>
            <enabled>TRUE</enabled>
            <rate>
              <timebase>60</timebase>
              <ntsc>FALSE</ntsc>
            </rate>
            <start>2267</start>
            <end>2391</end>
            <in>41935</in>
            <out>42059</out>
            <file id="file-1"/>
            <sourcetrack>
              <mediatype>audio</mediatype>
              <trackindex>2</trackindex>
            </sourcetrack>
            <link>
              <linkclipref>clipitem-141</linkclipref>
              <mediatype>video</mediatype>
              <trackindex>1</trackindex>
              <clipindex>1</clipindex>
            </link>
            <link>
              <linkclipref>clipitem-142</linkclipref>
              <mediatype>audio</mediatype>
              <trackindex>1</trackindex>
              <clipindex>1</clipindex>
              <groupindex>1</groupindex>
            </link>
            <link>
              <linkclipref>clipitem-143</linkclipref>
              <mediatype>audio</mediatype>
              <trackindex>2</trackindex>
              <clipindex>1</clipindex>
              <groupindex>1</groupindex>
            </link>
            <link>
              <linkclipref>clipitem-144</linkclipref>
              <mediatype>audio</mediatype>
              <trackindex>3</trackindex>
              <clipindex>1</clipindex>
              <groupindex>1</groupindex>
            </link>
            <link>
              <linkclipref>clipitem-145</linkclipref>
              <mediatype>audio</mediatype>
              <trackindex>4</trackindex>
              <clipindex>1</clipindex>
              <groupindex>1</groupindex>
            </link>
            <link>
              <linkclipref>clipitem-146</linkclipref>
              <mediatype>audio</mediatype>
              <trackindex>5</trackindex>
              <clipindex>1</clipindex>
              <groupindex>1</groupindex>
            </link>
            <link>
              <linkclipref>clipitem-147</linkclipref>
              <mediatype>audio</mediatype>
              <trackindex>6</trackindex>
              <clipindex>1</clipindex>
              <groupindex>1</groupindex>
            </link>
          </clipitem>
          <clipitem id="clipitem-151" premiereChannelType="Stereo">
            <masterclipid>masterclip-1</masterclipid>
            <name>2023-04-01 14-56-52溪神带上钻局CC.mp4</name>
            <enabled>TRUE</enabled>
            <rate>
              <timebase>60</timebase>
              <ntsc>FALSE</ntsc>
            </rate>
            <start>2391</start>
            <end>2618</end>
            <in>46337</in>
            <out>46564</out>
            <file id="file-1"/>
            <sourcetrack>
              <mediatype>audio</mediatype>
              <trackindex>2</trackindex>
            </sourcetrack>
            <link>
              <linkclipref>clipitem-148</linkclipref>
              <mediatype>video</mediatype>
              <trackindex>1</trackindex>
              <clipindex>1</clipindex>
            </link>
            <link>
              <linkclipref>clipitem-149</linkclipref>
              <mediatype>audio</mediatype>
              <trackindex>1</trackindex>
              <clipindex>1</clipindex>
              <groupindex>1</groupindex>
            </link>
            <link>
              <linkclipref>clipitem-150</linkclipref>
              <mediatype>audio</mediatype>
              <trackindex>2</trackindex>
              <clipindex>1</clipindex>
              <groupindex>1</groupindex>
            </link>
            <link>
              <linkclipref>clipitem-151</linkclipref>
              <mediatype>audio</mediatype>
              <trackindex>3</trackindex>
              <clipindex>1</clipindex>
              <groupindex>1</groupindex>
            </link>
            <link>
              <linkclipref>clipitem-152</linkclipref>
              <mediatype>audio</mediatype>
              <trackindex>4</trackindex>
              <clipindex>1</clipindex>
              <groupindex>1</groupindex>
            </link>
            <link>
              <linkclipref>clipitem-153</linkclipref>
              <mediatype>audio</mediatype>
              <trackindex>5</trackindex>
              <clipindex>1</clipindex>
              <groupindex>1</groupindex>
            </link>
            <link>
              <linkclipref>clipitem-154</linkclipref>
              <mediatype>audio</mediatype>
              <trackindex>6</trackindex>
              <clipindex>1</clipindex>
              <groupindex>1</groupindex>
            </link>
          </clipitem>
          <clipitem id="clipitem-158" premiereChannelType="Stereo">
            <masterclipid>masterclip-1</masterclipid>
            <name>2023-04-01 14-56-52溪神带上钻局CC.mp4</name>
            <enabled>TRUE</enabled>
            <rate>
              <timebase>60</timebase>
              <ntsc>FALSE</ntsc>
            </rate>
            <start>2618</start>
            <end>2894</end>
            <in>47608</in>
            <out>47884</out>
            <file id="file-1"/>
            <sourcetrack>
              <mediatype>audio</mediatype>
              <trackindex>2</trackindex>
            </sourcetrack>
            <link>
              <linkclipref>clipitem-155</linkclipref>
              <mediatype>video</mediatype>
              <trackindex>1</trackindex>
              <clipindex>1</clipindex>
            </link>
            <link>
              <linkclipref>clipitem-156</linkclipref>
              <mediatype>audio</mediatype>
              <trackindex>1</trackindex>
              <clipindex>1</clipindex>
              <groupindex>1</groupindex>
            </link>
            <link>
              <linkclipref>clipitem-157</linkclipref>
              <mediatype>audio</mediatype>
              <trackindex>2</trackindex>
              <clipindex>1</clipindex>
              <groupindex>1</groupindex>
            </link>
            <link>
              <linkclipref>clipitem-158</linkclipref>
              <mediatype>audio</mediatype>
              <trackindex>3</trackindex>
              <clipindex>1</clipindex>
              <groupindex>1</groupindex>
            </link>
            <link>
              <linkclipref>clipitem-159</linkclipref>
              <mediatype>audio</mediatype>
              <trackindex>4</trackindex>
              <clipindex>1</clipindex>
              <groupindex>1</groupindex>
            </link>
            <link>
              <linkclipref>clipitem-160</linkclipref>
              <mediatype>audio</mediatype>
              <trackindex>5</trackindex>
              <clipindex>1</clipindex>
              <groupindex>1</groupindex>
            </link>
            <link>
              <linkclipref>clipitem-161</linkclipref>
              <mediatype>audio</mediatype>
              <trackindex>6</trackindex>
              <clipindex>1</clipindex>
              <groupindex>1</groupindex>
            </link>
          </clipitem>
          <clipitem id="clipitem-165" premiereChannelType="Stereo">
            <masterclipid>masterclip-1</masterclipid>
            <name>2023-04-01 14-56-52溪神带上钻局CC.mp4</name>
            <enabled>TRUE</enabled>
            <rate>
              <timebase>60</timebase>
              <ntsc>FALSE</ntsc>
            </rate>
            <start>2894</start>
            <end>3196</end>
            <in>47995</in>
            <out>48297</out>
            <file id="file-1"/>
            <sourcetrack>
              <mediatype>audio</mediatype>
              <trackindex>2</trackindex>
            </sourcetrack>
            <link>
              <linkclipref>clipitem-162</linkclipref>
              <mediatype>video</mediatype>
              <trackindex>1</trackindex>
              <clipindex>1</clipindex>
            </link>
            <link>
              <linkclipref>clipitem-163</linkclipref>
              <mediatype>audio</mediatype>
              <trackindex>1</trackindex>
              <clipindex>1</clipindex>
              <groupindex>1</groupindex>
            </link>
            <link>
              <linkclipref>clipitem-164</linkclipref>
              <mediatype>audio</mediatype>
              <trackindex>2</trackindex>
              <clipindex>1</clipindex>
              <groupindex>1</groupindex>
            </link>
            <link>
              <linkclipref>clipitem-165</linkclipref>
              <mediatype>audio</mediatype>
              <trackindex>3</trackindex>
              <clipindex>1</clipindex>
              <groupindex>1</groupindex>
            </link>
            <link>
              <linkclipref>clipitem-166</linkclipref>
              <mediatype>audio</mediatype>
              <trackindex>4</trackindex>
              <clipindex>1</clipindex>
              <groupindex>1</groupindex>
            </link>
            <link>
              <linkclipref>clipitem-167</linkclipref>
              <mediatype>audio</mediatype>
              <trackindex>5</trackindex>
              <clipindex>1</clipindex>
              <groupindex>1</groupindex>
            </link>
            <link>
              <linkclipref>clipitem-168</linkclipref>
              <mediatype>audio</mediatype>
              <trackindex>6</trackindex>
              <clipindex>1</clipindex>
              <groupindex>1</groupindex>
            </link>
          </clipitem>
          <clipitem id="clipitem-172" premiereChannelType="Stereo">
            <masterclipid>masterclip-1</masterclipid>
            <name>2023-04-01 14-56-52溪神带上钻局CC.mp4</name>
            <enabled>TRUE</enabled>
            <rate>
              <timebase>60</timebase>
              <ntsc>FALSE</ntsc>
            </rate>
            <start>3196</start>
            <end>3357</end>
            <in>49039</in>
            <out>49200</out>
            <file id="file-1"/>
            <sourcetrack>
              <mediatype>audio</mediatype>
              <trackindex>2</trackindex>
            </sourcetrack>
            <link>
              <linkclipref>clipitem-169</linkclipref>
              <mediatype>video</mediatype>
              <trackindex>1</trackindex>
              <clipindex>1</clipindex>
            </link>
            <link>
              <linkclipref>clipitem-170</linkclipref>
              <mediatype>audio</mediatype>
              <trackindex>1</trackindex>
              <clipindex>1</clipindex>
              <groupindex>1</groupindex>
            </link>
            <link>
              <linkclipref>clipitem-171</linkclipref>
              <mediatype>audio</mediatype>
              <trackindex>2</trackindex>
              <clipindex>1</clipindex>
              <groupindex>1</groupindex>
            </link>
            <link>
              <linkclipref>clipitem-172</linkclipref>
              <mediatype>audio</mediatype>
              <trackindex>3</trackindex>
              <clipindex>1</clipindex>
              <groupindex>1</groupindex>
            </link>
            <link>
              <linkclipref>clipitem-173</linkclipref>
              <mediatype>audio</mediatype>
              <trackindex>4</trackindex>
              <clipindex>1</clipindex>
              <groupindex>1</groupindex>
            </link>
            <link>
              <linkclipref>clipitem-174</linkclipref>
              <mediatype>audio</mediatype>
              <trackindex>5</trackindex>
              <clipindex>1</clipindex>
              <groupindex>1</groupindex>
            </link>
            <link>
              <linkclipref>clipitem-175</linkclipref>
              <mediatype>audio</mediatype>
              <trackindex>6</trackindex>
              <clipindex>1</clipindex>
              <groupindex>1</groupindex>
            </link>
          </clipitem>
          <clipitem id="clipitem-179" premiereChannelType="Stereo">
            <masterclipid>masterclip-1</masterclipid>
            <name>2023-04-01 14-56-52溪神带上钻局CC.mp4</name>
            <enabled>TRUE</enabled>
            <rate>
              <timebase>60</timebase>
              <ntsc>FALSE</ntsc>
            </rate>
            <start>3357</start>
            <end>3460</end>
            <in>50487</in>
            <out>50590</out>
            <file id="file-1"/>
            <sourcetrack>
              <mediatype>audio</mediatype>
              <trackindex>2</trackindex>
            </sourcetrack>
            <link>
              <linkclipref>clipitem-176</linkclipref>
              <mediatype>video</mediatype>
              <trackindex>1</trackindex>
              <clipindex>1</clipindex>
            </link>
            <link>
              <linkclipref>clipitem-177</linkclipref>
              <mediatype>audio</mediatype>
              <trackindex>1</trackindex>
              <clipindex>1</clipindex>
              <groupindex>1</groupindex>
            </link>
            <link>
              <linkclipref>clipitem-178</linkclipref>
              <mediatype>audio</mediatype>
              <trackindex>2</trackindex>
              <clipindex>1</clipindex>
              <groupindex>1</groupindex>
            </link>
            <link>
              <linkclipref>clipitem-179</linkclipref>
              <mediatype>audio</mediatype>
              <trackindex>3</trackindex>
              <clipindex>1</clipindex>
              <groupindex>1</groupindex>
            </link>
            <link>
              <linkclipref>clipitem-180</linkclipref>
              <mediatype>audio</mediatype>
              <trackindex>4</trackindex>
              <clipindex>1</clipindex>
              <groupindex>1</groupindex>
            </link>
            <link>
              <linkclipref>clipitem-181</linkclipref>
              <mediatype>audio</mediatype>
              <trackindex>5</trackindex>
              <clipindex>1</clipindex>
              <groupindex>1</groupindex>
            </link>
            <link>
              <linkclipref>clipitem-182</linkclipref>
              <mediatype>audio</mediatype>
              <trackindex>6</trackindex>
              <clipindex>1</clipindex>
              <groupindex>1</groupindex>
            </link>
          </clipitem>
          <clipitem id="clipitem-186" premiereChannelType="Stereo">
            <masterclipid>masterclip-1</masterclipid>
            <name>2023-04-01 14-56-52溪神带上钻局CC.mp4</name>
            <enabled>TRUE</enabled>
            <rate>
              <timebase>60</timebase>
              <ntsc>FALSE</ntsc>
            </rate>
            <start>3460</start>
            <end>3587</end>
            <in>50744</in>
            <out>50871</out>
            <file id="file-1"/>
            <sourcetrack>
              <mediatype>audio</mediatype>
              <trackindex>2</trackindex>
            </sourcetrack>
            <link>
              <linkclipref>clipitem-183</linkclipref>
              <mediatype>video</mediatype>
              <trackindex>1</trackindex>
              <clipindex>1</clipindex>
            </link>
            <link>
              <linkclipref>clipitem-184</linkclipref>
              <mediatype>audio</mediatype>
              <trackindex>1</trackindex>
              <clipindex>1</clipindex>
              <groupindex>1</groupindex>
            </link>
            <link>
              <linkclipref>clipitem-185</linkclipref>
              <mediatype>audio</mediatype>
              <trackindex>2</trackindex>
              <clipindex>1</clipindex>
              <groupindex>1</groupindex>
            </link>
            <link>
              <linkclipref>clipitem-186</linkclipref>
              <mediatype>audio</mediatype>
              <trackindex>3</trackindex>
              <clipindex>1</clipindex>
              <groupindex>1</groupindex>
            </link>
            <link>
              <linkclipref>clipitem-187</linkclipref>
              <mediatype>audio</mediatype>
              <trackindex>4</trackindex>
              <clipindex>1</clipindex>
              <groupindex>1</groupindex>
            </link>
            <link>
              <linkclipref>clipitem-188</linkclipref>
              <mediatype>audio</mediatype>
              <trackindex>5</trackindex>
              <clipindex>1</clipindex>
              <groupindex>1</groupindex>
            </link>
            <link>
              <linkclipref>clipitem-189</linkclipref>
              <mediatype>audio</mediatype>
              <trackindex>6</trackindex>
              <clipindex>1</clipindex>
              <groupindex>1</groupindex>
            </link>
          </clipitem>
          <clipitem id="clipitem-193" premiereChannelType="Stereo">
            <masterclipid>masterclip-1</masterclipid>
            <name>2023-04-01 14-56-52溪神带上钻局CC.mp4</name>
            <enabled>TRUE</enabled>
            <rate>
              <timebase>60</timebase>
              <ntsc>FALSE</ntsc>
            </rate>
            <start>3587</start>
            <end>3794</end>
            <in>50965</in>
            <out>51172</out>
            <file id="file-1"/>
            <sourcetrack>
              <mediatype>audio</mediatype>
              <trackindex>2</trackindex>
            </sourcetrack>
            <link>
              <linkclipref>clipitem-190</linkclipref>
              <mediatype>video</mediatype>
              <trackindex>1</trackindex>
              <clipindex>1</clipindex>
            </link>
            <link>
              <linkclipref>clipitem-191</linkclipref>
              <mediatype>audio</mediatype>
              <trackindex>1</trackindex>
              <clipindex>1</clipindex>
              <groupindex>1</groupindex>
            </link>
            <link>
              <linkclipref>clipitem-192</linkclipref>
              <mediatype>audio</mediatype>
              <trackindex>2</trackindex>
              <clipindex>1</clipindex>
              <groupindex>1</groupindex>
            </link>
            <link>
              <linkclipref>clipitem-193</linkclipref>
              <mediatype>audio</mediatype>
              <trackindex>3</trackindex>
              <clipindex>1</clipindex>
              <groupindex>1</groupindex>
            </link>
            <link>
              <linkclipref>clipitem-194</linkclipref>
              <mediatype>audio</mediatype>
              <trackindex>4</trackindex>
              <clipindex>1</clipindex>
              <groupindex>1</groupindex>
            </link>
            <link>
              <linkclipref>clipitem-195</linkclipref>
              <mediatype>audio</mediatype>
              <trackindex>5</trackindex>
              <clipindex>1</clipindex>
              <groupindex>1</groupindex>
            </link>
            <link>
              <linkclipref>clipitem-196</linkclipref>
              <mediatype>audio</mediatype>
              <trackindex>6</trackindex>
              <clipindex>1</clipindex>
              <groupindex>1</groupindex>
            </link>
          </clipitem>
          <clipitem id="clipitem-200" premiereChannelType="Stereo">
            <masterclipid>masterclip-1</masterclipid>
            <name>2023-04-01 14-56-52溪神带上钻局CC.mp4</name>
            <enabled>TRUE</enabled>
            <rate>
              <timebase>60</timebase>
              <ntsc>FALSE</ntsc>
            </rate>
            <start>3794</start>
            <end>3897</end>
            <in>59295</in>
            <out>59398</out>
            <file id="file-1"/>
            <sourcetrack>
              <mediatype>audio</mediatype>
              <trackindex>2</trackindex>
            </sourcetrack>
            <link>
              <linkclipref>clipitem-197</linkclipref>
              <mediatype>video</mediatype>
              <trackindex>1</trackindex>
              <clipindex>1</clipindex>
            </link>
            <link>
              <linkclipref>clipitem-198</linkclipref>
              <mediatype>audio</mediatype>
              <trackindex>1</trackindex>
              <clipindex>1</clipindex>
              <groupindex>1</groupindex>
            </link>
            <link>
              <linkclipref>clipitem-199</linkclipref>
              <mediatype>audio</mediatype>
              <trackindex>2</trackindex>
              <clipindex>1</clipindex>
              <groupindex>1</groupindex>
            </link>
            <link>
              <linkclipref>clipitem-200</linkclipref>
              <mediatype>audio</mediatype>
              <trackindex>3</trackindex>
              <clipindex>1</clipindex>
              <groupindex>1</groupindex>
            </link>
            <link>
              <linkclipref>clipitem-201</linkclipref>
              <mediatype>audio</mediatype>
              <trackindex>4</trackindex>
              <clipindex>1</clipindex>
              <groupindex>1</groupindex>
            </link>
            <link>
              <linkclipref>clipitem-202</linkclipref>
              <mediatype>audio</mediatype>
              <trackindex>5</trackindex>
              <clipindex>1</clipindex>
              <groupindex>1</groupindex>
            </link>
            <link>
              <linkclipref>clipitem-203</linkclipref>
              <mediatype>audio</mediatype>
              <trackindex>6</trackindex>
              <clipindex>1</clipindex>
              <groupindex>1</groupindex>
            </link>
          </clipitem>
          <clipitem id="clipitem-207" premiereChannelType="Stereo">
            <masterclipid>masterclip-1</masterclipid>
            <name>2023-04-01 14-56-52溪神带上钻局CC.mp4</name>
            <enabled>TRUE</enabled>
            <rate>
              <timebase>60</timebase>
              <ntsc>FALSE</ntsc>
            </rate>
            <start>3897</start>
            <end>4026</end>
            <in>60197</in>
            <out>60326</out>
            <file id="file-1"/>
            <sourcetrack>
              <mediatype>audio</mediatype>
              <trackindex>2</trackindex>
            </sourcetrack>
            <link>
              <linkclipref>clipitem-204</linkclipref>
              <mediatype>video</mediatype>
              <trackindex>1</trackindex>
              <clipindex>1</clipindex>
            </link>
            <link>
              <linkclipref>clipitem-205</linkclipref>
              <mediatype>audio</mediatype>
              <trackindex>1</trackindex>
              <clipindex>1</clipindex>
              <groupindex>1</groupindex>
            </link>
            <link>
              <linkclipref>clipitem-206</linkclipref>
              <mediatype>audio</mediatype>
              <trackindex>2</trackindex>
              <clipindex>1</clipindex>
              <groupindex>1</groupindex>
            </link>
            <link>
              <linkclipref>clipitem-207</linkclipref>
              <mediatype>audio</mediatype>
              <trackindex>3</trackindex>
              <clipindex>1</clipindex>
              <groupindex>1</groupindex>
            </link>
            <link>
              <linkclipref>clipitem-208</linkclipref>
              <mediatype>audio</mediatype>
              <trackindex>4</trackindex>
              <clipindex>1</clipindex>
              <groupindex>1</groupindex>
            </link>
            <link>
              <linkclipref>clipitem-209</linkclipref>
              <mediatype>audio</mediatype>
              <trackindex>5</trackindex>
              <clipindex>1</clipindex>
              <groupindex>1</groupindex>
            </link>
            <link>
              <linkclipref>clipitem-210</linkclipref>
              <mediatype>audio</mediatype>
              <trackindex>6</trackindex>
              <clipindex>1</clipindex>
              <groupindex>1</groupindex>
            </link>
          </clipitem>
          <clipitem id="clipitem-214" premiereChannelType="Stereo">
            <masterclipid>masterclip-1</masterclipid>
            <name>2023-04-01 14-56-52溪神带上钻局CC.mp4</name>
            <enabled>TRUE</enabled>
            <rate>
              <timebase>60</timebase>
              <ntsc>FALSE</ntsc>
            </rate>
            <start>4026</start>
            <end>4128</end>
            <in>60335</in>
            <out>60437</out>
            <file id="file-1"/>
            <sourcetrack>
              <mediatype>audio</mediatype>
              <trackindex>2</trackindex>
            </sourcetrack>
            <link>
              <linkclipref>clipitem-211</linkclipref>
              <mediatype>video</mediatype>
              <trackindex>1</trackindex>
              <clipindex>1</clipindex>
            </link>
            <link>
              <linkclipref>clipitem-212</linkclipref>
              <mediatype>audio</mediatype>
              <trackindex>1</trackindex>
              <clipindex>1</clipindex>
              <groupindex>1</groupindex>
            </link>
            <link>
              <linkclipref>clipitem-213</linkclipref>
              <mediatype>audio</mediatype>
              <trackindex>2</trackindex>
              <clipindex>1</clipindex>
              <groupindex>1</groupindex>
            </link>
            <link>
              <linkclipref>clipitem-214</linkclipref>
              <mediatype>audio</mediatype>
              <trackindex>3</trackindex>
              <clipindex>1</clipindex>
              <groupindex>1</groupindex>
            </link>
            <link>
              <linkclipref>clipitem-215</linkclipref>
              <mediatype>audio</mediatype>
              <trackindex>4</trackindex>
              <clipindex>1</clipindex>
              <groupindex>1</groupindex>
            </link>
            <link>
              <linkclipref>clipitem-216</linkclipref>
              <mediatype>audio</mediatype>
              <trackindex>5</trackindex>
              <clipindex>1</clipindex>
              <groupindex>1</groupindex>
            </link>
            <link>
              <linkclipref>clipitem-217</linkclipref>
              <mediatype>audio</mediatype>
              <trackindex>6</trackindex>
              <clipindex>1</clipindex>
              <groupindex>1</groupindex>
            </link>
          </clipitem>
          <clipitem id="clipitem-221" premiereChannelType="Stereo">
            <masterclipid>masterclip-1</masterclipid>
            <name>2023-04-01 14-56-52溪神带上钻局CC.mp4</name>
            <enabled>TRUE</enabled>
            <rate>
              <timebase>60</timebase>
              <ntsc>FALSE</ntsc>
            </rate>
            <start>4128</start>
            <end>4272</end>
            <in>61170</in>
            <out>61314</out>
            <file id="file-1"/>
            <sourcetrack>
              <mediatype>audio</mediatype>
              <trackindex>2</trackindex>
            </sourcetrack>
            <link>
              <linkclipref>clipitem-218</linkclipref>
              <mediatype>video</mediatype>
              <trackindex>1</trackindex>
              <clipindex>1</clipindex>
            </link>
            <link>
              <linkclipref>clipitem-219</linkclipref>
              <mediatype>audio</mediatype>
              <trackindex>1</trackindex>
              <clipindex>1</clipindex>
              <groupindex>1</groupindex>
            </link>
            <link>
              <linkclipref>clipitem-220</linkclipref>
              <mediatype>audio</mediatype>
              <trackindex>2</trackindex>
              <clipindex>1</clipindex>
              <groupindex>1</groupindex>
            </link>
            <link>
              <linkclipref>clipitem-221</linkclipref>
              <mediatype>audio</mediatype>
              <trackindex>3</trackindex>
              <clipindex>1</clipindex>
              <groupindex>1</groupindex>
            </link>
            <link>
              <linkclipref>clipitem-222</linkclipref>
              <mediatype>audio</mediatype>
              <trackindex>4</trackindex>
              <clipindex>1</clipindex>
              <groupindex>1</groupindex>
            </link>
            <link>
              <linkclipref>clipitem-223</linkclipref>
              <mediatype>audio</mediatype>
              <trackindex>5</trackindex>
              <clipindex>1</clipindex>
              <groupindex>1</groupindex>
            </link>
            <link>
              <linkclipref>clipitem-224</linkclipref>
              <mediatype>audio</mediatype>
              <trackindex>6</trackindex>
              <clipindex>1</clipindex>
              <groupindex>1</groupindex>
            </link>
          </clipitem>
          <clipitem id="clipitem-228" premiereChannelType="Stereo">
            <masterclipid>masterclip-1</masterclipid>
            <name>2023-04-01 14-56-52溪神带上钻局CC.mp4</name>
            <enabled>TRUE</enabled>
            <rate>
              <timebase>60</timebase>
              <ntsc>FALSE</ntsc>
            </rate>
            <start>4272</start>
            <end>4399</end>
            <in>61526</in>
            <out>61653</out>
            <file id="file-1"/>
            <sourcetrack>
              <mediatype>audio</mediatype>
              <trackindex>2</trackindex>
            </sourcetrack>
            <link>
              <linkclipref>clipitem-225</linkclipref>
              <mediatype>video</mediatype>
              <trackindex>1</trackindex>
              <clipindex>1</clipindex>
            </link>
            <link>
              <linkclipref>clipitem-226</linkclipref>
              <mediatype>audio</mediatype>
              <trackindex>1</trackindex>
              <clipindex>1</clipindex>
              <groupindex>1</groupindex>
            </link>
            <link>
              <linkclipref>clipitem-227</linkclipref>
              <mediatype>audio</mediatype>
              <trackindex>2</trackindex>
              <clipindex>1</clipindex>
              <groupindex>1</groupindex>
            </link>
            <link>
              <linkclipref>clipitem-228</linkclipref>
              <mediatype>audio</mediatype>
              <trackindex>3</trackindex>
              <clipindex>1</clipindex>
              <groupindex>1</groupindex>
            </link>
            <link>
              <linkclipref>clipitem-229</linkclipref>
              <mediatype>audio</mediatype>
              <trackindex>4</trackindex>
              <clipindex>1</clipindex>
              <groupindex>1</groupindex>
            </link>
            <link>
              <linkclipref>clipitem-230</linkclipref>
              <mediatype>audio</mediatype>
              <trackindex>5</trackindex>
              <clipindex>1</clipindex>
              <groupindex>1</groupindex>
            </link>
            <link>
              <linkclipref>clipitem-231</linkclipref>
              <mediatype>audio</mediatype>
              <trackindex>6</trackindex>
              <clipindex>1</clipindex>
              <groupindex>1</groupindex>
            </link>
          </clipitem>
          <clipitem id="clipitem-235" premiereChannelType="Stereo">
            <masterclipid>masterclip-1</masterclipid>
            <name>2023-04-01 14-56-52溪神带上钻局CC.mp4</name>
            <enabled>TRUE</enabled>
            <rate>
              <timebase>60</timebase>
              <ntsc>FALSE</ntsc>
            </rate>
            <start>4399</start>
            <end>4509</end>
            <in>62041</in>
            <out>62151</out>
            <file id="file-1"/>
            <sourcetrack>
              <mediatype>audio</mediatype>
              <trackindex>2</trackindex>
            </sourcetrack>
            <link>
              <linkclipref>clipitem-232</linkclipref>
              <mediatype>video</mediatype>
              <trackindex>1</trackindex>
              <clipindex>1</clipindex>
            </link>
            <link>
              <linkclipref>clipitem-233</linkclipref>
              <mediatype>audio</mediatype>
              <trackindex>1</trackindex>
              <clipindex>1</clipindex>
              <groupindex>1</groupindex>
            </link>
            <link>
              <linkclipref>clipitem-234</linkclipref>
              <mediatype>audio</mediatype>
              <trackindex>2</trackindex>
              <clipindex>1</clipindex>
              <groupindex>1</groupindex>
            </link>
            <link>
              <linkclipref>clipitem-235</linkclipref>
              <mediatype>audio</mediatype>
              <trackindex>3</trackindex>
              <clipindex>1</clipindex>
              <groupindex>1</groupindex>
            </link>
            <link>
              <linkclipref>clipitem-236</linkclipref>
              <mediatype>audio</mediatype>
              <trackindex>4</trackindex>
              <clipindex>1</clipindex>
              <groupindex>1</groupindex>
            </link>
            <link>
              <linkclipref>clipitem-237</linkclipref>
              <mediatype>audio</mediatype>
              <trackindex>5</trackindex>
              <clipindex>1</clipindex>
              <groupindex>1</groupindex>
            </link>
            <link>
              <linkclipref>clipitem-238</linkclipref>
              <mediatype>audio</mediatype>
              <trackindex>6</trackindex>
              <clipindex>1</clipindex>
              <groupindex>1</groupindex>
            </link>
          </clipitem>
          <clipitem id="clipitem-242" premiereChannelType="Stereo">
            <masterclipid>masterclip-2</masterclipid>
            <name>2023-04-01 13-58-58溪神带飞王源5KCC.mp4</name>
            <enabled>TRUE</enabled>
            <rate>
              <timebase>60</timebase>
              <ntsc>FALSE</ntsc>
            </rate>
            <start>4509</start>
            <end>4526</end>
            <in>1764</in>
            <out>1781</out>
            <file id="file-2"/>
            <sourcetrack>
              <mediatype>audio</mediatype>
              <trackindex>2</trackindex>
            </sourcetrack>
            <link>
              <linkclipref>clipitem-239</linkclipref>
              <mediatype>video</mediatype>
              <trackindex>1</trackindex>
              <clipindex>1</clipindex>
            </link>
            <link>
              <linkclipref>clipitem-240</linkclipref>
              <mediatype>audio</mediatype>
              <trackindex>1</trackindex>
              <clipindex>1</clipindex>
              <groupindex>1</groupindex>
            </link>
            <link>
              <linkclipref>clipitem-241</linkclipref>
              <mediatype>audio</mediatype>
              <trackindex>2</trackindex>
              <clipindex>1</clipindex>
              <groupindex>1</groupindex>
            </link>
            <link>
              <linkclipref>clipitem-242</linkclipref>
              <mediatype>audio</mediatype>
              <trackindex>3</trackindex>
              <clipindex>1</clipindex>
              <groupindex>1</groupindex>
            </link>
            <link>
              <linkclipref>clipitem-243</linkclipref>
              <mediatype>audio</mediatype>
              <trackindex>4</trackindex>
              <clipindex>1</clipindex>
              <groupindex>1</groupindex>
            </link>
            <link>
              <linkclipref>clipitem-244</linkclipref>
              <mediatype>audio</mediatype>
              <trackindex>5</trackindex>
              <clipindex>1</clipindex>
              <groupindex>1</groupindex>
            </link>
            <link>
              <linkclipref>clipitem-245</linkclipref>
              <mediatype>audio</mediatype>
              <trackindex>6</trackindex>
              <clipindex>1</clipindex>
              <groupindex>1</groupindex>
            </link>
          </clipitem>
          <clipitem id="clipitem-249" premiereChannelType="Stereo">
            <masterclipid>masterclip-2</masterclipid>
            <name>2023-04-01 13-58-58溪神带飞王源5KCC.mp4</name>
            <enabled>TRUE</enabled>
            <rate>
              <timebase>60</timebase>
              <ntsc>FALSE</ntsc>
            </rate>
            <start>4526</start>
            <end>4596</end>
            <in>22846</in>
            <out>22916</out>
            <file id="file-2"/>
            <sourcetrack>
              <mediatype>audio</mediatype>
              <trackindex>2</trackindex>
            </sourcetrack>
            <link>
              <linkclipref>clipitem-246</linkclipref>
              <mediatype>video</mediatype>
              <trackindex>1</trackindex>
              <clipindex>1</clipindex>
            </link>
            <link>
              <linkclipref>clipitem-247</linkclipref>
              <mediatype>audio</mediatype>
              <trackindex>1</trackindex>
              <clipindex>1</clipindex>
              <groupindex>1</groupindex>
            </link>
            <link>
              <linkclipref>clipitem-248</linkclipref>
              <mediatype>audio</mediatype>
              <trackindex>2</trackindex>
              <clipindex>1</clipindex>
              <groupindex>1</groupindex>
            </link>
            <link>
              <linkclipref>clipitem-249</linkclipref>
              <mediatype>audio</mediatype>
              <trackindex>3</trackindex>
              <clipindex>1</clipindex>
              <groupindex>1</groupindex>
            </link>
            <link>
              <linkclipref>clipitem-250</linkclipref>
              <mediatype>audio</mediatype>
              <trackindex>4</trackindex>
              <clipindex>1</clipindex>
              <groupindex>1</groupindex>
            </link>
            <link>
              <linkclipref>clipitem-251</linkclipref>
              <mediatype>audio</mediatype>
              <trackindex>5</trackindex>
              <clipindex>1</clipindex>
              <groupindex>1</groupindex>
            </link>
            <link>
              <linkclipref>clipitem-252</linkclipref>
              <mediatype>audio</mediatype>
              <trackindex>6</trackindex>
              <clipindex>1</clipindex>
              <groupindex>1</groupindex>
            </link>
          </clipitem>
          <clipitem id="clipitem-256" premiereChannelType="Stereo">
            <masterclipid>masterclip-2</masterclipid>
            <name>2023-04-01 13-58-58溪神带飞王源5KCC.mp4</name>
            <enabled>TRUE</enabled>
            <rate>
              <timebase>60</timebase>
              <ntsc>FALSE</ntsc>
            </rate>
            <start>4596</start>
            <end>4848</end>
            <in>22937</in>
            <out>23189</out>
            <file id="file-2"/>
            <sourcetrack>
              <mediatype>audio</mediatype>
              <trackindex>2</trackindex>
            </sourcetrack>
            <link>
              <linkclipref>clipitem-253</linkclipref>
              <mediatype>video</mediatype>
              <trackindex>1</trackindex>
              <clipindex>1</clipindex>
            </link>
            <link>
              <linkclipref>clipitem-254</linkclipref>
              <mediatype>audio</mediatype>
              <trackindex>1</trackindex>
              <clipindex>1</clipindex>
              <groupindex>1</groupindex>
            </link>
            <link>
              <linkclipref>clipitem-255</linkclipref>
              <mediatype>audio</mediatype>
              <trackindex>2</trackindex>
              <clipindex>1</clipindex>
              <groupindex>1</groupindex>
            </link>
            <link>
              <linkclipref>clipitem-256</linkclipref>
              <mediatype>audio</mediatype>
              <trackindex>3</trackindex>
              <clipindex>1</clipindex>
              <groupindex>1</groupindex>
            </link>
            <link>
              <linkclipref>clipitem-257</linkclipref>
              <mediatype>audio</mediatype>
              <trackindex>4</trackindex>
              <clipindex>1</clipindex>
              <groupindex>1</groupindex>
            </link>
            <link>
              <linkclipref>clipitem-258</linkclipref>
              <mediatype>audio</mediatype>
              <trackindex>5</trackindex>
              <clipindex>1</clipindex>
              <groupindex>1</groupindex>
            </link>
            <link>
              <linkclipref>clipitem-259</linkclipref>
              <mediatype>audio</mediatype>
              <trackindex>6</trackindex>
              <clipindex>1</clipindex>
              <groupindex>1</groupindex>
            </link>
          </clipitem>
          <clipitem id="clipitem-263" premiereChannelType="Stereo">
            <masterclipid>masterclip-2</masterclipid>
            <name>2023-04-01 13-58-58溪神带飞王源5KCC.mp4</name>
            <enabled>TRUE</enabled>
            <rate>
              <timebase>60</timebase>
              <ntsc>FALSE</ntsc>
            </rate>
            <start>4848</start>
            <end>5027</end>
            <in>24127</in>
            <out>24306</out>
            <file id="file-2"/>
            <sourcetrack>
              <mediatype>audio</mediatype>
              <trackindex>2</trackindex>
            </sourcetrack>
            <link>
              <linkclipref>clipitem-260</linkclipref>
              <mediatype>video</mediatype>
              <trackindex>1</trackindex>
              <clipindex>1</clipindex>
            </link>
            <link>
              <linkclipref>clipitem-261</linkclipref>
              <mediatype>audio</mediatype>
              <trackindex>1</trackindex>
              <clipindex>1</clipindex>
              <groupindex>1</groupindex>
            </link>
            <link>
              <linkclipref>clipitem-262</linkclipref>
              <mediatype>audio</mediatype>
              <trackindex>2</trackindex>
              <clipindex>1</clipindex>
              <groupindex>1</groupindex>
            </link>
            <link>
              <linkclipref>clipitem-263</linkclipref>
              <mediatype>audio</mediatype>
              <trackindex>3</trackindex>
              <clipindex>1</clipindex>
              <groupindex>1</groupindex>
            </link>
            <link>
              <linkclipref>clipitem-264</linkclipref>
              <mediatype>audio</mediatype>
              <trackindex>4</trackindex>
              <clipindex>1</clipindex>
              <groupindex>1</groupindex>
            </link>
            <link>
              <linkclipref>clipitem-265</linkclipref>
              <mediatype>audio</mediatype>
              <trackindex>5</trackindex>
              <clipindex>1</clipindex>
              <groupindex>1</groupindex>
            </link>
            <link>
              <linkclipref>clipitem-266</linkclipref>
              <mediatype>audio</mediatype>
              <trackindex>6</trackindex>
              <clipindex>1</clipindex>
              <groupindex>1</groupindex>
            </link>
          </clipitem>
          <clipitem id="clipitem-270" premiereChannelType="Stereo">
            <masterclipid>masterclip-2</masterclipid>
            <name>2023-04-01 13-58-58溪神带飞王源5KCC.mp4</name>
            <enabled>TRUE</enabled>
            <rate>
              <timebase>60</timebase>
              <ntsc>FALSE</ntsc>
            </rate>
            <start>5027</start>
            <end>5103</end>
            <in>24579</in>
            <out>24655</out>
            <file id="file-2"/>
            <sourcetrack>
              <mediatype>audio</mediatype>
              <trackindex>2</trackindex>
            </sourcetrack>
            <link>
              <linkclipref>clipitem-267</linkclipref>
              <mediatype>video</mediatype>
              <trackindex>1</trackindex>
              <clipindex>1</clipindex>
            </link>
            <link>
              <linkclipref>clipitem-268</linkclipref>
              <mediatype>audio</mediatype>
              <trackindex>1</trackindex>
              <clipindex>1</clipindex>
              <groupindex>1</groupindex>
            </link>
            <link>
              <linkclipref>clipitem-269</linkclipref>
              <mediatype>audio</mediatype>
              <trackindex>2</trackindex>
              <clipindex>1</clipindex>
              <groupindex>1</groupindex>
            </link>
            <link>
              <linkclipref>clipitem-270</linkclipref>
              <mediatype>audio</mediatype>
              <trackindex>3</trackindex>
              <clipindex>1</clipindex>
              <groupindex>1</groupindex>
            </link>
            <link>
              <linkclipref>clipitem-271</linkclipref>
              <mediatype>audio</mediatype>
              <trackindex>4</trackindex>
              <clipindex>1</clipindex>
              <groupindex>1</groupindex>
            </link>
            <link>
              <linkclipref>clipitem-272</linkclipref>
              <mediatype>audio</mediatype>
              <trackindex>5</trackindex>
              <clipindex>1</clipindex>
              <groupindex>1</groupindex>
            </link>
            <link>
              <linkclipref>clipitem-273</linkclipref>
              <mediatype>audio</mediatype>
              <trackindex>6</trackindex>
              <clipindex>1</clipindex>
              <groupindex>1</groupindex>
            </link>
          </clipitem>
          <clipitem id="clipitem-277" premiereChannelType="Stereo">
            <masterclipid>masterclip-2</masterclipid>
            <name>2023-04-01 13-58-58溪神带飞王源5KCC.mp4</name>
            <enabled>TRUE</enabled>
            <rate>
              <timebase>60</timebase>
              <ntsc>FALSE</ntsc>
            </rate>
            <start>5103</start>
            <end>5273</end>
            <in>24893</in>
            <out>25063</out>
            <file id="file-2"/>
            <sourcetrack>
              <mediatype>audio</mediatype>
              <trackindex>2</trackindex>
            </sourcetrack>
            <link>
              <linkclipref>clipitem-274</linkclipref>
              <mediatype>video</mediatype>
              <trackindex>1</trackindex>
              <clipindex>1</clipindex>
            </link>
            <link>
              <linkclipref>clipitem-275</linkclipref>
              <mediatype>audio</mediatype>
              <trackindex>1</trackindex>
              <clipindex>1</clipindex>
              <groupindex>1</groupindex>
            </link>
            <link>
              <linkclipref>clipitem-276</linkclipref>
              <mediatype>audio</mediatype>
              <trackindex>2</trackindex>
              <clipindex>1</clipindex>
              <groupindex>1</groupindex>
            </link>
            <link>
              <linkclipref>clipitem-277</linkclipref>
              <mediatype>audio</mediatype>
              <trackindex>3</trackindex>
              <clipindex>1</clipindex>
              <groupindex>1</groupindex>
            </link>
            <link>
              <linkclipref>clipitem-278</linkclipref>
              <mediatype>audio</mediatype>
              <trackindex>4</trackindex>
              <clipindex>1</clipindex>
              <groupindex>1</groupindex>
            </link>
            <link>
              <linkclipref>clipitem-279</linkclipref>
              <mediatype>audio</mediatype>
              <trackindex>5</trackindex>
              <clipindex>1</clipindex>
              <groupindex>1</groupindex>
            </link>
            <link>
              <linkclipref>clipitem-280</linkclipref>
              <mediatype>audio</mediatype>
              <trackindex>6</trackindex>
              <clipindex>1</clipindex>
              <groupindex>1</groupindex>
            </link>
          </clipitem>
          <clipitem id="clipitem-284" premiereChannelType="Stereo">
            <masterclipid>masterclip-2</masterclipid>
            <name>2023-04-01 13-58-58溪神带飞王源5KCC.mp4</name>
            <enabled>TRUE</enabled>
            <rate>
              <timebase>60</timebase>
              <ntsc>FALSE</ntsc>
            </rate>
            <start>5273</start>
            <end>5350</end>
            <in>31222</in>
            <out>31299</out>
            <file id="file-2"/>
            <sourcetrack>
              <mediatype>audio</mediatype>
              <trackindex>2</trackindex>
            </sourcetrack>
            <link>
              <linkclipref>clipitem-281</linkclipref>
              <mediatype>video</mediatype>
              <trackindex>1</trackindex>
              <clipindex>1</clipindex>
            </link>
            <link>
              <linkclipref>clipitem-282</linkclipref>
              <mediatype>audio</mediatype>
              <trackindex>1</trackindex>
              <clipindex>1</clipindex>
              <groupindex>1</groupindex>
            </link>
            <link>
              <linkclipref>clipitem-283</linkclipref>
              <mediatype>audio</mediatype>
              <trackindex>2</trackindex>
              <clipindex>1</clipindex>
              <groupindex>1</groupindex>
            </link>
            <link>
              <linkclipref>clipitem-284</linkclipref>
              <mediatype>audio</mediatype>
              <trackindex>3</trackindex>
              <clipindex>1</clipindex>
              <groupindex>1</groupindex>
            </link>
            <link>
              <linkclipref>clipitem-285</linkclipref>
              <mediatype>audio</mediatype>
              <trackindex>4</trackindex>
              <clipindex>1</clipindex>
              <groupindex>1</groupindex>
            </link>
            <link>
              <linkclipref>clipitem-286</linkclipref>
              <mediatype>audio</mediatype>
              <trackindex>5</trackindex>
              <clipindex>1</clipindex>
              <groupindex>1</groupindex>
            </link>
            <link>
              <linkclipref>clipitem-287</linkclipref>
              <mediatype>audio</mediatype>
              <trackindex>6</trackindex>
              <clipindex>1</clipindex>
              <groupindex>1</groupindex>
            </link>
          </clipitem>
          <clipitem id="clipitem-291" premiereChannelType="Stereo">
            <masterclipid>masterclip-2</masterclipid>
            <name>2023-04-01 13-58-58溪神带飞王源5KCC.mp4</name>
            <enabled>TRUE</enabled>
            <rate>
              <timebase>60</timebase>
              <ntsc>FALSE</ntsc>
            </rate>
            <start>5350</start>
            <end>5459</end>
            <in>31478</in>
            <out>31587</out>
            <file id="file-2"/>
            <sourcetrack>
              <mediatype>audio</mediatype>
              <trackindex>2</trackindex>
            </sourcetrack>
            <link>
              <linkclipref>clipitem-288</linkclipref>
              <mediatype>video</mediatype>
              <trackindex>1</trackindex>
              <clipindex>1</clipindex>
            </link>
            <link>
              <linkclipref>clipitem-289</linkclipref>
              <mediatype>audio</mediatype>
              <trackindex>1</trackindex>
              <clipindex>1</clipindex>
              <groupindex>1</groupindex>
            </link>
            <link>
              <linkclipref>clipitem-290</linkclipref>
              <mediatype>audio</mediatype>
              <trackindex>2</trackindex>
              <clipindex>1</clipindex>
              <groupindex>1</groupindex>
            </link>
            <link>
              <linkclipref>clipitem-291</linkclipref>
              <mediatype>audio</mediatype>
              <trackindex>3</trackindex>
              <clipindex>1</clipindex>
              <groupindex>1</groupindex>
            </link>
            <link>
              <linkclipref>clipitem-292</linkclipref>
              <mediatype>audio</mediatype>
              <trackindex>4</trackindex>
              <clipindex>1</clipindex>
              <groupindex>1</groupindex>
            </link>
            <link>
              <linkclipref>clipitem-293</linkclipref>
              <mediatype>audio</mediatype>
              <trackindex>5</trackindex>
              <clipindex>1</clipindex>
              <groupindex>1</groupindex>
            </link>
            <link>
              <linkclipref>clipitem-294</linkclipref>
              <mediatype>audio</mediatype>
              <trackindex>6</trackindex>
              <clipindex>1</clipindex>
              <groupindex>1</groupindex>
            </link>
          </clipitem>
          <clipitem id="clipitem-298" premiereChannelType="Stereo">
            <masterclipid>masterclip-2</masterclipid>
            <name>2023-04-01 13-58-58溪神带飞王源5KCC.mp4</name>
            <enabled>TRUE</enabled>
            <rate>
              <timebase>60</timebase>
              <ntsc>FALSE</ntsc>
            </rate>
            <start>5459</start>
            <end>5662</end>
            <in>33212</in>
            <out>33415</out>
            <file id="file-2"/>
            <sourcetrack>
              <mediatype>audio</mediatype>
              <trackindex>2</trackindex>
            </sourcetrack>
            <link>
              <linkclipref>clipitem-295</linkclipref>
              <mediatype>video</mediatype>
              <trackindex>1</trackindex>
              <clipindex>1</clipindex>
            </link>
            <link>
              <linkclipref>clipitem-296</linkclipref>
              <mediatype>audio</mediatype>
              <trackindex>1</trackindex>
              <clipindex>1</clipindex>
              <groupindex>1</groupindex>
            </link>
            <link>
              <linkclipref>clipitem-297</linkclipref>
              <mediatype>audio</mediatype>
              <trackindex>2</trackindex>
              <clipindex>1</clipindex>
              <groupindex>1</groupindex>
            </link>
            <link>
              <linkclipref>clipitem-298</linkclipref>
              <mediatype>audio</mediatype>
              <trackindex>3</trackindex>
              <clipindex>1</clipindex>
              <groupindex>1</groupindex>
            </link>
            <link>
              <linkclipref>clipitem-299</linkclipref>
              <mediatype>audio</mediatype>
              <trackindex>4</trackindex>
              <clipindex>1</clipindex>
              <groupindex>1</groupindex>
            </link>
            <link>
              <linkclipref>clipitem-300</linkclipref>
              <mediatype>audio</mediatype>
              <trackindex>5</trackindex>
              <clipindex>1</clipindex>
              <groupindex>1</groupindex>
            </link>
            <link>
              <linkclipref>clipitem-301</linkclipref>
              <mediatype>audio</mediatype>
              <trackindex>6</trackindex>
              <clipindex>1</clipindex>
              <groupindex>1</groupindex>
            </link>
          </clipitem>
          <clipitem id="clipitem-305" premiereChannelType="Stereo">
            <masterclipid>masterclip-2</masterclipid>
            <name>2023-04-01 13-58-58溪神带飞王源5KCC.mp4</name>
            <enabled>TRUE</enabled>
            <rate>
              <timebase>60</timebase>
              <ntsc>FALSE</ntsc>
            </rate>
            <start>5662</start>
            <end>5816</end>
            <in>33743</in>
            <out>33897</out>
            <file id="file-2"/>
            <sourcetrack>
              <mediatype>audio</mediatype>
              <trackindex>2</trackindex>
            </sourcetrack>
            <link>
              <linkclipref>clipitem-302</linkclipref>
              <mediatype>video</mediatype>
              <trackindex>1</trackindex>
              <clipindex>1</clipindex>
            </link>
            <link>
              <linkclipref>clipitem-303</linkclipref>
              <mediatype>audio</mediatype>
              <trackindex>1</trackindex>
              <clipindex>1</clipindex>
              <groupindex>1</groupindex>
            </link>
            <link>
              <linkclipref>clipitem-304</linkclipref>
              <mediatype>audio</mediatype>
              <trackindex>2</trackindex>
              <clipindex>1</clipindex>
              <groupindex>1</groupindex>
            </link>
            <link>
              <linkclipref>clipitem-305</linkclipref>
              <mediatype>audio</mediatype>
              <trackindex>3</trackindex>
              <clipindex>1</clipindex>
              <groupindex>1</groupindex>
            </link>
            <link>
              <linkclipref>clipitem-306</linkclipref>
              <mediatype>audio</mediatype>
              <trackindex>4</trackindex>
              <clipindex>1</clipindex>
              <groupindex>1</groupindex>
            </link>
            <link>
              <linkclipref>clipitem-307</linkclipref>
              <mediatype>audio</mediatype>
              <trackindex>5</trackindex>
              <clipindex>1</clipindex>
              <groupindex>1</groupindex>
            </link>
            <link>
              <linkclipref>clipitem-308</linkclipref>
              <mediatype>audio</mediatype>
              <trackindex>6</trackindex>
              <clipindex>1</clipindex>
              <groupindex>1</groupindex>
            </link>
          </clipitem>
          <clipitem id="clipitem-312" premiereChannelType="Stereo">
            <masterclipid>masterclip-2</masterclipid>
            <name>2023-04-01 13-58-58溪神带飞王源5KCC.mp4</name>
            <enabled>TRUE</enabled>
            <rate>
              <timebase>60</timebase>
              <ntsc>FALSE</ntsc>
            </rate>
            <start>5816</start>
            <end>6008</end>
            <in>34010</in>
            <out>34202</out>
            <file id="file-2"/>
            <sourcetrack>
              <mediatype>audio</mediatype>
              <trackindex>2</trackindex>
            </sourcetrack>
            <link>
              <linkclipref>clipitem-309</linkclipref>
              <mediatype>video</mediatype>
              <trackindex>1</trackindex>
              <clipindex>1</clipindex>
            </link>
            <link>
              <linkclipref>clipitem-310</linkclipref>
              <mediatype>audio</mediatype>
              <trackindex>1</trackindex>
              <clipindex>1</clipindex>
              <groupindex>1</groupindex>
            </link>
            <link>
              <linkclipref>clipitem-311</linkclipref>
              <mediatype>audio</mediatype>
              <trackindex>2</trackindex>
              <clipindex>1</clipindex>
              <groupindex>1</groupindex>
            </link>
            <link>
              <linkclipref>clipitem-312</linkclipref>
              <mediatype>audio</mediatype>
              <trackindex>3</trackindex>
              <clipindex>1</clipindex>
              <groupindex>1</groupindex>
            </link>
            <link>
              <linkclipref>clipitem-313</linkclipref>
              <mediatype>audio</mediatype>
              <trackindex>4</trackindex>
              <clipindex>1</clipindex>
              <groupindex>1</groupindex>
            </link>
            <link>
              <linkclipref>clipitem-314</linkclipref>
              <mediatype>audio</mediatype>
              <trackindex>5</trackindex>
              <clipindex>1</clipindex>
              <groupindex>1</groupindex>
            </link>
            <link>
              <linkclipref>clipitem-315</linkclipref>
              <mediatype>audio</mediatype>
              <trackindex>6</trackindex>
              <clipindex>1</clipindex>
              <groupindex>1</groupindex>
            </link>
          </clipitem>
          <clipitem id="clipitem-319" premiereChannelType="Stereo">
            <masterclipid>masterclip-2</masterclipid>
            <name>2023-04-01 13-58-58溪神带飞王源5KCC.mp4</name>
            <enabled>TRUE</enabled>
            <rate>
              <timebase>60</timebase>
              <ntsc>FALSE</ntsc>
            </rate>
            <start>6008</start>
            <end>6171</end>
            <in>39130</in>
            <out>39293</out>
            <file id="file-2"/>
            <sourcetrack>
              <mediatype>audio</mediatype>
              <trackindex>2</trackindex>
            </sourcetrack>
            <link>
              <linkclipref>clipitem-316</linkclipref>
              <mediatype>video</mediatype>
              <trackindex>1</trackindex>
              <clipindex>1</clipindex>
            </link>
            <link>
              <linkclipref>clipitem-317</linkclipref>
              <mediatype>audio</mediatype>
              <trackindex>1</trackindex>
              <clipindex>1</clipindex>
              <groupindex>1</groupindex>
            </link>
            <link>
              <linkclipref>clipitem-318</linkclipref>
              <mediatype>audio</mediatype>
              <trackindex>2</trackindex>
              <clipindex>1</clipindex>
              <groupindex>1</groupindex>
            </link>
            <link>
              <linkclipref>clipitem-319</linkclipref>
              <mediatype>audio</mediatype>
              <trackindex>3</trackindex>
              <clipindex>1</clipindex>
              <groupindex>1</groupindex>
            </link>
            <link>
              <linkclipref>clipitem-320</linkclipref>
              <mediatype>audio</mediatype>
              <trackindex>4</trackindex>
              <clipindex>1</clipindex>
              <groupindex>1</groupindex>
            </link>
            <link>
              <linkclipref>clipitem-321</linkclipref>
              <mediatype>audio</mediatype>
              <trackindex>5</trackindex>
              <clipindex>1</clipindex>
              <groupindex>1</groupindex>
            </link>
            <link>
              <linkclipref>clipitem-322</linkclipref>
              <mediatype>audio</mediatype>
              <trackindex>6</trackindex>
              <clipindex>1</clipindex>
              <groupindex>1</groupindex>
            </link>
          </clipitem>
          <clipitem id="clipitem-326" premiereChannelType="Stereo">
            <masterclipid>masterclip-2</masterclipid>
            <name>2023-04-01 13-58-58溪神带飞王源5KCC.mp4</name>
            <enabled>TRUE</enabled>
            <rate>
              <timebase>60</timebase>
              <ntsc>FALSE</ntsc>
            </rate>
            <start>6171</start>
            <end>6321</end>
            <in>39388</in>
            <out>39538</out>
            <file id="file-2"/>
            <sourcetrack>
              <mediatype>audio</mediatype>
              <trackindex>2</trackindex>
            </sourcetrack>
            <link>
              <linkclipref>clipitem-323</linkclipref>
              <mediatype>video</mediatype>
              <trackindex>1</trackindex>
              <clipindex>1</clipindex>
            </link>
            <link>
              <linkclipref>clipitem-324</linkclipref>
              <mediatype>audio</mediatype>
              <trackindex>1</trackindex>
              <clipindex>1</clipindex>
              <groupindex>1</groupindex>
            </link>
            <link>
              <linkclipref>clipitem-325</linkclipref>
              <mediatype>audio</mediatype>
              <trackindex>2</trackindex>
              <clipindex>1</clipindex>
              <groupindex>1</groupindex>
            </link>
            <link>
              <linkclipref>clipitem-326</linkclipref>
              <mediatype>audio</mediatype>
              <trackindex>3</trackindex>
              <clipindex>1</clipindex>
              <groupindex>1</groupindex>
            </link>
            <link>
              <linkclipref>clipitem-327</linkclipref>
              <mediatype>audio</mediatype>
              <trackindex>4</trackindex>
              <clipindex>1</clipindex>
              <groupindex>1</groupindex>
            </link>
            <link>
              <linkclipref>clipitem-328</linkclipref>
              <mediatype>audio</mediatype>
              <trackindex>5</trackindex>
              <clipindex>1</clipindex>
              <groupindex>1</groupindex>
            </link>
            <link>
              <linkclipref>clipitem-329</linkclipref>
              <mediatype>audio</mediatype>
              <trackindex>6</trackindex>
              <clipindex>1</clipindex>
              <groupindex>1</groupindex>
            </link>
          </clipitem>
          <clipitem id="clipitem-333" premiereChannelType="Stereo">
            <masterclipid>masterclip-2</masterclipid>
            <name>2023-04-01 13-58-58溪神带飞王源5KCC.mp4</name>
            <enabled>TRUE</enabled>
            <rate>
              <timebase>60</timebase>
              <ntsc>FALSE</ntsc>
            </rate>
            <start>6321</start>
            <end>6559</end>
            <in>39755</in>
            <out>39993</out>
            <file id="file-2"/>
            <sourcetrack>
              <mediatype>audio</mediatype>
              <trackindex>2</trackindex>
            </sourcetrack>
            <link>
              <linkclipref>clipitem-330</linkclipref>
              <mediatype>video</mediatype>
              <trackindex>1</trackindex>
              <clipindex>1</clipindex>
            </link>
            <link>
              <linkclipref>clipitem-331</linkclipref>
              <mediatype>audio</mediatype>
              <trackindex>1</trackindex>
              <clipindex>1</clipindex>
              <groupindex>1</groupindex>
            </link>
            <link>
              <linkclipref>clipitem-332</linkclipref>
              <mediatype>audio</mediatype>
              <trackindex>2</trackindex>
              <clipindex>1</clipindex>
              <groupindex>1</groupindex>
            </link>
            <link>
              <linkclipref>clipitem-333</linkclipref>
              <mediatype>audio</mediatype>
              <trackindex>3</trackindex>
              <clipindex>1</clipindex>
              <groupindex>1</groupindex>
            </link>
            <link>
              <linkclipref>clipitem-334</linkclipref>
              <mediatype>audio</mediatype>
              <trackindex>4</trackindex>
              <clipindex>1</clipindex>
              <groupindex>1</groupindex>
            </link>
            <link>
              <linkclipref>clipitem-335</linkclipref>
              <mediatype>audio</mediatype>
              <trackindex>5</trackindex>
              <clipindex>1</clipindex>
              <groupindex>1</groupindex>
            </link>
            <link>
              <linkclipref>clipitem-336</linkclipref>
              <mediatype>audio</mediatype>
              <trackindex>6</trackindex>
              <clipindex>1</clipindex>
              <groupindex>1</groupindex>
            </link>
          </clipitem>
          <clipitem id="clipitem-340" premiereChannelType="Stereo">
            <masterclipid>masterclip-2</masterclipid>
            <name>2023-04-01 13-58-58溪神带飞王源5KCC.mp4</name>
            <enabled>TRUE</enabled>
            <rate>
              <timebase>60</timebase>
              <ntsc>FALSE</ntsc>
            </rate>
            <start>6559</start>
            <end>6647</end>
            <in>40286</in>
            <out>40374</out>
            <file id="file-2"/>
            <sourcetrack>
              <mediatype>audio</mediatype>
              <trackindex>2</trackindex>
            </sourcetrack>
            <link>
              <linkclipref>clipitem-337</linkclipref>
              <mediatype>video</mediatype>
              <trackindex>1</trackindex>
              <clipindex>1</clipindex>
            </link>
            <link>
              <linkclipref>clipitem-338</linkclipref>
              <mediatype>audio</mediatype>
              <trackindex>1</trackindex>
              <clipindex>1</clipindex>
              <groupindex>1</groupindex>
            </link>
            <link>
              <linkclipref>clipitem-339</linkclipref>
              <mediatype>audio</mediatype>
              <trackindex>2</trackindex>
              <clipindex>1</clipindex>
              <groupindex>1</groupindex>
            </link>
            <link>
              <linkclipref>clipitem-340</linkclipref>
              <mediatype>audio</mediatype>
              <trackindex>3</trackindex>
              <clipindex>1</clipindex>
              <groupindex>1</groupindex>
            </link>
            <link>
              <linkclipref>clipitem-341</linkclipref>
              <mediatype>audio</mediatype>
              <trackindex>4</trackindex>
              <clipindex>1</clipindex>
              <groupindex>1</groupindex>
            </link>
            <link>
              <linkclipref>clipitem-342</linkclipref>
              <mediatype>audio</mediatype>
              <trackindex>5</trackindex>
              <clipindex>1</clipindex>
              <groupindex>1</groupindex>
            </link>
            <link>
              <linkclipref>clipitem-343</linkclipref>
              <mediatype>audio</mediatype>
              <trackindex>6</trackindex>
              <clipindex>1</clipindex>
              <groupindex>1</groupindex>
            </link>
          </clipitem>
          <clipitem id="clipitem-347" premiereChannelType="Stereo">
            <masterclipid>masterclip-2</masterclipid>
            <name>2023-04-01 13-58-58溪神带飞王源5KCC.mp4</name>
            <enabled>TRUE</enabled>
            <rate>
              <timebase>60</timebase>
              <ntsc>FALSE</ntsc>
            </rate>
            <start>6647</start>
            <end>6865</end>
            <in>43166</in>
            <out>43384</out>
            <file id="file-2"/>
            <sourcetrack>
              <mediatype>audio</mediatype>
              <trackindex>2</trackindex>
            </sourcetrack>
            <link>
              <linkclipref>clipitem-344</linkclipref>
              <mediatype>video</mediatype>
              <trackindex>1</trackindex>
              <clipindex>1</clipindex>
            </link>
            <link>
              <linkclipref>clipitem-345</linkclipref>
              <mediatype>audio</mediatype>
              <trackindex>1</trackindex>
              <clipindex>1</clipindex>
              <groupindex>1</groupindex>
            </link>
            <link>
              <linkclipref>clipitem-346</linkclipref>
              <mediatype>audio</mediatype>
              <trackindex>2</trackindex>
              <clipindex>1</clipindex>
              <groupindex>1</groupindex>
            </link>
            <link>
              <linkclipref>clipitem-347</linkclipref>
              <mediatype>audio</mediatype>
              <trackindex>3</trackindex>
              <clipindex>1</clipindex>
              <groupindex>1</groupindex>
            </link>
            <link>
              <linkclipref>clipitem-348</linkclipref>
              <mediatype>audio</mediatype>
              <trackindex>4</trackindex>
              <clipindex>1</clipindex>
              <groupindex>1</groupindex>
            </link>
            <link>
              <linkclipref>clipitem-349</linkclipref>
              <mediatype>audio</mediatype>
              <trackindex>5</trackindex>
              <clipindex>1</clipindex>
              <groupindex>1</groupindex>
            </link>
            <link>
              <linkclipref>clipitem-350</linkclipref>
              <mediatype>audio</mediatype>
              <trackindex>6</trackindex>
              <clipindex>1</clipindex>
              <groupindex>1</groupindex>
            </link>
          </clipitem>
          <clipitem id="clipitem-354" premiereChannelType="Stereo">
            <masterclipid>masterclip-2</masterclipid>
            <name>2023-04-01 13-58-58溪神带飞王源5KCC.mp4</name>
            <enabled>TRUE</enabled>
            <rate>
              <timebase>60</timebase>
              <ntsc>FALSE</ntsc>
            </rate>
            <start>6865</start>
            <end>6977</end>
            <in>43394</in>
            <out>43506</out>
            <file id="file-2"/>
            <sourcetrack>
              <mediatype>audio</mediatype>
              <trackindex>2</trackindex>
            </sourcetrack>
            <link>
              <linkclipref>clipitem-351</linkclipref>
              <mediatype>video</mediatype>
              <trackindex>1</trackindex>
              <clipindex>1</clipindex>
            </link>
            <link>
              <linkclipref>clipitem-352</linkclipref>
              <mediatype>audio</mediatype>
              <trackindex>1</trackindex>
              <clipindex>1</clipindex>
              <groupindex>1</groupindex>
            </link>
            <link>
              <linkclipref>clipitem-353</linkclipref>
              <mediatype>audio</mediatype>
              <trackindex>2</trackindex>
              <clipindex>1</clipindex>
              <groupindex>1</groupindex>
            </link>
            <link>
              <linkclipref>clipitem-354</linkclipref>
              <mediatype>audio</mediatype>
              <trackindex>3</trackindex>
              <clipindex>1</clipindex>
              <groupindex>1</groupindex>
            </link>
            <link>
              <linkclipref>clipitem-355</linkclipref>
              <mediatype>audio</mediatype>
              <trackindex>4</trackindex>
              <clipindex>1</clipindex>
              <groupindex>1</groupindex>
            </link>
            <link>
              <linkclipref>clipitem-356</linkclipref>
              <mediatype>audio</mediatype>
              <trackindex>5</trackindex>
              <clipindex>1</clipindex>
              <groupindex>1</groupindex>
            </link>
            <link>
              <linkclipref>clipitem-357</linkclipref>
              <mediatype>audio</mediatype>
              <trackindex>6</trackindex>
              <clipindex>1</clipindex>
              <groupindex>1</groupindex>
            </link>
          </clipitem>
          <clipitem id="clipitem-361" premiereChannelType="Stereo">
            <masterclipid>masterclip-2</masterclipid>
            <name>2023-04-01 13-58-58溪神带飞王源5KCC.mp4</name>
            <enabled>TRUE</enabled>
            <rate>
              <timebase>60</timebase>
              <ntsc>FALSE</ntsc>
            </rate>
            <start>6977</start>
            <end>7192</end>
            <in>48926</in>
            <out>49141</out>
            <file id="file-2"/>
            <sourcetrack>
              <mediatype>audio</mediatype>
              <trackindex>2</trackindex>
            </sourcetrack>
            <link>
              <linkclipref>clipitem-358</linkclipref>
              <mediatype>video</mediatype>
              <trackindex>1</trackindex>
              <clipindex>1</clipindex>
            </link>
            <link>
              <linkclipref>clipitem-359</linkclipref>
              <mediatype>audio</mediatype>
              <trackindex>1</trackindex>
              <clipindex>1</clipindex>
              <groupindex>1</groupindex>
            </link>
            <link>
              <linkclipref>clipitem-360</linkclipref>
              <mediatype>audio</mediatype>
              <trackindex>2</trackindex>
              <clipindex>1</clipindex>
              <groupindex>1</groupindex>
            </link>
            <link>
              <linkclipref>clipitem-361</linkclipref>
              <mediatype>audio</mediatype>
              <trackindex>3</trackindex>
              <clipindex>1</clipindex>
              <groupindex>1</groupindex>
            </link>
            <link>
              <linkclipref>clipitem-362</linkclipref>
              <mediatype>audio</mediatype>
              <trackindex>4</trackindex>
              <clipindex>1</clipindex>
              <groupindex>1</groupindex>
            </link>
            <link>
              <linkclipref>clipitem-363</linkclipref>
              <mediatype>audio</mediatype>
              <trackindex>5</trackindex>
              <clipindex>1</clipindex>
              <groupindex>1</groupindex>
            </link>
            <link>
              <linkclipref>clipitem-364</linkclipref>
              <mediatype>audio</mediatype>
              <trackindex>6</trackindex>
              <clipindex>1</clipindex>
              <groupindex>1</groupindex>
            </link>
          </clipitem>
          <clipitem id="clipitem-368" premiereChannelType="Stereo">
            <masterclipid>masterclip-2</masterclipid>
            <name>2023-04-01 13-58-58溪神带飞王源5KCC.mp4</name>
            <enabled>TRUE</enabled>
            <rate>
              <timebase>60</timebase>
              <ntsc>FALSE</ntsc>
            </rate>
            <start>7192</start>
            <end>7401</end>
            <in>49153</in>
            <out>49362</out>
            <file id="file-2"/>
            <sourcetrack>
              <mediatype>audio</mediatype>
              <trackindex>2</trackindex>
            </sourcetrack>
            <link>
              <linkclipref>clipitem-365</linkclipref>
              <mediatype>video</mediatype>
              <trackindex>1</trackindex>
              <clipindex>1</clipindex>
            </link>
            <link>
              <linkclipref>clipitem-366</linkclipref>
              <mediatype>audio</mediatype>
              <trackindex>1</trackindex>
              <clipindex>1</clipindex>
              <groupindex>1</groupindex>
            </link>
            <link>
              <linkclipref>clipitem-367</linkclipref>
              <mediatype>audio</mediatype>
              <trackindex>2</trackindex>
              <clipindex>1</clipindex>
              <groupindex>1</groupindex>
            </link>
            <link>
              <linkclipref>clipitem-368</linkclipref>
              <mediatype>audio</mediatype>
              <trackindex>3</trackindex>
              <clipindex>1</clipindex>
              <groupindex>1</groupindex>
            </link>
            <link>
              <linkclipref>clipitem-369</linkclipref>
              <mediatype>audio</mediatype>
              <trackindex>4</trackindex>
              <clipindex>1</clipindex>
              <groupindex>1</groupindex>
            </link>
            <link>
              <linkclipref>clipitem-370</linkclipref>
              <mediatype>audio</mediatype>
              <trackindex>5</trackindex>
              <clipindex>1</clipindex>
              <groupindex>1</groupindex>
            </link>
            <link>
              <linkclipref>clipitem-371</linkclipref>
              <mediatype>audio</mediatype>
              <trackindex>6</trackindex>
              <clipindex>1</clipindex>
              <groupindex>1</groupindex>
            </link>
          </clipitem>
          <clipitem id="clipitem-375" premiereChannelType="Stereo">
            <masterclipid>masterclip-2</masterclipid>
            <name>2023-04-01 13-58-58溪神带飞王源5KCC.mp4</name>
            <enabled>TRUE</enabled>
            <rate>
              <timebase>60</timebase>
              <ntsc>FALSE</ntsc>
            </rate>
            <start>7401</start>
            <end>7529</end>
            <in>49768</in>
            <out>49896</out>
            <file id="file-2"/>
            <sourcetrack>
              <mediatype>audio</mediatype>
              <trackindex>2</trackindex>
            </sourcetrack>
            <link>
              <linkclipref>clipitem-372</linkclipref>
              <mediatype>video</mediatype>
              <trackindex>1</trackindex>
              <clipindex>1</clipindex>
            </link>
            <link>
              <linkclipref>clipitem-373</linkclipref>
              <mediatype>audio</mediatype>
              <trackindex>1</trackindex>
              <clipindex>1</clipindex>
              <groupindex>1</groupindex>
            </link>
            <link>
              <linkclipref>clipitem-374</linkclipref>
              <mediatype>audio</mediatype>
              <trackindex>2</trackindex>
              <clipindex>1</clipindex>
              <groupindex>1</groupindex>
            </link>
            <link>
              <linkclipref>clipitem-375</linkclipref>
              <mediatype>audio</mediatype>
              <trackindex>3</trackindex>
              <clipindex>1</clipindex>
              <groupindex>1</groupindex>
            </link>
            <link>
              <linkclipref>clipitem-376</linkclipref>
              <mediatype>audio</mediatype>
              <trackindex>4</trackindex>
              <clipindex>1</clipindex>
              <groupindex>1</groupindex>
            </link>
            <link>
              <linkclipref>clipitem-377</linkclipref>
              <mediatype>audio</mediatype>
              <trackindex>5</trackindex>
              <clipindex>1</clipindex>
              <groupindex>1</groupindex>
            </link>
            <link>
              <linkclipref>clipitem-378</linkclipref>
              <mediatype>audio</mediatype>
              <trackindex>6</trackindex>
              <clipindex>1</clipindex>
              <groupindex>1</groupindex>
            </link>
          </clipitem>
          <clipitem id="clipitem-382" premiereChannelType="Stereo">
            <masterclipid>masterclip-2</masterclipid>
            <name>2023-04-01 13-58-58溪神带飞王源5KCC.mp4</name>
            <enabled>TRUE</enabled>
            <rate>
              <timebase>60</timebase>
              <ntsc>FALSE</ntsc>
            </rate>
            <start>7529</start>
            <end>7724</end>
            <in>52898</in>
            <out>53093</out>
            <file id="file-2"/>
            <sourcetrack>
              <mediatype>audio</mediatype>
              <trackindex>2</trackindex>
            </sourcetrack>
            <link>
              <linkclipref>clipitem-379</linkclipref>
              <mediatype>video</mediatype>
              <trackindex>1</trackindex>
              <clipindex>1</clipindex>
            </link>
            <link>
              <linkclipref>clipitem-380</linkclipref>
              <mediatype>audio</mediatype>
              <trackindex>1</trackindex>
              <clipindex>1</clipindex>
              <groupindex>1</groupindex>
            </link>
            <link>
              <linkclipref>clipitem-381</linkclipref>
              <mediatype>audio</mediatype>
              <trackindex>2</trackindex>
              <clipindex>1</clipindex>
              <groupindex>1</groupindex>
            </link>
            <link>
              <linkclipref>clipitem-382</linkclipref>
              <mediatype>audio</mediatype>
              <trackindex>3</trackindex>
              <clipindex>1</clipindex>
              <groupindex>1</groupindex>
            </link>
            <link>
              <linkclipref>clipitem-383</linkclipref>
              <mediatype>audio</mediatype>
              <trackindex>4</trackindex>
              <clipindex>1</clipindex>
              <groupindex>1</groupindex>
            </link>
            <link>
              <linkclipref>clipitem-384</linkclipref>
              <mediatype>audio</mediatype>
              <trackindex>5</trackindex>
              <clipindex>1</clipindex>
              <groupindex>1</groupindex>
            </link>
            <link>
              <linkclipref>clipitem-385</linkclipref>
              <mediatype>audio</mediatype>
              <trackindex>6</trackindex>
              <clipindex>1</clipindex>
              <groupindex>1</groupindex>
            </link>
          </clipitem>
          <clipitem id="clipitem-389" premiereChannelType="Stereo">
            <masterclipid>masterclip-2</masterclipid>
            <name>2023-04-01 13-58-58溪神带飞王源5KCC.mp4</name>
            <enabled>TRUE</enabled>
            <rate>
              <timebase>60</timebase>
              <ntsc>FALSE</ntsc>
            </rate>
            <start>7724</start>
            <end>7856</end>
            <in>53201</in>
            <out>53333</out>
            <file id="file-2"/>
            <sourcetrack>
              <mediatype>audio</mediatype>
              <trackindex>2</trackindex>
            </sourcetrack>
            <link>
              <linkclipref>clipitem-386</linkclipref>
              <mediatype>video</mediatype>
              <trackindex>1</trackindex>
              <clipindex>1</clipindex>
            </link>
            <link>
              <linkclipref>clipitem-387</linkclipref>
              <mediatype>audio</mediatype>
              <trackindex>1</trackindex>
              <clipindex>1</clipindex>
              <groupindex>1</groupindex>
            </link>
            <link>
              <linkclipref>clipitem-388</linkclipref>
              <mediatype>audio</mediatype>
              <trackindex>2</trackindex>
              <clipindex>1</clipindex>
              <groupindex>1</groupindex>
            </link>
            <link>
              <linkclipref>clipitem-389</linkclipref>
              <mediatype>audio</mediatype>
              <trackindex>3</trackindex>
              <clipindex>1</clipindex>
              <groupindex>1</groupindex>
            </link>
            <link>
              <linkclipref>clipitem-390</linkclipref>
              <mediatype>audio</mediatype>
              <trackindex>4</trackindex>
              <clipindex>1</clipindex>
              <groupindex>1</groupindex>
            </link>
            <link>
              <linkclipref>clipitem-391</linkclipref>
              <mediatype>audio</mediatype>
              <trackindex>5</trackindex>
              <clipindex>1</clipindex>
              <groupindex>1</groupindex>
            </link>
            <link>
              <linkclipref>clipitem-392</linkclipref>
              <mediatype>audio</mediatype>
              <trackindex>6</trackindex>
              <clipindex>1</clipindex>
              <groupindex>1</groupindex>
            </link>
          </clipitem>
          <clipitem id="clipitem-396" premiereChannelType="Stereo">
            <masterclipid>masterclip-2</masterclipid>
            <name>2023-04-01 13-58-58溪神带飞王源5KCC.mp4</name>
            <enabled>TRUE</enabled>
            <rate>
              <timebase>60</timebase>
              <ntsc>FALSE</ntsc>
            </rate>
            <start>7856</start>
            <end>8015</end>
            <in>53758</in>
            <out>53917</out>
            <file id="file-2"/>
            <sourcetrack>
              <mediatype>audio</mediatype>
              <trackindex>2</trackindex>
            </sourcetrack>
            <link>
              <linkclipref>clipitem-393</linkclipref>
              <mediatype>video</mediatype>
              <trackindex>1</trackindex>
              <clipindex>1</clipindex>
            </link>
            <link>
              <linkclipref>clipitem-394</linkclipref>
              <mediatype>audio</mediatype>
              <trackindex>1</trackindex>
              <clipindex>1</clipindex>
              <groupindex>1</groupindex>
            </link>
            <link>
              <linkclipref>clipitem-395</linkclipref>
              <mediatype>audio</mediatype>
              <trackindex>2</trackindex>
              <clipindex>1</clipindex>
              <groupindex>1</groupindex>
            </link>
            <link>
              <linkclipref>clipitem-396</linkclipref>
              <mediatype>audio</mediatype>
              <trackindex>3</trackindex>
              <clipindex>1</clipindex>
              <groupindex>1</groupindex>
            </link>
            <link>
              <linkclipref>clipitem-397</linkclipref>
              <mediatype>audio</mediatype>
              <trackindex>4</trackindex>
              <clipindex>1</clipindex>
              <groupindex>1</groupindex>
            </link>
            <link>
              <linkclipref>clipitem-398</linkclipref>
              <mediatype>audio</mediatype>
              <trackindex>5</trackindex>
              <clipindex>1</clipindex>
              <groupindex>1</groupindex>
            </link>
            <link>
              <linkclipref>clipitem-399</linkclipref>
              <mediatype>audio</mediatype>
              <trackindex>6</trackindex>
              <clipindex>1</clipindex>
              <groupindex>1</groupindex>
            </link>
          </clipitem>
          <clipitem id="clipitem-403" premiereChannelType="Stereo">
            <masterclipid>masterclip-2</masterclipid>
            <name>2023-04-01 13-58-58溪神带飞王源5KCC.mp4</name>
            <enabled>TRUE</enabled>
            <rate>
              <timebase>60</timebase>
              <ntsc>FALSE</ntsc>
            </rate>
            <start>8015</start>
            <end>8211</end>
            <in>53964</in>
            <out>54160</out>
            <file id="file-2"/>
            <sourcetrack>
              <mediatype>audio</mediatype>
              <trackindex>2</trackindex>
            </sourcetrack>
            <link>
              <linkclipref>clipitem-400</linkclipref>
              <mediatype>video</mediatype>
              <trackindex>1</trackindex>
              <clipindex>1</clipindex>
            </link>
            <link>
              <linkclipref>clipitem-401</linkclipref>
              <mediatype>audio</mediatype>
              <trackindex>1</trackindex>
              <clipindex>1</clipindex>
              <groupindex>1</groupindex>
            </link>
            <link>
              <linkclipref>clipitem-402</linkclipref>
              <mediatype>audio</mediatype>
              <trackindex>2</trackindex>
              <clipindex>1</clipindex>
              <groupindex>1</groupindex>
            </link>
            <link>
              <linkclipref>clipitem-403</linkclipref>
              <mediatype>audio</mediatype>
              <trackindex>3</trackindex>
              <clipindex>1</clipindex>
              <groupindex>1</groupindex>
            </link>
            <link>
              <linkclipref>clipitem-404</linkclipref>
              <mediatype>audio</mediatype>
              <trackindex>4</trackindex>
              <clipindex>1</clipindex>
              <groupindex>1</groupindex>
            </link>
            <link>
              <linkclipref>clipitem-405</linkclipref>
              <mediatype>audio</mediatype>
              <trackindex>5</trackindex>
              <clipindex>1</clipindex>
              <groupindex>1</groupindex>
            </link>
            <link>
              <linkclipref>clipitem-406</linkclipref>
              <mediatype>audio</mediatype>
              <trackindex>6</trackindex>
              <clipindex>1</clipindex>
              <groupindex>1</groupindex>
            </link>
          </clipitem>
          <clipitem id="clipitem-410" premiereChannelType="Stereo">
            <masterclipid>masterclip-2</masterclipid>
            <name>2023-04-01 13-58-58溪神带飞王源5KCC.mp4</name>
            <enabled>TRUE</enabled>
            <rate>
              <timebase>60</timebase>
              <ntsc>FALSE</ntsc>
            </rate>
            <start>8211</start>
            <end>8325</end>
            <in>54222</in>
            <out>54336</out>
            <file id="file-2"/>
            <sourcetrack>
              <mediatype>audio</mediatype>
              <trackindex>2</trackindex>
            </sourcetrack>
            <link>
              <linkclipref>clipitem-407</linkclipref>
              <mediatype>video</mediatype>
              <trackindex>1</trackindex>
              <clipindex>1</clipindex>
            </link>
            <link>
              <linkclipref>clipitem-408</linkclipref>
              <mediatype>audio</mediatype>
              <trackindex>1</trackindex>
              <clipindex>1</clipindex>
              <groupindex>1</groupindex>
            </link>
            <link>
              <linkclipref>clipitem-409</linkclipref>
              <mediatype>audio</mediatype>
              <trackindex>2</trackindex>
              <clipindex>1</clipindex>
              <groupindex>1</groupindex>
            </link>
            <link>
              <linkclipref>clipitem-410</linkclipref>
              <mediatype>audio</mediatype>
              <trackindex>3</trackindex>
              <clipindex>1</clipindex>
              <groupindex>1</groupindex>
            </link>
            <link>
              <linkclipref>clipitem-411</linkclipref>
              <mediatype>audio</mediatype>
              <trackindex>4</trackindex>
              <clipindex>1</clipindex>
              <groupindex>1</groupindex>
            </link>
            <link>
              <linkclipref>clipitem-412</linkclipref>
              <mediatype>audio</mediatype>
              <trackindex>5</trackindex>
              <clipindex>1</clipindex>
              <groupindex>1</groupindex>
            </link>
            <link>
              <linkclipref>clipitem-413</linkclipref>
              <mediatype>audio</mediatype>
              <trackindex>6</trackindex>
              <clipindex>1</clipindex>
              <groupindex>1</groupindex>
            </link>
          </clipitem>
          <clipitem id="clipitem-417" premiereChannelType="Stereo">
            <masterclipid>masterclip-2</masterclipid>
            <name>2023-04-01 13-58-58溪神带飞王源5KCC.mp4</name>
            <enabled>TRUE</enabled>
            <rate>
              <timebase>60</timebase>
              <ntsc>FALSE</ntsc>
            </rate>
            <start>8325</start>
            <end>8452</end>
            <in>58783</in>
            <out>58910</out>
            <file id="file-2"/>
            <sourcetrack>
              <mediatype>audio</mediatype>
              <trackindex>2</trackindex>
            </sourcetrack>
            <link>
              <linkclipref>clipitem-414</linkclipref>
              <mediatype>video</mediatype>
              <trackindex>1</trackindex>
              <clipindex>1</clipindex>
            </link>
            <link>
              <linkclipref>clipitem-415</linkclipref>
              <mediatype>audio</mediatype>
              <trackindex>1</trackindex>
              <clipindex>1</clipindex>
              <groupindex>1</groupindex>
            </link>
            <link>
              <linkclipref>clipitem-416</linkclipref>
              <mediatype>audio</mediatype>
              <trackindex>2</trackindex>
              <clipindex>1</clipindex>
              <groupindex>1</groupindex>
            </link>
            <link>
              <linkclipref>clipitem-417</linkclipref>
              <mediatype>audio</mediatype>
              <trackindex>3</trackindex>
              <clipindex>1</clipindex>
              <groupindex>1</groupindex>
            </link>
            <link>
              <linkclipref>clipitem-418</linkclipref>
              <mediatype>audio</mediatype>
              <trackindex>4</trackindex>
              <clipindex>1</clipindex>
              <groupindex>1</groupindex>
            </link>
            <link>
              <linkclipref>clipitem-419</linkclipref>
              <mediatype>audio</mediatype>
              <trackindex>5</trackindex>
              <clipindex>1</clipindex>
              <groupindex>1</groupindex>
            </link>
            <link>
              <linkclipref>clipitem-420</linkclipref>
              <mediatype>audio</mediatype>
              <trackindex>6</trackindex>
              <clipindex>1</clipindex>
              <groupindex>1</groupindex>
            </link>
          </clipitem>
          <clipitem id="clipitem-424" premiereChannelType="Stereo">
            <masterclipid>masterclip-2</masterclipid>
            <name>2023-04-01 13-58-58溪神带飞王源5KCC.mp4</name>
            <enabled>TRUE</enabled>
            <rate>
              <timebase>60</timebase>
              <ntsc>FALSE</ntsc>
            </rate>
            <start>8452</start>
            <end>8604</end>
            <in>61335</in>
            <out>61487</out>
            <file id="file-2"/>
            <sourcetrack>
              <mediatype>audio</mediatype>
              <trackindex>2</trackindex>
            </sourcetrack>
            <link>
              <linkclipref>clipitem-421</linkclipref>
              <mediatype>video</mediatype>
              <trackindex>1</trackindex>
              <clipindex>1</clipindex>
            </link>
            <link>
              <linkclipref>clipitem-422</linkclipref>
              <mediatype>audio</mediatype>
              <trackindex>1</trackindex>
              <clipindex>1</clipindex>
              <groupindex>1</groupindex>
            </link>
            <link>
              <linkclipref>clipitem-423</linkclipref>
              <mediatype>audio</mediatype>
              <trackindex>2</trackindex>
              <clipindex>1</clipindex>
              <groupindex>1</groupindex>
            </link>
            <link>
              <linkclipref>clipitem-424</linkclipref>
              <mediatype>audio</mediatype>
              <trackindex>3</trackindex>
              <clipindex>1</clipindex>
              <groupindex>1</groupindex>
            </link>
            <link>
              <linkclipref>clipitem-425</linkclipref>
              <mediatype>audio</mediatype>
              <trackindex>4</trackindex>
              <clipindex>1</clipindex>
              <groupindex>1</groupindex>
            </link>
            <link>
              <linkclipref>clipitem-426</linkclipref>
              <mediatype>audio</mediatype>
              <trackindex>5</trackindex>
              <clipindex>1</clipindex>
              <groupindex>1</groupindex>
            </link>
            <link>
              <linkclipref>clipitem-427</linkclipref>
              <mediatype>audio</mediatype>
              <trackindex>6</trackindex>
              <clipindex>1</clipindex>
              <groupindex>1</groupindex>
            </link>
          </clipitem>
          <clipitem id="clipitem-431" premiereChannelType="Stereo">
            <masterclipid>masterclip-2</masterclipid>
            <name>2023-04-01 13-58-58溪神带飞王源5KCC.mp4</name>
            <enabled>TRUE</enabled>
            <rate>
              <timebase>60</timebase>
              <ntsc>FALSE</ntsc>
            </rate>
            <start>8604</start>
            <end>8663</end>
            <in>61479</in>
            <out>61538</out>
            <file id="file-2"/>
            <sourcetrack>
              <mediatype>audio</mediatype>
              <trackindex>2</trackindex>
            </sourcetrack>
            <link>
              <linkclipref>clipitem-428</linkclipref>
              <mediatype>video</mediatype>
              <trackindex>1</trackindex>
              <clipindex>1</clipindex>
            </link>
            <link>
              <linkclipref>clipitem-429</linkclipref>
              <mediatype>audio</mediatype>
              <trackindex>1</trackindex>
              <clipindex>1</clipindex>
              <groupindex>1</groupindex>
            </link>
            <link>
              <linkclipref>clipitem-430</linkclipref>
              <mediatype>audio</mediatype>
              <trackindex>2</trackindex>
              <clipindex>1</clipindex>
              <groupindex>1</groupindex>
            </link>
            <link>
              <linkclipref>clipitem-431</linkclipref>
              <mediatype>audio</mediatype>
              <trackindex>3</trackindex>
              <clipindex>1</clipindex>
              <groupindex>1</groupindex>
            </link>
            <link>
              <linkclipref>clipitem-432</linkclipref>
              <mediatype>audio</mediatype>
              <trackindex>4</trackindex>
              <clipindex>1</clipindex>
              <groupindex>1</groupindex>
            </link>
            <link>
              <linkclipref>clipitem-433</linkclipref>
              <mediatype>audio</mediatype>
              <trackindex>5</trackindex>
              <clipindex>1</clipindex>
              <groupindex>1</groupindex>
            </link>
            <link>
              <linkclipref>clipitem-434</linkclipref>
              <mediatype>audio</mediatype>
              <trackindex>6</trackindex>
              <clipindex>1</clipindex>
              <groupindex>1</groupindex>
            </link>
          </clipitem>
          <clipitem id="clipitem-438" premiereChannelType="Stereo">
            <masterclipid>masterclip-2</masterclipid>
            <name>2023-04-01 13-58-58溪神带飞王源5KCC.mp4</name>
            <enabled>TRUE</enabled>
            <rate>
              <timebase>60</timebase>
              <ntsc>FALSE</ntsc>
            </rate>
            <start>8663</start>
            <end>8756</end>
            <in>61668</in>
            <out>61761</out>
            <file id="file-2"/>
            <sourcetrack>
              <mediatype>audio</mediatype>
              <trackindex>2</trackindex>
            </sourcetrack>
            <link>
              <linkclipref>clipitem-435</linkclipref>
              <mediatype>video</mediatype>
              <trackindex>1</trackindex>
              <clipindex>1</clipindex>
            </link>
            <link>
              <linkclipref>clipitem-436</linkclipref>
              <mediatype>audio</mediatype>
              <trackindex>1</trackindex>
              <clipindex>1</clipindex>
              <groupindex>1</groupindex>
            </link>
            <link>
              <linkclipref>clipitem-437</linkclipref>
              <mediatype>audio</mediatype>
              <trackindex>2</trackindex>
              <clipindex>1</clipindex>
              <groupindex>1</groupindex>
            </link>
            <link>
              <linkclipref>clipitem-438</linkclipref>
              <mediatype>audio</mediatype>
              <trackindex>3</trackindex>
              <clipindex>1</clipindex>
              <groupindex>1</groupindex>
            </link>
            <link>
              <linkclipref>clipitem-439</linkclipref>
              <mediatype>audio</mediatype>
              <trackindex>4</trackindex>
              <clipindex>1</clipindex>
              <groupindex>1</groupindex>
            </link>
            <link>
              <linkclipref>clipitem-440</linkclipref>
              <mediatype>audio</mediatype>
              <trackindex>5</trackindex>
              <clipindex>1</clipindex>
              <groupindex>1</groupindex>
            </link>
            <link>
              <linkclipref>clipitem-441</linkclipref>
              <mediatype>audio</mediatype>
              <trackindex>6</trackindex>
              <clipindex>1</clipindex>
              <groupindex>1</groupindex>
            </link>
          </clipitem>
          <clipitem id="clipitem-445" premiereChannelType="Stereo">
            <masterclipid>masterclip-2</masterclipid>
            <name>2023-04-01 13-58-58溪神带飞王源5KCC.mp4</name>
            <enabled>TRUE</enabled>
            <rate>
              <timebase>60</timebase>
              <ntsc>FALSE</ntsc>
            </rate>
            <start>8756</start>
            <end>8834</end>
            <in>63731</in>
            <out>63809</out>
            <file id="file-2"/>
            <sourcetrack>
              <mediatype>audio</mediatype>
              <trackindex>2</trackindex>
            </sourcetrack>
            <link>
              <linkclipref>clipitem-442</linkclipref>
              <mediatype>video</mediatype>
              <trackindex>1</trackindex>
              <clipindex>1</clipindex>
            </link>
            <link>
              <linkclipref>clipitem-443</linkclipref>
              <mediatype>audio</mediatype>
              <trackindex>1</trackindex>
              <clipindex>1</clipindex>
              <groupindex>1</groupindex>
            </link>
            <link>
              <linkclipref>clipitem-444</linkclipref>
              <mediatype>audio</mediatype>
              <trackindex>2</trackindex>
              <clipindex>1</clipindex>
              <groupindex>1</groupindex>
            </link>
            <link>
              <linkclipref>clipitem-445</linkclipref>
              <mediatype>audio</mediatype>
              <trackindex>3</trackindex>
              <clipindex>1</clipindex>
              <groupindex>1</groupindex>
            </link>
            <link>
              <linkclipref>clipitem-446</linkclipref>
              <mediatype>audio</mediatype>
              <trackindex>4</trackindex>
              <clipindex>1</clipindex>
              <groupindex>1</groupindex>
            </link>
            <link>
              <linkclipref>clipitem-447</linkclipref>
              <mediatype>audio</mediatype>
              <trackindex>5</trackindex>
              <clipindex>1</clipindex>
              <groupindex>1</groupindex>
            </link>
            <link>
              <linkclipref>clipitem-448</linkclipref>
              <mediatype>audio</mediatype>
              <trackindex>6</trackindex>
              <clipindex>1</clipindex>
              <groupindex>1</groupindex>
            </link>
          </clipitem>
          <clipitem id="clipitem-452" premiereChannelType="Stereo">
            <masterclipid>masterclip-2</masterclipid>
            <name>2023-04-01 13-58-58溪神带飞王源5KCC.mp4</name>
            <enabled>TRUE</enabled>
            <rate>
              <timebase>60</timebase>
              <ntsc>FALSE</ntsc>
            </rate>
            <start>8834</start>
            <end>8926</end>
            <in>65937</in>
            <out>66029</out>
            <file id="file-2"/>
            <sourcetrack>
              <mediatype>audio</mediatype>
              <trackindex>2</trackindex>
            </sourcetrack>
            <link>
              <linkclipref>clipitem-449</linkclipref>
              <mediatype>video</mediatype>
              <trackindex>1</trackindex>
              <clipindex>1</clipindex>
            </link>
            <link>
              <linkclipref>clipitem-450</linkclipref>
              <mediatype>audio</mediatype>
              <trackindex>1</trackindex>
              <clipindex>1</clipindex>
              <groupindex>1</groupindex>
            </link>
            <link>
              <linkclipref>clipitem-451</linkclipref>
              <mediatype>audio</mediatype>
              <trackindex>2</trackindex>
              <clipindex>1</clipindex>
              <groupindex>1</groupindex>
            </link>
            <link>
              <linkclipref>clipitem-452</linkclipref>
              <mediatype>audio</mediatype>
              <trackindex>3</trackindex>
              <clipindex>1</clipindex>
              <groupindex>1</groupindex>
            </link>
            <link>
              <linkclipref>clipitem-453</linkclipref>
              <mediatype>audio</mediatype>
              <trackindex>4</trackindex>
              <clipindex>1</clipindex>
              <groupindex>1</groupindex>
            </link>
            <link>
              <linkclipref>clipitem-454</linkclipref>
              <mediatype>audio</mediatype>
              <trackindex>5</trackindex>
              <clipindex>1</clipindex>
              <groupindex>1</groupindex>
            </link>
            <link>
              <linkclipref>clipitem-455</linkclipref>
              <mediatype>audio</mediatype>
              <trackindex>6</trackindex>
              <clipindex>1</clipindex>
              <groupindex>1</groupindex>
            </link>
          </clipitem>
          <clipitem id="clipitem-459" premiereChannelType="Stereo">
            <masterclipid>masterclip-2</masterclipid>
            <name>2023-04-01 13-58-58溪神带飞王源5KCC.mp4</name>
            <enabled>TRUE</enabled>
            <rate>
              <timebase>60</timebase>
              <ntsc>FALSE</ntsc>
            </rate>
            <start>8926</start>
            <end>9026</end>
            <in>67489</in>
            <out>67589</out>
            <file id="file-2"/>
            <sourcetrack>
              <mediatype>audio</mediatype>
              <trackindex>2</trackindex>
            </sourcetrack>
            <link>
              <linkclipref>clipitem-456</linkclipref>
              <mediatype>video</mediatype>
              <trackindex>1</trackindex>
              <clipindex>1</clipindex>
            </link>
            <link>
              <linkclipref>clipitem-457</linkclipref>
              <mediatype>audio</mediatype>
              <trackindex>1</trackindex>
              <clipindex>1</clipindex>
              <groupindex>1</groupindex>
            </link>
            <link>
              <linkclipref>clipitem-458</linkclipref>
              <mediatype>audio</mediatype>
              <trackindex>2</trackindex>
              <clipindex>1</clipindex>
              <groupindex>1</groupindex>
            </link>
            <link>
              <linkclipref>clipitem-459</linkclipref>
              <mediatype>audio</mediatype>
              <trackindex>3</trackindex>
              <clipindex>1</clipindex>
              <groupindex>1</groupindex>
            </link>
            <link>
              <linkclipref>clipitem-460</linkclipref>
              <mediatype>audio</mediatype>
              <trackindex>4</trackindex>
              <clipindex>1</clipindex>
              <groupindex>1</groupindex>
            </link>
            <link>
              <linkclipref>clipitem-461</linkclipref>
              <mediatype>audio</mediatype>
              <trackindex>5</trackindex>
              <clipindex>1</clipindex>
              <groupindex>1</groupindex>
            </link>
            <link>
              <linkclipref>clipitem-462</linkclipref>
              <mediatype>audio</mediatype>
              <trackindex>6</trackindex>
              <clipindex>1</clipindex>
              <groupindex>1</groupindex>
            </link>
          </clipitem>
          <clipitem id="clipitem-466" premiereChannelType="Stereo">
            <masterclipid>masterclip-2</masterclipid>
            <name>2023-04-01 13-58-58溪神带飞王源5KCC.mp4</name>
            <enabled>TRUE</enabled>
            <rate>
              <timebase>60</timebase>
              <ntsc>FALSE</ntsc>
            </rate>
            <start>9026</start>
            <end>9186</end>
            <in>69990</in>
            <out>70150</out>
            <file id="file-2"/>
            <sourcetrack>
              <mediatype>audio</mediatype>
              <trackindex>2</trackindex>
            </sourcetrack>
            <link>
              <linkclipref>clipitem-463</linkclipref>
              <mediatype>video</mediatype>
              <trackindex>1</trackindex>
              <clipindex>1</clipindex>
            </link>
            <link>
              <linkclipref>clipitem-464</linkclipref>
              <mediatype>audio</mediatype>
              <trackindex>1</trackindex>
              <clipindex>1</clipindex>
              <groupindex>1</groupindex>
            </link>
            <link>
              <linkclipref>clipitem-465</linkclipref>
              <mediatype>audio</mediatype>
              <trackindex>2</trackindex>
              <clipindex>1</clipindex>
              <groupindex>1</groupindex>
            </link>
            <link>
              <linkclipref>clipitem-466</linkclipref>
              <mediatype>audio</mediatype>
              <trackindex>3</trackindex>
              <clipindex>1</clipindex>
              <groupindex>1</groupindex>
            </link>
            <link>
              <linkclipref>clipitem-467</linkclipref>
              <mediatype>audio</mediatype>
              <trackindex>4</trackindex>
              <clipindex>1</clipindex>
              <groupindex>1</groupindex>
            </link>
            <link>
              <linkclipref>clipitem-468</linkclipref>
              <mediatype>audio</mediatype>
              <trackindex>5</trackindex>
              <clipindex>1</clipindex>
              <groupindex>1</groupindex>
            </link>
            <link>
              <linkclipref>clipitem-469</linkclipref>
              <mediatype>audio</mediatype>
              <trackindex>6</trackindex>
              <clipindex>1</clipindex>
              <groupindex>1</groupindex>
            </link>
          </clipitem>
          <clipitem id="clipitem-473" premiereChannelType="Stereo">
            <masterclipid>masterclip-2</masterclipid>
            <name>2023-04-01 13-58-58溪神带飞王源5KCC.mp4</name>
            <enabled>TRUE</enabled>
            <rate>
              <timebase>60</timebase>
              <ntsc>FALSE</ntsc>
            </rate>
            <start>9186</start>
            <end>9346</end>
            <in>70337</in>
            <out>70497</out>
            <file id="file-2"/>
            <sourcetrack>
              <mediatype>audio</mediatype>
              <trackindex>2</trackindex>
            </sourcetrack>
            <link>
              <linkclipref>clipitem-470</linkclipref>
              <mediatype>video</mediatype>
              <trackindex>1</trackindex>
              <clipindex>1</clipindex>
            </link>
            <link>
              <linkclipref>clipitem-471</linkclipref>
              <mediatype>audio</mediatype>
              <trackindex>1</trackindex>
              <clipindex>1</clipindex>
              <groupindex>1</groupindex>
            </link>
            <link>
              <linkclipref>clipitem-472</linkclipref>
              <mediatype>audio</mediatype>
              <trackindex>2</trackindex>
              <clipindex>1</clipindex>
              <groupindex>1</groupindex>
            </link>
            <link>
              <linkclipref>clipitem-473</linkclipref>
              <mediatype>audio</mediatype>
              <trackindex>3</trackindex>
              <clipindex>1</clipindex>
              <groupindex>1</groupindex>
            </link>
            <link>
              <linkclipref>clipitem-474</linkclipref>
              <mediatype>audio</mediatype>
              <trackindex>4</trackindex>
              <clipindex>1</clipindex>
              <groupindex>1</groupindex>
            </link>
            <link>
              <linkclipref>clipitem-475</linkclipref>
              <mediatype>audio</mediatype>
              <trackindex>5</trackindex>
              <clipindex>1</clipindex>
              <groupindex>1</groupindex>
            </link>
            <link>
              <linkclipref>clipitem-476</linkclipref>
              <mediatype>audio</mediatype>
              <trackindex>6</trackindex>
              <clipindex>1</clipindex>
              <groupindex>1</groupindex>
            </link>
          </clipitem>
          <clipitem id="clipitem-480" premiereChannelType="Stereo">
            <masterclipid>masterclip-2</masterclipid>
            <name>2023-04-01 13-58-58溪神带飞王源5KCC.mp4</name>
            <enabled>TRUE</enabled>
            <rate>
              <timebase>60</timebase>
              <ntsc>FALSE</ntsc>
            </rate>
            <start>9346</start>
            <end>9428</end>
            <in>72878</in>
            <out>72960</out>
            <file id="file-2"/>
            <sourcetrack>
              <mediatype>audio</mediatype>
              <trackindex>2</trackindex>
            </sourcetrack>
            <link>
              <linkclipref>clipitem-477</linkclipref>
              <mediatype>video</mediatype>
              <trackindex>1</trackindex>
              <clipindex>1</clipindex>
            </link>
            <link>
              <linkclipref>clipitem-478</linkclipref>
              <mediatype>audio</mediatype>
              <trackindex>1</trackindex>
              <clipindex>1</clipindex>
              <groupindex>1</groupindex>
            </link>
            <link>
              <linkclipref>clipitem-479</linkclipref>
              <mediatype>audio</mediatype>
              <trackindex>2</trackindex>
              <clipindex>1</clipindex>
              <groupindex>1</groupindex>
            </link>
            <link>
              <linkclipref>clipitem-480</linkclipref>
              <mediatype>audio</mediatype>
              <trackindex>3</trackindex>
              <clipindex>1</clipindex>
              <groupindex>1</groupindex>
            </link>
            <link>
              <linkclipref>clipitem-481</linkclipref>
              <mediatype>audio</mediatype>
              <trackindex>4</trackindex>
              <clipindex>1</clipindex>
              <groupindex>1</groupindex>
            </link>
            <link>
              <linkclipref>clipitem-482</linkclipref>
              <mediatype>audio</mediatype>
              <trackindex>5</trackindex>
              <clipindex>1</clipindex>
              <groupindex>1</groupindex>
            </link>
            <link>
              <linkclipref>clipitem-483</linkclipref>
              <mediatype>audio</mediatype>
              <trackindex>6</trackindex>
              <clipindex>1</clipindex>
              <groupindex>1</groupindex>
            </link>
          </clipitem>
          <clipitem id="clipitem-487" premiereChannelType="Stereo">
            <masterclipid>masterclip-3</masterclipid>
            <name>2023-03-30 21-15-31艾许决赛圈2V6 8KCC.mp4</name>
            <enabled>TRUE</enabled>
            <rate>
              <timebase>60</timebase>
              <ntsc>FALSE</ntsc>
            </rate>
            <start>9428</start>
            <end>9920</end>
            <in>3281</in>
            <out>3773</out>
            <file id="file-3"/>
            <sourcetrack>
              <mediatype>audio</mediatype>
              <trackindex>2</trackindex>
            </sourcetrack>
            <link>
              <linkclipref>clipitem-484</linkclipref>
              <mediatype>video</mediatype>
              <trackindex>1</trackindex>
              <clipindex>1</clipindex>
            </link>
            <link>
              <linkclipref>clipitem-485</linkclipref>
              <mediatype>audio</mediatype>
              <trackindex>1</trackindex>
              <clipindex>1</clipindex>
              <groupindex>1</groupindex>
            </link>
            <link>
              <linkclipref>clipitem-486</linkclipref>
              <mediatype>audio</mediatype>
              <trackindex>2</trackindex>
              <clipindex>1</clipindex>
              <groupindex>1</groupindex>
            </link>
            <link>
              <linkclipref>clipitem-487</linkclipref>
              <mediatype>audio</mediatype>
              <trackindex>3</trackindex>
              <clipindex>1</clipindex>
              <groupindex>1</groupindex>
            </link>
            <link>
              <linkclipref>clipitem-488</linkclipref>
              <mediatype>audio</mediatype>
              <trackindex>4</trackindex>
              <clipindex>1</clipindex>
              <groupindex>1</groupindex>
            </link>
            <link>
              <linkclipref>clipitem-489</linkclipref>
              <mediatype>audio</mediatype>
              <trackindex>5</trackindex>
              <clipindex>1</clipindex>
              <groupindex>1</groupindex>
            </link>
            <link>
              <linkclipref>clipitem-490</linkclipref>
              <mediatype>audio</mediatype>
              <trackindex>6</trackindex>
              <clipindex>1</clipindex>
              <groupindex>1</groupindex>
            </link>
          </clipitem>
          <clipitem id="clipitem-494" premiereChannelType="Stereo">
            <masterclipid>masterclip-3</masterclipid>
            <name>2023-03-30 21-15-31艾许决赛圈2V6 8KCC.mp4</name>
            <enabled>TRUE</enabled>
            <rate>
              <timebase>60</timebase>
              <ntsc>FALSE</ntsc>
            </rate>
            <start>9920</start>
            <end>10196</end>
            <in>7193</in>
            <out>7469</out>
            <file id="file-3"/>
            <sourcetrack>
              <mediatype>audio</mediatype>
              <trackindex>2</trackindex>
            </sourcetrack>
            <link>
              <linkclipref>clipitem-491</linkclipref>
              <mediatype>video</mediatype>
              <trackindex>1</trackindex>
              <clipindex>1</clipindex>
            </link>
            <link>
              <linkclipref>clipitem-492</linkclipref>
              <mediatype>audio</mediatype>
              <trackindex>1</trackindex>
              <clipindex>1</clipindex>
              <groupindex>1</groupindex>
            </link>
            <link>
              <linkclipref>clipitem-493</linkclipref>
              <mediatype>audio</mediatype>
              <trackindex>2</trackindex>
              <clipindex>1</clipindex>
              <groupindex>1</groupindex>
            </link>
            <link>
              <linkclipref>clipitem-494</linkclipref>
              <mediatype>audio</mediatype>
              <trackindex>3</trackindex>
              <clipindex>1</clipindex>
              <groupindex>1</groupindex>
            </link>
            <link>
              <linkclipref>clipitem-495</linkclipref>
              <mediatype>audio</mediatype>
              <trackindex>4</trackindex>
              <clipindex>1</clipindex>
              <groupindex>1</groupindex>
            </link>
            <link>
              <linkclipref>clipitem-496</linkclipref>
              <mediatype>audio</mediatype>
              <trackindex>5</trackindex>
              <clipindex>1</clipindex>
              <groupindex>1</groupindex>
            </link>
            <link>
              <linkclipref>clipitem-497</linkclipref>
              <mediatype>audio</mediatype>
              <trackindex>6</trackindex>
              <clipindex>1</clipindex>
              <groupindex>1</groupindex>
            </link>
          </clipitem>
          <clipitem id="clipitem-501" premiereChannelType="Stereo">
            <masterclipid>masterclip-3</masterclipid>
            <name>2023-03-30 21-15-31艾许决赛圈2V6 8KCC.mp4</name>
            <enabled>TRUE</enabled>
            <rate>
              <timebase>60</timebase>
              <ntsc>FALSE</ntsc>
            </rate>
            <start>10196</start>
            <end>10286</end>
            <in>7646</in>
            <out>7736</out>
            <file id="file-3"/>
            <sourcetrack>
              <mediatype>audio</mediatype>
              <trackindex>2</trackindex>
            </sourcetrack>
            <link>
              <linkclipref>clipitem-498</linkclipref>
              <mediatype>video</mediatype>
              <trackindex>1</trackindex>
              <clipindex>1</clipindex>
            </link>
            <link>
              <linkclipref>clipitem-499</linkclipref>
              <mediatype>audio</mediatype>
              <trackindex>1</trackindex>
              <clipindex>1</clipindex>
              <groupindex>1</groupindex>
            </link>
            <link>
              <linkclipref>clipitem-500</linkclipref>
              <mediatype>audio</mediatype>
              <trackindex>2</trackindex>
              <clipindex>1</clipindex>
              <groupindex>1</groupindex>
            </link>
            <link>
              <linkclipref>clipitem-501</linkclipref>
              <mediatype>audio</mediatype>
              <trackindex>3</trackindex>
              <clipindex>1</clipindex>
              <groupindex>1</groupindex>
            </link>
            <link>
              <linkclipref>clipitem-502</linkclipref>
              <mediatype>audio</mediatype>
              <trackindex>4</trackindex>
              <clipindex>1</clipindex>
              <groupindex>1</groupindex>
            </link>
            <link>
              <linkclipref>clipitem-503</linkclipref>
              <mediatype>audio</mediatype>
              <trackindex>5</trackindex>
              <clipindex>1</clipindex>
              <groupindex>1</groupindex>
            </link>
            <link>
              <linkclipref>clipitem-504</linkclipref>
              <mediatype>audio</mediatype>
              <trackindex>6</trackindex>
              <clipindex>1</clipindex>
              <groupindex>1</groupindex>
            </link>
          </clipitem>
          <clipitem id="clipitem-508" premiereChannelType="Stereo">
            <masterclipid>masterclip-3</masterclipid>
            <name>2023-03-30 21-15-31艾许决赛圈2V6 8KCC.mp4</name>
            <enabled>TRUE</enabled>
            <rate>
              <timebase>60</timebase>
              <ntsc>FALSE</ntsc>
            </rate>
            <start>10286</start>
            <end>10401</end>
            <in>7813</in>
            <out>7928</out>
            <file id="file-3"/>
            <sourcetrack>
              <mediatype>audio</mediatype>
              <trackindex>2</trackindex>
            </sourcetrack>
            <link>
              <linkclipref>clipitem-505</linkclipref>
              <mediatype>video</mediatype>
              <trackindex>1</trackindex>
              <clipindex>1</clipindex>
            </link>
            <link>
              <linkclipref>clipitem-506</linkclipref>
              <mediatype>audio</mediatype>
              <trackindex>1</trackindex>
              <clipindex>1</clipindex>
              <groupindex>1</groupindex>
            </link>
            <link>
              <linkclipref>clipitem-507</linkclipref>
              <mediatype>audio</mediatype>
              <trackindex>2</trackindex>
              <clipindex>1</clipindex>
              <groupindex>1</groupindex>
            </link>
            <link>
              <linkclipref>clipitem-508</linkclipref>
              <mediatype>audio</mediatype>
              <trackindex>3</trackindex>
              <clipindex>1</clipindex>
              <groupindex>1</groupindex>
            </link>
            <link>
              <linkclipref>clipitem-509</linkclipref>
              <mediatype>audio</mediatype>
              <trackindex>4</trackindex>
              <clipindex>1</clipindex>
              <groupindex>1</groupindex>
            </link>
            <link>
              <linkclipref>clipitem-510</linkclipref>
              <mediatype>audio</mediatype>
              <trackindex>5</trackindex>
              <clipindex>1</clipindex>
              <groupindex>1</groupindex>
            </link>
            <link>
              <linkclipref>clipitem-511</linkclipref>
              <mediatype>audio</mediatype>
              <trackindex>6</trackindex>
              <clipindex>1</clipindex>
              <groupindex>1</groupindex>
            </link>
          </clipitem>
          <clipitem id="clipitem-515" premiereChannelType="Stereo">
            <masterclipid>masterclip-3</masterclipid>
            <name>2023-03-30 21-15-31艾许决赛圈2V6 8KCC.mp4</name>
            <enabled>TRUE</enabled>
            <rate>
              <timebase>60</timebase>
              <ntsc>FALSE</ntsc>
            </rate>
            <start>10401</start>
            <end>10519</end>
            <in>9404</in>
            <out>9522</out>
            <file id="file-3"/>
            <sourcetrack>
              <mediatype>audio</mediatype>
              <trackindex>2</trackindex>
            </sourcetrack>
            <link>
              <linkclipref>clipitem-512</linkclipref>
              <mediatype>video</mediatype>
              <trackindex>1</trackindex>
              <clipindex>1</clipindex>
            </link>
            <link>
              <linkclipref>clipitem-513</linkclipref>
              <mediatype>audio</mediatype>
              <trackindex>1</trackindex>
              <clipindex>1</clipindex>
              <groupindex>1</groupindex>
            </link>
            <link>
              <linkclipref>clipitem-514</linkclipref>
              <mediatype>audio</mediatype>
              <trackindex>2</trackindex>
              <clipindex>1</clipindex>
              <groupindex>1</groupindex>
            </link>
            <link>
              <linkclipref>clipitem-515</linkclipref>
              <mediatype>audio</mediatype>
              <trackindex>3</trackindex>
              <clipindex>1</clipindex>
              <groupindex>1</groupindex>
            </link>
            <link>
              <linkclipref>clipitem-516</linkclipref>
              <mediatype>audio</mediatype>
              <trackindex>4</trackindex>
              <clipindex>1</clipindex>
              <groupindex>1</groupindex>
            </link>
            <link>
              <linkclipref>clipitem-517</linkclipref>
              <mediatype>audio</mediatype>
              <trackindex>5</trackindex>
              <clipindex>1</clipindex>
              <groupindex>1</groupindex>
            </link>
            <link>
              <linkclipref>clipitem-518</linkclipref>
              <mediatype>audio</mediatype>
              <trackindex>6</trackindex>
              <clipindex>1</clipindex>
              <groupindex>1</groupindex>
            </link>
          </clipitem>
          <clipitem id="clipitem-522" premiereChannelType="Stereo">
            <masterclipid>masterclip-3</masterclipid>
            <name>2023-03-30 21-15-31艾许决赛圈2V6 8KCC.mp4</name>
            <enabled>TRUE</enabled>
            <rate>
              <timebase>60</timebase>
              <ntsc>FALSE</ntsc>
            </rate>
            <start>10519</start>
            <end>10600</end>
            <in>9637</in>
            <out>9718</out>
            <file id="file-3"/>
            <sourcetrack>
              <mediatype>audio</mediatype>
              <trackindex>2</trackindex>
            </sourcetrack>
            <link>
              <linkclipref>clipitem-519</linkclipref>
              <mediatype>video</mediatype>
              <trackindex>1</trackindex>
              <clipindex>1</clipindex>
            </link>
            <link>
              <linkclipref>clipitem-520</linkclipref>
              <mediatype>audio</mediatype>
              <trackindex>1</trackindex>
              <clipindex>1</clipindex>
              <groupindex>1</groupindex>
            </link>
            <link>
              <linkclipref>clipitem-521</linkclipref>
              <mediatype>audio</mediatype>
              <trackindex>2</trackindex>
              <clipindex>1</clipindex>
              <groupindex>1</groupindex>
            </link>
            <link>
              <linkclipref>clipitem-522</linkclipref>
              <mediatype>audio</mediatype>
              <trackindex>3</trackindex>
              <clipindex>1</clipindex>
              <groupindex>1</groupindex>
            </link>
            <link>
              <linkclipref>clipitem-523</linkclipref>
              <mediatype>audio</mediatype>
              <trackindex>4</trackindex>
              <clipindex>1</clipindex>
              <groupindex>1</groupindex>
            </link>
            <link>
              <linkclipref>clipitem-524</linkclipref>
              <mediatype>audio</mediatype>
              <trackindex>5</trackindex>
              <clipindex>1</clipindex>
              <groupindex>1</groupindex>
            </link>
            <link>
              <linkclipref>clipitem-525</linkclipref>
              <mediatype>audio</mediatype>
              <trackindex>6</trackindex>
              <clipindex>1</clipindex>
              <groupindex>1</groupindex>
            </link>
          </clipitem>
          <clipitem id="clipitem-529" premiereChannelType="Stereo">
            <masterclipid>masterclip-3</masterclipid>
            <name>2023-03-30 21-15-31艾许决赛圈2V6 8KCC.mp4</name>
            <enabled>TRUE</enabled>
            <rate>
              <timebase>60</timebase>
              <ntsc>FALSE</ntsc>
            </rate>
            <start>10600</start>
            <end>10751</end>
            <in>10314</in>
            <out>10465</out>
            <file id="file-3"/>
            <sourcetrack>
              <mediatype>audio</mediatype>
              <trackindex>2</trackindex>
            </sourcetrack>
            <link>
              <linkclipref>clipitem-526</linkclipref>
              <mediatype>video</mediatype>
              <trackindex>1</trackindex>
              <clipindex>1</clipindex>
            </link>
            <link>
              <linkclipref>clipitem-527</linkclipref>
              <mediatype>audio</mediatype>
              <trackindex>1</trackindex>
              <clipindex>1</clipindex>
              <groupindex>1</groupindex>
            </link>
            <link>
              <linkclipref>clipitem-528</linkclipref>
              <mediatype>audio</mediatype>
              <trackindex>2</trackindex>
              <clipindex>1</clipindex>
              <groupindex>1</groupindex>
            </link>
            <link>
              <linkclipref>clipitem-529</linkclipref>
              <mediatype>audio</mediatype>
              <trackindex>3</trackindex>
              <clipindex>1</clipindex>
              <groupindex>1</groupindex>
            </link>
            <link>
              <linkclipref>clipitem-530</linkclipref>
              <mediatype>audio</mediatype>
              <trackindex>4</trackindex>
              <clipindex>1</clipindex>
              <groupindex>1</groupindex>
            </link>
            <link>
              <linkclipref>clipitem-531</linkclipref>
              <mediatype>audio</mediatype>
              <trackindex>5</trackindex>
              <clipindex>1</clipindex>
              <groupindex>1</groupindex>
            </link>
            <link>
              <linkclipref>clipitem-532</linkclipref>
              <mediatype>audio</mediatype>
              <trackindex>6</trackindex>
              <clipindex>1</clipindex>
              <groupindex>1</groupindex>
            </link>
          </clipitem>
          <clipitem id="clipitem-536" premiereChannelType="Stereo">
            <masterclipid>masterclip-3</masterclipid>
            <name>2023-03-30 21-15-31艾许决赛圈2V6 8KCC.mp4</name>
            <enabled>TRUE</enabled>
            <rate>
              <timebase>60</timebase>
              <ntsc>FALSE</ntsc>
            </rate>
            <start>10751</start>
            <end>10883</end>
            <in>10779</in>
            <out>10911</out>
            <file id="file-3"/>
            <sourcetrack>
              <mediatype>audio</mediatype>
              <trackindex>2</trackindex>
            </sourcetrack>
            <link>
              <linkclipref>clipitem-533</linkclipref>
              <mediatype>video</mediatype>
              <trackindex>1</trackindex>
              <clipindex>1</clipindex>
            </link>
            <link>
              <linkclipref>clipitem-534</linkclipref>
              <mediatype>audio</mediatype>
              <trackindex>1</trackindex>
              <clipindex>1</clipindex>
              <groupindex>1</groupindex>
            </link>
            <link>
              <linkclipref>clipitem-535</linkclipref>
              <mediatype>audio</mediatype>
              <trackindex>2</trackindex>
              <clipindex>1</clipindex>
              <groupindex>1</groupindex>
            </link>
            <link>
              <linkclipref>clipitem-536</linkclipref>
              <mediatype>audio</mediatype>
              <trackindex>3</trackindex>
              <clipindex>1</clipindex>
              <groupindex>1</groupindex>
            </link>
            <link>
              <linkclipref>clipitem-537</linkclipref>
              <mediatype>audio</mediatype>
              <trackindex>4</trackindex>
              <clipindex>1</clipindex>
              <groupindex>1</groupindex>
            </link>
            <link>
              <linkclipref>clipitem-538</linkclipref>
              <mediatype>audio</mediatype>
              <trackindex>5</trackindex>
              <clipindex>1</clipindex>
              <groupindex>1</groupindex>
            </link>
            <link>
              <linkclipref>clipitem-539</linkclipref>
              <mediatype>audio</mediatype>
              <trackindex>6</trackindex>
              <clipindex>1</clipindex>
              <groupindex>1</groupindex>
            </link>
          </clipitem>
          <clipitem id="clipitem-543" premiereChannelType="Stereo">
            <masterclipid>masterclip-3</masterclipid>
            <name>2023-03-30 21-15-31艾许决赛圈2V6 8KCC.mp4</name>
            <enabled>TRUE</enabled>
            <rate>
              <timebase>60</timebase>
              <ntsc>FALSE</ntsc>
            </rate>
            <start>10883</start>
            <end>10966</end>
            <in>10974</in>
            <out>11057</out>
            <file id="file-3"/>
            <sourcetrack>
              <mediatype>audio</mediatype>
              <trackindex>2</trackindex>
            </sourcetrack>
            <link>
              <linkclipref>clipitem-540</linkclipref>
              <mediatype>video</mediatype>
              <trackindex>1</trackindex>
              <clipindex>1</clipindex>
            </link>
            <link>
              <linkclipref>clipitem-541</linkclipref>
              <mediatype>audio</mediatype>
              <trackindex>1</trackindex>
              <clipindex>1</clipindex>
              <groupindex>1</groupindex>
            </link>
            <link>
              <linkclipref>clipitem-542</linkclipref>
              <mediatype>audio</mediatype>
              <trackindex>2</trackindex>
              <clipindex>1</clipindex>
              <groupindex>1</groupindex>
            </link>
            <link>
              <linkclipref>clipitem-543</linkclipref>
              <mediatype>audio</mediatype>
              <trackindex>3</trackindex>
              <clipindex>1</clipindex>
              <groupindex>1</groupindex>
            </link>
            <link>
              <linkclipref>clipitem-544</linkclipref>
              <mediatype>audio</mediatype>
              <trackindex>4</trackindex>
              <clipindex>1</clipindex>
              <groupindex>1</groupindex>
            </link>
            <link>
              <linkclipref>clipitem-545</linkclipref>
              <mediatype>audio</mediatype>
              <trackindex>5</trackindex>
              <clipindex>1</clipindex>
              <groupindex>1</groupindex>
            </link>
            <link>
              <linkclipref>clipitem-546</linkclipref>
              <mediatype>audio</mediatype>
              <trackindex>6</trackindex>
              <clipindex>1</clipindex>
              <groupindex>1</groupindex>
            </link>
          </clipitem>
          <clipitem id="clipitem-550" premiereChannelType="Stereo">
            <masterclipid>masterclip-3</masterclipid>
            <name>2023-03-30 21-15-31艾许决赛圈2V6 8KCC.mp4</name>
            <enabled>TRUE</enabled>
            <rate>
              <timebase>60</timebase>
              <ntsc>FALSE</ntsc>
            </rate>
            <start>10966</start>
            <end>11074</end>
            <in>11992</in>
            <out>12100</out>
            <file id="file-3"/>
            <sourcetrack>
              <mediatype>audio</mediatype>
              <trackindex>2</trackindex>
            </sourcetrack>
            <link>
              <linkclipref>clipitem-547</linkclipref>
              <mediatype>video</mediatype>
              <trackindex>1</trackindex>
              <clipindex>1</clipindex>
            </link>
            <link>
              <linkclipref>clipitem-548</linkclipref>
              <mediatype>audio</mediatype>
              <trackindex>1</trackindex>
              <clipindex>1</clipindex>
              <groupindex>1</groupindex>
            </link>
            <link>
              <linkclipref>clipitem-549</linkclipref>
              <mediatype>audio</mediatype>
              <trackindex>2</trackindex>
              <clipindex>1</clipindex>
              <groupindex>1</groupindex>
            </link>
            <link>
              <linkclipref>clipitem-550</linkclipref>
              <mediatype>audio</mediatype>
              <trackindex>3</trackindex>
              <clipindex>1</clipindex>
              <groupindex>1</groupindex>
            </link>
            <link>
              <linkclipref>clipitem-551</linkclipref>
              <mediatype>audio</mediatype>
              <trackindex>4</trackindex>
              <clipindex>1</clipindex>
              <groupindex>1</groupindex>
            </link>
            <link>
              <linkclipref>clipitem-552</linkclipref>
              <mediatype>audio</mediatype>
              <trackindex>5</trackindex>
              <clipindex>1</clipindex>
              <groupindex>1</groupindex>
            </link>
            <link>
              <linkclipref>clipitem-553</linkclipref>
              <mediatype>audio</mediatype>
              <trackindex>6</trackindex>
              <clipindex>1</clipindex>
              <groupindex>1</groupindex>
            </link>
          </clipitem>
          <clipitem id="clipitem-557" premiereChannelType="Stereo">
            <masterclipid>masterclip-3</masterclipid>
            <name>2023-03-30 21-15-31艾许决赛圈2V6 8KCC.mp4</name>
            <enabled>TRUE</enabled>
            <rate>
              <timebase>60</timebase>
              <ntsc>FALSE</ntsc>
            </rate>
            <start>11074</start>
            <end>11182</end>
            <in>12377</in>
            <out>12485</out>
            <file id="file-3"/>
            <sourcetrack>
              <mediatype>audio</mediatype>
              <trackindex>2</trackindex>
            </sourcetrack>
            <link>
              <linkclipref>clipitem-554</linkclipref>
              <mediatype>video</mediatype>
              <trackindex>1</trackindex>
              <clipindex>1</clipindex>
            </link>
            <link>
              <linkclipref>clipitem-555</linkclipref>
              <mediatype>audio</mediatype>
              <trackindex>1</trackindex>
              <clipindex>1</clipindex>
              <groupindex>1</groupindex>
            </link>
            <link>
              <linkclipref>clipitem-556</linkclipref>
              <mediatype>audio</mediatype>
              <trackindex>2</trackindex>
              <clipindex>1</clipindex>
              <groupindex>1</groupindex>
            </link>
            <link>
              <linkclipref>clipitem-557</linkclipref>
              <mediatype>audio</mediatype>
              <trackindex>3</trackindex>
              <clipindex>1</clipindex>
              <groupindex>1</groupindex>
            </link>
            <link>
              <linkclipref>clipitem-558</linkclipref>
              <mediatype>audio</mediatype>
              <trackindex>4</trackindex>
              <clipindex>1</clipindex>
              <groupindex>1</groupindex>
            </link>
            <link>
              <linkclipref>clipitem-559</linkclipref>
              <mediatype>audio</mediatype>
              <trackindex>5</trackindex>
              <clipindex>1</clipindex>
              <groupindex>1</groupindex>
            </link>
            <link>
              <linkclipref>clipitem-560</linkclipref>
              <mediatype>audio</mediatype>
              <trackindex>6</trackindex>
              <clipindex>1</clipindex>
              <groupindex>1</groupindex>
            </link>
          </clipitem>
          <clipitem id="clipitem-564" premiereChannelType="Stereo">
            <masterclipid>masterclip-3</masterclipid>
            <name>2023-03-30 21-15-31艾许决赛圈2V6 8KCC.mp4</name>
            <enabled>TRUE</enabled>
            <rate>
              <timebase>60</timebase>
              <ntsc>FALSE</ntsc>
            </rate>
            <start>11182</start>
            <end>11342</end>
            <in>13849</in>
            <out>14009</out>
            <file id="file-3"/>
            <sourcetrack>
              <mediatype>audio</mediatype>
              <trackindex>2</trackindex>
            </sourcetrack>
            <link>
              <linkclipref>clipitem-561</linkclipref>
              <mediatype>video</mediatype>
              <trackindex>1</trackindex>
              <clipindex>1</clipindex>
            </link>
            <link>
              <linkclipref>clipitem-562</linkclipref>
              <mediatype>audio</mediatype>
              <trackindex>1</trackindex>
              <clipindex>1</clipindex>
              <groupindex>1</groupindex>
            </link>
            <link>
              <linkclipref>clipitem-563</linkclipref>
              <mediatype>audio</mediatype>
              <trackindex>2</trackindex>
              <clipindex>1</clipindex>
              <groupindex>1</groupindex>
            </link>
            <link>
              <linkclipref>clipitem-564</linkclipref>
              <mediatype>audio</mediatype>
              <trackindex>3</trackindex>
              <clipindex>1</clipindex>
              <groupindex>1</groupindex>
            </link>
            <link>
              <linkclipref>clipitem-565</linkclipref>
              <mediatype>audio</mediatype>
              <trackindex>4</trackindex>
              <clipindex>1</clipindex>
              <groupindex>1</groupindex>
            </link>
            <link>
              <linkclipref>clipitem-566</linkclipref>
              <mediatype>audio</mediatype>
              <trackindex>5</trackindex>
              <clipindex>1</clipindex>
              <groupindex>1</groupindex>
            </link>
            <link>
              <linkclipref>clipitem-567</linkclipref>
              <mediatype>audio</mediatype>
              <trackindex>6</trackindex>
              <clipindex>1</clipindex>
              <groupindex>1</groupindex>
            </link>
          </clipitem>
          <clipitem id="clipitem-571" premiereChannelType="Stereo">
            <masterclipid>masterclip-3</masterclipid>
            <name>2023-03-30 21-15-31艾许决赛圈2V6 8KCC.mp4</name>
            <enabled>TRUE</enabled>
            <rate>
              <timebase>60</timebase>
              <ntsc>FALSE</ntsc>
            </rate>
            <start>11342</start>
            <end>11465</end>
            <in>14114</in>
            <out>14237</out>
            <file id="file-3"/>
            <sourcetrack>
              <mediatype>audio</mediatype>
              <trackindex>2</trackindex>
            </sourcetrack>
            <link>
              <linkclipref>clipitem-568</linkclipref>
              <mediatype>video</mediatype>
              <trackindex>1</trackindex>
              <clipindex>1</clipindex>
            </link>
            <link>
              <linkclipref>clipitem-569</linkclipref>
              <mediatype>audio</mediatype>
              <trackindex>1</trackindex>
              <clipindex>1</clipindex>
              <groupindex>1</groupindex>
            </link>
            <link>
              <linkclipref>clipitem-570</linkclipref>
              <mediatype>audio</mediatype>
              <trackindex>2</trackindex>
              <clipindex>1</clipindex>
              <groupindex>1</groupindex>
            </link>
            <link>
              <linkclipref>clipitem-571</linkclipref>
              <mediatype>audio</mediatype>
              <trackindex>3</trackindex>
              <clipindex>1</clipindex>
              <groupindex>1</groupindex>
            </link>
            <link>
              <linkclipref>clipitem-572</linkclipref>
              <mediatype>audio</mediatype>
              <trackindex>4</trackindex>
              <clipindex>1</clipindex>
              <groupindex>1</groupindex>
            </link>
            <link>
              <linkclipref>clipitem-573</linkclipref>
              <mediatype>audio</mediatype>
              <trackindex>5</trackindex>
              <clipindex>1</clipindex>
              <groupindex>1</groupindex>
            </link>
            <link>
              <linkclipref>clipitem-574</linkclipref>
              <mediatype>audio</mediatype>
              <trackindex>6</trackindex>
              <clipindex>1</clipindex>
              <groupindex>1</groupindex>
            </link>
          </clipitem>
          <clipitem id="clipitem-578" premiereChannelType="Stereo">
            <masterclipid>masterclip-3</masterclipid>
            <name>2023-03-30 21-15-31艾许决赛圈2V6 8KCC.mp4</name>
            <enabled>TRUE</enabled>
            <rate>
              <timebase>60</timebase>
              <ntsc>FALSE</ntsc>
            </rate>
            <start>11465</start>
            <end>11536</end>
            <in>14267</in>
            <out>14338</out>
            <file id="file-3"/>
            <sourcetrack>
              <mediatype>audio</mediatype>
              <trackindex>2</trackindex>
            </sourcetrack>
            <link>
              <linkclipref>clipitem-575</linkclipref>
              <mediatype>video</mediatype>
              <trackindex>1</trackindex>
              <clipindex>1</clipindex>
            </link>
            <link>
              <linkclipref>clipitem-576</linkclipref>
              <mediatype>audio</mediatype>
              <trackindex>1</trackindex>
              <clipindex>1</clipindex>
              <groupindex>1</groupindex>
            </link>
            <link>
              <linkclipref>clipitem-577</linkclipref>
              <mediatype>audio</mediatype>
              <trackindex>2</trackindex>
              <clipindex>1</clipindex>
              <groupindex>1</groupindex>
            </link>
            <link>
              <linkclipref>clipitem-578</linkclipref>
              <mediatype>audio</mediatype>
              <trackindex>3</trackindex>
              <clipindex>1</clipindex>
              <groupindex>1</groupindex>
            </link>
            <link>
              <linkclipref>clipitem-579</linkclipref>
              <mediatype>audio</mediatype>
              <trackindex>4</trackindex>
              <clipindex>1</clipindex>
              <groupindex>1</groupindex>
            </link>
            <link>
              <linkclipref>clipitem-580</linkclipref>
              <mediatype>audio</mediatype>
              <trackindex>5</trackindex>
              <clipindex>1</clipindex>
              <groupindex>1</groupindex>
            </link>
            <link>
              <linkclipref>clipitem-581</linkclipref>
              <mediatype>audio</mediatype>
              <trackindex>6</trackindex>
              <clipindex>1</clipindex>
              <groupindex>1</groupindex>
            </link>
          </clipitem>
          <clipitem id="clipitem-585" premiereChannelType="Stereo">
            <masterclipid>masterclip-3</masterclipid>
            <name>2023-03-30 21-15-31艾许决赛圈2V6 8KCC.mp4</name>
            <enabled>TRUE</enabled>
            <rate>
              <timebase>60</timebase>
              <ntsc>FALSE</ntsc>
            </rate>
            <start>11536</start>
            <end>11721</end>
            <in>15371</in>
            <out>15556</out>
            <file id="file-3"/>
            <sourcetrack>
              <mediatype>audio</mediatype>
              <trackindex>2</trackindex>
            </sourcetrack>
            <link>
              <linkclipref>clipitem-582</linkclipref>
              <mediatype>video</mediatype>
              <trackindex>1</trackindex>
              <clipindex>1</clipindex>
            </link>
            <link>
              <linkclipref>clipitem-583</linkclipref>
              <mediatype>audio</mediatype>
              <trackindex>1</trackindex>
              <clipindex>1</clipindex>
              <groupindex>1</groupindex>
            </link>
            <link>
              <linkclipref>clipitem-584</linkclipref>
              <mediatype>audio</mediatype>
              <trackindex>2</trackindex>
              <clipindex>1</clipindex>
              <groupindex>1</groupindex>
            </link>
            <link>
              <linkclipref>clipitem-585</linkclipref>
              <mediatype>audio</mediatype>
              <trackindex>3</trackindex>
              <clipindex>1</clipindex>
              <groupindex>1</groupindex>
            </link>
            <link>
              <linkclipref>clipitem-586</linkclipref>
              <mediatype>audio</mediatype>
              <trackindex>4</trackindex>
              <clipindex>1</clipindex>
              <groupindex>1</groupindex>
            </link>
            <link>
              <linkclipref>clipitem-587</linkclipref>
              <mediatype>audio</mediatype>
              <trackindex>5</trackindex>
              <clipindex>1</clipindex>
              <groupindex>1</groupindex>
            </link>
            <link>
              <linkclipref>clipitem-588</linkclipref>
              <mediatype>audio</mediatype>
              <trackindex>6</trackindex>
              <clipindex>1</clipindex>
              <groupindex>1</groupindex>
            </link>
          </clipitem>
          <clipitem id="clipitem-592" premiereChannelType="Stereo">
            <masterclipid>masterclip-3</masterclipid>
            <name>2023-03-30 21-15-31艾许决赛圈2V6 8KCC.mp4</name>
            <enabled>TRUE</enabled>
            <rate>
              <timebase>60</timebase>
              <ntsc>FALSE</ntsc>
            </rate>
            <start>11721</start>
            <end>11912</end>
            <in>16453</in>
            <out>16644</out>
            <file id="file-3"/>
            <sourcetrack>
              <mediatype>audio</mediatype>
              <trackindex>2</trackindex>
            </sourcetrack>
            <link>
              <linkclipref>clipitem-589</linkclipref>
              <mediatype>video</mediatype>
              <trackindex>1</trackindex>
              <clipindex>1</clipindex>
            </link>
            <link>
              <linkclipref>clipitem-590</linkclipref>
              <mediatype>audio</mediatype>
              <trackindex>1</trackindex>
              <clipindex>1</clipindex>
              <groupindex>1</groupindex>
            </link>
            <link>
              <linkclipref>clipitem-591</linkclipref>
              <mediatype>audio</mediatype>
              <trackindex>2</trackindex>
              <clipindex>1</clipindex>
              <groupindex>1</groupindex>
            </link>
            <link>
              <linkclipref>clipitem-592</linkclipref>
              <mediatype>audio</mediatype>
              <trackindex>3</trackindex>
              <clipindex>1</clipindex>
              <groupindex>1</groupindex>
            </link>
            <link>
              <linkclipref>clipitem-593</linkclipref>
              <mediatype>audio</mediatype>
              <trackindex>4</trackindex>
              <clipindex>1</clipindex>
              <groupindex>1</groupindex>
            </link>
            <link>
              <linkclipref>clipitem-594</linkclipref>
              <mediatype>audio</mediatype>
              <trackindex>5</trackindex>
              <clipindex>1</clipindex>
              <groupindex>1</groupindex>
            </link>
            <link>
              <linkclipref>clipitem-595</linkclipref>
              <mediatype>audio</mediatype>
              <trackindex>6</trackindex>
              <clipindex>1</clipindex>
              <groupindex>1</groupindex>
            </link>
          </clipitem>
          <clipitem id="clipitem-599" premiereChannelType="Stereo">
            <masterclipid>masterclip-3</masterclipid>
            <name>2023-03-30 21-15-31艾许决赛圈2V6 8KCC.mp4</name>
            <enabled>TRUE</enabled>
            <rate>
              <timebase>60</timebase>
              <ntsc>FALSE</ntsc>
            </rate>
            <start>11912</start>
            <end>12140</end>
            <in>16757</in>
            <out>16985</out>
            <file id="file-3"/>
            <sourcetrack>
              <mediatype>audio</mediatype>
              <trackindex>2</trackindex>
            </sourcetrack>
            <link>
              <linkclipref>clipitem-596</linkclipref>
              <mediatype>video</mediatype>
              <trackindex>1</trackindex>
              <clipindex>1</clipindex>
            </link>
            <link>
              <linkclipref>clipitem-597</linkclipref>
              <mediatype>audio</mediatype>
              <trackindex>1</trackindex>
              <clipindex>1</clipindex>
              <groupindex>1</groupindex>
            </link>
            <link>
              <linkclipref>clipitem-598</linkclipref>
              <mediatype>audio</mediatype>
              <trackindex>2</trackindex>
              <clipindex>1</clipindex>
              <groupindex>1</groupindex>
            </link>
            <link>
              <linkclipref>clipitem-599</linkclipref>
              <mediatype>audio</mediatype>
              <trackindex>3</trackindex>
              <clipindex>1</clipindex>
              <groupindex>1</groupindex>
            </link>
            <link>
              <linkclipref>clipitem-600</linkclipref>
              <mediatype>audio</mediatype>
              <trackindex>4</trackindex>
              <clipindex>1</clipindex>
              <groupindex>1</groupindex>
            </link>
            <link>
              <linkclipref>clipitem-601</linkclipref>
              <mediatype>audio</mediatype>
              <trackindex>5</trackindex>
              <clipindex>1</clipindex>
              <groupindex>1</groupindex>
            </link>
            <link>
              <linkclipref>clipitem-602</linkclipref>
              <mediatype>audio</mediatype>
              <trackindex>6</trackindex>
              <clipindex>1</clipindex>
              <groupindex>1</groupindex>
            </link>
          </clipitem>
          <clipitem id="clipitem-606" premiereChannelType="Stereo">
            <masterclipid>masterclip-3</masterclipid>
            <name>2023-03-30 21-15-31艾许决赛圈2V6 8KCC.mp4</name>
            <enabled>TRUE</enabled>
            <rate>
              <timebase>60</timebase>
              <ntsc>FALSE</ntsc>
            </rate>
            <start>12140</start>
            <end>12316</end>
            <in>17536</in>
            <out>17712</out>
            <file id="file-3"/>
            <sourcetrack>
              <mediatype>audio</mediatype>
              <trackindex>2</trackindex>
            </sourcetrack>
            <link>
              <linkclipref>clipitem-603</linkclipref>
              <mediatype>video</mediatype>
              <trackindex>1</trackindex>
              <clipindex>1</clipindex>
            </link>
            <link>
              <linkclipref>clipitem-604</linkclipref>
              <mediatype>audio</mediatype>
              <trackindex>1</trackindex>
              <clipindex>1</clipindex>
              <groupindex>1</groupindex>
            </link>
            <link>
              <linkclipref>clipitem-605</linkclipref>
              <mediatype>audio</mediatype>
              <trackindex>2</trackindex>
              <clipindex>1</clipindex>
              <groupindex>1</groupindex>
            </link>
            <link>
              <linkclipref>clipitem-606</linkclipref>
              <mediatype>audio</mediatype>
              <trackindex>3</trackindex>
              <clipindex>1</clipindex>
              <groupindex>1</groupindex>
            </link>
            <link>
              <linkclipref>clipitem-607</linkclipref>
              <mediatype>audio</mediatype>
              <trackindex>4</trackindex>
              <clipindex>1</clipindex>
              <groupindex>1</groupindex>
            </link>
            <link>
              <linkclipref>clipitem-608</linkclipref>
              <mediatype>audio</mediatype>
              <trackindex>5</trackindex>
              <clipindex>1</clipindex>
              <groupindex>1</groupindex>
            </link>
            <link>
              <linkclipref>clipitem-609</linkclipref>
              <mediatype>audio</mediatype>
              <trackindex>6</trackindex>
              <clipindex>1</clipindex>
              <groupindex>1</groupindex>
            </link>
          </clipitem>
          <clipitem id="clipitem-613" premiereChannelType="Stereo">
            <masterclipid>masterclip-3</masterclipid>
            <name>2023-03-30 21-15-31艾许决赛圈2V6 8KCC.mp4</name>
            <enabled>TRUE</enabled>
            <rate>
              <timebase>60</timebase>
              <ntsc>FALSE</ntsc>
            </rate>
            <start>12316</start>
            <end>12524</end>
            <in>18299</in>
            <out>18507</out>
            <file id="file-3"/>
            <sourcetrack>
              <mediatype>audio</mediatype>
              <trackindex>2</trackindex>
            </sourcetrack>
            <link>
              <linkclipref>clipitem-610</linkclipref>
              <mediatype>video</mediatype>
              <trackindex>1</trackindex>
              <clipindex>1</clipindex>
            </link>
            <link>
              <linkclipref>clipitem-611</linkclipref>
              <mediatype>audio</mediatype>
              <trackindex>1</trackindex>
              <clipindex>1</clipindex>
              <groupindex>1</groupindex>
            </link>
            <link>
              <linkclipref>clipitem-612</linkclipref>
              <mediatype>audio</mediatype>
              <trackindex>2</trackindex>
              <clipindex>1</clipindex>
              <groupindex>1</groupindex>
            </link>
            <link>
              <linkclipref>clipitem-613</linkclipref>
              <mediatype>audio</mediatype>
              <trackindex>3</trackindex>
              <clipindex>1</clipindex>
              <groupindex>1</groupindex>
            </link>
            <link>
              <linkclipref>clipitem-614</linkclipref>
              <mediatype>audio</mediatype>
              <trackindex>4</trackindex>
              <clipindex>1</clipindex>
              <groupindex>1</groupindex>
            </link>
            <link>
              <linkclipref>clipitem-615</linkclipref>
              <mediatype>audio</mediatype>
              <trackindex>5</trackindex>
              <clipindex>1</clipindex>
              <groupindex>1</groupindex>
            </link>
            <link>
              <linkclipref>clipitem-616</linkclipref>
              <mediatype>audio</mediatype>
              <trackindex>6</trackindex>
              <clipindex>1</clipindex>
              <groupindex>1</groupindex>
            </link>
          </clipitem>
          <clipitem id="clipitem-620" premiereChannelType="Stereo">
            <masterclipid>masterclip-3</masterclipid>
            <name>2023-03-30 21-15-31艾许决赛圈2V6 8KCC.mp4</name>
            <enabled>TRUE</enabled>
            <rate>
              <timebase>60</timebase>
              <ntsc>FALSE</ntsc>
            </rate>
            <start>12524</start>
            <end>12590</end>
            <in>18532</in>
            <out>18598</out>
            <file id="file-3"/>
            <sourcetrack>
              <mediatype>audio</mediatype>
              <trackindex>2</trackindex>
            </sourcetrack>
            <link>
              <linkclipref>clipitem-617</linkclipref>
              <mediatype>video</mediatype>
              <trackindex>1</trackindex>
              <clipindex>1</clipindex>
            </link>
            <link>
              <linkclipref>clipitem-618</linkclipref>
              <mediatype>audio</mediatype>
              <trackindex>1</trackindex>
              <clipindex>1</clipindex>
              <groupindex>1</groupindex>
            </link>
            <link>
              <linkclipref>clipitem-619</linkclipref>
              <mediatype>audio</mediatype>
              <trackindex>2</trackindex>
              <clipindex>1</clipindex>
              <groupindex>1</groupindex>
            </link>
            <link>
              <linkclipref>clipitem-620</linkclipref>
              <mediatype>audio</mediatype>
              <trackindex>3</trackindex>
              <clipindex>1</clipindex>
              <groupindex>1</groupindex>
            </link>
            <link>
              <linkclipref>clipitem-621</linkclipref>
              <mediatype>audio</mediatype>
              <trackindex>4</trackindex>
              <clipindex>1</clipindex>
              <groupindex>1</groupindex>
            </link>
            <link>
              <linkclipref>clipitem-622</linkclipref>
              <mediatype>audio</mediatype>
              <trackindex>5</trackindex>
              <clipindex>1</clipindex>
              <groupindex>1</groupindex>
            </link>
            <link>
              <linkclipref>clipitem-623</linkclipref>
              <mediatype>audio</mediatype>
              <trackindex>6</trackindex>
              <clipindex>1</clipindex>
              <groupindex>1</groupindex>
            </link>
          </clipitem>
          <clipitem id="clipitem-627" premiereChannelType="Stereo">
            <masterclipid>masterclip-3</masterclipid>
            <name>2023-03-30 21-15-31艾许决赛圈2V6 8KCC.mp4</name>
            <enabled>TRUE</enabled>
            <rate>
              <timebase>60</timebase>
              <ntsc>FALSE</ntsc>
            </rate>
            <start>12590</start>
            <end>12690</end>
            <in>18756</in>
            <out>18856</out>
            <file id="file-3"/>
            <sourcetrack>
              <mediatype>audio</mediatype>
              <trackindex>2</trackindex>
            </sourcetrack>
            <link>
              <linkclipref>clipitem-624</linkclipref>
              <mediatype>video</mediatype>
              <trackindex>1</trackindex>
              <clipindex>1</clipindex>
            </link>
            <link>
              <linkclipref>clipitem-625</linkclipref>
              <mediatype>audio</mediatype>
              <trackindex>1</trackindex>
              <clipindex>1</clipindex>
              <groupindex>1</groupindex>
            </link>
            <link>
              <linkclipref>clipitem-626</linkclipref>
              <mediatype>audio</mediatype>
              <trackindex>2</trackindex>
              <clipindex>1</clipindex>
              <groupindex>1</groupindex>
            </link>
            <link>
              <linkclipref>clipitem-627</linkclipref>
              <mediatype>audio</mediatype>
              <trackindex>3</trackindex>
              <clipindex>1</clipindex>
              <groupindex>1</groupindex>
            </link>
            <link>
              <linkclipref>clipitem-628</linkclipref>
              <mediatype>audio</mediatype>
              <trackindex>4</trackindex>
              <clipindex>1</clipindex>
              <groupindex>1</groupindex>
            </link>
            <link>
              <linkclipref>clipitem-629</linkclipref>
              <mediatype>audio</mediatype>
              <trackindex>5</trackindex>
              <clipindex>1</clipindex>
              <groupindex>1</groupindex>
            </link>
            <link>
              <linkclipref>clipitem-630</linkclipref>
              <mediatype>audio</mediatype>
              <trackindex>6</trackindex>
              <clipindex>1</clipindex>
              <groupindex>1</groupindex>
            </link>
          </clipitem>
          <clipitem id="clipitem-634" premiereChannelType="Stereo">
            <masterclipid>masterclip-3</masterclipid>
            <name>2023-03-30 21-15-31艾许决赛圈2V6 8KCC.mp4</name>
            <enabled>TRUE</enabled>
            <rate>
              <timebase>60</timebase>
              <ntsc>FALSE</ntsc>
            </rate>
            <start>12690</start>
            <end>12770</end>
            <in>29766</in>
            <out>29846</out>
            <file id="file-3"/>
            <sourcetrack>
              <mediatype>audio</mediatype>
              <trackindex>2</trackindex>
            </sourcetrack>
            <link>
              <linkclipref>clipitem-631</linkclipref>
              <mediatype>video</mediatype>
              <trackindex>1</trackindex>
              <clipindex>1</clipindex>
            </link>
            <link>
              <linkclipref>clipitem-632</linkclipref>
              <mediatype>audio</mediatype>
              <trackindex>1</trackindex>
              <clipindex>1</clipindex>
              <groupindex>1</groupindex>
            </link>
            <link>
              <linkclipref>clipitem-633</linkclipref>
              <mediatype>audio</mediatype>
              <trackindex>2</trackindex>
              <clipindex>1</clipindex>
              <groupindex>1</groupindex>
            </link>
            <link>
              <linkclipref>clipitem-634</linkclipref>
              <mediatype>audio</mediatype>
              <trackindex>3</trackindex>
              <clipindex>1</clipindex>
              <groupindex>1</groupindex>
            </link>
            <link>
              <linkclipref>clipitem-635</linkclipref>
              <mediatype>audio</mediatype>
              <trackindex>4</trackindex>
              <clipindex>1</clipindex>
              <groupindex>1</groupindex>
            </link>
            <link>
              <linkclipref>clipitem-636</linkclipref>
              <mediatype>audio</mediatype>
              <trackindex>5</trackindex>
              <clipindex>1</clipindex>
              <groupindex>1</groupindex>
            </link>
            <link>
              <linkclipref>clipitem-637</linkclipref>
              <mediatype>audio</mediatype>
              <trackindex>6</trackindex>
              <clipindex>1</clipindex>
              <groupindex>1</groupindex>
            </link>
          </clipitem>
          <clipitem id="clipitem-641" premiereChannelType="Stereo">
            <masterclipid>masterclip-3</masterclipid>
            <name>2023-03-30 21-15-31艾许决赛圈2V6 8KCC.mp4</name>
            <enabled>TRUE</enabled>
            <rate>
              <timebase>60</timebase>
              <ntsc>FALSE</ntsc>
            </rate>
            <start>12770</start>
            <end>12919</end>
            <in>30276</in>
            <out>30425</out>
            <file id="file-3"/>
            <sourcetrack>
              <mediatype>audio</mediatype>
              <trackindex>2</trackindex>
            </sourcetrack>
            <link>
              <linkclipref>clipitem-638</linkclipref>
              <mediatype>video</mediatype>
              <trackindex>1</trackindex>
              <clipindex>1</clipindex>
            </link>
            <link>
              <linkclipref>clipitem-639</linkclipref>
              <mediatype>audio</mediatype>
              <trackindex>1</trackindex>
              <clipindex>1</clipindex>
              <groupindex>1</groupindex>
            </link>
            <link>
              <linkclipref>clipitem-640</linkclipref>
              <mediatype>audio</mediatype>
              <trackindex>2</trackindex>
              <clipindex>1</clipindex>
              <groupindex>1</groupindex>
            </link>
            <link>
              <linkclipref>clipitem-641</linkclipref>
              <mediatype>audio</mediatype>
              <trackindex>3</trackindex>
              <clipindex>1</clipindex>
              <groupindex>1</groupindex>
            </link>
            <link>
              <linkclipref>clipitem-642</linkclipref>
              <mediatype>audio</mediatype>
              <trackindex>4</trackindex>
              <clipindex>1</clipindex>
              <groupindex>1</groupindex>
            </link>
            <link>
              <linkclipref>clipitem-643</linkclipref>
              <mediatype>audio</mediatype>
              <trackindex>5</trackindex>
              <clipindex>1</clipindex>
              <groupindex>1</groupindex>
            </link>
            <link>
              <linkclipref>clipitem-644</linkclipref>
              <mediatype>audio</mediatype>
              <trackindex>6</trackindex>
              <clipindex>1</clipindex>
              <groupindex>1</groupindex>
            </link>
          </clipitem>
          <clipitem id="clipitem-648" premiereChannelType="Stereo">
            <masterclipid>masterclip-3</masterclipid>
            <name>2023-03-30 21-15-31艾许决赛圈2V6 8KCC.mp4</name>
            <enabled>TRUE</enabled>
            <rate>
              <timebase>60</timebase>
              <ntsc>FALSE</ntsc>
            </rate>
            <start>12919</start>
            <end>13039</end>
            <in>30422</in>
            <out>30542</out>
            <file id="file-3"/>
            <sourcetrack>
              <mediatype>audio</mediatype>
              <trackindex>2</trackindex>
            </sourcetrack>
            <link>
              <linkclipref>clipitem-645</linkclipref>
              <mediatype>video</mediatype>
              <trackindex>1</trackindex>
              <clipindex>1</clipindex>
            </link>
            <link>
              <linkclipref>clipitem-646</linkclipref>
              <mediatype>audio</mediatype>
              <trackindex>1</trackindex>
              <clipindex>1</clipindex>
              <groupindex>1</groupindex>
            </link>
            <link>
              <linkclipref>clipitem-647</linkclipref>
              <mediatype>audio</mediatype>
              <trackindex>2</trackindex>
              <clipindex>1</clipindex>
              <groupindex>1</groupindex>
            </link>
            <link>
              <linkclipref>clipitem-648</linkclipref>
              <mediatype>audio</mediatype>
              <trackindex>3</trackindex>
              <clipindex>1</clipindex>
              <groupindex>1</groupindex>
            </link>
            <link>
              <linkclipref>clipitem-649</linkclipref>
              <mediatype>audio</mediatype>
              <trackindex>4</trackindex>
              <clipindex>1</clipindex>
              <groupindex>1</groupindex>
            </link>
            <link>
              <linkclipref>clipitem-650</linkclipref>
              <mediatype>audio</mediatype>
              <trackindex>5</trackindex>
              <clipindex>1</clipindex>
              <groupindex>1</groupindex>
            </link>
            <link>
              <linkclipref>clipitem-651</linkclipref>
              <mediatype>audio</mediatype>
              <trackindex>6</trackindex>
              <clipindex>1</clipindex>
              <groupindex>1</groupindex>
            </link>
          </clipitem>
          <clipitem id="clipitem-655" premiereChannelType="Stereo">
            <masterclipid>masterclip-3</masterclipid>
            <name>2023-03-30 21-15-31艾许决赛圈2V6 8KCC.mp4</name>
            <enabled>TRUE</enabled>
            <rate>
              <timebase>60</timebase>
              <ntsc>FALSE</ntsc>
            </rate>
            <start>13039</start>
            <end>13141</end>
            <in>30545</in>
            <out>30647</out>
            <file id="file-3"/>
            <sourcetrack>
              <mediatype>audio</mediatype>
              <trackindex>2</trackindex>
            </sourcetrack>
            <link>
              <linkclipref>clipitem-652</linkclipref>
              <mediatype>video</mediatype>
              <trackindex>1</trackindex>
              <clipindex>1</clipindex>
            </link>
            <link>
              <linkclipref>clipitem-653</linkclipref>
              <mediatype>audio</mediatype>
              <trackindex>1</trackindex>
              <clipindex>1</clipindex>
              <groupindex>1</groupindex>
            </link>
            <link>
              <linkclipref>clipitem-654</linkclipref>
              <mediatype>audio</mediatype>
              <trackindex>2</trackindex>
              <clipindex>1</clipindex>
              <groupindex>1</groupindex>
            </link>
            <link>
              <linkclipref>clipitem-655</linkclipref>
              <mediatype>audio</mediatype>
              <trackindex>3</trackindex>
              <clipindex>1</clipindex>
              <groupindex>1</groupindex>
            </link>
            <link>
              <linkclipref>clipitem-656</linkclipref>
              <mediatype>audio</mediatype>
              <trackindex>4</trackindex>
              <clipindex>1</clipindex>
              <groupindex>1</groupindex>
            </link>
            <link>
              <linkclipref>clipitem-657</linkclipref>
              <mediatype>audio</mediatype>
              <trackindex>5</trackindex>
              <clipindex>1</clipindex>
              <groupindex>1</groupindex>
            </link>
            <link>
              <linkclipref>clipitem-658</linkclipref>
              <mediatype>audio</mediatype>
              <trackindex>6</trackindex>
              <clipindex>1</clipindex>
              <groupindex>1</groupindex>
            </link>
          </clipitem>
          <clipitem id="clipitem-662" premiereChannelType="Stereo">
            <masterclipid>masterclip-3</masterclipid>
            <name>2023-03-30 21-15-31艾许决赛圈2V6 8KCC.mp4</name>
            <enabled>TRUE</enabled>
            <rate>
              <timebase>60</timebase>
              <ntsc>FALSE</ntsc>
            </rate>
            <start>13141</start>
            <end>13330</end>
            <in>32618</in>
            <out>32807</out>
            <file id="file-3"/>
            <sourcetrack>
              <mediatype>audio</mediatype>
              <trackindex>2</trackindex>
            </sourcetrack>
            <link>
              <linkclipref>clipitem-659</linkclipref>
              <mediatype>video</mediatype>
              <trackindex>1</trackindex>
              <clipindex>1</clipindex>
            </link>
            <link>
              <linkclipref>clipitem-660</linkclipref>
              <mediatype>audio</mediatype>
              <trackindex>1</trackindex>
              <clipindex>1</clipindex>
              <groupindex>1</groupindex>
            </link>
            <link>
              <linkclipref>clipitem-661</linkclipref>
              <mediatype>audio</mediatype>
              <trackindex>2</trackindex>
              <clipindex>1</clipindex>
              <groupindex>1</groupindex>
            </link>
            <link>
              <linkclipref>clipitem-662</linkclipref>
              <mediatype>audio</mediatype>
              <trackindex>3</trackindex>
              <clipindex>1</clipindex>
              <groupindex>1</groupindex>
            </link>
            <link>
              <linkclipref>clipitem-663</linkclipref>
              <mediatype>audio</mediatype>
              <trackindex>4</trackindex>
              <clipindex>1</clipindex>
              <groupindex>1</groupindex>
            </link>
            <link>
              <linkclipref>clipitem-664</linkclipref>
              <mediatype>audio</mediatype>
              <trackindex>5</trackindex>
              <clipindex>1</clipindex>
              <groupindex>1</groupindex>
            </link>
            <link>
              <linkclipref>clipitem-665</linkclipref>
              <mediatype>audio</mediatype>
              <trackindex>6</trackindex>
              <clipindex>1</clipindex>
              <groupindex>1</groupindex>
            </link>
          </clipitem>
          <clipitem id="clipitem-669" premiereChannelType="Stereo">
            <masterclipid>masterclip-3</masterclipid>
            <name>2023-03-30 21-15-31艾许决赛圈2V6 8KCC.mp4</name>
            <enabled>TRUE</enabled>
            <rate>
              <timebase>60</timebase>
              <ntsc>FALSE</ntsc>
            </rate>
            <start>13330</start>
            <end>13454</end>
            <in>33866</in>
            <out>33990</out>
            <file id="file-3"/>
            <sourcetrack>
              <mediatype>audio</mediatype>
              <trackindex>2</trackindex>
            </sourcetrack>
            <link>
              <linkclipref>clipitem-666</linkclipref>
              <mediatype>video</mediatype>
              <trackindex>1</trackindex>
              <clipindex>1</clipindex>
            </link>
            <link>
              <linkclipref>clipitem-667</linkclipref>
              <mediatype>audio</mediatype>
              <trackindex>1</trackindex>
              <clipindex>1</clipindex>
              <groupindex>1</groupindex>
            </link>
            <link>
              <linkclipref>clipitem-668</linkclipref>
              <mediatype>audio</mediatype>
              <trackindex>2</trackindex>
              <clipindex>1</clipindex>
              <groupindex>1</groupindex>
            </link>
            <link>
              <linkclipref>clipitem-669</linkclipref>
              <mediatype>audio</mediatype>
              <trackindex>3</trackindex>
              <clipindex>1</clipindex>
              <groupindex>1</groupindex>
            </link>
            <link>
              <linkclipref>clipitem-670</linkclipref>
              <mediatype>audio</mediatype>
              <trackindex>4</trackindex>
              <clipindex>1</clipindex>
              <groupindex>1</groupindex>
            </link>
            <link>
              <linkclipref>clipitem-671</linkclipref>
              <mediatype>audio</mediatype>
              <trackindex>5</trackindex>
              <clipindex>1</clipindex>
              <groupindex>1</groupindex>
            </link>
            <link>
              <linkclipref>clipitem-672</linkclipref>
              <mediatype>audio</mediatype>
              <trackindex>6</trackindex>
              <clipindex>1</clipindex>
              <groupindex>1</groupindex>
            </link>
          </clipitem>
          <clipitem id="clipitem-676" premiereChannelType="Stereo">
            <masterclipid>masterclip-3</masterclipid>
            <name>2023-03-30 21-15-31艾许决赛圈2V6 8KCC.mp4</name>
            <enabled>TRUE</enabled>
            <rate>
              <timebase>60</timebase>
              <ntsc>FALSE</ntsc>
            </rate>
            <start>13454</start>
            <end>13564</end>
            <in>41673</in>
            <out>41783</out>
            <file id="file-3"/>
            <sourcetrack>
              <mediatype>audio</mediatype>
              <trackindex>2</trackindex>
            </sourcetrack>
            <link>
              <linkclipref>clipitem-673</linkclipref>
              <mediatype>video</mediatype>
              <trackindex>1</trackindex>
              <clipindex>1</clipindex>
            </link>
            <link>
              <linkclipref>clipitem-674</linkclipref>
              <mediatype>audio</mediatype>
              <trackindex>1</trackindex>
              <clipindex>1</clipindex>
              <groupindex>1</groupindex>
            </link>
            <link>
              <linkclipref>clipitem-675</linkclipref>
              <mediatype>audio</mediatype>
              <trackindex>2</trackindex>
              <clipindex>1</clipindex>
              <groupindex>1</groupindex>
            </link>
            <link>
              <linkclipref>clipitem-676</linkclipref>
              <mediatype>audio</mediatype>
              <trackindex>3</trackindex>
              <clipindex>1</clipindex>
              <groupindex>1</groupindex>
            </link>
            <link>
              <linkclipref>clipitem-677</linkclipref>
              <mediatype>audio</mediatype>
              <trackindex>4</trackindex>
              <clipindex>1</clipindex>
              <groupindex>1</groupindex>
            </link>
            <link>
              <linkclipref>clipitem-678</linkclipref>
              <mediatype>audio</mediatype>
              <trackindex>5</trackindex>
              <clipindex>1</clipindex>
              <groupindex>1</groupindex>
            </link>
            <link>
              <linkclipref>clipitem-679</linkclipref>
              <mediatype>audio</mediatype>
              <trackindex>6</trackindex>
              <clipindex>1</clipindex>
              <groupindex>1</groupindex>
            </link>
          </clipitem>
          <clipitem id="clipitem-683" premiereChannelType="Stereo">
            <masterclipid>masterclip-3</masterclipid>
            <name>2023-03-30 21-15-31艾许决赛圈2V6 8KCC.mp4</name>
            <enabled>TRUE</enabled>
            <rate>
              <timebase>60</timebase>
              <ntsc>FALSE</ntsc>
            </rate>
            <start>13564</start>
            <end>13644</end>
            <in>42037</in>
            <out>42117</out>
            <file id="file-3"/>
            <sourcetrack>
              <mediatype>audio</mediatype>
              <trackindex>2</trackindex>
            </sourcetrack>
            <link>
              <linkclipref>clipitem-680</linkclipref>
              <mediatype>video</mediatype>
              <trackindex>1</trackindex>
              <clipindex>1</clipindex>
            </link>
            <link>
              <linkclipref>clipitem-681</linkclipref>
              <mediatype>audio</mediatype>
              <trackindex>1</trackindex>
              <clipindex>1</clipindex>
              <groupindex>1</groupindex>
            </link>
            <link>
              <linkclipref>clipitem-682</linkclipref>
              <mediatype>audio</mediatype>
              <trackindex>2</trackindex>
              <clipindex>1</clipindex>
              <groupindex>1</groupindex>
            </link>
            <link>
              <linkclipref>clipitem-683</linkclipref>
              <mediatype>audio</mediatype>
              <trackindex>3</trackindex>
              <clipindex>1</clipindex>
              <groupindex>1</groupindex>
            </link>
            <link>
              <linkclipref>clipitem-684</linkclipref>
              <mediatype>audio</mediatype>
              <trackindex>4</trackindex>
              <clipindex>1</clipindex>
              <groupindex>1</groupindex>
            </link>
            <link>
              <linkclipref>clipitem-685</linkclipref>
              <mediatype>audio</mediatype>
              <trackindex>5</trackindex>
              <clipindex>1</clipindex>
              <groupindex>1</groupindex>
            </link>
            <link>
              <linkclipref>clipitem-686</linkclipref>
              <mediatype>audio</mediatype>
              <trackindex>6</trackindex>
              <clipindex>1</clipindex>
              <groupindex>1</groupindex>
            </link>
          </clipitem>
          <clipitem id="clipitem-690" premiereChannelType="Stereo">
            <masterclipid>masterclip-3</masterclipid>
            <name>2023-03-30 21-15-31艾许决赛圈2V6 8KCC.mp4</name>
            <enabled>TRUE</enabled>
            <rate>
              <timebase>60</timebase>
              <ntsc>FALSE</ntsc>
            </rate>
            <start>13644</start>
            <end>13724</end>
            <in>43943</in>
            <out>44023</out>
            <file id="file-3"/>
            <sourcetrack>
              <mediatype>audio</mediatype>
              <trackindex>2</trackindex>
            </sourcetrack>
            <link>
              <linkclipref>clipitem-687</linkclipref>
              <mediatype>video</mediatype>
              <trackindex>1</trackindex>
              <clipindex>1</clipindex>
            </link>
            <link>
              <linkclipref>clipitem-688</linkclipref>
              <mediatype>audio</mediatype>
              <trackindex>1</trackindex>
              <clipindex>1</clipindex>
              <groupindex>1</groupindex>
            </link>
            <link>
              <linkclipref>clipitem-689</linkclipref>
              <mediatype>audio</mediatype>
              <trackindex>2</trackindex>
              <clipindex>1</clipindex>
              <groupindex>1</groupindex>
            </link>
            <link>
              <linkclipref>clipitem-690</linkclipref>
              <mediatype>audio</mediatype>
              <trackindex>3</trackindex>
              <clipindex>1</clipindex>
              <groupindex>1</groupindex>
            </link>
            <link>
              <linkclipref>clipitem-691</linkclipref>
              <mediatype>audio</mediatype>
              <trackindex>4</trackindex>
              <clipindex>1</clipindex>
              <groupindex>1</groupindex>
            </link>
            <link>
              <linkclipref>clipitem-692</linkclipref>
              <mediatype>audio</mediatype>
              <trackindex>5</trackindex>
              <clipindex>1</clipindex>
              <groupindex>1</groupindex>
            </link>
            <link>
              <linkclipref>clipitem-693</linkclipref>
              <mediatype>audio</mediatype>
              <trackindex>6</trackindex>
              <clipindex>1</clipindex>
              <groupindex>1</groupindex>
            </link>
          </clipitem>
          <clipitem id="clipitem-697" premiereChannelType="Stereo">
            <masterclipid>masterclip-3</masterclipid>
            <name>2023-03-30 21-15-31艾许决赛圈2V6 8KCC.mp4</name>
            <enabled>TRUE</enabled>
            <rate>
              <timebase>60</timebase>
              <ntsc>FALSE</ntsc>
            </rate>
            <start>13724</start>
            <end>13838</end>
            <in>44030</in>
            <out>44144</out>
            <file id="file-3"/>
            <sourcetrack>
              <mediatype>audio</mediatype>
              <trackindex>2</trackindex>
            </sourcetrack>
            <link>
              <linkclipref>clipitem-694</linkclipref>
              <mediatype>video</mediatype>
              <trackindex>1</trackindex>
              <clipindex>1</clipindex>
            </link>
            <link>
              <linkclipref>clipitem-695</linkclipref>
              <mediatype>audio</mediatype>
              <trackindex>1</trackindex>
              <clipindex>1</clipindex>
              <groupindex>1</groupindex>
            </link>
            <link>
              <linkclipref>clipitem-696</linkclipref>
              <mediatype>audio</mediatype>
              <trackindex>2</trackindex>
              <clipindex>1</clipindex>
              <groupindex>1</groupindex>
            </link>
            <link>
              <linkclipref>clipitem-697</linkclipref>
              <mediatype>audio</mediatype>
              <trackindex>3</trackindex>
              <clipindex>1</clipindex>
              <groupindex>1</groupindex>
            </link>
            <link>
              <linkclipref>clipitem-698</linkclipref>
              <mediatype>audio</mediatype>
              <trackindex>4</trackindex>
              <clipindex>1</clipindex>
              <groupindex>1</groupindex>
            </link>
            <link>
              <linkclipref>clipitem-699</linkclipref>
              <mediatype>audio</mediatype>
              <trackindex>5</trackindex>
              <clipindex>1</clipindex>
              <groupindex>1</groupindex>
            </link>
            <link>
              <linkclipref>clipitem-700</linkclipref>
              <mediatype>audio</mediatype>
              <trackindex>6</trackindex>
              <clipindex>1</clipindex>
              <groupindex>1</groupindex>
            </link>
          </clipitem>
          <clipitem id="clipitem-704" premiereChannelType="Stereo">
            <masterclipid>masterclip-3</masterclipid>
            <name>2023-03-30 21-15-31艾许决赛圈2V6 8KCC.mp4</name>
            <enabled>TRUE</enabled>
            <rate>
              <timebase>60</timebase>
              <ntsc>FALSE</ntsc>
            </rate>
            <start>13838</start>
            <end>13903</end>
            <in>44850</in>
            <out>44915</out>
            <file id="file-3"/>
            <sourcetrack>
              <mediatype>audio</mediatype>
              <trackindex>2</trackindex>
            </sourcetrack>
            <link>
              <linkclipref>clipitem-701</linkclipref>
              <mediatype>video</mediatype>
              <trackindex>1</trackindex>
              <clipindex>1</clipindex>
            </link>
            <link>
              <linkclipref>clipitem-702</linkclipref>
              <mediatype>audio</mediatype>
              <trackindex>1</trackindex>
              <clipindex>1</clipindex>
              <groupindex>1</groupindex>
            </link>
            <link>
              <linkclipref>clipitem-703</linkclipref>
              <mediatype>audio</mediatype>
              <trackindex>2</trackindex>
              <clipindex>1</clipindex>
              <groupindex>1</groupindex>
            </link>
            <link>
              <linkclipref>clipitem-704</linkclipref>
              <mediatype>audio</mediatype>
              <trackindex>3</trackindex>
              <clipindex>1</clipindex>
              <groupindex>1</groupindex>
            </link>
            <link>
              <linkclipref>clipitem-705</linkclipref>
              <mediatype>audio</mediatype>
              <trackindex>4</trackindex>
              <clipindex>1</clipindex>
              <groupindex>1</groupindex>
            </link>
            <link>
              <linkclipref>clipitem-706</linkclipref>
              <mediatype>audio</mediatype>
              <trackindex>5</trackindex>
              <clipindex>1</clipindex>
              <groupindex>1</groupindex>
            </link>
            <link>
              <linkclipref>clipitem-707</linkclipref>
              <mediatype>audio</mediatype>
              <trackindex>6</trackindex>
              <clipindex>1</clipindex>
              <groupindex>1</groupindex>
            </link>
          </clipitem>
          <clipitem id="clipitem-711" premiereChannelType="Stereo">
            <masterclipid>masterclip-3</masterclipid>
            <name>2023-03-30 21-15-31艾许决赛圈2V6 8KCC.mp4</name>
            <enabled>TRUE</enabled>
            <rate>
              <timebase>60</timebase>
              <ntsc>FALSE</ntsc>
            </rate>
            <start>13903</start>
            <end>14190</end>
            <in>46715</in>
            <out>47002</out>
            <file id="file-3"/>
            <sourcetrack>
              <mediatype>audio</mediatype>
              <trackindex>2</trackindex>
            </sourcetrack>
            <link>
              <linkclipref>clipitem-708</linkclipref>
              <mediatype>video</mediatype>
              <trackindex>1</trackindex>
              <clipindex>1</clipindex>
            </link>
            <link>
              <linkclipref>clipitem-709</linkclipref>
              <mediatype>audio</mediatype>
              <trackindex>1</trackindex>
              <clipindex>1</clipindex>
              <groupindex>1</groupindex>
            </link>
            <link>
              <linkclipref>clipitem-710</linkclipref>
              <mediatype>audio</mediatype>
              <trackindex>2</trackindex>
              <clipindex>1</clipindex>
              <groupindex>1</groupindex>
            </link>
            <link>
              <linkclipref>clipitem-711</linkclipref>
              <mediatype>audio</mediatype>
              <trackindex>3</trackindex>
              <clipindex>1</clipindex>
              <groupindex>1</groupindex>
            </link>
            <link>
              <linkclipref>clipitem-712</linkclipref>
              <mediatype>audio</mediatype>
              <trackindex>4</trackindex>
              <clipindex>1</clipindex>
              <groupindex>1</groupindex>
            </link>
            <link>
              <linkclipref>clipitem-713</linkclipref>
              <mediatype>audio</mediatype>
              <trackindex>5</trackindex>
              <clipindex>1</clipindex>
              <groupindex>1</groupindex>
            </link>
            <link>
              <linkclipref>clipitem-714</linkclipref>
              <mediatype>audio</mediatype>
              <trackindex>6</trackindex>
              <clipindex>1</clipindex>
              <groupindex>1</groupindex>
            </link>
          </clipitem>
          <clipitem id="clipitem-718" premiereChannelType="Stereo">
            <masterclipid>masterclip-3</masterclipid>
            <name>2023-03-30 21-15-31艾许决赛圈2V6 8KCC.mp4</name>
            <enabled>TRUE</enabled>
            <rate>
              <timebase>60</timebase>
              <ntsc>FALSE</ntsc>
            </rate>
            <start>14190</start>
            <end>14385</end>
            <in>48602</in>
            <out>48797</out>
            <file id="file-3"/>
            <sourcetrack>
              <mediatype>audio</mediatype>
              <trackindex>2</trackindex>
            </sourcetrack>
            <link>
              <linkclipref>clipitem-715</linkclipref>
              <mediatype>video</mediatype>
              <trackindex>1</trackindex>
              <clipindex>1</clipindex>
            </link>
            <link>
              <linkclipref>clipitem-716</linkclipref>
              <mediatype>audio</mediatype>
              <trackindex>1</trackindex>
              <clipindex>1</clipindex>
              <groupindex>1</groupindex>
            </link>
            <link>
              <linkclipref>clipitem-717</linkclipref>
              <mediatype>audio</mediatype>
              <trackindex>2</trackindex>
              <clipindex>1</clipindex>
              <groupindex>1</groupindex>
            </link>
            <link>
              <linkclipref>clipitem-718</linkclipref>
              <mediatype>audio</mediatype>
              <trackindex>3</trackindex>
              <clipindex>1</clipindex>
              <groupindex>1</groupindex>
            </link>
            <link>
              <linkclipref>clipitem-719</linkclipref>
              <mediatype>audio</mediatype>
              <trackindex>4</trackindex>
              <clipindex>1</clipindex>
              <groupindex>1</groupindex>
            </link>
            <link>
              <linkclipref>clipitem-720</linkclipref>
              <mediatype>audio</mediatype>
              <trackindex>5</trackindex>
              <clipindex>1</clipindex>
              <groupindex>1</groupindex>
            </link>
            <link>
              <linkclipref>clipitem-721</linkclipref>
              <mediatype>audio</mediatype>
              <trackindex>6</trackindex>
              <clipindex>1</clipindex>
              <groupindex>1</groupindex>
            </link>
          </clipitem>
          <clipitem id="clipitem-725" premiereChannelType="Stereo">
            <masterclipid>masterclip-3</masterclipid>
            <name>2023-03-30 21-15-31艾许决赛圈2V6 8KCC.mp4</name>
            <enabled>TRUE</enabled>
            <rate>
              <timebase>60</timebase>
              <ntsc>FALSE</ntsc>
            </rate>
            <start>14385</start>
            <end>14465</end>
            <in>48819</in>
            <out>48899</out>
            <file id="file-3"/>
            <sourcetrack>
              <mediatype>audio</mediatype>
              <trackindex>2</trackindex>
            </sourcetrack>
            <link>
              <linkclipref>clipitem-722</linkclipref>
              <mediatype>video</mediatype>
              <trackindex>1</trackindex>
              <clipindex>1</clipindex>
            </link>
            <link>
              <linkclipref>clipitem-723</linkclipref>
              <mediatype>audio</mediatype>
              <trackindex>1</trackindex>
              <clipindex>1</clipindex>
              <groupindex>1</groupindex>
            </link>
            <link>
              <linkclipref>clipitem-724</linkclipref>
              <mediatype>audio</mediatype>
              <trackindex>2</trackindex>
              <clipindex>1</clipindex>
              <groupindex>1</groupindex>
            </link>
            <link>
              <linkclipref>clipitem-725</linkclipref>
              <mediatype>audio</mediatype>
              <trackindex>3</trackindex>
              <clipindex>1</clipindex>
              <groupindex>1</groupindex>
            </link>
            <link>
              <linkclipref>clipitem-726</linkclipref>
              <mediatype>audio</mediatype>
              <trackindex>4</trackindex>
              <clipindex>1</clipindex>
              <groupindex>1</groupindex>
            </link>
            <link>
              <linkclipref>clipitem-727</linkclipref>
              <mediatype>audio</mediatype>
              <trackindex>5</trackindex>
              <clipindex>1</clipindex>
              <groupindex>1</groupindex>
            </link>
            <link>
              <linkclipref>clipitem-728</linkclipref>
              <mediatype>audio</mediatype>
              <trackindex>6</trackindex>
              <clipindex>1</clipindex>
              <groupindex>1</groupindex>
            </link>
          </clipitem>
          <clipitem id="clipitem-732" premiereChannelType="Stereo">
            <masterclipid>masterclip-3</masterclipid>
            <name>2023-03-30 21-15-31艾许决赛圈2V6 8KCC.mp4</name>
            <enabled>TRUE</enabled>
            <rate>
              <timebase>60</timebase>
              <ntsc>FALSE</ntsc>
            </rate>
            <start>14465</start>
            <end>14614</end>
            <in>67987</in>
            <out>68136</out>
            <file id="file-3"/>
            <sourcetrack>
              <mediatype>audio</mediatype>
              <trackindex>2</trackindex>
            </sourcetrack>
            <link>
              <linkclipref>clipitem-729</linkclipref>
              <mediatype>video</mediatype>
              <trackindex>1</trackindex>
              <clipindex>1</clipindex>
            </link>
            <link>
              <linkclipref>clipitem-730</linkclipref>
              <mediatype>audio</mediatype>
              <trackindex>1</trackindex>
              <clipindex>1</clipindex>
              <groupindex>1</groupindex>
            </link>
            <link>
              <linkclipref>clipitem-731</linkclipref>
              <mediatype>audio</mediatype>
              <trackindex>2</trackindex>
              <clipindex>1</clipindex>
              <groupindex>1</groupindex>
            </link>
            <link>
              <linkclipref>clipitem-732</linkclipref>
              <mediatype>audio</mediatype>
              <trackindex>3</trackindex>
              <clipindex>1</clipindex>
              <groupindex>1</groupindex>
            </link>
            <link>
              <linkclipref>clipitem-733</linkclipref>
              <mediatype>audio</mediatype>
              <trackindex>4</trackindex>
              <clipindex>1</clipindex>
              <groupindex>1</groupindex>
            </link>
            <link>
              <linkclipref>clipitem-734</linkclipref>
              <mediatype>audio</mediatype>
              <trackindex>5</trackindex>
              <clipindex>1</clipindex>
              <groupindex>1</groupindex>
            </link>
            <link>
              <linkclipref>clipitem-735</linkclipref>
              <mediatype>audio</mediatype>
              <trackindex>6</trackindex>
              <clipindex>1</clipindex>
              <groupindex>1</groupindex>
            </link>
          </clipitem>
          <clipitem id="clipitem-739" premiereChannelType="Stereo">
            <masterclipid>masterclip-3</masterclipid>
            <name>2023-03-30 21-15-31艾许决赛圈2V6 8KCC.mp4</name>
            <enabled>TRUE</enabled>
            <rate>
              <timebase>60</timebase>
              <ntsc>FALSE</ntsc>
            </rate>
            <start>14614</start>
            <end>14702</end>
            <in>69856</in>
            <out>69944</out>
            <file id="file-3"/>
            <sourcetrack>
              <mediatype>audio</mediatype>
              <trackindex>2</trackindex>
            </sourcetrack>
            <link>
              <linkclipref>clipitem-736</linkclipref>
              <mediatype>video</mediatype>
              <trackindex>1</trackindex>
              <clipindex>1</clipindex>
            </link>
            <link>
              <linkclipref>clipitem-737</linkclipref>
              <mediatype>audio</mediatype>
              <trackindex>1</trackindex>
              <clipindex>1</clipindex>
              <groupindex>1</groupindex>
            </link>
            <link>
              <linkclipref>clipitem-738</linkclipref>
              <mediatype>audio</mediatype>
              <trackindex>2</trackindex>
              <clipindex>1</clipindex>
              <groupindex>1</groupindex>
            </link>
            <link>
              <linkclipref>clipitem-739</linkclipref>
              <mediatype>audio</mediatype>
              <trackindex>3</trackindex>
              <clipindex>1</clipindex>
              <groupindex>1</groupindex>
            </link>
            <link>
              <linkclipref>clipitem-740</linkclipref>
              <mediatype>audio</mediatype>
              <trackindex>4</trackindex>
              <clipindex>1</clipindex>
              <groupindex>1</groupindex>
            </link>
            <link>
              <linkclipref>clipitem-741</linkclipref>
              <mediatype>audio</mediatype>
              <trackindex>5</trackindex>
              <clipindex>1</clipindex>
              <groupindex>1</groupindex>
            </link>
            <link>
              <linkclipref>clipitem-742</linkclipref>
              <mediatype>audio</mediatype>
              <trackindex>6</trackindex>
              <clipindex>1</clipindex>
              <groupindex>1</groupindex>
            </link>
          </clipitem>
          <clipitem id="clipitem-746" premiereChannelType="Stereo">
            <masterclipid>masterclip-3</masterclipid>
            <name>2023-03-30 21-15-31艾许决赛圈2V6 8KCC.mp4</name>
            <enabled>TRUE</enabled>
            <rate>
              <timebase>60</timebase>
              <ntsc>FALSE</ntsc>
            </rate>
            <start>14702</start>
            <end>14790</end>
            <in>69984</in>
            <out>70072</out>
            <file id="file-3"/>
            <sourcetrack>
              <mediatype>audio</mediatype>
              <trackindex>2</trackindex>
            </sourcetrack>
            <link>
              <linkclipref>clipitem-743</linkclipref>
              <mediatype>video</mediatype>
              <trackindex>1</trackindex>
              <clipindex>1</clipindex>
            </link>
            <link>
              <linkclipref>clipitem-744</linkclipref>
              <mediatype>audio</mediatype>
              <trackindex>1</trackindex>
              <clipindex>1</clipindex>
              <groupindex>1</groupindex>
            </link>
            <link>
              <linkclipref>clipitem-745</linkclipref>
              <mediatype>audio</mediatype>
              <trackindex>2</trackindex>
              <clipindex>1</clipindex>
              <groupindex>1</groupindex>
            </link>
            <link>
              <linkclipref>clipitem-746</linkclipref>
              <mediatype>audio</mediatype>
              <trackindex>3</trackindex>
              <clipindex>1</clipindex>
              <groupindex>1</groupindex>
            </link>
            <link>
              <linkclipref>clipitem-747</linkclipref>
              <mediatype>audio</mediatype>
              <trackindex>4</trackindex>
              <clipindex>1</clipindex>
              <groupindex>1</groupindex>
            </link>
            <link>
              <linkclipref>clipitem-748</linkclipref>
              <mediatype>audio</mediatype>
              <trackindex>5</trackindex>
              <clipindex>1</clipindex>
              <groupindex>1</groupindex>
            </link>
            <link>
              <linkclipref>clipitem-749</linkclipref>
              <mediatype>audio</mediatype>
              <trackindex>6</trackindex>
              <clipindex>1</clipindex>
              <groupindex>1</groupindex>
            </link>
          </clipitem>
          <clipitem id="clipitem-753" premiereChannelType="Stereo">
            <masterclipid>masterclip-3</masterclipid>
            <name>2023-03-30 21-15-31艾许决赛圈2V6 8KCC.mp4</name>
            <enabled>TRUE</enabled>
            <rate>
              <timebase>60</timebase>
              <ntsc>FALSE</ntsc>
            </rate>
            <start>14790</start>
            <end>14971</end>
            <in>70185</in>
            <out>70366</out>
            <file id="file-3"/>
            <sourcetrack>
              <mediatype>audio</mediatype>
              <trackindex>2</trackindex>
            </sourcetrack>
            <link>
              <linkclipref>clipitem-750</linkclipref>
              <mediatype>video</mediatype>
              <trackindex>1</trackindex>
              <clipindex>1</clipindex>
            </link>
            <link>
              <linkclipref>clipitem-751</linkclipref>
              <mediatype>audio</mediatype>
              <trackindex>1</trackindex>
              <clipindex>1</clipindex>
              <groupindex>1</groupindex>
            </link>
            <link>
              <linkclipref>clipitem-752</linkclipref>
              <mediatype>audio</mediatype>
              <trackindex>2</trackindex>
              <clipindex>1</clipindex>
              <groupindex>1</groupindex>
            </link>
            <link>
              <linkclipref>clipitem-753</linkclipref>
              <mediatype>audio</mediatype>
              <trackindex>3</trackindex>
              <clipindex>1</clipindex>
              <groupindex>1</groupindex>
            </link>
            <link>
              <linkclipref>clipitem-754</linkclipref>
              <mediatype>audio</mediatype>
              <trackindex>4</trackindex>
              <clipindex>1</clipindex>
              <groupindex>1</groupindex>
            </link>
            <link>
              <linkclipref>clipitem-755</linkclipref>
              <mediatype>audio</mediatype>
              <trackindex>5</trackindex>
              <clipindex>1</clipindex>
              <groupindex>1</groupindex>
            </link>
            <link>
              <linkclipref>clipitem-756</linkclipref>
              <mediatype>audio</mediatype>
              <trackindex>6</trackindex>
              <clipindex>1</clipindex>
              <groupindex>1</groupindex>
            </link>
          </clipitem>
          <clipitem id="clipitem-760" premiereChannelType="Stereo">
            <masterclipid>masterclip-3</masterclipid>
            <name>2023-03-30 21-15-31艾许决赛圈2V6 8KCC.mp4</name>
            <enabled>TRUE</enabled>
            <rate>
              <timebase>60</timebase>
              <ntsc>FALSE</ntsc>
            </rate>
            <start>14971</start>
            <end>15120</end>
            <in>70493</in>
            <out>70642</out>
            <file id="file-3"/>
            <sourcetrack>
              <mediatype>audio</mediatype>
              <trackindex>2</trackindex>
            </sourcetrack>
            <link>
              <linkclipref>clipitem-757</linkclipref>
              <mediatype>video</mediatype>
              <trackindex>1</trackindex>
              <clipindex>1</clipindex>
            </link>
            <link>
              <linkclipref>clipitem-758</linkclipref>
              <mediatype>audio</mediatype>
              <trackindex>1</trackindex>
              <clipindex>1</clipindex>
              <groupindex>1</groupindex>
            </link>
            <link>
              <linkclipref>clipitem-759</linkclipref>
              <mediatype>audio</mediatype>
              <trackindex>2</trackindex>
              <clipindex>1</clipindex>
              <groupindex>1</groupindex>
            </link>
            <link>
              <linkclipref>clipitem-760</linkclipref>
              <mediatype>audio</mediatype>
              <trackindex>3</trackindex>
              <clipindex>1</clipindex>
              <groupindex>1</groupindex>
            </link>
            <link>
              <linkclipref>clipitem-761</linkclipref>
              <mediatype>audio</mediatype>
              <trackindex>4</trackindex>
              <clipindex>1</clipindex>
              <groupindex>1</groupindex>
            </link>
            <link>
              <linkclipref>clipitem-762</linkclipref>
              <mediatype>audio</mediatype>
              <trackindex>5</trackindex>
              <clipindex>1</clipindex>
              <groupindex>1</groupindex>
            </link>
            <link>
              <linkclipref>clipitem-763</linkclipref>
              <mediatype>audio</mediatype>
              <trackindex>6</trackindex>
              <clipindex>1</clipindex>
              <groupindex>1</groupindex>
            </link>
          </clipitem>
          <clipitem id="clipitem-767" premiereChannelType="Stereo">
            <masterclipid>masterclip-3</masterclipid>
            <name>2023-03-30 21-15-31艾许决赛圈2V6 8KCC.mp4</name>
            <enabled>TRUE</enabled>
            <rate>
              <timebase>60</timebase>
              <ntsc>FALSE</ntsc>
            </rate>
            <start>15120</start>
            <end>15197</end>
            <in>70712</in>
            <out>70789</out>
            <file id="file-3"/>
            <sourcetrack>
              <mediatype>audio</mediatype>
              <trackindex>2</trackindex>
            </sourcetrack>
            <link>
              <linkclipref>clipitem-764</linkclipref>
              <mediatype>video</mediatype>
              <trackindex>1</trackindex>
              <clipindex>1</clipindex>
            </link>
            <link>
              <linkclipref>clipitem-765</linkclipref>
              <mediatype>audio</mediatype>
              <trackindex>1</trackindex>
              <clipindex>1</clipindex>
              <groupindex>1</groupindex>
            </link>
            <link>
              <linkclipref>clipitem-766</linkclipref>
              <mediatype>audio</mediatype>
              <trackindex>2</trackindex>
              <clipindex>1</clipindex>
              <groupindex>1</groupindex>
            </link>
            <link>
              <linkclipref>clipitem-767</linkclipref>
              <mediatype>audio</mediatype>
              <trackindex>3</trackindex>
              <clipindex>1</clipindex>
              <groupindex>1</groupindex>
            </link>
            <link>
              <linkclipref>clipitem-768</linkclipref>
              <mediatype>audio</mediatype>
              <trackindex>4</trackindex>
              <clipindex>1</clipindex>
              <groupindex>1</groupindex>
            </link>
            <link>
              <linkclipref>clipitem-769</linkclipref>
              <mediatype>audio</mediatype>
              <trackindex>5</trackindex>
              <clipindex>1</clipindex>
              <groupindex>1</groupindex>
            </link>
            <link>
              <linkclipref>clipitem-770</linkclipref>
              <mediatype>audio</mediatype>
              <trackindex>6</trackindex>
              <clipindex>1</clipindex>
              <groupindex>1</groupindex>
            </link>
          </clipitem>
          <clipitem id="clipitem-774" premiereChannelType="Stereo">
            <masterclipid>masterclip-3</masterclipid>
            <name>2023-03-30 21-15-31艾许决赛圈2V6 8KCC.mp4</name>
            <enabled>TRUE</enabled>
            <rate>
              <timebase>60</timebase>
              <ntsc>FALSE</ntsc>
            </rate>
            <start>15197</start>
            <end>15364</end>
            <in>70867</in>
            <out>71034</out>
            <file id="file-3"/>
            <sourcetrack>
              <mediatype>audio</mediatype>
              <trackindex>2</trackindex>
            </sourcetrack>
            <link>
              <linkclipref>clipitem-771</linkclipref>
              <mediatype>video</mediatype>
              <trackindex>1</trackindex>
              <clipindex>1</clipindex>
            </link>
            <link>
              <linkclipref>clipitem-772</linkclipref>
              <mediatype>audio</mediatype>
              <trackindex>1</trackindex>
              <clipindex>1</clipindex>
              <groupindex>1</groupindex>
            </link>
            <link>
              <linkclipref>clipitem-773</linkclipref>
              <mediatype>audio</mediatype>
              <trackindex>2</trackindex>
              <clipindex>1</clipindex>
              <groupindex>1</groupindex>
            </link>
            <link>
              <linkclipref>clipitem-774</linkclipref>
              <mediatype>audio</mediatype>
              <trackindex>3</trackindex>
              <clipindex>1</clipindex>
              <groupindex>1</groupindex>
            </link>
            <link>
              <linkclipref>clipitem-775</linkclipref>
              <mediatype>audio</mediatype>
              <trackindex>4</trackindex>
              <clipindex>1</clipindex>
              <groupindex>1</groupindex>
            </link>
            <link>
              <linkclipref>clipitem-776</linkclipref>
              <mediatype>audio</mediatype>
              <trackindex>5</trackindex>
              <clipindex>1</clipindex>
              <groupindex>1</groupindex>
            </link>
            <link>
              <linkclipref>clipitem-777</linkclipref>
              <mediatype>audio</mediatype>
              <trackindex>6</trackindex>
              <clipindex>1</clipindex>
              <groupindex>1</groupindex>
            </link>
          </clipitem>
          <clipitem id="clipitem-781" premiereChannelType="Stereo">
            <masterclipid>masterclip-3</masterclipid>
            <name>2023-03-30 21-15-31艾许决赛圈2V6 8KCC.mp4</name>
            <enabled>TRUE</enabled>
            <rate>
              <timebase>60</timebase>
              <ntsc>FALSE</ntsc>
            </rate>
            <start>15364</start>
            <end>15429</end>
            <in>72138</in>
            <out>72203</out>
            <file id="file-3"/>
            <sourcetrack>
              <mediatype>audio</mediatype>
              <trackindex>2</trackindex>
            </sourcetrack>
            <link>
              <linkclipref>clipitem-778</linkclipref>
              <mediatype>video</mediatype>
              <trackindex>1</trackindex>
              <clipindex>1</clipindex>
            </link>
            <link>
              <linkclipref>clipitem-779</linkclipref>
              <mediatype>audio</mediatype>
              <trackindex>1</trackindex>
              <clipindex>1</clipindex>
              <groupindex>1</groupindex>
            </link>
            <link>
              <linkclipref>clipitem-780</linkclipref>
              <mediatype>audio</mediatype>
              <trackindex>2</trackindex>
              <clipindex>1</clipindex>
              <groupindex>1</groupindex>
            </link>
            <link>
              <linkclipref>clipitem-781</linkclipref>
              <mediatype>audio</mediatype>
              <trackindex>3</trackindex>
              <clipindex>1</clipindex>
              <groupindex>1</groupindex>
            </link>
            <link>
              <linkclipref>clipitem-782</linkclipref>
              <mediatype>audio</mediatype>
              <trackindex>4</trackindex>
              <clipindex>1</clipindex>
              <groupindex>1</groupindex>
            </link>
            <link>
              <linkclipref>clipitem-783</linkclipref>
              <mediatype>audio</mediatype>
              <trackindex>5</trackindex>
              <clipindex>1</clipindex>
              <groupindex>1</groupindex>
            </link>
            <link>
              <linkclipref>clipitem-784</linkclipref>
              <mediatype>audio</mediatype>
              <trackindex>6</trackindex>
              <clipindex>1</clipindex>
              <groupindex>1</groupindex>
            </link>
          </clipitem>
          <clipitem id="clipitem-788" premiereChannelType="Stereo">
            <masterclipid>masterclip-3</masterclipid>
            <name>2023-03-30 21-15-31艾许决赛圈2V6 8KCC.mp4</name>
            <enabled>TRUE</enabled>
            <rate>
              <timebase>60</timebase>
              <ntsc>FALSE</ntsc>
            </rate>
            <start>15429</start>
            <end>15575</end>
            <in>72355</in>
            <out>72501</out>
            <file id="file-3"/>
            <sourcetrack>
              <mediatype>audio</mediatype>
              <trackindex>2</trackindex>
            </sourcetrack>
            <link>
              <linkclipref>clipitem-785</linkclipref>
              <mediatype>video</mediatype>
              <trackindex>1</trackindex>
              <clipindex>1</clipindex>
            </link>
            <link>
              <linkclipref>clipitem-786</linkclipref>
              <mediatype>audio</mediatype>
              <trackindex>1</trackindex>
              <clipindex>1</clipindex>
              <groupindex>1</groupindex>
            </link>
            <link>
              <linkclipref>clipitem-787</linkclipref>
              <mediatype>audio</mediatype>
              <trackindex>2</trackindex>
              <clipindex>1</clipindex>
              <groupindex>1</groupindex>
            </link>
            <link>
              <linkclipref>clipitem-788</linkclipref>
              <mediatype>audio</mediatype>
              <trackindex>3</trackindex>
              <clipindex>1</clipindex>
              <groupindex>1</groupindex>
            </link>
            <link>
              <linkclipref>clipitem-789</linkclipref>
              <mediatype>audio</mediatype>
              <trackindex>4</trackindex>
              <clipindex>1</clipindex>
              <groupindex>1</groupindex>
            </link>
            <link>
              <linkclipref>clipitem-790</linkclipref>
              <mediatype>audio</mediatype>
              <trackindex>5</trackindex>
              <clipindex>1</clipindex>
              <groupindex>1</groupindex>
            </link>
            <link>
              <linkclipref>clipitem-791</linkclipref>
              <mediatype>audio</mediatype>
              <trackindex>6</trackindex>
              <clipindex>1</clipindex>
              <groupindex>1</groupindex>
            </link>
          </clipitem>
          <clipitem id="clipitem-795" premiereChannelType="Stereo">
            <masterclipid>masterclip-3</masterclipid>
            <name>2023-03-30 21-15-31艾许决赛圈2V6 8KCC.mp4</name>
            <enabled>TRUE</enabled>
            <rate>
              <timebase>60</timebase>
              <ntsc>FALSE</ntsc>
            </rate>
            <start>15575</start>
            <end>15661</end>
            <in>72584</in>
            <out>72670</out>
            <file id="file-3"/>
            <sourcetrack>
              <mediatype>audio</mediatype>
              <trackindex>2</trackindex>
            </sourcetrack>
            <link>
              <linkclipref>clipitem-792</linkclipref>
              <mediatype>video</mediatype>
              <trackindex>1</trackindex>
              <clipindex>1</clipindex>
            </link>
            <link>
              <linkclipref>clipitem-793</linkclipref>
              <mediatype>audio</mediatype>
              <trackindex>1</trackindex>
              <clipindex>1</clipindex>
              <groupindex>1</groupindex>
            </link>
            <link>
              <linkclipref>clipitem-794</linkclipref>
              <mediatype>audio</mediatype>
              <trackindex>2</trackindex>
              <clipindex>1</clipindex>
              <groupindex>1</groupindex>
            </link>
            <link>
              <linkclipref>clipitem-795</linkclipref>
              <mediatype>audio</mediatype>
              <trackindex>3</trackindex>
              <clipindex>1</clipindex>
              <groupindex>1</groupindex>
            </link>
            <link>
              <linkclipref>clipitem-796</linkclipref>
              <mediatype>audio</mediatype>
              <trackindex>4</trackindex>
              <clipindex>1</clipindex>
              <groupindex>1</groupindex>
            </link>
            <link>
              <linkclipref>clipitem-797</linkclipref>
              <mediatype>audio</mediatype>
              <trackindex>5</trackindex>
              <clipindex>1</clipindex>
              <groupindex>1</groupindex>
            </link>
            <link>
              <linkclipref>clipitem-798</linkclipref>
              <mediatype>audio</mediatype>
              <trackindex>6</trackindex>
              <clipindex>1</clipindex>
              <groupindex>1</groupindex>
            </link>
          </clipitem>
          <enabled>TRUE</enabled>
          <locked>FALSE</locked>
          <outputchannelindex>1</outputchannelindex>
        </track>
        <track TL.SQTrackAudioKeyframeStyle="0" TL.SQTrackShy="0" TL.SQTrackExpandedHeight="25" TL.SQTrackExpanded="0" MZ.TrackTargeted="1" PannerCurrentValue="0.5" PannerIsInverted="true" PannerStartKeyframe="-91445760000000000,0.5,0,0,0,0,0,0" PannerName="平衡" currentExplodedTrackIndex="1" totalExplodedTrackCount="2" premiereTrackType="Stereo">
          <clipitem id="clipitem-5" premiereChannelType="Stereo">
            <masterclipid>masterclip-1</masterclipid>
            <name>2023-04-01 14-56-52溪神带上钻局CC.mp4</name>
            <enabled>TRUE</enabled>
            <rate>
              <timebase>60</timebase>
              <ntsc>FALSE</ntsc>
            </rate>
            <start>0</start>
            <end>17</end>
            <in>3303</in>
            <out>3320</out>
            <file id="file-1"/>
            <sourcetrack>
              <mediatype>audio</mediatype>
              <trackindex>2</trackindex>
            </sourcetrack>
            <link>
              <linkclipref>clipitem-1</linkclipref>
              <mediatype>video</mediatype>
              <trackindex>1</trackindex>
              <clipindex>1</clipindex>
            </link>
            <link>
              <linkclipref>clipitem-2</linkclipref>
              <mediatype>audio</mediatype>
              <trackindex>1</trackindex>
              <clipindex>1</clipindex>
              <groupindex>1</groupindex>
            </link>
            <link>
              <linkclipref>clipitem-3</linkclipref>
              <mediatype>audio</mediatype>
              <trackindex>2</trackindex>
              <clipindex>1</clipindex>
              <groupindex>1</groupindex>
            </link>
            <link>
              <linkclipref>clipitem-4</linkclipref>
              <mediatype>audio</mediatype>
              <trackindex>3</trackindex>
              <clipindex>1</clipindex>
              <groupindex>1</groupindex>
            </link>
            <link>
              <linkclipref>clipitem-5</linkclipref>
              <mediatype>audio</mediatype>
              <trackindex>4</trackindex>
              <clipindex>1</clipindex>
              <groupindex>1</groupindex>
            </link>
            <link>
              <linkclipref>clipitem-6</linkclipref>
              <mediatype>audio</mediatype>
              <trackindex>5</trackindex>
              <clipindex>1</clipindex>
              <groupindex>1</groupindex>
            </link>
            <link>
              <linkclipref>clipitem-7</linkclipref>
              <mediatype>audio</mediatype>
              <trackindex>6</trackindex>
              <clipindex>1</clipindex>
              <groupindex>1</groupindex>
            </link>
          </clipitem>
          <clipitem id="clipitem-12" premiereChannelType="Stereo">
            <masterclipid>masterclip-1</masterclipid>
            <name>2023-04-01 14-56-52溪神带上钻局CC.mp4</name>
            <enabled>TRUE</enabled>
            <rate>
              <timebase>60</timebase>
              <ntsc>FALSE</ntsc>
            </rate>
            <start>17</start>
            <end>27</end>
            <in>6094</in>
            <out>6104</out>
            <file id="file-1"/>
            <sourcetrack>
              <mediatype>audio</mediatype>
              <trackindex>2</trackindex>
            </sourcetrack>
            <link>
              <linkclipref>clipitem-8</linkclipref>
              <mediatype>video</mediatype>
              <trackindex>1</trackindex>
              <clipindex>1</clipindex>
            </link>
            <link>
              <linkclipref>clipitem-9</linkclipref>
              <mediatype>audio</mediatype>
              <trackindex>1</trackindex>
              <clipindex>1</clipindex>
              <groupindex>1</groupindex>
            </link>
            <link>
              <linkclipref>clipitem-10</linkclipref>
              <mediatype>audio</mediatype>
              <trackindex>2</trackindex>
              <clipindex>1</clipindex>
              <groupindex>1</groupindex>
            </link>
            <link>
              <linkclipref>clipitem-11</linkclipref>
              <mediatype>audio</mediatype>
              <trackindex>3</trackindex>
              <clipindex>1</clipindex>
              <groupindex>1</groupindex>
            </link>
            <link>
              <linkclipref>clipitem-12</linkclipref>
              <mediatype>audio</mediatype>
              <trackindex>4</trackindex>
              <clipindex>1</clipindex>
              <groupindex>1</groupindex>
            </link>
            <link>
              <linkclipref>clipitem-13</linkclipref>
              <mediatype>audio</mediatype>
              <trackindex>5</trackindex>
              <clipindex>1</clipindex>
              <groupindex>1</groupindex>
            </link>
            <link>
              <linkclipref>clipitem-14</linkclipref>
              <mediatype>audio</mediatype>
              <trackindex>6</trackindex>
              <clipindex>1</clipindex>
              <groupindex>1</groupindex>
            </link>
          </clipitem>
          <clipitem id="clipitem-19" premiereChannelType="Stereo">
            <masterclipid>masterclip-1</masterclipid>
            <name>2023-04-01 14-56-52溪神带上钻局CC.mp4</name>
            <enabled>TRUE</enabled>
            <rate>
              <timebase>60</timebase>
              <ntsc>FALSE</ntsc>
            </rate>
            <start>27</start>
            <end>38</end>
            <in>6096</in>
            <out>6107</out>
            <file id="file-1"/>
            <sourcetrack>
              <mediatype>audio</mediatype>
              <trackindex>2</trackindex>
            </sourcetrack>
            <link>
              <linkclipref>clipitem-15</linkclipref>
              <mediatype>video</mediatype>
              <trackindex>1</trackindex>
              <clipindex>1</clipindex>
            </link>
            <link>
              <linkclipref>clipitem-16</linkclipref>
              <mediatype>audio</mediatype>
              <trackindex>1</trackindex>
              <clipindex>1</clipindex>
              <groupindex>1</groupindex>
            </link>
            <link>
              <linkclipref>clipitem-17</linkclipref>
              <mediatype>audio</mediatype>
              <trackindex>2</trackindex>
              <clipindex>1</clipindex>
              <groupindex>1</groupindex>
            </link>
            <link>
              <linkclipref>clipitem-18</linkclipref>
              <mediatype>audio</mediatype>
              <trackindex>3</trackindex>
              <clipindex>1</clipindex>
              <groupindex>1</groupindex>
            </link>
            <link>
              <linkclipref>clipitem-19</linkclipref>
              <mediatype>audio</mediatype>
              <trackindex>4</trackindex>
              <clipindex>1</clipindex>
              <groupindex>1</groupindex>
            </link>
            <link>
              <linkclipref>clipitem-20</linkclipref>
              <mediatype>audio</mediatype>
              <trackindex>5</trackindex>
              <clipindex>1</clipindex>
              <groupindex>1</groupindex>
            </link>
            <link>
              <linkclipref>clipitem-21</linkclipref>
              <mediatype>audio</mediatype>
              <trackindex>6</trackindex>
              <clipindex>1</clipindex>
              <groupindex>1</groupindex>
            </link>
          </clipitem>
          <clipitem id="clipitem-26" premiereChannelType="Stereo">
            <masterclipid>masterclip-1</masterclipid>
            <name>2023-04-01 14-56-52溪神带上钻局CC.mp4</name>
            <enabled>TRUE</enabled>
            <rate>
              <timebase>60</timebase>
              <ntsc>FALSE</ntsc>
            </rate>
            <start>38</start>
            <end>174</end>
            <in>15816</in>
            <out>15952</out>
            <file id="file-1"/>
            <sourcetrack>
              <mediatype>audio</mediatype>
              <trackindex>2</trackindex>
            </sourcetrack>
            <link>
              <linkclipref>clipitem-22</linkclipref>
              <mediatype>video</mediatype>
              <trackindex>1</trackindex>
              <clipindex>1</clipindex>
            </link>
            <link>
              <linkclipref>clipitem-23</linkclipref>
              <mediatype>audio</mediatype>
              <trackindex>1</trackindex>
              <clipindex>1</clipindex>
              <groupindex>1</groupindex>
            </link>
            <link>
              <linkclipref>clipitem-24</linkclipref>
              <mediatype>audio</mediatype>
              <trackindex>2</trackindex>
              <clipindex>1</clipindex>
              <groupindex>1</groupindex>
            </link>
            <link>
              <linkclipref>clipitem-25</linkclipref>
              <mediatype>audio</mediatype>
              <trackindex>3</trackindex>
              <clipindex>1</clipindex>
              <groupindex>1</groupindex>
            </link>
            <link>
              <linkclipref>clipitem-26</linkclipref>
              <mediatype>audio</mediatype>
              <trackindex>4</trackindex>
              <clipindex>1</clipindex>
              <groupindex>1</groupindex>
            </link>
            <link>
              <linkclipref>clipitem-27</linkclipref>
              <mediatype>audio</mediatype>
              <trackindex>5</trackindex>
              <clipindex>1</clipindex>
              <groupindex>1</groupindex>
            </link>
            <link>
              <linkclipref>clipitem-28</linkclipref>
              <mediatype>audio</mediatype>
              <trackindex>6</trackindex>
              <clipindex>1</clipindex>
              <groupindex>1</groupindex>
            </link>
          </clipitem>
          <clipitem id="clipitem-33" premiereChannelType="Stereo">
            <masterclipid>masterclip-1</masterclipid>
            <name>2023-04-01 14-56-52溪神带上钻局CC.mp4</name>
            <enabled>TRUE</enabled>
            <rate>
              <timebase>60</timebase>
              <ntsc>FALSE</ntsc>
            </rate>
            <start>174</start>
            <end>347</end>
            <in>15978</in>
            <out>16151</out>
            <file id="file-1"/>
            <sourcetrack>
              <mediatype>audio</mediatype>
              <trackindex>2</trackindex>
            </sourcetrack>
            <link>
              <linkclipref>clipitem-29</linkclipref>
              <mediatype>video</mediatype>
              <trackindex>1</trackindex>
              <clipindex>1</clipindex>
            </link>
            <link>
              <linkclipref>clipitem-30</linkclipref>
              <mediatype>audio</mediatype>
              <trackindex>1</trackindex>
              <clipindex>1</clipindex>
              <groupindex>1</groupindex>
            </link>
            <link>
              <linkclipref>clipitem-31</linkclipref>
              <mediatype>audio</mediatype>
              <trackindex>2</trackindex>
              <clipindex>1</clipindex>
              <groupindex>1</groupindex>
            </link>
            <link>
              <linkclipref>clipitem-32</linkclipref>
              <mediatype>audio</mediatype>
              <trackindex>3</trackindex>
              <clipindex>1</clipindex>
              <groupindex>1</groupindex>
            </link>
            <link>
              <linkclipref>clipitem-33</linkclipref>
              <mediatype>audio</mediatype>
              <trackindex>4</trackindex>
              <clipindex>1</clipindex>
              <groupindex>1</groupindex>
            </link>
            <link>
              <linkclipref>clipitem-34</linkclipref>
              <mediatype>audio</mediatype>
              <trackindex>5</trackindex>
              <clipindex>1</clipindex>
              <groupindex>1</groupindex>
            </link>
            <link>
              <linkclipref>clipitem-35</linkclipref>
              <mediatype>audio</mediatype>
              <trackindex>6</trackindex>
              <clipindex>1</clipindex>
              <groupindex>1</groupindex>
            </link>
          </clipitem>
          <clipitem id="clipitem-40" premiereChannelType="Stereo">
            <masterclipid>masterclip-1</masterclipid>
            <name>2023-04-01 14-56-52溪神带上钻局CC.mp4</name>
            <enabled>TRUE</enabled>
            <rate>
              <timebase>60</timebase>
              <ntsc>FALSE</ntsc>
            </rate>
            <start>347</start>
            <end>454</end>
            <in>16564</in>
            <out>16671</out>
            <file id="file-1"/>
            <sourcetrack>
              <mediatype>audio</mediatype>
              <trackindex>2</trackindex>
            </sourcetrack>
            <link>
              <linkclipref>clipitem-36</linkclipref>
              <mediatype>video</mediatype>
              <trackindex>1</trackindex>
              <clipindex>1</clipindex>
            </link>
            <link>
              <linkclipref>clipitem-37</linkclipref>
              <mediatype>audio</mediatype>
              <trackindex>1</trackindex>
              <clipindex>1</clipindex>
              <groupindex>1</groupindex>
            </link>
            <link>
              <linkclipref>clipitem-38</linkclipref>
              <mediatype>audio</mediatype>
              <trackindex>2</trackindex>
              <clipindex>1</clipindex>
              <groupindex>1</groupindex>
            </link>
            <link>
              <linkclipref>clipitem-39</linkclipref>
              <mediatype>audio</mediatype>
              <trackindex>3</trackindex>
              <clipindex>1</clipindex>
              <groupindex>1</groupindex>
            </link>
            <link>
              <linkclipref>clipitem-40</linkclipref>
              <mediatype>audio</mediatype>
              <trackindex>4</trackindex>
              <clipindex>1</clipindex>
              <groupindex>1</groupindex>
            </link>
            <link>
              <linkclipref>clipitem-41</linkclipref>
              <mediatype>audio</mediatype>
              <trackindex>5</trackindex>
              <clipindex>1</clipindex>
              <groupindex>1</groupindex>
            </link>
            <link>
              <linkclipref>clipitem-42</linkclipref>
              <mediatype>audio</mediatype>
              <trackindex>6</trackindex>
              <clipindex>1</clipindex>
              <groupindex>1</groupindex>
            </link>
          </clipitem>
          <clipitem id="clipitem-47" premiereChannelType="Stereo">
            <masterclipid>masterclip-1</masterclipid>
            <name>2023-04-01 14-56-52溪神带上钻局CC.mp4</name>
            <enabled>TRUE</enabled>
            <rate>
              <timebase>60</timebase>
              <ntsc>FALSE</ntsc>
            </rate>
            <start>454</start>
            <end>572</end>
            <in>17900</in>
            <out>18018</out>
            <file id="file-1"/>
            <sourcetrack>
              <mediatype>audio</mediatype>
              <trackindex>2</trackindex>
            </sourcetrack>
            <link>
              <linkclipref>clipitem-43</linkclipref>
              <mediatype>video</mediatype>
              <trackindex>1</trackindex>
              <clipindex>1</clipindex>
            </link>
            <link>
              <linkclipref>clipitem-44</linkclipref>
              <mediatype>audio</mediatype>
              <trackindex>1</trackindex>
              <clipindex>1</clipindex>
              <groupindex>1</groupindex>
            </link>
            <link>
              <linkclipref>clipitem-45</linkclipref>
              <mediatype>audio</mediatype>
              <trackindex>2</trackindex>
              <clipindex>1</clipindex>
              <groupindex>1</groupindex>
            </link>
            <link>
              <linkclipref>clipitem-46</linkclipref>
              <mediatype>audio</mediatype>
              <trackindex>3</trackindex>
              <clipindex>1</clipindex>
              <groupindex>1</groupindex>
            </link>
            <link>
              <linkclipref>clipitem-47</linkclipref>
              <mediatype>audio</mediatype>
              <trackindex>4</trackindex>
              <clipindex>1</clipindex>
              <groupindex>1</groupindex>
            </link>
            <link>
              <linkclipref>clipitem-48</linkclipref>
              <mediatype>audio</mediatype>
              <trackindex>5</trackindex>
              <clipindex>1</clipindex>
              <groupindex>1</groupindex>
            </link>
            <link>
              <linkclipref>clipitem-49</linkclipref>
              <mediatype>audio</mediatype>
              <trackindex>6</trackindex>
              <clipindex>1</clipindex>
              <groupindex>1</groupindex>
            </link>
          </clipitem>
          <clipitem id="clipitem-54" premiereChannelType="Stereo">
            <masterclipid>masterclip-1</masterclipid>
            <name>2023-04-01 14-56-52溪神带上钻局CC.mp4</name>
            <enabled>TRUE</enabled>
            <rate>
              <timebase>60</timebase>
              <ntsc>FALSE</ntsc>
            </rate>
            <start>572</start>
            <end>727</end>
            <in>20147</in>
            <out>20302</out>
            <file id="file-1"/>
            <sourcetrack>
              <mediatype>audio</mediatype>
              <trackindex>2</trackindex>
            </sourcetrack>
            <link>
              <linkclipref>clipitem-50</linkclipref>
              <mediatype>video</mediatype>
              <trackindex>1</trackindex>
              <clipindex>1</clipindex>
            </link>
            <link>
              <linkclipref>clipitem-51</linkclipref>
              <mediatype>audio</mediatype>
              <trackindex>1</trackindex>
              <clipindex>1</clipindex>
              <groupindex>1</groupindex>
            </link>
            <link>
              <linkclipref>clipitem-52</linkclipref>
              <mediatype>audio</mediatype>
              <trackindex>2</trackindex>
              <clipindex>1</clipindex>
              <groupindex>1</groupindex>
            </link>
            <link>
              <linkclipref>clipitem-53</linkclipref>
              <mediatype>audio</mediatype>
              <trackindex>3</trackindex>
              <clipindex>1</clipindex>
              <groupindex>1</groupindex>
            </link>
            <link>
              <linkclipref>clipitem-54</linkclipref>
              <mediatype>audio</mediatype>
              <trackindex>4</trackindex>
              <clipindex>1</clipindex>
              <groupindex>1</groupindex>
            </link>
            <link>
              <linkclipref>clipitem-55</linkclipref>
              <mediatype>audio</mediatype>
              <trackindex>5</trackindex>
              <clipindex>1</clipindex>
              <groupindex>1</groupindex>
            </link>
            <link>
              <linkclipref>clipitem-56</linkclipref>
              <mediatype>audio</mediatype>
              <trackindex>6</trackindex>
              <clipindex>1</clipindex>
              <groupindex>1</groupindex>
            </link>
          </clipitem>
          <clipitem id="clipitem-61" premiereChannelType="Stereo">
            <masterclipid>masterclip-1</masterclipid>
            <name>2023-04-01 14-56-52溪神带上钻局CC.mp4</name>
            <enabled>TRUE</enabled>
            <rate>
              <timebase>60</timebase>
              <ntsc>FALSE</ntsc>
            </rate>
            <start>727</start>
            <end>875</end>
            <in>21756</in>
            <out>21904</out>
            <file id="file-1"/>
            <sourcetrack>
              <mediatype>audio</mediatype>
              <trackindex>2</trackindex>
            </sourcetrack>
            <link>
              <linkclipref>clipitem-57</linkclipref>
              <mediatype>video</mediatype>
              <trackindex>1</trackindex>
              <clipindex>1</clipindex>
            </link>
            <link>
              <linkclipref>clipitem-58</linkclipref>
              <mediatype>audio</mediatype>
              <trackindex>1</trackindex>
              <clipindex>1</clipindex>
              <groupindex>1</groupindex>
            </link>
            <link>
              <linkclipref>clipitem-59</linkclipref>
              <mediatype>audio</mediatype>
              <trackindex>2</trackindex>
              <clipindex>1</clipindex>
              <groupindex>1</groupindex>
            </link>
            <link>
              <linkclipref>clipitem-60</linkclipref>
              <mediatype>audio</mediatype>
              <trackindex>3</trackindex>
              <clipindex>1</clipindex>
              <groupindex>1</groupindex>
            </link>
            <link>
              <linkclipref>clipitem-61</linkclipref>
              <mediatype>audio</mediatype>
              <trackindex>4</trackindex>
              <clipindex>1</clipindex>
              <groupindex>1</groupindex>
            </link>
            <link>
              <linkclipref>clipitem-62</linkclipref>
              <mediatype>audio</mediatype>
              <trackindex>5</trackindex>
              <clipindex>1</clipindex>
              <groupindex>1</groupindex>
            </link>
            <link>
              <linkclipref>clipitem-63</linkclipref>
              <mediatype>audio</mediatype>
              <trackindex>6</trackindex>
              <clipindex>1</clipindex>
              <groupindex>1</groupindex>
            </link>
          </clipitem>
          <clipitem id="clipitem-68" premiereChannelType="Stereo">
            <masterclipid>masterclip-1</masterclipid>
            <name>2023-04-01 14-56-52溪神带上钻局CC.mp4</name>
            <enabled>TRUE</enabled>
            <rate>
              <timebase>60</timebase>
              <ntsc>FALSE</ntsc>
            </rate>
            <start>875</start>
            <end>1011</end>
            <in>22231</in>
            <out>22367</out>
            <file id="file-1"/>
            <sourcetrack>
              <mediatype>audio</mediatype>
              <trackindex>2</trackindex>
            </sourcetrack>
            <link>
              <linkclipref>clipitem-64</linkclipref>
              <mediatype>video</mediatype>
              <trackindex>1</trackindex>
              <clipindex>1</clipindex>
            </link>
            <link>
              <linkclipref>clipitem-65</linkclipref>
              <mediatype>audio</mediatype>
              <trackindex>1</trackindex>
              <clipindex>1</clipindex>
              <groupindex>1</groupindex>
            </link>
            <link>
              <linkclipref>clipitem-66</linkclipref>
              <mediatype>audio</mediatype>
              <trackindex>2</trackindex>
              <clipindex>1</clipindex>
              <groupindex>1</groupindex>
            </link>
            <link>
              <linkclipref>clipitem-67</linkclipref>
              <mediatype>audio</mediatype>
              <trackindex>3</trackindex>
              <clipindex>1</clipindex>
              <groupindex>1</groupindex>
            </link>
            <link>
              <linkclipref>clipitem-68</linkclipref>
              <mediatype>audio</mediatype>
              <trackindex>4</trackindex>
              <clipindex>1</clipindex>
              <groupindex>1</groupindex>
            </link>
            <link>
              <linkclipref>clipitem-69</linkclipref>
              <mediatype>audio</mediatype>
              <trackindex>5</trackindex>
              <clipindex>1</clipindex>
              <groupindex>1</groupindex>
            </link>
            <link>
              <linkclipref>clipitem-70</linkclipref>
              <mediatype>audio</mediatype>
              <trackindex>6</trackindex>
              <clipindex>1</clipindex>
              <groupindex>1</groupindex>
            </link>
          </clipitem>
          <clipitem id="clipitem-75" premiereChannelType="Stereo">
            <masterclipid>masterclip-1</masterclipid>
            <name>2023-04-01 14-56-52溪神带上钻局CC.mp4</name>
            <enabled>TRUE</enabled>
            <rate>
              <timebase>60</timebase>
              <ntsc>FALSE</ntsc>
            </rate>
            <start>1011</start>
            <end>1086</end>
            <in>22676</in>
            <out>22751</out>
            <file id="file-1"/>
            <sourcetrack>
              <mediatype>audio</mediatype>
              <trackindex>2</trackindex>
            </sourcetrack>
            <link>
              <linkclipref>clipitem-71</linkclipref>
              <mediatype>video</mediatype>
              <trackindex>1</trackindex>
              <clipindex>1</clipindex>
            </link>
            <link>
              <linkclipref>clipitem-72</linkclipref>
              <mediatype>audio</mediatype>
              <trackindex>1</trackindex>
              <clipindex>1</clipindex>
              <groupindex>1</groupindex>
            </link>
            <link>
              <linkclipref>clipitem-73</linkclipref>
              <mediatype>audio</mediatype>
              <trackindex>2</trackindex>
              <clipindex>1</clipindex>
              <groupindex>1</groupindex>
            </link>
            <link>
              <linkclipref>clipitem-74</linkclipref>
              <mediatype>audio</mediatype>
              <trackindex>3</trackindex>
              <clipindex>1</clipindex>
              <groupindex>1</groupindex>
            </link>
            <link>
              <linkclipref>clipitem-75</linkclipref>
              <mediatype>audio</mediatype>
              <trackindex>4</trackindex>
              <clipindex>1</clipindex>
              <groupindex>1</groupindex>
            </link>
            <link>
              <linkclipref>clipitem-76</linkclipref>
              <mediatype>audio</mediatype>
              <trackindex>5</trackindex>
              <clipindex>1</clipindex>
              <groupindex>1</groupindex>
            </link>
            <link>
              <linkclipref>clipitem-77</linkclipref>
              <mediatype>audio</mediatype>
              <trackindex>6</trackindex>
              <clipindex>1</clipindex>
              <groupindex>1</groupindex>
            </link>
          </clipitem>
          <clipitem id="clipitem-82" premiereChannelType="Stereo">
            <masterclipid>masterclip-1</masterclipid>
            <name>2023-04-01 14-56-52溪神带上钻局CC.mp4</name>
            <enabled>TRUE</enabled>
            <rate>
              <timebase>60</timebase>
              <ntsc>FALSE</ntsc>
            </rate>
            <start>1086</start>
            <end>1222</end>
            <in>23095</in>
            <out>23231</out>
            <file id="file-1"/>
            <sourcetrack>
              <mediatype>audio</mediatype>
              <trackindex>2</trackindex>
            </sourcetrack>
            <link>
              <linkclipref>clipitem-78</linkclipref>
              <mediatype>video</mediatype>
              <trackindex>1</trackindex>
              <clipindex>1</clipindex>
            </link>
            <link>
              <linkclipref>clipitem-79</linkclipref>
              <mediatype>audio</mediatype>
              <trackindex>1</trackindex>
              <clipindex>1</clipindex>
              <groupindex>1</groupindex>
            </link>
            <link>
              <linkclipref>clipitem-80</linkclipref>
              <mediatype>audio</mediatype>
              <trackindex>2</trackindex>
              <clipindex>1</clipindex>
              <groupindex>1</groupindex>
            </link>
            <link>
              <linkclipref>clipitem-81</linkclipref>
              <mediatype>audio</mediatype>
              <trackindex>3</trackindex>
              <clipindex>1</clipindex>
              <groupindex>1</groupindex>
            </link>
            <link>
              <linkclipref>clipitem-82</linkclipref>
              <mediatype>audio</mediatype>
              <trackindex>4</trackindex>
              <clipindex>1</clipindex>
              <groupindex>1</groupindex>
            </link>
            <link>
              <linkclipref>clipitem-83</linkclipref>
              <mediatype>audio</mediatype>
              <trackindex>5</trackindex>
              <clipindex>1</clipindex>
              <groupindex>1</groupindex>
            </link>
            <link>
              <linkclipref>clipitem-84</linkclipref>
              <mediatype>audio</mediatype>
              <trackindex>6</trackindex>
              <clipindex>1</clipindex>
              <groupindex>1</groupindex>
            </link>
          </clipitem>
          <clipitem id="clipitem-89" premiereChannelType="Stereo">
            <masterclipid>masterclip-1</masterclipid>
            <name>2023-04-01 14-56-52溪神带上钻局CC.mp4</name>
            <enabled>TRUE</enabled>
            <rate>
              <timebase>60</timebase>
              <ntsc>FALSE</ntsc>
            </rate>
            <start>1222</start>
            <end>1377</end>
            <in>23363</in>
            <out>23518</out>
            <file id="file-1"/>
            <sourcetrack>
              <mediatype>audio</mediatype>
              <trackindex>2</trackindex>
            </sourcetrack>
            <link>
              <linkclipref>clipitem-85</linkclipref>
              <mediatype>video</mediatype>
              <trackindex>1</trackindex>
              <clipindex>1</clipindex>
            </link>
            <link>
              <linkclipref>clipitem-86</linkclipref>
              <mediatype>audio</mediatype>
              <trackindex>1</trackindex>
              <clipindex>1</clipindex>
              <groupindex>1</groupindex>
            </link>
            <link>
              <linkclipref>clipitem-87</linkclipref>
              <mediatype>audio</mediatype>
              <trackindex>2</trackindex>
              <clipindex>1</clipindex>
              <groupindex>1</groupindex>
            </link>
            <link>
              <linkclipref>clipitem-88</linkclipref>
              <mediatype>audio</mediatype>
              <trackindex>3</trackindex>
              <clipindex>1</clipindex>
              <groupindex>1</groupindex>
            </link>
            <link>
              <linkclipref>clipitem-89</linkclipref>
              <mediatype>audio</mediatype>
              <trackindex>4</trackindex>
              <clipindex>1</clipindex>
              <groupindex>1</groupindex>
            </link>
            <link>
              <linkclipref>clipitem-90</linkclipref>
              <mediatype>audio</mediatype>
              <trackindex>5</trackindex>
              <clipindex>1</clipindex>
              <groupindex>1</groupindex>
            </link>
            <link>
              <linkclipref>clipitem-91</linkclipref>
              <mediatype>audio</mediatype>
              <trackindex>6</trackindex>
              <clipindex>1</clipindex>
              <groupindex>1</groupindex>
            </link>
          </clipitem>
          <clipitem id="clipitem-96" premiereChannelType="Stereo">
            <masterclipid>masterclip-1</masterclipid>
            <name>2023-04-01 14-56-52溪神带上钻局CC.mp4</name>
            <enabled>TRUE</enabled>
            <rate>
              <timebase>60</timebase>
              <ntsc>FALSE</ntsc>
            </rate>
            <start>1377</start>
            <end>1585</end>
            <in>23972</in>
            <out>24180</out>
            <file id="file-1"/>
            <sourcetrack>
              <mediatype>audio</mediatype>
              <trackindex>2</trackindex>
            </sourcetrack>
            <link>
              <linkclipref>clipitem-92</linkclipref>
              <mediatype>video</mediatype>
              <trackindex>1</trackindex>
              <clipindex>1</clipindex>
            </link>
            <link>
              <linkclipref>clipitem-93</linkclipref>
              <mediatype>audio</mediatype>
              <trackindex>1</trackindex>
              <clipindex>1</clipindex>
              <groupindex>1</groupindex>
            </link>
            <link>
              <linkclipref>clipitem-94</linkclipref>
              <mediatype>audio</mediatype>
              <trackindex>2</trackindex>
              <clipindex>1</clipindex>
              <groupindex>1</groupindex>
            </link>
            <link>
              <linkclipref>clipitem-95</linkclipref>
              <mediatype>audio</mediatype>
              <trackindex>3</trackindex>
              <clipindex>1</clipindex>
              <groupindex>1</groupindex>
            </link>
            <link>
              <linkclipref>clipitem-96</linkclipref>
              <mediatype>audio</mediatype>
              <trackindex>4</trackindex>
              <clipindex>1</clipindex>
              <groupindex>1</groupindex>
            </link>
            <link>
              <linkclipref>clipitem-97</linkclipref>
              <mediatype>audio</mediatype>
              <trackindex>5</trackindex>
              <clipindex>1</clipindex>
              <groupindex>1</groupindex>
            </link>
            <link>
              <linkclipref>clipitem-98</linkclipref>
              <mediatype>audio</mediatype>
              <trackindex>6</trackindex>
              <clipindex>1</clipindex>
              <groupindex>1</groupindex>
            </link>
          </clipitem>
          <clipitem id="clipitem-103" premiereChannelType="Stereo">
            <masterclipid>masterclip-1</masterclipid>
            <name>2023-04-01 14-56-52溪神带上钻局CC.mp4</name>
            <enabled>TRUE</enabled>
            <rate>
              <timebase>60</timebase>
              <ntsc>FALSE</ntsc>
            </rate>
            <start>1585</start>
            <end>1746</end>
            <in>27845</in>
            <out>28006</out>
            <file id="file-1"/>
            <sourcetrack>
              <mediatype>audio</mediatype>
              <trackindex>2</trackindex>
            </sourcetrack>
            <link>
              <linkclipref>clipitem-99</linkclipref>
              <mediatype>video</mediatype>
              <trackindex>1</trackindex>
              <clipindex>1</clipindex>
            </link>
            <link>
              <linkclipref>clipitem-100</linkclipref>
              <mediatype>audio</mediatype>
              <trackindex>1</trackindex>
              <clipindex>1</clipindex>
              <groupindex>1</groupindex>
            </link>
            <link>
              <linkclipref>clipitem-101</linkclipref>
              <mediatype>audio</mediatype>
              <trackindex>2</trackindex>
              <clipindex>1</clipindex>
              <groupindex>1</groupindex>
            </link>
            <link>
              <linkclipref>clipitem-102</linkclipref>
              <mediatype>audio</mediatype>
              <trackindex>3</trackindex>
              <clipindex>1</clipindex>
              <groupindex>1</groupindex>
            </link>
            <link>
              <linkclipref>clipitem-103</linkclipref>
              <mediatype>audio</mediatype>
              <trackindex>4</trackindex>
              <clipindex>1</clipindex>
              <groupindex>1</groupindex>
            </link>
            <link>
              <linkclipref>clipitem-104</linkclipref>
              <mediatype>audio</mediatype>
              <trackindex>5</trackindex>
              <clipindex>1</clipindex>
              <groupindex>1</groupindex>
            </link>
            <link>
              <linkclipref>clipitem-105</linkclipref>
              <mediatype>audio</mediatype>
              <trackindex>6</trackindex>
              <clipindex>1</clipindex>
              <groupindex>1</groupindex>
            </link>
          </clipitem>
          <clipitem id="clipitem-110" premiereChannelType="Stereo">
            <masterclipid>masterclip-1</masterclipid>
            <name>2023-04-01 14-56-52溪神带上钻局CC.mp4</name>
            <enabled>TRUE</enabled>
            <rate>
              <timebase>60</timebase>
              <ntsc>FALSE</ntsc>
            </rate>
            <start>1746</start>
            <end>1825</end>
            <in>28363</in>
            <out>28442</out>
            <file id="file-1"/>
            <sourcetrack>
              <mediatype>audio</mediatype>
              <trackindex>2</trackindex>
            </sourcetrack>
            <link>
              <linkclipref>clipitem-106</linkclipref>
              <mediatype>video</mediatype>
              <trackindex>1</trackindex>
              <clipindex>1</clipindex>
            </link>
            <link>
              <linkclipref>clipitem-107</linkclipref>
              <mediatype>audio</mediatype>
              <trackindex>1</trackindex>
              <clipindex>1</clipindex>
              <groupindex>1</groupindex>
            </link>
            <link>
              <linkclipref>clipitem-108</linkclipref>
              <mediatype>audio</mediatype>
              <trackindex>2</trackindex>
              <clipindex>1</clipindex>
              <groupindex>1</groupindex>
            </link>
            <link>
              <linkclipref>clipitem-109</linkclipref>
              <mediatype>audio</mediatype>
              <trackindex>3</trackindex>
              <clipindex>1</clipindex>
              <groupindex>1</groupindex>
            </link>
            <link>
              <linkclipref>clipitem-110</linkclipref>
              <mediatype>audio</mediatype>
              <trackindex>4</trackindex>
              <clipindex>1</clipindex>
              <groupindex>1</groupindex>
            </link>
            <link>
              <linkclipref>clipitem-111</linkclipref>
              <mediatype>audio</mediatype>
              <trackindex>5</trackindex>
              <clipindex>1</clipindex>
              <groupindex>1</groupindex>
            </link>
            <link>
              <linkclipref>clipitem-112</linkclipref>
              <mediatype>audio</mediatype>
              <trackindex>6</trackindex>
              <clipindex>1</clipindex>
              <groupindex>1</groupindex>
            </link>
          </clipitem>
          <clipitem id="clipitem-117" premiereChannelType="Stereo">
            <masterclipid>masterclip-1</masterclipid>
            <name>2023-04-01 14-56-52溪神带上钻局CC.mp4</name>
            <enabled>TRUE</enabled>
            <rate>
              <timebase>60</timebase>
              <ntsc>FALSE</ntsc>
            </rate>
            <start>1825</start>
            <end>2005</end>
            <in>29080</in>
            <out>29260</out>
            <file id="file-1"/>
            <sourcetrack>
              <mediatype>audio</mediatype>
              <trackindex>2</trackindex>
            </sourcetrack>
            <link>
              <linkclipref>clipitem-113</linkclipref>
              <mediatype>video</mediatype>
              <trackindex>1</trackindex>
              <clipindex>1</clipindex>
            </link>
            <link>
              <linkclipref>clipitem-114</linkclipref>
              <mediatype>audio</mediatype>
              <trackindex>1</trackindex>
              <clipindex>1</clipindex>
              <groupindex>1</groupindex>
            </link>
            <link>
              <linkclipref>clipitem-115</linkclipref>
              <mediatype>audio</mediatype>
              <trackindex>2</trackindex>
              <clipindex>1</clipindex>
              <groupindex>1</groupindex>
            </link>
            <link>
              <linkclipref>clipitem-116</linkclipref>
              <mediatype>audio</mediatype>
              <trackindex>3</trackindex>
              <clipindex>1</clipindex>
              <groupindex>1</groupindex>
            </link>
            <link>
              <linkclipref>clipitem-117</linkclipref>
              <mediatype>audio</mediatype>
              <trackindex>4</trackindex>
              <clipindex>1</clipindex>
              <groupindex>1</groupindex>
            </link>
            <link>
              <linkclipref>clipitem-118</linkclipref>
              <mediatype>audio</mediatype>
              <trackindex>5</trackindex>
              <clipindex>1</clipindex>
              <groupindex>1</groupindex>
            </link>
            <link>
              <linkclipref>clipitem-119</linkclipref>
              <mediatype>audio</mediatype>
              <trackindex>6</trackindex>
              <clipindex>1</clipindex>
              <groupindex>1</groupindex>
            </link>
          </clipitem>
          <clipitem id="clipitem-124" premiereChannelType="Stereo">
            <masterclipid>masterclip-1</masterclipid>
            <name>2023-04-01 14-56-52溪神带上钻局CC.mp4</name>
            <enabled>TRUE</enabled>
            <rate>
              <timebase>60</timebase>
              <ntsc>FALSE</ntsc>
            </rate>
            <start>2005</start>
            <end>2023</end>
            <in>29971</in>
            <out>29989</out>
            <file id="file-1"/>
            <sourcetrack>
              <mediatype>audio</mediatype>
              <trackindex>2</trackindex>
            </sourcetrack>
            <link>
              <linkclipref>clipitem-120</linkclipref>
              <mediatype>video</mediatype>
              <trackindex>1</trackindex>
              <clipindex>1</clipindex>
            </link>
            <link>
              <linkclipref>clipitem-121</linkclipref>
              <mediatype>audio</mediatype>
              <trackindex>1</trackindex>
              <clipindex>1</clipindex>
              <groupindex>1</groupindex>
            </link>
            <link>
              <linkclipref>clipitem-122</linkclipref>
              <mediatype>audio</mediatype>
              <trackindex>2</trackindex>
              <clipindex>1</clipindex>
              <groupindex>1</groupindex>
            </link>
            <link>
              <linkclipref>clipitem-123</linkclipref>
              <mediatype>audio</mediatype>
              <trackindex>3</trackindex>
              <clipindex>1</clipindex>
              <groupindex>1</groupindex>
            </link>
            <link>
              <linkclipref>clipitem-124</linkclipref>
              <mediatype>audio</mediatype>
              <trackindex>4</trackindex>
              <clipindex>1</clipindex>
              <groupindex>1</groupindex>
            </link>
            <link>
              <linkclipref>clipitem-125</linkclipref>
              <mediatype>audio</mediatype>
              <trackindex>5</trackindex>
              <clipindex>1</clipindex>
              <groupindex>1</groupindex>
            </link>
            <link>
              <linkclipref>clipitem-126</linkclipref>
              <mediatype>audio</mediatype>
              <trackindex>6</trackindex>
              <clipindex>1</clipindex>
              <groupindex>1</groupindex>
            </link>
          </clipitem>
          <clipitem id="clipitem-131" premiereChannelType="Stereo">
            <masterclipid>masterclip-1</masterclipid>
            <name>2023-04-01 14-56-52溪神带上钻局CC.mp4</name>
            <enabled>TRUE</enabled>
            <rate>
              <timebase>60</timebase>
              <ntsc>FALSE</ntsc>
            </rate>
            <start>2023</start>
            <end>2100</end>
            <in>30064</in>
            <out>30141</out>
            <file id="file-1"/>
            <sourcetrack>
              <mediatype>audio</mediatype>
              <trackindex>2</trackindex>
            </sourcetrack>
            <link>
              <linkclipref>clipitem-127</linkclipref>
              <mediatype>video</mediatype>
              <trackindex>1</trackindex>
              <clipindex>1</clipindex>
            </link>
            <link>
              <linkclipref>clipitem-128</linkclipref>
              <mediatype>audio</mediatype>
              <trackindex>1</trackindex>
              <clipindex>1</clipindex>
              <groupindex>1</groupindex>
            </link>
            <link>
              <linkclipref>clipitem-129</linkclipref>
              <mediatype>audio</mediatype>
              <trackindex>2</trackindex>
              <clipindex>1</clipindex>
              <groupindex>1</groupindex>
            </link>
            <link>
              <linkclipref>clipitem-130</linkclipref>
              <mediatype>audio</mediatype>
              <trackindex>3</trackindex>
              <clipindex>1</clipindex>
              <groupindex>1</groupindex>
            </link>
            <link>
              <linkclipref>clipitem-131</linkclipref>
              <mediatype>audio</mediatype>
              <trackindex>4</trackindex>
              <clipindex>1</clipindex>
              <groupindex>1</groupindex>
            </link>
            <link>
              <linkclipref>clipitem-132</linkclipref>
              <mediatype>audio</mediatype>
              <trackindex>5</trackindex>
              <clipindex>1</clipindex>
              <groupindex>1</groupindex>
            </link>
            <link>
              <linkclipref>clipitem-133</linkclipref>
              <mediatype>audio</mediatype>
              <trackindex>6</trackindex>
              <clipindex>1</clipindex>
              <groupindex>1</groupindex>
            </link>
          </clipitem>
          <clipitem id="clipitem-138" premiereChannelType="Stereo">
            <masterclipid>masterclip-1</masterclipid>
            <name>2023-04-01 14-56-52溪神带上钻局CC.mp4</name>
            <enabled>TRUE</enabled>
            <rate>
              <timebase>60</timebase>
              <ntsc>FALSE</ntsc>
            </rate>
            <start>2100</start>
            <end>2267</end>
            <in>30347</in>
            <out>30514</out>
            <file id="file-1"/>
            <sourcetrack>
              <mediatype>audio</mediatype>
              <trackindex>2</trackindex>
            </sourcetrack>
            <link>
              <linkclipref>clipitem-134</linkclipref>
              <mediatype>video</mediatype>
              <trackindex>1</trackindex>
              <clipindex>1</clipindex>
            </link>
            <link>
              <linkclipref>clipitem-135</linkclipref>
              <mediatype>audio</mediatype>
              <trackindex>1</trackindex>
              <clipindex>1</clipindex>
              <groupindex>1</groupindex>
            </link>
            <link>
              <linkclipref>clipitem-136</linkclipref>
              <mediatype>audio</mediatype>
              <trackindex>2</trackindex>
              <clipindex>1</clipindex>
              <groupindex>1</groupindex>
            </link>
            <link>
              <linkclipref>clipitem-137</linkclipref>
              <mediatype>audio</mediatype>
              <trackindex>3</trackindex>
              <clipindex>1</clipindex>
              <groupindex>1</groupindex>
            </link>
            <link>
              <linkclipref>clipitem-138</linkclipref>
              <mediatype>audio</mediatype>
              <trackindex>4</trackindex>
              <clipindex>1</clipindex>
              <groupindex>1</groupindex>
            </link>
            <link>
              <linkclipref>clipitem-139</linkclipref>
              <mediatype>audio</mediatype>
              <trackindex>5</trackindex>
              <clipindex>1</clipindex>
              <groupindex>1</groupindex>
            </link>
            <link>
              <linkclipref>clipitem-140</linkclipref>
              <mediatype>audio</mediatype>
              <trackindex>6</trackindex>
              <clipindex>1</clipindex>
              <groupindex>1</groupindex>
            </link>
          </clipitem>
          <clipitem id="clipitem-145" premiereChannelType="Stereo">
            <masterclipid>masterclip-1</masterclipid>
            <name>2023-04-01 14-56-52溪神带上钻局CC.mp4</name>
            <enabled>TRUE</enabled>
            <rate>
              <timebase>60</timebase>
              <ntsc>FALSE</ntsc>
            </rate>
            <start>2267</start>
            <end>2391</end>
            <in>41935</in>
            <out>42059</out>
            <file id="file-1"/>
            <sourcetrack>
              <mediatype>audio</mediatype>
              <trackindex>2</trackindex>
            </sourcetrack>
            <link>
              <linkclipref>clipitem-141</linkclipref>
              <mediatype>video</mediatype>
              <trackindex>1</trackindex>
              <clipindex>1</clipindex>
            </link>
            <link>
              <linkclipref>clipitem-142</linkclipref>
              <mediatype>audio</mediatype>
              <trackindex>1</trackindex>
              <clipindex>1</clipindex>
              <groupindex>1</groupindex>
            </link>
            <link>
              <linkclipref>clipitem-143</linkclipref>
              <mediatype>audio</mediatype>
              <trackindex>2</trackindex>
              <clipindex>1</clipindex>
              <groupindex>1</groupindex>
            </link>
            <link>
              <linkclipref>clipitem-144</linkclipref>
              <mediatype>audio</mediatype>
              <trackindex>3</trackindex>
              <clipindex>1</clipindex>
              <groupindex>1</groupindex>
            </link>
            <link>
              <linkclipref>clipitem-145</linkclipref>
              <mediatype>audio</mediatype>
              <trackindex>4</trackindex>
              <clipindex>1</clipindex>
              <groupindex>1</groupindex>
            </link>
            <link>
              <linkclipref>clipitem-146</linkclipref>
              <mediatype>audio</mediatype>
              <trackindex>5</trackindex>
              <clipindex>1</clipindex>
              <groupindex>1</groupindex>
            </link>
            <link>
              <linkclipref>clipitem-147</linkclipref>
              <mediatype>audio</mediatype>
              <trackindex>6</trackindex>
              <clipindex>1</clipindex>
              <groupindex>1</groupindex>
            </link>
          </clipitem>
          <clipitem id="clipitem-152" premiereChannelType="Stereo">
            <masterclipid>masterclip-1</masterclipid>
            <name>2023-04-01 14-56-52溪神带上钻局CC.mp4</name>
            <enabled>TRUE</enabled>
            <rate>
              <timebase>60</timebase>
              <ntsc>FALSE</ntsc>
            </rate>
            <start>2391</start>
            <end>2618</end>
            <in>46337</in>
            <out>46564</out>
            <file id="file-1"/>
            <sourcetrack>
              <mediatype>audio</mediatype>
              <trackindex>2</trackindex>
            </sourcetrack>
            <link>
              <linkclipref>clipitem-148</linkclipref>
              <mediatype>video</mediatype>
              <trackindex>1</trackindex>
              <clipindex>1</clipindex>
            </link>
            <link>
              <linkclipref>clipitem-149</linkclipref>
              <mediatype>audio</mediatype>
              <trackindex>1</trackindex>
              <clipindex>1</clipindex>
              <groupindex>1</groupindex>
            </link>
            <link>
              <linkclipref>clipitem-150</linkclipref>
              <mediatype>audio</mediatype>
              <trackindex>2</trackindex>
              <clipindex>1</clipindex>
              <groupindex>1</groupindex>
            </link>
            <link>
              <linkclipref>clipitem-151</linkclipref>
              <mediatype>audio</mediatype>
              <trackindex>3</trackindex>
              <clipindex>1</clipindex>
              <groupindex>1</groupindex>
            </link>
            <link>
              <linkclipref>clipitem-152</linkclipref>
              <mediatype>audio</mediatype>
              <trackindex>4</trackindex>
              <clipindex>1</clipindex>
              <groupindex>1</groupindex>
            </link>
            <link>
              <linkclipref>clipitem-153</linkclipref>
              <mediatype>audio</mediatype>
              <trackindex>5</trackindex>
              <clipindex>1</clipindex>
              <groupindex>1</groupindex>
            </link>
            <link>
              <linkclipref>clipitem-154</linkclipref>
              <mediatype>audio</mediatype>
              <trackindex>6</trackindex>
              <clipindex>1</clipindex>
              <groupindex>1</groupindex>
            </link>
          </clipitem>
          <clipitem id="clipitem-159" premiereChannelType="Stereo">
            <masterclipid>masterclip-1</masterclipid>
            <name>2023-04-01 14-56-52溪神带上钻局CC.mp4</name>
            <enabled>TRUE</enabled>
            <rate>
              <timebase>60</timebase>
              <ntsc>FALSE</ntsc>
            </rate>
            <start>2618</start>
            <end>2894</end>
            <in>47608</in>
            <out>47884</out>
            <file id="file-1"/>
            <sourcetrack>
              <mediatype>audio</mediatype>
              <trackindex>2</trackindex>
            </sourcetrack>
            <link>
              <linkclipref>clipitem-155</linkclipref>
              <mediatype>video</mediatype>
              <trackindex>1</trackindex>
              <clipindex>1</clipindex>
            </link>
            <link>
              <linkclipref>clipitem-156</linkclipref>
              <mediatype>audio</mediatype>
              <trackindex>1</trackindex>
              <clipindex>1</clipindex>
              <groupindex>1</groupindex>
            </link>
            <link>
              <linkclipref>clipitem-157</linkclipref>
              <mediatype>audio</mediatype>
              <trackindex>2</trackindex>
              <clipindex>1</clipindex>
              <groupindex>1</groupindex>
            </link>
            <link>
              <linkclipref>clipitem-158</linkclipref>
              <mediatype>audio</mediatype>
              <trackindex>3</trackindex>
              <clipindex>1</clipindex>
              <groupindex>1</groupindex>
            </link>
            <link>
              <linkclipref>clipitem-159</linkclipref>
              <mediatype>audio</mediatype>
              <trackindex>4</trackindex>
              <clipindex>1</clipindex>
              <groupindex>1</groupindex>
            </link>
            <link>
              <linkclipref>clipitem-160</linkclipref>
              <mediatype>audio</mediatype>
              <trackindex>5</trackindex>
              <clipindex>1</clipindex>
              <groupindex>1</groupindex>
            </link>
            <link>
              <linkclipref>clipitem-161</linkclipref>
              <mediatype>audio</mediatype>
              <trackindex>6</trackindex>
              <clipindex>1</clipindex>
              <groupindex>1</groupindex>
            </link>
          </clipitem>
          <clipitem id="clipitem-166" premiereChannelType="Stereo">
            <masterclipid>masterclip-1</masterclipid>
            <name>2023-04-01 14-56-52溪神带上钻局CC.mp4</name>
            <enabled>TRUE</enabled>
            <rate>
              <timebase>60</timebase>
              <ntsc>FALSE</ntsc>
            </rate>
            <start>2894</start>
            <end>3196</end>
            <in>47995</in>
            <out>48297</out>
            <file id="file-1"/>
            <sourcetrack>
              <mediatype>audio</mediatype>
              <trackindex>2</trackindex>
            </sourcetrack>
            <link>
              <linkclipref>clipitem-162</linkclipref>
              <mediatype>video</mediatype>
              <trackindex>1</trackindex>
              <clipindex>1</clipindex>
            </link>
            <link>
              <linkclipref>clipitem-163</linkclipref>
              <mediatype>audio</mediatype>
              <trackindex>1</trackindex>
              <clipindex>1</clipindex>
              <groupindex>1</groupindex>
            </link>
            <link>
              <linkclipref>clipitem-164</linkclipref>
              <mediatype>audio</mediatype>
              <trackindex>2</trackindex>
              <clipindex>1</clipindex>
              <groupindex>1</groupindex>
            </link>
            <link>
              <linkclipref>clipitem-165</linkclipref>
              <mediatype>audio</mediatype>
              <trackindex>3</trackindex>
              <clipindex>1</clipindex>
              <groupindex>1</groupindex>
            </link>
            <link>
              <linkclipref>clipitem-166</linkclipref>
              <mediatype>audio</mediatype>
              <trackindex>4</trackindex>
              <clipindex>1</clipindex>
              <groupindex>1</groupindex>
            </link>
            <link>
              <linkclipref>clipitem-167</linkclipref>
              <mediatype>audio</mediatype>
              <trackindex>5</trackindex>
              <clipindex>1</clipindex>
              <groupindex>1</groupindex>
            </link>
            <link>
              <linkclipref>clipitem-168</linkclipref>
              <mediatype>audio</mediatype>
              <trackindex>6</trackindex>
              <clipindex>1</clipindex>
              <groupindex>1</groupindex>
            </link>
          </clipitem>
          <clipitem id="clipitem-173" premiereChannelType="Stereo">
            <masterclipid>masterclip-1</masterclipid>
            <name>2023-04-01 14-56-52溪神带上钻局CC.mp4</name>
            <enabled>TRUE</enabled>
            <rate>
              <timebase>60</timebase>
              <ntsc>FALSE</ntsc>
            </rate>
            <start>3196</start>
            <end>3357</end>
            <in>49039</in>
            <out>49200</out>
            <file id="file-1"/>
            <sourcetrack>
              <mediatype>audio</mediatype>
              <trackindex>2</trackindex>
            </sourcetrack>
            <link>
              <linkclipref>clipitem-169</linkclipref>
              <mediatype>video</mediatype>
              <trackindex>1</trackindex>
              <clipindex>1</clipindex>
            </link>
            <link>
              <linkclipref>clipitem-170</linkclipref>
              <mediatype>audio</mediatype>
              <trackindex>1</trackindex>
              <clipindex>1</clipindex>
              <groupindex>1</groupindex>
            </link>
            <link>
              <linkclipref>clipitem-171</linkclipref>
              <mediatype>audio</mediatype>
              <trackindex>2</trackindex>
              <clipindex>1</clipindex>
              <groupindex>1</groupindex>
            </link>
            <link>
              <linkclipref>clipitem-172</linkclipref>
              <mediatype>audio</mediatype>
              <trackindex>3</trackindex>
              <clipindex>1</clipindex>
              <groupindex>1</groupindex>
            </link>
            <link>
              <linkclipref>clipitem-173</linkclipref>
              <mediatype>audio</mediatype>
              <trackindex>4</trackindex>
              <clipindex>1</clipindex>
              <groupindex>1</groupindex>
            </link>
            <link>
              <linkclipref>clipitem-174</linkclipref>
              <mediatype>audio</mediatype>
              <trackindex>5</trackindex>
              <clipindex>1</clipindex>
              <groupindex>1</groupindex>
            </link>
            <link>
              <linkclipref>clipitem-175</linkclipref>
              <mediatype>audio</mediatype>
              <trackindex>6</trackindex>
              <clipindex>1</clipindex>
              <groupindex>1</groupindex>
            </link>
          </clipitem>
          <clipitem id="clipitem-180" premiereChannelType="Stereo">
            <masterclipid>masterclip-1</masterclipid>
            <name>2023-04-01 14-56-52溪神带上钻局CC.mp4</name>
            <enabled>TRUE</enabled>
            <rate>
              <timebase>60</timebase>
              <ntsc>FALSE</ntsc>
            </rate>
            <start>3357</start>
            <end>3460</end>
            <in>50487</in>
            <out>50590</out>
            <file id="file-1"/>
            <sourcetrack>
              <mediatype>audio</mediatype>
              <trackindex>2</trackindex>
            </sourcetrack>
            <link>
              <linkclipref>clipitem-176</linkclipref>
              <mediatype>video</mediatype>
              <trackindex>1</trackindex>
              <clipindex>1</clipindex>
            </link>
            <link>
              <linkclipref>clipitem-177</linkclipref>
              <mediatype>audio</mediatype>
              <trackindex>1</trackindex>
              <clipindex>1</clipindex>
              <groupindex>1</groupindex>
            </link>
            <link>
              <linkclipref>clipitem-178</linkclipref>
              <mediatype>audio</mediatype>
              <trackindex>2</trackindex>
              <clipindex>1</clipindex>
              <groupindex>1</groupindex>
            </link>
            <link>
              <linkclipref>clipitem-179</linkclipref>
              <mediatype>audio</mediatype>
              <trackindex>3</trackindex>
              <clipindex>1</clipindex>
              <groupindex>1</groupindex>
            </link>
            <link>
              <linkclipref>clipitem-180</linkclipref>
              <mediatype>audio</mediatype>
              <trackindex>4</trackindex>
              <clipindex>1</clipindex>
              <groupindex>1</groupindex>
            </link>
            <link>
              <linkclipref>clipitem-181</linkclipref>
              <mediatype>audio</mediatype>
              <trackindex>5</trackindex>
              <clipindex>1</clipindex>
              <groupindex>1</groupindex>
            </link>
            <link>
              <linkclipref>clipitem-182</linkclipref>
              <mediatype>audio</mediatype>
              <trackindex>6</trackindex>
              <clipindex>1</clipindex>
              <groupindex>1</groupindex>
            </link>
          </clipitem>
          <clipitem id="clipitem-187" premiereChannelType="Stereo">
            <masterclipid>masterclip-1</masterclipid>
            <name>2023-04-01 14-56-52溪神带上钻局CC.mp4</name>
            <enabled>TRUE</enabled>
            <rate>
              <timebase>60</timebase>
              <ntsc>FALSE</ntsc>
            </rate>
            <start>3460</start>
            <end>3587</end>
            <in>50744</in>
            <out>50871</out>
            <file id="file-1"/>
            <sourcetrack>
              <mediatype>audio</mediatype>
              <trackindex>2</trackindex>
            </sourcetrack>
            <link>
              <linkclipref>clipitem-183</linkclipref>
              <mediatype>video</mediatype>
              <trackindex>1</trackindex>
              <clipindex>1</clipindex>
            </link>
            <link>
              <linkclipref>clipitem-184</linkclipref>
              <mediatype>audio</mediatype>
              <trackindex>1</trackindex>
              <clipindex>1</clipindex>
              <groupindex>1</groupindex>
            </link>
            <link>
              <linkclipref>clipitem-185</linkclipref>
              <mediatype>audio</mediatype>
              <trackindex>2</trackindex>
              <clipindex>1</clipindex>
              <groupindex>1</groupindex>
            </link>
            <link>
              <linkclipref>clipitem-186</linkclipref>
              <mediatype>audio</mediatype>
              <trackindex>3</trackindex>
              <clipindex>1</clipindex>
              <groupindex>1</groupindex>
            </link>
            <link>
              <linkclipref>clipitem-187</linkclipref>
              <mediatype>audio</mediatype>
              <trackindex>4</trackindex>
              <clipindex>1</clipindex>
              <groupindex>1</groupindex>
            </link>
            <link>
              <linkclipref>clipitem-188</linkclipref>
              <mediatype>audio</mediatype>
              <trackindex>5</trackindex>
              <clipindex>1</clipindex>
              <groupindex>1</groupindex>
            </link>
            <link>
              <linkclipref>clipitem-189</linkclipref>
              <mediatype>audio</mediatype>
              <trackindex>6</trackindex>
              <clipindex>1</clipindex>
              <groupindex>1</groupindex>
            </link>
          </clipitem>
          <clipitem id="clipitem-194" premiereChannelType="Stereo">
            <masterclipid>masterclip-1</masterclipid>
            <name>2023-04-01 14-56-52溪神带上钻局CC.mp4</name>
            <enabled>TRUE</enabled>
            <rate>
              <timebase>60</timebase>
              <ntsc>FALSE</ntsc>
            </rate>
            <start>3587</start>
            <end>3794</end>
            <in>50965</in>
            <out>51172</out>
            <file id="file-1"/>
            <sourcetrack>
              <mediatype>audio</mediatype>
              <trackindex>2</trackindex>
            </sourcetrack>
            <link>
              <linkclipref>clipitem-190</linkclipref>
              <mediatype>video</mediatype>
              <trackindex>1</trackindex>
              <clipindex>1</clipindex>
            </link>
            <link>
              <linkclipref>clipitem-191</linkclipref>
              <mediatype>audio</mediatype>
              <trackindex>1</trackindex>
              <clipindex>1</clipindex>
              <groupindex>1</groupindex>
            </link>
            <link>
              <linkclipref>clipitem-192</linkclipref>
              <mediatype>audio</mediatype>
              <trackindex>2</trackindex>
              <clipindex>1</clipindex>
              <groupindex>1</groupindex>
            </link>
            <link>
              <linkclipref>clipitem-193</linkclipref>
              <mediatype>audio</mediatype>
              <trackindex>3</trackindex>
              <clipindex>1</clipindex>
              <groupindex>1</groupindex>
            </link>
            <link>
              <linkclipref>clipitem-194</linkclipref>
              <mediatype>audio</mediatype>
              <trackindex>4</trackindex>
              <clipindex>1</clipindex>
              <groupindex>1</groupindex>
            </link>
            <link>
              <linkclipref>clipitem-195</linkclipref>
              <mediatype>audio</mediatype>
              <trackindex>5</trackindex>
              <clipindex>1</clipindex>
              <groupindex>1</groupindex>
            </link>
            <link>
              <linkclipref>clipitem-196</linkclipref>
              <mediatype>audio</mediatype>
              <trackindex>6</trackindex>
              <clipindex>1</clipindex>
              <groupindex>1</groupindex>
            </link>
          </clipitem>
          <clipitem id="clipitem-201" premiereChannelType="Stereo">
            <masterclipid>masterclip-1</masterclipid>
            <name>2023-04-01 14-56-52溪神带上钻局CC.mp4</name>
            <enabled>TRUE</enabled>
            <rate>
              <timebase>60</timebase>
              <ntsc>FALSE</ntsc>
            </rate>
            <start>3794</start>
            <end>3897</end>
            <in>59295</in>
            <out>59398</out>
            <file id="file-1"/>
            <sourcetrack>
              <mediatype>audio</mediatype>
              <trackindex>2</trackindex>
            </sourcetrack>
            <link>
              <linkclipref>clipitem-197</linkclipref>
              <mediatype>video</mediatype>
              <trackindex>1</trackindex>
              <clipindex>1</clipindex>
            </link>
            <link>
              <linkclipref>clipitem-198</linkclipref>
              <mediatype>audio</mediatype>
              <trackindex>1</trackindex>
              <clipindex>1</clipindex>
              <groupindex>1</groupindex>
            </link>
            <link>
              <linkclipref>clipitem-199</linkclipref>
              <mediatype>audio</mediatype>
              <trackindex>2</trackindex>
              <clipindex>1</clipindex>
              <groupindex>1</groupindex>
            </link>
            <link>
              <linkclipref>clipitem-200</linkclipref>
              <mediatype>audio</mediatype>
              <trackindex>3</trackindex>
              <clipindex>1</clipindex>
              <groupindex>1</groupindex>
            </link>
            <link>
              <linkclipref>clipitem-201</linkclipref>
              <mediatype>audio</mediatype>
              <trackindex>4</trackindex>
              <clipindex>1</clipindex>
              <groupindex>1</groupindex>
            </link>
            <link>
              <linkclipref>clipitem-202</linkclipref>
              <mediatype>audio</mediatype>
              <trackindex>5</trackindex>
              <clipindex>1</clipindex>
              <groupindex>1</groupindex>
            </link>
            <link>
              <linkclipref>clipitem-203</linkclipref>
              <mediatype>audio</mediatype>
              <trackindex>6</trackindex>
              <clipindex>1</clipindex>
              <groupindex>1</groupindex>
            </link>
          </clipitem>
          <clipitem id="clipitem-208" premiereChannelType="Stereo">
            <masterclipid>masterclip-1</masterclipid>
            <name>2023-04-01 14-56-52溪神带上钻局CC.mp4</name>
            <enabled>TRUE</enabled>
            <rate>
              <timebase>60</timebase>
              <ntsc>FALSE</ntsc>
            </rate>
            <start>3897</start>
            <end>4026</end>
            <in>60197</in>
            <out>60326</out>
            <file id="file-1"/>
            <sourcetrack>
              <mediatype>audio</mediatype>
              <trackindex>2</trackindex>
            </sourcetrack>
            <link>
              <linkclipref>clipitem-204</linkclipref>
              <mediatype>video</mediatype>
              <trackindex>1</trackindex>
              <clipindex>1</clipindex>
            </link>
            <link>
              <linkclipref>clipitem-205</linkclipref>
              <mediatype>audio</mediatype>
              <trackindex>1</trackindex>
              <clipindex>1</clipindex>
              <groupindex>1</groupindex>
            </link>
            <link>
              <linkclipref>clipitem-206</linkclipref>
              <mediatype>audio</mediatype>
              <trackindex>2</trackindex>
              <clipindex>1</clipindex>
              <groupindex>1</groupindex>
            </link>
            <link>
              <linkclipref>clipitem-207</linkclipref>
              <mediatype>audio</mediatype>
              <trackindex>3</trackindex>
              <clipindex>1</clipindex>
              <groupindex>1</groupindex>
            </link>
            <link>
              <linkclipref>clipitem-208</linkclipref>
              <mediatype>audio</mediatype>
              <trackindex>4</trackindex>
              <clipindex>1</clipindex>
              <groupindex>1</groupindex>
            </link>
            <link>
              <linkclipref>clipitem-209</linkclipref>
              <mediatype>audio</mediatype>
              <trackindex>5</trackindex>
              <clipindex>1</clipindex>
              <groupindex>1</groupindex>
            </link>
            <link>
              <linkclipref>clipitem-210</linkclipref>
              <mediatype>audio</mediatype>
              <trackindex>6</trackindex>
              <clipindex>1</clipindex>
              <groupindex>1</groupindex>
            </link>
          </clipitem>
          <clipitem id="clipitem-215" premiereChannelType="Stereo">
            <masterclipid>masterclip-1</masterclipid>
            <name>2023-04-01 14-56-52溪神带上钻局CC.mp4</name>
            <enabled>TRUE</enabled>
            <rate>
              <timebase>60</timebase>
              <ntsc>FALSE</ntsc>
            </rate>
            <start>4026</start>
            <end>4128</end>
            <in>60335</in>
            <out>60437</out>
            <file id="file-1"/>
            <sourcetrack>
              <mediatype>audio</mediatype>
              <trackindex>2</trackindex>
            </sourcetrack>
            <link>
              <linkclipref>clipitem-211</linkclipref>
              <mediatype>video</mediatype>
              <trackindex>1</trackindex>
              <clipindex>1</clipindex>
            </link>
            <link>
              <linkclipref>clipitem-212</linkclipref>
              <mediatype>audio</mediatype>
              <trackindex>1</trackindex>
              <clipindex>1</clipindex>
              <groupindex>1</groupindex>
            </link>
            <link>
              <linkclipref>clipitem-213</linkclipref>
              <mediatype>audio</mediatype>
              <trackindex>2</trackindex>
              <clipindex>1</clipindex>
              <groupindex>1</groupindex>
            </link>
            <link>
              <linkclipref>clipitem-214</linkclipref>
              <mediatype>audio</mediatype>
              <trackindex>3</trackindex>
              <clipindex>1</clipindex>
              <groupindex>1</groupindex>
            </link>
            <link>
              <linkclipref>clipitem-215</linkclipref>
              <mediatype>audio</mediatype>
              <trackindex>4</trackindex>
              <clipindex>1</clipindex>
              <groupindex>1</groupindex>
            </link>
            <link>
              <linkclipref>clipitem-216</linkclipref>
              <mediatype>audio</mediatype>
              <trackindex>5</trackindex>
              <clipindex>1</clipindex>
              <groupindex>1</groupindex>
            </link>
            <link>
              <linkclipref>clipitem-217</linkclipref>
              <mediatype>audio</mediatype>
              <trackindex>6</trackindex>
              <clipindex>1</clipindex>
              <groupindex>1</groupindex>
            </link>
          </clipitem>
          <clipitem id="clipitem-222" premiereChannelType="Stereo">
            <masterclipid>masterclip-1</masterclipid>
            <name>2023-04-01 14-56-52溪神带上钻局CC.mp4</name>
            <enabled>TRUE</enabled>
            <rate>
              <timebase>60</timebase>
              <ntsc>FALSE</ntsc>
            </rate>
            <start>4128</start>
            <end>4272</end>
            <in>61170</in>
            <out>61314</out>
            <file id="file-1"/>
            <sourcetrack>
              <mediatype>audio</mediatype>
              <trackindex>2</trackindex>
            </sourcetrack>
            <link>
              <linkclipref>clipitem-218</linkclipref>
              <mediatype>video</mediatype>
              <trackindex>1</trackindex>
              <clipindex>1</clipindex>
            </link>
            <link>
              <linkclipref>clipitem-219</linkclipref>
              <mediatype>audio</mediatype>
              <trackindex>1</trackindex>
              <clipindex>1</clipindex>
              <groupindex>1</groupindex>
            </link>
            <link>
              <linkclipref>clipitem-220</linkclipref>
              <mediatype>audio</mediatype>
              <trackindex>2</trackindex>
              <clipindex>1</clipindex>
              <groupindex>1</groupindex>
            </link>
            <link>
              <linkclipref>clipitem-221</linkclipref>
              <mediatype>audio</mediatype>
              <trackindex>3</trackindex>
              <clipindex>1</clipindex>
              <groupindex>1</groupindex>
            </link>
            <link>
              <linkclipref>clipitem-222</linkclipref>
              <mediatype>audio</mediatype>
              <trackindex>4</trackindex>
              <clipindex>1</clipindex>
              <groupindex>1</groupindex>
            </link>
            <link>
              <linkclipref>clipitem-223</linkclipref>
              <mediatype>audio</mediatype>
              <trackindex>5</trackindex>
              <clipindex>1</clipindex>
              <groupindex>1</groupindex>
            </link>
            <link>
              <linkclipref>clipitem-224</linkclipref>
              <mediatype>audio</mediatype>
              <trackindex>6</trackindex>
              <clipindex>1</clipindex>
              <groupindex>1</groupindex>
            </link>
          </clipitem>
          <clipitem id="clipitem-229" premiereChannelType="Stereo">
            <masterclipid>masterclip-1</masterclipid>
            <name>2023-04-01 14-56-52溪神带上钻局CC.mp4</name>
            <enabled>TRUE</enabled>
            <rate>
              <timebase>60</timebase>
              <ntsc>FALSE</ntsc>
            </rate>
            <start>4272</start>
            <end>4399</end>
            <in>61526</in>
            <out>61653</out>
            <file id="file-1"/>
            <sourcetrack>
              <mediatype>audio</mediatype>
              <trackindex>2</trackindex>
            </sourcetrack>
            <link>
              <linkclipref>clipitem-225</linkclipref>
              <mediatype>video</mediatype>
              <trackindex>1</trackindex>
              <clipindex>1</clipindex>
            </link>
            <link>
              <linkclipref>clipitem-226</linkclipref>
              <mediatype>audio</mediatype>
              <trackindex>1</trackindex>
              <clipindex>1</clipindex>
              <groupindex>1</groupindex>
            </link>
            <link>
              <linkclipref>clipitem-227</linkclipref>
              <mediatype>audio</mediatype>
              <trackindex>2</trackindex>
              <clipindex>1</clipindex>
              <groupindex>1</groupindex>
            </link>
            <link>
              <linkclipref>clipitem-228</linkclipref>
              <mediatype>audio</mediatype>
              <trackindex>3</trackindex>
              <clipindex>1</clipindex>
              <groupindex>1</groupindex>
            </link>
            <link>
              <linkclipref>clipitem-229</linkclipref>
              <mediatype>audio</mediatype>
              <trackindex>4</trackindex>
              <clipindex>1</clipindex>
              <groupindex>1</groupindex>
            </link>
            <link>
              <linkclipref>clipitem-230</linkclipref>
              <mediatype>audio</mediatype>
              <trackindex>5</trackindex>
              <clipindex>1</clipindex>
              <groupindex>1</groupindex>
            </link>
            <link>
              <linkclipref>clipitem-231</linkclipref>
              <mediatype>audio</mediatype>
              <trackindex>6</trackindex>
              <clipindex>1</clipindex>
              <groupindex>1</groupindex>
            </link>
          </clipitem>
          <clipitem id="clipitem-236" premiereChannelType="Stereo">
            <masterclipid>masterclip-1</masterclipid>
            <name>2023-04-01 14-56-52溪神带上钻局CC.mp4</name>
            <enabled>TRUE</enabled>
            <rate>
              <timebase>60</timebase>
              <ntsc>FALSE</ntsc>
            </rate>
            <start>4399</start>
            <end>4509</end>
            <in>62041</in>
            <out>62151</out>
            <file id="file-1"/>
            <sourcetrack>
              <mediatype>audio</mediatype>
              <trackindex>2</trackindex>
            </sourcetrack>
            <link>
              <linkclipref>clipitem-232</linkclipref>
              <mediatype>video</mediatype>
              <trackindex>1</trackindex>
              <clipindex>1</clipindex>
            </link>
            <link>
              <linkclipref>clipitem-233</linkclipref>
              <mediatype>audio</mediatype>
              <trackindex>1</trackindex>
              <clipindex>1</clipindex>
              <groupindex>1</groupindex>
            </link>
            <link>
              <linkclipref>clipitem-234</linkclipref>
              <mediatype>audio</mediatype>
              <trackindex>2</trackindex>
              <clipindex>1</clipindex>
              <groupindex>1</groupindex>
            </link>
            <link>
              <linkclipref>clipitem-235</linkclipref>
              <mediatype>audio</mediatype>
              <trackindex>3</trackindex>
              <clipindex>1</clipindex>
              <groupindex>1</groupindex>
            </link>
            <link>
              <linkclipref>clipitem-236</linkclipref>
              <mediatype>audio</mediatype>
              <trackindex>4</trackindex>
              <clipindex>1</clipindex>
              <groupindex>1</groupindex>
            </link>
            <link>
              <linkclipref>clipitem-237</linkclipref>
              <mediatype>audio</mediatype>
              <trackindex>5</trackindex>
              <clipindex>1</clipindex>
              <groupindex>1</groupindex>
            </link>
            <link>
              <linkclipref>clipitem-238</linkclipref>
              <mediatype>audio</mediatype>
              <trackindex>6</trackindex>
              <clipindex>1</clipindex>
              <groupindex>1</groupindex>
            </link>
          </clipitem>
          <clipitem id="clipitem-243" premiereChannelType="Stereo">
            <masterclipid>masterclip-2</masterclipid>
            <name>2023-04-01 13-58-58溪神带飞王源5KCC.mp4</name>
            <enabled>TRUE</enabled>
            <rate>
              <timebase>60</timebase>
              <ntsc>FALSE</ntsc>
            </rate>
            <start>4509</start>
            <end>4526</end>
            <in>1764</in>
            <out>1781</out>
            <file id="file-2"/>
            <sourcetrack>
              <mediatype>audio</mediatype>
              <trackindex>2</trackindex>
            </sourcetrack>
            <link>
              <linkclipref>clipitem-239</linkclipref>
              <mediatype>video</mediatype>
              <trackindex>1</trackindex>
              <clipindex>1</clipindex>
            </link>
            <link>
              <linkclipref>clipitem-240</linkclipref>
              <mediatype>audio</mediatype>
              <trackindex>1</trackindex>
              <clipindex>1</clipindex>
              <groupindex>1</groupindex>
            </link>
            <link>
              <linkclipref>clipitem-241</linkclipref>
              <mediatype>audio</mediatype>
              <trackindex>2</trackindex>
              <clipindex>1</clipindex>
              <groupindex>1</groupindex>
            </link>
            <link>
              <linkclipref>clipitem-242</linkclipref>
              <mediatype>audio</mediatype>
              <trackindex>3</trackindex>
              <clipindex>1</clipindex>
              <groupindex>1</groupindex>
            </link>
            <link>
              <linkclipref>clipitem-243</linkclipref>
              <mediatype>audio</mediatype>
              <trackindex>4</trackindex>
              <clipindex>1</clipindex>
              <groupindex>1</groupindex>
            </link>
            <link>
              <linkclipref>clipitem-244</linkclipref>
              <mediatype>audio</mediatype>
              <trackindex>5</trackindex>
              <clipindex>1</clipindex>
              <groupindex>1</groupindex>
            </link>
            <link>
              <linkclipref>clipitem-245</linkclipref>
              <mediatype>audio</mediatype>
              <trackindex>6</trackindex>
              <clipindex>1</clipindex>
              <groupindex>1</groupindex>
            </link>
          </clipitem>
          <clipitem id="clipitem-250" premiereChannelType="Stereo">
            <masterclipid>masterclip-2</masterclipid>
            <name>2023-04-01 13-58-58溪神带飞王源5KCC.mp4</name>
            <enabled>TRUE</enabled>
            <rate>
              <timebase>60</timebase>
              <ntsc>FALSE</ntsc>
            </rate>
            <start>4526</start>
            <end>4596</end>
            <in>22846</in>
            <out>22916</out>
            <file id="file-2"/>
            <sourcetrack>
              <mediatype>audio</mediatype>
              <trackindex>2</trackindex>
            </sourcetrack>
            <link>
              <linkclipref>clipitem-246</linkclipref>
              <mediatype>video</mediatype>
              <trackindex>1</trackindex>
              <clipindex>1</clipindex>
            </link>
            <link>
              <linkclipref>clipitem-247</linkclipref>
              <mediatype>audio</mediatype>
              <trackindex>1</trackindex>
              <clipindex>1</clipindex>
              <groupindex>1</groupindex>
            </link>
            <link>
              <linkclipref>clipitem-248</linkclipref>
              <mediatype>audio</mediatype>
              <trackindex>2</trackindex>
              <clipindex>1</clipindex>
              <groupindex>1</groupindex>
            </link>
            <link>
              <linkclipref>clipitem-249</linkclipref>
              <mediatype>audio</mediatype>
              <trackindex>3</trackindex>
              <clipindex>1</clipindex>
              <groupindex>1</groupindex>
            </link>
            <link>
              <linkclipref>clipitem-250</linkclipref>
              <mediatype>audio</mediatype>
              <trackindex>4</trackindex>
              <clipindex>1</clipindex>
              <groupindex>1</groupindex>
            </link>
            <link>
              <linkclipref>clipitem-251</linkclipref>
              <mediatype>audio</mediatype>
              <trackindex>5</trackindex>
              <clipindex>1</clipindex>
              <groupindex>1</groupindex>
            </link>
            <link>
              <linkclipref>clipitem-252</linkclipref>
              <mediatype>audio</mediatype>
              <trackindex>6</trackindex>
              <clipindex>1</clipindex>
              <groupindex>1</groupindex>
            </link>
          </clipitem>
          <clipitem id="clipitem-257" premiereChannelType="Stereo">
            <masterclipid>masterclip-2</masterclipid>
            <name>2023-04-01 13-58-58溪神带飞王源5KCC.mp4</name>
            <enabled>TRUE</enabled>
            <rate>
              <timebase>60</timebase>
              <ntsc>FALSE</ntsc>
            </rate>
            <start>4596</start>
            <end>4848</end>
            <in>22937</in>
            <out>23189</out>
            <file id="file-2"/>
            <sourcetrack>
              <mediatype>audio</mediatype>
              <trackindex>2</trackindex>
            </sourcetrack>
            <link>
              <linkclipref>clipitem-253</linkclipref>
              <mediatype>video</mediatype>
              <trackindex>1</trackindex>
              <clipindex>1</clipindex>
            </link>
            <link>
              <linkclipref>clipitem-254</linkclipref>
              <mediatype>audio</mediatype>
              <trackindex>1</trackindex>
              <clipindex>1</clipindex>
              <groupindex>1</groupindex>
            </link>
            <link>
              <linkclipref>clipitem-255</linkclipref>
              <mediatype>audio</mediatype>
              <trackindex>2</trackindex>
              <clipindex>1</clipindex>
              <groupindex>1</groupindex>
            </link>
            <link>
              <linkclipref>clipitem-256</linkclipref>
              <mediatype>audio</mediatype>
              <trackindex>3</trackindex>
              <clipindex>1</clipindex>
              <groupindex>1</groupindex>
            </link>
            <link>
              <linkclipref>clipitem-257</linkclipref>
              <mediatype>audio</mediatype>
              <trackindex>4</trackindex>
              <clipindex>1</clipindex>
              <groupindex>1</groupindex>
            </link>
            <link>
              <linkclipref>clipitem-258</linkclipref>
              <mediatype>audio</mediatype>
              <trackindex>5</trackindex>
              <clipindex>1</clipindex>
              <groupindex>1</groupindex>
            </link>
            <link>
              <linkclipref>clipitem-259</linkclipref>
              <mediatype>audio</mediatype>
              <trackindex>6</trackindex>
              <clipindex>1</clipindex>
              <groupindex>1</groupindex>
            </link>
          </clipitem>
          <clipitem id="clipitem-264" premiereChannelType="Stereo">
            <masterclipid>masterclip-2</masterclipid>
            <name>2023-04-01 13-58-58溪神带飞王源5KCC.mp4</name>
            <enabled>TRUE</enabled>
            <rate>
              <timebase>60</timebase>
              <ntsc>FALSE</ntsc>
            </rate>
            <start>4848</start>
            <end>5027</end>
            <in>24127</in>
            <out>24306</out>
            <file id="file-2"/>
            <sourcetrack>
              <mediatype>audio</mediatype>
              <trackindex>2</trackindex>
            </sourcetrack>
            <link>
              <linkclipref>clipitem-260</linkclipref>
              <mediatype>video</mediatype>
              <trackindex>1</trackindex>
              <clipindex>1</clipindex>
            </link>
            <link>
              <linkclipref>clipitem-261</linkclipref>
              <mediatype>audio</mediatype>
              <trackindex>1</trackindex>
              <clipindex>1</clipindex>
              <groupindex>1</groupindex>
            </link>
            <link>
              <linkclipref>clipitem-262</linkclipref>
              <mediatype>audio</mediatype>
              <trackindex>2</trackindex>
              <clipindex>1</clipindex>
              <groupindex>1</groupindex>
            </link>
            <link>
              <linkclipref>clipitem-263</linkclipref>
              <mediatype>audio</mediatype>
              <trackindex>3</trackindex>
              <clipindex>1</clipindex>
              <groupindex>1</groupindex>
            </link>
            <link>
              <linkclipref>clipitem-264</linkclipref>
              <mediatype>audio</mediatype>
              <trackindex>4</trackindex>
              <clipindex>1</clipindex>
              <groupindex>1</groupindex>
            </link>
            <link>
              <linkclipref>clipitem-265</linkclipref>
              <mediatype>audio</mediatype>
              <trackindex>5</trackindex>
              <clipindex>1</clipindex>
              <groupindex>1</groupindex>
            </link>
            <link>
              <linkclipref>clipitem-266</linkclipref>
              <mediatype>audio</mediatype>
              <trackindex>6</trackindex>
              <clipindex>1</clipindex>
              <groupindex>1</groupindex>
            </link>
          </clipitem>
          <clipitem id="clipitem-271" premiereChannelType="Stereo">
            <masterclipid>masterclip-2</masterclipid>
            <name>2023-04-01 13-58-58溪神带飞王源5KCC.mp4</name>
            <enabled>TRUE</enabled>
            <rate>
              <timebase>60</timebase>
              <ntsc>FALSE</ntsc>
            </rate>
            <start>5027</start>
            <end>5103</end>
            <in>24579</in>
            <out>24655</out>
            <file id="file-2"/>
            <sourcetrack>
              <mediatype>audio</mediatype>
              <trackindex>2</trackindex>
            </sourcetrack>
            <link>
              <linkclipref>clipitem-267</linkclipref>
              <mediatype>video</mediatype>
              <trackindex>1</trackindex>
              <clipindex>1</clipindex>
            </link>
            <link>
              <linkclipref>clipitem-268</linkclipref>
              <mediatype>audio</mediatype>
              <trackindex>1</trackindex>
              <clipindex>1</clipindex>
              <groupindex>1</groupindex>
            </link>
            <link>
              <linkclipref>clipitem-269</linkclipref>
              <mediatype>audio</mediatype>
              <trackindex>2</trackindex>
              <clipindex>1</clipindex>
              <groupindex>1</groupindex>
            </link>
            <link>
              <linkclipref>clipitem-270</linkclipref>
              <mediatype>audio</mediatype>
              <trackindex>3</trackindex>
              <clipindex>1</clipindex>
              <groupindex>1</groupindex>
            </link>
            <link>
              <linkclipref>clipitem-271</linkclipref>
              <mediatype>audio</mediatype>
              <trackindex>4</trackindex>
              <clipindex>1</clipindex>
              <groupindex>1</groupindex>
            </link>
            <link>
              <linkclipref>clipitem-272</linkclipref>
              <mediatype>audio</mediatype>
              <trackindex>5</trackindex>
              <clipindex>1</clipindex>
              <groupindex>1</groupindex>
            </link>
            <link>
              <linkclipref>clipitem-273</linkclipref>
              <mediatype>audio</mediatype>
              <trackindex>6</trackindex>
              <clipindex>1</clipindex>
              <groupindex>1</groupindex>
            </link>
          </clipitem>
          <clipitem id="clipitem-278" premiereChannelType="Stereo">
            <masterclipid>masterclip-2</masterclipid>
            <name>2023-04-01 13-58-58溪神带飞王源5KCC.mp4</name>
            <enabled>TRUE</enabled>
            <rate>
              <timebase>60</timebase>
              <ntsc>FALSE</ntsc>
            </rate>
            <start>5103</start>
            <end>5273</end>
            <in>24893</in>
            <out>25063</out>
            <file id="file-2"/>
            <sourcetrack>
              <mediatype>audio</mediatype>
              <trackindex>2</trackindex>
            </sourcetrack>
            <link>
              <linkclipref>clipitem-274</linkclipref>
              <mediatype>video</mediatype>
              <trackindex>1</trackindex>
              <clipindex>1</clipindex>
            </link>
            <link>
              <linkclipref>clipitem-275</linkclipref>
              <mediatype>audio</mediatype>
              <trackindex>1</trackindex>
              <clipindex>1</clipindex>
              <groupindex>1</groupindex>
            </link>
            <link>
              <linkclipref>clipitem-276</linkclipref>
              <mediatype>audio</mediatype>
              <trackindex>2</trackindex>
              <clipindex>1</clipindex>
              <groupindex>1</groupindex>
            </link>
            <link>
              <linkclipref>clipitem-277</linkclipref>
              <mediatype>audio</mediatype>
              <trackindex>3</trackindex>
              <clipindex>1</clipindex>
              <groupindex>1</groupindex>
            </link>
            <link>
              <linkclipref>clipitem-278</linkclipref>
              <mediatype>audio</mediatype>
              <trackindex>4</trackindex>
              <clipindex>1</clipindex>
              <groupindex>1</groupindex>
            </link>
            <link>
              <linkclipref>clipitem-279</linkclipref>
              <mediatype>audio</mediatype>
              <trackindex>5</trackindex>
              <clipindex>1</clipindex>
              <groupindex>1</groupindex>
            </link>
            <link>
              <linkclipref>clipitem-280</linkclipref>
              <mediatype>audio</mediatype>
              <trackindex>6</trackindex>
              <clipindex>1</clipindex>
              <groupindex>1</groupindex>
            </link>
          </clipitem>
          <clipitem id="clipitem-285" premiereChannelType="Stereo">
            <masterclipid>masterclip-2</masterclipid>
            <name>2023-04-01 13-58-58溪神带飞王源5KCC.mp4</name>
            <enabled>TRUE</enabled>
            <rate>
              <timebase>60</timebase>
              <ntsc>FALSE</ntsc>
            </rate>
            <start>5273</start>
            <end>5350</end>
            <in>31222</in>
            <out>31299</out>
            <file id="file-2"/>
            <sourcetrack>
              <mediatype>audio</mediatype>
              <trackindex>2</trackindex>
            </sourcetrack>
            <link>
              <linkclipref>clipitem-281</linkclipref>
              <mediatype>video</mediatype>
              <trackindex>1</trackindex>
              <clipindex>1</clipindex>
            </link>
            <link>
              <linkclipref>clipitem-282</linkclipref>
              <mediatype>audio</mediatype>
              <trackindex>1</trackindex>
              <clipindex>1</clipindex>
              <groupindex>1</groupindex>
            </link>
            <link>
              <linkclipref>clipitem-283</linkclipref>
              <mediatype>audio</mediatype>
              <trackindex>2</trackindex>
              <clipindex>1</clipindex>
              <groupindex>1</groupindex>
            </link>
            <link>
              <linkclipref>clipitem-284</linkclipref>
              <mediatype>audio</mediatype>
              <trackindex>3</trackindex>
              <clipindex>1</clipindex>
              <groupindex>1</groupindex>
            </link>
            <link>
              <linkclipref>clipitem-285</linkclipref>
              <mediatype>audio</mediatype>
              <trackindex>4</trackindex>
              <clipindex>1</clipindex>
              <groupindex>1</groupindex>
            </link>
            <link>
              <linkclipref>clipitem-286</linkclipref>
              <mediatype>audio</mediatype>
              <trackindex>5</trackindex>
              <clipindex>1</clipindex>
              <groupindex>1</groupindex>
            </link>
            <link>
              <linkclipref>clipitem-287</linkclipref>
              <mediatype>audio</mediatype>
              <trackindex>6</trackindex>
              <clipindex>1</clipindex>
              <groupindex>1</groupindex>
            </link>
          </clipitem>
          <clipitem id="clipitem-292" premiereChannelType="Stereo">
            <masterclipid>masterclip-2</masterclipid>
            <name>2023-04-01 13-58-58溪神带飞王源5KCC.mp4</name>
            <enabled>TRUE</enabled>
            <rate>
              <timebase>60</timebase>
              <ntsc>FALSE</ntsc>
            </rate>
            <start>5350</start>
            <end>5459</end>
            <in>31478</in>
            <out>31587</out>
            <file id="file-2"/>
            <sourcetrack>
              <mediatype>audio</mediatype>
              <trackindex>2</trackindex>
            </sourcetrack>
            <link>
              <linkclipref>clipitem-288</linkclipref>
              <mediatype>video</mediatype>
              <trackindex>1</trackindex>
              <clipindex>1</clipindex>
            </link>
            <link>
              <linkclipref>clipitem-289</linkclipref>
              <mediatype>audio</mediatype>
              <trackindex>1</trackindex>
              <clipindex>1</clipindex>
              <groupindex>1</groupindex>
            </link>
            <link>
              <linkclipref>clipitem-290</linkclipref>
              <mediatype>audio</mediatype>
              <trackindex>2</trackindex>
              <clipindex>1</clipindex>
              <groupindex>1</groupindex>
            </link>
            <link>
              <linkclipref>clipitem-291</linkclipref>
              <mediatype>audio</mediatype>
              <trackindex>3</trackindex>
              <clipindex>1</clipindex>
              <groupindex>1</groupindex>
            </link>
            <link>
              <linkclipref>clipitem-292</linkclipref>
              <mediatype>audio</mediatype>
              <trackindex>4</trackindex>
              <clipindex>1</clipindex>
              <groupindex>1</groupindex>
            </link>
            <link>
              <linkclipref>clipitem-293</linkclipref>
              <mediatype>audio</mediatype>
              <trackindex>5</trackindex>
              <clipindex>1</clipindex>
              <groupindex>1</groupindex>
            </link>
            <link>
              <linkclipref>clipitem-294</linkclipref>
              <mediatype>audio</mediatype>
              <trackindex>6</trackindex>
              <clipindex>1</clipindex>
              <groupindex>1</groupindex>
            </link>
          </clipitem>
          <clipitem id="clipitem-299" premiereChannelType="Stereo">
            <masterclipid>masterclip-2</masterclipid>
            <name>2023-04-01 13-58-58溪神带飞王源5KCC.mp4</name>
            <enabled>TRUE</enabled>
            <rate>
              <timebase>60</timebase>
              <ntsc>FALSE</ntsc>
            </rate>
            <start>5459</start>
            <end>5662</end>
            <in>33212</in>
            <out>33415</out>
            <file id="file-2"/>
            <sourcetrack>
              <mediatype>audio</mediatype>
              <trackindex>2</trackindex>
            </sourcetrack>
            <link>
              <linkclipref>clipitem-295</linkclipref>
              <mediatype>video</mediatype>
              <trackindex>1</trackindex>
              <clipindex>1</clipindex>
            </link>
            <link>
              <linkclipref>clipitem-296</linkclipref>
              <mediatype>audio</mediatype>
              <trackindex>1</trackindex>
              <clipindex>1</clipindex>
              <groupindex>1</groupindex>
            </link>
            <link>
              <linkclipref>clipitem-297</linkclipref>
              <mediatype>audio</mediatype>
              <trackindex>2</trackindex>
              <clipindex>1</clipindex>
              <groupindex>1</groupindex>
            </link>
            <link>
              <linkclipref>clipitem-298</linkclipref>
              <mediatype>audio</mediatype>
              <trackindex>3</trackindex>
              <clipindex>1</clipindex>
              <groupindex>1</groupindex>
            </link>
            <link>
              <linkclipref>clipitem-299</linkclipref>
              <mediatype>audio</mediatype>
              <trackindex>4</trackindex>
              <clipindex>1</clipindex>
              <groupindex>1</groupindex>
            </link>
            <link>
              <linkclipref>clipitem-300</linkclipref>
              <mediatype>audio</mediatype>
              <trackindex>5</trackindex>
              <clipindex>1</clipindex>
              <groupindex>1</groupindex>
            </link>
            <link>
              <linkclipref>clipitem-301</linkclipref>
              <mediatype>audio</mediatype>
              <trackindex>6</trackindex>
              <clipindex>1</clipindex>
              <groupindex>1</groupindex>
            </link>
          </clipitem>
          <clipitem id="clipitem-306" premiereChannelType="Stereo">
            <masterclipid>masterclip-2</masterclipid>
            <name>2023-04-01 13-58-58溪神带飞王源5KCC.mp4</name>
            <enabled>TRUE</enabled>
            <rate>
              <timebase>60</timebase>
              <ntsc>FALSE</ntsc>
            </rate>
            <start>5662</start>
            <end>5816</end>
            <in>33743</in>
            <out>33897</out>
            <file id="file-2"/>
            <sourcetrack>
              <mediatype>audio</mediatype>
              <trackindex>2</trackindex>
            </sourcetrack>
            <link>
              <linkclipref>clipitem-302</linkclipref>
              <mediatype>video</mediatype>
              <trackindex>1</trackindex>
              <clipindex>1</clipindex>
            </link>
            <link>
              <linkclipref>clipitem-303</linkclipref>
              <mediatype>audio</mediatype>
              <trackindex>1</trackindex>
              <clipindex>1</clipindex>
              <groupindex>1</groupindex>
            </link>
            <link>
              <linkclipref>clipitem-304</linkclipref>
              <mediatype>audio</mediatype>
              <trackindex>2</trackindex>
              <clipindex>1</clipindex>
              <groupindex>1</groupindex>
            </link>
            <link>
              <linkclipref>clipitem-305</linkclipref>
              <mediatype>audio</mediatype>
              <trackindex>3</trackindex>
              <clipindex>1</clipindex>
              <groupindex>1</groupindex>
            </link>
            <link>
              <linkclipref>clipitem-306</linkclipref>
              <mediatype>audio</mediatype>
              <trackindex>4</trackindex>
              <clipindex>1</clipindex>
              <groupindex>1</groupindex>
            </link>
            <link>
              <linkclipref>clipitem-307</linkclipref>
              <mediatype>audio</mediatype>
              <trackindex>5</trackindex>
              <clipindex>1</clipindex>
              <groupindex>1</groupindex>
            </link>
            <link>
              <linkclipref>clipitem-308</linkclipref>
              <mediatype>audio</mediatype>
              <trackindex>6</trackindex>
              <clipindex>1</clipindex>
              <groupindex>1</groupindex>
            </link>
          </clipitem>
          <clipitem id="clipitem-313" premiereChannelType="Stereo">
            <masterclipid>masterclip-2</masterclipid>
            <name>2023-04-01 13-58-58溪神带飞王源5KCC.mp4</name>
            <enabled>TRUE</enabled>
            <rate>
              <timebase>60</timebase>
              <ntsc>FALSE</ntsc>
            </rate>
            <start>5816</start>
            <end>6008</end>
            <in>34010</in>
            <out>34202</out>
            <file id="file-2"/>
            <sourcetrack>
              <mediatype>audio</mediatype>
              <trackindex>2</trackindex>
            </sourcetrack>
            <link>
              <linkclipref>clipitem-309</linkclipref>
              <mediatype>video</mediatype>
              <trackindex>1</trackindex>
              <clipindex>1</clipindex>
            </link>
            <link>
              <linkclipref>clipitem-310</linkclipref>
              <mediatype>audio</mediatype>
              <trackindex>1</trackindex>
              <clipindex>1</clipindex>
              <groupindex>1</groupindex>
            </link>
            <link>
              <linkclipref>clipitem-311</linkclipref>
              <mediatype>audio</mediatype>
              <trackindex>2</trackindex>
              <clipindex>1</clipindex>
              <groupindex>1</groupindex>
            </link>
            <link>
              <linkclipref>clipitem-312</linkclipref>
              <mediatype>audio</mediatype>
              <trackindex>3</trackindex>
              <clipindex>1</clipindex>
              <groupindex>1</groupindex>
            </link>
            <link>
              <linkclipref>clipitem-313</linkclipref>
              <mediatype>audio</mediatype>
              <trackindex>4</trackindex>
              <clipindex>1</clipindex>
              <groupindex>1</groupindex>
            </link>
            <link>
              <linkclipref>clipitem-314</linkclipref>
              <mediatype>audio</mediatype>
              <trackindex>5</trackindex>
              <clipindex>1</clipindex>
              <groupindex>1</groupindex>
            </link>
            <link>
              <linkclipref>clipitem-315</linkclipref>
              <mediatype>audio</mediatype>
              <trackindex>6</trackindex>
              <clipindex>1</clipindex>
              <groupindex>1</groupindex>
            </link>
          </clipitem>
          <clipitem id="clipitem-320" premiereChannelType="Stereo">
            <masterclipid>masterclip-2</masterclipid>
            <name>2023-04-01 13-58-58溪神带飞王源5KCC.mp4</name>
            <enabled>TRUE</enabled>
            <rate>
              <timebase>60</timebase>
              <ntsc>FALSE</ntsc>
            </rate>
            <start>6008</start>
            <end>6171</end>
            <in>39130</in>
            <out>39293</out>
            <file id="file-2"/>
            <sourcetrack>
              <mediatype>audio</mediatype>
              <trackindex>2</trackindex>
            </sourcetrack>
            <link>
              <linkclipref>clipitem-316</linkclipref>
              <mediatype>video</mediatype>
              <trackindex>1</trackindex>
              <clipindex>1</clipindex>
            </link>
            <link>
              <linkclipref>clipitem-317</linkclipref>
              <mediatype>audio</mediatype>
              <trackindex>1</trackindex>
              <clipindex>1</clipindex>
              <groupindex>1</groupindex>
            </link>
            <link>
              <linkclipref>clipitem-318</linkclipref>
              <mediatype>audio</mediatype>
              <trackindex>2</trackindex>
              <clipindex>1</clipindex>
              <groupindex>1</groupindex>
            </link>
            <link>
              <linkclipref>clipitem-319</linkclipref>
              <mediatype>audio</mediatype>
              <trackindex>3</trackindex>
              <clipindex>1</clipindex>
              <groupindex>1</groupindex>
            </link>
            <link>
              <linkclipref>clipitem-320</linkclipref>
              <mediatype>audio</mediatype>
              <trackindex>4</trackindex>
              <clipindex>1</clipindex>
              <groupindex>1</groupindex>
            </link>
            <link>
              <linkclipref>clipitem-321</linkclipref>
              <mediatype>audio</mediatype>
              <trackindex>5</trackindex>
              <clipindex>1</clipindex>
              <groupindex>1</groupindex>
            </link>
            <link>
              <linkclipref>clipitem-322</linkclipref>
              <mediatype>audio</mediatype>
              <trackindex>6</trackindex>
              <clipindex>1</clipindex>
              <groupindex>1</groupindex>
            </link>
          </clipitem>
          <clipitem id="clipitem-327" premiereChannelType="Stereo">
            <masterclipid>masterclip-2</masterclipid>
            <name>2023-04-01 13-58-58溪神带飞王源5KCC.mp4</name>
            <enabled>TRUE</enabled>
            <rate>
              <timebase>60</timebase>
              <ntsc>FALSE</ntsc>
            </rate>
            <start>6171</start>
            <end>6321</end>
            <in>39388</in>
            <out>39538</out>
            <file id="file-2"/>
            <sourcetrack>
              <mediatype>audio</mediatype>
              <trackindex>2</trackindex>
            </sourcetrack>
            <link>
              <linkclipref>clipitem-323</linkclipref>
              <mediatype>video</mediatype>
              <trackindex>1</trackindex>
              <clipindex>1</clipindex>
            </link>
            <link>
              <linkclipref>clipitem-324</linkclipref>
              <mediatype>audio</mediatype>
              <trackindex>1</trackindex>
              <clipindex>1</clipindex>
              <groupindex>1</groupindex>
            </link>
            <link>
              <linkclipref>clipitem-325</linkclipref>
              <mediatype>audio</mediatype>
              <trackindex>2</trackindex>
              <clipindex>1</clipindex>
              <groupindex>1</groupindex>
            </link>
            <link>
              <linkclipref>clipitem-326</linkclipref>
              <mediatype>audio</mediatype>
              <trackindex>3</trackindex>
              <clipindex>1</clipindex>
              <groupindex>1</groupindex>
            </link>
            <link>
              <linkclipref>clipitem-327</linkclipref>
              <mediatype>audio</mediatype>
              <trackindex>4</trackindex>
              <clipindex>1</clipindex>
              <groupindex>1</groupindex>
            </link>
            <link>
              <linkclipref>clipitem-328</linkclipref>
              <mediatype>audio</mediatype>
              <trackindex>5</trackindex>
              <clipindex>1</clipindex>
              <groupindex>1</groupindex>
            </link>
            <link>
              <linkclipref>clipitem-329</linkclipref>
              <mediatype>audio</mediatype>
              <trackindex>6</trackindex>
              <clipindex>1</clipindex>
              <groupindex>1</groupindex>
            </link>
          </clipitem>
          <clipitem id="clipitem-334" premiereChannelType="Stereo">
            <masterclipid>masterclip-2</masterclipid>
            <name>2023-04-01 13-58-58溪神带飞王源5KCC.mp4</name>
            <enabled>TRUE</enabled>
            <rate>
              <timebase>60</timebase>
              <ntsc>FALSE</ntsc>
            </rate>
            <start>6321</start>
            <end>6559</end>
            <in>39755</in>
            <out>39993</out>
            <file id="file-2"/>
            <sourcetrack>
              <mediatype>audio</mediatype>
              <trackindex>2</trackindex>
            </sourcetrack>
            <link>
              <linkclipref>clipitem-330</linkclipref>
              <mediatype>video</mediatype>
              <trackindex>1</trackindex>
              <clipindex>1</clipindex>
            </link>
            <link>
              <linkclipref>clipitem-331</linkclipref>
              <mediatype>audio</mediatype>
              <trackindex>1</trackindex>
              <clipindex>1</clipindex>
              <groupindex>1</groupindex>
            </link>
            <link>
              <linkclipref>clipitem-332</linkclipref>
              <mediatype>audio</mediatype>
              <trackindex>2</trackindex>
              <clipindex>1</clipindex>
              <groupindex>1</groupindex>
            </link>
            <link>
              <linkclipref>clipitem-333</linkclipref>
              <mediatype>audio</mediatype>
              <trackindex>3</trackindex>
              <clipindex>1</clipindex>
              <groupindex>1</groupindex>
            </link>
            <link>
              <linkclipref>clipitem-334</linkclipref>
              <mediatype>audio</mediatype>
              <trackindex>4</trackindex>
              <clipindex>1</clipindex>
              <groupindex>1</groupindex>
            </link>
            <link>
              <linkclipref>clipitem-335</linkclipref>
              <mediatype>audio</mediatype>
              <trackindex>5</trackindex>
              <clipindex>1</clipindex>
              <groupindex>1</groupindex>
            </link>
            <link>
              <linkclipref>clipitem-336</linkclipref>
              <mediatype>audio</mediatype>
              <trackindex>6</trackindex>
              <clipindex>1</clipindex>
              <groupindex>1</groupindex>
            </link>
          </clipitem>
          <clipitem id="clipitem-341" premiereChannelType="Stereo">
            <masterclipid>masterclip-2</masterclipid>
            <name>2023-04-01 13-58-58溪神带飞王源5KCC.mp4</name>
            <enabled>TRUE</enabled>
            <rate>
              <timebase>60</timebase>
              <ntsc>FALSE</ntsc>
            </rate>
            <start>6559</start>
            <end>6647</end>
            <in>40286</in>
            <out>40374</out>
            <file id="file-2"/>
            <sourcetrack>
              <mediatype>audio</mediatype>
              <trackindex>2</trackindex>
            </sourcetrack>
            <link>
              <linkclipref>clipitem-337</linkclipref>
              <mediatype>video</mediatype>
              <trackindex>1</trackindex>
              <clipindex>1</clipindex>
            </link>
            <link>
              <linkclipref>clipitem-338</linkclipref>
              <mediatype>audio</mediatype>
              <trackindex>1</trackindex>
              <clipindex>1</clipindex>
              <groupindex>1</groupindex>
            </link>
            <link>
              <linkclipref>clipitem-339</linkclipref>
              <mediatype>audio</mediatype>
              <trackindex>2</trackindex>
              <clipindex>1</clipindex>
              <groupindex>1</groupindex>
            </link>
            <link>
              <linkclipref>clipitem-340</linkclipref>
              <mediatype>audio</mediatype>
              <trackindex>3</trackindex>
              <clipindex>1</clipindex>
              <groupindex>1</groupindex>
            </link>
            <link>
              <linkclipref>clipitem-341</linkclipref>
              <mediatype>audio</mediatype>
              <trackindex>4</trackindex>
              <clipindex>1</clipindex>
              <groupindex>1</groupindex>
            </link>
            <link>
              <linkclipref>clipitem-342</linkclipref>
              <mediatype>audio</mediatype>
              <trackindex>5</trackindex>
              <clipindex>1</clipindex>
              <groupindex>1</groupindex>
            </link>
            <link>
              <linkclipref>clipitem-343</linkclipref>
              <mediatype>audio</mediatype>
              <trackindex>6</trackindex>
              <clipindex>1</clipindex>
              <groupindex>1</groupindex>
            </link>
          </clipitem>
          <clipitem id="clipitem-348" premiereChannelType="Stereo">
            <masterclipid>masterclip-2</masterclipid>
            <name>2023-04-01 13-58-58溪神带飞王源5KCC.mp4</name>
            <enabled>TRUE</enabled>
            <rate>
              <timebase>60</timebase>
              <ntsc>FALSE</ntsc>
            </rate>
            <start>6647</start>
            <end>6865</end>
            <in>43166</in>
            <out>43384</out>
            <file id="file-2"/>
            <sourcetrack>
              <mediatype>audio</mediatype>
              <trackindex>2</trackindex>
            </sourcetrack>
            <link>
              <linkclipref>clipitem-344</linkclipref>
              <mediatype>video</mediatype>
              <trackindex>1</trackindex>
              <clipindex>1</clipindex>
            </link>
            <link>
              <linkclipref>clipitem-345</linkclipref>
              <mediatype>audio</mediatype>
              <trackindex>1</trackindex>
              <clipindex>1</clipindex>
              <groupindex>1</groupindex>
            </link>
            <link>
              <linkclipref>clipitem-346</linkclipref>
              <mediatype>audio</mediatype>
              <trackindex>2</trackindex>
              <clipindex>1</clipindex>
              <groupindex>1</groupindex>
            </link>
            <link>
              <linkclipref>clipitem-347</linkclipref>
              <mediatype>audio</mediatype>
              <trackindex>3</trackindex>
              <clipindex>1</clipindex>
              <groupindex>1</groupindex>
            </link>
            <link>
              <linkclipref>clipitem-348</linkclipref>
              <mediatype>audio</mediatype>
              <trackindex>4</trackindex>
              <clipindex>1</clipindex>
              <groupindex>1</groupindex>
            </link>
            <link>
              <linkclipref>clipitem-349</linkclipref>
              <mediatype>audio</mediatype>
              <trackindex>5</trackindex>
              <clipindex>1</clipindex>
              <groupindex>1</groupindex>
            </link>
            <link>
              <linkclipref>clipitem-350</linkclipref>
              <mediatype>audio</mediatype>
              <trackindex>6</trackindex>
              <clipindex>1</clipindex>
              <groupindex>1</groupindex>
            </link>
          </clipitem>
          <clipitem id="clipitem-355" premiereChannelType="Stereo">
            <masterclipid>masterclip-2</masterclipid>
            <name>2023-04-01 13-58-58溪神带飞王源5KCC.mp4</name>
            <enabled>TRUE</enabled>
            <rate>
              <timebase>60</timebase>
              <ntsc>FALSE</ntsc>
            </rate>
            <start>6865</start>
            <end>6977</end>
            <in>43394</in>
            <out>43506</out>
            <file id="file-2"/>
            <sourcetrack>
              <mediatype>audio</mediatype>
              <trackindex>2</trackindex>
            </sourcetrack>
            <link>
              <linkclipref>clipitem-351</linkclipref>
              <mediatype>video</mediatype>
              <trackindex>1</trackindex>
              <clipindex>1</clipindex>
            </link>
            <link>
              <linkclipref>clipitem-352</linkclipref>
              <mediatype>audio</mediatype>
              <trackindex>1</trackindex>
              <clipindex>1</clipindex>
              <groupindex>1</groupindex>
            </link>
            <link>
              <linkclipref>clipitem-353</linkclipref>
              <mediatype>audio</mediatype>
              <trackindex>2</trackindex>
              <clipindex>1</clipindex>
              <groupindex>1</groupindex>
            </link>
            <link>
              <linkclipref>clipitem-354</linkclipref>
              <mediatype>audio</mediatype>
              <trackindex>3</trackindex>
              <clipindex>1</clipindex>
              <groupindex>1</groupindex>
            </link>
            <link>
              <linkclipref>clipitem-355</linkclipref>
              <mediatype>audio</mediatype>
              <trackindex>4</trackindex>
              <clipindex>1</clipindex>
              <groupindex>1</groupindex>
            </link>
            <link>
              <linkclipref>clipitem-356</linkclipref>
              <mediatype>audio</mediatype>
              <trackindex>5</trackindex>
              <clipindex>1</clipindex>
              <groupindex>1</groupindex>
            </link>
            <link>
              <linkclipref>clipitem-357</linkclipref>
              <mediatype>audio</mediatype>
              <trackindex>6</trackindex>
              <clipindex>1</clipindex>
              <groupindex>1</groupindex>
            </link>
          </clipitem>
          <clipitem id="clipitem-362" premiereChannelType="Stereo">
            <masterclipid>masterclip-2</masterclipid>
            <name>2023-04-01 13-58-58溪神带飞王源5KCC.mp4</name>
            <enabled>TRUE</enabled>
            <rate>
              <timebase>60</timebase>
              <ntsc>FALSE</ntsc>
            </rate>
            <start>6977</start>
            <end>7192</end>
            <in>48926</in>
            <out>49141</out>
            <file id="file-2"/>
            <sourcetrack>
              <mediatype>audio</mediatype>
              <trackindex>2</trackindex>
            </sourcetrack>
            <link>
              <linkclipref>clipitem-358</linkclipref>
              <mediatype>video</mediatype>
              <trackindex>1</trackindex>
              <clipindex>1</clipindex>
            </link>
            <link>
              <linkclipref>clipitem-359</linkclipref>
              <mediatype>audio</mediatype>
              <trackindex>1</trackindex>
              <clipindex>1</clipindex>
              <groupindex>1</groupindex>
            </link>
            <link>
              <linkclipref>clipitem-360</linkclipref>
              <mediatype>audio</mediatype>
              <trackindex>2</trackindex>
              <clipindex>1</clipindex>
              <groupindex>1</groupindex>
            </link>
            <link>
              <linkclipref>clipitem-361</linkclipref>
              <mediatype>audio</mediatype>
              <trackindex>3</trackindex>
              <clipindex>1</clipindex>
              <groupindex>1</groupindex>
            </link>
            <link>
              <linkclipref>clipitem-362</linkclipref>
              <mediatype>audio</mediatype>
              <trackindex>4</trackindex>
              <clipindex>1</clipindex>
              <groupindex>1</groupindex>
            </link>
            <link>
              <linkclipref>clipitem-363</linkclipref>
              <mediatype>audio</mediatype>
              <trackindex>5</trackindex>
              <clipindex>1</clipindex>
              <groupindex>1</groupindex>
            </link>
            <link>
              <linkclipref>clipitem-364</linkclipref>
              <mediatype>audio</mediatype>
              <trackindex>6</trackindex>
              <clipindex>1</clipindex>
              <groupindex>1</groupindex>
            </link>
          </clipitem>
          <clipitem id="clipitem-369" premiereChannelType="Stereo">
            <masterclipid>masterclip-2</masterclipid>
            <name>2023-04-01 13-58-58溪神带飞王源5KCC.mp4</name>
            <enabled>TRUE</enabled>
            <rate>
              <timebase>60</timebase>
              <ntsc>FALSE</ntsc>
            </rate>
            <start>7192</start>
            <end>7401</end>
            <in>49153</in>
            <out>49362</out>
            <file id="file-2"/>
            <sourcetrack>
              <mediatype>audio</mediatype>
              <trackindex>2</trackindex>
            </sourcetrack>
            <link>
              <linkclipref>clipitem-365</linkclipref>
              <mediatype>video</mediatype>
              <trackindex>1</trackindex>
              <clipindex>1</clipindex>
            </link>
            <link>
              <linkclipref>clipitem-366</linkclipref>
              <mediatype>audio</mediatype>
              <trackindex>1</trackindex>
              <clipindex>1</clipindex>
              <groupindex>1</groupindex>
            </link>
            <link>
              <linkclipref>clipitem-367</linkclipref>
              <mediatype>audio</mediatype>
              <trackindex>2</trackindex>
              <clipindex>1</clipindex>
              <groupindex>1</groupindex>
            </link>
            <link>
              <linkclipref>clipitem-368</linkclipref>
              <mediatype>audio</mediatype>
              <trackindex>3</trackindex>
              <clipindex>1</clipindex>
              <groupindex>1</groupindex>
            </link>
            <link>
              <linkclipref>clipitem-369</linkclipref>
              <mediatype>audio</mediatype>
              <trackindex>4</trackindex>
              <clipindex>1</clipindex>
              <groupindex>1</groupindex>
            </link>
            <link>
              <linkclipref>clipitem-370</linkclipref>
              <mediatype>audio</mediatype>
              <trackindex>5</trackindex>
              <clipindex>1</clipindex>
              <groupindex>1</groupindex>
            </link>
            <link>
              <linkclipref>clipitem-371</linkclipref>
              <mediatype>audio</mediatype>
              <trackindex>6</trackindex>
              <clipindex>1</clipindex>
              <groupindex>1</groupindex>
            </link>
          </clipitem>
          <clipitem id="clipitem-376" premiereChannelType="Stereo">
            <masterclipid>masterclip-2</masterclipid>
            <name>2023-04-01 13-58-58溪神带飞王源5KCC.mp4</name>
            <enabled>TRUE</enabled>
            <rate>
              <timebase>60</timebase>
              <ntsc>FALSE</ntsc>
            </rate>
            <start>7401</start>
            <end>7529</end>
            <in>49768</in>
            <out>49896</out>
            <file id="file-2"/>
            <sourcetrack>
              <mediatype>audio</mediatype>
              <trackindex>2</trackindex>
            </sourcetrack>
            <link>
              <linkclipref>clipitem-372</linkclipref>
              <mediatype>video</mediatype>
              <trackindex>1</trackindex>
              <clipindex>1</clipindex>
            </link>
            <link>
              <linkclipref>clipitem-373</linkclipref>
              <mediatype>audio</mediatype>
              <trackindex>1</trackindex>
              <clipindex>1</clipindex>
              <groupindex>1</groupindex>
            </link>
            <link>
              <linkclipref>clipitem-374</linkclipref>
              <mediatype>audio</mediatype>
              <trackindex>2</trackindex>
              <clipindex>1</clipindex>
              <groupindex>1</groupindex>
            </link>
            <link>
              <linkclipref>clipitem-375</linkclipref>
              <mediatype>audio</mediatype>
              <trackindex>3</trackindex>
              <clipindex>1</clipindex>
              <groupindex>1</groupindex>
            </link>
            <link>
              <linkclipref>clipitem-376</linkclipref>
              <mediatype>audio</mediatype>
              <trackindex>4</trackindex>
              <clipindex>1</clipindex>
              <groupindex>1</groupindex>
            </link>
            <link>
              <linkclipref>clipitem-377</linkclipref>
              <mediatype>audio</mediatype>
              <trackindex>5</trackindex>
              <clipindex>1</clipindex>
              <groupindex>1</groupindex>
            </link>
            <link>
              <linkclipref>clipitem-378</linkclipref>
              <mediatype>audio</mediatype>
              <trackindex>6</trackindex>
              <clipindex>1</clipindex>
              <groupindex>1</groupindex>
            </link>
          </clipitem>
          <clipitem id="clipitem-383" premiereChannelType="Stereo">
            <masterclipid>masterclip-2</masterclipid>
            <name>2023-04-01 13-58-58溪神带飞王源5KCC.mp4</name>
            <enabled>TRUE</enabled>
            <rate>
              <timebase>60</timebase>
              <ntsc>FALSE</ntsc>
            </rate>
            <start>7529</start>
            <end>7724</end>
            <in>52898</in>
            <out>53093</out>
            <file id="file-2"/>
            <sourcetrack>
              <mediatype>audio</mediatype>
              <trackindex>2</trackindex>
            </sourcetrack>
            <link>
              <linkclipref>clipitem-379</linkclipref>
              <mediatype>video</mediatype>
              <trackindex>1</trackindex>
              <clipindex>1</clipindex>
            </link>
            <link>
              <linkclipref>clipitem-380</linkclipref>
              <mediatype>audio</mediatype>
              <trackindex>1</trackindex>
              <clipindex>1</clipindex>
              <groupindex>1</groupindex>
            </link>
            <link>
              <linkclipref>clipitem-381</linkclipref>
              <mediatype>audio</mediatype>
              <trackindex>2</trackindex>
              <clipindex>1</clipindex>
              <groupindex>1</groupindex>
            </link>
            <link>
              <linkclipref>clipitem-382</linkclipref>
              <mediatype>audio</mediatype>
              <trackindex>3</trackindex>
              <clipindex>1</clipindex>
              <groupindex>1</groupindex>
            </link>
            <link>
              <linkclipref>clipitem-383</linkclipref>
              <mediatype>audio</mediatype>
              <trackindex>4</trackindex>
              <clipindex>1</clipindex>
              <groupindex>1</groupindex>
            </link>
            <link>
              <linkclipref>clipitem-384</linkclipref>
              <mediatype>audio</mediatype>
              <trackindex>5</trackindex>
              <clipindex>1</clipindex>
              <groupindex>1</groupindex>
            </link>
            <link>
              <linkclipref>clipitem-385</linkclipref>
              <mediatype>audio</mediatype>
              <trackindex>6</trackindex>
              <clipindex>1</clipindex>
              <groupindex>1</groupindex>
            </link>
          </clipitem>
          <clipitem id="clipitem-390" premiereChannelType="Stereo">
            <masterclipid>masterclip-2</masterclipid>
            <name>2023-04-01 13-58-58溪神带飞王源5KCC.mp4</name>
            <enabled>TRUE</enabled>
            <rate>
              <timebase>60</timebase>
              <ntsc>FALSE</ntsc>
            </rate>
            <start>7724</start>
            <end>7856</end>
            <in>53201</in>
            <out>53333</out>
            <file id="file-2"/>
            <sourcetrack>
              <mediatype>audio</mediatype>
              <trackindex>2</trackindex>
            </sourcetrack>
            <link>
              <linkclipref>clipitem-386</linkclipref>
              <mediatype>video</mediatype>
              <trackindex>1</trackindex>
              <clipindex>1</clipindex>
            </link>
            <link>
              <linkclipref>clipitem-387</linkclipref>
              <mediatype>audio</mediatype>
              <trackindex>1</trackindex>
              <clipindex>1</clipindex>
              <groupindex>1</groupindex>
            </link>
            <link>
              <linkclipref>clipitem-388</linkclipref>
              <mediatype>audio</mediatype>
              <trackindex>2</trackindex>
              <clipindex>1</clipindex>
              <groupindex>1</groupindex>
            </link>
            <link>
              <linkclipref>clipitem-389</linkclipref>
              <mediatype>audio</mediatype>
              <trackindex>3</trackindex>
              <clipindex>1</clipindex>
              <groupindex>1</groupindex>
            </link>
            <link>
              <linkclipref>clipitem-390</linkclipref>
              <mediatype>audio</mediatype>
              <trackindex>4</trackindex>
              <clipindex>1</clipindex>
              <groupindex>1</groupindex>
            </link>
            <link>
              <linkclipref>clipitem-391</linkclipref>
              <mediatype>audio</mediatype>
              <trackindex>5</trackindex>
              <clipindex>1</clipindex>
              <groupindex>1</groupindex>
            </link>
            <link>
              <linkclipref>clipitem-392</linkclipref>
              <mediatype>audio</mediatype>
              <trackindex>6</trackindex>
              <clipindex>1</clipindex>
              <groupindex>1</groupindex>
            </link>
          </clipitem>
          <clipitem id="clipitem-397" premiereChannelType="Stereo">
            <masterclipid>masterclip-2</masterclipid>
            <name>2023-04-01 13-58-58溪神带飞王源5KCC.mp4</name>
            <enabled>TRUE</enabled>
            <rate>
              <timebase>60</timebase>
              <ntsc>FALSE</ntsc>
            </rate>
            <start>7856</start>
            <end>8015</end>
            <in>53758</in>
            <out>53917</out>
            <file id="file-2"/>
            <sourcetrack>
              <mediatype>audio</mediatype>
              <trackindex>2</trackindex>
            </sourcetrack>
            <link>
              <linkclipref>clipitem-393</linkclipref>
              <mediatype>video</mediatype>
              <trackindex>1</trackindex>
              <clipindex>1</clipindex>
            </link>
            <link>
              <linkclipref>clipitem-394</linkclipref>
              <mediatype>audio</mediatype>
              <trackindex>1</trackindex>
              <clipindex>1</clipindex>
              <groupindex>1</groupindex>
            </link>
            <link>
              <linkclipref>clipitem-395</linkclipref>
              <mediatype>audio</mediatype>
              <trackindex>2</trackindex>
              <clipindex>1</clipindex>
              <groupindex>1</groupindex>
            </link>
            <link>
              <linkclipref>clipitem-396</linkclipref>
              <mediatype>audio</mediatype>
              <trackindex>3</trackindex>
              <clipindex>1</clipindex>
              <groupindex>1</groupindex>
            </link>
            <link>
              <linkclipref>clipitem-397</linkclipref>
              <mediatype>audio</mediatype>
              <trackindex>4</trackindex>
              <clipindex>1</clipindex>
              <groupindex>1</groupindex>
            </link>
            <link>
              <linkclipref>clipitem-398</linkclipref>
              <mediatype>audio</mediatype>
              <trackindex>5</trackindex>
              <clipindex>1</clipindex>
              <groupindex>1</groupindex>
            </link>
            <link>
              <linkclipref>clipitem-399</linkclipref>
              <mediatype>audio</mediatype>
              <trackindex>6</trackindex>
              <clipindex>1</clipindex>
              <groupindex>1</groupindex>
            </link>
          </clipitem>
          <clipitem id="clipitem-404" premiereChannelType="Stereo">
            <masterclipid>masterclip-2</masterclipid>
            <name>2023-04-01 13-58-58溪神带飞王源5KCC.mp4</name>
            <enabled>TRUE</enabled>
            <rate>
              <timebase>60</timebase>
              <ntsc>FALSE</ntsc>
            </rate>
            <start>8015</start>
            <end>8211</end>
            <in>53964</in>
            <out>54160</out>
            <file id="file-2"/>
            <sourcetrack>
              <mediatype>audio</mediatype>
              <trackindex>2</trackindex>
            </sourcetrack>
            <link>
              <linkclipref>clipitem-400</linkclipref>
              <mediatype>video</mediatype>
              <trackindex>1</trackindex>
              <clipindex>1</clipindex>
            </link>
            <link>
              <linkclipref>clipitem-401</linkclipref>
              <mediatype>audio</mediatype>
              <trackindex>1</trackindex>
              <clipindex>1</clipindex>
              <groupindex>1</groupindex>
            </link>
            <link>
              <linkclipref>clipitem-402</linkclipref>
              <mediatype>audio</mediatype>
              <trackindex>2</trackindex>
              <clipindex>1</clipindex>
              <groupindex>1</groupindex>
            </link>
            <link>
              <linkclipref>clipitem-403</linkclipref>
              <mediatype>audio</mediatype>
              <trackindex>3</trackindex>
              <clipindex>1</clipindex>
              <groupindex>1</groupindex>
            </link>
            <link>
              <linkclipref>clipitem-404</linkclipref>
              <mediatype>audio</mediatype>
              <trackindex>4</trackindex>
              <clipindex>1</clipindex>
              <groupindex>1</groupindex>
            </link>
            <link>
              <linkclipref>clipitem-405</linkclipref>
              <mediatype>audio</mediatype>
              <trackindex>5</trackindex>
              <clipindex>1</clipindex>
              <groupindex>1</groupindex>
            </link>
            <link>
              <linkclipref>clipitem-406</linkclipref>
              <mediatype>audio</mediatype>
              <trackindex>6</trackindex>
              <clipindex>1</clipindex>
              <groupindex>1</groupindex>
            </link>
          </clipitem>
          <clipitem id="clipitem-411" premiereChannelType="Stereo">
            <masterclipid>masterclip-2</masterclipid>
            <name>2023-04-01 13-58-58溪神带飞王源5KCC.mp4</name>
            <enabled>TRUE</enabled>
            <rate>
              <timebase>60</timebase>
              <ntsc>FALSE</ntsc>
            </rate>
            <start>8211</start>
            <end>8325</end>
            <in>54222</in>
            <out>54336</out>
            <file id="file-2"/>
            <sourcetrack>
              <mediatype>audio</mediatype>
              <trackindex>2</trackindex>
            </sourcetrack>
            <link>
              <linkclipref>clipitem-407</linkclipref>
              <mediatype>video</mediatype>
              <trackindex>1</trackindex>
              <clipindex>1</clipindex>
            </link>
            <link>
              <linkclipref>clipitem-408</linkclipref>
              <mediatype>audio</mediatype>
              <trackindex>1</trackindex>
              <clipindex>1</clipindex>
              <groupindex>1</groupindex>
            </link>
            <link>
              <linkclipref>clipitem-409</linkclipref>
              <mediatype>audio</mediatype>
              <trackindex>2</trackindex>
              <clipindex>1</clipindex>
              <groupindex>1</groupindex>
            </link>
            <link>
              <linkclipref>clipitem-410</linkclipref>
              <mediatype>audio</mediatype>
              <trackindex>3</trackindex>
              <clipindex>1</clipindex>
              <groupindex>1</groupindex>
            </link>
            <link>
              <linkclipref>clipitem-411</linkclipref>
              <mediatype>audio</mediatype>
              <trackindex>4</trackindex>
              <clipindex>1</clipindex>
              <groupindex>1</groupindex>
            </link>
            <link>
              <linkclipref>clipitem-412</linkclipref>
              <mediatype>audio</mediatype>
              <trackindex>5</trackindex>
              <clipindex>1</clipindex>
              <groupindex>1</groupindex>
            </link>
            <link>
              <linkclipref>clipitem-413</linkclipref>
              <mediatype>audio</mediatype>
              <trackindex>6</trackindex>
              <clipindex>1</clipindex>
              <groupindex>1</groupindex>
            </link>
          </clipitem>
          <clipitem id="clipitem-418" premiereChannelType="Stereo">
            <masterclipid>masterclip-2</masterclipid>
            <name>2023-04-01 13-58-58溪神带飞王源5KCC.mp4</name>
            <enabled>TRUE</enabled>
            <rate>
              <timebase>60</timebase>
              <ntsc>FALSE</ntsc>
            </rate>
            <start>8325</start>
            <end>8452</end>
            <in>58783</in>
            <out>58910</out>
            <file id="file-2"/>
            <sourcetrack>
              <mediatype>audio</mediatype>
              <trackindex>2</trackindex>
            </sourcetrack>
            <link>
              <linkclipref>clipitem-414</linkclipref>
              <mediatype>video</mediatype>
              <trackindex>1</trackindex>
              <clipindex>1</clipindex>
            </link>
            <link>
              <linkclipref>clipitem-415</linkclipref>
              <mediatype>audio</mediatype>
              <trackindex>1</trackindex>
              <clipindex>1</clipindex>
              <groupindex>1</groupindex>
            </link>
            <link>
              <linkclipref>clipitem-416</linkclipref>
              <mediatype>audio</mediatype>
              <trackindex>2</trackindex>
              <clipindex>1</clipindex>
              <groupindex>1</groupindex>
            </link>
            <link>
              <linkclipref>clipitem-417</linkclipref>
              <mediatype>audio</mediatype>
              <trackindex>3</trackindex>
              <clipindex>1</clipindex>
              <groupindex>1</groupindex>
            </link>
            <link>
              <linkclipref>clipitem-418</linkclipref>
              <mediatype>audio</mediatype>
              <trackindex>4</trackindex>
              <clipindex>1</clipindex>
              <groupindex>1</groupindex>
            </link>
            <link>
              <linkclipref>clipitem-419</linkclipref>
              <mediatype>audio</mediatype>
              <trackindex>5</trackindex>
              <clipindex>1</clipindex>
              <groupindex>1</groupindex>
            </link>
            <link>
              <linkclipref>clipitem-420</linkclipref>
              <mediatype>audio</mediatype>
              <trackindex>6</trackindex>
              <clipindex>1</clipindex>
              <groupindex>1</groupindex>
            </link>
          </clipitem>
          <clipitem id="clipitem-425" premiereChannelType="Stereo">
            <masterclipid>masterclip-2</masterclipid>
            <name>2023-04-01 13-58-58溪神带飞王源5KCC.mp4</name>
            <enabled>TRUE</enabled>
            <rate>
              <timebase>60</timebase>
              <ntsc>FALSE</ntsc>
            </rate>
            <start>8452</start>
            <end>8604</end>
            <in>61335</in>
            <out>61487</out>
            <file id="file-2"/>
            <sourcetrack>
              <mediatype>audio</mediatype>
              <trackindex>2</trackindex>
            </sourcetrack>
            <link>
              <linkclipref>clipitem-421</linkclipref>
              <mediatype>video</mediatype>
              <trackindex>1</trackindex>
              <clipindex>1</clipindex>
            </link>
            <link>
              <linkclipref>clipitem-422</linkclipref>
              <mediatype>audio</mediatype>
              <trackindex>1</trackindex>
              <clipindex>1</clipindex>
              <groupindex>1</groupindex>
            </link>
            <link>
              <linkclipref>clipitem-423</linkclipref>
              <mediatype>audio</mediatype>
              <trackindex>2</trackindex>
              <clipindex>1</clipindex>
              <groupindex>1</groupindex>
            </link>
            <link>
              <linkclipref>clipitem-424</linkclipref>
              <mediatype>audio</mediatype>
              <trackindex>3</trackindex>
              <clipindex>1</clipindex>
              <groupindex>1</groupindex>
            </link>
            <link>
              <linkclipref>clipitem-425</linkclipref>
              <mediatype>audio</mediatype>
              <trackindex>4</trackindex>
              <clipindex>1</clipindex>
              <groupindex>1</groupindex>
            </link>
            <link>
              <linkclipref>clipitem-426</linkclipref>
              <mediatype>audio</mediatype>
              <trackindex>5</trackindex>
              <clipindex>1</clipindex>
              <groupindex>1</groupindex>
            </link>
            <link>
              <linkclipref>clipitem-427</linkclipref>
              <mediatype>audio</mediatype>
              <trackindex>6</trackindex>
              <clipindex>1</clipindex>
              <groupindex>1</groupindex>
            </link>
          </clipitem>
          <clipitem id="clipitem-432" premiereChannelType="Stereo">
            <masterclipid>masterclip-2</masterclipid>
            <name>2023-04-01 13-58-58溪神带飞王源5KCC.mp4</name>
            <enabled>TRUE</enabled>
            <rate>
              <timebase>60</timebase>
              <ntsc>FALSE</ntsc>
            </rate>
            <start>8604</start>
            <end>8663</end>
            <in>61479</in>
            <out>61538</out>
            <file id="file-2"/>
            <sourcetrack>
              <mediatype>audio</mediatype>
              <trackindex>2</trackindex>
            </sourcetrack>
            <link>
              <linkclipref>clipitem-428</linkclipref>
              <mediatype>video</mediatype>
              <trackindex>1</trackindex>
              <clipindex>1</clipindex>
            </link>
            <link>
              <linkclipref>clipitem-429</linkclipref>
              <mediatype>audio</mediatype>
              <trackindex>1</trackindex>
              <clipindex>1</clipindex>
              <groupindex>1</groupindex>
            </link>
            <link>
              <linkclipref>clipitem-430</linkclipref>
              <mediatype>audio</mediatype>
              <trackindex>2</trackindex>
              <clipindex>1</clipindex>
              <groupindex>1</groupindex>
            </link>
            <link>
              <linkclipref>clipitem-431</linkclipref>
              <mediatype>audio</mediatype>
              <trackindex>3</trackindex>
              <clipindex>1</clipindex>
              <groupindex>1</groupindex>
            </link>
            <link>
              <linkclipref>clipitem-432</linkclipref>
              <mediatype>audio</mediatype>
              <trackindex>4</trackindex>
              <clipindex>1</clipindex>
              <groupindex>1</groupindex>
            </link>
            <link>
              <linkclipref>clipitem-433</linkclipref>
              <mediatype>audio</mediatype>
              <trackindex>5</trackindex>
              <clipindex>1</clipindex>
              <groupindex>1</groupindex>
            </link>
            <link>
              <linkclipref>clipitem-434</linkclipref>
              <mediatype>audio</mediatype>
              <trackindex>6</trackindex>
              <clipindex>1</clipindex>
              <groupindex>1</groupindex>
            </link>
          </clipitem>
          <clipitem id="clipitem-439" premiereChannelType="Stereo">
            <masterclipid>masterclip-2</masterclipid>
            <name>2023-04-01 13-58-58溪神带飞王源5KCC.mp4</name>
            <enabled>TRUE</enabled>
            <rate>
              <timebase>60</timebase>
              <ntsc>FALSE</ntsc>
            </rate>
            <start>8663</start>
            <end>8756</end>
            <in>61668</in>
            <out>61761</out>
            <file id="file-2"/>
            <sourcetrack>
              <mediatype>audio</mediatype>
              <trackindex>2</trackindex>
            </sourcetrack>
            <link>
              <linkclipref>clipitem-435</linkclipref>
              <mediatype>video</mediatype>
              <trackindex>1</trackindex>
              <clipindex>1</clipindex>
            </link>
            <link>
              <linkclipref>clipitem-436</linkclipref>
              <mediatype>audio</mediatype>
              <trackindex>1</trackindex>
              <clipindex>1</clipindex>
              <groupindex>1</groupindex>
            </link>
            <link>
              <linkclipref>clipitem-437</linkclipref>
              <mediatype>audio</mediatype>
              <trackindex>2</trackindex>
              <clipindex>1</clipindex>
              <groupindex>1</groupindex>
            </link>
            <link>
              <linkclipref>clipitem-438</linkclipref>
              <mediatype>audio</mediatype>
              <trackindex>3</trackindex>
              <clipindex>1</clipindex>
              <groupindex>1</groupindex>
            </link>
            <link>
              <linkclipref>clipitem-439</linkclipref>
              <mediatype>audio</mediatype>
              <trackindex>4</trackindex>
              <clipindex>1</clipindex>
              <groupindex>1</groupindex>
            </link>
            <link>
              <linkclipref>clipitem-440</linkclipref>
              <mediatype>audio</mediatype>
              <trackindex>5</trackindex>
              <clipindex>1</clipindex>
              <groupindex>1</groupindex>
            </link>
            <link>
              <linkclipref>clipitem-441</linkclipref>
              <mediatype>audio</mediatype>
              <trackindex>6</trackindex>
              <clipindex>1</clipindex>
              <groupindex>1</groupindex>
            </link>
          </clipitem>
          <clipitem id="clipitem-446" premiereChannelType="Stereo">
            <masterclipid>masterclip-2</masterclipid>
            <name>2023-04-01 13-58-58溪神带飞王源5KCC.mp4</name>
            <enabled>TRUE</enabled>
            <rate>
              <timebase>60</timebase>
              <ntsc>FALSE</ntsc>
            </rate>
            <start>8756</start>
            <end>8834</end>
            <in>63731</in>
            <out>63809</out>
            <file id="file-2"/>
            <sourcetrack>
              <mediatype>audio</mediatype>
              <trackindex>2</trackindex>
            </sourcetrack>
            <link>
              <linkclipref>clipitem-442</linkclipref>
              <mediatype>video</mediatype>
              <trackindex>1</trackindex>
              <clipindex>1</clipindex>
            </link>
            <link>
              <linkclipref>clipitem-443</linkclipref>
              <mediatype>audio</mediatype>
              <trackindex>1</trackindex>
              <clipindex>1</clipindex>
              <groupindex>1</groupindex>
            </link>
            <link>
              <linkclipref>clipitem-444</linkclipref>
              <mediatype>audio</mediatype>
              <trackindex>2</trackindex>
              <clipindex>1</clipindex>
              <groupindex>1</groupindex>
            </link>
            <link>
              <linkclipref>clipitem-445</linkclipref>
              <mediatype>audio</mediatype>
              <trackindex>3</trackindex>
              <clipindex>1</clipindex>
              <groupindex>1</groupindex>
            </link>
            <link>
              <linkclipref>clipitem-446</linkclipref>
              <mediatype>audio</mediatype>
              <trackindex>4</trackindex>
              <clipindex>1</clipindex>
              <groupindex>1</groupindex>
            </link>
            <link>
              <linkclipref>clipitem-447</linkclipref>
              <mediatype>audio</mediatype>
              <trackindex>5</trackindex>
              <clipindex>1</clipindex>
              <groupindex>1</groupindex>
            </link>
            <link>
              <linkclipref>clipitem-448</linkclipref>
              <mediatype>audio</mediatype>
              <trackindex>6</trackindex>
              <clipindex>1</clipindex>
              <groupindex>1</groupindex>
            </link>
          </clipitem>
          <clipitem id="clipitem-453" premiereChannelType="Stereo">
            <masterclipid>masterclip-2</masterclipid>
            <name>2023-04-01 13-58-58溪神带飞王源5KCC.mp4</name>
            <enabled>TRUE</enabled>
            <rate>
              <timebase>60</timebase>
              <ntsc>FALSE</ntsc>
            </rate>
            <start>8834</start>
            <end>8926</end>
            <in>65937</in>
            <out>66029</out>
            <file id="file-2"/>
            <sourcetrack>
              <mediatype>audio</mediatype>
              <trackindex>2</trackindex>
            </sourcetrack>
            <link>
              <linkclipref>clipitem-449</linkclipref>
              <mediatype>video</mediatype>
              <trackindex>1</trackindex>
              <clipindex>1</clipindex>
            </link>
            <link>
              <linkclipref>clipitem-450</linkclipref>
              <mediatype>audio</mediatype>
              <trackindex>1</trackindex>
              <clipindex>1</clipindex>
              <groupindex>1</groupindex>
            </link>
            <link>
              <linkclipref>clipitem-451</linkclipref>
              <mediatype>audio</mediatype>
              <trackindex>2</trackindex>
              <clipindex>1</clipindex>
              <groupindex>1</groupindex>
            </link>
            <link>
              <linkclipref>clipitem-452</linkclipref>
              <mediatype>audio</mediatype>
              <trackindex>3</trackindex>
              <clipindex>1</clipindex>
              <groupindex>1</groupindex>
            </link>
            <link>
              <linkclipref>clipitem-453</linkclipref>
              <mediatype>audio</mediatype>
              <trackindex>4</trackindex>
              <clipindex>1</clipindex>
              <groupindex>1</groupindex>
            </link>
            <link>
              <linkclipref>clipitem-454</linkclipref>
              <mediatype>audio</mediatype>
              <trackindex>5</trackindex>
              <clipindex>1</clipindex>
              <groupindex>1</groupindex>
            </link>
            <link>
              <linkclipref>clipitem-455</linkclipref>
              <mediatype>audio</mediatype>
              <trackindex>6</trackindex>
              <clipindex>1</clipindex>
              <groupindex>1</groupindex>
            </link>
          </clipitem>
          <clipitem id="clipitem-460" premiereChannelType="Stereo">
            <masterclipid>masterclip-2</masterclipid>
            <name>2023-04-01 13-58-58溪神带飞王源5KCC.mp4</name>
            <enabled>TRUE</enabled>
            <rate>
              <timebase>60</timebase>
              <ntsc>FALSE</ntsc>
            </rate>
            <start>8926</start>
            <end>9026</end>
            <in>67489</in>
            <out>67589</out>
            <file id="file-2"/>
            <sourcetrack>
              <mediatype>audio</mediatype>
              <trackindex>2</trackindex>
            </sourcetrack>
            <link>
              <linkclipref>clipitem-456</linkclipref>
              <mediatype>video</mediatype>
              <trackindex>1</trackindex>
              <clipindex>1</clipindex>
            </link>
            <link>
              <linkclipref>clipitem-457</linkclipref>
              <mediatype>audio</mediatype>
              <trackindex>1</trackindex>
              <clipindex>1</clipindex>
              <groupindex>1</groupindex>
            </link>
            <link>
              <linkclipref>clipitem-458</linkclipref>
              <mediatype>audio</mediatype>
              <trackindex>2</trackindex>
              <clipindex>1</clipindex>
              <groupindex>1</groupindex>
            </link>
            <link>
              <linkclipref>clipitem-459</linkclipref>
              <mediatype>audio</mediatype>
              <trackindex>3</trackindex>
              <clipindex>1</clipindex>
              <groupindex>1</groupindex>
            </link>
            <link>
              <linkclipref>clipitem-460</linkclipref>
              <mediatype>audio</mediatype>
              <trackindex>4</trackindex>
              <clipindex>1</clipindex>
              <groupindex>1</groupindex>
            </link>
            <link>
              <linkclipref>clipitem-461</linkclipref>
              <mediatype>audio</mediatype>
              <trackindex>5</trackindex>
              <clipindex>1</clipindex>
              <groupindex>1</groupindex>
            </link>
            <link>
              <linkclipref>clipitem-462</linkclipref>
              <mediatype>audio</mediatype>
              <trackindex>6</trackindex>
              <clipindex>1</clipindex>
              <groupindex>1</groupindex>
            </link>
          </clipitem>
          <clipitem id="clipitem-467" premiereChannelType="Stereo">
            <masterclipid>masterclip-2</masterclipid>
            <name>2023-04-01 13-58-58溪神带飞王源5KCC.mp4</name>
            <enabled>TRUE</enabled>
            <rate>
              <timebase>60</timebase>
              <ntsc>FALSE</ntsc>
            </rate>
            <start>9026</start>
            <end>9186</end>
            <in>69990</in>
            <out>70150</out>
            <file id="file-2"/>
            <sourcetrack>
              <mediatype>audio</mediatype>
              <trackindex>2</trackindex>
            </sourcetrack>
            <link>
              <linkclipref>clipitem-463</linkclipref>
              <mediatype>video</mediatype>
              <trackindex>1</trackindex>
              <clipindex>1</clipindex>
            </link>
            <link>
              <linkclipref>clipitem-464</linkclipref>
              <mediatype>audio</mediatype>
              <trackindex>1</trackindex>
              <clipindex>1</clipindex>
              <groupindex>1</groupindex>
            </link>
            <link>
              <linkclipref>clipitem-465</linkclipref>
              <mediatype>audio</mediatype>
              <trackindex>2</trackindex>
              <clipindex>1</clipindex>
              <groupindex>1</groupindex>
            </link>
            <link>
              <linkclipref>clipitem-466</linkclipref>
              <mediatype>audio</mediatype>
              <trackindex>3</trackindex>
              <clipindex>1</clipindex>
              <groupindex>1</groupindex>
            </link>
            <link>
              <linkclipref>clipitem-467</linkclipref>
              <mediatype>audio</mediatype>
              <trackindex>4</trackindex>
              <clipindex>1</clipindex>
              <groupindex>1</groupindex>
            </link>
            <link>
              <linkclipref>clipitem-468</linkclipref>
              <mediatype>audio</mediatype>
              <trackindex>5</trackindex>
              <clipindex>1</clipindex>
              <groupindex>1</groupindex>
            </link>
            <link>
              <linkclipref>clipitem-469</linkclipref>
              <mediatype>audio</mediatype>
              <trackindex>6</trackindex>
              <clipindex>1</clipindex>
              <groupindex>1</groupindex>
            </link>
          </clipitem>
          <clipitem id="clipitem-474" premiereChannelType="Stereo">
            <masterclipid>masterclip-2</masterclipid>
            <name>2023-04-01 13-58-58溪神带飞王源5KCC.mp4</name>
            <enabled>TRUE</enabled>
            <rate>
              <timebase>60</timebase>
              <ntsc>FALSE</ntsc>
            </rate>
            <start>9186</start>
            <end>9346</end>
            <in>70337</in>
            <out>70497</out>
            <file id="file-2"/>
            <sourcetrack>
              <mediatype>audio</mediatype>
              <trackindex>2</trackindex>
            </sourcetrack>
            <link>
              <linkclipref>clipitem-470</linkclipref>
              <mediatype>video</mediatype>
              <trackindex>1</trackindex>
              <clipindex>1</clipindex>
            </link>
            <link>
              <linkclipref>clipitem-471</linkclipref>
              <mediatype>audio</mediatype>
              <trackindex>1</trackindex>
              <clipindex>1</clipindex>
              <groupindex>1</groupindex>
            </link>
            <link>
              <linkclipref>clipitem-472</linkclipref>
              <mediatype>audio</mediatype>
              <trackindex>2</trackindex>
              <clipindex>1</clipindex>
              <groupindex>1</groupindex>
            </link>
            <link>
              <linkclipref>clipitem-473</linkclipref>
              <mediatype>audio</mediatype>
              <trackindex>3</trackindex>
              <clipindex>1</clipindex>
              <groupindex>1</groupindex>
            </link>
            <link>
              <linkclipref>clipitem-474</linkclipref>
              <mediatype>audio</mediatype>
              <trackindex>4</trackindex>
              <clipindex>1</clipindex>
              <groupindex>1</groupindex>
            </link>
            <link>
              <linkclipref>clipitem-475</linkclipref>
              <mediatype>audio</mediatype>
              <trackindex>5</trackindex>
              <clipindex>1</clipindex>
              <groupindex>1</groupindex>
            </link>
            <link>
              <linkclipref>clipitem-476</linkclipref>
              <mediatype>audio</mediatype>
              <trackindex>6</trackindex>
              <clipindex>1</clipindex>
              <groupindex>1</groupindex>
            </link>
          </clipitem>
          <clipitem id="clipitem-481" premiereChannelType="Stereo">
            <masterclipid>masterclip-2</masterclipid>
            <name>2023-04-01 13-58-58溪神带飞王源5KCC.mp4</name>
            <enabled>TRUE</enabled>
            <rate>
              <timebase>60</timebase>
              <ntsc>FALSE</ntsc>
            </rate>
            <start>9346</start>
            <end>9428</end>
            <in>72878</in>
            <out>72960</out>
            <file id="file-2"/>
            <sourcetrack>
              <mediatype>audio</mediatype>
              <trackindex>2</trackindex>
            </sourcetrack>
            <link>
              <linkclipref>clipitem-477</linkclipref>
              <mediatype>video</mediatype>
              <trackindex>1</trackindex>
              <clipindex>1</clipindex>
            </link>
            <link>
              <linkclipref>clipitem-478</linkclipref>
              <mediatype>audio</mediatype>
              <trackindex>1</trackindex>
              <clipindex>1</clipindex>
              <groupindex>1</groupindex>
            </link>
            <link>
              <linkclipref>clipitem-479</linkclipref>
              <mediatype>audio</mediatype>
              <trackindex>2</trackindex>
              <clipindex>1</clipindex>
              <groupindex>1</groupindex>
            </link>
            <link>
              <linkclipref>clipitem-480</linkclipref>
              <mediatype>audio</mediatype>
              <trackindex>3</trackindex>
              <clipindex>1</clipindex>
              <groupindex>1</groupindex>
            </link>
            <link>
              <linkclipref>clipitem-481</linkclipref>
              <mediatype>audio</mediatype>
              <trackindex>4</trackindex>
              <clipindex>1</clipindex>
              <groupindex>1</groupindex>
            </link>
            <link>
              <linkclipref>clipitem-482</linkclipref>
              <mediatype>audio</mediatype>
              <trackindex>5</trackindex>
              <clipindex>1</clipindex>
              <groupindex>1</groupindex>
            </link>
            <link>
              <linkclipref>clipitem-483</linkclipref>
              <mediatype>audio</mediatype>
              <trackindex>6</trackindex>
              <clipindex>1</clipindex>
              <groupindex>1</groupindex>
            </link>
          </clipitem>
          <clipitem id="clipitem-488" premiereChannelType="Stereo">
            <masterclipid>masterclip-3</masterclipid>
            <name>2023-03-30 21-15-31艾许决赛圈2V6 8KCC.mp4</name>
            <enabled>TRUE</enabled>
            <rate>
              <timebase>60</timebase>
              <ntsc>FALSE</ntsc>
            </rate>
            <start>9428</start>
            <end>9920</end>
            <in>3281</in>
            <out>3773</out>
            <file id="file-3"/>
            <sourcetrack>
              <mediatype>audio</mediatype>
              <trackindex>2</trackindex>
            </sourcetrack>
            <link>
              <linkclipref>clipitem-484</linkclipref>
              <mediatype>video</mediatype>
              <trackindex>1</trackindex>
              <clipindex>1</clipindex>
            </link>
            <link>
              <linkclipref>clipitem-485</linkclipref>
              <mediatype>audio</mediatype>
              <trackindex>1</trackindex>
              <clipindex>1</clipindex>
              <groupindex>1</groupindex>
            </link>
            <link>
              <linkclipref>clipitem-486</linkclipref>
              <mediatype>audio</mediatype>
              <trackindex>2</trackindex>
              <clipindex>1</clipindex>
              <groupindex>1</groupindex>
            </link>
            <link>
              <linkclipref>clipitem-487</linkclipref>
              <mediatype>audio</mediatype>
              <trackindex>3</trackindex>
              <clipindex>1</clipindex>
              <groupindex>1</groupindex>
            </link>
            <link>
              <linkclipref>clipitem-488</linkclipref>
              <mediatype>audio</mediatype>
              <trackindex>4</trackindex>
              <clipindex>1</clipindex>
              <groupindex>1</groupindex>
            </link>
            <link>
              <linkclipref>clipitem-489</linkclipref>
              <mediatype>audio</mediatype>
              <trackindex>5</trackindex>
              <clipindex>1</clipindex>
              <groupindex>1</groupindex>
            </link>
            <link>
              <linkclipref>clipitem-490</linkclipref>
              <mediatype>audio</mediatype>
              <trackindex>6</trackindex>
              <clipindex>1</clipindex>
              <groupindex>1</groupindex>
            </link>
          </clipitem>
          <clipitem id="clipitem-495" premiereChannelType="Stereo">
            <masterclipid>masterclip-3</masterclipid>
            <name>2023-03-30 21-15-31艾许决赛圈2V6 8KCC.mp4</name>
            <enabled>TRUE</enabled>
            <rate>
              <timebase>60</timebase>
              <ntsc>FALSE</ntsc>
            </rate>
            <start>9920</start>
            <end>10196</end>
            <in>7193</in>
            <out>7469</out>
            <file id="file-3"/>
            <sourcetrack>
              <mediatype>audio</mediatype>
              <trackindex>2</trackindex>
            </sourcetrack>
            <link>
              <linkclipref>clipitem-491</linkclipref>
              <mediatype>video</mediatype>
              <trackindex>1</trackindex>
              <clipindex>1</clipindex>
            </link>
            <link>
              <linkclipref>clipitem-492</linkclipref>
              <mediatype>audio</mediatype>
              <trackindex>1</trackindex>
              <clipindex>1</clipindex>
              <groupindex>1</groupindex>
            </link>
            <link>
              <linkclipref>clipitem-493</linkclipref>
              <mediatype>audio</mediatype>
              <trackindex>2</trackindex>
              <clipindex>1</clipindex>
              <groupindex>1</groupindex>
            </link>
            <link>
              <linkclipref>clipitem-494</linkclipref>
              <mediatype>audio</mediatype>
              <trackindex>3</trackindex>
              <clipindex>1</clipindex>
              <groupindex>1</groupindex>
            </link>
            <link>
              <linkclipref>clipitem-495</linkclipref>
              <mediatype>audio</mediatype>
              <trackindex>4</trackindex>
              <clipindex>1</clipindex>
              <groupindex>1</groupindex>
            </link>
            <link>
              <linkclipref>clipitem-496</linkclipref>
              <mediatype>audio</mediatype>
              <trackindex>5</trackindex>
              <clipindex>1</clipindex>
              <groupindex>1</groupindex>
            </link>
            <link>
              <linkclipref>clipitem-497</linkclipref>
              <mediatype>audio</mediatype>
              <trackindex>6</trackindex>
              <clipindex>1</clipindex>
              <groupindex>1</groupindex>
            </link>
          </clipitem>
          <clipitem id="clipitem-502" premiereChannelType="Stereo">
            <masterclipid>masterclip-3</masterclipid>
            <name>2023-03-30 21-15-31艾许决赛圈2V6 8KCC.mp4</name>
            <enabled>TRUE</enabled>
            <rate>
              <timebase>60</timebase>
              <ntsc>FALSE</ntsc>
            </rate>
            <start>10196</start>
            <end>10286</end>
            <in>7646</in>
            <out>7736</out>
            <file id="file-3"/>
            <sourcetrack>
              <mediatype>audio</mediatype>
              <trackindex>2</trackindex>
            </sourcetrack>
            <link>
              <linkclipref>clipitem-498</linkclipref>
              <mediatype>video</mediatype>
              <trackindex>1</trackindex>
              <clipindex>1</clipindex>
            </link>
            <link>
              <linkclipref>clipitem-499</linkclipref>
              <mediatype>audio</mediatype>
              <trackindex>1</trackindex>
              <clipindex>1</clipindex>
              <groupindex>1</groupindex>
            </link>
            <link>
              <linkclipref>clipitem-500</linkclipref>
              <mediatype>audio</mediatype>
              <trackindex>2</trackindex>
              <clipindex>1</clipindex>
              <groupindex>1</groupindex>
            </link>
            <link>
              <linkclipref>clipitem-501</linkclipref>
              <mediatype>audio</mediatype>
              <trackindex>3</trackindex>
              <clipindex>1</clipindex>
              <groupindex>1</groupindex>
            </link>
            <link>
              <linkclipref>clipitem-502</linkclipref>
              <mediatype>audio</mediatype>
              <trackindex>4</trackindex>
              <clipindex>1</clipindex>
              <groupindex>1</groupindex>
            </link>
            <link>
              <linkclipref>clipitem-503</linkclipref>
              <mediatype>audio</mediatype>
              <trackindex>5</trackindex>
              <clipindex>1</clipindex>
              <groupindex>1</groupindex>
            </link>
            <link>
              <linkclipref>clipitem-504</linkclipref>
              <mediatype>audio</mediatype>
              <trackindex>6</trackindex>
              <clipindex>1</clipindex>
              <groupindex>1</groupindex>
            </link>
          </clipitem>
          <clipitem id="clipitem-509" premiereChannelType="Stereo">
            <masterclipid>masterclip-3</masterclipid>
            <name>2023-03-30 21-15-31艾许决赛圈2V6 8KCC.mp4</name>
            <enabled>TRUE</enabled>
            <rate>
              <timebase>60</timebase>
              <ntsc>FALSE</ntsc>
            </rate>
            <start>10286</start>
            <end>10401</end>
            <in>7813</in>
            <out>7928</out>
            <file id="file-3"/>
            <sourcetrack>
              <mediatype>audio</mediatype>
              <trackindex>2</trackindex>
            </sourcetrack>
            <link>
              <linkclipref>clipitem-505</linkclipref>
              <mediatype>video</mediatype>
              <trackindex>1</trackindex>
              <clipindex>1</clipindex>
            </link>
            <link>
              <linkclipref>clipitem-506</linkclipref>
              <mediatype>audio</mediatype>
              <trackindex>1</trackindex>
              <clipindex>1</clipindex>
              <groupindex>1</groupindex>
            </link>
            <link>
              <linkclipref>clipitem-507</linkclipref>
              <mediatype>audio</mediatype>
              <trackindex>2</trackindex>
              <clipindex>1</clipindex>
              <groupindex>1</groupindex>
            </link>
            <link>
              <linkclipref>clipitem-508</linkclipref>
              <mediatype>audio</mediatype>
              <trackindex>3</trackindex>
              <clipindex>1</clipindex>
              <groupindex>1</groupindex>
            </link>
            <link>
              <linkclipref>clipitem-509</linkclipref>
              <mediatype>audio</mediatype>
              <trackindex>4</trackindex>
              <clipindex>1</clipindex>
              <groupindex>1</groupindex>
            </link>
            <link>
              <linkclipref>clipitem-510</linkclipref>
              <mediatype>audio</mediatype>
              <trackindex>5</trackindex>
              <clipindex>1</clipindex>
              <groupindex>1</groupindex>
            </link>
            <link>
              <linkclipref>clipitem-511</linkclipref>
              <mediatype>audio</mediatype>
              <trackindex>6</trackindex>
              <clipindex>1</clipindex>
              <groupindex>1</groupindex>
            </link>
          </clipitem>
          <clipitem id="clipitem-516" premiereChannelType="Stereo">
            <masterclipid>masterclip-3</masterclipid>
            <name>2023-03-30 21-15-31艾许决赛圈2V6 8KCC.mp4</name>
            <enabled>TRUE</enabled>
            <rate>
              <timebase>60</timebase>
              <ntsc>FALSE</ntsc>
            </rate>
            <start>10401</start>
            <end>10519</end>
            <in>9404</in>
            <out>9522</out>
            <file id="file-3"/>
            <sourcetrack>
              <mediatype>audio</mediatype>
              <trackindex>2</trackindex>
            </sourcetrack>
            <link>
              <linkclipref>clipitem-512</linkclipref>
              <mediatype>video</mediatype>
              <trackindex>1</trackindex>
              <clipindex>1</clipindex>
            </link>
            <link>
              <linkclipref>clipitem-513</linkclipref>
              <mediatype>audio</mediatype>
              <trackindex>1</trackindex>
              <clipindex>1</clipindex>
              <groupindex>1</groupindex>
            </link>
            <link>
              <linkclipref>clipitem-514</linkclipref>
              <mediatype>audio</mediatype>
              <trackindex>2</trackindex>
              <clipindex>1</clipindex>
              <groupindex>1</groupindex>
            </link>
            <link>
              <linkclipref>clipitem-515</linkclipref>
              <mediatype>audio</mediatype>
              <trackindex>3</trackindex>
              <clipindex>1</clipindex>
              <groupindex>1</groupindex>
            </link>
            <link>
              <linkclipref>clipitem-516</linkclipref>
              <mediatype>audio</mediatype>
              <trackindex>4</trackindex>
              <clipindex>1</clipindex>
              <groupindex>1</groupindex>
            </link>
            <link>
              <linkclipref>clipitem-517</linkclipref>
              <mediatype>audio</mediatype>
              <trackindex>5</trackindex>
              <clipindex>1</clipindex>
              <groupindex>1</groupindex>
            </link>
            <link>
              <linkclipref>clipitem-518</linkclipref>
              <mediatype>audio</mediatype>
              <trackindex>6</trackindex>
              <clipindex>1</clipindex>
              <groupindex>1</groupindex>
            </link>
          </clipitem>
          <clipitem id="clipitem-523" premiereChannelType="Stereo">
            <masterclipid>masterclip-3</masterclipid>
            <name>2023-03-30 21-15-31艾许决赛圈2V6 8KCC.mp4</name>
            <enabled>TRUE</enabled>
            <rate>
              <timebase>60</timebase>
              <ntsc>FALSE</ntsc>
            </rate>
            <start>10519</start>
            <end>10600</end>
            <in>9637</in>
            <out>9718</out>
            <file id="file-3"/>
            <sourcetrack>
              <mediatype>audio</mediatype>
              <trackindex>2</trackindex>
            </sourcetrack>
            <link>
              <linkclipref>clipitem-519</linkclipref>
              <mediatype>video</mediatype>
              <trackindex>1</trackindex>
              <clipindex>1</clipindex>
            </link>
            <link>
              <linkclipref>clipitem-520</linkclipref>
              <mediatype>audio</mediatype>
              <trackindex>1</trackindex>
              <clipindex>1</clipindex>
              <groupindex>1</groupindex>
            </link>
            <link>
              <linkclipref>clipitem-521</linkclipref>
              <mediatype>audio</mediatype>
              <trackindex>2</trackindex>
              <clipindex>1</clipindex>
              <groupindex>1</groupindex>
            </link>
            <link>
              <linkclipref>clipitem-522</linkclipref>
              <mediatype>audio</mediatype>
              <trackindex>3</trackindex>
              <clipindex>1</clipindex>
              <groupindex>1</groupindex>
            </link>
            <link>
              <linkclipref>clipitem-523</linkclipref>
              <mediatype>audio</mediatype>
              <trackindex>4</trackindex>
              <clipindex>1</clipindex>
              <groupindex>1</groupindex>
            </link>
            <link>
              <linkclipref>clipitem-524</linkclipref>
              <mediatype>audio</mediatype>
              <trackindex>5</trackindex>
              <clipindex>1</clipindex>
              <groupindex>1</groupindex>
            </link>
            <link>
              <linkclipref>clipitem-525</linkclipref>
              <mediatype>audio</mediatype>
              <trackindex>6</trackindex>
              <clipindex>1</clipindex>
              <groupindex>1</groupindex>
            </link>
          </clipitem>
          <clipitem id="clipitem-530" premiereChannelType="Stereo">
            <masterclipid>masterclip-3</masterclipid>
            <name>2023-03-30 21-15-31艾许决赛圈2V6 8KCC.mp4</name>
            <enabled>TRUE</enabled>
            <rate>
              <timebase>60</timebase>
              <ntsc>FALSE</ntsc>
            </rate>
            <start>10600</start>
            <end>10751</end>
            <in>10314</in>
            <out>10465</out>
            <file id="file-3"/>
            <sourcetrack>
              <mediatype>audio</mediatype>
              <trackindex>2</trackindex>
            </sourcetrack>
            <link>
              <linkclipref>clipitem-526</linkclipref>
              <mediatype>video</mediatype>
              <trackindex>1</trackindex>
              <clipindex>1</clipindex>
            </link>
            <link>
              <linkclipref>clipitem-527</linkclipref>
              <mediatype>audio</mediatype>
              <trackindex>1</trackindex>
              <clipindex>1</clipindex>
              <groupindex>1</groupindex>
            </link>
            <link>
              <linkclipref>clipitem-528</linkclipref>
              <mediatype>audio</mediatype>
              <trackindex>2</trackindex>
              <clipindex>1</clipindex>
              <groupindex>1</groupindex>
            </link>
            <link>
              <linkclipref>clipitem-529</linkclipref>
              <mediatype>audio</mediatype>
              <trackindex>3</trackindex>
              <clipindex>1</clipindex>
              <groupindex>1</groupindex>
            </link>
            <link>
              <linkclipref>clipitem-530</linkclipref>
              <mediatype>audio</mediatype>
              <trackindex>4</trackindex>
              <clipindex>1</clipindex>
              <groupindex>1</groupindex>
            </link>
            <link>
              <linkclipref>clipitem-531</linkclipref>
              <mediatype>audio</mediatype>
              <trackindex>5</trackindex>
              <clipindex>1</clipindex>
              <groupindex>1</groupindex>
            </link>
            <link>
              <linkclipref>clipitem-532</linkclipref>
              <mediatype>audio</mediatype>
              <trackindex>6</trackindex>
              <clipindex>1</clipindex>
              <groupindex>1</groupindex>
            </link>
          </clipitem>
          <clipitem id="clipitem-537" premiereChannelType="Stereo">
            <masterclipid>masterclip-3</masterclipid>
            <name>2023-03-30 21-15-31艾许决赛圈2V6 8KCC.mp4</name>
            <enabled>TRUE</enabled>
            <rate>
              <timebase>60</timebase>
              <ntsc>FALSE</ntsc>
            </rate>
            <start>10751</start>
            <end>10883</end>
            <in>10779</in>
            <out>10911</out>
            <file id="file-3"/>
            <sourcetrack>
              <mediatype>audio</mediatype>
              <trackindex>2</trackindex>
            </sourcetrack>
            <link>
              <linkclipref>clipitem-533</linkclipref>
              <mediatype>video</mediatype>
              <trackindex>1</trackindex>
              <clipindex>1</clipindex>
            </link>
            <link>
              <linkclipref>clipitem-534</linkclipref>
              <mediatype>audio</mediatype>
              <trackindex>1</trackindex>
              <clipindex>1</clipindex>
              <groupindex>1</groupindex>
            </link>
            <link>
              <linkclipref>clipitem-535</linkclipref>
              <mediatype>audio</mediatype>
              <trackindex>2</trackindex>
              <clipindex>1</clipindex>
              <groupindex>1</groupindex>
            </link>
            <link>
              <linkclipref>clipitem-536</linkclipref>
              <mediatype>audio</mediatype>
              <trackindex>3</trackindex>
              <clipindex>1</clipindex>
              <groupindex>1</groupindex>
            </link>
            <link>
              <linkclipref>clipitem-537</linkclipref>
              <mediatype>audio</mediatype>
              <trackindex>4</trackindex>
              <clipindex>1</clipindex>
              <groupindex>1</groupindex>
            </link>
            <link>
              <linkclipref>clipitem-538</linkclipref>
              <mediatype>audio</mediatype>
              <trackindex>5</trackindex>
              <clipindex>1</clipindex>
              <groupindex>1</groupindex>
            </link>
            <link>
              <linkclipref>clipitem-539</linkclipref>
              <mediatype>audio</mediatype>
              <trackindex>6</trackindex>
              <clipindex>1</clipindex>
              <groupindex>1</groupindex>
            </link>
          </clipitem>
          <clipitem id="clipitem-544" premiereChannelType="Stereo">
            <masterclipid>masterclip-3</masterclipid>
            <name>2023-03-30 21-15-31艾许决赛圈2V6 8KCC.mp4</name>
            <enabled>TRUE</enabled>
            <rate>
              <timebase>60</timebase>
              <ntsc>FALSE</ntsc>
            </rate>
            <start>10883</start>
            <end>10966</end>
            <in>10974</in>
            <out>11057</out>
            <file id="file-3"/>
            <sourcetrack>
              <mediatype>audio</mediatype>
              <trackindex>2</trackindex>
            </sourcetrack>
            <link>
              <linkclipref>clipitem-540</linkclipref>
              <mediatype>video</mediatype>
              <trackindex>1</trackindex>
              <clipindex>1</clipindex>
            </link>
            <link>
              <linkclipref>clipitem-541</linkclipref>
              <mediatype>audio</mediatype>
              <trackindex>1</trackindex>
              <clipindex>1</clipindex>
              <groupindex>1</groupindex>
            </link>
            <link>
              <linkclipref>clipitem-542</linkclipref>
              <mediatype>audio</mediatype>
              <trackindex>2</trackindex>
              <clipindex>1</clipindex>
              <groupindex>1</groupindex>
            </link>
            <link>
              <linkclipref>clipitem-543</linkclipref>
              <mediatype>audio</mediatype>
              <trackindex>3</trackindex>
              <clipindex>1</clipindex>
              <groupindex>1</groupindex>
            </link>
            <link>
              <linkclipref>clipitem-544</linkclipref>
              <mediatype>audio</mediatype>
              <trackindex>4</trackindex>
              <clipindex>1</clipindex>
              <groupindex>1</groupindex>
            </link>
            <link>
              <linkclipref>clipitem-545</linkclipref>
              <mediatype>audio</mediatype>
              <trackindex>5</trackindex>
              <clipindex>1</clipindex>
              <groupindex>1</groupindex>
            </link>
            <link>
              <linkclipref>clipitem-546</linkclipref>
              <mediatype>audio</mediatype>
              <trackindex>6</trackindex>
              <clipindex>1</clipindex>
              <groupindex>1</groupindex>
            </link>
          </clipitem>
          <clipitem id="clipitem-551" premiereChannelType="Stereo">
            <masterclipid>masterclip-3</masterclipid>
            <name>2023-03-30 21-15-31艾许决赛圈2V6 8KCC.mp4</name>
            <enabled>TRUE</enabled>
            <rate>
              <timebase>60</timebase>
              <ntsc>FALSE</ntsc>
            </rate>
            <start>10966</start>
            <end>11074</end>
            <in>11992</in>
            <out>12100</out>
            <file id="file-3"/>
            <sourcetrack>
              <mediatype>audio</mediatype>
              <trackindex>2</trackindex>
            </sourcetrack>
            <link>
              <linkclipref>clipitem-547</linkclipref>
              <mediatype>video</mediatype>
              <trackindex>1</trackindex>
              <clipindex>1</clipindex>
            </link>
            <link>
              <linkclipref>clipitem-548</linkclipref>
              <mediatype>audio</mediatype>
              <trackindex>1</trackindex>
              <clipindex>1</clipindex>
              <groupindex>1</groupindex>
            </link>
            <link>
              <linkclipref>clipitem-549</linkclipref>
              <mediatype>audio</mediatype>
              <trackindex>2</trackindex>
              <clipindex>1</clipindex>
              <groupindex>1</groupindex>
            </link>
            <link>
              <linkclipref>clipitem-550</linkclipref>
              <mediatype>audio</mediatype>
              <trackindex>3</trackindex>
              <clipindex>1</clipindex>
              <groupindex>1</groupindex>
            </link>
            <link>
              <linkclipref>clipitem-551</linkclipref>
              <mediatype>audio</mediatype>
              <trackindex>4</trackindex>
              <clipindex>1</clipindex>
              <groupindex>1</groupindex>
            </link>
            <link>
              <linkclipref>clipitem-552</linkclipref>
              <mediatype>audio</mediatype>
              <trackindex>5</trackindex>
              <clipindex>1</clipindex>
              <groupindex>1</groupindex>
            </link>
            <link>
              <linkclipref>clipitem-553</linkclipref>
              <mediatype>audio</mediatype>
              <trackindex>6</trackindex>
              <clipindex>1</clipindex>
              <groupindex>1</groupindex>
            </link>
          </clipitem>
          <clipitem id="clipitem-558" premiereChannelType="Stereo">
            <masterclipid>masterclip-3</masterclipid>
            <name>2023-03-30 21-15-31艾许决赛圈2V6 8KCC.mp4</name>
            <enabled>TRUE</enabled>
            <rate>
              <timebase>60</timebase>
              <ntsc>FALSE</ntsc>
            </rate>
            <start>11074</start>
            <end>11182</end>
            <in>12377</in>
            <out>12485</out>
            <file id="file-3"/>
            <sourcetrack>
              <mediatype>audio</mediatype>
              <trackindex>2</trackindex>
            </sourcetrack>
            <link>
              <linkclipref>clipitem-554</linkclipref>
              <mediatype>video</mediatype>
              <trackindex>1</trackindex>
              <clipindex>1</clipindex>
            </link>
            <link>
              <linkclipref>clipitem-555</linkclipref>
              <mediatype>audio</mediatype>
              <trackindex>1</trackindex>
              <clipindex>1</clipindex>
              <groupindex>1</groupindex>
            </link>
            <link>
              <linkclipref>clipitem-556</linkclipref>
              <mediatype>audio</mediatype>
              <trackindex>2</trackindex>
              <clipindex>1</clipindex>
              <groupindex>1</groupindex>
            </link>
            <link>
              <linkclipref>clipitem-557</linkclipref>
              <mediatype>audio</mediatype>
              <trackindex>3</trackindex>
              <clipindex>1</clipindex>
              <groupindex>1</groupindex>
            </link>
            <link>
              <linkclipref>clipitem-558</linkclipref>
              <mediatype>audio</mediatype>
              <trackindex>4</trackindex>
              <clipindex>1</clipindex>
              <groupindex>1</groupindex>
            </link>
            <link>
              <linkclipref>clipitem-559</linkclipref>
              <mediatype>audio</mediatype>
              <trackindex>5</trackindex>
              <clipindex>1</clipindex>
              <groupindex>1</groupindex>
            </link>
            <link>
              <linkclipref>clipitem-560</linkclipref>
              <mediatype>audio</mediatype>
              <trackindex>6</trackindex>
              <clipindex>1</clipindex>
              <groupindex>1</groupindex>
            </link>
          </clipitem>
          <clipitem id="clipitem-565" premiereChannelType="Stereo">
            <masterclipid>masterclip-3</masterclipid>
            <name>2023-03-30 21-15-31艾许决赛圈2V6 8KCC.mp4</name>
            <enabled>TRUE</enabled>
            <rate>
              <timebase>60</timebase>
              <ntsc>FALSE</ntsc>
            </rate>
            <start>11182</start>
            <end>11342</end>
            <in>13849</in>
            <out>14009</out>
            <file id="file-3"/>
            <sourcetrack>
              <mediatype>audio</mediatype>
              <trackindex>2</trackindex>
            </sourcetrack>
            <link>
              <linkclipref>clipitem-561</linkclipref>
              <mediatype>video</mediatype>
              <trackindex>1</trackindex>
              <clipindex>1</clipindex>
            </link>
            <link>
              <linkclipref>clipitem-562</linkclipref>
              <mediatype>audio</mediatype>
              <trackindex>1</trackindex>
              <clipindex>1</clipindex>
              <groupindex>1</groupindex>
            </link>
            <link>
              <linkclipref>clipitem-563</linkclipref>
              <mediatype>audio</mediatype>
              <trackindex>2</trackindex>
              <clipindex>1</clipindex>
              <groupindex>1</groupindex>
            </link>
            <link>
              <linkclipref>clipitem-564</linkclipref>
              <mediatype>audio</mediatype>
              <trackindex>3</trackindex>
              <clipindex>1</clipindex>
              <groupindex>1</groupindex>
            </link>
            <link>
              <linkclipref>clipitem-565</linkclipref>
              <mediatype>audio</mediatype>
              <trackindex>4</trackindex>
              <clipindex>1</clipindex>
              <groupindex>1</groupindex>
            </link>
            <link>
              <linkclipref>clipitem-566</linkclipref>
              <mediatype>audio</mediatype>
              <trackindex>5</trackindex>
              <clipindex>1</clipindex>
              <groupindex>1</groupindex>
            </link>
            <link>
              <linkclipref>clipitem-567</linkclipref>
              <mediatype>audio</mediatype>
              <trackindex>6</trackindex>
              <clipindex>1</clipindex>
              <groupindex>1</groupindex>
            </link>
          </clipitem>
          <clipitem id="clipitem-572" premiereChannelType="Stereo">
            <masterclipid>masterclip-3</masterclipid>
            <name>2023-03-30 21-15-31艾许决赛圈2V6 8KCC.mp4</name>
            <enabled>TRUE</enabled>
            <rate>
              <timebase>60</timebase>
              <ntsc>FALSE</ntsc>
            </rate>
            <start>11342</start>
            <end>11465</end>
            <in>14114</in>
            <out>14237</out>
            <file id="file-3"/>
            <sourcetrack>
              <mediatype>audio</mediatype>
              <trackindex>2</trackindex>
            </sourcetrack>
            <link>
              <linkclipref>clipitem-568</linkclipref>
              <mediatype>video</mediatype>
              <trackindex>1</trackindex>
              <clipindex>1</clipindex>
            </link>
            <link>
              <linkclipref>clipitem-569</linkclipref>
              <mediatype>audio</mediatype>
              <trackindex>1</trackindex>
              <clipindex>1</clipindex>
              <groupindex>1</groupindex>
            </link>
            <link>
              <linkclipref>clipitem-570</linkclipref>
              <mediatype>audio</mediatype>
              <trackindex>2</trackindex>
              <clipindex>1</clipindex>
              <groupindex>1</groupindex>
            </link>
            <link>
              <linkclipref>clipitem-571</linkclipref>
              <mediatype>audio</mediatype>
              <trackindex>3</trackindex>
              <clipindex>1</clipindex>
              <groupindex>1</groupindex>
            </link>
            <link>
              <linkclipref>clipitem-572</linkclipref>
              <mediatype>audio</mediatype>
              <trackindex>4</trackindex>
              <clipindex>1</clipindex>
              <groupindex>1</groupindex>
            </link>
            <link>
              <linkclipref>clipitem-573</linkclipref>
              <mediatype>audio</mediatype>
              <trackindex>5</trackindex>
              <clipindex>1</clipindex>
              <groupindex>1</groupindex>
            </link>
            <link>
              <linkclipref>clipitem-574</linkclipref>
              <mediatype>audio</mediatype>
              <trackindex>6</trackindex>
              <clipindex>1</clipindex>
              <groupindex>1</groupindex>
            </link>
          </clipitem>
          <clipitem id="clipitem-579" premiereChannelType="Stereo">
            <masterclipid>masterclip-3</masterclipid>
            <name>2023-03-30 21-15-31艾许决赛圈2V6 8KCC.mp4</name>
            <enabled>TRUE</enabled>
            <rate>
              <timebase>60</timebase>
              <ntsc>FALSE</ntsc>
            </rate>
            <start>11465</start>
            <end>11536</end>
            <in>14267</in>
            <out>14338</out>
            <file id="file-3"/>
            <sourcetrack>
              <mediatype>audio</mediatype>
              <trackindex>2</trackindex>
            </sourcetrack>
            <link>
              <linkclipref>clipitem-575</linkclipref>
              <mediatype>video</mediatype>
              <trackindex>1</trackindex>
              <clipindex>1</clipindex>
            </link>
            <link>
              <linkclipref>clipitem-576</linkclipref>
              <mediatype>audio</mediatype>
              <trackindex>1</trackindex>
              <clipindex>1</clipindex>
              <groupindex>1</groupindex>
            </link>
            <link>
              <linkclipref>clipitem-577</linkclipref>
              <mediatype>audio</mediatype>
              <trackindex>2</trackindex>
              <clipindex>1</clipindex>
              <groupindex>1</groupindex>
            </link>
            <link>
              <linkclipref>clipitem-578</linkclipref>
              <mediatype>audio</mediatype>
              <trackindex>3</trackindex>
              <clipindex>1</clipindex>
              <groupindex>1</groupindex>
            </link>
            <link>
              <linkclipref>clipitem-579</linkclipref>
              <mediatype>audio</mediatype>
              <trackindex>4</trackindex>
              <clipindex>1</clipindex>
              <groupindex>1</groupindex>
            </link>
            <link>
              <linkclipref>clipitem-580</linkclipref>
              <mediatype>audio</mediatype>
              <trackindex>5</trackindex>
              <clipindex>1</clipindex>
              <groupindex>1</groupindex>
            </link>
            <link>
              <linkclipref>clipitem-581</linkclipref>
              <mediatype>audio</mediatype>
              <trackindex>6</trackindex>
              <clipindex>1</clipindex>
              <groupindex>1</groupindex>
            </link>
          </clipitem>
          <clipitem id="clipitem-586" premiereChannelType="Stereo">
            <masterclipid>masterclip-3</masterclipid>
            <name>2023-03-30 21-15-31艾许决赛圈2V6 8KCC.mp4</name>
            <enabled>TRUE</enabled>
            <rate>
              <timebase>60</timebase>
              <ntsc>FALSE</ntsc>
            </rate>
            <start>11536</start>
            <end>11721</end>
            <in>15371</in>
            <out>15556</out>
            <file id="file-3"/>
            <sourcetrack>
              <mediatype>audio</mediatype>
              <trackindex>2</trackindex>
            </sourcetrack>
            <link>
              <linkclipref>clipitem-582</linkclipref>
              <mediatype>video</mediatype>
              <trackindex>1</trackindex>
              <clipindex>1</clipindex>
            </link>
            <link>
              <linkclipref>clipitem-583</linkclipref>
              <mediatype>audio</mediatype>
              <trackindex>1</trackindex>
              <clipindex>1</clipindex>
              <groupindex>1</groupindex>
            </link>
            <link>
              <linkclipref>clipitem-584</linkclipref>
              <mediatype>audio</mediatype>
              <trackindex>2</trackindex>
              <clipindex>1</clipindex>
              <groupindex>1</groupindex>
            </link>
            <link>
              <linkclipref>clipitem-585</linkclipref>
              <mediatype>audio</mediatype>
              <trackindex>3</trackindex>
              <clipindex>1</clipindex>
              <groupindex>1</groupindex>
            </link>
            <link>
              <linkclipref>clipitem-586</linkclipref>
              <mediatype>audio</mediatype>
              <trackindex>4</trackindex>
              <clipindex>1</clipindex>
              <groupindex>1</groupindex>
            </link>
            <link>
              <linkclipref>clipitem-587</linkclipref>
              <mediatype>audio</mediatype>
              <trackindex>5</trackindex>
              <clipindex>1</clipindex>
              <groupindex>1</groupindex>
            </link>
            <link>
              <linkclipref>clipitem-588</linkclipref>
              <mediatype>audio</mediatype>
              <trackindex>6</trackindex>
              <clipindex>1</clipindex>
              <groupindex>1</groupindex>
            </link>
          </clipitem>
          <clipitem id="clipitem-593" premiereChannelType="Stereo">
            <masterclipid>masterclip-3</masterclipid>
            <name>2023-03-30 21-15-31艾许决赛圈2V6 8KCC.mp4</name>
            <enabled>TRUE</enabled>
            <rate>
              <timebase>60</timebase>
              <ntsc>FALSE</ntsc>
            </rate>
            <start>11721</start>
            <end>11912</end>
            <in>16453</in>
            <out>16644</out>
            <file id="file-3"/>
            <sourcetrack>
              <mediatype>audio</mediatype>
              <trackindex>2</trackindex>
            </sourcetrack>
            <link>
              <linkclipref>clipitem-589</linkclipref>
              <mediatype>video</mediatype>
              <trackindex>1</trackindex>
              <clipindex>1</clipindex>
            </link>
            <link>
              <linkclipref>clipitem-590</linkclipref>
              <mediatype>audio</mediatype>
              <trackindex>1</trackindex>
              <clipindex>1</clipindex>
              <groupindex>1</groupindex>
            </link>
            <link>
              <linkclipref>clipitem-591</linkclipref>
              <mediatype>audio</mediatype>
              <trackindex>2</trackindex>
              <clipindex>1</clipindex>
              <groupindex>1</groupindex>
            </link>
            <link>
              <linkclipref>clipitem-592</linkclipref>
              <mediatype>audio</mediatype>
              <trackindex>3</trackindex>
              <clipindex>1</clipindex>
              <groupindex>1</groupindex>
            </link>
            <link>
              <linkclipref>clipitem-593</linkclipref>
              <mediatype>audio</mediatype>
              <trackindex>4</trackindex>
              <clipindex>1</clipindex>
              <groupindex>1</groupindex>
            </link>
            <link>
              <linkclipref>clipitem-594</linkclipref>
              <mediatype>audio</mediatype>
              <trackindex>5</trackindex>
              <clipindex>1</clipindex>
              <groupindex>1</groupindex>
            </link>
            <link>
              <linkclipref>clipitem-595</linkclipref>
              <mediatype>audio</mediatype>
              <trackindex>6</trackindex>
              <clipindex>1</clipindex>
              <groupindex>1</groupindex>
            </link>
          </clipitem>
          <clipitem id="clipitem-600" premiereChannelType="Stereo">
            <masterclipid>masterclip-3</masterclipid>
            <name>2023-03-30 21-15-31艾许决赛圈2V6 8KCC.mp4</name>
            <enabled>TRUE</enabled>
            <rate>
              <timebase>60</timebase>
              <ntsc>FALSE</ntsc>
            </rate>
            <start>11912</start>
            <end>12140</end>
            <in>16757</in>
            <out>16985</out>
            <file id="file-3"/>
            <sourcetrack>
              <mediatype>audio</mediatype>
              <trackindex>2</trackindex>
            </sourcetrack>
            <link>
              <linkclipref>clipitem-596</linkclipref>
              <mediatype>video</mediatype>
              <trackindex>1</trackindex>
              <clipindex>1</clipindex>
            </link>
            <link>
              <linkclipref>clipitem-597</linkclipref>
              <mediatype>audio</mediatype>
              <trackindex>1</trackindex>
              <clipindex>1</clipindex>
              <groupindex>1</groupindex>
            </link>
            <link>
              <linkclipref>clipitem-598</linkclipref>
              <mediatype>audio</mediatype>
              <trackindex>2</trackindex>
              <clipindex>1</clipindex>
              <groupindex>1</groupindex>
            </link>
            <link>
              <linkclipref>clipitem-599</linkclipref>
              <mediatype>audio</mediatype>
              <trackindex>3</trackindex>
              <clipindex>1</clipindex>
              <groupindex>1</groupindex>
            </link>
            <link>
              <linkclipref>clipitem-600</linkclipref>
              <mediatype>audio</mediatype>
              <trackindex>4</trackindex>
              <clipindex>1</clipindex>
              <groupindex>1</groupindex>
            </link>
            <link>
              <linkclipref>clipitem-601</linkclipref>
              <mediatype>audio</mediatype>
              <trackindex>5</trackindex>
              <clipindex>1</clipindex>
              <groupindex>1</groupindex>
            </link>
            <link>
              <linkclipref>clipitem-602</linkclipref>
              <mediatype>audio</mediatype>
              <trackindex>6</trackindex>
              <clipindex>1</clipindex>
              <groupindex>1</groupindex>
            </link>
          </clipitem>
          <clipitem id="clipitem-607" premiereChannelType="Stereo">
            <masterclipid>masterclip-3</masterclipid>
            <name>2023-03-30 21-15-31艾许决赛圈2V6 8KCC.mp4</name>
            <enabled>TRUE</enabled>
            <rate>
              <timebase>60</timebase>
              <ntsc>FALSE</ntsc>
            </rate>
            <start>12140</start>
            <end>12316</end>
            <in>17536</in>
            <out>17712</out>
            <file id="file-3"/>
            <sourcetrack>
              <mediatype>audio</mediatype>
              <trackindex>2</trackindex>
            </sourcetrack>
            <link>
              <linkclipref>clipitem-603</linkclipref>
              <mediatype>video</mediatype>
              <trackindex>1</trackindex>
              <clipindex>1</clipindex>
            </link>
            <link>
              <linkclipref>clipitem-604</linkclipref>
              <mediatype>audio</mediatype>
              <trackindex>1</trackindex>
              <clipindex>1</clipindex>
              <groupindex>1</groupindex>
            </link>
            <link>
              <linkclipref>clipitem-605</linkclipref>
              <mediatype>audio</mediatype>
              <trackindex>2</trackindex>
              <clipindex>1</clipindex>
              <groupindex>1</groupindex>
            </link>
            <link>
              <linkclipref>clipitem-606</linkclipref>
              <mediatype>audio</mediatype>
              <trackindex>3</trackindex>
              <clipindex>1</clipindex>
              <groupindex>1</groupindex>
            </link>
            <link>
              <linkclipref>clipitem-607</linkclipref>
              <mediatype>audio</mediatype>
              <trackindex>4</trackindex>
              <clipindex>1</clipindex>
              <groupindex>1</groupindex>
            </link>
            <link>
              <linkclipref>clipitem-608</linkclipref>
              <mediatype>audio</mediatype>
              <trackindex>5</trackindex>
              <clipindex>1</clipindex>
              <groupindex>1</groupindex>
            </link>
            <link>
              <linkclipref>clipitem-609</linkclipref>
              <mediatype>audio</mediatype>
              <trackindex>6</trackindex>
              <clipindex>1</clipindex>
              <groupindex>1</groupindex>
            </link>
          </clipitem>
          <clipitem id="clipitem-614" premiereChannelType="Stereo">
            <masterclipid>masterclip-3</masterclipid>
            <name>2023-03-30 21-15-31艾许决赛圈2V6 8KCC.mp4</name>
            <enabled>TRUE</enabled>
            <rate>
              <timebase>60</timebase>
              <ntsc>FALSE</ntsc>
            </rate>
            <start>12316</start>
            <end>12524</end>
            <in>18299</in>
            <out>18507</out>
            <file id="file-3"/>
            <sourcetrack>
              <mediatype>audio</mediatype>
              <trackindex>2</trackindex>
            </sourcetrack>
            <link>
              <linkclipref>clipitem-610</linkclipref>
              <mediatype>video</mediatype>
              <trackindex>1</trackindex>
              <clipindex>1</clipindex>
            </link>
            <link>
              <linkclipref>clipitem-611</linkclipref>
              <mediatype>audio</mediatype>
              <trackindex>1</trackindex>
              <clipindex>1</clipindex>
              <groupindex>1</groupindex>
            </link>
            <link>
              <linkclipref>clipitem-612</linkclipref>
              <mediatype>audio</mediatype>
              <trackindex>2</trackindex>
              <clipindex>1</clipindex>
              <groupindex>1</groupindex>
            </link>
            <link>
              <linkclipref>clipitem-613</linkclipref>
              <mediatype>audio</mediatype>
              <trackindex>3</trackindex>
              <clipindex>1</clipindex>
              <groupindex>1</groupindex>
            </link>
            <link>
              <linkclipref>clipitem-614</linkclipref>
              <mediatype>audio</mediatype>
              <trackindex>4</trackindex>
              <clipindex>1</clipindex>
              <groupindex>1</groupindex>
            </link>
            <link>
              <linkclipref>clipitem-615</linkclipref>
              <mediatype>audio</mediatype>
              <trackindex>5</trackindex>
              <clipindex>1</clipindex>
              <groupindex>1</groupindex>
            </link>
            <link>
              <linkclipref>clipitem-616</linkclipref>
              <mediatype>audio</mediatype>
              <trackindex>6</trackindex>
              <clipindex>1</clipindex>
              <groupindex>1</groupindex>
            </link>
          </clipitem>
          <clipitem id="clipitem-621" premiereChannelType="Stereo">
            <masterclipid>masterclip-3</masterclipid>
            <name>2023-03-30 21-15-31艾许决赛圈2V6 8KCC.mp4</name>
            <enabled>TRUE</enabled>
            <rate>
              <timebase>60</timebase>
              <ntsc>FALSE</ntsc>
            </rate>
            <start>12524</start>
            <end>12590</end>
            <in>18532</in>
            <out>18598</out>
            <file id="file-3"/>
            <sourcetrack>
              <mediatype>audio</mediatype>
              <trackindex>2</trackindex>
            </sourcetrack>
            <link>
              <linkclipref>clipitem-617</linkclipref>
              <mediatype>video</mediatype>
              <trackindex>1</trackindex>
              <clipindex>1</clipindex>
            </link>
            <link>
              <linkclipref>clipitem-618</linkclipref>
              <mediatype>audio</mediatype>
              <trackindex>1</trackindex>
              <clipindex>1</clipindex>
              <groupindex>1</groupindex>
            </link>
            <link>
              <linkclipref>clipitem-619</linkclipref>
              <mediatype>audio</mediatype>
              <trackindex>2</trackindex>
              <clipindex>1</clipindex>
              <groupindex>1</groupindex>
            </link>
            <link>
              <linkclipref>clipitem-620</linkclipref>
              <mediatype>audio</mediatype>
              <trackindex>3</trackindex>
              <clipindex>1</clipindex>
              <groupindex>1</groupindex>
            </link>
            <link>
              <linkclipref>clipitem-621</linkclipref>
              <mediatype>audio</mediatype>
              <trackindex>4</trackindex>
              <clipindex>1</clipindex>
              <groupindex>1</groupindex>
            </link>
            <link>
              <linkclipref>clipitem-622</linkclipref>
              <mediatype>audio</mediatype>
              <trackindex>5</trackindex>
              <clipindex>1</clipindex>
              <groupindex>1</groupindex>
            </link>
            <link>
              <linkclipref>clipitem-623</linkclipref>
              <mediatype>audio</mediatype>
              <trackindex>6</trackindex>
              <clipindex>1</clipindex>
              <groupindex>1</groupindex>
            </link>
          </clipitem>
          <clipitem id="clipitem-628" premiereChannelType="Stereo">
            <masterclipid>masterclip-3</masterclipid>
            <name>2023-03-30 21-15-31艾许决赛圈2V6 8KCC.mp4</name>
            <enabled>TRUE</enabled>
            <rate>
              <timebase>60</timebase>
              <ntsc>FALSE</ntsc>
            </rate>
            <start>12590</start>
            <end>12690</end>
            <in>18756</in>
            <out>18856</out>
            <file id="file-3"/>
            <sourcetrack>
              <mediatype>audio</mediatype>
              <trackindex>2</trackindex>
            </sourcetrack>
            <link>
              <linkclipref>clipitem-624</linkclipref>
              <mediatype>video</mediatype>
              <trackindex>1</trackindex>
              <clipindex>1</clipindex>
            </link>
            <link>
              <linkclipref>clipitem-625</linkclipref>
              <mediatype>audio</mediatype>
              <trackindex>1</trackindex>
              <clipindex>1</clipindex>
              <groupindex>1</groupindex>
            </link>
            <link>
              <linkclipref>clipitem-626</linkclipref>
              <mediatype>audio</mediatype>
              <trackindex>2</trackindex>
              <clipindex>1</clipindex>
              <groupindex>1</groupindex>
            </link>
            <link>
              <linkclipref>clipitem-627</linkclipref>
              <mediatype>audio</mediatype>
              <trackindex>3</trackindex>
              <clipindex>1</clipindex>
              <groupindex>1</groupindex>
            </link>
            <link>
              <linkclipref>clipitem-628</linkclipref>
              <mediatype>audio</mediatype>
              <trackindex>4</trackindex>
              <clipindex>1</clipindex>
              <groupindex>1</groupindex>
            </link>
            <link>
              <linkclipref>clipitem-629</linkclipref>
              <mediatype>audio</mediatype>
              <trackindex>5</trackindex>
              <clipindex>1</clipindex>
              <groupindex>1</groupindex>
            </link>
            <link>
              <linkclipref>clipitem-630</linkclipref>
              <mediatype>audio</mediatype>
              <trackindex>6</trackindex>
              <clipindex>1</clipindex>
              <groupindex>1</groupindex>
            </link>
          </clipitem>
          <clipitem id="clipitem-635" premiereChannelType="Stereo">
            <masterclipid>masterclip-3</masterclipid>
            <name>2023-03-30 21-15-31艾许决赛圈2V6 8KCC.mp4</name>
            <enabled>TRUE</enabled>
            <rate>
              <timebase>60</timebase>
              <ntsc>FALSE</ntsc>
            </rate>
            <start>12690</start>
            <end>12770</end>
            <in>29766</in>
            <out>29846</out>
            <file id="file-3"/>
            <sourcetrack>
              <mediatype>audio</mediatype>
              <trackindex>2</trackindex>
            </sourcetrack>
            <link>
              <linkclipref>clipitem-631</linkclipref>
              <mediatype>video</mediatype>
              <trackindex>1</trackindex>
              <clipindex>1</clipindex>
            </link>
            <link>
              <linkclipref>clipitem-632</linkclipref>
              <mediatype>audio</mediatype>
              <trackindex>1</trackindex>
              <clipindex>1</clipindex>
              <groupindex>1</groupindex>
            </link>
            <link>
              <linkclipref>clipitem-633</linkclipref>
              <mediatype>audio</mediatype>
              <trackindex>2</trackindex>
              <clipindex>1</clipindex>
              <groupindex>1</groupindex>
            </link>
            <link>
              <linkclipref>clipitem-634</linkclipref>
              <mediatype>audio</mediatype>
              <trackindex>3</trackindex>
              <clipindex>1</clipindex>
              <groupindex>1</groupindex>
            </link>
            <link>
              <linkclipref>clipitem-635</linkclipref>
              <mediatype>audio</mediatype>
              <trackindex>4</trackindex>
              <clipindex>1</clipindex>
              <groupindex>1</groupindex>
            </link>
            <link>
              <linkclipref>clipitem-636</linkclipref>
              <mediatype>audio</mediatype>
              <trackindex>5</trackindex>
              <clipindex>1</clipindex>
              <groupindex>1</groupindex>
            </link>
            <link>
              <linkclipref>clipitem-637</linkclipref>
              <mediatype>audio</mediatype>
              <trackindex>6</trackindex>
              <clipindex>1</clipindex>
              <groupindex>1</groupindex>
            </link>
          </clipitem>
          <clipitem id="clipitem-642" premiereChannelType="Stereo">
            <masterclipid>masterclip-3</masterclipid>
            <name>2023-03-30 21-15-31艾许决赛圈2V6 8KCC.mp4</name>
            <enabled>TRUE</enabled>
            <rate>
              <timebase>60</timebase>
              <ntsc>FALSE</ntsc>
            </rate>
            <start>12770</start>
            <end>12919</end>
            <in>30276</in>
            <out>30425</out>
            <file id="file-3"/>
            <sourcetrack>
              <mediatype>audio</mediatype>
              <trackindex>2</trackindex>
            </sourcetrack>
            <link>
              <linkclipref>clipitem-638</linkclipref>
              <mediatype>video</mediatype>
              <trackindex>1</trackindex>
              <clipindex>1</clipindex>
            </link>
            <link>
              <linkclipref>clipitem-639</linkclipref>
              <mediatype>audio</mediatype>
              <trackindex>1</trackindex>
              <clipindex>1</clipindex>
              <groupindex>1</groupindex>
            </link>
            <link>
              <linkclipref>clipitem-640</linkclipref>
              <mediatype>audio</mediatype>
              <trackindex>2</trackindex>
              <clipindex>1</clipindex>
              <groupindex>1</groupindex>
            </link>
            <link>
              <linkclipref>clipitem-641</linkclipref>
              <mediatype>audio</mediatype>
              <trackindex>3</trackindex>
              <clipindex>1</clipindex>
              <groupindex>1</groupindex>
            </link>
            <link>
              <linkclipref>clipitem-642</linkclipref>
              <mediatype>audio</mediatype>
              <trackindex>4</trackindex>
              <clipindex>1</clipindex>
              <groupindex>1</groupindex>
            </link>
            <link>
              <linkclipref>clipitem-643</linkclipref>
              <mediatype>audio</mediatype>
              <trackindex>5</trackindex>
              <clipindex>1</clipindex>
              <groupindex>1</groupindex>
            </link>
            <link>
              <linkclipref>clipitem-644</linkclipref>
              <mediatype>audio</mediatype>
              <trackindex>6</trackindex>
              <clipindex>1</clipindex>
              <groupindex>1</groupindex>
            </link>
          </clipitem>
          <clipitem id="clipitem-649" premiereChannelType="Stereo">
            <masterclipid>masterclip-3</masterclipid>
            <name>2023-03-30 21-15-31艾许决赛圈2V6 8KCC.mp4</name>
            <enabled>TRUE</enabled>
            <rate>
              <timebase>60</timebase>
              <ntsc>FALSE</ntsc>
            </rate>
            <start>12919</start>
            <end>13039</end>
            <in>30422</in>
            <out>30542</out>
            <file id="file-3"/>
            <sourcetrack>
              <mediatype>audio</mediatype>
              <trackindex>2</trackindex>
            </sourcetrack>
            <link>
              <linkclipref>clipitem-645</linkclipref>
              <mediatype>video</mediatype>
              <trackindex>1</trackindex>
              <clipindex>1</clipindex>
            </link>
            <link>
              <linkclipref>clipitem-646</linkclipref>
              <mediatype>audio</mediatype>
              <trackindex>1</trackindex>
              <clipindex>1</clipindex>
              <groupindex>1</groupindex>
            </link>
            <link>
              <linkclipref>clipitem-647</linkclipref>
              <mediatype>audio</mediatype>
              <trackindex>2</trackindex>
              <clipindex>1</clipindex>
              <groupindex>1</groupindex>
            </link>
            <link>
              <linkclipref>clipitem-648</linkclipref>
              <mediatype>audio</mediatype>
              <trackindex>3</trackindex>
              <clipindex>1</clipindex>
              <groupindex>1</groupindex>
            </link>
            <link>
              <linkclipref>clipitem-649</linkclipref>
              <mediatype>audio</mediatype>
              <trackindex>4</trackindex>
              <clipindex>1</clipindex>
              <groupindex>1</groupindex>
            </link>
            <link>
              <linkclipref>clipitem-650</linkclipref>
              <mediatype>audio</mediatype>
              <trackindex>5</trackindex>
              <clipindex>1</clipindex>
              <groupindex>1</groupindex>
            </link>
            <link>
              <linkclipref>clipitem-651</linkclipref>
              <mediatype>audio</mediatype>
              <trackindex>6</trackindex>
              <clipindex>1</clipindex>
              <groupindex>1</groupindex>
            </link>
          </clipitem>
          <clipitem id="clipitem-656" premiereChannelType="Stereo">
            <masterclipid>masterclip-3</masterclipid>
            <name>2023-03-30 21-15-31艾许决赛圈2V6 8KCC.mp4</name>
            <enabled>TRUE</enabled>
            <rate>
              <timebase>60</timebase>
              <ntsc>FALSE</ntsc>
            </rate>
            <start>13039</start>
            <end>13141</end>
            <in>30545</in>
            <out>30647</out>
            <file id="file-3"/>
            <sourcetrack>
              <mediatype>audio</mediatype>
              <trackindex>2</trackindex>
            </sourcetrack>
            <link>
              <linkclipref>clipitem-652</linkclipref>
              <mediatype>video</mediatype>
              <trackindex>1</trackindex>
              <clipindex>1</clipindex>
            </link>
            <link>
              <linkclipref>clipitem-653</linkclipref>
              <mediatype>audio</mediatype>
              <trackindex>1</trackindex>
              <clipindex>1</clipindex>
              <groupindex>1</groupindex>
            </link>
            <link>
              <linkclipref>clipitem-654</linkclipref>
              <mediatype>audio</mediatype>
              <trackindex>2</trackindex>
              <clipindex>1</clipindex>
              <groupindex>1</groupindex>
            </link>
            <link>
              <linkclipref>clipitem-655</linkclipref>
              <mediatype>audio</mediatype>
              <trackindex>3</trackindex>
              <clipindex>1</clipindex>
              <groupindex>1</groupindex>
            </link>
            <link>
              <linkclipref>clipitem-656</linkclipref>
              <mediatype>audio</mediatype>
              <trackindex>4</trackindex>
              <clipindex>1</clipindex>
              <groupindex>1</groupindex>
            </link>
            <link>
              <linkclipref>clipitem-657</linkclipref>
              <mediatype>audio</mediatype>
              <trackindex>5</trackindex>
              <clipindex>1</clipindex>
              <groupindex>1</groupindex>
            </link>
            <link>
              <linkclipref>clipitem-658</linkclipref>
              <mediatype>audio</mediatype>
              <trackindex>6</trackindex>
              <clipindex>1</clipindex>
              <groupindex>1</groupindex>
            </link>
          </clipitem>
          <clipitem id="clipitem-663" premiereChannelType="Stereo">
            <masterclipid>masterclip-3</masterclipid>
            <name>2023-03-30 21-15-31艾许决赛圈2V6 8KCC.mp4</name>
            <enabled>TRUE</enabled>
            <rate>
              <timebase>60</timebase>
              <ntsc>FALSE</ntsc>
            </rate>
            <start>13141</start>
            <end>13330</end>
            <in>32618</in>
            <out>32807</out>
            <file id="file-3"/>
            <sourcetrack>
              <mediatype>audio</mediatype>
              <trackindex>2</trackindex>
            </sourcetrack>
            <link>
              <linkclipref>clipitem-659</linkclipref>
              <mediatype>video</mediatype>
              <trackindex>1</trackindex>
              <clipindex>1</clipindex>
            </link>
            <link>
              <linkclipref>clipitem-660</linkclipref>
              <mediatype>audio</mediatype>
              <trackindex>1</trackindex>
              <clipindex>1</clipindex>
              <groupindex>1</groupindex>
            </link>
            <link>
              <linkclipref>clipitem-661</linkclipref>
              <mediatype>audio</mediatype>
              <trackindex>2</trackindex>
              <clipindex>1</clipindex>
              <groupindex>1</groupindex>
            </link>
            <link>
              <linkclipref>clipitem-662</linkclipref>
              <mediatype>audio</mediatype>
              <trackindex>3</trackindex>
              <clipindex>1</clipindex>
              <groupindex>1</groupindex>
            </link>
            <link>
              <linkclipref>clipitem-663</linkclipref>
              <mediatype>audio</mediatype>
              <trackindex>4</trackindex>
              <clipindex>1</clipindex>
              <groupindex>1</groupindex>
            </link>
            <link>
              <linkclipref>clipitem-664</linkclipref>
              <mediatype>audio</mediatype>
              <trackindex>5</trackindex>
              <clipindex>1</clipindex>
              <groupindex>1</groupindex>
            </link>
            <link>
              <linkclipref>clipitem-665</linkclipref>
              <mediatype>audio</mediatype>
              <trackindex>6</trackindex>
              <clipindex>1</clipindex>
              <groupindex>1</groupindex>
            </link>
          </clipitem>
          <clipitem id="clipitem-670" premiereChannelType="Stereo">
            <masterclipid>masterclip-3</masterclipid>
            <name>2023-03-30 21-15-31艾许决赛圈2V6 8KCC.mp4</name>
            <enabled>TRUE</enabled>
            <rate>
              <timebase>60</timebase>
              <ntsc>FALSE</ntsc>
            </rate>
            <start>13330</start>
            <end>13454</end>
            <in>33866</in>
            <out>33990</out>
            <file id="file-3"/>
            <sourcetrack>
              <mediatype>audio</mediatype>
              <trackindex>2</trackindex>
            </sourcetrack>
            <link>
              <linkclipref>clipitem-666</linkclipref>
              <mediatype>video</mediatype>
              <trackindex>1</trackindex>
              <clipindex>1</clipindex>
            </link>
            <link>
              <linkclipref>clipitem-667</linkclipref>
              <mediatype>audio</mediatype>
              <trackindex>1</trackindex>
              <clipindex>1</clipindex>
              <groupindex>1</groupindex>
            </link>
            <link>
              <linkclipref>clipitem-668</linkclipref>
              <mediatype>audio</mediatype>
              <trackindex>2</trackindex>
              <clipindex>1</clipindex>
              <groupindex>1</groupindex>
            </link>
            <link>
              <linkclipref>clipitem-669</linkclipref>
              <mediatype>audio</mediatype>
              <trackindex>3</trackindex>
              <clipindex>1</clipindex>
              <groupindex>1</groupindex>
            </link>
            <link>
              <linkclipref>clipitem-670</linkclipref>
              <mediatype>audio</mediatype>
              <trackindex>4</trackindex>
              <clipindex>1</clipindex>
              <groupindex>1</groupindex>
            </link>
            <link>
              <linkclipref>clipitem-671</linkclipref>
              <mediatype>audio</mediatype>
              <trackindex>5</trackindex>
              <clipindex>1</clipindex>
              <groupindex>1</groupindex>
            </link>
            <link>
              <linkclipref>clipitem-672</linkclipref>
              <mediatype>audio</mediatype>
              <trackindex>6</trackindex>
              <clipindex>1</clipindex>
              <groupindex>1</groupindex>
            </link>
          </clipitem>
          <clipitem id="clipitem-677" premiereChannelType="Stereo">
            <masterclipid>masterclip-3</masterclipid>
            <name>2023-03-30 21-15-31艾许决赛圈2V6 8KCC.mp4</name>
            <enabled>TRUE</enabled>
            <rate>
              <timebase>60</timebase>
              <ntsc>FALSE</ntsc>
            </rate>
            <start>13454</start>
            <end>13564</end>
            <in>41673</in>
            <out>41783</out>
            <file id="file-3"/>
            <sourcetrack>
              <mediatype>audio</mediatype>
              <trackindex>2</trackindex>
            </sourcetrack>
            <link>
              <linkclipref>clipitem-673</linkclipref>
              <mediatype>video</mediatype>
              <trackindex>1</trackindex>
              <clipindex>1</clipindex>
            </link>
            <link>
              <linkclipref>clipitem-674</linkclipref>
              <mediatype>audio</mediatype>
              <trackindex>1</trackindex>
              <clipindex>1</clipindex>
              <groupindex>1</groupindex>
            </link>
            <link>
              <linkclipref>clipitem-675</linkclipref>
              <mediatype>audio</mediatype>
              <trackindex>2</trackindex>
              <clipindex>1</clipindex>
              <groupindex>1</groupindex>
            </link>
            <link>
              <linkclipref>clipitem-676</linkclipref>
              <mediatype>audio</mediatype>
              <trackindex>3</trackindex>
              <clipindex>1</clipindex>
              <groupindex>1</groupindex>
            </link>
            <link>
              <linkclipref>clipitem-677</linkclipref>
              <mediatype>audio</mediatype>
              <trackindex>4</trackindex>
              <clipindex>1</clipindex>
              <groupindex>1</groupindex>
            </link>
            <link>
              <linkclipref>clipitem-678</linkclipref>
              <mediatype>audio</mediatype>
              <trackindex>5</trackindex>
              <clipindex>1</clipindex>
              <groupindex>1</groupindex>
            </link>
            <link>
              <linkclipref>clipitem-679</linkclipref>
              <mediatype>audio</mediatype>
              <trackindex>6</trackindex>
              <clipindex>1</clipindex>
              <groupindex>1</groupindex>
            </link>
          </clipitem>
          <clipitem id="clipitem-684" premiereChannelType="Stereo">
            <masterclipid>masterclip-3</masterclipid>
            <name>2023-03-30 21-15-31艾许决赛圈2V6 8KCC.mp4</name>
            <enabled>TRUE</enabled>
            <rate>
              <timebase>60</timebase>
              <ntsc>FALSE</ntsc>
            </rate>
            <start>13564</start>
            <end>13644</end>
            <in>42037</in>
            <out>42117</out>
            <file id="file-3"/>
            <sourcetrack>
              <mediatype>audio</mediatype>
              <trackindex>2</trackindex>
            </sourcetrack>
            <link>
              <linkclipref>clipitem-680</linkclipref>
              <mediatype>video</mediatype>
              <trackindex>1</trackindex>
              <clipindex>1</clipindex>
            </link>
            <link>
              <linkclipref>clipitem-681</linkclipref>
              <mediatype>audio</mediatype>
              <trackindex>1</trackindex>
              <clipindex>1</clipindex>
              <groupindex>1</groupindex>
            </link>
            <link>
              <linkclipref>clipitem-682</linkclipref>
              <mediatype>audio</mediatype>
              <trackindex>2</trackindex>
              <clipindex>1</clipindex>
              <groupindex>1</groupindex>
            </link>
            <link>
              <linkclipref>clipitem-683</linkclipref>
              <mediatype>audio</mediatype>
              <trackindex>3</trackindex>
              <clipindex>1</clipindex>
              <groupindex>1</groupindex>
            </link>
            <link>
              <linkclipref>clipitem-684</linkclipref>
              <mediatype>audio</mediatype>
              <trackindex>4</trackindex>
              <clipindex>1</clipindex>
              <groupindex>1</groupindex>
            </link>
            <link>
              <linkclipref>clipitem-685</linkclipref>
              <mediatype>audio</mediatype>
              <trackindex>5</trackindex>
              <clipindex>1</clipindex>
              <groupindex>1</groupindex>
            </link>
            <link>
              <linkclipref>clipitem-686</linkclipref>
              <mediatype>audio</mediatype>
              <trackindex>6</trackindex>
              <clipindex>1</clipindex>
              <groupindex>1</groupindex>
            </link>
          </clipitem>
          <clipitem id="clipitem-691" premiereChannelType="Stereo">
            <masterclipid>masterclip-3</masterclipid>
            <name>2023-03-30 21-15-31艾许决赛圈2V6 8KCC.mp4</name>
            <enabled>TRUE</enabled>
            <rate>
              <timebase>60</timebase>
              <ntsc>FALSE</ntsc>
            </rate>
            <start>13644</start>
            <end>13724</end>
            <in>43943</in>
            <out>44023</out>
            <file id="file-3"/>
            <sourcetrack>
              <mediatype>audio</mediatype>
              <trackindex>2</trackindex>
            </sourcetrack>
            <link>
              <linkclipref>clipitem-687</linkclipref>
              <mediatype>video</mediatype>
              <trackindex>1</trackindex>
              <clipindex>1</clipindex>
            </link>
            <link>
              <linkclipref>clipitem-688</linkclipref>
              <mediatype>audio</mediatype>
              <trackindex>1</trackindex>
              <clipindex>1</clipindex>
              <groupindex>1</groupindex>
            </link>
            <link>
              <linkclipref>clipitem-689</linkclipref>
              <mediatype>audio</mediatype>
              <trackindex>2</trackindex>
              <clipindex>1</clipindex>
              <groupindex>1</groupindex>
            </link>
            <link>
              <linkclipref>clipitem-690</linkclipref>
              <mediatype>audio</mediatype>
              <trackindex>3</trackindex>
              <clipindex>1</clipindex>
              <groupindex>1</groupindex>
            </link>
            <link>
              <linkclipref>clipitem-691</linkclipref>
              <mediatype>audio</mediatype>
              <trackindex>4</trackindex>
              <clipindex>1</clipindex>
              <groupindex>1</groupindex>
            </link>
            <link>
              <linkclipref>clipitem-692</linkclipref>
              <mediatype>audio</mediatype>
              <trackindex>5</trackindex>
              <clipindex>1</clipindex>
              <groupindex>1</groupindex>
            </link>
            <link>
              <linkclipref>clipitem-693</linkclipref>
              <mediatype>audio</mediatype>
              <trackindex>6</trackindex>
              <clipindex>1</clipindex>
              <groupindex>1</groupindex>
            </link>
          </clipitem>
          <clipitem id="clipitem-698" premiereChannelType="Stereo">
            <masterclipid>masterclip-3</masterclipid>
            <name>2023-03-30 21-15-31艾许决赛圈2V6 8KCC.mp4</name>
            <enabled>TRUE</enabled>
            <rate>
              <timebase>60</timebase>
              <ntsc>FALSE</ntsc>
            </rate>
            <start>13724</start>
            <end>13838</end>
            <in>44030</in>
            <out>44144</out>
            <file id="file-3"/>
            <sourcetrack>
              <mediatype>audio</mediatype>
              <trackindex>2</trackindex>
            </sourcetrack>
            <link>
              <linkclipref>clipitem-694</linkclipref>
              <mediatype>video</mediatype>
              <trackindex>1</trackindex>
              <clipindex>1</clipindex>
            </link>
            <link>
              <linkclipref>clipitem-695</linkclipref>
              <mediatype>audio</mediatype>
              <trackindex>1</trackindex>
              <clipindex>1</clipindex>
              <groupindex>1</groupindex>
            </link>
            <link>
              <linkclipref>clipitem-696</linkclipref>
              <mediatype>audio</mediatype>
              <trackindex>2</trackindex>
              <clipindex>1</clipindex>
              <groupindex>1</groupindex>
            </link>
            <link>
              <linkclipref>clipitem-697</linkclipref>
              <mediatype>audio</mediatype>
              <trackindex>3</trackindex>
              <clipindex>1</clipindex>
              <groupindex>1</groupindex>
            </link>
            <link>
              <linkclipref>clipitem-698</linkclipref>
              <mediatype>audio</mediatype>
              <trackindex>4</trackindex>
              <clipindex>1</clipindex>
              <groupindex>1</groupindex>
            </link>
            <link>
              <linkclipref>clipitem-699</linkclipref>
              <mediatype>audio</mediatype>
              <trackindex>5</trackindex>
              <clipindex>1</clipindex>
              <groupindex>1</groupindex>
            </link>
            <link>
              <linkclipref>clipitem-700</linkclipref>
              <mediatype>audio</mediatype>
              <trackindex>6</trackindex>
              <clipindex>1</clipindex>
              <groupindex>1</groupindex>
            </link>
          </clipitem>
          <clipitem id="clipitem-705" premiereChannelType="Stereo">
            <masterclipid>masterclip-3</masterclipid>
            <name>2023-03-30 21-15-31艾许决赛圈2V6 8KCC.mp4</name>
            <enabled>TRUE</enabled>
            <rate>
              <timebase>60</timebase>
              <ntsc>FALSE</ntsc>
            </rate>
            <start>13838</start>
            <end>13903</end>
            <in>44850</in>
            <out>44915</out>
            <file id="file-3"/>
            <sourcetrack>
              <mediatype>audio</mediatype>
              <trackindex>2</trackindex>
            </sourcetrack>
            <link>
              <linkclipref>clipitem-701</linkclipref>
              <mediatype>video</mediatype>
              <trackindex>1</trackindex>
              <clipindex>1</clipindex>
            </link>
            <link>
              <linkclipref>clipitem-702</linkclipref>
              <mediatype>audio</mediatype>
              <trackindex>1</trackindex>
              <clipindex>1</clipindex>
              <groupindex>1</groupindex>
            </link>
            <link>
              <linkclipref>clipitem-703</linkclipref>
              <mediatype>audio</mediatype>
              <trackindex>2</trackindex>
              <clipindex>1</clipindex>
              <groupindex>1</groupindex>
            </link>
            <link>
              <linkclipref>clipitem-704</linkclipref>
              <mediatype>audio</mediatype>
              <trackindex>3</trackindex>
              <clipindex>1</clipindex>
              <groupindex>1</groupindex>
            </link>
            <link>
              <linkclipref>clipitem-705</linkclipref>
              <mediatype>audio</mediatype>
              <trackindex>4</trackindex>
              <clipindex>1</clipindex>
              <groupindex>1</groupindex>
            </link>
            <link>
              <linkclipref>clipitem-706</linkclipref>
              <mediatype>audio</mediatype>
              <trackindex>5</trackindex>
              <clipindex>1</clipindex>
              <groupindex>1</groupindex>
            </link>
            <link>
              <linkclipref>clipitem-707</linkclipref>
              <mediatype>audio</mediatype>
              <trackindex>6</trackindex>
              <clipindex>1</clipindex>
              <groupindex>1</groupindex>
            </link>
          </clipitem>
          <clipitem id="clipitem-712" premiereChannelType="Stereo">
            <masterclipid>masterclip-3</masterclipid>
            <name>2023-03-30 21-15-31艾许决赛圈2V6 8KCC.mp4</name>
            <enabled>TRUE</enabled>
            <rate>
              <timebase>60</timebase>
              <ntsc>FALSE</ntsc>
            </rate>
            <start>13903</start>
            <end>14190</end>
            <in>46715</in>
            <out>47002</out>
            <file id="file-3"/>
            <sourcetrack>
              <mediatype>audio</mediatype>
              <trackindex>2</trackindex>
            </sourcetrack>
            <link>
              <linkclipref>clipitem-708</linkclipref>
              <mediatype>video</mediatype>
              <trackindex>1</trackindex>
              <clipindex>1</clipindex>
            </link>
            <link>
              <linkclipref>clipitem-709</linkclipref>
              <mediatype>audio</mediatype>
              <trackindex>1</trackindex>
              <clipindex>1</clipindex>
              <groupindex>1</groupindex>
            </link>
            <link>
              <linkclipref>clipitem-710</linkclipref>
              <mediatype>audio</mediatype>
              <trackindex>2</trackindex>
              <clipindex>1</clipindex>
              <groupindex>1</groupindex>
            </link>
            <link>
              <linkclipref>clipitem-711</linkclipref>
              <mediatype>audio</mediatype>
              <trackindex>3</trackindex>
              <clipindex>1</clipindex>
              <groupindex>1</groupindex>
            </link>
            <link>
              <linkclipref>clipitem-712</linkclipref>
              <mediatype>audio</mediatype>
              <trackindex>4</trackindex>
              <clipindex>1</clipindex>
              <groupindex>1</groupindex>
            </link>
            <link>
              <linkclipref>clipitem-713</linkclipref>
              <mediatype>audio</mediatype>
              <trackindex>5</trackindex>
              <clipindex>1</clipindex>
              <groupindex>1</groupindex>
            </link>
            <link>
              <linkclipref>clipitem-714</linkclipref>
              <mediatype>audio</mediatype>
              <trackindex>6</trackindex>
              <clipindex>1</clipindex>
              <groupindex>1</groupindex>
            </link>
          </clipitem>
          <clipitem id="clipitem-719" premiereChannelType="Stereo">
            <masterclipid>masterclip-3</masterclipid>
            <name>2023-03-30 21-15-31艾许决赛圈2V6 8KCC.mp4</name>
            <enabled>TRUE</enabled>
            <rate>
              <timebase>60</timebase>
              <ntsc>FALSE</ntsc>
            </rate>
            <start>14190</start>
            <end>14385</end>
            <in>48602</in>
            <out>48797</out>
            <file id="file-3"/>
            <sourcetrack>
              <mediatype>audio</mediatype>
              <trackindex>2</trackindex>
            </sourcetrack>
            <link>
              <linkclipref>clipitem-715</linkclipref>
              <mediatype>video</mediatype>
              <trackindex>1</trackindex>
              <clipindex>1</clipindex>
            </link>
            <link>
              <linkclipref>clipitem-716</linkclipref>
              <mediatype>audio</mediatype>
              <trackindex>1</trackindex>
              <clipindex>1</clipindex>
              <groupindex>1</groupindex>
            </link>
            <link>
              <linkclipref>clipitem-717</linkclipref>
              <mediatype>audio</mediatype>
              <trackindex>2</trackindex>
              <clipindex>1</clipindex>
              <groupindex>1</groupindex>
            </link>
            <link>
              <linkclipref>clipitem-718</linkclipref>
              <mediatype>audio</mediatype>
              <trackindex>3</trackindex>
              <clipindex>1</clipindex>
              <groupindex>1</groupindex>
            </link>
            <link>
              <linkclipref>clipitem-719</linkclipref>
              <mediatype>audio</mediatype>
              <trackindex>4</trackindex>
              <clipindex>1</clipindex>
              <groupindex>1</groupindex>
            </link>
            <link>
              <linkclipref>clipitem-720</linkclipref>
              <mediatype>audio</mediatype>
              <trackindex>5</trackindex>
              <clipindex>1</clipindex>
              <groupindex>1</groupindex>
            </link>
            <link>
              <linkclipref>clipitem-721</linkclipref>
              <mediatype>audio</mediatype>
              <trackindex>6</trackindex>
              <clipindex>1</clipindex>
              <groupindex>1</groupindex>
            </link>
          </clipitem>
          <clipitem id="clipitem-726" premiereChannelType="Stereo">
            <masterclipid>masterclip-3</masterclipid>
            <name>2023-03-30 21-15-31艾许决赛圈2V6 8KCC.mp4</name>
            <enabled>TRUE</enabled>
            <rate>
              <timebase>60</timebase>
              <ntsc>FALSE</ntsc>
            </rate>
            <start>14385</start>
            <end>14465</end>
            <in>48819</in>
            <out>48899</out>
            <file id="file-3"/>
            <sourcetrack>
              <mediatype>audio</mediatype>
              <trackindex>2</trackindex>
            </sourcetrack>
            <link>
              <linkclipref>clipitem-722</linkclipref>
              <mediatype>video</mediatype>
              <trackindex>1</trackindex>
              <clipindex>1</clipindex>
            </link>
            <link>
              <linkclipref>clipitem-723</linkclipref>
              <mediatype>audio</mediatype>
              <trackindex>1</trackindex>
              <clipindex>1</clipindex>
              <groupindex>1</groupindex>
            </link>
            <link>
              <linkclipref>clipitem-724</linkclipref>
              <mediatype>audio</mediatype>
              <trackindex>2</trackindex>
              <clipindex>1</clipindex>
              <groupindex>1</groupindex>
            </link>
            <link>
              <linkclipref>clipitem-725</linkclipref>
              <mediatype>audio</mediatype>
              <trackindex>3</trackindex>
              <clipindex>1</clipindex>
              <groupindex>1</groupindex>
            </link>
            <link>
              <linkclipref>clipitem-726</linkclipref>
              <mediatype>audio</mediatype>
              <trackindex>4</trackindex>
              <clipindex>1</clipindex>
              <groupindex>1</groupindex>
            </link>
            <link>
              <linkclipref>clipitem-727</linkclipref>
              <mediatype>audio</mediatype>
              <trackindex>5</trackindex>
              <clipindex>1</clipindex>
              <groupindex>1</groupindex>
            </link>
            <link>
              <linkclipref>clipitem-728</linkclipref>
              <mediatype>audio</mediatype>
              <trackindex>6</trackindex>
              <clipindex>1</clipindex>
              <groupindex>1</groupindex>
            </link>
          </clipitem>
          <clipitem id="clipitem-733" premiereChannelType="Stereo">
            <masterclipid>masterclip-3</masterclipid>
            <name>2023-03-30 21-15-31艾许决赛圈2V6 8KCC.mp4</name>
            <enabled>TRUE</enabled>
            <rate>
              <timebase>60</timebase>
              <ntsc>FALSE</ntsc>
            </rate>
            <start>14465</start>
            <end>14614</end>
            <in>67987</in>
            <out>68136</out>
            <file id="file-3"/>
            <sourcetrack>
              <mediatype>audio</mediatype>
              <trackindex>2</trackindex>
            </sourcetrack>
            <link>
              <linkclipref>clipitem-729</linkclipref>
              <mediatype>video</mediatype>
              <trackindex>1</trackindex>
              <clipindex>1</clipindex>
            </link>
            <link>
              <linkclipref>clipitem-730</linkclipref>
              <mediatype>audio</mediatype>
              <trackindex>1</trackindex>
              <clipindex>1</clipindex>
              <groupindex>1</groupindex>
            </link>
            <link>
              <linkclipref>clipitem-731</linkclipref>
              <mediatype>audio</mediatype>
              <trackindex>2</trackindex>
              <clipindex>1</clipindex>
              <groupindex>1</groupindex>
            </link>
            <link>
              <linkclipref>clipitem-732</linkclipref>
              <mediatype>audio</mediatype>
              <trackindex>3</trackindex>
              <clipindex>1</clipindex>
              <groupindex>1</groupindex>
            </link>
            <link>
              <linkclipref>clipitem-733</linkclipref>
              <mediatype>audio</mediatype>
              <trackindex>4</trackindex>
              <clipindex>1</clipindex>
              <groupindex>1</groupindex>
            </link>
            <link>
              <linkclipref>clipitem-734</linkclipref>
              <mediatype>audio</mediatype>
              <trackindex>5</trackindex>
              <clipindex>1</clipindex>
              <groupindex>1</groupindex>
            </link>
            <link>
              <linkclipref>clipitem-735</linkclipref>
              <mediatype>audio</mediatype>
              <trackindex>6</trackindex>
              <clipindex>1</clipindex>
              <groupindex>1</groupindex>
            </link>
          </clipitem>
          <clipitem id="clipitem-740" premiereChannelType="Stereo">
            <masterclipid>masterclip-3</masterclipid>
            <name>2023-03-30 21-15-31艾许决赛圈2V6 8KCC.mp4</name>
            <enabled>TRUE</enabled>
            <rate>
              <timebase>60</timebase>
              <ntsc>FALSE</ntsc>
            </rate>
            <start>14614</start>
            <end>14702</end>
            <in>69856</in>
            <out>69944</out>
            <file id="file-3"/>
            <sourcetrack>
              <mediatype>audio</mediatype>
              <trackindex>2</trackindex>
            </sourcetrack>
            <link>
              <linkclipref>clipitem-736</linkclipref>
              <mediatype>video</mediatype>
              <trackindex>1</trackindex>
              <clipindex>1</clipindex>
            </link>
            <link>
              <linkclipref>clipitem-737</linkclipref>
              <mediatype>audio</mediatype>
              <trackindex>1</trackindex>
              <clipindex>1</clipindex>
              <groupindex>1</groupindex>
            </link>
            <link>
              <linkclipref>clipitem-738</linkclipref>
              <mediatype>audio</mediatype>
              <trackindex>2</trackindex>
              <clipindex>1</clipindex>
              <groupindex>1</groupindex>
            </link>
            <link>
              <linkclipref>clipitem-739</linkclipref>
              <mediatype>audio</mediatype>
              <trackindex>3</trackindex>
              <clipindex>1</clipindex>
              <groupindex>1</groupindex>
            </link>
            <link>
              <linkclipref>clipitem-740</linkclipref>
              <mediatype>audio</mediatype>
              <trackindex>4</trackindex>
              <clipindex>1</clipindex>
              <groupindex>1</groupindex>
            </link>
            <link>
              <linkclipref>clipitem-741</linkclipref>
              <mediatype>audio</mediatype>
              <trackindex>5</trackindex>
              <clipindex>1</clipindex>
              <groupindex>1</groupindex>
            </link>
            <link>
              <linkclipref>clipitem-742</linkclipref>
              <mediatype>audio</mediatype>
              <trackindex>6</trackindex>
              <clipindex>1</clipindex>
              <groupindex>1</groupindex>
            </link>
          </clipitem>
          <clipitem id="clipitem-747" premiereChannelType="Stereo">
            <masterclipid>masterclip-3</masterclipid>
            <name>2023-03-30 21-15-31艾许决赛圈2V6 8KCC.mp4</name>
            <enabled>TRUE</enabled>
            <rate>
              <timebase>60</timebase>
              <ntsc>FALSE</ntsc>
            </rate>
            <start>14702</start>
            <end>14790</end>
            <in>69984</in>
            <out>70072</out>
            <file id="file-3"/>
            <sourcetrack>
              <mediatype>audio</mediatype>
              <trackindex>2</trackindex>
            </sourcetrack>
            <link>
              <linkclipref>clipitem-743</linkclipref>
              <mediatype>video</mediatype>
              <trackindex>1</trackindex>
              <clipindex>1</clipindex>
            </link>
            <link>
              <linkclipref>clipitem-744</linkclipref>
              <mediatype>audio</mediatype>
              <trackindex>1</trackindex>
              <clipindex>1</clipindex>
              <groupindex>1</groupindex>
            </link>
            <link>
              <linkclipref>clipitem-745</linkclipref>
              <mediatype>audio</mediatype>
              <trackindex>2</trackindex>
              <clipindex>1</clipindex>
              <groupindex>1</groupindex>
            </link>
            <link>
              <linkclipref>clipitem-746</linkclipref>
              <mediatype>audio</mediatype>
              <trackindex>3</trackindex>
              <clipindex>1</clipindex>
              <groupindex>1</groupindex>
            </link>
            <link>
              <linkclipref>clipitem-747</linkclipref>
              <mediatype>audio</mediatype>
              <trackindex>4</trackindex>
              <clipindex>1</clipindex>
              <groupindex>1</groupindex>
            </link>
            <link>
              <linkclipref>clipitem-748</linkclipref>
              <mediatype>audio</mediatype>
              <trackindex>5</trackindex>
              <clipindex>1</clipindex>
              <groupindex>1</groupindex>
            </link>
            <link>
              <linkclipref>clipitem-749</linkclipref>
              <mediatype>audio</mediatype>
              <trackindex>6</trackindex>
              <clipindex>1</clipindex>
              <groupindex>1</groupindex>
            </link>
          </clipitem>
          <clipitem id="clipitem-754" premiereChannelType="Stereo">
            <masterclipid>masterclip-3</masterclipid>
            <name>2023-03-30 21-15-31艾许决赛圈2V6 8KCC.mp4</name>
            <enabled>TRUE</enabled>
            <rate>
              <timebase>60</timebase>
              <ntsc>FALSE</ntsc>
            </rate>
            <start>14790</start>
            <end>14971</end>
            <in>70185</in>
            <out>70366</out>
            <file id="file-3"/>
            <sourcetrack>
              <mediatype>audio</mediatype>
              <trackindex>2</trackindex>
            </sourcetrack>
            <link>
              <linkclipref>clipitem-750</linkclipref>
              <mediatype>video</mediatype>
              <trackindex>1</trackindex>
              <clipindex>1</clipindex>
            </link>
            <link>
              <linkclipref>clipitem-751</linkclipref>
              <mediatype>audio</mediatype>
              <trackindex>1</trackindex>
              <clipindex>1</clipindex>
              <groupindex>1</groupindex>
            </link>
            <link>
              <linkclipref>clipitem-752</linkclipref>
              <mediatype>audio</mediatype>
              <trackindex>2</trackindex>
              <clipindex>1</clipindex>
              <groupindex>1</groupindex>
            </link>
            <link>
              <linkclipref>clipitem-753</linkclipref>
              <mediatype>audio</mediatype>
              <trackindex>3</trackindex>
              <clipindex>1</clipindex>
              <groupindex>1</groupindex>
            </link>
            <link>
              <linkclipref>clipitem-754</linkclipref>
              <mediatype>audio</mediatype>
              <trackindex>4</trackindex>
              <clipindex>1</clipindex>
              <groupindex>1</groupindex>
            </link>
            <link>
              <linkclipref>clipitem-755</linkclipref>
              <mediatype>audio</mediatype>
              <trackindex>5</trackindex>
              <clipindex>1</clipindex>
              <groupindex>1</groupindex>
            </link>
            <link>
              <linkclipref>clipitem-756</linkclipref>
              <mediatype>audio</mediatype>
              <trackindex>6</trackindex>
              <clipindex>1</clipindex>
              <groupindex>1</groupindex>
            </link>
          </clipitem>
          <clipitem id="clipitem-761" premiereChannelType="Stereo">
            <masterclipid>masterclip-3</masterclipid>
            <name>2023-03-30 21-15-31艾许决赛圈2V6 8KCC.mp4</name>
            <enabled>TRUE</enabled>
            <rate>
              <timebase>60</timebase>
              <ntsc>FALSE</ntsc>
            </rate>
            <start>14971</start>
            <end>15120</end>
            <in>70493</in>
            <out>70642</out>
            <file id="file-3"/>
            <sourcetrack>
              <mediatype>audio</mediatype>
              <trackindex>2</trackindex>
            </sourcetrack>
            <link>
              <linkclipref>clipitem-757</linkclipref>
              <mediatype>video</mediatype>
              <trackindex>1</trackindex>
              <clipindex>1</clipindex>
            </link>
            <link>
              <linkclipref>clipitem-758</linkclipref>
              <mediatype>audio</mediatype>
              <trackindex>1</trackindex>
              <clipindex>1</clipindex>
              <groupindex>1</groupindex>
            </link>
            <link>
              <linkclipref>clipitem-759</linkclipref>
              <mediatype>audio</mediatype>
              <trackindex>2</trackindex>
              <clipindex>1</clipindex>
              <groupindex>1</groupindex>
            </link>
            <link>
              <linkclipref>clipitem-760</linkclipref>
              <mediatype>audio</mediatype>
              <trackindex>3</trackindex>
              <clipindex>1</clipindex>
              <groupindex>1</groupindex>
            </link>
            <link>
              <linkclipref>clipitem-761</linkclipref>
              <mediatype>audio</mediatype>
              <trackindex>4</trackindex>
              <clipindex>1</clipindex>
              <groupindex>1</groupindex>
            </link>
            <link>
              <linkclipref>clipitem-762</linkclipref>
              <mediatype>audio</mediatype>
              <trackindex>5</trackindex>
              <clipindex>1</clipindex>
              <groupindex>1</groupindex>
            </link>
            <link>
              <linkclipref>clipitem-763</linkclipref>
              <mediatype>audio</mediatype>
              <trackindex>6</trackindex>
              <clipindex>1</clipindex>
              <groupindex>1</groupindex>
            </link>
          </clipitem>
          <clipitem id="clipitem-768" premiereChannelType="Stereo">
            <masterclipid>masterclip-3</masterclipid>
            <name>2023-03-30 21-15-31艾许决赛圈2V6 8KCC.mp4</name>
            <enabled>TRUE</enabled>
            <rate>
              <timebase>60</timebase>
              <ntsc>FALSE</ntsc>
            </rate>
            <start>15120</start>
            <end>15197</end>
            <in>70712</in>
            <out>70789</out>
            <file id="file-3"/>
            <sourcetrack>
              <mediatype>audio</mediatype>
              <trackindex>2</trackindex>
            </sourcetrack>
            <link>
              <linkclipref>clipitem-764</linkclipref>
              <mediatype>video</mediatype>
              <trackindex>1</trackindex>
              <clipindex>1</clipindex>
            </link>
            <link>
              <linkclipref>clipitem-765</linkclipref>
              <mediatype>audio</mediatype>
              <trackindex>1</trackindex>
              <clipindex>1</clipindex>
              <groupindex>1</groupindex>
            </link>
            <link>
              <linkclipref>clipitem-766</linkclipref>
              <mediatype>audio</mediatype>
              <trackindex>2</trackindex>
              <clipindex>1</clipindex>
              <groupindex>1</groupindex>
            </link>
            <link>
              <linkclipref>clipitem-767</linkclipref>
              <mediatype>audio</mediatype>
              <trackindex>3</trackindex>
              <clipindex>1</clipindex>
              <groupindex>1</groupindex>
            </link>
            <link>
              <linkclipref>clipitem-768</linkclipref>
              <mediatype>audio</mediatype>
              <trackindex>4</trackindex>
              <clipindex>1</clipindex>
              <groupindex>1</groupindex>
            </link>
            <link>
              <linkclipref>clipitem-769</linkclipref>
              <mediatype>audio</mediatype>
              <trackindex>5</trackindex>
              <clipindex>1</clipindex>
              <groupindex>1</groupindex>
            </link>
            <link>
              <linkclipref>clipitem-770</linkclipref>
              <mediatype>audio</mediatype>
              <trackindex>6</trackindex>
              <clipindex>1</clipindex>
              <groupindex>1</groupindex>
            </link>
          </clipitem>
          <clipitem id="clipitem-775" premiereChannelType="Stereo">
            <masterclipid>masterclip-3</masterclipid>
            <name>2023-03-30 21-15-31艾许决赛圈2V6 8KCC.mp4</name>
            <enabled>TRUE</enabled>
            <rate>
              <timebase>60</timebase>
              <ntsc>FALSE</ntsc>
            </rate>
            <start>15197</start>
            <end>15364</end>
            <in>70867</in>
            <out>71034</out>
            <file id="file-3"/>
            <sourcetrack>
              <mediatype>audio</mediatype>
              <trackindex>2</trackindex>
            </sourcetrack>
            <link>
              <linkclipref>clipitem-771</linkclipref>
              <mediatype>video</mediatype>
              <trackindex>1</trackindex>
              <clipindex>1</clipindex>
            </link>
            <link>
              <linkclipref>clipitem-772</linkclipref>
              <mediatype>audio</mediatype>
              <trackindex>1</trackindex>
              <clipindex>1</clipindex>
              <groupindex>1</groupindex>
            </link>
            <link>
              <linkclipref>clipitem-773</linkclipref>
              <mediatype>audio</mediatype>
              <trackindex>2</trackindex>
              <clipindex>1</clipindex>
              <groupindex>1</groupindex>
            </link>
            <link>
              <linkclipref>clipitem-774</linkclipref>
              <mediatype>audio</mediatype>
              <trackindex>3</trackindex>
              <clipindex>1</clipindex>
              <groupindex>1</groupindex>
            </link>
            <link>
              <linkclipref>clipitem-775</linkclipref>
              <mediatype>audio</mediatype>
              <trackindex>4</trackindex>
              <clipindex>1</clipindex>
              <groupindex>1</groupindex>
            </link>
            <link>
              <linkclipref>clipitem-776</linkclipref>
              <mediatype>audio</mediatype>
              <trackindex>5</trackindex>
              <clipindex>1</clipindex>
              <groupindex>1</groupindex>
            </link>
            <link>
              <linkclipref>clipitem-777</linkclipref>
              <mediatype>audio</mediatype>
              <trackindex>6</trackindex>
              <clipindex>1</clipindex>
              <groupindex>1</groupindex>
            </link>
          </clipitem>
          <clipitem id="clipitem-782" premiereChannelType="Stereo">
            <masterclipid>masterclip-3</masterclipid>
            <name>2023-03-30 21-15-31艾许决赛圈2V6 8KCC.mp4</name>
            <enabled>TRUE</enabled>
            <rate>
              <timebase>60</timebase>
              <ntsc>FALSE</ntsc>
            </rate>
            <start>15364</start>
            <end>15429</end>
            <in>72138</in>
            <out>72203</out>
            <file id="file-3"/>
            <sourcetrack>
              <mediatype>audio</mediatype>
              <trackindex>2</trackindex>
            </sourcetrack>
            <link>
              <linkclipref>clipitem-778</linkclipref>
              <mediatype>video</mediatype>
              <trackindex>1</trackindex>
              <clipindex>1</clipindex>
            </link>
            <link>
              <linkclipref>clipitem-779</linkclipref>
              <mediatype>audio</mediatype>
              <trackindex>1</trackindex>
              <clipindex>1</clipindex>
              <groupindex>1</groupindex>
            </link>
            <link>
              <linkclipref>clipitem-780</linkclipref>
              <mediatype>audio</mediatype>
              <trackindex>2</trackindex>
              <clipindex>1</clipindex>
              <groupindex>1</groupindex>
            </link>
            <link>
              <linkclipref>clipitem-781</linkclipref>
              <mediatype>audio</mediatype>
              <trackindex>3</trackindex>
              <clipindex>1</clipindex>
              <groupindex>1</groupindex>
            </link>
            <link>
              <linkclipref>clipitem-782</linkclipref>
              <mediatype>audio</mediatype>
              <trackindex>4</trackindex>
              <clipindex>1</clipindex>
              <groupindex>1</groupindex>
            </link>
            <link>
              <linkclipref>clipitem-783</linkclipref>
              <mediatype>audio</mediatype>
              <trackindex>5</trackindex>
              <clipindex>1</clipindex>
              <groupindex>1</groupindex>
            </link>
            <link>
              <linkclipref>clipitem-784</linkclipref>
              <mediatype>audio</mediatype>
              <trackindex>6</trackindex>
              <clipindex>1</clipindex>
              <groupindex>1</groupindex>
            </link>
          </clipitem>
          <clipitem id="clipitem-789" premiereChannelType="Stereo">
            <masterclipid>masterclip-3</masterclipid>
            <name>2023-03-30 21-15-31艾许决赛圈2V6 8KCC.mp4</name>
            <enabled>TRUE</enabled>
            <rate>
              <timebase>60</timebase>
              <ntsc>FALSE</ntsc>
            </rate>
            <start>15429</start>
            <end>15575</end>
            <in>72355</in>
            <out>72501</out>
            <file id="file-3"/>
            <sourcetrack>
              <mediatype>audio</mediatype>
              <trackindex>2</trackindex>
            </sourcetrack>
            <link>
              <linkclipref>clipitem-785</linkclipref>
              <mediatype>video</mediatype>
              <trackindex>1</trackindex>
              <clipindex>1</clipindex>
            </link>
            <link>
              <linkclipref>clipitem-786</linkclipref>
              <mediatype>audio</mediatype>
              <trackindex>1</trackindex>
              <clipindex>1</clipindex>
              <groupindex>1</groupindex>
            </link>
            <link>
              <linkclipref>clipitem-787</linkclipref>
              <mediatype>audio</mediatype>
              <trackindex>2</trackindex>
              <clipindex>1</clipindex>
              <groupindex>1</groupindex>
            </link>
            <link>
              <linkclipref>clipitem-788</linkclipref>
              <mediatype>audio</mediatype>
              <trackindex>3</trackindex>
              <clipindex>1</clipindex>
              <groupindex>1</groupindex>
            </link>
            <link>
              <linkclipref>clipitem-789</linkclipref>
              <mediatype>audio</mediatype>
              <trackindex>4</trackindex>
              <clipindex>1</clipindex>
              <groupindex>1</groupindex>
            </link>
            <link>
              <linkclipref>clipitem-790</linkclipref>
              <mediatype>audio</mediatype>
              <trackindex>5</trackindex>
              <clipindex>1</clipindex>
              <groupindex>1</groupindex>
            </link>
            <link>
              <linkclipref>clipitem-791</linkclipref>
              <mediatype>audio</mediatype>
              <trackindex>6</trackindex>
              <clipindex>1</clipindex>
              <groupindex>1</groupindex>
            </link>
          </clipitem>
          <clipitem id="clipitem-796" premiereChannelType="Stereo">
            <masterclipid>masterclip-3</masterclipid>
            <name>2023-03-30 21-15-31艾许决赛圈2V6 8KCC.mp4</name>
            <enabled>TRUE</enabled>
            <rate>
              <timebase>60</timebase>
              <ntsc>FALSE</ntsc>
            </rate>
            <start>15575</start>
            <end>15661</end>
            <in>72584</in>
            <out>72670</out>
            <file id="file-3"/>
            <sourcetrack>
              <mediatype>audio</mediatype>
              <trackindex>2</trackindex>
            </sourcetrack>
            <link>
              <linkclipref>clipitem-792</linkclipref>
              <mediatype>video</mediatype>
              <trackindex>1</trackindex>
              <clipindex>1</clipindex>
            </link>
            <link>
              <linkclipref>clipitem-793</linkclipref>
              <mediatype>audio</mediatype>
              <trackindex>1</trackindex>
              <clipindex>1</clipindex>
              <groupindex>1</groupindex>
            </link>
            <link>
              <linkclipref>clipitem-794</linkclipref>
              <mediatype>audio</mediatype>
              <trackindex>2</trackindex>
              <clipindex>1</clipindex>
              <groupindex>1</groupindex>
            </link>
            <link>
              <linkclipref>clipitem-795</linkclipref>
              <mediatype>audio</mediatype>
              <trackindex>3</trackindex>
              <clipindex>1</clipindex>
              <groupindex>1</groupindex>
            </link>
            <link>
              <linkclipref>clipitem-796</linkclipref>
              <mediatype>audio</mediatype>
              <trackindex>4</trackindex>
              <clipindex>1</clipindex>
              <groupindex>1</groupindex>
            </link>
            <link>
              <linkclipref>clipitem-797</linkclipref>
              <mediatype>audio</mediatype>
              <trackindex>5</trackindex>
              <clipindex>1</clipindex>
              <groupindex>1</groupindex>
            </link>
            <link>
              <linkclipref>clipitem-798</linkclipref>
              <mediatype>audio</mediatype>
              <trackindex>6</trackindex>
              <clipindex>1</clipindex>
              <groupindex>1</groupindex>
            </link>
          </clipitem>
          <enabled>TRUE</enabled>
          <locked>FALSE</locked>
          <outputchannelindex>2</outputchannelindex>
        </track>
        <track TL.SQTrackAudioKeyframeStyle="0" TL.SQTrackShy="0" TL.SQTrackExpandedHeight="25" TL.SQTrackExpanded="0" MZ.TrackTargeted="1" PannerCurrentValue="0.5" PannerIsInverted="true" PannerStartKeyframe="-91445760000000000,0.5,0,0,0,0,0,0" PannerName="平衡" currentExplodedTrackIndex="0" totalExplodedTrackCount="2" premiereTrackType="Stereo">
          <clipitem id="clipitem-6" premiereChannelType="Stereo">
            <masterclipid>masterclip-1</masterclipid>
            <name>2023-04-01 14-56-52溪神带上钻局CC.mp4</name>
            <enabled>TRUE</enabled>
            <rate>
              <timebase>60</timebase>
              <ntsc>FALSE</ntsc>
            </rate>
            <start>0</start>
            <end>17</end>
            <in>3303</in>
            <out>3320</out>
            <file id="file-1"/>
            <sourcetrack>
              <mediatype>audio</mediatype>
              <trackindex>3</trackindex>
            </sourcetrack>
            <link>
              <linkclipref>clipitem-1</linkclipref>
              <mediatype>video</mediatype>
              <trackindex>1</trackindex>
              <clipindex>1</clipindex>
            </link>
            <link>
              <linkclipref>clipitem-2</linkclipref>
              <mediatype>audio</mediatype>
              <trackindex>1</trackindex>
              <clipindex>1</clipindex>
              <groupindex>1</groupindex>
            </link>
            <link>
              <linkclipref>clipitem-3</linkclipref>
              <mediatype>audio</mediatype>
              <trackindex>2</trackindex>
              <clipindex>1</clipindex>
              <groupindex>1</groupindex>
            </link>
            <link>
              <linkclipref>clipitem-4</linkclipref>
              <mediatype>audio</mediatype>
              <trackindex>3</trackindex>
              <clipindex>1</clipindex>
              <groupindex>1</groupindex>
            </link>
            <link>
              <linkclipref>clipitem-5</linkclipref>
              <mediatype>audio</mediatype>
              <trackindex>4</trackindex>
              <clipindex>1</clipindex>
              <groupindex>1</groupindex>
            </link>
            <link>
              <linkclipref>clipitem-6</linkclipref>
              <mediatype>audio</mediatype>
              <trackindex>5</trackindex>
              <clipindex>1</clipindex>
              <groupindex>1</groupindex>
            </link>
            <link>
              <linkclipref>clipitem-7</linkclipref>
              <mediatype>audio</mediatype>
              <trackindex>6</trackindex>
              <clipindex>1</clipindex>
              <groupindex>1</groupindex>
            </link>
          </clipitem>
          <clipitem id="clipitem-13" premiereChannelType="Stereo">
            <masterclipid>masterclip-1</masterclipid>
            <name>2023-04-01 14-56-52溪神带上钻局CC.mp4</name>
            <enabled>TRUE</enabled>
            <rate>
              <timebase>60</timebase>
              <ntsc>FALSE</ntsc>
            </rate>
            <start>17</start>
            <end>27</end>
            <in>6094</in>
            <out>6104</out>
            <file id="file-1"/>
            <sourcetrack>
              <mediatype>audio</mediatype>
              <trackindex>3</trackindex>
            </sourcetrack>
            <link>
              <linkclipref>clipitem-8</linkclipref>
              <mediatype>video</mediatype>
              <trackindex>1</trackindex>
              <clipindex>1</clipindex>
            </link>
            <link>
              <linkclipref>clipitem-9</linkclipref>
              <mediatype>audio</mediatype>
              <trackindex>1</trackindex>
              <clipindex>1</clipindex>
              <groupindex>1</groupindex>
            </link>
            <link>
              <linkclipref>clipitem-10</linkclipref>
              <mediatype>audio</mediatype>
              <trackindex>2</trackindex>
              <clipindex>1</clipindex>
              <groupindex>1</groupindex>
            </link>
            <link>
              <linkclipref>clipitem-11</linkclipref>
              <mediatype>audio</mediatype>
              <trackindex>3</trackindex>
              <clipindex>1</clipindex>
              <groupindex>1</groupindex>
            </link>
            <link>
              <linkclipref>clipitem-12</linkclipref>
              <mediatype>audio</mediatype>
              <trackindex>4</trackindex>
              <clipindex>1</clipindex>
              <groupindex>1</groupindex>
            </link>
            <link>
              <linkclipref>clipitem-13</linkclipref>
              <mediatype>audio</mediatype>
              <trackindex>5</trackindex>
              <clipindex>1</clipindex>
              <groupindex>1</groupindex>
            </link>
            <link>
              <linkclipref>clipitem-14</linkclipref>
              <mediatype>audio</mediatype>
              <trackindex>6</trackindex>
              <clipindex>1</clipindex>
              <groupindex>1</groupindex>
            </link>
          </clipitem>
          <clipitem id="clipitem-20" premiereChannelType="Stereo">
            <masterclipid>masterclip-1</masterclipid>
            <name>2023-04-01 14-56-52溪神带上钻局CC.mp4</name>
            <enabled>TRUE</enabled>
            <rate>
              <timebase>60</timebase>
              <ntsc>FALSE</ntsc>
            </rate>
            <start>27</start>
            <end>38</end>
            <in>6096</in>
            <out>6107</out>
            <file id="file-1"/>
            <sourcetrack>
              <mediatype>audio</mediatype>
              <trackindex>3</trackindex>
            </sourcetrack>
            <link>
              <linkclipref>clipitem-15</linkclipref>
              <mediatype>video</mediatype>
              <trackindex>1</trackindex>
              <clipindex>1</clipindex>
            </link>
            <link>
              <linkclipref>clipitem-16</linkclipref>
              <mediatype>audio</mediatype>
              <trackindex>1</trackindex>
              <clipindex>1</clipindex>
              <groupindex>1</groupindex>
            </link>
            <link>
              <linkclipref>clipitem-17</linkclipref>
              <mediatype>audio</mediatype>
              <trackindex>2</trackindex>
              <clipindex>1</clipindex>
              <groupindex>1</groupindex>
            </link>
            <link>
              <linkclipref>clipitem-18</linkclipref>
              <mediatype>audio</mediatype>
              <trackindex>3</trackindex>
              <clipindex>1</clipindex>
              <groupindex>1</groupindex>
            </link>
            <link>
              <linkclipref>clipitem-19</linkclipref>
              <mediatype>audio</mediatype>
              <trackindex>4</trackindex>
              <clipindex>1</clipindex>
              <groupindex>1</groupindex>
            </link>
            <link>
              <linkclipref>clipitem-20</linkclipref>
              <mediatype>audio</mediatype>
              <trackindex>5</trackindex>
              <clipindex>1</clipindex>
              <groupindex>1</groupindex>
            </link>
            <link>
              <linkclipref>clipitem-21</linkclipref>
              <mediatype>audio</mediatype>
              <trackindex>6</trackindex>
              <clipindex>1</clipindex>
              <groupindex>1</groupindex>
            </link>
          </clipitem>
          <clipitem id="clipitem-27" premiereChannelType="Stereo">
            <masterclipid>masterclip-1</masterclipid>
            <name>2023-04-01 14-56-52溪神带上钻局CC.mp4</name>
            <enabled>TRUE</enabled>
            <rate>
              <timebase>60</timebase>
              <ntsc>FALSE</ntsc>
            </rate>
            <start>38</start>
            <end>174</end>
            <in>15816</in>
            <out>15952</out>
            <file id="file-1"/>
            <sourcetrack>
              <mediatype>audio</mediatype>
              <trackindex>3</trackindex>
            </sourcetrack>
            <link>
              <linkclipref>clipitem-22</linkclipref>
              <mediatype>video</mediatype>
              <trackindex>1</trackindex>
              <clipindex>1</clipindex>
            </link>
            <link>
              <linkclipref>clipitem-23</linkclipref>
              <mediatype>audio</mediatype>
              <trackindex>1</trackindex>
              <clipindex>1</clipindex>
              <groupindex>1</groupindex>
            </link>
            <link>
              <linkclipref>clipitem-24</linkclipref>
              <mediatype>audio</mediatype>
              <trackindex>2</trackindex>
              <clipindex>1</clipindex>
              <groupindex>1</groupindex>
            </link>
            <link>
              <linkclipref>clipitem-25</linkclipref>
              <mediatype>audio</mediatype>
              <trackindex>3</trackindex>
              <clipindex>1</clipindex>
              <groupindex>1</groupindex>
            </link>
            <link>
              <linkclipref>clipitem-26</linkclipref>
              <mediatype>audio</mediatype>
              <trackindex>4</trackindex>
              <clipindex>1</clipindex>
              <groupindex>1</groupindex>
            </link>
            <link>
              <linkclipref>clipitem-27</linkclipref>
              <mediatype>audio</mediatype>
              <trackindex>5</trackindex>
              <clipindex>1</clipindex>
              <groupindex>1</groupindex>
            </link>
            <link>
              <linkclipref>clipitem-28</linkclipref>
              <mediatype>audio</mediatype>
              <trackindex>6</trackindex>
              <clipindex>1</clipindex>
              <groupindex>1</groupindex>
            </link>
          </clipitem>
          <clipitem id="clipitem-34" premiereChannelType="Stereo">
            <masterclipid>masterclip-1</masterclipid>
            <name>2023-04-01 14-56-52溪神带上钻局CC.mp4</name>
            <enabled>TRUE</enabled>
            <rate>
              <timebase>60</timebase>
              <ntsc>FALSE</ntsc>
            </rate>
            <start>174</start>
            <end>347</end>
            <in>15978</in>
            <out>16151</out>
            <file id="file-1"/>
            <sourcetrack>
              <mediatype>audio</mediatype>
              <trackindex>3</trackindex>
            </sourcetrack>
            <link>
              <linkclipref>clipitem-29</linkclipref>
              <mediatype>video</mediatype>
              <trackindex>1</trackindex>
              <clipindex>1</clipindex>
            </link>
            <link>
              <linkclipref>clipitem-30</linkclipref>
              <mediatype>audio</mediatype>
              <trackindex>1</trackindex>
              <clipindex>1</clipindex>
              <groupindex>1</groupindex>
            </link>
            <link>
              <linkclipref>clipitem-31</linkclipref>
              <mediatype>audio</mediatype>
              <trackindex>2</trackindex>
              <clipindex>1</clipindex>
              <groupindex>1</groupindex>
            </link>
            <link>
              <linkclipref>clipitem-32</linkclipref>
              <mediatype>audio</mediatype>
              <trackindex>3</trackindex>
              <clipindex>1</clipindex>
              <groupindex>1</groupindex>
            </link>
            <link>
              <linkclipref>clipitem-33</linkclipref>
              <mediatype>audio</mediatype>
              <trackindex>4</trackindex>
              <clipindex>1</clipindex>
              <groupindex>1</groupindex>
            </link>
            <link>
              <linkclipref>clipitem-34</linkclipref>
              <mediatype>audio</mediatype>
              <trackindex>5</trackindex>
              <clipindex>1</clipindex>
              <groupindex>1</groupindex>
            </link>
            <link>
              <linkclipref>clipitem-35</linkclipref>
              <mediatype>audio</mediatype>
              <trackindex>6</trackindex>
              <clipindex>1</clipindex>
              <groupindex>1</groupindex>
            </link>
          </clipitem>
          <clipitem id="clipitem-41" premiereChannelType="Stereo">
            <masterclipid>masterclip-1</masterclipid>
            <name>2023-04-01 14-56-52溪神带上钻局CC.mp4</name>
            <enabled>TRUE</enabled>
            <rate>
              <timebase>60</timebase>
              <ntsc>FALSE</ntsc>
            </rate>
            <start>347</start>
            <end>454</end>
            <in>16564</in>
            <out>16671</out>
            <file id="file-1"/>
            <sourcetrack>
              <mediatype>audio</mediatype>
              <trackindex>3</trackindex>
            </sourcetrack>
            <link>
              <linkclipref>clipitem-36</linkclipref>
              <mediatype>video</mediatype>
              <trackindex>1</trackindex>
              <clipindex>1</clipindex>
            </link>
            <link>
              <linkclipref>clipitem-37</linkclipref>
              <mediatype>audio</mediatype>
              <trackindex>1</trackindex>
              <clipindex>1</clipindex>
              <groupindex>1</groupindex>
            </link>
            <link>
              <linkclipref>clipitem-38</linkclipref>
              <mediatype>audio</mediatype>
              <trackindex>2</trackindex>
              <clipindex>1</clipindex>
              <groupindex>1</groupindex>
            </link>
            <link>
              <linkclipref>clipitem-39</linkclipref>
              <mediatype>audio</mediatype>
              <trackindex>3</trackindex>
              <clipindex>1</clipindex>
              <groupindex>1</groupindex>
            </link>
            <link>
              <linkclipref>clipitem-40</linkclipref>
              <mediatype>audio</mediatype>
              <trackindex>4</trackindex>
              <clipindex>1</clipindex>
              <groupindex>1</groupindex>
            </link>
            <link>
              <linkclipref>clipitem-41</linkclipref>
              <mediatype>audio</mediatype>
              <trackindex>5</trackindex>
              <clipindex>1</clipindex>
              <groupindex>1</groupindex>
            </link>
            <link>
              <linkclipref>clipitem-42</linkclipref>
              <mediatype>audio</mediatype>
              <trackindex>6</trackindex>
              <clipindex>1</clipindex>
              <groupindex>1</groupindex>
            </link>
          </clipitem>
          <clipitem id="clipitem-48" premiereChannelType="Stereo">
            <masterclipid>masterclip-1</masterclipid>
            <name>2023-04-01 14-56-52溪神带上钻局CC.mp4</name>
            <enabled>TRUE</enabled>
            <rate>
              <timebase>60</timebase>
              <ntsc>FALSE</ntsc>
            </rate>
            <start>454</start>
            <end>572</end>
            <in>17900</in>
            <out>18018</out>
            <file id="file-1"/>
            <sourcetrack>
              <mediatype>audio</mediatype>
              <trackindex>3</trackindex>
            </sourcetrack>
            <link>
              <linkclipref>clipitem-43</linkclipref>
              <mediatype>video</mediatype>
              <trackindex>1</trackindex>
              <clipindex>1</clipindex>
            </link>
            <link>
              <linkclipref>clipitem-44</linkclipref>
              <mediatype>audio</mediatype>
              <trackindex>1</trackindex>
              <clipindex>1</clipindex>
              <groupindex>1</groupindex>
            </link>
            <link>
              <linkclipref>clipitem-45</linkclipref>
              <mediatype>audio</mediatype>
              <trackindex>2</trackindex>
              <clipindex>1</clipindex>
              <groupindex>1</groupindex>
            </link>
            <link>
              <linkclipref>clipitem-46</linkclipref>
              <mediatype>audio</mediatype>
              <trackindex>3</trackindex>
              <clipindex>1</clipindex>
              <groupindex>1</groupindex>
            </link>
            <link>
              <linkclipref>clipitem-47</linkclipref>
              <mediatype>audio</mediatype>
              <trackindex>4</trackindex>
              <clipindex>1</clipindex>
              <groupindex>1</groupindex>
            </link>
            <link>
              <linkclipref>clipitem-48</linkclipref>
              <mediatype>audio</mediatype>
              <trackindex>5</trackindex>
              <clipindex>1</clipindex>
              <groupindex>1</groupindex>
            </link>
            <link>
              <linkclipref>clipitem-49</linkclipref>
              <mediatype>audio</mediatype>
              <trackindex>6</trackindex>
              <clipindex>1</clipindex>
              <groupindex>1</groupindex>
            </link>
          </clipitem>
          <clipitem id="clipitem-55" premiereChannelType="Stereo">
            <masterclipid>masterclip-1</masterclipid>
            <name>2023-04-01 14-56-52溪神带上钻局CC.mp4</name>
            <enabled>TRUE</enabled>
            <rate>
              <timebase>60</timebase>
              <ntsc>FALSE</ntsc>
            </rate>
            <start>572</start>
            <end>727</end>
            <in>20147</in>
            <out>20302</out>
            <file id="file-1"/>
            <sourcetrack>
              <mediatype>audio</mediatype>
              <trackindex>3</trackindex>
            </sourcetrack>
            <link>
              <linkclipref>clipitem-50</linkclipref>
              <mediatype>video</mediatype>
              <trackindex>1</trackindex>
              <clipindex>1</clipindex>
            </link>
            <link>
              <linkclipref>clipitem-51</linkclipref>
              <mediatype>audio</mediatype>
              <trackindex>1</trackindex>
              <clipindex>1</clipindex>
              <groupindex>1</groupindex>
            </link>
            <link>
              <linkclipref>clipitem-52</linkclipref>
              <mediatype>audio</mediatype>
              <trackindex>2</trackindex>
              <clipindex>1</clipindex>
              <groupindex>1</groupindex>
            </link>
            <link>
              <linkclipref>clipitem-53</linkclipref>
              <mediatype>audio</mediatype>
              <trackindex>3</trackindex>
              <clipindex>1</clipindex>
              <groupindex>1</groupindex>
            </link>
            <link>
              <linkclipref>clipitem-54</linkclipref>
              <mediatype>audio</mediatype>
              <trackindex>4</trackindex>
              <clipindex>1</clipindex>
              <groupindex>1</groupindex>
            </link>
            <link>
              <linkclipref>clipitem-55</linkclipref>
              <mediatype>audio</mediatype>
              <trackindex>5</trackindex>
              <clipindex>1</clipindex>
              <groupindex>1</groupindex>
            </link>
            <link>
              <linkclipref>clipitem-56</linkclipref>
              <mediatype>audio</mediatype>
              <trackindex>6</trackindex>
              <clipindex>1</clipindex>
              <groupindex>1</groupindex>
            </link>
          </clipitem>
          <clipitem id="clipitem-62" premiereChannelType="Stereo">
            <masterclipid>masterclip-1</masterclipid>
            <name>2023-04-01 14-56-52溪神带上钻局CC.mp4</name>
            <enabled>TRUE</enabled>
            <rate>
              <timebase>60</timebase>
              <ntsc>FALSE</ntsc>
            </rate>
            <start>727</start>
            <end>875</end>
            <in>21756</in>
            <out>21904</out>
            <file id="file-1"/>
            <sourcetrack>
              <mediatype>audio</mediatype>
              <trackindex>3</trackindex>
            </sourcetrack>
            <link>
              <linkclipref>clipitem-57</linkclipref>
              <mediatype>video</mediatype>
              <trackindex>1</trackindex>
              <clipindex>1</clipindex>
            </link>
            <link>
              <linkclipref>clipitem-58</linkclipref>
              <mediatype>audio</mediatype>
              <trackindex>1</trackindex>
              <clipindex>1</clipindex>
              <groupindex>1</groupindex>
            </link>
            <link>
              <linkclipref>clipitem-59</linkclipref>
              <mediatype>audio</mediatype>
              <trackindex>2</trackindex>
              <clipindex>1</clipindex>
              <groupindex>1</groupindex>
            </link>
            <link>
              <linkclipref>clipitem-60</linkclipref>
              <mediatype>audio</mediatype>
              <trackindex>3</trackindex>
              <clipindex>1</clipindex>
              <groupindex>1</groupindex>
            </link>
            <link>
              <linkclipref>clipitem-61</linkclipref>
              <mediatype>audio</mediatype>
              <trackindex>4</trackindex>
              <clipindex>1</clipindex>
              <groupindex>1</groupindex>
            </link>
            <link>
              <linkclipref>clipitem-62</linkclipref>
              <mediatype>audio</mediatype>
              <trackindex>5</trackindex>
              <clipindex>1</clipindex>
              <groupindex>1</groupindex>
            </link>
            <link>
              <linkclipref>clipitem-63</linkclipref>
              <mediatype>audio</mediatype>
              <trackindex>6</trackindex>
              <clipindex>1</clipindex>
              <groupindex>1</groupindex>
            </link>
          </clipitem>
          <clipitem id="clipitem-69" premiereChannelType="Stereo">
            <masterclipid>masterclip-1</masterclipid>
            <name>2023-04-01 14-56-52溪神带上钻局CC.mp4</name>
            <enabled>TRUE</enabled>
            <rate>
              <timebase>60</timebase>
              <ntsc>FALSE</ntsc>
            </rate>
            <start>875</start>
            <end>1011</end>
            <in>22231</in>
            <out>22367</out>
            <file id="file-1"/>
            <sourcetrack>
              <mediatype>audio</mediatype>
              <trackindex>3</trackindex>
            </sourcetrack>
            <link>
              <linkclipref>clipitem-64</linkclipref>
              <mediatype>video</mediatype>
              <trackindex>1</trackindex>
              <clipindex>1</clipindex>
            </link>
            <link>
              <linkclipref>clipitem-65</linkclipref>
              <mediatype>audio</mediatype>
              <trackindex>1</trackindex>
              <clipindex>1</clipindex>
              <groupindex>1</groupindex>
            </link>
            <link>
              <linkclipref>clipitem-66</linkclipref>
              <mediatype>audio</mediatype>
              <trackindex>2</trackindex>
              <clipindex>1</clipindex>
              <groupindex>1</groupindex>
            </link>
            <link>
              <linkclipref>clipitem-67</linkclipref>
              <mediatype>audio</mediatype>
              <trackindex>3</trackindex>
              <clipindex>1</clipindex>
              <groupindex>1</groupindex>
            </link>
            <link>
              <linkclipref>clipitem-68</linkclipref>
              <mediatype>audio</mediatype>
              <trackindex>4</trackindex>
              <clipindex>1</clipindex>
              <groupindex>1</groupindex>
            </link>
            <link>
              <linkclipref>clipitem-69</linkclipref>
              <mediatype>audio</mediatype>
              <trackindex>5</trackindex>
              <clipindex>1</clipindex>
              <groupindex>1</groupindex>
            </link>
            <link>
              <linkclipref>clipitem-70</linkclipref>
              <mediatype>audio</mediatype>
              <trackindex>6</trackindex>
              <clipindex>1</clipindex>
              <groupindex>1</groupindex>
            </link>
          </clipitem>
          <clipitem id="clipitem-76" premiereChannelType="Stereo">
            <masterclipid>masterclip-1</masterclipid>
            <name>2023-04-01 14-56-52溪神带上钻局CC.mp4</name>
            <enabled>TRUE</enabled>
            <rate>
              <timebase>60</timebase>
              <ntsc>FALSE</ntsc>
            </rate>
            <start>1011</start>
            <end>1086</end>
            <in>22676</in>
            <out>22751</out>
            <file id="file-1"/>
            <sourcetrack>
              <mediatype>audio</mediatype>
              <trackindex>3</trackindex>
            </sourcetrack>
            <link>
              <linkclipref>clipitem-71</linkclipref>
              <mediatype>video</mediatype>
              <trackindex>1</trackindex>
              <clipindex>1</clipindex>
            </link>
            <link>
              <linkclipref>clipitem-72</linkclipref>
              <mediatype>audio</mediatype>
              <trackindex>1</trackindex>
              <clipindex>1</clipindex>
              <groupindex>1</groupindex>
            </link>
            <link>
              <linkclipref>clipitem-73</linkclipref>
              <mediatype>audio</mediatype>
              <trackindex>2</trackindex>
              <clipindex>1</clipindex>
              <groupindex>1</groupindex>
            </link>
            <link>
              <linkclipref>clipitem-74</linkclipref>
              <mediatype>audio</mediatype>
              <trackindex>3</trackindex>
              <clipindex>1</clipindex>
              <groupindex>1</groupindex>
            </link>
            <link>
              <linkclipref>clipitem-75</linkclipref>
              <mediatype>audio</mediatype>
              <trackindex>4</trackindex>
              <clipindex>1</clipindex>
              <groupindex>1</groupindex>
            </link>
            <link>
              <linkclipref>clipitem-76</linkclipref>
              <mediatype>audio</mediatype>
              <trackindex>5</trackindex>
              <clipindex>1</clipindex>
              <groupindex>1</groupindex>
            </link>
            <link>
              <linkclipref>clipitem-77</linkclipref>
              <mediatype>audio</mediatype>
              <trackindex>6</trackindex>
              <clipindex>1</clipindex>
              <groupindex>1</groupindex>
            </link>
          </clipitem>
          <clipitem id="clipitem-83" premiereChannelType="Stereo">
            <masterclipid>masterclip-1</masterclipid>
            <name>2023-04-01 14-56-52溪神带上钻局CC.mp4</name>
            <enabled>TRUE</enabled>
            <rate>
              <timebase>60</timebase>
              <ntsc>FALSE</ntsc>
            </rate>
            <start>1086</start>
            <end>1222</end>
            <in>23095</in>
            <out>23231</out>
            <file id="file-1"/>
            <sourcetrack>
              <mediatype>audio</mediatype>
              <trackindex>3</trackindex>
            </sourcetrack>
            <link>
              <linkclipref>clipitem-78</linkclipref>
              <mediatype>video</mediatype>
              <trackindex>1</trackindex>
              <clipindex>1</clipindex>
            </link>
            <link>
              <linkclipref>clipitem-79</linkclipref>
              <mediatype>audio</mediatype>
              <trackindex>1</trackindex>
              <clipindex>1</clipindex>
              <groupindex>1</groupindex>
            </link>
            <link>
              <linkclipref>clipitem-80</linkclipref>
              <mediatype>audio</mediatype>
              <trackindex>2</trackindex>
              <clipindex>1</clipindex>
              <groupindex>1</groupindex>
            </link>
            <link>
              <linkclipref>clipitem-81</linkclipref>
              <mediatype>audio</mediatype>
              <trackindex>3</trackindex>
              <clipindex>1</clipindex>
              <groupindex>1</groupindex>
            </link>
            <link>
              <linkclipref>clipitem-82</linkclipref>
              <mediatype>audio</mediatype>
              <trackindex>4</trackindex>
              <clipindex>1</clipindex>
              <groupindex>1</groupindex>
            </link>
            <link>
              <linkclipref>clipitem-83</linkclipref>
              <mediatype>audio</mediatype>
              <trackindex>5</trackindex>
              <clipindex>1</clipindex>
              <groupindex>1</groupindex>
            </link>
            <link>
              <linkclipref>clipitem-84</linkclipref>
              <mediatype>audio</mediatype>
              <trackindex>6</trackindex>
              <clipindex>1</clipindex>
              <groupindex>1</groupindex>
            </link>
          </clipitem>
          <clipitem id="clipitem-90" premiereChannelType="Stereo">
            <masterclipid>masterclip-1</masterclipid>
            <name>2023-04-01 14-56-52溪神带上钻局CC.mp4</name>
            <enabled>TRUE</enabled>
            <rate>
              <timebase>60</timebase>
              <ntsc>FALSE</ntsc>
            </rate>
            <start>1222</start>
            <end>1377</end>
            <in>23363</in>
            <out>23518</out>
            <file id="file-1"/>
            <sourcetrack>
              <mediatype>audio</mediatype>
              <trackindex>3</trackindex>
            </sourcetrack>
            <link>
              <linkclipref>clipitem-85</linkclipref>
              <mediatype>video</mediatype>
              <trackindex>1</trackindex>
              <clipindex>1</clipindex>
            </link>
            <link>
              <linkclipref>clipitem-86</linkclipref>
              <mediatype>audio</mediatype>
              <trackindex>1</trackindex>
              <clipindex>1</clipindex>
              <groupindex>1</groupindex>
            </link>
            <link>
              <linkclipref>clipitem-87</linkclipref>
              <mediatype>audio</mediatype>
              <trackindex>2</trackindex>
              <clipindex>1</clipindex>
              <groupindex>1</groupindex>
            </link>
            <link>
              <linkclipref>clipitem-88</linkclipref>
              <mediatype>audio</mediatype>
              <trackindex>3</trackindex>
              <clipindex>1</clipindex>
              <groupindex>1</groupindex>
            </link>
            <link>
              <linkclipref>clipitem-89</linkclipref>
              <mediatype>audio</mediatype>
              <trackindex>4</trackindex>
              <clipindex>1</clipindex>
              <groupindex>1</groupindex>
            </link>
            <link>
              <linkclipref>clipitem-90</linkclipref>
              <mediatype>audio</mediatype>
              <trackindex>5</trackindex>
              <clipindex>1</clipindex>
              <groupindex>1</groupindex>
            </link>
            <link>
              <linkclipref>clipitem-91</linkclipref>
              <mediatype>audio</mediatype>
              <trackindex>6</trackindex>
              <clipindex>1</clipindex>
              <groupindex>1</groupindex>
            </link>
          </clipitem>
          <clipitem id="clipitem-97" premiereChannelType="Stereo">
            <masterclipid>masterclip-1</masterclipid>
            <name>2023-04-01 14-56-52溪神带上钻局CC.mp4</name>
            <enabled>TRUE</enabled>
            <rate>
              <timebase>60</timebase>
              <ntsc>FALSE</ntsc>
            </rate>
            <start>1377</start>
            <end>1585</end>
            <in>23972</in>
            <out>24180</out>
            <file id="file-1"/>
            <sourcetrack>
              <mediatype>audio</mediatype>
              <trackindex>3</trackindex>
            </sourcetrack>
            <link>
              <linkclipref>clipitem-92</linkclipref>
              <mediatype>video</mediatype>
              <trackindex>1</trackindex>
              <clipindex>1</clipindex>
            </link>
            <link>
              <linkclipref>clipitem-93</linkclipref>
              <mediatype>audio</mediatype>
              <trackindex>1</trackindex>
              <clipindex>1</clipindex>
              <groupindex>1</groupindex>
            </link>
            <link>
              <linkclipref>clipitem-94</linkclipref>
              <mediatype>audio</mediatype>
              <trackindex>2</trackindex>
              <clipindex>1</clipindex>
              <groupindex>1</groupindex>
            </link>
            <link>
              <linkclipref>clipitem-95</linkclipref>
              <mediatype>audio</mediatype>
              <trackindex>3</trackindex>
              <clipindex>1</clipindex>
              <groupindex>1</groupindex>
            </link>
            <link>
              <linkclipref>clipitem-96</linkclipref>
              <mediatype>audio</mediatype>
              <trackindex>4</trackindex>
              <clipindex>1</clipindex>
              <groupindex>1</groupindex>
            </link>
            <link>
              <linkclipref>clipitem-97</linkclipref>
              <mediatype>audio</mediatype>
              <trackindex>5</trackindex>
              <clipindex>1</clipindex>
              <groupindex>1</groupindex>
            </link>
            <link>
              <linkclipref>clipitem-98</linkclipref>
              <mediatype>audio</mediatype>
              <trackindex>6</trackindex>
              <clipindex>1</clipindex>
              <groupindex>1</groupindex>
            </link>
          </clipitem>
          <clipitem id="clipitem-104" premiereChannelType="Stereo">
            <masterclipid>masterclip-1</masterclipid>
            <name>2023-04-01 14-56-52溪神带上钻局CC.mp4</name>
            <enabled>TRUE</enabled>
            <rate>
              <timebase>60</timebase>
              <ntsc>FALSE</ntsc>
            </rate>
            <start>1585</start>
            <end>1746</end>
            <in>27845</in>
            <out>28006</out>
            <file id="file-1"/>
            <sourcetrack>
              <mediatype>audio</mediatype>
              <trackindex>3</trackindex>
            </sourcetrack>
            <link>
              <linkclipref>clipitem-99</linkclipref>
              <mediatype>video</mediatype>
              <trackindex>1</trackindex>
              <clipindex>1</clipindex>
            </link>
            <link>
              <linkclipref>clipitem-100</linkclipref>
              <mediatype>audio</mediatype>
              <trackindex>1</trackindex>
              <clipindex>1</clipindex>
              <groupindex>1</groupindex>
            </link>
            <link>
              <linkclipref>clipitem-101</linkclipref>
              <mediatype>audio</mediatype>
              <trackindex>2</trackindex>
              <clipindex>1</clipindex>
              <groupindex>1</groupindex>
            </link>
            <link>
              <linkclipref>clipitem-102</linkclipref>
              <mediatype>audio</mediatype>
              <trackindex>3</trackindex>
              <clipindex>1</clipindex>
              <groupindex>1</groupindex>
            </link>
            <link>
              <linkclipref>clipitem-103</linkclipref>
              <mediatype>audio</mediatype>
              <trackindex>4</trackindex>
              <clipindex>1</clipindex>
              <groupindex>1</groupindex>
            </link>
            <link>
              <linkclipref>clipitem-104</linkclipref>
              <mediatype>audio</mediatype>
              <trackindex>5</trackindex>
              <clipindex>1</clipindex>
              <groupindex>1</groupindex>
            </link>
            <link>
              <linkclipref>clipitem-105</linkclipref>
              <mediatype>audio</mediatype>
              <trackindex>6</trackindex>
              <clipindex>1</clipindex>
              <groupindex>1</groupindex>
            </link>
          </clipitem>
          <clipitem id="clipitem-111" premiereChannelType="Stereo">
            <masterclipid>masterclip-1</masterclipid>
            <name>2023-04-01 14-56-52溪神带上钻局CC.mp4</name>
            <enabled>TRUE</enabled>
            <rate>
              <timebase>60</timebase>
              <ntsc>FALSE</ntsc>
            </rate>
            <start>1746</start>
            <end>1825</end>
            <in>28363</in>
            <out>28442</out>
            <file id="file-1"/>
            <sourcetrack>
              <mediatype>audio</mediatype>
              <trackindex>3</trackindex>
            </sourcetrack>
            <link>
              <linkclipref>clipitem-106</linkclipref>
              <mediatype>video</mediatype>
              <trackindex>1</trackindex>
              <clipindex>1</clipindex>
            </link>
            <link>
              <linkclipref>clipitem-107</linkclipref>
              <mediatype>audio</mediatype>
              <trackindex>1</trackindex>
              <clipindex>1</clipindex>
              <groupindex>1</groupindex>
            </link>
            <link>
              <linkclipref>clipitem-108</linkclipref>
              <mediatype>audio</mediatype>
              <trackindex>2</trackindex>
              <clipindex>1</clipindex>
              <groupindex>1</groupindex>
            </link>
            <link>
              <linkclipref>clipitem-109</linkclipref>
              <mediatype>audio</mediatype>
              <trackindex>3</trackindex>
              <clipindex>1</clipindex>
              <groupindex>1</groupindex>
            </link>
            <link>
              <linkclipref>clipitem-110</linkclipref>
              <mediatype>audio</mediatype>
              <trackindex>4</trackindex>
              <clipindex>1</clipindex>
              <groupindex>1</groupindex>
            </link>
            <link>
              <linkclipref>clipitem-111</linkclipref>
              <mediatype>audio</mediatype>
              <trackindex>5</trackindex>
              <clipindex>1</clipindex>
              <groupindex>1</groupindex>
            </link>
            <link>
              <linkclipref>clipitem-112</linkclipref>
              <mediatype>audio</mediatype>
              <trackindex>6</trackindex>
              <clipindex>1</clipindex>
              <groupindex>1</groupindex>
            </link>
          </clipitem>
          <clipitem id="clipitem-118" premiereChannelType="Stereo">
            <masterclipid>masterclip-1</masterclipid>
            <name>2023-04-01 14-56-52溪神带上钻局CC.mp4</name>
            <enabled>TRUE</enabled>
            <rate>
              <timebase>60</timebase>
              <ntsc>FALSE</ntsc>
            </rate>
            <start>1825</start>
            <end>2005</end>
            <in>29080</in>
            <out>29260</out>
            <file id="file-1"/>
            <sourcetrack>
              <mediatype>audio</mediatype>
              <trackindex>3</trackindex>
            </sourcetrack>
            <link>
              <linkclipref>clipitem-113</linkclipref>
              <mediatype>video</mediatype>
              <trackindex>1</trackindex>
              <clipindex>1</clipindex>
            </link>
            <link>
              <linkclipref>clipitem-114</linkclipref>
              <mediatype>audio</mediatype>
              <trackindex>1</trackindex>
              <clipindex>1</clipindex>
              <groupindex>1</groupindex>
            </link>
            <link>
              <linkclipref>clipitem-115</linkclipref>
              <mediatype>audio</mediatype>
              <trackindex>2</trackindex>
              <clipindex>1</clipindex>
              <groupindex>1</groupindex>
            </link>
            <link>
              <linkclipref>clipitem-116</linkclipref>
              <mediatype>audio</mediatype>
              <trackindex>3</trackindex>
              <clipindex>1</clipindex>
              <groupindex>1</groupindex>
            </link>
            <link>
              <linkclipref>clipitem-117</linkclipref>
              <mediatype>audio</mediatype>
              <trackindex>4</trackindex>
              <clipindex>1</clipindex>
              <groupindex>1</groupindex>
            </link>
            <link>
              <linkclipref>clipitem-118</linkclipref>
              <mediatype>audio</mediatype>
              <trackindex>5</trackindex>
              <clipindex>1</clipindex>
              <groupindex>1</groupindex>
            </link>
            <link>
              <linkclipref>clipitem-119</linkclipref>
              <mediatype>audio</mediatype>
              <trackindex>6</trackindex>
              <clipindex>1</clipindex>
              <groupindex>1</groupindex>
            </link>
          </clipitem>
          <clipitem id="clipitem-125" premiereChannelType="Stereo">
            <masterclipid>masterclip-1</masterclipid>
            <name>2023-04-01 14-56-52溪神带上钻局CC.mp4</name>
            <enabled>TRUE</enabled>
            <rate>
              <timebase>60</timebase>
              <ntsc>FALSE</ntsc>
            </rate>
            <start>2005</start>
            <end>2023</end>
            <in>29971</in>
            <out>29989</out>
            <file id="file-1"/>
            <sourcetrack>
              <mediatype>audio</mediatype>
              <trackindex>3</trackindex>
            </sourcetrack>
            <link>
              <linkclipref>clipitem-120</linkclipref>
              <mediatype>video</mediatype>
              <trackindex>1</trackindex>
              <clipindex>1</clipindex>
            </link>
            <link>
              <linkclipref>clipitem-121</linkclipref>
              <mediatype>audio</mediatype>
              <trackindex>1</trackindex>
              <clipindex>1</clipindex>
              <groupindex>1</groupindex>
            </link>
            <link>
              <linkclipref>clipitem-122</linkclipref>
              <mediatype>audio</mediatype>
              <trackindex>2</trackindex>
              <clipindex>1</clipindex>
              <groupindex>1</groupindex>
            </link>
            <link>
              <linkclipref>clipitem-123</linkclipref>
              <mediatype>audio</mediatype>
              <trackindex>3</trackindex>
              <clipindex>1</clipindex>
              <groupindex>1</groupindex>
            </link>
            <link>
              <linkclipref>clipitem-124</linkclipref>
              <mediatype>audio</mediatype>
              <trackindex>4</trackindex>
              <clipindex>1</clipindex>
              <groupindex>1</groupindex>
            </link>
            <link>
              <linkclipref>clipitem-125</linkclipref>
              <mediatype>audio</mediatype>
              <trackindex>5</trackindex>
              <clipindex>1</clipindex>
              <groupindex>1</groupindex>
            </link>
            <link>
              <linkclipref>clipitem-126</linkclipref>
              <mediatype>audio</mediatype>
              <trackindex>6</trackindex>
              <clipindex>1</clipindex>
              <groupindex>1</groupindex>
            </link>
          </clipitem>
          <clipitem id="clipitem-132" premiereChannelType="Stereo">
            <masterclipid>masterclip-1</masterclipid>
            <name>2023-04-01 14-56-52溪神带上钻局CC.mp4</name>
            <enabled>TRUE</enabled>
            <rate>
              <timebase>60</timebase>
              <ntsc>FALSE</ntsc>
            </rate>
            <start>2023</start>
            <end>2100</end>
            <in>30064</in>
            <out>30141</out>
            <file id="file-1"/>
            <sourcetrack>
              <mediatype>audio</mediatype>
              <trackindex>3</trackindex>
            </sourcetrack>
            <link>
              <linkclipref>clipitem-127</linkclipref>
              <mediatype>video</mediatype>
              <trackindex>1</trackindex>
              <clipindex>1</clipindex>
            </link>
            <link>
              <linkclipref>clipitem-128</linkclipref>
              <mediatype>audio</mediatype>
              <trackindex>1</trackindex>
              <clipindex>1</clipindex>
              <groupindex>1</groupindex>
            </link>
            <link>
              <linkclipref>clipitem-129</linkclipref>
              <mediatype>audio</mediatype>
              <trackindex>2</trackindex>
              <clipindex>1</clipindex>
              <groupindex>1</groupindex>
            </link>
            <link>
              <linkclipref>clipitem-130</linkclipref>
              <mediatype>audio</mediatype>
              <trackindex>3</trackindex>
              <clipindex>1</clipindex>
              <groupindex>1</groupindex>
            </link>
            <link>
              <linkclipref>clipitem-131</linkclipref>
              <mediatype>audio</mediatype>
              <trackindex>4</trackindex>
              <clipindex>1</clipindex>
              <groupindex>1</groupindex>
            </link>
            <link>
              <linkclipref>clipitem-132</linkclipref>
              <mediatype>audio</mediatype>
              <trackindex>5</trackindex>
              <clipindex>1</clipindex>
              <groupindex>1</groupindex>
            </link>
            <link>
              <linkclipref>clipitem-133</linkclipref>
              <mediatype>audio</mediatype>
              <trackindex>6</trackindex>
              <clipindex>1</clipindex>
              <groupindex>1</groupindex>
            </link>
          </clipitem>
          <clipitem id="clipitem-139" premiereChannelType="Stereo">
            <masterclipid>masterclip-1</masterclipid>
            <name>2023-04-01 14-56-52溪神带上钻局CC.mp4</name>
            <enabled>TRUE</enabled>
            <rate>
              <timebase>60</timebase>
              <ntsc>FALSE</ntsc>
            </rate>
            <start>2100</start>
            <end>2267</end>
            <in>30347</in>
            <out>30514</out>
            <file id="file-1"/>
            <sourcetrack>
              <mediatype>audio</mediatype>
              <trackindex>3</trackindex>
            </sourcetrack>
            <link>
              <linkclipref>clipitem-134</linkclipref>
              <mediatype>video</mediatype>
              <trackindex>1</trackindex>
              <clipindex>1</clipindex>
            </link>
            <link>
              <linkclipref>clipitem-135</linkclipref>
              <mediatype>audio</mediatype>
              <trackindex>1</trackindex>
              <clipindex>1</clipindex>
              <groupindex>1</groupindex>
            </link>
            <link>
              <linkclipref>clipitem-136</linkclipref>
              <mediatype>audio</mediatype>
              <trackindex>2</trackindex>
              <clipindex>1</clipindex>
              <groupindex>1</groupindex>
            </link>
            <link>
              <linkclipref>clipitem-137</linkclipref>
              <mediatype>audio</mediatype>
              <trackindex>3</trackindex>
              <clipindex>1</clipindex>
              <groupindex>1</groupindex>
            </link>
            <link>
              <linkclipref>clipitem-138</linkclipref>
              <mediatype>audio</mediatype>
              <trackindex>4</trackindex>
              <clipindex>1</clipindex>
              <groupindex>1</groupindex>
            </link>
            <link>
              <linkclipref>clipitem-139</linkclipref>
              <mediatype>audio</mediatype>
              <trackindex>5</trackindex>
              <clipindex>1</clipindex>
              <groupindex>1</groupindex>
            </link>
            <link>
              <linkclipref>clipitem-140</linkclipref>
              <mediatype>audio</mediatype>
              <trackindex>6</trackindex>
              <clipindex>1</clipindex>
              <groupindex>1</groupindex>
            </link>
          </clipitem>
          <clipitem id="clipitem-146" premiereChannelType="Stereo">
            <masterclipid>masterclip-1</masterclipid>
            <name>2023-04-01 14-56-52溪神带上钻局CC.mp4</name>
            <enabled>TRUE</enabled>
            <rate>
              <timebase>60</timebase>
              <ntsc>FALSE</ntsc>
            </rate>
            <start>2267</start>
            <end>2391</end>
            <in>41935</in>
            <out>42059</out>
            <file id="file-1"/>
            <sourcetrack>
              <mediatype>audio</mediatype>
              <trackindex>3</trackindex>
            </sourcetrack>
            <link>
              <linkclipref>clipitem-141</linkclipref>
              <mediatype>video</mediatype>
              <trackindex>1</trackindex>
              <clipindex>1</clipindex>
            </link>
            <link>
              <linkclipref>clipitem-142</linkclipref>
              <mediatype>audio</mediatype>
              <trackindex>1</trackindex>
              <clipindex>1</clipindex>
              <groupindex>1</groupindex>
            </link>
            <link>
              <linkclipref>clipitem-143</linkclipref>
              <mediatype>audio</mediatype>
              <trackindex>2</trackindex>
              <clipindex>1</clipindex>
              <groupindex>1</groupindex>
            </link>
            <link>
              <linkclipref>clipitem-144</linkclipref>
              <mediatype>audio</mediatype>
              <trackindex>3</trackindex>
              <clipindex>1</clipindex>
              <groupindex>1</groupindex>
            </link>
            <link>
              <linkclipref>clipitem-145</linkclipref>
              <mediatype>audio</mediatype>
              <trackindex>4</trackindex>
              <clipindex>1</clipindex>
              <groupindex>1</groupindex>
            </link>
            <link>
              <linkclipref>clipitem-146</linkclipref>
              <mediatype>audio</mediatype>
              <trackindex>5</trackindex>
              <clipindex>1</clipindex>
              <groupindex>1</groupindex>
            </link>
            <link>
              <linkclipref>clipitem-147</linkclipref>
              <mediatype>audio</mediatype>
              <trackindex>6</trackindex>
              <clipindex>1</clipindex>
              <groupindex>1</groupindex>
            </link>
          </clipitem>
          <clipitem id="clipitem-153" premiereChannelType="Stereo">
            <masterclipid>masterclip-1</masterclipid>
            <name>2023-04-01 14-56-52溪神带上钻局CC.mp4</name>
            <enabled>TRUE</enabled>
            <rate>
              <timebase>60</timebase>
              <ntsc>FALSE</ntsc>
            </rate>
            <start>2391</start>
            <end>2618</end>
            <in>46337</in>
            <out>46564</out>
            <file id="file-1"/>
            <sourcetrack>
              <mediatype>audio</mediatype>
              <trackindex>3</trackindex>
            </sourcetrack>
            <link>
              <linkclipref>clipitem-148</linkclipref>
              <mediatype>video</mediatype>
              <trackindex>1</trackindex>
              <clipindex>1</clipindex>
            </link>
            <link>
              <linkclipref>clipitem-149</linkclipref>
              <mediatype>audio</mediatype>
              <trackindex>1</trackindex>
              <clipindex>1</clipindex>
              <groupindex>1</groupindex>
            </link>
            <link>
              <linkclipref>clipitem-150</linkclipref>
              <mediatype>audio</mediatype>
              <trackindex>2</trackindex>
              <clipindex>1</clipindex>
              <groupindex>1</groupindex>
            </link>
            <link>
              <linkclipref>clipitem-151</linkclipref>
              <mediatype>audio</mediatype>
              <trackindex>3</trackindex>
              <clipindex>1</clipindex>
              <groupindex>1</groupindex>
            </link>
            <link>
              <linkclipref>clipitem-152</linkclipref>
              <mediatype>audio</mediatype>
              <trackindex>4</trackindex>
              <clipindex>1</clipindex>
              <groupindex>1</groupindex>
            </link>
            <link>
              <linkclipref>clipitem-153</linkclipref>
              <mediatype>audio</mediatype>
              <trackindex>5</trackindex>
              <clipindex>1</clipindex>
              <groupindex>1</groupindex>
            </link>
            <link>
              <linkclipref>clipitem-154</linkclipref>
              <mediatype>audio</mediatype>
              <trackindex>6</trackindex>
              <clipindex>1</clipindex>
              <groupindex>1</groupindex>
            </link>
          </clipitem>
          <clipitem id="clipitem-160" premiereChannelType="Stereo">
            <masterclipid>masterclip-1</masterclipid>
            <name>2023-04-01 14-56-52溪神带上钻局CC.mp4</name>
            <enabled>TRUE</enabled>
            <rate>
              <timebase>60</timebase>
              <ntsc>FALSE</ntsc>
            </rate>
            <start>2618</start>
            <end>2894</end>
            <in>47608</in>
            <out>47884</out>
            <file id="file-1"/>
            <sourcetrack>
              <mediatype>audio</mediatype>
              <trackindex>3</trackindex>
            </sourcetrack>
            <link>
              <linkclipref>clipitem-155</linkclipref>
              <mediatype>video</mediatype>
              <trackindex>1</trackindex>
              <clipindex>1</clipindex>
            </link>
            <link>
              <linkclipref>clipitem-156</linkclipref>
              <mediatype>audio</mediatype>
              <trackindex>1</trackindex>
              <clipindex>1</clipindex>
              <groupindex>1</groupindex>
            </link>
            <link>
              <linkclipref>clipitem-157</linkclipref>
              <mediatype>audio</mediatype>
              <trackindex>2</trackindex>
              <clipindex>1</clipindex>
              <groupindex>1</groupindex>
            </link>
            <link>
              <linkclipref>clipitem-158</linkclipref>
              <mediatype>audio</mediatype>
              <trackindex>3</trackindex>
              <clipindex>1</clipindex>
              <groupindex>1</groupindex>
            </link>
            <link>
              <linkclipref>clipitem-159</linkclipref>
              <mediatype>audio</mediatype>
              <trackindex>4</trackindex>
              <clipindex>1</clipindex>
              <groupindex>1</groupindex>
            </link>
            <link>
              <linkclipref>clipitem-160</linkclipref>
              <mediatype>audio</mediatype>
              <trackindex>5</trackindex>
              <clipindex>1</clipindex>
              <groupindex>1</groupindex>
            </link>
            <link>
              <linkclipref>clipitem-161</linkclipref>
              <mediatype>audio</mediatype>
              <trackindex>6</trackindex>
              <clipindex>1</clipindex>
              <groupindex>1</groupindex>
            </link>
          </clipitem>
          <clipitem id="clipitem-167" premiereChannelType="Stereo">
            <masterclipid>masterclip-1</masterclipid>
            <name>2023-04-01 14-56-52溪神带上钻局CC.mp4</name>
            <enabled>TRUE</enabled>
            <rate>
              <timebase>60</timebase>
              <ntsc>FALSE</ntsc>
            </rate>
            <start>2894</start>
            <end>3196</end>
            <in>47995</in>
            <out>48297</out>
            <file id="file-1"/>
            <sourcetrack>
              <mediatype>audio</mediatype>
              <trackindex>3</trackindex>
            </sourcetrack>
            <link>
              <linkclipref>clipitem-162</linkclipref>
              <mediatype>video</mediatype>
              <trackindex>1</trackindex>
              <clipindex>1</clipindex>
            </link>
            <link>
              <linkclipref>clipitem-163</linkclipref>
              <mediatype>audio</mediatype>
              <trackindex>1</trackindex>
              <clipindex>1</clipindex>
              <groupindex>1</groupindex>
            </link>
            <link>
              <linkclipref>clipitem-164</linkclipref>
              <mediatype>audio</mediatype>
              <trackindex>2</trackindex>
              <clipindex>1</clipindex>
              <groupindex>1</groupindex>
            </link>
            <link>
              <linkclipref>clipitem-165</linkclipref>
              <mediatype>audio</mediatype>
              <trackindex>3</trackindex>
              <clipindex>1</clipindex>
              <groupindex>1</groupindex>
            </link>
            <link>
              <linkclipref>clipitem-166</linkclipref>
              <mediatype>audio</mediatype>
              <trackindex>4</trackindex>
              <clipindex>1</clipindex>
              <groupindex>1</groupindex>
            </link>
            <link>
              <linkclipref>clipitem-167</linkclipref>
              <mediatype>audio</mediatype>
              <trackindex>5</trackindex>
              <clipindex>1</clipindex>
              <groupindex>1</groupindex>
            </link>
            <link>
              <linkclipref>clipitem-168</linkclipref>
              <mediatype>audio</mediatype>
              <trackindex>6</trackindex>
              <clipindex>1</clipindex>
              <groupindex>1</groupindex>
            </link>
          </clipitem>
          <clipitem id="clipitem-174" premiereChannelType="Stereo">
            <masterclipid>masterclip-1</masterclipid>
            <name>2023-04-01 14-56-52溪神带上钻局CC.mp4</name>
            <enabled>TRUE</enabled>
            <rate>
              <timebase>60</timebase>
              <ntsc>FALSE</ntsc>
            </rate>
            <start>3196</start>
            <end>3357</end>
            <in>49039</in>
            <out>49200</out>
            <file id="file-1"/>
            <sourcetrack>
              <mediatype>audio</mediatype>
              <trackindex>3</trackindex>
            </sourcetrack>
            <link>
              <linkclipref>clipitem-169</linkclipref>
              <mediatype>video</mediatype>
              <trackindex>1</trackindex>
              <clipindex>1</clipindex>
            </link>
            <link>
              <linkclipref>clipitem-170</linkclipref>
              <mediatype>audio</mediatype>
              <trackindex>1</trackindex>
              <clipindex>1</clipindex>
              <groupindex>1</groupindex>
            </link>
            <link>
              <linkclipref>clipitem-171</linkclipref>
              <mediatype>audio</mediatype>
              <trackindex>2</trackindex>
              <clipindex>1</clipindex>
              <groupindex>1</groupindex>
            </link>
            <link>
              <linkclipref>clipitem-172</linkclipref>
              <mediatype>audio</mediatype>
              <trackindex>3</trackindex>
              <clipindex>1</clipindex>
              <groupindex>1</groupindex>
            </link>
            <link>
              <linkclipref>clipitem-173</linkclipref>
              <mediatype>audio</mediatype>
              <trackindex>4</trackindex>
              <clipindex>1</clipindex>
              <groupindex>1</groupindex>
            </link>
            <link>
              <linkclipref>clipitem-174</linkclipref>
              <mediatype>audio</mediatype>
              <trackindex>5</trackindex>
              <clipindex>1</clipindex>
              <groupindex>1</groupindex>
            </link>
            <link>
              <linkclipref>clipitem-175</linkclipref>
              <mediatype>audio</mediatype>
              <trackindex>6</trackindex>
              <clipindex>1</clipindex>
              <groupindex>1</groupindex>
            </link>
          </clipitem>
          <clipitem id="clipitem-181" premiereChannelType="Stereo">
            <masterclipid>masterclip-1</masterclipid>
            <name>2023-04-01 14-56-52溪神带上钻局CC.mp4</name>
            <enabled>TRUE</enabled>
            <rate>
              <timebase>60</timebase>
              <ntsc>FALSE</ntsc>
            </rate>
            <start>3357</start>
            <end>3460</end>
            <in>50487</in>
            <out>50590</out>
            <file id="file-1"/>
            <sourcetrack>
              <mediatype>audio</mediatype>
              <trackindex>3</trackindex>
            </sourcetrack>
            <link>
              <linkclipref>clipitem-176</linkclipref>
              <mediatype>video</mediatype>
              <trackindex>1</trackindex>
              <clipindex>1</clipindex>
            </link>
            <link>
              <linkclipref>clipitem-177</linkclipref>
              <mediatype>audio</mediatype>
              <trackindex>1</trackindex>
              <clipindex>1</clipindex>
              <groupindex>1</groupindex>
            </link>
            <link>
              <linkclipref>clipitem-178</linkclipref>
              <mediatype>audio</mediatype>
              <trackindex>2</trackindex>
              <clipindex>1</clipindex>
              <groupindex>1</groupindex>
            </link>
            <link>
              <linkclipref>clipitem-179</linkclipref>
              <mediatype>audio</mediatype>
              <trackindex>3</trackindex>
              <clipindex>1</clipindex>
              <groupindex>1</groupindex>
            </link>
            <link>
              <linkclipref>clipitem-180</linkclipref>
              <mediatype>audio</mediatype>
              <trackindex>4</trackindex>
              <clipindex>1</clipindex>
              <groupindex>1</groupindex>
            </link>
            <link>
              <linkclipref>clipitem-181</linkclipref>
              <mediatype>audio</mediatype>
              <trackindex>5</trackindex>
              <clipindex>1</clipindex>
              <groupindex>1</groupindex>
            </link>
            <link>
              <linkclipref>clipitem-182</linkclipref>
              <mediatype>audio</mediatype>
              <trackindex>6</trackindex>
              <clipindex>1</clipindex>
              <groupindex>1</groupindex>
            </link>
          </clipitem>
          <clipitem id="clipitem-188" premiereChannelType="Stereo">
            <masterclipid>masterclip-1</masterclipid>
            <name>2023-04-01 14-56-52溪神带上钻局CC.mp4</name>
            <enabled>TRUE</enabled>
            <rate>
              <timebase>60</timebase>
              <ntsc>FALSE</ntsc>
            </rate>
            <start>3460</start>
            <end>3587</end>
            <in>50744</in>
            <out>50871</out>
            <file id="file-1"/>
            <sourcetrack>
              <mediatype>audio</mediatype>
              <trackindex>3</trackindex>
            </sourcetrack>
            <link>
              <linkclipref>clipitem-183</linkclipref>
              <mediatype>video</mediatype>
              <trackindex>1</trackindex>
              <clipindex>1</clipindex>
            </link>
            <link>
              <linkclipref>clipitem-184</linkclipref>
              <mediatype>audio</mediatype>
              <trackindex>1</trackindex>
              <clipindex>1</clipindex>
              <groupindex>1</groupindex>
            </link>
            <link>
              <linkclipref>clipitem-185</linkclipref>
              <mediatype>audio</mediatype>
              <trackindex>2</trackindex>
              <clipindex>1</clipindex>
              <groupindex>1</groupindex>
            </link>
            <link>
              <linkclipref>clipitem-186</linkclipref>
              <mediatype>audio</mediatype>
              <trackindex>3</trackindex>
              <clipindex>1</clipindex>
              <groupindex>1</groupindex>
            </link>
            <link>
              <linkclipref>clipitem-187</linkclipref>
              <mediatype>audio</mediatype>
              <trackindex>4</trackindex>
              <clipindex>1</clipindex>
              <groupindex>1</groupindex>
            </link>
            <link>
              <linkclipref>clipitem-188</linkclipref>
              <mediatype>audio</mediatype>
              <trackindex>5</trackindex>
              <clipindex>1</clipindex>
              <groupindex>1</groupindex>
            </link>
            <link>
              <linkclipref>clipitem-189</linkclipref>
              <mediatype>audio</mediatype>
              <trackindex>6</trackindex>
              <clipindex>1</clipindex>
              <groupindex>1</groupindex>
            </link>
          </clipitem>
          <clipitem id="clipitem-195" premiereChannelType="Stereo">
            <masterclipid>masterclip-1</masterclipid>
            <name>2023-04-01 14-56-52溪神带上钻局CC.mp4</name>
            <enabled>TRUE</enabled>
            <rate>
              <timebase>60</timebase>
              <ntsc>FALSE</ntsc>
            </rate>
            <start>3587</start>
            <end>3794</end>
            <in>50965</in>
            <out>51172</out>
            <file id="file-1"/>
            <sourcetrack>
              <mediatype>audio</mediatype>
              <trackindex>3</trackindex>
            </sourcetrack>
            <link>
              <linkclipref>clipitem-190</linkclipref>
              <mediatype>video</mediatype>
              <trackindex>1</trackindex>
              <clipindex>1</clipindex>
            </link>
            <link>
              <linkclipref>clipitem-191</linkclipref>
              <mediatype>audio</mediatype>
              <trackindex>1</trackindex>
              <clipindex>1</clipindex>
              <groupindex>1</groupindex>
            </link>
            <link>
              <linkclipref>clipitem-192</linkclipref>
              <mediatype>audio</mediatype>
              <trackindex>2</trackindex>
              <clipindex>1</clipindex>
              <groupindex>1</groupindex>
            </link>
            <link>
              <linkclipref>clipitem-193</linkclipref>
              <mediatype>audio</mediatype>
              <trackindex>3</trackindex>
              <clipindex>1</clipindex>
              <groupindex>1</groupindex>
            </link>
            <link>
              <linkclipref>clipitem-194</linkclipref>
              <mediatype>audio</mediatype>
              <trackindex>4</trackindex>
              <clipindex>1</clipindex>
              <groupindex>1</groupindex>
            </link>
            <link>
              <linkclipref>clipitem-195</linkclipref>
              <mediatype>audio</mediatype>
              <trackindex>5</trackindex>
              <clipindex>1</clipindex>
              <groupindex>1</groupindex>
            </link>
            <link>
              <linkclipref>clipitem-196</linkclipref>
              <mediatype>audio</mediatype>
              <trackindex>6</trackindex>
              <clipindex>1</clipindex>
              <groupindex>1</groupindex>
            </link>
          </clipitem>
          <clipitem id="clipitem-202" premiereChannelType="Stereo">
            <masterclipid>masterclip-1</masterclipid>
            <name>2023-04-01 14-56-52溪神带上钻局CC.mp4</name>
            <enabled>TRUE</enabled>
            <rate>
              <timebase>60</timebase>
              <ntsc>FALSE</ntsc>
            </rate>
            <start>3794</start>
            <end>3897</end>
            <in>59295</in>
            <out>59398</out>
            <file id="file-1"/>
            <sourcetrack>
              <mediatype>audio</mediatype>
              <trackindex>3</trackindex>
            </sourcetrack>
            <link>
              <linkclipref>clipitem-197</linkclipref>
              <mediatype>video</mediatype>
              <trackindex>1</trackindex>
              <clipindex>1</clipindex>
            </link>
            <link>
              <linkclipref>clipitem-198</linkclipref>
              <mediatype>audio</mediatype>
              <trackindex>1</trackindex>
              <clipindex>1</clipindex>
              <groupindex>1</groupindex>
            </link>
            <link>
              <linkclipref>clipitem-199</linkclipref>
              <mediatype>audio</mediatype>
              <trackindex>2</trackindex>
              <clipindex>1</clipindex>
              <groupindex>1</groupindex>
            </link>
            <link>
              <linkclipref>clipitem-200</linkclipref>
              <mediatype>audio</mediatype>
              <trackindex>3</trackindex>
              <clipindex>1</clipindex>
              <groupindex>1</groupindex>
            </link>
            <link>
              <linkclipref>clipitem-201</linkclipref>
              <mediatype>audio</mediatype>
              <trackindex>4</trackindex>
              <clipindex>1</clipindex>
              <groupindex>1</groupindex>
            </link>
            <link>
              <linkclipref>clipitem-202</linkclipref>
              <mediatype>audio</mediatype>
              <trackindex>5</trackindex>
              <clipindex>1</clipindex>
              <groupindex>1</groupindex>
            </link>
            <link>
              <linkclipref>clipitem-203</linkclipref>
              <mediatype>audio</mediatype>
              <trackindex>6</trackindex>
              <clipindex>1</clipindex>
              <groupindex>1</groupindex>
            </link>
          </clipitem>
          <clipitem id="clipitem-209" premiereChannelType="Stereo">
            <masterclipid>masterclip-1</masterclipid>
            <name>2023-04-01 14-56-52溪神带上钻局CC.mp4</name>
            <enabled>TRUE</enabled>
            <rate>
              <timebase>60</timebase>
              <ntsc>FALSE</ntsc>
            </rate>
            <start>3897</start>
            <end>4026</end>
            <in>60197</in>
            <out>60326</out>
            <file id="file-1"/>
            <sourcetrack>
              <mediatype>audio</mediatype>
              <trackindex>3</trackindex>
            </sourcetrack>
            <link>
              <linkclipref>clipitem-204</linkclipref>
              <mediatype>video</mediatype>
              <trackindex>1</trackindex>
              <clipindex>1</clipindex>
            </link>
            <link>
              <linkclipref>clipitem-205</linkclipref>
              <mediatype>audio</mediatype>
              <trackindex>1</trackindex>
              <clipindex>1</clipindex>
              <groupindex>1</groupindex>
            </link>
            <link>
              <linkclipref>clipitem-206</linkclipref>
              <mediatype>audio</mediatype>
              <trackindex>2</trackindex>
              <clipindex>1</clipindex>
              <groupindex>1</groupindex>
            </link>
            <link>
              <linkclipref>clipitem-207</linkclipref>
              <mediatype>audio</mediatype>
              <trackindex>3</trackindex>
              <clipindex>1</clipindex>
              <groupindex>1</groupindex>
            </link>
            <link>
              <linkclipref>clipitem-208</linkclipref>
              <mediatype>audio</mediatype>
              <trackindex>4</trackindex>
              <clipindex>1</clipindex>
              <groupindex>1</groupindex>
            </link>
            <link>
              <linkclipref>clipitem-209</linkclipref>
              <mediatype>audio</mediatype>
              <trackindex>5</trackindex>
              <clipindex>1</clipindex>
              <groupindex>1</groupindex>
            </link>
            <link>
              <linkclipref>clipitem-210</linkclipref>
              <mediatype>audio</mediatype>
              <trackindex>6</trackindex>
              <clipindex>1</clipindex>
              <groupindex>1</groupindex>
            </link>
          </clipitem>
          <clipitem id="clipitem-216" premiereChannelType="Stereo">
            <masterclipid>masterclip-1</masterclipid>
            <name>2023-04-01 14-56-52溪神带上钻局CC.mp4</name>
            <enabled>TRUE</enabled>
            <rate>
              <timebase>60</timebase>
              <ntsc>FALSE</ntsc>
            </rate>
            <start>4026</start>
            <end>4128</end>
            <in>60335</in>
            <out>60437</out>
            <file id="file-1"/>
            <sourcetrack>
              <mediatype>audio</mediatype>
              <trackindex>3</trackindex>
            </sourcetrack>
            <link>
              <linkclipref>clipitem-211</linkclipref>
              <mediatype>video</mediatype>
              <trackindex>1</trackindex>
              <clipindex>1</clipindex>
            </link>
            <link>
              <linkclipref>clipitem-212</linkclipref>
              <mediatype>audio</mediatype>
              <trackindex>1</trackindex>
              <clipindex>1</clipindex>
              <groupindex>1</groupindex>
            </link>
            <link>
              <linkclipref>clipitem-213</linkclipref>
              <mediatype>audio</mediatype>
              <trackindex>2</trackindex>
              <clipindex>1</clipindex>
              <groupindex>1</groupindex>
            </link>
            <link>
              <linkclipref>clipitem-214</linkclipref>
              <mediatype>audio</mediatype>
              <trackindex>3</trackindex>
              <clipindex>1</clipindex>
              <groupindex>1</groupindex>
            </link>
            <link>
              <linkclipref>clipitem-215</linkclipref>
              <mediatype>audio</mediatype>
              <trackindex>4</trackindex>
              <clipindex>1</clipindex>
              <groupindex>1</groupindex>
            </link>
            <link>
              <linkclipref>clipitem-216</linkclipref>
              <mediatype>audio</mediatype>
              <trackindex>5</trackindex>
              <clipindex>1</clipindex>
              <groupindex>1</groupindex>
            </link>
            <link>
              <linkclipref>clipitem-217</linkclipref>
              <mediatype>audio</mediatype>
              <trackindex>6</trackindex>
              <clipindex>1</clipindex>
              <groupindex>1</groupindex>
            </link>
          </clipitem>
          <clipitem id="clipitem-223" premiereChannelType="Stereo">
            <masterclipid>masterclip-1</masterclipid>
            <name>2023-04-01 14-56-52溪神带上钻局CC.mp4</name>
            <enabled>TRUE</enabled>
            <rate>
              <timebase>60</timebase>
              <ntsc>FALSE</ntsc>
            </rate>
            <start>4128</start>
            <end>4272</end>
            <in>61170</in>
            <out>61314</out>
            <file id="file-1"/>
            <sourcetrack>
              <mediatype>audio</mediatype>
              <trackindex>3</trackindex>
            </sourcetrack>
            <link>
              <linkclipref>clipitem-218</linkclipref>
              <mediatype>video</mediatype>
              <trackindex>1</trackindex>
              <clipindex>1</clipindex>
            </link>
            <link>
              <linkclipref>clipitem-219</linkclipref>
              <mediatype>audio</mediatype>
              <trackindex>1</trackindex>
              <clipindex>1</clipindex>
              <groupindex>1</groupindex>
            </link>
            <link>
              <linkclipref>clipitem-220</linkclipref>
              <mediatype>audio</mediatype>
              <trackindex>2</trackindex>
              <clipindex>1</clipindex>
              <groupindex>1</groupindex>
            </link>
            <link>
              <linkclipref>clipitem-221</linkclipref>
              <mediatype>audio</mediatype>
              <trackindex>3</trackindex>
              <clipindex>1</clipindex>
              <groupindex>1</groupindex>
            </link>
            <link>
              <linkclipref>clipitem-222</linkclipref>
              <mediatype>audio</mediatype>
              <trackindex>4</trackindex>
              <clipindex>1</clipindex>
              <groupindex>1</groupindex>
            </link>
            <link>
              <linkclipref>clipitem-223</linkclipref>
              <mediatype>audio</mediatype>
              <trackindex>5</trackindex>
              <clipindex>1</clipindex>
              <groupindex>1</groupindex>
            </link>
            <link>
              <linkclipref>clipitem-224</linkclipref>
              <mediatype>audio</mediatype>
              <trackindex>6</trackindex>
              <clipindex>1</clipindex>
              <groupindex>1</groupindex>
            </link>
          </clipitem>
          <clipitem id="clipitem-230" premiereChannelType="Stereo">
            <masterclipid>masterclip-1</masterclipid>
            <name>2023-04-01 14-56-52溪神带上钻局CC.mp4</name>
            <enabled>TRUE</enabled>
            <rate>
              <timebase>60</timebase>
              <ntsc>FALSE</ntsc>
            </rate>
            <start>4272</start>
            <end>4399</end>
            <in>61526</in>
            <out>61653</out>
            <file id="file-1"/>
            <sourcetrack>
              <mediatype>audio</mediatype>
              <trackindex>3</trackindex>
            </sourcetrack>
            <link>
              <linkclipref>clipitem-225</linkclipref>
              <mediatype>video</mediatype>
              <trackindex>1</trackindex>
              <clipindex>1</clipindex>
            </link>
            <link>
              <linkclipref>clipitem-226</linkclipref>
              <mediatype>audio</mediatype>
              <trackindex>1</trackindex>
              <clipindex>1</clipindex>
              <groupindex>1</groupindex>
            </link>
            <link>
              <linkclipref>clipitem-227</linkclipref>
              <mediatype>audio</mediatype>
              <trackindex>2</trackindex>
              <clipindex>1</clipindex>
              <groupindex>1</groupindex>
            </link>
            <link>
              <linkclipref>clipitem-228</linkclipref>
              <mediatype>audio</mediatype>
              <trackindex>3</trackindex>
              <clipindex>1</clipindex>
              <groupindex>1</groupindex>
            </link>
            <link>
              <linkclipref>clipitem-229</linkclipref>
              <mediatype>audio</mediatype>
              <trackindex>4</trackindex>
              <clipindex>1</clipindex>
              <groupindex>1</groupindex>
            </link>
            <link>
              <linkclipref>clipitem-230</linkclipref>
              <mediatype>audio</mediatype>
              <trackindex>5</trackindex>
              <clipindex>1</clipindex>
              <groupindex>1</groupindex>
            </link>
            <link>
              <linkclipref>clipitem-231</linkclipref>
              <mediatype>audio</mediatype>
              <trackindex>6</trackindex>
              <clipindex>1</clipindex>
              <groupindex>1</groupindex>
            </link>
          </clipitem>
          <clipitem id="clipitem-237" premiereChannelType="Stereo">
            <masterclipid>masterclip-1</masterclipid>
            <name>2023-04-01 14-56-52溪神带上钻局CC.mp4</name>
            <enabled>TRUE</enabled>
            <rate>
              <timebase>60</timebase>
              <ntsc>FALSE</ntsc>
            </rate>
            <start>4399</start>
            <end>4509</end>
            <in>62041</in>
            <out>62151</out>
            <file id="file-1"/>
            <sourcetrack>
              <mediatype>audio</mediatype>
              <trackindex>3</trackindex>
            </sourcetrack>
            <link>
              <linkclipref>clipitem-232</linkclipref>
              <mediatype>video</mediatype>
              <trackindex>1</trackindex>
              <clipindex>1</clipindex>
            </link>
            <link>
              <linkclipref>clipitem-233</linkclipref>
              <mediatype>audio</mediatype>
              <trackindex>1</trackindex>
              <clipindex>1</clipindex>
              <groupindex>1</groupindex>
            </link>
            <link>
              <linkclipref>clipitem-234</linkclipref>
              <mediatype>audio</mediatype>
              <trackindex>2</trackindex>
              <clipindex>1</clipindex>
              <groupindex>1</groupindex>
            </link>
            <link>
              <linkclipref>clipitem-235</linkclipref>
              <mediatype>audio</mediatype>
              <trackindex>3</trackindex>
              <clipindex>1</clipindex>
              <groupindex>1</groupindex>
            </link>
            <link>
              <linkclipref>clipitem-236</linkclipref>
              <mediatype>audio</mediatype>
              <trackindex>4</trackindex>
              <clipindex>1</clipindex>
              <groupindex>1</groupindex>
            </link>
            <link>
              <linkclipref>clipitem-237</linkclipref>
              <mediatype>audio</mediatype>
              <trackindex>5</trackindex>
              <clipindex>1</clipindex>
              <groupindex>1</groupindex>
            </link>
            <link>
              <linkclipref>clipitem-238</linkclipref>
              <mediatype>audio</mediatype>
              <trackindex>6</trackindex>
              <clipindex>1</clipindex>
              <groupindex>1</groupindex>
            </link>
          </clipitem>
          <clipitem id="clipitem-244" premiereChannelType="Stereo">
            <masterclipid>masterclip-2</masterclipid>
            <name>2023-04-01 13-58-58溪神带飞王源5KCC.mp4</name>
            <enabled>TRUE</enabled>
            <rate>
              <timebase>60</timebase>
              <ntsc>FALSE</ntsc>
            </rate>
            <start>4509</start>
            <end>4526</end>
            <in>1764</in>
            <out>1781</out>
            <file id="file-2"/>
            <sourcetrack>
              <mediatype>audio</mediatype>
              <trackindex>3</trackindex>
            </sourcetrack>
            <link>
              <linkclipref>clipitem-239</linkclipref>
              <mediatype>video</mediatype>
              <trackindex>1</trackindex>
              <clipindex>1</clipindex>
            </link>
            <link>
              <linkclipref>clipitem-240</linkclipref>
              <mediatype>audio</mediatype>
              <trackindex>1</trackindex>
              <clipindex>1</clipindex>
              <groupindex>1</groupindex>
            </link>
            <link>
              <linkclipref>clipitem-241</linkclipref>
              <mediatype>audio</mediatype>
              <trackindex>2</trackindex>
              <clipindex>1</clipindex>
              <groupindex>1</groupindex>
            </link>
            <link>
              <linkclipref>clipitem-242</linkclipref>
              <mediatype>audio</mediatype>
              <trackindex>3</trackindex>
              <clipindex>1</clipindex>
              <groupindex>1</groupindex>
            </link>
            <link>
              <linkclipref>clipitem-243</linkclipref>
              <mediatype>audio</mediatype>
              <trackindex>4</trackindex>
              <clipindex>1</clipindex>
              <groupindex>1</groupindex>
            </link>
            <link>
              <linkclipref>clipitem-244</linkclipref>
              <mediatype>audio</mediatype>
              <trackindex>5</trackindex>
              <clipindex>1</clipindex>
              <groupindex>1</groupindex>
            </link>
            <link>
              <linkclipref>clipitem-245</linkclipref>
              <mediatype>audio</mediatype>
              <trackindex>6</trackindex>
              <clipindex>1</clipindex>
              <groupindex>1</groupindex>
            </link>
          </clipitem>
          <clipitem id="clipitem-251" premiereChannelType="Stereo">
            <masterclipid>masterclip-2</masterclipid>
            <name>2023-04-01 13-58-58溪神带飞王源5KCC.mp4</name>
            <enabled>TRUE</enabled>
            <rate>
              <timebase>60</timebase>
              <ntsc>FALSE</ntsc>
            </rate>
            <start>4526</start>
            <end>4596</end>
            <in>22846</in>
            <out>22916</out>
            <file id="file-2"/>
            <sourcetrack>
              <mediatype>audio</mediatype>
              <trackindex>3</trackindex>
            </sourcetrack>
            <link>
              <linkclipref>clipitem-246</linkclipref>
              <mediatype>video</mediatype>
              <trackindex>1</trackindex>
              <clipindex>1</clipindex>
            </link>
            <link>
              <linkclipref>clipitem-247</linkclipref>
              <mediatype>audio</mediatype>
              <trackindex>1</trackindex>
              <clipindex>1</clipindex>
              <groupindex>1</groupindex>
            </link>
            <link>
              <linkclipref>clipitem-248</linkclipref>
              <mediatype>audio</mediatype>
              <trackindex>2</trackindex>
              <clipindex>1</clipindex>
              <groupindex>1</groupindex>
            </link>
            <link>
              <linkclipref>clipitem-249</linkclipref>
              <mediatype>audio</mediatype>
              <trackindex>3</trackindex>
              <clipindex>1</clipindex>
              <groupindex>1</groupindex>
            </link>
            <link>
              <linkclipref>clipitem-250</linkclipref>
              <mediatype>audio</mediatype>
              <trackindex>4</trackindex>
              <clipindex>1</clipindex>
              <groupindex>1</groupindex>
            </link>
            <link>
              <linkclipref>clipitem-251</linkclipref>
              <mediatype>audio</mediatype>
              <trackindex>5</trackindex>
              <clipindex>1</clipindex>
              <groupindex>1</groupindex>
            </link>
            <link>
              <linkclipref>clipitem-252</linkclipref>
              <mediatype>audio</mediatype>
              <trackindex>6</trackindex>
              <clipindex>1</clipindex>
              <groupindex>1</groupindex>
            </link>
          </clipitem>
          <clipitem id="clipitem-258" premiereChannelType="Stereo">
            <masterclipid>masterclip-2</masterclipid>
            <name>2023-04-01 13-58-58溪神带飞王源5KCC.mp4</name>
            <enabled>TRUE</enabled>
            <rate>
              <timebase>60</timebase>
              <ntsc>FALSE</ntsc>
            </rate>
            <start>4596</start>
            <end>4848</end>
            <in>22937</in>
            <out>23189</out>
            <file id="file-2"/>
            <sourcetrack>
              <mediatype>audio</mediatype>
              <trackindex>3</trackindex>
            </sourcetrack>
            <link>
              <linkclipref>clipitem-253</linkclipref>
              <mediatype>video</mediatype>
              <trackindex>1</trackindex>
              <clipindex>1</clipindex>
            </link>
            <link>
              <linkclipref>clipitem-254</linkclipref>
              <mediatype>audio</mediatype>
              <trackindex>1</trackindex>
              <clipindex>1</clipindex>
              <groupindex>1</groupindex>
            </link>
            <link>
              <linkclipref>clipitem-255</linkclipref>
              <mediatype>audio</mediatype>
              <trackindex>2</trackindex>
              <clipindex>1</clipindex>
              <groupindex>1</groupindex>
            </link>
            <link>
              <linkclipref>clipitem-256</linkclipref>
              <mediatype>audio</mediatype>
              <trackindex>3</trackindex>
              <clipindex>1</clipindex>
              <groupindex>1</groupindex>
            </link>
            <link>
              <linkclipref>clipitem-257</linkclipref>
              <mediatype>audio</mediatype>
              <trackindex>4</trackindex>
              <clipindex>1</clipindex>
              <groupindex>1</groupindex>
            </link>
            <link>
              <linkclipref>clipitem-258</linkclipref>
              <mediatype>audio</mediatype>
              <trackindex>5</trackindex>
              <clipindex>1</clipindex>
              <groupindex>1</groupindex>
            </link>
            <link>
              <linkclipref>clipitem-259</linkclipref>
              <mediatype>audio</mediatype>
              <trackindex>6</trackindex>
              <clipindex>1</clipindex>
              <groupindex>1</groupindex>
            </link>
          </clipitem>
          <clipitem id="clipitem-265" premiereChannelType="Stereo">
            <masterclipid>masterclip-2</masterclipid>
            <name>2023-04-01 13-58-58溪神带飞王源5KCC.mp4</name>
            <enabled>TRUE</enabled>
            <rate>
              <timebase>60</timebase>
              <ntsc>FALSE</ntsc>
            </rate>
            <start>4848</start>
            <end>5027</end>
            <in>24127</in>
            <out>24306</out>
            <file id="file-2"/>
            <sourcetrack>
              <mediatype>audio</mediatype>
              <trackindex>3</trackindex>
            </sourcetrack>
            <link>
              <linkclipref>clipitem-260</linkclipref>
              <mediatype>video</mediatype>
              <trackindex>1</trackindex>
              <clipindex>1</clipindex>
            </link>
            <link>
              <linkclipref>clipitem-261</linkclipref>
              <mediatype>audio</mediatype>
              <trackindex>1</trackindex>
              <clipindex>1</clipindex>
              <groupindex>1</groupindex>
            </link>
            <link>
              <linkclipref>clipitem-262</linkclipref>
              <mediatype>audio</mediatype>
              <trackindex>2</trackindex>
              <clipindex>1</clipindex>
              <groupindex>1</groupindex>
            </link>
            <link>
              <linkclipref>clipitem-263</linkclipref>
              <mediatype>audio</mediatype>
              <trackindex>3</trackindex>
              <clipindex>1</clipindex>
              <groupindex>1</groupindex>
            </link>
            <link>
              <linkclipref>clipitem-264</linkclipref>
              <mediatype>audio</mediatype>
              <trackindex>4</trackindex>
              <clipindex>1</clipindex>
              <groupindex>1</groupindex>
            </link>
            <link>
              <linkclipref>clipitem-265</linkclipref>
              <mediatype>audio</mediatype>
              <trackindex>5</trackindex>
              <clipindex>1</clipindex>
              <groupindex>1</groupindex>
            </link>
            <link>
              <linkclipref>clipitem-266</linkclipref>
              <mediatype>audio</mediatype>
              <trackindex>6</trackindex>
              <clipindex>1</clipindex>
              <groupindex>1</groupindex>
            </link>
          </clipitem>
          <clipitem id="clipitem-272" premiereChannelType="Stereo">
            <masterclipid>masterclip-2</masterclipid>
            <name>2023-04-01 13-58-58溪神带飞王源5KCC.mp4</name>
            <enabled>TRUE</enabled>
            <rate>
              <timebase>60</timebase>
              <ntsc>FALSE</ntsc>
            </rate>
            <start>5027</start>
            <end>5103</end>
            <in>24579</in>
            <out>24655</out>
            <file id="file-2"/>
            <sourcetrack>
              <mediatype>audio</mediatype>
              <trackindex>3</trackindex>
            </sourcetrack>
            <link>
              <linkclipref>clipitem-267</linkclipref>
              <mediatype>video</mediatype>
              <trackindex>1</trackindex>
              <clipindex>1</clipindex>
            </link>
            <link>
              <linkclipref>clipitem-268</linkclipref>
              <mediatype>audio</mediatype>
              <trackindex>1</trackindex>
              <clipindex>1</clipindex>
              <groupindex>1</groupindex>
            </link>
            <link>
              <linkclipref>clipitem-269</linkclipref>
              <mediatype>audio</mediatype>
              <trackindex>2</trackindex>
              <clipindex>1</clipindex>
              <groupindex>1</groupindex>
            </link>
            <link>
              <linkclipref>clipitem-270</linkclipref>
              <mediatype>audio</mediatype>
              <trackindex>3</trackindex>
              <clipindex>1</clipindex>
              <groupindex>1</groupindex>
            </link>
            <link>
              <linkclipref>clipitem-271</linkclipref>
              <mediatype>audio</mediatype>
              <trackindex>4</trackindex>
              <clipindex>1</clipindex>
              <groupindex>1</groupindex>
            </link>
            <link>
              <linkclipref>clipitem-272</linkclipref>
              <mediatype>audio</mediatype>
              <trackindex>5</trackindex>
              <clipindex>1</clipindex>
              <groupindex>1</groupindex>
            </link>
            <link>
              <linkclipref>clipitem-273</linkclipref>
              <mediatype>audio</mediatype>
              <trackindex>6</trackindex>
              <clipindex>1</clipindex>
              <groupindex>1</groupindex>
            </link>
          </clipitem>
          <clipitem id="clipitem-279" premiereChannelType="Stereo">
            <masterclipid>masterclip-2</masterclipid>
            <name>2023-04-01 13-58-58溪神带飞王源5KCC.mp4</name>
            <enabled>TRUE</enabled>
            <rate>
              <timebase>60</timebase>
              <ntsc>FALSE</ntsc>
            </rate>
            <start>5103</start>
            <end>5273</end>
            <in>24893</in>
            <out>25063</out>
            <file id="file-2"/>
            <sourcetrack>
              <mediatype>audio</mediatype>
              <trackindex>3</trackindex>
            </sourcetrack>
            <link>
              <linkclipref>clipitem-274</linkclipref>
              <mediatype>video</mediatype>
              <trackindex>1</trackindex>
              <clipindex>1</clipindex>
            </link>
            <link>
              <linkclipref>clipitem-275</linkclipref>
              <mediatype>audio</mediatype>
              <trackindex>1</trackindex>
              <clipindex>1</clipindex>
              <groupindex>1</groupindex>
            </link>
            <link>
              <linkclipref>clipitem-276</linkclipref>
              <mediatype>audio</mediatype>
              <trackindex>2</trackindex>
              <clipindex>1</clipindex>
              <groupindex>1</groupindex>
            </link>
            <link>
              <linkclipref>clipitem-277</linkclipref>
              <mediatype>audio</mediatype>
              <trackindex>3</trackindex>
              <clipindex>1</clipindex>
              <groupindex>1</groupindex>
            </link>
            <link>
              <linkclipref>clipitem-278</linkclipref>
              <mediatype>audio</mediatype>
              <trackindex>4</trackindex>
              <clipindex>1</clipindex>
              <groupindex>1</groupindex>
            </link>
            <link>
              <linkclipref>clipitem-279</linkclipref>
              <mediatype>audio</mediatype>
              <trackindex>5</trackindex>
              <clipindex>1</clipindex>
              <groupindex>1</groupindex>
            </link>
            <link>
              <linkclipref>clipitem-280</linkclipref>
              <mediatype>audio</mediatype>
              <trackindex>6</trackindex>
              <clipindex>1</clipindex>
              <groupindex>1</groupindex>
            </link>
          </clipitem>
          <clipitem id="clipitem-286" premiereChannelType="Stereo">
            <masterclipid>masterclip-2</masterclipid>
            <name>2023-04-01 13-58-58溪神带飞王源5KCC.mp4</name>
            <enabled>TRUE</enabled>
            <rate>
              <timebase>60</timebase>
              <ntsc>FALSE</ntsc>
            </rate>
            <start>5273</start>
            <end>5350</end>
            <in>31222</in>
            <out>31299</out>
            <file id="file-2"/>
            <sourcetrack>
              <mediatype>audio</mediatype>
              <trackindex>3</trackindex>
            </sourcetrack>
            <link>
              <linkclipref>clipitem-281</linkclipref>
              <mediatype>video</mediatype>
              <trackindex>1</trackindex>
              <clipindex>1</clipindex>
            </link>
            <link>
              <linkclipref>clipitem-282</linkclipref>
              <mediatype>audio</mediatype>
              <trackindex>1</trackindex>
              <clipindex>1</clipindex>
              <groupindex>1</groupindex>
            </link>
            <link>
              <linkclipref>clipitem-283</linkclipref>
              <mediatype>audio</mediatype>
              <trackindex>2</trackindex>
              <clipindex>1</clipindex>
              <groupindex>1</groupindex>
            </link>
            <link>
              <linkclipref>clipitem-284</linkclipref>
              <mediatype>audio</mediatype>
              <trackindex>3</trackindex>
              <clipindex>1</clipindex>
              <groupindex>1</groupindex>
            </link>
            <link>
              <linkclipref>clipitem-285</linkclipref>
              <mediatype>audio</mediatype>
              <trackindex>4</trackindex>
              <clipindex>1</clipindex>
              <groupindex>1</groupindex>
            </link>
            <link>
              <linkclipref>clipitem-286</linkclipref>
              <mediatype>audio</mediatype>
              <trackindex>5</trackindex>
              <clipindex>1</clipindex>
              <groupindex>1</groupindex>
            </link>
            <link>
              <linkclipref>clipitem-287</linkclipref>
              <mediatype>audio</mediatype>
              <trackindex>6</trackindex>
              <clipindex>1</clipindex>
              <groupindex>1</groupindex>
            </link>
          </clipitem>
          <clipitem id="clipitem-293" premiereChannelType="Stereo">
            <masterclipid>masterclip-2</masterclipid>
            <name>2023-04-01 13-58-58溪神带飞王源5KCC.mp4</name>
            <enabled>TRUE</enabled>
            <rate>
              <timebase>60</timebase>
              <ntsc>FALSE</ntsc>
            </rate>
            <start>5350</start>
            <end>5459</end>
            <in>31478</in>
            <out>31587</out>
            <file id="file-2"/>
            <sourcetrack>
              <mediatype>audio</mediatype>
              <trackindex>3</trackindex>
            </sourcetrack>
            <link>
              <linkclipref>clipitem-288</linkclipref>
              <mediatype>video</mediatype>
              <trackindex>1</trackindex>
              <clipindex>1</clipindex>
            </link>
            <link>
              <linkclipref>clipitem-289</linkclipref>
              <mediatype>audio</mediatype>
              <trackindex>1</trackindex>
              <clipindex>1</clipindex>
              <groupindex>1</groupindex>
            </link>
            <link>
              <linkclipref>clipitem-290</linkclipref>
              <mediatype>audio</mediatype>
              <trackindex>2</trackindex>
              <clipindex>1</clipindex>
              <groupindex>1</groupindex>
            </link>
            <link>
              <linkclipref>clipitem-291</linkclipref>
              <mediatype>audio</mediatype>
              <trackindex>3</trackindex>
              <clipindex>1</clipindex>
              <groupindex>1</groupindex>
            </link>
            <link>
              <linkclipref>clipitem-292</linkclipref>
              <mediatype>audio</mediatype>
              <trackindex>4</trackindex>
              <clipindex>1</clipindex>
              <groupindex>1</groupindex>
            </link>
            <link>
              <linkclipref>clipitem-293</linkclipref>
              <mediatype>audio</mediatype>
              <trackindex>5</trackindex>
              <clipindex>1</clipindex>
              <groupindex>1</groupindex>
            </link>
            <link>
              <linkclipref>clipitem-294</linkclipref>
              <mediatype>audio</mediatype>
              <trackindex>6</trackindex>
              <clipindex>1</clipindex>
              <groupindex>1</groupindex>
            </link>
          </clipitem>
          <clipitem id="clipitem-300" premiereChannelType="Stereo">
            <masterclipid>masterclip-2</masterclipid>
            <name>2023-04-01 13-58-58溪神带飞王源5KCC.mp4</name>
            <enabled>TRUE</enabled>
            <rate>
              <timebase>60</timebase>
              <ntsc>FALSE</ntsc>
            </rate>
            <start>5459</start>
            <end>5662</end>
            <in>33212</in>
            <out>33415</out>
            <file id="file-2"/>
            <sourcetrack>
              <mediatype>audio</mediatype>
              <trackindex>3</trackindex>
            </sourcetrack>
            <link>
              <linkclipref>clipitem-295</linkclipref>
              <mediatype>video</mediatype>
              <trackindex>1</trackindex>
              <clipindex>1</clipindex>
            </link>
            <link>
              <linkclipref>clipitem-296</linkclipref>
              <mediatype>audio</mediatype>
              <trackindex>1</trackindex>
              <clipindex>1</clipindex>
              <groupindex>1</groupindex>
            </link>
            <link>
              <linkclipref>clipitem-297</linkclipref>
              <mediatype>audio</mediatype>
              <trackindex>2</trackindex>
              <clipindex>1</clipindex>
              <groupindex>1</groupindex>
            </link>
            <link>
              <linkclipref>clipitem-298</linkclipref>
              <mediatype>audio</mediatype>
              <trackindex>3</trackindex>
              <clipindex>1</clipindex>
              <groupindex>1</groupindex>
            </link>
            <link>
              <linkclipref>clipitem-299</linkclipref>
              <mediatype>audio</mediatype>
              <trackindex>4</trackindex>
              <clipindex>1</clipindex>
              <groupindex>1</groupindex>
            </link>
            <link>
              <linkclipref>clipitem-300</linkclipref>
              <mediatype>audio</mediatype>
              <trackindex>5</trackindex>
              <clipindex>1</clipindex>
              <groupindex>1</groupindex>
            </link>
            <link>
              <linkclipref>clipitem-301</linkclipref>
              <mediatype>audio</mediatype>
              <trackindex>6</trackindex>
              <clipindex>1</clipindex>
              <groupindex>1</groupindex>
            </link>
          </clipitem>
          <clipitem id="clipitem-307" premiereChannelType="Stereo">
            <masterclipid>masterclip-2</masterclipid>
            <name>2023-04-01 13-58-58溪神带飞王源5KCC.mp4</name>
            <enabled>TRUE</enabled>
            <rate>
              <timebase>60</timebase>
              <ntsc>FALSE</ntsc>
            </rate>
            <start>5662</start>
            <end>5816</end>
            <in>33743</in>
            <out>33897</out>
            <file id="file-2"/>
            <sourcetrack>
              <mediatype>audio</mediatype>
              <trackindex>3</trackindex>
            </sourcetrack>
            <link>
              <linkclipref>clipitem-302</linkclipref>
              <mediatype>video</mediatype>
              <trackindex>1</trackindex>
              <clipindex>1</clipindex>
            </link>
            <link>
              <linkclipref>clipitem-303</linkclipref>
              <mediatype>audio</mediatype>
              <trackindex>1</trackindex>
              <clipindex>1</clipindex>
              <groupindex>1</groupindex>
            </link>
            <link>
              <linkclipref>clipitem-304</linkclipref>
              <mediatype>audio</mediatype>
              <trackindex>2</trackindex>
              <clipindex>1</clipindex>
              <groupindex>1</groupindex>
            </link>
            <link>
              <linkclipref>clipitem-305</linkclipref>
              <mediatype>audio</mediatype>
              <trackindex>3</trackindex>
              <clipindex>1</clipindex>
              <groupindex>1</groupindex>
            </link>
            <link>
              <linkclipref>clipitem-306</linkclipref>
              <mediatype>audio</mediatype>
              <trackindex>4</trackindex>
              <clipindex>1</clipindex>
              <groupindex>1</groupindex>
            </link>
            <link>
              <linkclipref>clipitem-307</linkclipref>
              <mediatype>audio</mediatype>
              <trackindex>5</trackindex>
              <clipindex>1</clipindex>
              <groupindex>1</groupindex>
            </link>
            <link>
              <linkclipref>clipitem-308</linkclipref>
              <mediatype>audio</mediatype>
              <trackindex>6</trackindex>
              <clipindex>1</clipindex>
              <groupindex>1</groupindex>
            </link>
          </clipitem>
          <clipitem id="clipitem-314" premiereChannelType="Stereo">
            <masterclipid>masterclip-2</masterclipid>
            <name>2023-04-01 13-58-58溪神带飞王源5KCC.mp4</name>
            <enabled>TRUE</enabled>
            <rate>
              <timebase>60</timebase>
              <ntsc>FALSE</ntsc>
            </rate>
            <start>5816</start>
            <end>6008</end>
            <in>34010</in>
            <out>34202</out>
            <file id="file-2"/>
            <sourcetrack>
              <mediatype>audio</mediatype>
              <trackindex>3</trackindex>
            </sourcetrack>
            <link>
              <linkclipref>clipitem-309</linkclipref>
              <mediatype>video</mediatype>
              <trackindex>1</trackindex>
              <clipindex>1</clipindex>
            </link>
            <link>
              <linkclipref>clipitem-310</linkclipref>
              <mediatype>audio</mediatype>
              <trackindex>1</trackindex>
              <clipindex>1</clipindex>
              <groupindex>1</groupindex>
            </link>
            <link>
              <linkclipref>clipitem-311</linkclipref>
              <mediatype>audio</mediatype>
              <trackindex>2</trackindex>
              <clipindex>1</clipindex>
              <groupindex>1</groupindex>
            </link>
            <link>
              <linkclipref>clipitem-312</linkclipref>
              <mediatype>audio</mediatype>
              <trackindex>3</trackindex>
              <clipindex>1</clipindex>
              <groupindex>1</groupindex>
            </link>
            <link>
              <linkclipref>clipitem-313</linkclipref>
              <mediatype>audio</mediatype>
              <trackindex>4</trackindex>
              <clipindex>1</clipindex>
              <groupindex>1</groupindex>
            </link>
            <link>
              <linkclipref>clipitem-314</linkclipref>
              <mediatype>audio</mediatype>
              <trackindex>5</trackindex>
              <clipindex>1</clipindex>
              <groupindex>1</groupindex>
            </link>
            <link>
              <linkclipref>clipitem-315</linkclipref>
              <mediatype>audio</mediatype>
              <trackindex>6</trackindex>
              <clipindex>1</clipindex>
              <groupindex>1</groupindex>
            </link>
          </clipitem>
          <clipitem id="clipitem-321" premiereChannelType="Stereo">
            <masterclipid>masterclip-2</masterclipid>
            <name>2023-04-01 13-58-58溪神带飞王源5KCC.mp4</name>
            <enabled>TRUE</enabled>
            <rate>
              <timebase>60</timebase>
              <ntsc>FALSE</ntsc>
            </rate>
            <start>6008</start>
            <end>6171</end>
            <in>39130</in>
            <out>39293</out>
            <file id="file-2"/>
            <sourcetrack>
              <mediatype>audio</mediatype>
              <trackindex>3</trackindex>
            </sourcetrack>
            <link>
              <linkclipref>clipitem-316</linkclipref>
              <mediatype>video</mediatype>
              <trackindex>1</trackindex>
              <clipindex>1</clipindex>
            </link>
            <link>
              <linkclipref>clipitem-317</linkclipref>
              <mediatype>audio</mediatype>
              <trackindex>1</trackindex>
              <clipindex>1</clipindex>
              <groupindex>1</groupindex>
            </link>
            <link>
              <linkclipref>clipitem-318</linkclipref>
              <mediatype>audio</mediatype>
              <trackindex>2</trackindex>
              <clipindex>1</clipindex>
              <groupindex>1</groupindex>
            </link>
            <link>
              <linkclipref>clipitem-319</linkclipref>
              <mediatype>audio</mediatype>
              <trackindex>3</trackindex>
              <clipindex>1</clipindex>
              <groupindex>1</groupindex>
            </link>
            <link>
              <linkclipref>clipitem-320</linkclipref>
              <mediatype>audio</mediatype>
              <trackindex>4</trackindex>
              <clipindex>1</clipindex>
              <groupindex>1</groupindex>
            </link>
            <link>
              <linkclipref>clipitem-321</linkclipref>
              <mediatype>audio</mediatype>
              <trackindex>5</trackindex>
              <clipindex>1</clipindex>
              <groupindex>1</groupindex>
            </link>
            <link>
              <linkclipref>clipitem-322</linkclipref>
              <mediatype>audio</mediatype>
              <trackindex>6</trackindex>
              <clipindex>1</clipindex>
              <groupindex>1</groupindex>
            </link>
          </clipitem>
          <clipitem id="clipitem-328" premiereChannelType="Stereo">
            <masterclipid>masterclip-2</masterclipid>
            <name>2023-04-01 13-58-58溪神带飞王源5KCC.mp4</name>
            <enabled>TRUE</enabled>
            <rate>
              <timebase>60</timebase>
              <ntsc>FALSE</ntsc>
            </rate>
            <start>6171</start>
            <end>6321</end>
            <in>39388</in>
            <out>39538</out>
            <file id="file-2"/>
            <sourcetrack>
              <mediatype>audio</mediatype>
              <trackindex>3</trackindex>
            </sourcetrack>
            <link>
              <linkclipref>clipitem-323</linkclipref>
              <mediatype>video</mediatype>
              <trackindex>1</trackindex>
              <clipindex>1</clipindex>
            </link>
            <link>
              <linkclipref>clipitem-324</linkclipref>
              <mediatype>audio</mediatype>
              <trackindex>1</trackindex>
              <clipindex>1</clipindex>
              <groupindex>1</groupindex>
            </link>
            <link>
              <linkclipref>clipitem-325</linkclipref>
              <mediatype>audio</mediatype>
              <trackindex>2</trackindex>
              <clipindex>1</clipindex>
              <groupindex>1</groupindex>
            </link>
            <link>
              <linkclipref>clipitem-326</linkclipref>
              <mediatype>audio</mediatype>
              <trackindex>3</trackindex>
              <clipindex>1</clipindex>
              <groupindex>1</groupindex>
            </link>
            <link>
              <linkclipref>clipitem-327</linkclipref>
              <mediatype>audio</mediatype>
              <trackindex>4</trackindex>
              <clipindex>1</clipindex>
              <groupindex>1</groupindex>
            </link>
            <link>
              <linkclipref>clipitem-328</linkclipref>
              <mediatype>audio</mediatype>
              <trackindex>5</trackindex>
              <clipindex>1</clipindex>
              <groupindex>1</groupindex>
            </link>
            <link>
              <linkclipref>clipitem-329</linkclipref>
              <mediatype>audio</mediatype>
              <trackindex>6</trackindex>
              <clipindex>1</clipindex>
              <groupindex>1</groupindex>
            </link>
          </clipitem>
          <clipitem id="clipitem-335" premiereChannelType="Stereo">
            <masterclipid>masterclip-2</masterclipid>
            <name>2023-04-01 13-58-58溪神带飞王源5KCC.mp4</name>
            <enabled>TRUE</enabled>
            <rate>
              <timebase>60</timebase>
              <ntsc>FALSE</ntsc>
            </rate>
            <start>6321</start>
            <end>6559</end>
            <in>39755</in>
            <out>39993</out>
            <file id="file-2"/>
            <sourcetrack>
              <mediatype>audio</mediatype>
              <trackindex>3</trackindex>
            </sourcetrack>
            <link>
              <linkclipref>clipitem-330</linkclipref>
              <mediatype>video</mediatype>
              <trackindex>1</trackindex>
              <clipindex>1</clipindex>
            </link>
            <link>
              <linkclipref>clipitem-331</linkclipref>
              <mediatype>audio</mediatype>
              <trackindex>1</trackindex>
              <clipindex>1</clipindex>
              <groupindex>1</groupindex>
            </link>
            <link>
              <linkclipref>clipitem-332</linkclipref>
              <mediatype>audio</mediatype>
              <trackindex>2</trackindex>
              <clipindex>1</clipindex>
              <groupindex>1</groupindex>
            </link>
            <link>
              <linkclipref>clipitem-333</linkclipref>
              <mediatype>audio</mediatype>
              <trackindex>3</trackindex>
              <clipindex>1</clipindex>
              <groupindex>1</groupindex>
            </link>
            <link>
              <linkclipref>clipitem-334</linkclipref>
              <mediatype>audio</mediatype>
              <trackindex>4</trackindex>
              <clipindex>1</clipindex>
              <groupindex>1</groupindex>
            </link>
            <link>
              <linkclipref>clipitem-335</linkclipref>
              <mediatype>audio</mediatype>
              <trackindex>5</trackindex>
              <clipindex>1</clipindex>
              <groupindex>1</groupindex>
            </link>
            <link>
              <linkclipref>clipitem-336</linkclipref>
              <mediatype>audio</mediatype>
              <trackindex>6</trackindex>
              <clipindex>1</clipindex>
              <groupindex>1</groupindex>
            </link>
          </clipitem>
          <clipitem id="clipitem-342" premiereChannelType="Stereo">
            <masterclipid>masterclip-2</masterclipid>
            <name>2023-04-01 13-58-58溪神带飞王源5KCC.mp4</name>
            <enabled>TRUE</enabled>
            <rate>
              <timebase>60</timebase>
              <ntsc>FALSE</ntsc>
            </rate>
            <start>6559</start>
            <end>6647</end>
            <in>40286</in>
            <out>40374</out>
            <file id="file-2"/>
            <sourcetrack>
              <mediatype>audio</mediatype>
              <trackindex>3</trackindex>
            </sourcetrack>
            <link>
              <linkclipref>clipitem-337</linkclipref>
              <mediatype>video</mediatype>
              <trackindex>1</trackindex>
              <clipindex>1</clipindex>
            </link>
            <link>
              <linkclipref>clipitem-338</linkclipref>
              <mediatype>audio</mediatype>
              <trackindex>1</trackindex>
              <clipindex>1</clipindex>
              <groupindex>1</groupindex>
            </link>
            <link>
              <linkclipref>clipitem-339</linkclipref>
              <mediatype>audio</mediatype>
              <trackindex>2</trackindex>
              <clipindex>1</clipindex>
              <groupindex>1</groupindex>
            </link>
            <link>
              <linkclipref>clipitem-340</linkclipref>
              <mediatype>audio</mediatype>
              <trackindex>3</trackindex>
              <clipindex>1</clipindex>
              <groupindex>1</groupindex>
            </link>
            <link>
              <linkclipref>clipitem-341</linkclipref>
              <mediatype>audio</mediatype>
              <trackindex>4</trackindex>
              <clipindex>1</clipindex>
              <groupindex>1</groupindex>
            </link>
            <link>
              <linkclipref>clipitem-342</linkclipref>
              <mediatype>audio</mediatype>
              <trackindex>5</trackindex>
              <clipindex>1</clipindex>
              <groupindex>1</groupindex>
            </link>
            <link>
              <linkclipref>clipitem-343</linkclipref>
              <mediatype>audio</mediatype>
              <trackindex>6</trackindex>
              <clipindex>1</clipindex>
              <groupindex>1</groupindex>
            </link>
          </clipitem>
          <clipitem id="clipitem-349" premiereChannelType="Stereo">
            <masterclipid>masterclip-2</masterclipid>
            <name>2023-04-01 13-58-58溪神带飞王源5KCC.mp4</name>
            <enabled>TRUE</enabled>
            <rate>
              <timebase>60</timebase>
              <ntsc>FALSE</ntsc>
            </rate>
            <start>6647</start>
            <end>6865</end>
            <in>43166</in>
            <out>43384</out>
            <file id="file-2"/>
            <sourcetrack>
              <mediatype>audio</mediatype>
              <trackindex>3</trackindex>
            </sourcetrack>
            <link>
              <linkclipref>clipitem-344</linkclipref>
              <mediatype>video</mediatype>
              <trackindex>1</trackindex>
              <clipindex>1</clipindex>
            </link>
            <link>
              <linkclipref>clipitem-345</linkclipref>
              <mediatype>audio</mediatype>
              <trackindex>1</trackindex>
              <clipindex>1</clipindex>
              <groupindex>1</groupindex>
            </link>
            <link>
              <linkclipref>clipitem-346</linkclipref>
              <mediatype>audio</mediatype>
              <trackindex>2</trackindex>
              <clipindex>1</clipindex>
              <groupindex>1</groupindex>
            </link>
            <link>
              <linkclipref>clipitem-347</linkclipref>
              <mediatype>audio</mediatype>
              <trackindex>3</trackindex>
              <clipindex>1</clipindex>
              <groupindex>1</groupindex>
            </link>
            <link>
              <linkclipref>clipitem-348</linkclipref>
              <mediatype>audio</mediatype>
              <trackindex>4</trackindex>
              <clipindex>1</clipindex>
              <groupindex>1</groupindex>
            </link>
            <link>
              <linkclipref>clipitem-349</linkclipref>
              <mediatype>audio</mediatype>
              <trackindex>5</trackindex>
              <clipindex>1</clipindex>
              <groupindex>1</groupindex>
            </link>
            <link>
              <linkclipref>clipitem-350</linkclipref>
              <mediatype>audio</mediatype>
              <trackindex>6</trackindex>
              <clipindex>1</clipindex>
              <groupindex>1</groupindex>
            </link>
          </clipitem>
          <clipitem id="clipitem-356" premiereChannelType="Stereo">
            <masterclipid>masterclip-2</masterclipid>
            <name>2023-04-01 13-58-58溪神带飞王源5KCC.mp4</name>
            <enabled>TRUE</enabled>
            <rate>
              <timebase>60</timebase>
              <ntsc>FALSE</ntsc>
            </rate>
            <start>6865</start>
            <end>6977</end>
            <in>43394</in>
            <out>43506</out>
            <file id="file-2"/>
            <sourcetrack>
              <mediatype>audio</mediatype>
              <trackindex>3</trackindex>
            </sourcetrack>
            <link>
              <linkclipref>clipitem-351</linkclipref>
              <mediatype>video</mediatype>
              <trackindex>1</trackindex>
              <clipindex>1</clipindex>
            </link>
            <link>
              <linkclipref>clipitem-352</linkclipref>
              <mediatype>audio</mediatype>
              <trackindex>1</trackindex>
              <clipindex>1</clipindex>
              <groupindex>1</groupindex>
            </link>
            <link>
              <linkclipref>clipitem-353</linkclipref>
              <mediatype>audio</mediatype>
              <trackindex>2</trackindex>
              <clipindex>1</clipindex>
              <groupindex>1</groupindex>
            </link>
            <link>
              <linkclipref>clipitem-354</linkclipref>
              <mediatype>audio</mediatype>
              <trackindex>3</trackindex>
              <clipindex>1</clipindex>
              <groupindex>1</groupindex>
            </link>
            <link>
              <linkclipref>clipitem-355</linkclipref>
              <mediatype>audio</mediatype>
              <trackindex>4</trackindex>
              <clipindex>1</clipindex>
              <groupindex>1</groupindex>
            </link>
            <link>
              <linkclipref>clipitem-356</linkclipref>
              <mediatype>audio</mediatype>
              <trackindex>5</trackindex>
              <clipindex>1</clipindex>
              <groupindex>1</groupindex>
            </link>
            <link>
              <linkclipref>clipitem-357</linkclipref>
              <mediatype>audio</mediatype>
              <trackindex>6</trackindex>
              <clipindex>1</clipindex>
              <groupindex>1</groupindex>
            </link>
          </clipitem>
          <clipitem id="clipitem-363" premiereChannelType="Stereo">
            <masterclipid>masterclip-2</masterclipid>
            <name>2023-04-01 13-58-58溪神带飞王源5KCC.mp4</name>
            <enabled>TRUE</enabled>
            <rate>
              <timebase>60</timebase>
              <ntsc>FALSE</ntsc>
            </rate>
            <start>6977</start>
            <end>7192</end>
            <in>48926</in>
            <out>49141</out>
            <file id="file-2"/>
            <sourcetrack>
              <mediatype>audio</mediatype>
              <trackindex>3</trackindex>
            </sourcetrack>
            <link>
              <linkclipref>clipitem-358</linkclipref>
              <mediatype>video</mediatype>
              <trackindex>1</trackindex>
              <clipindex>1</clipindex>
            </link>
            <link>
              <linkclipref>clipitem-359</linkclipref>
              <mediatype>audio</mediatype>
              <trackindex>1</trackindex>
              <clipindex>1</clipindex>
              <groupindex>1</groupindex>
            </link>
            <link>
              <linkclipref>clipitem-360</linkclipref>
              <mediatype>audio</mediatype>
              <trackindex>2</trackindex>
              <clipindex>1</clipindex>
              <groupindex>1</groupindex>
            </link>
            <link>
              <linkclipref>clipitem-361</linkclipref>
              <mediatype>audio</mediatype>
              <trackindex>3</trackindex>
              <clipindex>1</clipindex>
              <groupindex>1</groupindex>
            </link>
            <link>
              <linkclipref>clipitem-362</linkclipref>
              <mediatype>audio</mediatype>
              <trackindex>4</trackindex>
              <clipindex>1</clipindex>
              <groupindex>1</groupindex>
            </link>
            <link>
              <linkclipref>clipitem-363</linkclipref>
              <mediatype>audio</mediatype>
              <trackindex>5</trackindex>
              <clipindex>1</clipindex>
              <groupindex>1</groupindex>
            </link>
            <link>
              <linkclipref>clipitem-364</linkclipref>
              <mediatype>audio</mediatype>
              <trackindex>6</trackindex>
              <clipindex>1</clipindex>
              <groupindex>1</groupindex>
            </link>
          </clipitem>
          <clipitem id="clipitem-370" premiereChannelType="Stereo">
            <masterclipid>masterclip-2</masterclipid>
            <name>2023-04-01 13-58-58溪神带飞王源5KCC.mp4</name>
            <enabled>TRUE</enabled>
            <rate>
              <timebase>60</timebase>
              <ntsc>FALSE</ntsc>
            </rate>
            <start>7192</start>
            <end>7401</end>
            <in>49153</in>
            <out>49362</out>
            <file id="file-2"/>
            <sourcetrack>
              <mediatype>audio</mediatype>
              <trackindex>3</trackindex>
            </sourcetrack>
            <link>
              <linkclipref>clipitem-365</linkclipref>
              <mediatype>video</mediatype>
              <trackindex>1</trackindex>
              <clipindex>1</clipindex>
            </link>
            <link>
              <linkclipref>clipitem-366</linkclipref>
              <mediatype>audio</mediatype>
              <trackindex>1</trackindex>
              <clipindex>1</clipindex>
              <groupindex>1</groupindex>
            </link>
            <link>
              <linkclipref>clipitem-367</linkclipref>
              <mediatype>audio</mediatype>
              <trackindex>2</trackindex>
              <clipindex>1</clipindex>
              <groupindex>1</groupindex>
            </link>
            <link>
              <linkclipref>clipitem-368</linkclipref>
              <mediatype>audio</mediatype>
              <trackindex>3</trackindex>
              <clipindex>1</clipindex>
              <groupindex>1</groupindex>
            </link>
            <link>
              <linkclipref>clipitem-369</linkclipref>
              <mediatype>audio</mediatype>
              <trackindex>4</trackindex>
              <clipindex>1</clipindex>
              <groupindex>1</groupindex>
            </link>
            <link>
              <linkclipref>clipitem-370</linkclipref>
              <mediatype>audio</mediatype>
              <trackindex>5</trackindex>
              <clipindex>1</clipindex>
              <groupindex>1</groupindex>
            </link>
            <link>
              <linkclipref>clipitem-371</linkclipref>
              <mediatype>audio</mediatype>
              <trackindex>6</trackindex>
              <clipindex>1</clipindex>
              <groupindex>1</groupindex>
            </link>
          </clipitem>
          <clipitem id="clipitem-377" premiereChannelType="Stereo">
            <masterclipid>masterclip-2</masterclipid>
            <name>2023-04-01 13-58-58溪神带飞王源5KCC.mp4</name>
            <enabled>TRUE</enabled>
            <rate>
              <timebase>60</timebase>
              <ntsc>FALSE</ntsc>
            </rate>
            <start>7401</start>
            <end>7529</end>
            <in>49768</in>
            <out>49896</out>
            <file id="file-2"/>
            <sourcetrack>
              <mediatype>audio</mediatype>
              <trackindex>3</trackindex>
            </sourcetrack>
            <link>
              <linkclipref>clipitem-372</linkclipref>
              <mediatype>video</mediatype>
              <trackindex>1</trackindex>
              <clipindex>1</clipindex>
            </link>
            <link>
              <linkclipref>clipitem-373</linkclipref>
              <mediatype>audio</mediatype>
              <trackindex>1</trackindex>
              <clipindex>1</clipindex>
              <groupindex>1</groupindex>
            </link>
            <link>
              <linkclipref>clipitem-374</linkclipref>
              <mediatype>audio</mediatype>
              <trackindex>2</trackindex>
              <clipindex>1</clipindex>
              <groupindex>1</groupindex>
            </link>
            <link>
              <linkclipref>clipitem-375</linkclipref>
              <mediatype>audio</mediatype>
              <trackindex>3</trackindex>
              <clipindex>1</clipindex>
              <groupindex>1</groupindex>
            </link>
            <link>
              <linkclipref>clipitem-376</linkclipref>
              <mediatype>audio</mediatype>
              <trackindex>4</trackindex>
              <clipindex>1</clipindex>
              <groupindex>1</groupindex>
            </link>
            <link>
              <linkclipref>clipitem-377</linkclipref>
              <mediatype>audio</mediatype>
              <trackindex>5</trackindex>
              <clipindex>1</clipindex>
              <groupindex>1</groupindex>
            </link>
            <link>
              <linkclipref>clipitem-378</linkclipref>
              <mediatype>audio</mediatype>
              <trackindex>6</trackindex>
              <clipindex>1</clipindex>
              <groupindex>1</groupindex>
            </link>
          </clipitem>
          <clipitem id="clipitem-384" premiereChannelType="Stereo">
            <masterclipid>masterclip-2</masterclipid>
            <name>2023-04-01 13-58-58溪神带飞王源5KCC.mp4</name>
            <enabled>TRUE</enabled>
            <rate>
              <timebase>60</timebase>
              <ntsc>FALSE</ntsc>
            </rate>
            <start>7529</start>
            <end>7724</end>
            <in>52898</in>
            <out>53093</out>
            <file id="file-2"/>
            <sourcetrack>
              <mediatype>audio</mediatype>
              <trackindex>3</trackindex>
            </sourcetrack>
            <link>
              <linkclipref>clipitem-379</linkclipref>
              <mediatype>video</mediatype>
              <trackindex>1</trackindex>
              <clipindex>1</clipindex>
            </link>
            <link>
              <linkclipref>clipitem-380</linkclipref>
              <mediatype>audio</mediatype>
              <trackindex>1</trackindex>
              <clipindex>1</clipindex>
              <groupindex>1</groupindex>
            </link>
            <link>
              <linkclipref>clipitem-381</linkclipref>
              <mediatype>audio</mediatype>
              <trackindex>2</trackindex>
              <clipindex>1</clipindex>
              <groupindex>1</groupindex>
            </link>
            <link>
              <linkclipref>clipitem-382</linkclipref>
              <mediatype>audio</mediatype>
              <trackindex>3</trackindex>
              <clipindex>1</clipindex>
              <groupindex>1</groupindex>
            </link>
            <link>
              <linkclipref>clipitem-383</linkclipref>
              <mediatype>audio</mediatype>
              <trackindex>4</trackindex>
              <clipindex>1</clipindex>
              <groupindex>1</groupindex>
            </link>
            <link>
              <linkclipref>clipitem-384</linkclipref>
              <mediatype>audio</mediatype>
              <trackindex>5</trackindex>
              <clipindex>1</clipindex>
              <groupindex>1</groupindex>
            </link>
            <link>
              <linkclipref>clipitem-385</linkclipref>
              <mediatype>audio</mediatype>
              <trackindex>6</trackindex>
              <clipindex>1</clipindex>
              <groupindex>1</groupindex>
            </link>
          </clipitem>
          <clipitem id="clipitem-391" premiereChannelType="Stereo">
            <masterclipid>masterclip-2</masterclipid>
            <name>2023-04-01 13-58-58溪神带飞王源5KCC.mp4</name>
            <enabled>TRUE</enabled>
            <rate>
              <timebase>60</timebase>
              <ntsc>FALSE</ntsc>
            </rate>
            <start>7724</start>
            <end>7856</end>
            <in>53201</in>
            <out>53333</out>
            <file id="file-2"/>
            <sourcetrack>
              <mediatype>audio</mediatype>
              <trackindex>3</trackindex>
            </sourcetrack>
            <link>
              <linkclipref>clipitem-386</linkclipref>
              <mediatype>video</mediatype>
              <trackindex>1</trackindex>
              <clipindex>1</clipindex>
            </link>
            <link>
              <linkclipref>clipitem-387</linkclipref>
              <mediatype>audio</mediatype>
              <trackindex>1</trackindex>
              <clipindex>1</clipindex>
              <groupindex>1</groupindex>
            </link>
            <link>
              <linkclipref>clipitem-388</linkclipref>
              <mediatype>audio</mediatype>
              <trackindex>2</trackindex>
              <clipindex>1</clipindex>
              <groupindex>1</groupindex>
            </link>
            <link>
              <linkclipref>clipitem-389</linkclipref>
              <mediatype>audio</mediatype>
              <trackindex>3</trackindex>
              <clipindex>1</clipindex>
              <groupindex>1</groupindex>
            </link>
            <link>
              <linkclipref>clipitem-390</linkclipref>
              <mediatype>audio</mediatype>
              <trackindex>4</trackindex>
              <clipindex>1</clipindex>
              <groupindex>1</groupindex>
            </link>
            <link>
              <linkclipref>clipitem-391</linkclipref>
              <mediatype>audio</mediatype>
              <trackindex>5</trackindex>
              <clipindex>1</clipindex>
              <groupindex>1</groupindex>
            </link>
            <link>
              <linkclipref>clipitem-392</linkclipref>
              <mediatype>audio</mediatype>
              <trackindex>6</trackindex>
              <clipindex>1</clipindex>
              <groupindex>1</groupindex>
            </link>
          </clipitem>
          <clipitem id="clipitem-398" premiereChannelType="Stereo">
            <masterclipid>masterclip-2</masterclipid>
            <name>2023-04-01 13-58-58溪神带飞王源5KCC.mp4</name>
            <enabled>TRUE</enabled>
            <rate>
              <timebase>60</timebase>
              <ntsc>FALSE</ntsc>
            </rate>
            <start>7856</start>
            <end>8015</end>
            <in>53758</in>
            <out>53917</out>
            <file id="file-2"/>
            <sourcetrack>
              <mediatype>audio</mediatype>
              <trackindex>3</trackindex>
            </sourcetrack>
            <link>
              <linkclipref>clipitem-393</linkclipref>
              <mediatype>video</mediatype>
              <trackindex>1</trackindex>
              <clipindex>1</clipindex>
            </link>
            <link>
              <linkclipref>clipitem-394</linkclipref>
              <mediatype>audio</mediatype>
              <trackindex>1</trackindex>
              <clipindex>1</clipindex>
              <groupindex>1</groupindex>
            </link>
            <link>
              <linkclipref>clipitem-395</linkclipref>
              <mediatype>audio</mediatype>
              <trackindex>2</trackindex>
              <clipindex>1</clipindex>
              <groupindex>1</groupindex>
            </link>
            <link>
              <linkclipref>clipitem-396</linkclipref>
              <mediatype>audio</mediatype>
              <trackindex>3</trackindex>
              <clipindex>1</clipindex>
              <groupindex>1</groupindex>
            </link>
            <link>
              <linkclipref>clipitem-397</linkclipref>
              <mediatype>audio</mediatype>
              <trackindex>4</trackindex>
              <clipindex>1</clipindex>
              <groupindex>1</groupindex>
            </link>
            <link>
              <linkclipref>clipitem-398</linkclipref>
              <mediatype>audio</mediatype>
              <trackindex>5</trackindex>
              <clipindex>1</clipindex>
              <groupindex>1</groupindex>
            </link>
            <link>
              <linkclipref>clipitem-399</linkclipref>
              <mediatype>audio</mediatype>
              <trackindex>6</trackindex>
              <clipindex>1</clipindex>
              <groupindex>1</groupindex>
            </link>
          </clipitem>
          <clipitem id="clipitem-405" premiereChannelType="Stereo">
            <masterclipid>masterclip-2</masterclipid>
            <name>2023-04-01 13-58-58溪神带飞王源5KCC.mp4</name>
            <enabled>TRUE</enabled>
            <rate>
              <timebase>60</timebase>
              <ntsc>FALSE</ntsc>
            </rate>
            <start>8015</start>
            <end>8211</end>
            <in>53964</in>
            <out>54160</out>
            <file id="file-2"/>
            <sourcetrack>
              <mediatype>audio</mediatype>
              <trackindex>3</trackindex>
            </sourcetrack>
            <link>
              <linkclipref>clipitem-400</linkclipref>
              <mediatype>video</mediatype>
              <trackindex>1</trackindex>
              <clipindex>1</clipindex>
            </link>
            <link>
              <linkclipref>clipitem-401</linkclipref>
              <mediatype>audio</mediatype>
              <trackindex>1</trackindex>
              <clipindex>1</clipindex>
              <groupindex>1</groupindex>
            </link>
            <link>
              <linkclipref>clipitem-402</linkclipref>
              <mediatype>audio</mediatype>
              <trackindex>2</trackindex>
              <clipindex>1</clipindex>
              <groupindex>1</groupindex>
            </link>
            <link>
              <linkclipref>clipitem-403</linkclipref>
              <mediatype>audio</mediatype>
              <trackindex>3</trackindex>
              <clipindex>1</clipindex>
              <groupindex>1</groupindex>
            </link>
            <link>
              <linkclipref>clipitem-404</linkclipref>
              <mediatype>audio</mediatype>
              <trackindex>4</trackindex>
              <clipindex>1</clipindex>
              <groupindex>1</groupindex>
            </link>
            <link>
              <linkclipref>clipitem-405</linkclipref>
              <mediatype>audio</mediatype>
              <trackindex>5</trackindex>
              <clipindex>1</clipindex>
              <groupindex>1</groupindex>
            </link>
            <link>
              <linkclipref>clipitem-406</linkclipref>
              <mediatype>audio</mediatype>
              <trackindex>6</trackindex>
              <clipindex>1</clipindex>
              <groupindex>1</groupindex>
            </link>
          </clipitem>
          <clipitem id="clipitem-412" premiereChannelType="Stereo">
            <masterclipid>masterclip-2</masterclipid>
            <name>2023-04-01 13-58-58溪神带飞王源5KCC.mp4</name>
            <enabled>TRUE</enabled>
            <rate>
              <timebase>60</timebase>
              <ntsc>FALSE</ntsc>
            </rate>
            <start>8211</start>
            <end>8325</end>
            <in>54222</in>
            <out>54336</out>
            <file id="file-2"/>
            <sourcetrack>
              <mediatype>audio</mediatype>
              <trackindex>3</trackindex>
            </sourcetrack>
            <link>
              <linkclipref>clipitem-407</linkclipref>
              <mediatype>video</mediatype>
              <trackindex>1</trackindex>
              <clipindex>1</clipindex>
            </link>
            <link>
              <linkclipref>clipitem-408</linkclipref>
              <mediatype>audio</mediatype>
              <trackindex>1</trackindex>
              <clipindex>1</clipindex>
              <groupindex>1</groupindex>
            </link>
            <link>
              <linkclipref>clipitem-409</linkclipref>
              <mediatype>audio</mediatype>
              <trackindex>2</trackindex>
              <clipindex>1</clipindex>
              <groupindex>1</groupindex>
            </link>
            <link>
              <linkclipref>clipitem-410</linkclipref>
              <mediatype>audio</mediatype>
              <trackindex>3</trackindex>
              <clipindex>1</clipindex>
              <groupindex>1</groupindex>
            </link>
            <link>
              <linkclipref>clipitem-411</linkclipref>
              <mediatype>audio</mediatype>
              <trackindex>4</trackindex>
              <clipindex>1</clipindex>
              <groupindex>1</groupindex>
            </link>
            <link>
              <linkclipref>clipitem-412</linkclipref>
              <mediatype>audio</mediatype>
              <trackindex>5</trackindex>
              <clipindex>1</clipindex>
              <groupindex>1</groupindex>
            </link>
            <link>
              <linkclipref>clipitem-413</linkclipref>
              <mediatype>audio</mediatype>
              <trackindex>6</trackindex>
              <clipindex>1</clipindex>
              <groupindex>1</groupindex>
            </link>
          </clipitem>
          <clipitem id="clipitem-419" premiereChannelType="Stereo">
            <masterclipid>masterclip-2</masterclipid>
            <name>2023-04-01 13-58-58溪神带飞王源5KCC.mp4</name>
            <enabled>TRUE</enabled>
            <rate>
              <timebase>60</timebase>
              <ntsc>FALSE</ntsc>
            </rate>
            <start>8325</start>
            <end>8452</end>
            <in>58783</in>
            <out>58910</out>
            <file id="file-2"/>
            <sourcetrack>
              <mediatype>audio</mediatype>
              <trackindex>3</trackindex>
            </sourcetrack>
            <link>
              <linkclipref>clipitem-414</linkclipref>
              <mediatype>video</mediatype>
              <trackindex>1</trackindex>
              <clipindex>1</clipindex>
            </link>
            <link>
              <linkclipref>clipitem-415</linkclipref>
              <mediatype>audio</mediatype>
              <trackindex>1</trackindex>
              <clipindex>1</clipindex>
              <groupindex>1</groupindex>
            </link>
            <link>
              <linkclipref>clipitem-416</linkclipref>
              <mediatype>audio</mediatype>
              <trackindex>2</trackindex>
              <clipindex>1</clipindex>
              <groupindex>1</groupindex>
            </link>
            <link>
              <linkclipref>clipitem-417</linkclipref>
              <mediatype>audio</mediatype>
              <trackindex>3</trackindex>
              <clipindex>1</clipindex>
              <groupindex>1</groupindex>
            </link>
            <link>
              <linkclipref>clipitem-418</linkclipref>
              <mediatype>audio</mediatype>
              <trackindex>4</trackindex>
              <clipindex>1</clipindex>
              <groupindex>1</groupindex>
            </link>
            <link>
              <linkclipref>clipitem-419</linkclipref>
              <mediatype>audio</mediatype>
              <trackindex>5</trackindex>
              <clipindex>1</clipindex>
              <groupindex>1</groupindex>
            </link>
            <link>
              <linkclipref>clipitem-420</linkclipref>
              <mediatype>audio</mediatype>
              <trackindex>6</trackindex>
              <clipindex>1</clipindex>
              <groupindex>1</groupindex>
            </link>
          </clipitem>
          <clipitem id="clipitem-426" premiereChannelType="Stereo">
            <masterclipid>masterclip-2</masterclipid>
            <name>2023-04-01 13-58-58溪神带飞王源5KCC.mp4</name>
            <enabled>TRUE</enabled>
            <rate>
              <timebase>60</timebase>
              <ntsc>FALSE</ntsc>
            </rate>
            <start>8452</start>
            <end>8604</end>
            <in>61335</in>
            <out>61487</out>
            <file id="file-2"/>
            <sourcetrack>
              <mediatype>audio</mediatype>
              <trackindex>3</trackindex>
            </sourcetrack>
            <link>
              <linkclipref>clipitem-421</linkclipref>
              <mediatype>video</mediatype>
              <trackindex>1</trackindex>
              <clipindex>1</clipindex>
            </link>
            <link>
              <linkclipref>clipitem-422</linkclipref>
              <mediatype>audio</mediatype>
              <trackindex>1</trackindex>
              <clipindex>1</clipindex>
              <groupindex>1</groupindex>
            </link>
            <link>
              <linkclipref>clipitem-423</linkclipref>
              <mediatype>audio</mediatype>
              <trackindex>2</trackindex>
              <clipindex>1</clipindex>
              <groupindex>1</groupindex>
            </link>
            <link>
              <linkclipref>clipitem-424</linkclipref>
              <mediatype>audio</mediatype>
              <trackindex>3</trackindex>
              <clipindex>1</clipindex>
              <groupindex>1</groupindex>
            </link>
            <link>
              <linkclipref>clipitem-425</linkclipref>
              <mediatype>audio</mediatype>
              <trackindex>4</trackindex>
              <clipindex>1</clipindex>
              <groupindex>1</groupindex>
            </link>
            <link>
              <linkclipref>clipitem-426</linkclipref>
              <mediatype>audio</mediatype>
              <trackindex>5</trackindex>
              <clipindex>1</clipindex>
              <groupindex>1</groupindex>
            </link>
            <link>
              <linkclipref>clipitem-427</linkclipref>
              <mediatype>audio</mediatype>
              <trackindex>6</trackindex>
              <clipindex>1</clipindex>
              <groupindex>1</groupindex>
            </link>
          </clipitem>
          <clipitem id="clipitem-433" premiereChannelType="Stereo">
            <masterclipid>masterclip-2</masterclipid>
            <name>2023-04-01 13-58-58溪神带飞王源5KCC.mp4</name>
            <enabled>TRUE</enabled>
            <rate>
              <timebase>60</timebase>
              <ntsc>FALSE</ntsc>
            </rate>
            <start>8604</start>
            <end>8663</end>
            <in>61479</in>
            <out>61538</out>
            <file id="file-2"/>
            <sourcetrack>
              <mediatype>audio</mediatype>
              <trackindex>3</trackindex>
            </sourcetrack>
            <link>
              <linkclipref>clipitem-428</linkclipref>
              <mediatype>video</mediatype>
              <trackindex>1</trackindex>
              <clipindex>1</clipindex>
            </link>
            <link>
              <linkclipref>clipitem-429</linkclipref>
              <mediatype>audio</mediatype>
              <trackindex>1</trackindex>
              <clipindex>1</clipindex>
              <groupindex>1</groupindex>
            </link>
            <link>
              <linkclipref>clipitem-430</linkclipref>
              <mediatype>audio</mediatype>
              <trackindex>2</trackindex>
              <clipindex>1</clipindex>
              <groupindex>1</groupindex>
            </link>
            <link>
              <linkclipref>clipitem-431</linkclipref>
              <mediatype>audio</mediatype>
              <trackindex>3</trackindex>
              <clipindex>1</clipindex>
              <groupindex>1</groupindex>
            </link>
            <link>
              <linkclipref>clipitem-432</linkclipref>
              <mediatype>audio</mediatype>
              <trackindex>4</trackindex>
              <clipindex>1</clipindex>
              <groupindex>1</groupindex>
            </link>
            <link>
              <linkclipref>clipitem-433</linkclipref>
              <mediatype>audio</mediatype>
              <trackindex>5</trackindex>
              <clipindex>1</clipindex>
              <groupindex>1</groupindex>
            </link>
            <link>
              <linkclipref>clipitem-434</linkclipref>
              <mediatype>audio</mediatype>
              <trackindex>6</trackindex>
              <clipindex>1</clipindex>
              <groupindex>1</groupindex>
            </link>
          </clipitem>
          <clipitem id="clipitem-440" premiereChannelType="Stereo">
            <masterclipid>masterclip-2</masterclipid>
            <name>2023-04-01 13-58-58溪神带飞王源5KCC.mp4</name>
            <enabled>TRUE</enabled>
            <rate>
              <timebase>60</timebase>
              <ntsc>FALSE</ntsc>
            </rate>
            <start>8663</start>
            <end>8756</end>
            <in>61668</in>
            <out>61761</out>
            <file id="file-2"/>
            <sourcetrack>
              <mediatype>audio</mediatype>
              <trackindex>3</trackindex>
            </sourcetrack>
            <link>
              <linkclipref>clipitem-435</linkclipref>
              <mediatype>video</mediatype>
              <trackindex>1</trackindex>
              <clipindex>1</clipindex>
            </link>
            <link>
              <linkclipref>clipitem-436</linkclipref>
              <mediatype>audio</mediatype>
              <trackindex>1</trackindex>
              <clipindex>1</clipindex>
              <groupindex>1</groupindex>
            </link>
            <link>
              <linkclipref>clipitem-437</linkclipref>
              <mediatype>audio</mediatype>
              <trackindex>2</trackindex>
              <clipindex>1</clipindex>
              <groupindex>1</groupindex>
            </link>
            <link>
              <linkclipref>clipitem-438</linkclipref>
              <mediatype>audio</mediatype>
              <trackindex>3</trackindex>
              <clipindex>1</clipindex>
              <groupindex>1</groupindex>
            </link>
            <link>
              <linkclipref>clipitem-439</linkclipref>
              <mediatype>audio</mediatype>
              <trackindex>4</trackindex>
              <clipindex>1</clipindex>
              <groupindex>1</groupindex>
            </link>
            <link>
              <linkclipref>clipitem-440</linkclipref>
              <mediatype>audio</mediatype>
              <trackindex>5</trackindex>
              <clipindex>1</clipindex>
              <groupindex>1</groupindex>
            </link>
            <link>
              <linkclipref>clipitem-441</linkclipref>
              <mediatype>audio</mediatype>
              <trackindex>6</trackindex>
              <clipindex>1</clipindex>
              <groupindex>1</groupindex>
            </link>
          </clipitem>
          <clipitem id="clipitem-447" premiereChannelType="Stereo">
            <masterclipid>masterclip-2</masterclipid>
            <name>2023-04-01 13-58-58溪神带飞王源5KCC.mp4</name>
            <enabled>TRUE</enabled>
            <rate>
              <timebase>60</timebase>
              <ntsc>FALSE</ntsc>
            </rate>
            <start>8756</start>
            <end>8834</end>
            <in>63731</in>
            <out>63809</out>
            <file id="file-2"/>
            <sourcetrack>
              <mediatype>audio</mediatype>
              <trackindex>3</trackindex>
            </sourcetrack>
            <link>
              <linkclipref>clipitem-442</linkclipref>
              <mediatype>video</mediatype>
              <trackindex>1</trackindex>
              <clipindex>1</clipindex>
            </link>
            <link>
              <linkclipref>clipitem-443</linkclipref>
              <mediatype>audio</mediatype>
              <trackindex>1</trackindex>
              <clipindex>1</clipindex>
              <groupindex>1</groupindex>
            </link>
            <link>
              <linkclipref>clipitem-444</linkclipref>
              <mediatype>audio</mediatype>
              <trackindex>2</trackindex>
              <clipindex>1</clipindex>
              <groupindex>1</groupindex>
            </link>
            <link>
              <linkclipref>clipitem-445</linkclipref>
              <mediatype>audio</mediatype>
              <trackindex>3</trackindex>
              <clipindex>1</clipindex>
              <groupindex>1</groupindex>
            </link>
            <link>
              <linkclipref>clipitem-446</linkclipref>
              <mediatype>audio</mediatype>
              <trackindex>4</trackindex>
              <clipindex>1</clipindex>
              <groupindex>1</groupindex>
            </link>
            <link>
              <linkclipref>clipitem-447</linkclipref>
              <mediatype>audio</mediatype>
              <trackindex>5</trackindex>
              <clipindex>1</clipindex>
              <groupindex>1</groupindex>
            </link>
            <link>
              <linkclipref>clipitem-448</linkclipref>
              <mediatype>audio</mediatype>
              <trackindex>6</trackindex>
              <clipindex>1</clipindex>
              <groupindex>1</groupindex>
            </link>
          </clipitem>
          <clipitem id="clipitem-454" premiereChannelType="Stereo">
            <masterclipid>masterclip-2</masterclipid>
            <name>2023-04-01 13-58-58溪神带飞王源5KCC.mp4</name>
            <enabled>TRUE</enabled>
            <rate>
              <timebase>60</timebase>
              <ntsc>FALSE</ntsc>
            </rate>
            <start>8834</start>
            <end>8926</end>
            <in>65937</in>
            <out>66029</out>
            <file id="file-2"/>
            <sourcetrack>
              <mediatype>audio</mediatype>
              <trackindex>3</trackindex>
            </sourcetrack>
            <link>
              <linkclipref>clipitem-449</linkclipref>
              <mediatype>video</mediatype>
              <trackindex>1</trackindex>
              <clipindex>1</clipindex>
            </link>
            <link>
              <linkclipref>clipitem-450</linkclipref>
              <mediatype>audio</mediatype>
              <trackindex>1</trackindex>
              <clipindex>1</clipindex>
              <groupindex>1</groupindex>
            </link>
            <link>
              <linkclipref>clipitem-451</linkclipref>
              <mediatype>audio</mediatype>
              <trackindex>2</trackindex>
              <clipindex>1</clipindex>
              <groupindex>1</groupindex>
            </link>
            <link>
              <linkclipref>clipitem-452</linkclipref>
              <mediatype>audio</mediatype>
              <trackindex>3</trackindex>
              <clipindex>1</clipindex>
              <groupindex>1</groupindex>
            </link>
            <link>
              <linkclipref>clipitem-453</linkclipref>
              <mediatype>audio</mediatype>
              <trackindex>4</trackindex>
              <clipindex>1</clipindex>
              <groupindex>1</groupindex>
            </link>
            <link>
              <linkclipref>clipitem-454</linkclipref>
              <mediatype>audio</mediatype>
              <trackindex>5</trackindex>
              <clipindex>1</clipindex>
              <groupindex>1</groupindex>
            </link>
            <link>
              <linkclipref>clipitem-455</linkclipref>
              <mediatype>audio</mediatype>
              <trackindex>6</trackindex>
              <clipindex>1</clipindex>
              <groupindex>1</groupindex>
            </link>
          </clipitem>
          <clipitem id="clipitem-461" premiereChannelType="Stereo">
            <masterclipid>masterclip-2</masterclipid>
            <name>2023-04-01 13-58-58溪神带飞王源5KCC.mp4</name>
            <enabled>TRUE</enabled>
            <rate>
              <timebase>60</timebase>
              <ntsc>FALSE</ntsc>
            </rate>
            <start>8926</start>
            <end>9026</end>
            <in>67489</in>
            <out>67589</out>
            <file id="file-2"/>
            <sourcetrack>
              <mediatype>audio</mediatype>
              <trackindex>3</trackindex>
            </sourcetrack>
            <link>
              <linkclipref>clipitem-456</linkclipref>
              <mediatype>video</mediatype>
              <trackindex>1</trackindex>
              <clipindex>1</clipindex>
            </link>
            <link>
              <linkclipref>clipitem-457</linkclipref>
              <mediatype>audio</mediatype>
              <trackindex>1</trackindex>
              <clipindex>1</clipindex>
              <groupindex>1</groupindex>
            </link>
            <link>
              <linkclipref>clipitem-458</linkclipref>
              <mediatype>audio</mediatype>
              <trackindex>2</trackindex>
              <clipindex>1</clipindex>
              <groupindex>1</groupindex>
            </link>
            <link>
              <linkclipref>clipitem-459</linkclipref>
              <mediatype>audio</mediatype>
              <trackindex>3</trackindex>
              <clipindex>1</clipindex>
              <groupindex>1</groupindex>
            </link>
            <link>
              <linkclipref>clipitem-460</linkclipref>
              <mediatype>audio</mediatype>
              <trackindex>4</trackindex>
              <clipindex>1</clipindex>
              <groupindex>1</groupindex>
            </link>
            <link>
              <linkclipref>clipitem-461</linkclipref>
              <mediatype>audio</mediatype>
              <trackindex>5</trackindex>
              <clipindex>1</clipindex>
              <groupindex>1</groupindex>
            </link>
            <link>
              <linkclipref>clipitem-462</linkclipref>
              <mediatype>audio</mediatype>
              <trackindex>6</trackindex>
              <clipindex>1</clipindex>
              <groupindex>1</groupindex>
            </link>
          </clipitem>
          <clipitem id="clipitem-468" premiereChannelType="Stereo">
            <masterclipid>masterclip-2</masterclipid>
            <name>2023-04-01 13-58-58溪神带飞王源5KCC.mp4</name>
            <enabled>TRUE</enabled>
            <rate>
              <timebase>60</timebase>
              <ntsc>FALSE</ntsc>
            </rate>
            <start>9026</start>
            <end>9186</end>
            <in>69990</in>
            <out>70150</out>
            <file id="file-2"/>
            <sourcetrack>
              <mediatype>audio</mediatype>
              <trackindex>3</trackindex>
            </sourcetrack>
            <link>
              <linkclipref>clipitem-463</linkclipref>
              <mediatype>video</mediatype>
              <trackindex>1</trackindex>
              <clipindex>1</clipindex>
            </link>
            <link>
              <linkclipref>clipitem-464</linkclipref>
              <mediatype>audio</mediatype>
              <trackindex>1</trackindex>
              <clipindex>1</clipindex>
              <groupindex>1</groupindex>
            </link>
            <link>
              <linkclipref>clipitem-465</linkclipref>
              <mediatype>audio</mediatype>
              <trackindex>2</trackindex>
              <clipindex>1</clipindex>
              <groupindex>1</groupindex>
            </link>
            <link>
              <linkclipref>clipitem-466</linkclipref>
              <mediatype>audio</mediatype>
              <trackindex>3</trackindex>
              <clipindex>1</clipindex>
              <groupindex>1</groupindex>
            </link>
            <link>
              <linkclipref>clipitem-467</linkclipref>
              <mediatype>audio</mediatype>
              <trackindex>4</trackindex>
              <clipindex>1</clipindex>
              <groupindex>1</groupindex>
            </link>
            <link>
              <linkclipref>clipitem-468</linkclipref>
              <mediatype>audio</mediatype>
              <trackindex>5</trackindex>
              <clipindex>1</clipindex>
              <groupindex>1</groupindex>
            </link>
            <link>
              <linkclipref>clipitem-469</linkclipref>
              <mediatype>audio</mediatype>
              <trackindex>6</trackindex>
              <clipindex>1</clipindex>
              <groupindex>1</groupindex>
            </link>
          </clipitem>
          <clipitem id="clipitem-475" premiereChannelType="Stereo">
            <masterclipid>masterclip-2</masterclipid>
            <name>2023-04-01 13-58-58溪神带飞王源5KCC.mp4</name>
            <enabled>TRUE</enabled>
            <rate>
              <timebase>60</timebase>
              <ntsc>FALSE</ntsc>
            </rate>
            <start>9186</start>
            <end>9346</end>
            <in>70337</in>
            <out>70497</out>
            <file id="file-2"/>
            <sourcetrack>
              <mediatype>audio</mediatype>
              <trackindex>3</trackindex>
            </sourcetrack>
            <link>
              <linkclipref>clipitem-470</linkclipref>
              <mediatype>video</mediatype>
              <trackindex>1</trackindex>
              <clipindex>1</clipindex>
            </link>
            <link>
              <linkclipref>clipitem-471</linkclipref>
              <mediatype>audio</mediatype>
              <trackindex>1</trackindex>
              <clipindex>1</clipindex>
              <groupindex>1</groupindex>
            </link>
            <link>
              <linkclipref>clipitem-472</linkclipref>
              <mediatype>audio</mediatype>
              <trackindex>2</trackindex>
              <clipindex>1</clipindex>
              <groupindex>1</groupindex>
            </link>
            <link>
              <linkclipref>clipitem-473</linkclipref>
              <mediatype>audio</mediatype>
              <trackindex>3</trackindex>
              <clipindex>1</clipindex>
              <groupindex>1</groupindex>
            </link>
            <link>
              <linkclipref>clipitem-474</linkclipref>
              <mediatype>audio</mediatype>
              <trackindex>4</trackindex>
              <clipindex>1</clipindex>
              <groupindex>1</groupindex>
            </link>
            <link>
              <linkclipref>clipitem-475</linkclipref>
              <mediatype>audio</mediatype>
              <trackindex>5</trackindex>
              <clipindex>1</clipindex>
              <groupindex>1</groupindex>
            </link>
            <link>
              <linkclipref>clipitem-476</linkclipref>
              <mediatype>audio</mediatype>
              <trackindex>6</trackindex>
              <clipindex>1</clipindex>
              <groupindex>1</groupindex>
            </link>
          </clipitem>
          <clipitem id="clipitem-482" premiereChannelType="Stereo">
            <masterclipid>masterclip-2</masterclipid>
            <name>2023-04-01 13-58-58溪神带飞王源5KCC.mp4</name>
            <enabled>TRUE</enabled>
            <rate>
              <timebase>60</timebase>
              <ntsc>FALSE</ntsc>
            </rate>
            <start>9346</start>
            <end>9428</end>
            <in>72878</in>
            <out>72960</out>
            <file id="file-2"/>
            <sourcetrack>
              <mediatype>audio</mediatype>
              <trackindex>3</trackindex>
            </sourcetrack>
            <link>
              <linkclipref>clipitem-477</linkclipref>
              <mediatype>video</mediatype>
              <trackindex>1</trackindex>
              <clipindex>1</clipindex>
            </link>
            <link>
              <linkclipref>clipitem-478</linkclipref>
              <mediatype>audio</mediatype>
              <trackindex>1</trackindex>
              <clipindex>1</clipindex>
              <groupindex>1</groupindex>
            </link>
            <link>
              <linkclipref>clipitem-479</linkclipref>
              <mediatype>audio</mediatype>
              <trackindex>2</trackindex>
              <clipindex>1</clipindex>
              <groupindex>1</groupindex>
            </link>
            <link>
              <linkclipref>clipitem-480</linkclipref>
              <mediatype>audio</mediatype>
              <trackindex>3</trackindex>
              <clipindex>1</clipindex>
              <groupindex>1</groupindex>
            </link>
            <link>
              <linkclipref>clipitem-481</linkclipref>
              <mediatype>audio</mediatype>
              <trackindex>4</trackindex>
              <clipindex>1</clipindex>
              <groupindex>1</groupindex>
            </link>
            <link>
              <linkclipref>clipitem-482</linkclipref>
              <mediatype>audio</mediatype>
              <trackindex>5</trackindex>
              <clipindex>1</clipindex>
              <groupindex>1</groupindex>
            </link>
            <link>
              <linkclipref>clipitem-483</linkclipref>
              <mediatype>audio</mediatype>
              <trackindex>6</trackindex>
              <clipindex>1</clipindex>
              <groupindex>1</groupindex>
            </link>
          </clipitem>
          <clipitem id="clipitem-489" premiereChannelType="Stereo">
            <masterclipid>masterclip-3</masterclipid>
            <name>2023-03-30 21-15-31艾许决赛圈2V6 8KCC.mp4</name>
            <enabled>TRUE</enabled>
            <rate>
              <timebase>60</timebase>
              <ntsc>FALSE</ntsc>
            </rate>
            <start>9428</start>
            <end>9920</end>
            <in>3281</in>
            <out>3773</out>
            <file id="file-3"/>
            <sourcetrack>
              <mediatype>audio</mediatype>
              <trackindex>3</trackindex>
            </sourcetrack>
            <link>
              <linkclipref>clipitem-484</linkclipref>
              <mediatype>video</mediatype>
              <trackindex>1</trackindex>
              <clipindex>1</clipindex>
            </link>
            <link>
              <linkclipref>clipitem-485</linkclipref>
              <mediatype>audio</mediatype>
              <trackindex>1</trackindex>
              <clipindex>1</clipindex>
              <groupindex>1</groupindex>
            </link>
            <link>
              <linkclipref>clipitem-486</linkclipref>
              <mediatype>audio</mediatype>
              <trackindex>2</trackindex>
              <clipindex>1</clipindex>
              <groupindex>1</groupindex>
            </link>
            <link>
              <linkclipref>clipitem-487</linkclipref>
              <mediatype>audio</mediatype>
              <trackindex>3</trackindex>
              <clipindex>1</clipindex>
              <groupindex>1</groupindex>
            </link>
            <link>
              <linkclipref>clipitem-488</linkclipref>
              <mediatype>audio</mediatype>
              <trackindex>4</trackindex>
              <clipindex>1</clipindex>
              <groupindex>1</groupindex>
            </link>
            <link>
              <linkclipref>clipitem-489</linkclipref>
              <mediatype>audio</mediatype>
              <trackindex>5</trackindex>
              <clipindex>1</clipindex>
              <groupindex>1</groupindex>
            </link>
            <link>
              <linkclipref>clipitem-490</linkclipref>
              <mediatype>audio</mediatype>
              <trackindex>6</trackindex>
              <clipindex>1</clipindex>
              <groupindex>1</groupindex>
            </link>
          </clipitem>
          <clipitem id="clipitem-496" premiereChannelType="Stereo">
            <masterclipid>masterclip-3</masterclipid>
            <name>2023-03-30 21-15-31艾许决赛圈2V6 8KCC.mp4</name>
            <enabled>TRUE</enabled>
            <rate>
              <timebase>60</timebase>
              <ntsc>FALSE</ntsc>
            </rate>
            <start>9920</start>
            <end>10196</end>
            <in>7193</in>
            <out>7469</out>
            <file id="file-3"/>
            <sourcetrack>
              <mediatype>audio</mediatype>
              <trackindex>3</trackindex>
            </sourcetrack>
            <link>
              <linkclipref>clipitem-491</linkclipref>
              <mediatype>video</mediatype>
              <trackindex>1</trackindex>
              <clipindex>1</clipindex>
            </link>
            <link>
              <linkclipref>clipitem-492</linkclipref>
              <mediatype>audio</mediatype>
              <trackindex>1</trackindex>
              <clipindex>1</clipindex>
              <groupindex>1</groupindex>
            </link>
            <link>
              <linkclipref>clipitem-493</linkclipref>
              <mediatype>audio</mediatype>
              <trackindex>2</trackindex>
              <clipindex>1</clipindex>
              <groupindex>1</groupindex>
            </link>
            <link>
              <linkclipref>clipitem-494</linkclipref>
              <mediatype>audio</mediatype>
              <trackindex>3</trackindex>
              <clipindex>1</clipindex>
              <groupindex>1</groupindex>
            </link>
            <link>
              <linkclipref>clipitem-495</linkclipref>
              <mediatype>audio</mediatype>
              <trackindex>4</trackindex>
              <clipindex>1</clipindex>
              <groupindex>1</groupindex>
            </link>
            <link>
              <linkclipref>clipitem-496</linkclipref>
              <mediatype>audio</mediatype>
              <trackindex>5</trackindex>
              <clipindex>1</clipindex>
              <groupindex>1</groupindex>
            </link>
            <link>
              <linkclipref>clipitem-497</linkclipref>
              <mediatype>audio</mediatype>
              <trackindex>6</trackindex>
              <clipindex>1</clipindex>
              <groupindex>1</groupindex>
            </link>
          </clipitem>
          <clipitem id="clipitem-503" premiereChannelType="Stereo">
            <masterclipid>masterclip-3</masterclipid>
            <name>2023-03-30 21-15-31艾许决赛圈2V6 8KCC.mp4</name>
            <enabled>TRUE</enabled>
            <rate>
              <timebase>60</timebase>
              <ntsc>FALSE</ntsc>
            </rate>
            <start>10196</start>
            <end>10286</end>
            <in>7646</in>
            <out>7736</out>
            <file id="file-3"/>
            <sourcetrack>
              <mediatype>audio</mediatype>
              <trackindex>3</trackindex>
            </sourcetrack>
            <link>
              <linkclipref>clipitem-498</linkclipref>
              <mediatype>video</mediatype>
              <trackindex>1</trackindex>
              <clipindex>1</clipindex>
            </link>
            <link>
              <linkclipref>clipitem-499</linkclipref>
              <mediatype>audio</mediatype>
              <trackindex>1</trackindex>
              <clipindex>1</clipindex>
              <groupindex>1</groupindex>
            </link>
            <link>
              <linkclipref>clipitem-500</linkclipref>
              <mediatype>audio</mediatype>
              <trackindex>2</trackindex>
              <clipindex>1</clipindex>
              <groupindex>1</groupindex>
            </link>
            <link>
              <linkclipref>clipitem-501</linkclipref>
              <mediatype>audio</mediatype>
              <trackindex>3</trackindex>
              <clipindex>1</clipindex>
              <groupindex>1</groupindex>
            </link>
            <link>
              <linkclipref>clipitem-502</linkclipref>
              <mediatype>audio</mediatype>
              <trackindex>4</trackindex>
              <clipindex>1</clipindex>
              <groupindex>1</groupindex>
            </link>
            <link>
              <linkclipref>clipitem-503</linkclipref>
              <mediatype>audio</mediatype>
              <trackindex>5</trackindex>
              <clipindex>1</clipindex>
              <groupindex>1</groupindex>
            </link>
            <link>
              <linkclipref>clipitem-504</linkclipref>
              <mediatype>audio</mediatype>
              <trackindex>6</trackindex>
              <clipindex>1</clipindex>
              <groupindex>1</groupindex>
            </link>
          </clipitem>
          <clipitem id="clipitem-510" premiereChannelType="Stereo">
            <masterclipid>masterclip-3</masterclipid>
            <name>2023-03-30 21-15-31艾许决赛圈2V6 8KCC.mp4</name>
            <enabled>TRUE</enabled>
            <rate>
              <timebase>60</timebase>
              <ntsc>FALSE</ntsc>
            </rate>
            <start>10286</start>
            <end>10401</end>
            <in>7813</in>
            <out>7928</out>
            <file id="file-3"/>
            <sourcetrack>
              <mediatype>audio</mediatype>
              <trackindex>3</trackindex>
            </sourcetrack>
            <link>
              <linkclipref>clipitem-505</linkclipref>
              <mediatype>video</mediatype>
              <trackindex>1</trackindex>
              <clipindex>1</clipindex>
            </link>
            <link>
              <linkclipref>clipitem-506</linkclipref>
              <mediatype>audio</mediatype>
              <trackindex>1</trackindex>
              <clipindex>1</clipindex>
              <groupindex>1</groupindex>
            </link>
            <link>
              <linkclipref>clipitem-507</linkclipref>
              <mediatype>audio</mediatype>
              <trackindex>2</trackindex>
              <clipindex>1</clipindex>
              <groupindex>1</groupindex>
            </link>
            <link>
              <linkclipref>clipitem-508</linkclipref>
              <mediatype>audio</mediatype>
              <trackindex>3</trackindex>
              <clipindex>1</clipindex>
              <groupindex>1</groupindex>
            </link>
            <link>
              <linkclipref>clipitem-509</linkclipref>
              <mediatype>audio</mediatype>
              <trackindex>4</trackindex>
              <clipindex>1</clipindex>
              <groupindex>1</groupindex>
            </link>
            <link>
              <linkclipref>clipitem-510</linkclipref>
              <mediatype>audio</mediatype>
              <trackindex>5</trackindex>
              <clipindex>1</clipindex>
              <groupindex>1</groupindex>
            </link>
            <link>
              <linkclipref>clipitem-511</linkclipref>
              <mediatype>audio</mediatype>
              <trackindex>6</trackindex>
              <clipindex>1</clipindex>
              <groupindex>1</groupindex>
            </link>
          </clipitem>
          <clipitem id="clipitem-517" premiereChannelType="Stereo">
            <masterclipid>masterclip-3</masterclipid>
            <name>2023-03-30 21-15-31艾许决赛圈2V6 8KCC.mp4</name>
            <enabled>TRUE</enabled>
            <rate>
              <timebase>60</timebase>
              <ntsc>FALSE</ntsc>
            </rate>
            <start>10401</start>
            <end>10519</end>
            <in>9404</in>
            <out>9522</out>
            <file id="file-3"/>
            <sourcetrack>
              <mediatype>audio</mediatype>
              <trackindex>3</trackindex>
            </sourcetrack>
            <link>
              <linkclipref>clipitem-512</linkclipref>
              <mediatype>video</mediatype>
              <trackindex>1</trackindex>
              <clipindex>1</clipindex>
            </link>
            <link>
              <linkclipref>clipitem-513</linkclipref>
              <mediatype>audio</mediatype>
              <trackindex>1</trackindex>
              <clipindex>1</clipindex>
              <groupindex>1</groupindex>
            </link>
            <link>
              <linkclipref>clipitem-514</linkclipref>
              <mediatype>audio</mediatype>
              <trackindex>2</trackindex>
              <clipindex>1</clipindex>
              <groupindex>1</groupindex>
            </link>
            <link>
              <linkclipref>clipitem-515</linkclipref>
              <mediatype>audio</mediatype>
              <trackindex>3</trackindex>
              <clipindex>1</clipindex>
              <groupindex>1</groupindex>
            </link>
            <link>
              <linkclipref>clipitem-516</linkclipref>
              <mediatype>audio</mediatype>
              <trackindex>4</trackindex>
              <clipindex>1</clipindex>
              <groupindex>1</groupindex>
            </link>
            <link>
              <linkclipref>clipitem-517</linkclipref>
              <mediatype>audio</mediatype>
              <trackindex>5</trackindex>
              <clipindex>1</clipindex>
              <groupindex>1</groupindex>
            </link>
            <link>
              <linkclipref>clipitem-518</linkclipref>
              <mediatype>audio</mediatype>
              <trackindex>6</trackindex>
              <clipindex>1</clipindex>
              <groupindex>1</groupindex>
            </link>
          </clipitem>
          <clipitem id="clipitem-524" premiereChannelType="Stereo">
            <masterclipid>masterclip-3</masterclipid>
            <name>2023-03-30 21-15-31艾许决赛圈2V6 8KCC.mp4</name>
            <enabled>TRUE</enabled>
            <rate>
              <timebase>60</timebase>
              <ntsc>FALSE</ntsc>
            </rate>
            <start>10519</start>
            <end>10600</end>
            <in>9637</in>
            <out>9718</out>
            <file id="file-3"/>
            <sourcetrack>
              <mediatype>audio</mediatype>
              <trackindex>3</trackindex>
            </sourcetrack>
            <link>
              <linkclipref>clipitem-519</linkclipref>
              <mediatype>video</mediatype>
              <trackindex>1</trackindex>
              <clipindex>1</clipindex>
            </link>
            <link>
              <linkclipref>clipitem-520</linkclipref>
              <mediatype>audio</mediatype>
              <trackindex>1</trackindex>
              <clipindex>1</clipindex>
              <groupindex>1</groupindex>
            </link>
            <link>
              <linkclipref>clipitem-521</linkclipref>
              <mediatype>audio</mediatype>
              <trackindex>2</trackindex>
              <clipindex>1</clipindex>
              <groupindex>1</groupindex>
            </link>
            <link>
              <linkclipref>clipitem-522</linkclipref>
              <mediatype>audio</mediatype>
              <trackindex>3</trackindex>
              <clipindex>1</clipindex>
              <groupindex>1</groupindex>
            </link>
            <link>
              <linkclipref>clipitem-523</linkclipref>
              <mediatype>audio</mediatype>
              <trackindex>4</trackindex>
              <clipindex>1</clipindex>
              <groupindex>1</groupindex>
            </link>
            <link>
              <linkclipref>clipitem-524</linkclipref>
              <mediatype>audio</mediatype>
              <trackindex>5</trackindex>
              <clipindex>1</clipindex>
              <groupindex>1</groupindex>
            </link>
            <link>
              <linkclipref>clipitem-525</linkclipref>
              <mediatype>audio</mediatype>
              <trackindex>6</trackindex>
              <clipindex>1</clipindex>
              <groupindex>1</groupindex>
            </link>
          </clipitem>
          <clipitem id="clipitem-531" premiereChannelType="Stereo">
            <masterclipid>masterclip-3</masterclipid>
            <name>2023-03-30 21-15-31艾许决赛圈2V6 8KCC.mp4</name>
            <enabled>TRUE</enabled>
            <rate>
              <timebase>60</timebase>
              <ntsc>FALSE</ntsc>
            </rate>
            <start>10600</start>
            <end>10751</end>
            <in>10314</in>
            <out>10465</out>
            <file id="file-3"/>
            <sourcetrack>
              <mediatype>audio</mediatype>
              <trackindex>3</trackindex>
            </sourcetrack>
            <link>
              <linkclipref>clipitem-526</linkclipref>
              <mediatype>video</mediatype>
              <trackindex>1</trackindex>
              <clipindex>1</clipindex>
            </link>
            <link>
              <linkclipref>clipitem-527</linkclipref>
              <mediatype>audio</mediatype>
              <trackindex>1</trackindex>
              <clipindex>1</clipindex>
              <groupindex>1</groupindex>
            </link>
            <link>
              <linkclipref>clipitem-528</linkclipref>
              <mediatype>audio</mediatype>
              <trackindex>2</trackindex>
              <clipindex>1</clipindex>
              <groupindex>1</groupindex>
            </link>
            <link>
              <linkclipref>clipitem-529</linkclipref>
              <mediatype>audio</mediatype>
              <trackindex>3</trackindex>
              <clipindex>1</clipindex>
              <groupindex>1</groupindex>
            </link>
            <link>
              <linkclipref>clipitem-530</linkclipref>
              <mediatype>audio</mediatype>
              <trackindex>4</trackindex>
              <clipindex>1</clipindex>
              <groupindex>1</groupindex>
            </link>
            <link>
              <linkclipref>clipitem-531</linkclipref>
              <mediatype>audio</mediatype>
              <trackindex>5</trackindex>
              <clipindex>1</clipindex>
              <groupindex>1</groupindex>
            </link>
            <link>
              <linkclipref>clipitem-532</linkclipref>
              <mediatype>audio</mediatype>
              <trackindex>6</trackindex>
              <clipindex>1</clipindex>
              <groupindex>1</groupindex>
            </link>
          </clipitem>
          <clipitem id="clipitem-538" premiereChannelType="Stereo">
            <masterclipid>masterclip-3</masterclipid>
            <name>2023-03-30 21-15-31艾许决赛圈2V6 8KCC.mp4</name>
            <enabled>TRUE</enabled>
            <rate>
              <timebase>60</timebase>
              <ntsc>FALSE</ntsc>
            </rate>
            <start>10751</start>
            <end>10883</end>
            <in>10779</in>
            <out>10911</out>
            <file id="file-3"/>
            <sourcetrack>
              <mediatype>audio</mediatype>
              <trackindex>3</trackindex>
            </sourcetrack>
            <link>
              <linkclipref>clipitem-533</linkclipref>
              <mediatype>video</mediatype>
              <trackindex>1</trackindex>
              <clipindex>1</clipindex>
            </link>
            <link>
              <linkclipref>clipitem-534</linkclipref>
              <mediatype>audio</mediatype>
              <trackindex>1</trackindex>
              <clipindex>1</clipindex>
              <groupindex>1</groupindex>
            </link>
            <link>
              <linkclipref>clipitem-535</linkclipref>
              <mediatype>audio</mediatype>
              <trackindex>2</trackindex>
              <clipindex>1</clipindex>
              <groupindex>1</groupindex>
            </link>
            <link>
              <linkclipref>clipitem-536</linkclipref>
              <mediatype>audio</mediatype>
              <trackindex>3</trackindex>
              <clipindex>1</clipindex>
              <groupindex>1</groupindex>
            </link>
            <link>
              <linkclipref>clipitem-537</linkclipref>
              <mediatype>audio</mediatype>
              <trackindex>4</trackindex>
              <clipindex>1</clipindex>
              <groupindex>1</groupindex>
            </link>
            <link>
              <linkclipref>clipitem-538</linkclipref>
              <mediatype>audio</mediatype>
              <trackindex>5</trackindex>
              <clipindex>1</clipindex>
              <groupindex>1</groupindex>
            </link>
            <link>
              <linkclipref>clipitem-539</linkclipref>
              <mediatype>audio</mediatype>
              <trackindex>6</trackindex>
              <clipindex>1</clipindex>
              <groupindex>1</groupindex>
            </link>
          </clipitem>
          <clipitem id="clipitem-545" premiereChannelType="Stereo">
            <masterclipid>masterclip-3</masterclipid>
            <name>2023-03-30 21-15-31艾许决赛圈2V6 8KCC.mp4</name>
            <enabled>TRUE</enabled>
            <rate>
              <timebase>60</timebase>
              <ntsc>FALSE</ntsc>
            </rate>
            <start>10883</start>
            <end>10966</end>
            <in>10974</in>
            <out>11057</out>
            <file id="file-3"/>
            <sourcetrack>
              <mediatype>audio</mediatype>
              <trackindex>3</trackindex>
            </sourcetrack>
            <link>
              <linkclipref>clipitem-540</linkclipref>
              <mediatype>video</mediatype>
              <trackindex>1</trackindex>
              <clipindex>1</clipindex>
            </link>
            <link>
              <linkclipref>clipitem-541</linkclipref>
              <mediatype>audio</mediatype>
              <trackindex>1</trackindex>
              <clipindex>1</clipindex>
              <groupindex>1</groupindex>
            </link>
            <link>
              <linkclipref>clipitem-542</linkclipref>
              <mediatype>audio</mediatype>
              <trackindex>2</trackindex>
              <clipindex>1</clipindex>
              <groupindex>1</groupindex>
            </link>
            <link>
              <linkclipref>clipitem-543</linkclipref>
              <mediatype>audio</mediatype>
              <trackindex>3</trackindex>
              <clipindex>1</clipindex>
              <groupindex>1</groupindex>
            </link>
            <link>
              <linkclipref>clipitem-544</linkclipref>
              <mediatype>audio</mediatype>
              <trackindex>4</trackindex>
              <clipindex>1</clipindex>
              <groupindex>1</groupindex>
            </link>
            <link>
              <linkclipref>clipitem-545</linkclipref>
              <mediatype>audio</mediatype>
              <trackindex>5</trackindex>
              <clipindex>1</clipindex>
              <groupindex>1</groupindex>
            </link>
            <link>
              <linkclipref>clipitem-546</linkclipref>
              <mediatype>audio</mediatype>
              <trackindex>6</trackindex>
              <clipindex>1</clipindex>
              <groupindex>1</groupindex>
            </link>
          </clipitem>
          <clipitem id="clipitem-552" premiereChannelType="Stereo">
            <masterclipid>masterclip-3</masterclipid>
            <name>2023-03-30 21-15-31艾许决赛圈2V6 8KCC.mp4</name>
            <enabled>TRUE</enabled>
            <rate>
              <timebase>60</timebase>
              <ntsc>FALSE</ntsc>
            </rate>
            <start>10966</start>
            <end>11074</end>
            <in>11992</in>
            <out>12100</out>
            <file id="file-3"/>
            <sourcetrack>
              <mediatype>audio</mediatype>
              <trackindex>3</trackindex>
            </sourcetrack>
            <link>
              <linkclipref>clipitem-547</linkclipref>
              <mediatype>video</mediatype>
              <trackindex>1</trackindex>
              <clipindex>1</clipindex>
            </link>
            <link>
              <linkclipref>clipitem-548</linkclipref>
              <mediatype>audio</mediatype>
              <trackindex>1</trackindex>
              <clipindex>1</clipindex>
              <groupindex>1</groupindex>
            </link>
            <link>
              <linkclipref>clipitem-549</linkclipref>
              <mediatype>audio</mediatype>
              <trackindex>2</trackindex>
              <clipindex>1</clipindex>
              <groupindex>1</groupindex>
            </link>
            <link>
              <linkclipref>clipitem-550</linkclipref>
              <mediatype>audio</mediatype>
              <trackindex>3</trackindex>
              <clipindex>1</clipindex>
              <groupindex>1</groupindex>
            </link>
            <link>
              <linkclipref>clipitem-551</linkclipref>
              <mediatype>audio</mediatype>
              <trackindex>4</trackindex>
              <clipindex>1</clipindex>
              <groupindex>1</groupindex>
            </link>
            <link>
              <linkclipref>clipitem-552</linkclipref>
              <mediatype>audio</mediatype>
              <trackindex>5</trackindex>
              <clipindex>1</clipindex>
              <groupindex>1</groupindex>
            </link>
            <link>
              <linkclipref>clipitem-553</linkclipref>
              <mediatype>audio</mediatype>
              <trackindex>6</trackindex>
              <clipindex>1</clipindex>
              <groupindex>1</groupindex>
            </link>
          </clipitem>
          <clipitem id="clipitem-559" premiereChannelType="Stereo">
            <masterclipid>masterclip-3</masterclipid>
            <name>2023-03-30 21-15-31艾许决赛圈2V6 8KCC.mp4</name>
            <enabled>TRUE</enabled>
            <rate>
              <timebase>60</timebase>
              <ntsc>FALSE</ntsc>
            </rate>
            <start>11074</start>
            <end>11182</end>
            <in>12377</in>
            <out>12485</out>
            <file id="file-3"/>
            <sourcetrack>
              <mediatype>audio</mediatype>
              <trackindex>3</trackindex>
            </sourcetrack>
            <link>
              <linkclipref>clipitem-554</linkclipref>
              <mediatype>video</mediatype>
              <trackindex>1</trackindex>
              <clipindex>1</clipindex>
            </link>
            <link>
              <linkclipref>clipitem-555</linkclipref>
              <mediatype>audio</mediatype>
              <trackindex>1</trackindex>
              <clipindex>1</clipindex>
              <groupindex>1</groupindex>
            </link>
            <link>
              <linkclipref>clipitem-556</linkclipref>
              <mediatype>audio</mediatype>
              <trackindex>2</trackindex>
              <clipindex>1</clipindex>
              <groupindex>1</groupindex>
            </link>
            <link>
              <linkclipref>clipitem-557</linkclipref>
              <mediatype>audio</mediatype>
              <trackindex>3</trackindex>
              <clipindex>1</clipindex>
              <groupindex>1</groupindex>
            </link>
            <link>
              <linkclipref>clipitem-558</linkclipref>
              <mediatype>audio</mediatype>
              <trackindex>4</trackindex>
              <clipindex>1</clipindex>
              <groupindex>1</groupindex>
            </link>
            <link>
              <linkclipref>clipitem-559</linkclipref>
              <mediatype>audio</mediatype>
              <trackindex>5</trackindex>
              <clipindex>1</clipindex>
              <groupindex>1</groupindex>
            </link>
            <link>
              <linkclipref>clipitem-560</linkclipref>
              <mediatype>audio</mediatype>
              <trackindex>6</trackindex>
              <clipindex>1</clipindex>
              <groupindex>1</groupindex>
            </link>
          </clipitem>
          <clipitem id="clipitem-566" premiereChannelType="Stereo">
            <masterclipid>masterclip-3</masterclipid>
            <name>2023-03-30 21-15-31艾许决赛圈2V6 8KCC.mp4</name>
            <enabled>TRUE</enabled>
            <rate>
              <timebase>60</timebase>
              <ntsc>FALSE</ntsc>
            </rate>
            <start>11182</start>
            <end>11342</end>
            <in>13849</in>
            <out>14009</out>
            <file id="file-3"/>
            <sourcetrack>
              <mediatype>audio</mediatype>
              <trackindex>3</trackindex>
            </sourcetrack>
            <link>
              <linkclipref>clipitem-561</linkclipref>
              <mediatype>video</mediatype>
              <trackindex>1</trackindex>
              <clipindex>1</clipindex>
            </link>
            <link>
              <linkclipref>clipitem-562</linkclipref>
              <mediatype>audio</mediatype>
              <trackindex>1</trackindex>
              <clipindex>1</clipindex>
              <groupindex>1</groupindex>
            </link>
            <link>
              <linkclipref>clipitem-563</linkclipref>
              <mediatype>audio</mediatype>
              <trackindex>2</trackindex>
              <clipindex>1</clipindex>
              <groupindex>1</groupindex>
            </link>
            <link>
              <linkclipref>clipitem-564</linkclipref>
              <mediatype>audio</mediatype>
              <trackindex>3</trackindex>
              <clipindex>1</clipindex>
              <groupindex>1</groupindex>
            </link>
            <link>
              <linkclipref>clipitem-565</linkclipref>
              <mediatype>audio</mediatype>
              <trackindex>4</trackindex>
              <clipindex>1</clipindex>
              <groupindex>1</groupindex>
            </link>
            <link>
              <linkclipref>clipitem-566</linkclipref>
              <mediatype>audio</mediatype>
              <trackindex>5</trackindex>
              <clipindex>1</clipindex>
              <groupindex>1</groupindex>
            </link>
            <link>
              <linkclipref>clipitem-567</linkclipref>
              <mediatype>audio</mediatype>
              <trackindex>6</trackindex>
              <clipindex>1</clipindex>
              <groupindex>1</groupindex>
            </link>
          </clipitem>
          <clipitem id="clipitem-573" premiereChannelType="Stereo">
            <masterclipid>masterclip-3</masterclipid>
            <name>2023-03-30 21-15-31艾许决赛圈2V6 8KCC.mp4</name>
            <enabled>TRUE</enabled>
            <rate>
              <timebase>60</timebase>
              <ntsc>FALSE</ntsc>
            </rate>
            <start>11342</start>
            <end>11465</end>
            <in>14114</in>
            <out>14237</out>
            <file id="file-3"/>
            <sourcetrack>
              <mediatype>audio</mediatype>
              <trackindex>3</trackindex>
            </sourcetrack>
            <link>
              <linkclipref>clipitem-568</linkclipref>
              <mediatype>video</mediatype>
              <trackindex>1</trackindex>
              <clipindex>1</clipindex>
            </link>
            <link>
              <linkclipref>clipitem-569</linkclipref>
              <mediatype>audio</mediatype>
              <trackindex>1</trackindex>
              <clipindex>1</clipindex>
              <groupindex>1</groupindex>
            </link>
            <link>
              <linkclipref>clipitem-570</linkclipref>
              <mediatype>audio</mediatype>
              <trackindex>2</trackindex>
              <clipindex>1</clipindex>
              <groupindex>1</groupindex>
            </link>
            <link>
              <linkclipref>clipitem-571</linkclipref>
              <mediatype>audio</mediatype>
              <trackindex>3</trackindex>
              <clipindex>1</clipindex>
              <groupindex>1</groupindex>
            </link>
            <link>
              <linkclipref>clipitem-572</linkclipref>
              <mediatype>audio</mediatype>
              <trackindex>4</trackindex>
              <clipindex>1</clipindex>
              <groupindex>1</groupindex>
            </link>
            <link>
              <linkclipref>clipitem-573</linkclipref>
              <mediatype>audio</mediatype>
              <trackindex>5</trackindex>
              <clipindex>1</clipindex>
              <groupindex>1</groupindex>
            </link>
            <link>
              <linkclipref>clipitem-574</linkclipref>
              <mediatype>audio</mediatype>
              <trackindex>6</trackindex>
              <clipindex>1</clipindex>
              <groupindex>1</groupindex>
            </link>
          </clipitem>
          <clipitem id="clipitem-580" premiereChannelType="Stereo">
            <masterclipid>masterclip-3</masterclipid>
            <name>2023-03-30 21-15-31艾许决赛圈2V6 8KCC.mp4</name>
            <enabled>TRUE</enabled>
            <rate>
              <timebase>60</timebase>
              <ntsc>FALSE</ntsc>
            </rate>
            <start>11465</start>
            <end>11536</end>
            <in>14267</in>
            <out>14338</out>
            <file id="file-3"/>
            <sourcetrack>
              <mediatype>audio</mediatype>
              <trackindex>3</trackindex>
            </sourcetrack>
            <link>
              <linkclipref>clipitem-575</linkclipref>
              <mediatype>video</mediatype>
              <trackindex>1</trackindex>
              <clipindex>1</clipindex>
            </link>
            <link>
              <linkclipref>clipitem-576</linkclipref>
              <mediatype>audio</mediatype>
              <trackindex>1</trackindex>
              <clipindex>1</clipindex>
              <groupindex>1</groupindex>
            </link>
            <link>
              <linkclipref>clipitem-577</linkclipref>
              <mediatype>audio</mediatype>
              <trackindex>2</trackindex>
              <clipindex>1</clipindex>
              <groupindex>1</groupindex>
            </link>
            <link>
              <linkclipref>clipitem-578</linkclipref>
              <mediatype>audio</mediatype>
              <trackindex>3</trackindex>
              <clipindex>1</clipindex>
              <groupindex>1</groupindex>
            </link>
            <link>
              <linkclipref>clipitem-579</linkclipref>
              <mediatype>audio</mediatype>
              <trackindex>4</trackindex>
              <clipindex>1</clipindex>
              <groupindex>1</groupindex>
            </link>
            <link>
              <linkclipref>clipitem-580</linkclipref>
              <mediatype>audio</mediatype>
              <trackindex>5</trackindex>
              <clipindex>1</clipindex>
              <groupindex>1</groupindex>
            </link>
            <link>
              <linkclipref>clipitem-581</linkclipref>
              <mediatype>audio</mediatype>
              <trackindex>6</trackindex>
              <clipindex>1</clipindex>
              <groupindex>1</groupindex>
            </link>
          </clipitem>
          <clipitem id="clipitem-587" premiereChannelType="Stereo">
            <masterclipid>masterclip-3</masterclipid>
            <name>2023-03-30 21-15-31艾许决赛圈2V6 8KCC.mp4</name>
            <enabled>TRUE</enabled>
            <rate>
              <timebase>60</timebase>
              <ntsc>FALSE</ntsc>
            </rate>
            <start>11536</start>
            <end>11721</end>
            <in>15371</in>
            <out>15556</out>
            <file id="file-3"/>
            <sourcetrack>
              <mediatype>audio</mediatype>
              <trackindex>3</trackindex>
            </sourcetrack>
            <link>
              <linkclipref>clipitem-582</linkclipref>
              <mediatype>video</mediatype>
              <trackindex>1</trackindex>
              <clipindex>1</clipindex>
            </link>
            <link>
              <linkclipref>clipitem-583</linkclipref>
              <mediatype>audio</mediatype>
              <trackindex>1</trackindex>
              <clipindex>1</clipindex>
              <groupindex>1</groupindex>
            </link>
            <link>
              <linkclipref>clipitem-584</linkclipref>
              <mediatype>audio</mediatype>
              <trackindex>2</trackindex>
              <clipindex>1</clipindex>
              <groupindex>1</groupindex>
            </link>
            <link>
              <linkclipref>clipitem-585</linkclipref>
              <mediatype>audio</mediatype>
              <trackindex>3</trackindex>
              <clipindex>1</clipindex>
              <groupindex>1</groupindex>
            </link>
            <link>
              <linkclipref>clipitem-586</linkclipref>
              <mediatype>audio</mediatype>
              <trackindex>4</trackindex>
              <clipindex>1</clipindex>
              <groupindex>1</groupindex>
            </link>
            <link>
              <linkclipref>clipitem-587</linkclipref>
              <mediatype>audio</mediatype>
              <trackindex>5</trackindex>
              <clipindex>1</clipindex>
              <groupindex>1</groupindex>
            </link>
            <link>
              <linkclipref>clipitem-588</linkclipref>
              <mediatype>audio</mediatype>
              <trackindex>6</trackindex>
              <clipindex>1</clipindex>
              <groupindex>1</groupindex>
            </link>
          </clipitem>
          <clipitem id="clipitem-594" premiereChannelType="Stereo">
            <masterclipid>masterclip-3</masterclipid>
            <name>2023-03-30 21-15-31艾许决赛圈2V6 8KCC.mp4</name>
            <enabled>TRUE</enabled>
            <rate>
              <timebase>60</timebase>
              <ntsc>FALSE</ntsc>
            </rate>
            <start>11721</start>
            <end>11912</end>
            <in>16453</in>
            <out>16644</out>
            <file id="file-3"/>
            <sourcetrack>
              <mediatype>audio</mediatype>
              <trackindex>3</trackindex>
            </sourcetrack>
            <link>
              <linkclipref>clipitem-589</linkclipref>
              <mediatype>video</mediatype>
              <trackindex>1</trackindex>
              <clipindex>1</clipindex>
            </link>
            <link>
              <linkclipref>clipitem-590</linkclipref>
              <mediatype>audio</mediatype>
              <trackindex>1</trackindex>
              <clipindex>1</clipindex>
              <groupindex>1</groupindex>
            </link>
            <link>
              <linkclipref>clipitem-591</linkclipref>
              <mediatype>audio</mediatype>
              <trackindex>2</trackindex>
              <clipindex>1</clipindex>
              <groupindex>1</groupindex>
            </link>
            <link>
              <linkclipref>clipitem-592</linkclipref>
              <mediatype>audio</mediatype>
              <trackindex>3</trackindex>
              <clipindex>1</clipindex>
              <groupindex>1</groupindex>
            </link>
            <link>
              <linkclipref>clipitem-593</linkclipref>
              <mediatype>audio</mediatype>
              <trackindex>4</trackindex>
              <clipindex>1</clipindex>
              <groupindex>1</groupindex>
            </link>
            <link>
              <linkclipref>clipitem-594</linkclipref>
              <mediatype>audio</mediatype>
              <trackindex>5</trackindex>
              <clipindex>1</clipindex>
              <groupindex>1</groupindex>
            </link>
            <link>
              <linkclipref>clipitem-595</linkclipref>
              <mediatype>audio</mediatype>
              <trackindex>6</trackindex>
              <clipindex>1</clipindex>
              <groupindex>1</groupindex>
            </link>
          </clipitem>
          <clipitem id="clipitem-601" premiereChannelType="Stereo">
            <masterclipid>masterclip-3</masterclipid>
            <name>2023-03-30 21-15-31艾许决赛圈2V6 8KCC.mp4</name>
            <enabled>TRUE</enabled>
            <rate>
              <timebase>60</timebase>
              <ntsc>FALSE</ntsc>
            </rate>
            <start>11912</start>
            <end>12140</end>
            <in>16757</in>
            <out>16985</out>
            <file id="file-3"/>
            <sourcetrack>
              <mediatype>audio</mediatype>
              <trackindex>3</trackindex>
            </sourcetrack>
            <link>
              <linkclipref>clipitem-596</linkclipref>
              <mediatype>video</mediatype>
              <trackindex>1</trackindex>
              <clipindex>1</clipindex>
            </link>
            <link>
              <linkclipref>clipitem-597</linkclipref>
              <mediatype>audio</mediatype>
              <trackindex>1</trackindex>
              <clipindex>1</clipindex>
              <groupindex>1</groupindex>
            </link>
            <link>
              <linkclipref>clipitem-598</linkclipref>
              <mediatype>audio</mediatype>
              <trackindex>2</trackindex>
              <clipindex>1</clipindex>
              <groupindex>1</groupindex>
            </link>
            <link>
              <linkclipref>clipitem-599</linkclipref>
              <mediatype>audio</mediatype>
              <trackindex>3</trackindex>
              <clipindex>1</clipindex>
              <groupindex>1</groupindex>
            </link>
            <link>
              <linkclipref>clipitem-600</linkclipref>
              <mediatype>audio</mediatype>
              <trackindex>4</trackindex>
              <clipindex>1</clipindex>
              <groupindex>1</groupindex>
            </link>
            <link>
              <linkclipref>clipitem-601</linkclipref>
              <mediatype>audio</mediatype>
              <trackindex>5</trackindex>
              <clipindex>1</clipindex>
              <groupindex>1</groupindex>
            </link>
            <link>
              <linkclipref>clipitem-602</linkclipref>
              <mediatype>audio</mediatype>
              <trackindex>6</trackindex>
              <clipindex>1</clipindex>
              <groupindex>1</groupindex>
            </link>
          </clipitem>
          <clipitem id="clipitem-608" premiereChannelType="Stereo">
            <masterclipid>masterclip-3</masterclipid>
            <name>2023-03-30 21-15-31艾许决赛圈2V6 8KCC.mp4</name>
            <enabled>TRUE</enabled>
            <rate>
              <timebase>60</timebase>
              <ntsc>FALSE</ntsc>
            </rate>
            <start>12140</start>
            <end>12316</end>
            <in>17536</in>
            <out>17712</out>
            <file id="file-3"/>
            <sourcetrack>
              <mediatype>audio</mediatype>
              <trackindex>3</trackindex>
            </sourcetrack>
            <link>
              <linkclipref>clipitem-603</linkclipref>
              <mediatype>video</mediatype>
              <trackindex>1</trackindex>
              <clipindex>1</clipindex>
            </link>
            <link>
              <linkclipref>clipitem-604</linkclipref>
              <mediatype>audio</mediatype>
              <trackindex>1</trackindex>
              <clipindex>1</clipindex>
              <groupindex>1</groupindex>
            </link>
            <link>
              <linkclipref>clipitem-605</linkclipref>
              <mediatype>audio</mediatype>
              <trackindex>2</trackindex>
              <clipindex>1</clipindex>
              <groupindex>1</groupindex>
            </link>
            <link>
              <linkclipref>clipitem-606</linkclipref>
              <mediatype>audio</mediatype>
              <trackindex>3</trackindex>
              <clipindex>1</clipindex>
              <groupindex>1</groupindex>
            </link>
            <link>
              <linkclipref>clipitem-607</linkclipref>
              <mediatype>audio</mediatype>
              <trackindex>4</trackindex>
              <clipindex>1</clipindex>
              <groupindex>1</groupindex>
            </link>
            <link>
              <linkclipref>clipitem-608</linkclipref>
              <mediatype>audio</mediatype>
              <trackindex>5</trackindex>
              <clipindex>1</clipindex>
              <groupindex>1</groupindex>
            </link>
            <link>
              <linkclipref>clipitem-609</linkclipref>
              <mediatype>audio</mediatype>
              <trackindex>6</trackindex>
              <clipindex>1</clipindex>
              <groupindex>1</groupindex>
            </link>
          </clipitem>
          <clipitem id="clipitem-615" premiereChannelType="Stereo">
            <masterclipid>masterclip-3</masterclipid>
            <name>2023-03-30 21-15-31艾许决赛圈2V6 8KCC.mp4</name>
            <enabled>TRUE</enabled>
            <rate>
              <timebase>60</timebase>
              <ntsc>FALSE</ntsc>
            </rate>
            <start>12316</start>
            <end>12524</end>
            <in>18299</in>
            <out>18507</out>
            <file id="file-3"/>
            <sourcetrack>
              <mediatype>audio</mediatype>
              <trackindex>3</trackindex>
            </sourcetrack>
            <link>
              <linkclipref>clipitem-610</linkclipref>
              <mediatype>video</mediatype>
              <trackindex>1</trackindex>
              <clipindex>1</clipindex>
            </link>
            <link>
              <linkclipref>clipitem-611</linkclipref>
              <mediatype>audio</mediatype>
              <trackindex>1</trackindex>
              <clipindex>1</clipindex>
              <groupindex>1</groupindex>
            </link>
            <link>
              <linkclipref>clipitem-612</linkclipref>
              <mediatype>audio</mediatype>
              <trackindex>2</trackindex>
              <clipindex>1</clipindex>
              <groupindex>1</groupindex>
            </link>
            <link>
              <linkclipref>clipitem-613</linkclipref>
              <mediatype>audio</mediatype>
              <trackindex>3</trackindex>
              <clipindex>1</clipindex>
              <groupindex>1</groupindex>
            </link>
            <link>
              <linkclipref>clipitem-614</linkclipref>
              <mediatype>audio</mediatype>
              <trackindex>4</trackindex>
              <clipindex>1</clipindex>
              <groupindex>1</groupindex>
            </link>
            <link>
              <linkclipref>clipitem-615</linkclipref>
              <mediatype>audio</mediatype>
              <trackindex>5</trackindex>
              <clipindex>1</clipindex>
              <groupindex>1</groupindex>
            </link>
            <link>
              <linkclipref>clipitem-616</linkclipref>
              <mediatype>audio</mediatype>
              <trackindex>6</trackindex>
              <clipindex>1</clipindex>
              <groupindex>1</groupindex>
            </link>
          </clipitem>
          <clipitem id="clipitem-622" premiereChannelType="Stereo">
            <masterclipid>masterclip-3</masterclipid>
            <name>2023-03-30 21-15-31艾许决赛圈2V6 8KCC.mp4</name>
            <enabled>TRUE</enabled>
            <rate>
              <timebase>60</timebase>
              <ntsc>FALSE</ntsc>
            </rate>
            <start>12524</start>
            <end>12590</end>
            <in>18532</in>
            <out>18598</out>
            <file id="file-3"/>
            <sourcetrack>
              <mediatype>audio</mediatype>
              <trackindex>3</trackindex>
            </sourcetrack>
            <link>
              <linkclipref>clipitem-617</linkclipref>
              <mediatype>video</mediatype>
              <trackindex>1</trackindex>
              <clipindex>1</clipindex>
            </link>
            <link>
              <linkclipref>clipitem-618</linkclipref>
              <mediatype>audio</mediatype>
              <trackindex>1</trackindex>
              <clipindex>1</clipindex>
              <groupindex>1</groupindex>
            </link>
            <link>
              <linkclipref>clipitem-619</linkclipref>
              <mediatype>audio</mediatype>
              <trackindex>2</trackindex>
              <clipindex>1</clipindex>
              <groupindex>1</groupindex>
            </link>
            <link>
              <linkclipref>clipitem-620</linkclipref>
              <mediatype>audio</mediatype>
              <trackindex>3</trackindex>
              <clipindex>1</clipindex>
              <groupindex>1</groupindex>
            </link>
            <link>
              <linkclipref>clipitem-621</linkclipref>
              <mediatype>audio</mediatype>
              <trackindex>4</trackindex>
              <clipindex>1</clipindex>
              <groupindex>1</groupindex>
            </link>
            <link>
              <linkclipref>clipitem-622</linkclipref>
              <mediatype>audio</mediatype>
              <trackindex>5</trackindex>
              <clipindex>1</clipindex>
              <groupindex>1</groupindex>
            </link>
            <link>
              <linkclipref>clipitem-623</linkclipref>
              <mediatype>audio</mediatype>
              <trackindex>6</trackindex>
              <clipindex>1</clipindex>
              <groupindex>1</groupindex>
            </link>
          </clipitem>
          <clipitem id="clipitem-629" premiereChannelType="Stereo">
            <masterclipid>masterclip-3</masterclipid>
            <name>2023-03-30 21-15-31艾许决赛圈2V6 8KCC.mp4</name>
            <enabled>TRUE</enabled>
            <rate>
              <timebase>60</timebase>
              <ntsc>FALSE</ntsc>
            </rate>
            <start>12590</start>
            <end>12690</end>
            <in>18756</in>
            <out>18856</out>
            <file id="file-3"/>
            <sourcetrack>
              <mediatype>audio</mediatype>
              <trackindex>3</trackindex>
            </sourcetrack>
            <link>
              <linkclipref>clipitem-624</linkclipref>
              <mediatype>video</mediatype>
              <trackindex>1</trackindex>
              <clipindex>1</clipindex>
            </link>
            <link>
              <linkclipref>clipitem-625</linkclipref>
              <mediatype>audio</mediatype>
              <trackindex>1</trackindex>
              <clipindex>1</clipindex>
              <groupindex>1</groupindex>
            </link>
            <link>
              <linkclipref>clipitem-626</linkclipref>
              <mediatype>audio</mediatype>
              <trackindex>2</trackindex>
              <clipindex>1</clipindex>
              <groupindex>1</groupindex>
            </link>
            <link>
              <linkclipref>clipitem-627</linkclipref>
              <mediatype>audio</mediatype>
              <trackindex>3</trackindex>
              <clipindex>1</clipindex>
              <groupindex>1</groupindex>
            </link>
            <link>
              <linkclipref>clipitem-628</linkclipref>
              <mediatype>audio</mediatype>
              <trackindex>4</trackindex>
              <clipindex>1</clipindex>
              <groupindex>1</groupindex>
            </link>
            <link>
              <linkclipref>clipitem-629</linkclipref>
              <mediatype>audio</mediatype>
              <trackindex>5</trackindex>
              <clipindex>1</clipindex>
              <groupindex>1</groupindex>
            </link>
            <link>
              <linkclipref>clipitem-630</linkclipref>
              <mediatype>audio</mediatype>
              <trackindex>6</trackindex>
              <clipindex>1</clipindex>
              <groupindex>1</groupindex>
            </link>
          </clipitem>
          <clipitem id="clipitem-636" premiereChannelType="Stereo">
            <masterclipid>masterclip-3</masterclipid>
            <name>2023-03-30 21-15-31艾许决赛圈2V6 8KCC.mp4</name>
            <enabled>TRUE</enabled>
            <rate>
              <timebase>60</timebase>
              <ntsc>FALSE</ntsc>
            </rate>
            <start>12690</start>
            <end>12770</end>
            <in>29766</in>
            <out>29846</out>
            <file id="file-3"/>
            <sourcetrack>
              <mediatype>audio</mediatype>
              <trackindex>3</trackindex>
            </sourcetrack>
            <link>
              <linkclipref>clipitem-631</linkclipref>
              <mediatype>video</mediatype>
              <trackindex>1</trackindex>
              <clipindex>1</clipindex>
            </link>
            <link>
              <linkclipref>clipitem-632</linkclipref>
              <mediatype>audio</mediatype>
              <trackindex>1</trackindex>
              <clipindex>1</clipindex>
              <groupindex>1</groupindex>
            </link>
            <link>
              <linkclipref>clipitem-633</linkclipref>
              <mediatype>audio</mediatype>
              <trackindex>2</trackindex>
              <clipindex>1</clipindex>
              <groupindex>1</groupindex>
            </link>
            <link>
              <linkclipref>clipitem-634</linkclipref>
              <mediatype>audio</mediatype>
              <trackindex>3</trackindex>
              <clipindex>1</clipindex>
              <groupindex>1</groupindex>
            </link>
            <link>
              <linkclipref>clipitem-635</linkclipref>
              <mediatype>audio</mediatype>
              <trackindex>4</trackindex>
              <clipindex>1</clipindex>
              <groupindex>1</groupindex>
            </link>
            <link>
              <linkclipref>clipitem-636</linkclipref>
              <mediatype>audio</mediatype>
              <trackindex>5</trackindex>
              <clipindex>1</clipindex>
              <groupindex>1</groupindex>
            </link>
            <link>
              <linkclipref>clipitem-637</linkclipref>
              <mediatype>audio</mediatype>
              <trackindex>6</trackindex>
              <clipindex>1</clipindex>
              <groupindex>1</groupindex>
            </link>
          </clipitem>
          <clipitem id="clipitem-643" premiereChannelType="Stereo">
            <masterclipid>masterclip-3</masterclipid>
            <name>2023-03-30 21-15-31艾许决赛圈2V6 8KCC.mp4</name>
            <enabled>TRUE</enabled>
            <rate>
              <timebase>60</timebase>
              <ntsc>FALSE</ntsc>
            </rate>
            <start>12770</start>
            <end>12919</end>
            <in>30276</in>
            <out>30425</out>
            <file id="file-3"/>
            <sourcetrack>
              <mediatype>audio</mediatype>
              <trackindex>3</trackindex>
            </sourcetrack>
            <link>
              <linkclipref>clipitem-638</linkclipref>
              <mediatype>video</mediatype>
              <trackindex>1</trackindex>
              <clipindex>1</clipindex>
            </link>
            <link>
              <linkclipref>clipitem-639</linkclipref>
              <mediatype>audio</mediatype>
              <trackindex>1</trackindex>
              <clipindex>1</clipindex>
              <groupindex>1</groupindex>
            </link>
            <link>
              <linkclipref>clipitem-640</linkclipref>
              <mediatype>audio</mediatype>
              <trackindex>2</trackindex>
              <clipindex>1</clipindex>
              <groupindex>1</groupindex>
            </link>
            <link>
              <linkclipref>clipitem-641</linkclipref>
              <mediatype>audio</mediatype>
              <trackindex>3</trackindex>
              <clipindex>1</clipindex>
              <groupindex>1</groupindex>
            </link>
            <link>
              <linkclipref>clipitem-642</linkclipref>
              <mediatype>audio</mediatype>
              <trackindex>4</trackindex>
              <clipindex>1</clipindex>
              <groupindex>1</groupindex>
            </link>
            <link>
              <linkclipref>clipitem-643</linkclipref>
              <mediatype>audio</mediatype>
              <trackindex>5</trackindex>
              <clipindex>1</clipindex>
              <groupindex>1</groupindex>
            </link>
            <link>
              <linkclipref>clipitem-644</linkclipref>
              <mediatype>audio</mediatype>
              <trackindex>6</trackindex>
              <clipindex>1</clipindex>
              <groupindex>1</groupindex>
            </link>
          </clipitem>
          <clipitem id="clipitem-650" premiereChannelType="Stereo">
            <masterclipid>masterclip-3</masterclipid>
            <name>2023-03-30 21-15-31艾许决赛圈2V6 8KCC.mp4</name>
            <enabled>TRUE</enabled>
            <rate>
              <timebase>60</timebase>
              <ntsc>FALSE</ntsc>
            </rate>
            <start>12919</start>
            <end>13039</end>
            <in>30422</in>
            <out>30542</out>
            <file id="file-3"/>
            <sourcetrack>
              <mediatype>audio</mediatype>
              <trackindex>3</trackindex>
            </sourcetrack>
            <link>
              <linkclipref>clipitem-645</linkclipref>
              <mediatype>video</mediatype>
              <trackindex>1</trackindex>
              <clipindex>1</clipindex>
            </link>
            <link>
              <linkclipref>clipitem-646</linkclipref>
              <mediatype>audio</mediatype>
              <trackindex>1</trackindex>
              <clipindex>1</clipindex>
              <groupindex>1</groupindex>
            </link>
            <link>
              <linkclipref>clipitem-647</linkclipref>
              <mediatype>audio</mediatype>
              <trackindex>2</trackindex>
              <clipindex>1</clipindex>
              <groupindex>1</groupindex>
            </link>
            <link>
              <linkclipref>clipitem-648</linkclipref>
              <mediatype>audio</mediatype>
              <trackindex>3</trackindex>
              <clipindex>1</clipindex>
              <groupindex>1</groupindex>
            </link>
            <link>
              <linkclipref>clipitem-649</linkclipref>
              <mediatype>audio</mediatype>
              <trackindex>4</trackindex>
              <clipindex>1</clipindex>
              <groupindex>1</groupindex>
            </link>
            <link>
              <linkclipref>clipitem-650</linkclipref>
              <mediatype>audio</mediatype>
              <trackindex>5</trackindex>
              <clipindex>1</clipindex>
              <groupindex>1</groupindex>
            </link>
            <link>
              <linkclipref>clipitem-651</linkclipref>
              <mediatype>audio</mediatype>
              <trackindex>6</trackindex>
              <clipindex>1</clipindex>
              <groupindex>1</groupindex>
            </link>
          </clipitem>
          <clipitem id="clipitem-657" premiereChannelType="Stereo">
            <masterclipid>masterclip-3</masterclipid>
            <name>2023-03-30 21-15-31艾许决赛圈2V6 8KCC.mp4</name>
            <enabled>TRUE</enabled>
            <rate>
              <timebase>60</timebase>
              <ntsc>FALSE</ntsc>
            </rate>
            <start>13039</start>
            <end>13141</end>
            <in>30545</in>
            <out>30647</out>
            <file id="file-3"/>
            <sourcetrack>
              <mediatype>audio</mediatype>
              <trackindex>3</trackindex>
            </sourcetrack>
            <link>
              <linkclipref>clipitem-652</linkclipref>
              <mediatype>video</mediatype>
              <trackindex>1</trackindex>
              <clipindex>1</clipindex>
            </link>
            <link>
              <linkclipref>clipitem-653</linkclipref>
              <mediatype>audio</mediatype>
              <trackindex>1</trackindex>
              <clipindex>1</clipindex>
              <groupindex>1</groupindex>
            </link>
            <link>
              <linkclipref>clipitem-654</linkclipref>
              <mediatype>audio</mediatype>
              <trackindex>2</trackindex>
              <clipindex>1</clipindex>
              <groupindex>1</groupindex>
            </link>
            <link>
              <linkclipref>clipitem-655</linkclipref>
              <mediatype>audio</mediatype>
              <trackindex>3</trackindex>
              <clipindex>1</clipindex>
              <groupindex>1</groupindex>
            </link>
            <link>
              <linkclipref>clipitem-656</linkclipref>
              <mediatype>audio</mediatype>
              <trackindex>4</trackindex>
              <clipindex>1</clipindex>
              <groupindex>1</groupindex>
            </link>
            <link>
              <linkclipref>clipitem-657</linkclipref>
              <mediatype>audio</mediatype>
              <trackindex>5</trackindex>
              <clipindex>1</clipindex>
              <groupindex>1</groupindex>
            </link>
            <link>
              <linkclipref>clipitem-658</linkclipref>
              <mediatype>audio</mediatype>
              <trackindex>6</trackindex>
              <clipindex>1</clipindex>
              <groupindex>1</groupindex>
            </link>
          </clipitem>
          <clipitem id="clipitem-664" premiereChannelType="Stereo">
            <masterclipid>masterclip-3</masterclipid>
            <name>2023-03-30 21-15-31艾许决赛圈2V6 8KCC.mp4</name>
            <enabled>TRUE</enabled>
            <rate>
              <timebase>60</timebase>
              <ntsc>FALSE</ntsc>
            </rate>
            <start>13141</start>
            <end>13330</end>
            <in>32618</in>
            <out>32807</out>
            <file id="file-3"/>
            <sourcetrack>
              <mediatype>audio</mediatype>
              <trackindex>3</trackindex>
            </sourcetrack>
            <link>
              <linkclipref>clipitem-659</linkclipref>
              <mediatype>video</mediatype>
              <trackindex>1</trackindex>
              <clipindex>1</clipindex>
            </link>
            <link>
              <linkclipref>clipitem-660</linkclipref>
              <mediatype>audio</mediatype>
              <trackindex>1</trackindex>
              <clipindex>1</clipindex>
              <groupindex>1</groupindex>
            </link>
            <link>
              <linkclipref>clipitem-661</linkclipref>
              <mediatype>audio</mediatype>
              <trackindex>2</trackindex>
              <clipindex>1</clipindex>
              <groupindex>1</groupindex>
            </link>
            <link>
              <linkclipref>clipitem-662</linkclipref>
              <mediatype>audio</mediatype>
              <trackindex>3</trackindex>
              <clipindex>1</clipindex>
              <groupindex>1</groupindex>
            </link>
            <link>
              <linkclipref>clipitem-663</linkclipref>
              <mediatype>audio</mediatype>
              <trackindex>4</trackindex>
              <clipindex>1</clipindex>
              <groupindex>1</groupindex>
            </link>
            <link>
              <linkclipref>clipitem-664</linkclipref>
              <mediatype>audio</mediatype>
              <trackindex>5</trackindex>
              <clipindex>1</clipindex>
              <groupindex>1</groupindex>
            </link>
            <link>
              <linkclipref>clipitem-665</linkclipref>
              <mediatype>audio</mediatype>
              <trackindex>6</trackindex>
              <clipindex>1</clipindex>
              <groupindex>1</groupindex>
            </link>
          </clipitem>
          <clipitem id="clipitem-671" premiereChannelType="Stereo">
            <masterclipid>masterclip-3</masterclipid>
            <name>2023-03-30 21-15-31艾许决赛圈2V6 8KCC.mp4</name>
            <enabled>TRUE</enabled>
            <rate>
              <timebase>60</timebase>
              <ntsc>FALSE</ntsc>
            </rate>
            <start>13330</start>
            <end>13454</end>
            <in>33866</in>
            <out>33990</out>
            <file id="file-3"/>
            <sourcetrack>
              <mediatype>audio</mediatype>
              <trackindex>3</trackindex>
            </sourcetrack>
            <link>
              <linkclipref>clipitem-666</linkclipref>
              <mediatype>video</mediatype>
              <trackindex>1</trackindex>
              <clipindex>1</clipindex>
            </link>
            <link>
              <linkclipref>clipitem-667</linkclipref>
              <mediatype>audio</mediatype>
              <trackindex>1</trackindex>
              <clipindex>1</clipindex>
              <groupindex>1</groupindex>
            </link>
            <link>
              <linkclipref>clipitem-668</linkclipref>
              <mediatype>audio</mediatype>
              <trackindex>2</trackindex>
              <clipindex>1</clipindex>
              <groupindex>1</groupindex>
            </link>
            <link>
              <linkclipref>clipitem-669</linkclipref>
              <mediatype>audio</mediatype>
              <trackindex>3</trackindex>
              <clipindex>1</clipindex>
              <groupindex>1</groupindex>
            </link>
            <link>
              <linkclipref>clipitem-670</linkclipref>
              <mediatype>audio</mediatype>
              <trackindex>4</trackindex>
              <clipindex>1</clipindex>
              <groupindex>1</groupindex>
            </link>
            <link>
              <linkclipref>clipitem-671</linkclipref>
              <mediatype>audio</mediatype>
              <trackindex>5</trackindex>
              <clipindex>1</clipindex>
              <groupindex>1</groupindex>
            </link>
            <link>
              <linkclipref>clipitem-672</linkclipref>
              <mediatype>audio</mediatype>
              <trackindex>6</trackindex>
              <clipindex>1</clipindex>
              <groupindex>1</groupindex>
            </link>
          </clipitem>
          <clipitem id="clipitem-678" premiereChannelType="Stereo">
            <masterclipid>masterclip-3</masterclipid>
            <name>2023-03-30 21-15-31艾许决赛圈2V6 8KCC.mp4</name>
            <enabled>TRUE</enabled>
            <rate>
              <timebase>60</timebase>
              <ntsc>FALSE</ntsc>
            </rate>
            <start>13454</start>
            <end>13564</end>
            <in>41673</in>
            <out>41783</out>
            <file id="file-3"/>
            <sourcetrack>
              <mediatype>audio</mediatype>
              <trackindex>3</trackindex>
            </sourcetrack>
            <link>
              <linkclipref>clipitem-673</linkclipref>
              <mediatype>video</mediatype>
              <trackindex>1</trackindex>
              <clipindex>1</clipindex>
            </link>
            <link>
              <linkclipref>clipitem-674</linkclipref>
              <mediatype>audio</mediatype>
              <trackindex>1</trackindex>
              <clipindex>1</clipindex>
              <groupindex>1</groupindex>
            </link>
            <link>
              <linkclipref>clipitem-675</linkclipref>
              <mediatype>audio</mediatype>
              <trackindex>2</trackindex>
              <clipindex>1</clipindex>
              <groupindex>1</groupindex>
            </link>
            <link>
              <linkclipref>clipitem-676</linkclipref>
              <mediatype>audio</mediatype>
              <trackindex>3</trackindex>
              <clipindex>1</clipindex>
              <groupindex>1</groupindex>
            </link>
            <link>
              <linkclipref>clipitem-677</linkclipref>
              <mediatype>audio</mediatype>
              <trackindex>4</trackindex>
              <clipindex>1</clipindex>
              <groupindex>1</groupindex>
            </link>
            <link>
              <linkclipref>clipitem-678</linkclipref>
              <mediatype>audio</mediatype>
              <trackindex>5</trackindex>
              <clipindex>1</clipindex>
              <groupindex>1</groupindex>
            </link>
            <link>
              <linkclipref>clipitem-679</linkclipref>
              <mediatype>audio</mediatype>
              <trackindex>6</trackindex>
              <clipindex>1</clipindex>
              <groupindex>1</groupindex>
            </link>
          </clipitem>
          <clipitem id="clipitem-685" premiereChannelType="Stereo">
            <masterclipid>masterclip-3</masterclipid>
            <name>2023-03-30 21-15-31艾许决赛圈2V6 8KCC.mp4</name>
            <enabled>TRUE</enabled>
            <rate>
              <timebase>60</timebase>
              <ntsc>FALSE</ntsc>
            </rate>
            <start>13564</start>
            <end>13644</end>
            <in>42037</in>
            <out>42117</out>
            <file id="file-3"/>
            <sourcetrack>
              <mediatype>audio</mediatype>
              <trackindex>3</trackindex>
            </sourcetrack>
            <link>
              <linkclipref>clipitem-680</linkclipref>
              <mediatype>video</mediatype>
              <trackindex>1</trackindex>
              <clipindex>1</clipindex>
            </link>
            <link>
              <linkclipref>clipitem-681</linkclipref>
              <mediatype>audio</mediatype>
              <trackindex>1</trackindex>
              <clipindex>1</clipindex>
              <groupindex>1</groupindex>
            </link>
            <link>
              <linkclipref>clipitem-682</linkclipref>
              <mediatype>audio</mediatype>
              <trackindex>2</trackindex>
              <clipindex>1</clipindex>
              <groupindex>1</groupindex>
            </link>
            <link>
              <linkclipref>clipitem-683</linkclipref>
              <mediatype>audio</mediatype>
              <trackindex>3</trackindex>
              <clipindex>1</clipindex>
              <groupindex>1</groupindex>
            </link>
            <link>
              <linkclipref>clipitem-684</linkclipref>
              <mediatype>audio</mediatype>
              <trackindex>4</trackindex>
              <clipindex>1</clipindex>
              <groupindex>1</groupindex>
            </link>
            <link>
              <linkclipref>clipitem-685</linkclipref>
              <mediatype>audio</mediatype>
              <trackindex>5</trackindex>
              <clipindex>1</clipindex>
              <groupindex>1</groupindex>
            </link>
            <link>
              <linkclipref>clipitem-686</linkclipref>
              <mediatype>audio</mediatype>
              <trackindex>6</trackindex>
              <clipindex>1</clipindex>
              <groupindex>1</groupindex>
            </link>
          </clipitem>
          <clipitem id="clipitem-692" premiereChannelType="Stereo">
            <masterclipid>masterclip-3</masterclipid>
            <name>2023-03-30 21-15-31艾许决赛圈2V6 8KCC.mp4</name>
            <enabled>TRUE</enabled>
            <rate>
              <timebase>60</timebase>
              <ntsc>FALSE</ntsc>
            </rate>
            <start>13644</start>
            <end>13724</end>
            <in>43943</in>
            <out>44023</out>
            <file id="file-3"/>
            <sourcetrack>
              <mediatype>audio</mediatype>
              <trackindex>3</trackindex>
            </sourcetrack>
            <link>
              <linkclipref>clipitem-687</linkclipref>
              <mediatype>video</mediatype>
              <trackindex>1</trackindex>
              <clipindex>1</clipindex>
            </link>
            <link>
              <linkclipref>clipitem-688</linkclipref>
              <mediatype>audio</mediatype>
              <trackindex>1</trackindex>
              <clipindex>1</clipindex>
              <groupindex>1</groupindex>
            </link>
            <link>
              <linkclipref>clipitem-689</linkclipref>
              <mediatype>audio</mediatype>
              <trackindex>2</trackindex>
              <clipindex>1</clipindex>
              <groupindex>1</groupindex>
            </link>
            <link>
              <linkclipref>clipitem-690</linkclipref>
              <mediatype>audio</mediatype>
              <trackindex>3</trackindex>
              <clipindex>1</clipindex>
              <groupindex>1</groupindex>
            </link>
            <link>
              <linkclipref>clipitem-691</linkclipref>
              <mediatype>audio</mediatype>
              <trackindex>4</trackindex>
              <clipindex>1</clipindex>
              <groupindex>1</groupindex>
            </link>
            <link>
              <linkclipref>clipitem-692</linkclipref>
              <mediatype>audio</mediatype>
              <trackindex>5</trackindex>
              <clipindex>1</clipindex>
              <groupindex>1</groupindex>
            </link>
            <link>
              <linkclipref>clipitem-693</linkclipref>
              <mediatype>audio</mediatype>
              <trackindex>6</trackindex>
              <clipindex>1</clipindex>
              <groupindex>1</groupindex>
            </link>
          </clipitem>
          <clipitem id="clipitem-699" premiereChannelType="Stereo">
            <masterclipid>masterclip-3</masterclipid>
            <name>2023-03-30 21-15-31艾许决赛圈2V6 8KCC.mp4</name>
            <enabled>TRUE</enabled>
            <rate>
              <timebase>60</timebase>
              <ntsc>FALSE</ntsc>
            </rate>
            <start>13724</start>
            <end>13838</end>
            <in>44030</in>
            <out>44144</out>
            <file id="file-3"/>
            <sourcetrack>
              <mediatype>audio</mediatype>
              <trackindex>3</trackindex>
            </sourcetrack>
            <link>
              <linkclipref>clipitem-694</linkclipref>
              <mediatype>video</mediatype>
              <trackindex>1</trackindex>
              <clipindex>1</clipindex>
            </link>
            <link>
              <linkclipref>clipitem-695</linkclipref>
              <mediatype>audio</mediatype>
              <trackindex>1</trackindex>
              <clipindex>1</clipindex>
              <groupindex>1</groupindex>
            </link>
            <link>
              <linkclipref>clipitem-696</linkclipref>
              <mediatype>audio</mediatype>
              <trackindex>2</trackindex>
              <clipindex>1</clipindex>
              <groupindex>1</groupindex>
            </link>
            <link>
              <linkclipref>clipitem-697</linkclipref>
              <mediatype>audio</mediatype>
              <trackindex>3</trackindex>
              <clipindex>1</clipindex>
              <groupindex>1</groupindex>
            </link>
            <link>
              <linkclipref>clipitem-698</linkclipref>
              <mediatype>audio</mediatype>
              <trackindex>4</trackindex>
              <clipindex>1</clipindex>
              <groupindex>1</groupindex>
            </link>
            <link>
              <linkclipref>clipitem-699</linkclipref>
              <mediatype>audio</mediatype>
              <trackindex>5</trackindex>
              <clipindex>1</clipindex>
              <groupindex>1</groupindex>
            </link>
            <link>
              <linkclipref>clipitem-700</linkclipref>
              <mediatype>audio</mediatype>
              <trackindex>6</trackindex>
              <clipindex>1</clipindex>
              <groupindex>1</groupindex>
            </link>
          </clipitem>
          <clipitem id="clipitem-706" premiereChannelType="Stereo">
            <masterclipid>masterclip-3</masterclipid>
            <name>2023-03-30 21-15-31艾许决赛圈2V6 8KCC.mp4</name>
            <enabled>TRUE</enabled>
            <rate>
              <timebase>60</timebase>
              <ntsc>FALSE</ntsc>
            </rate>
            <start>13838</start>
            <end>13903</end>
            <in>44850</in>
            <out>44915</out>
            <file id="file-3"/>
            <sourcetrack>
              <mediatype>audio</mediatype>
              <trackindex>3</trackindex>
            </sourcetrack>
            <link>
              <linkclipref>clipitem-701</linkclipref>
              <mediatype>video</mediatype>
              <trackindex>1</trackindex>
              <clipindex>1</clipindex>
            </link>
            <link>
              <linkclipref>clipitem-702</linkclipref>
              <mediatype>audio</mediatype>
              <trackindex>1</trackindex>
              <clipindex>1</clipindex>
              <groupindex>1</groupindex>
            </link>
            <link>
              <linkclipref>clipitem-703</linkclipref>
              <mediatype>audio</mediatype>
              <trackindex>2</trackindex>
              <clipindex>1</clipindex>
              <groupindex>1</groupindex>
            </link>
            <link>
              <linkclipref>clipitem-704</linkclipref>
              <mediatype>audio</mediatype>
              <trackindex>3</trackindex>
              <clipindex>1</clipindex>
              <groupindex>1</groupindex>
            </link>
            <link>
              <linkclipref>clipitem-705</linkclipref>
              <mediatype>audio</mediatype>
              <trackindex>4</trackindex>
              <clipindex>1</clipindex>
              <groupindex>1</groupindex>
            </link>
            <link>
              <linkclipref>clipitem-706</linkclipref>
              <mediatype>audio</mediatype>
              <trackindex>5</trackindex>
              <clipindex>1</clipindex>
              <groupindex>1</groupindex>
            </link>
            <link>
              <linkclipref>clipitem-707</linkclipref>
              <mediatype>audio</mediatype>
              <trackindex>6</trackindex>
              <clipindex>1</clipindex>
              <groupindex>1</groupindex>
            </link>
          </clipitem>
          <clipitem id="clipitem-713" premiereChannelType="Stereo">
            <masterclipid>masterclip-3</masterclipid>
            <name>2023-03-30 21-15-31艾许决赛圈2V6 8KCC.mp4</name>
            <enabled>TRUE</enabled>
            <rate>
              <timebase>60</timebase>
              <ntsc>FALSE</ntsc>
            </rate>
            <start>13903</start>
            <end>14190</end>
            <in>46715</in>
            <out>47002</out>
            <file id="file-3"/>
            <sourcetrack>
              <mediatype>audio</mediatype>
              <trackindex>3</trackindex>
            </sourcetrack>
            <link>
              <linkclipref>clipitem-708</linkclipref>
              <mediatype>video</mediatype>
              <trackindex>1</trackindex>
              <clipindex>1</clipindex>
            </link>
            <link>
              <linkclipref>clipitem-709</linkclipref>
              <mediatype>audio</mediatype>
              <trackindex>1</trackindex>
              <clipindex>1</clipindex>
              <groupindex>1</groupindex>
            </link>
            <link>
              <linkclipref>clipitem-710</linkclipref>
              <mediatype>audio</mediatype>
              <trackindex>2</trackindex>
              <clipindex>1</clipindex>
              <groupindex>1</groupindex>
            </link>
            <link>
              <linkclipref>clipitem-711</linkclipref>
              <mediatype>audio</mediatype>
              <trackindex>3</trackindex>
              <clipindex>1</clipindex>
              <groupindex>1</groupindex>
            </link>
            <link>
              <linkclipref>clipitem-712</linkclipref>
              <mediatype>audio</mediatype>
              <trackindex>4</trackindex>
              <clipindex>1</clipindex>
              <groupindex>1</groupindex>
            </link>
            <link>
              <linkclipref>clipitem-713</linkclipref>
              <mediatype>audio</mediatype>
              <trackindex>5</trackindex>
              <clipindex>1</clipindex>
              <groupindex>1</groupindex>
            </link>
            <link>
              <linkclipref>clipitem-714</linkclipref>
              <mediatype>audio</mediatype>
              <trackindex>6</trackindex>
              <clipindex>1</clipindex>
              <groupindex>1</groupindex>
            </link>
          </clipitem>
          <clipitem id="clipitem-720" premiereChannelType="Stereo">
            <masterclipid>masterclip-3</masterclipid>
            <name>2023-03-30 21-15-31艾许决赛圈2V6 8KCC.mp4</name>
            <enabled>TRUE</enabled>
            <rate>
              <timebase>60</timebase>
              <ntsc>FALSE</ntsc>
            </rate>
            <start>14190</start>
            <end>14385</end>
            <in>48602</in>
            <out>48797</out>
            <file id="file-3"/>
            <sourcetrack>
              <mediatype>audio</mediatype>
              <trackindex>3</trackindex>
            </sourcetrack>
            <link>
              <linkclipref>clipitem-715</linkclipref>
              <mediatype>video</mediatype>
              <trackindex>1</trackindex>
              <clipindex>1</clipindex>
            </link>
            <link>
              <linkclipref>clipitem-716</linkclipref>
              <mediatype>audio</mediatype>
              <trackindex>1</trackindex>
              <clipindex>1</clipindex>
              <groupindex>1</groupindex>
            </link>
            <link>
              <linkclipref>clipitem-717</linkclipref>
              <mediatype>audio</mediatype>
              <trackindex>2</trackindex>
              <clipindex>1</clipindex>
              <groupindex>1</groupindex>
            </link>
            <link>
              <linkclipref>clipitem-718</linkclipref>
              <mediatype>audio</mediatype>
              <trackindex>3</trackindex>
              <clipindex>1</clipindex>
              <groupindex>1</groupindex>
            </link>
            <link>
              <linkclipref>clipitem-719</linkclipref>
              <mediatype>audio</mediatype>
              <trackindex>4</trackindex>
              <clipindex>1</clipindex>
              <groupindex>1</groupindex>
            </link>
            <link>
              <linkclipref>clipitem-720</linkclipref>
              <mediatype>audio</mediatype>
              <trackindex>5</trackindex>
              <clipindex>1</clipindex>
              <groupindex>1</groupindex>
            </link>
            <link>
              <linkclipref>clipitem-721</linkclipref>
              <mediatype>audio</mediatype>
              <trackindex>6</trackindex>
              <clipindex>1</clipindex>
              <groupindex>1</groupindex>
            </link>
          </clipitem>
          <clipitem id="clipitem-727" premiereChannelType="Stereo">
            <masterclipid>masterclip-3</masterclipid>
            <name>2023-03-30 21-15-31艾许决赛圈2V6 8KCC.mp4</name>
            <enabled>TRUE</enabled>
            <rate>
              <timebase>60</timebase>
              <ntsc>FALSE</ntsc>
            </rate>
            <start>14385</start>
            <end>14465</end>
            <in>48819</in>
            <out>48899</out>
            <file id="file-3"/>
            <sourcetrack>
              <mediatype>audio</mediatype>
              <trackindex>3</trackindex>
            </sourcetrack>
            <link>
              <linkclipref>clipitem-722</linkclipref>
              <mediatype>video</mediatype>
              <trackindex>1</trackindex>
              <clipindex>1</clipindex>
            </link>
            <link>
              <linkclipref>clipitem-723</linkclipref>
              <mediatype>audio</mediatype>
              <trackindex>1</trackindex>
              <clipindex>1</clipindex>
              <groupindex>1</groupindex>
            </link>
            <link>
              <linkclipref>clipitem-724</linkclipref>
              <mediatype>audio</mediatype>
              <trackindex>2</trackindex>
              <clipindex>1</clipindex>
              <groupindex>1</groupindex>
            </link>
            <link>
              <linkclipref>clipitem-725</linkclipref>
              <mediatype>audio</mediatype>
              <trackindex>3</trackindex>
              <clipindex>1</clipindex>
              <groupindex>1</groupindex>
            </link>
            <link>
              <linkclipref>clipitem-726</linkclipref>
              <mediatype>audio</mediatype>
              <trackindex>4</trackindex>
              <clipindex>1</clipindex>
              <groupindex>1</groupindex>
            </link>
            <link>
              <linkclipref>clipitem-727</linkclipref>
              <mediatype>audio</mediatype>
              <trackindex>5</trackindex>
              <clipindex>1</clipindex>
              <groupindex>1</groupindex>
            </link>
            <link>
              <linkclipref>clipitem-728</linkclipref>
              <mediatype>audio</mediatype>
              <trackindex>6</trackindex>
              <clipindex>1</clipindex>
              <groupindex>1</groupindex>
            </link>
          </clipitem>
          <clipitem id="clipitem-734" premiereChannelType="Stereo">
            <masterclipid>masterclip-3</masterclipid>
            <name>2023-03-30 21-15-31艾许决赛圈2V6 8KCC.mp4</name>
            <enabled>TRUE</enabled>
            <rate>
              <timebase>60</timebase>
              <ntsc>FALSE</ntsc>
            </rate>
            <start>14465</start>
            <end>14614</end>
            <in>67987</in>
            <out>68136</out>
            <file id="file-3"/>
            <sourcetrack>
              <mediatype>audio</mediatype>
              <trackindex>3</trackindex>
            </sourcetrack>
            <link>
              <linkclipref>clipitem-729</linkclipref>
              <mediatype>video</mediatype>
              <trackindex>1</trackindex>
              <clipindex>1</clipindex>
            </link>
            <link>
              <linkclipref>clipitem-730</linkclipref>
              <mediatype>audio</mediatype>
              <trackindex>1</trackindex>
              <clipindex>1</clipindex>
              <groupindex>1</groupindex>
            </link>
            <link>
              <linkclipref>clipitem-731</linkclipref>
              <mediatype>audio</mediatype>
              <trackindex>2</trackindex>
              <clipindex>1</clipindex>
              <groupindex>1</groupindex>
            </link>
            <link>
              <linkclipref>clipitem-732</linkclipref>
              <mediatype>audio</mediatype>
              <trackindex>3</trackindex>
              <clipindex>1</clipindex>
              <groupindex>1</groupindex>
            </link>
            <link>
              <linkclipref>clipitem-733</linkclipref>
              <mediatype>audio</mediatype>
              <trackindex>4</trackindex>
              <clipindex>1</clipindex>
              <groupindex>1</groupindex>
            </link>
            <link>
              <linkclipref>clipitem-734</linkclipref>
              <mediatype>audio</mediatype>
              <trackindex>5</trackindex>
              <clipindex>1</clipindex>
              <groupindex>1</groupindex>
            </link>
            <link>
              <linkclipref>clipitem-735</linkclipref>
              <mediatype>audio</mediatype>
              <trackindex>6</trackindex>
              <clipindex>1</clipindex>
              <groupindex>1</groupindex>
            </link>
          </clipitem>
          <clipitem id="clipitem-741" premiereChannelType="Stereo">
            <masterclipid>masterclip-3</masterclipid>
            <name>2023-03-30 21-15-31艾许决赛圈2V6 8KCC.mp4</name>
            <enabled>TRUE</enabled>
            <rate>
              <timebase>60</timebase>
              <ntsc>FALSE</ntsc>
            </rate>
            <start>14614</start>
            <end>14702</end>
            <in>69856</in>
            <out>69944</out>
            <file id="file-3"/>
            <sourcetrack>
              <mediatype>audio</mediatype>
              <trackindex>3</trackindex>
            </sourcetrack>
            <link>
              <linkclipref>clipitem-736</linkclipref>
              <mediatype>video</mediatype>
              <trackindex>1</trackindex>
              <clipindex>1</clipindex>
            </link>
            <link>
              <linkclipref>clipitem-737</linkclipref>
              <mediatype>audio</mediatype>
              <trackindex>1</trackindex>
              <clipindex>1</clipindex>
              <groupindex>1</groupindex>
            </link>
            <link>
              <linkclipref>clipitem-738</linkclipref>
              <mediatype>audio</mediatype>
              <trackindex>2</trackindex>
              <clipindex>1</clipindex>
              <groupindex>1</groupindex>
            </link>
            <link>
              <linkclipref>clipitem-739</linkclipref>
              <mediatype>audio</mediatype>
              <trackindex>3</trackindex>
              <clipindex>1</clipindex>
              <groupindex>1</groupindex>
            </link>
            <link>
              <linkclipref>clipitem-740</linkclipref>
              <mediatype>audio</mediatype>
              <trackindex>4</trackindex>
              <clipindex>1</clipindex>
              <groupindex>1</groupindex>
            </link>
            <link>
              <linkclipref>clipitem-741</linkclipref>
              <mediatype>audio</mediatype>
              <trackindex>5</trackindex>
              <clipindex>1</clipindex>
              <groupindex>1</groupindex>
            </link>
            <link>
              <linkclipref>clipitem-742</linkclipref>
              <mediatype>audio</mediatype>
              <trackindex>6</trackindex>
              <clipindex>1</clipindex>
              <groupindex>1</groupindex>
            </link>
          </clipitem>
          <clipitem id="clipitem-748" premiereChannelType="Stereo">
            <masterclipid>masterclip-3</masterclipid>
            <name>2023-03-30 21-15-31艾许决赛圈2V6 8KCC.mp4</name>
            <enabled>TRUE</enabled>
            <rate>
              <timebase>60</timebase>
              <ntsc>FALSE</ntsc>
            </rate>
            <start>14702</start>
            <end>14790</end>
            <in>69984</in>
            <out>70072</out>
            <file id="file-3"/>
            <sourcetrack>
              <mediatype>audio</mediatype>
              <trackindex>3</trackindex>
            </sourcetrack>
            <link>
              <linkclipref>clipitem-743</linkclipref>
              <mediatype>video</mediatype>
              <trackindex>1</trackindex>
              <clipindex>1</clipindex>
            </link>
            <link>
              <linkclipref>clipitem-744</linkclipref>
              <mediatype>audio</mediatype>
              <trackindex>1</trackindex>
              <clipindex>1</clipindex>
              <groupindex>1</groupindex>
            </link>
            <link>
              <linkclipref>clipitem-745</linkclipref>
              <mediatype>audio</mediatype>
              <trackindex>2</trackindex>
              <clipindex>1</clipindex>
              <groupindex>1</groupindex>
            </link>
            <link>
              <linkclipref>clipitem-746</linkclipref>
              <mediatype>audio</mediatype>
              <trackindex>3</trackindex>
              <clipindex>1</clipindex>
              <groupindex>1</groupindex>
            </link>
            <link>
              <linkclipref>clipitem-747</linkclipref>
              <mediatype>audio</mediatype>
              <trackindex>4</trackindex>
              <clipindex>1</clipindex>
              <groupindex>1</groupindex>
            </link>
            <link>
              <linkclipref>clipitem-748</linkclipref>
              <mediatype>audio</mediatype>
              <trackindex>5</trackindex>
              <clipindex>1</clipindex>
              <groupindex>1</groupindex>
            </link>
            <link>
              <linkclipref>clipitem-749</linkclipref>
              <mediatype>audio</mediatype>
              <trackindex>6</trackindex>
              <clipindex>1</clipindex>
              <groupindex>1</groupindex>
            </link>
          </clipitem>
          <clipitem id="clipitem-755" premiereChannelType="Stereo">
            <masterclipid>masterclip-3</masterclipid>
            <name>2023-03-30 21-15-31艾许决赛圈2V6 8KCC.mp4</name>
            <enabled>TRUE</enabled>
            <rate>
              <timebase>60</timebase>
              <ntsc>FALSE</ntsc>
            </rate>
            <start>14790</start>
            <end>14971</end>
            <in>70185</in>
            <out>70366</out>
            <file id="file-3"/>
            <sourcetrack>
              <mediatype>audio</mediatype>
              <trackindex>3</trackindex>
            </sourcetrack>
            <link>
              <linkclipref>clipitem-750</linkclipref>
              <mediatype>video</mediatype>
              <trackindex>1</trackindex>
              <clipindex>1</clipindex>
            </link>
            <link>
              <linkclipref>clipitem-751</linkclipref>
              <mediatype>audio</mediatype>
              <trackindex>1</trackindex>
              <clipindex>1</clipindex>
              <groupindex>1</groupindex>
            </link>
            <link>
              <linkclipref>clipitem-752</linkclipref>
              <mediatype>audio</mediatype>
              <trackindex>2</trackindex>
              <clipindex>1</clipindex>
              <groupindex>1</groupindex>
            </link>
            <link>
              <linkclipref>clipitem-753</linkclipref>
              <mediatype>audio</mediatype>
              <trackindex>3</trackindex>
              <clipindex>1</clipindex>
              <groupindex>1</groupindex>
            </link>
            <link>
              <linkclipref>clipitem-754</linkclipref>
              <mediatype>audio</mediatype>
              <trackindex>4</trackindex>
              <clipindex>1</clipindex>
              <groupindex>1</groupindex>
            </link>
            <link>
              <linkclipref>clipitem-755</linkclipref>
              <mediatype>audio</mediatype>
              <trackindex>5</trackindex>
              <clipindex>1</clipindex>
              <groupindex>1</groupindex>
            </link>
            <link>
              <linkclipref>clipitem-756</linkclipref>
              <mediatype>audio</mediatype>
              <trackindex>6</trackindex>
              <clipindex>1</clipindex>
              <groupindex>1</groupindex>
            </link>
          </clipitem>
          <clipitem id="clipitem-762" premiereChannelType="Stereo">
            <masterclipid>masterclip-3</masterclipid>
            <name>2023-03-30 21-15-31艾许决赛圈2V6 8KCC.mp4</name>
            <enabled>TRUE</enabled>
            <rate>
              <timebase>60</timebase>
              <ntsc>FALSE</ntsc>
            </rate>
            <start>14971</start>
            <end>15120</end>
            <in>70493</in>
            <out>70642</out>
            <file id="file-3"/>
            <sourcetrack>
              <mediatype>audio</mediatype>
              <trackindex>3</trackindex>
            </sourcetrack>
            <link>
              <linkclipref>clipitem-757</linkclipref>
              <mediatype>video</mediatype>
              <trackindex>1</trackindex>
              <clipindex>1</clipindex>
            </link>
            <link>
              <linkclipref>clipitem-758</linkclipref>
              <mediatype>audio</mediatype>
              <trackindex>1</trackindex>
              <clipindex>1</clipindex>
              <groupindex>1</groupindex>
            </link>
            <link>
              <linkclipref>clipitem-759</linkclipref>
              <mediatype>audio</mediatype>
              <trackindex>2</trackindex>
              <clipindex>1</clipindex>
              <groupindex>1</groupindex>
            </link>
            <link>
              <linkclipref>clipitem-760</linkclipref>
              <mediatype>audio</mediatype>
              <trackindex>3</trackindex>
              <clipindex>1</clipindex>
              <groupindex>1</groupindex>
            </link>
            <link>
              <linkclipref>clipitem-761</linkclipref>
              <mediatype>audio</mediatype>
              <trackindex>4</trackindex>
              <clipindex>1</clipindex>
              <groupindex>1</groupindex>
            </link>
            <link>
              <linkclipref>clipitem-762</linkclipref>
              <mediatype>audio</mediatype>
              <trackindex>5</trackindex>
              <clipindex>1</clipindex>
              <groupindex>1</groupindex>
            </link>
            <link>
              <linkclipref>clipitem-763</linkclipref>
              <mediatype>audio</mediatype>
              <trackindex>6</trackindex>
              <clipindex>1</clipindex>
              <groupindex>1</groupindex>
            </link>
          </clipitem>
          <clipitem id="clipitem-769" premiereChannelType="Stereo">
            <masterclipid>masterclip-3</masterclipid>
            <name>2023-03-30 21-15-31艾许决赛圈2V6 8KCC.mp4</name>
            <enabled>TRUE</enabled>
            <rate>
              <timebase>60</timebase>
              <ntsc>FALSE</ntsc>
            </rate>
            <start>15120</start>
            <end>15197</end>
            <in>70712</in>
            <out>70789</out>
            <file id="file-3"/>
            <sourcetrack>
              <mediatype>audio</mediatype>
              <trackindex>3</trackindex>
            </sourcetrack>
            <link>
              <linkclipref>clipitem-764</linkclipref>
              <mediatype>video</mediatype>
              <trackindex>1</trackindex>
              <clipindex>1</clipindex>
            </link>
            <link>
              <linkclipref>clipitem-765</linkclipref>
              <mediatype>audio</mediatype>
              <trackindex>1</trackindex>
              <clipindex>1</clipindex>
              <groupindex>1</groupindex>
            </link>
            <link>
              <linkclipref>clipitem-766</linkclipref>
              <mediatype>audio</mediatype>
              <trackindex>2</trackindex>
              <clipindex>1</clipindex>
              <groupindex>1</groupindex>
            </link>
            <link>
              <linkclipref>clipitem-767</linkclipref>
              <mediatype>audio</mediatype>
              <trackindex>3</trackindex>
              <clipindex>1</clipindex>
              <groupindex>1</groupindex>
            </link>
            <link>
              <linkclipref>clipitem-768</linkclipref>
              <mediatype>audio</mediatype>
              <trackindex>4</trackindex>
              <clipindex>1</clipindex>
              <groupindex>1</groupindex>
            </link>
            <link>
              <linkclipref>clipitem-769</linkclipref>
              <mediatype>audio</mediatype>
              <trackindex>5</trackindex>
              <clipindex>1</clipindex>
              <groupindex>1</groupindex>
            </link>
            <link>
              <linkclipref>clipitem-770</linkclipref>
              <mediatype>audio</mediatype>
              <trackindex>6</trackindex>
              <clipindex>1</clipindex>
              <groupindex>1</groupindex>
            </link>
          </clipitem>
          <clipitem id="clipitem-776" premiereChannelType="Stereo">
            <masterclipid>masterclip-3</masterclipid>
            <name>2023-03-30 21-15-31艾许决赛圈2V6 8KCC.mp4</name>
            <enabled>TRUE</enabled>
            <rate>
              <timebase>60</timebase>
              <ntsc>FALSE</ntsc>
            </rate>
            <start>15197</start>
            <end>15364</end>
            <in>70867</in>
            <out>71034</out>
            <file id="file-3"/>
            <sourcetrack>
              <mediatype>audio</mediatype>
              <trackindex>3</trackindex>
            </sourcetrack>
            <link>
              <linkclipref>clipitem-771</linkclipref>
              <mediatype>video</mediatype>
              <trackindex>1</trackindex>
              <clipindex>1</clipindex>
            </link>
            <link>
              <linkclipref>clipitem-772</linkclipref>
              <mediatype>audio</mediatype>
              <trackindex>1</trackindex>
              <clipindex>1</clipindex>
              <groupindex>1</groupindex>
            </link>
            <link>
              <linkclipref>clipitem-773</linkclipref>
              <mediatype>audio</mediatype>
              <trackindex>2</trackindex>
              <clipindex>1</clipindex>
              <groupindex>1</groupindex>
            </link>
            <link>
              <linkclipref>clipitem-774</linkclipref>
              <mediatype>audio</mediatype>
              <trackindex>3</trackindex>
              <clipindex>1</clipindex>
              <groupindex>1</groupindex>
            </link>
            <link>
              <linkclipref>clipitem-775</linkclipref>
              <mediatype>audio</mediatype>
              <trackindex>4</trackindex>
              <clipindex>1</clipindex>
              <groupindex>1</groupindex>
            </link>
            <link>
              <linkclipref>clipitem-776</linkclipref>
              <mediatype>audio</mediatype>
              <trackindex>5</trackindex>
              <clipindex>1</clipindex>
              <groupindex>1</groupindex>
            </link>
            <link>
              <linkclipref>clipitem-777</linkclipref>
              <mediatype>audio</mediatype>
              <trackindex>6</trackindex>
              <clipindex>1</clipindex>
              <groupindex>1</groupindex>
            </link>
          </clipitem>
          <clipitem id="clipitem-783" premiereChannelType="Stereo">
            <masterclipid>masterclip-3</masterclipid>
            <name>2023-03-30 21-15-31艾许决赛圈2V6 8KCC.mp4</name>
            <enabled>TRUE</enabled>
            <rate>
              <timebase>60</timebase>
              <ntsc>FALSE</ntsc>
            </rate>
            <start>15364</start>
            <end>15429</end>
            <in>72138</in>
            <out>72203</out>
            <file id="file-3"/>
            <sourcetrack>
              <mediatype>audio</mediatype>
              <trackindex>3</trackindex>
            </sourcetrack>
            <link>
              <linkclipref>clipitem-778</linkclipref>
              <mediatype>video</mediatype>
              <trackindex>1</trackindex>
              <clipindex>1</clipindex>
            </link>
            <link>
              <linkclipref>clipitem-779</linkclipref>
              <mediatype>audio</mediatype>
              <trackindex>1</trackindex>
              <clipindex>1</clipindex>
              <groupindex>1</groupindex>
            </link>
            <link>
              <linkclipref>clipitem-780</linkclipref>
              <mediatype>audio</mediatype>
              <trackindex>2</trackindex>
              <clipindex>1</clipindex>
              <groupindex>1</groupindex>
            </link>
            <link>
              <linkclipref>clipitem-781</linkclipref>
              <mediatype>audio</mediatype>
              <trackindex>3</trackindex>
              <clipindex>1</clipindex>
              <groupindex>1</groupindex>
            </link>
            <link>
              <linkclipref>clipitem-782</linkclipref>
              <mediatype>audio</mediatype>
              <trackindex>4</trackindex>
              <clipindex>1</clipindex>
              <groupindex>1</groupindex>
            </link>
            <link>
              <linkclipref>clipitem-783</linkclipref>
              <mediatype>audio</mediatype>
              <trackindex>5</trackindex>
              <clipindex>1</clipindex>
              <groupindex>1</groupindex>
            </link>
            <link>
              <linkclipref>clipitem-784</linkclipref>
              <mediatype>audio</mediatype>
              <trackindex>6</trackindex>
              <clipindex>1</clipindex>
              <groupindex>1</groupindex>
            </link>
          </clipitem>
          <clipitem id="clipitem-790" premiereChannelType="Stereo">
            <masterclipid>masterclip-3</masterclipid>
            <name>2023-03-30 21-15-31艾许决赛圈2V6 8KCC.mp4</name>
            <enabled>TRUE</enabled>
            <rate>
              <timebase>60</timebase>
              <ntsc>FALSE</ntsc>
            </rate>
            <start>15429</start>
            <end>15575</end>
            <in>72355</in>
            <out>72501</out>
            <file id="file-3"/>
            <sourcetrack>
              <mediatype>audio</mediatype>
              <trackindex>3</trackindex>
            </sourcetrack>
            <link>
              <linkclipref>clipitem-785</linkclipref>
              <mediatype>video</mediatype>
              <trackindex>1</trackindex>
              <clipindex>1</clipindex>
            </link>
            <link>
              <linkclipref>clipitem-786</linkclipref>
              <mediatype>audio</mediatype>
              <trackindex>1</trackindex>
              <clipindex>1</clipindex>
              <groupindex>1</groupindex>
            </link>
            <link>
              <linkclipref>clipitem-787</linkclipref>
              <mediatype>audio</mediatype>
              <trackindex>2</trackindex>
              <clipindex>1</clipindex>
              <groupindex>1</groupindex>
            </link>
            <link>
              <linkclipref>clipitem-788</linkclipref>
              <mediatype>audio</mediatype>
              <trackindex>3</trackindex>
              <clipindex>1</clipindex>
              <groupindex>1</groupindex>
            </link>
            <link>
              <linkclipref>clipitem-789</linkclipref>
              <mediatype>audio</mediatype>
              <trackindex>4</trackindex>
              <clipindex>1</clipindex>
              <groupindex>1</groupindex>
            </link>
            <link>
              <linkclipref>clipitem-790</linkclipref>
              <mediatype>audio</mediatype>
              <trackindex>5</trackindex>
              <clipindex>1</clipindex>
              <groupindex>1</groupindex>
            </link>
            <link>
              <linkclipref>clipitem-791</linkclipref>
              <mediatype>audio</mediatype>
              <trackindex>6</trackindex>
              <clipindex>1</clipindex>
              <groupindex>1</groupindex>
            </link>
          </clipitem>
          <clipitem id="clipitem-797" premiereChannelType="Stereo">
            <masterclipid>masterclip-3</masterclipid>
            <name>2023-03-30 21-15-31艾许决赛圈2V6 8KCC.mp4</name>
            <enabled>TRUE</enabled>
            <rate>
              <timebase>60</timebase>
              <ntsc>FALSE</ntsc>
            </rate>
            <start>15575</start>
            <end>15661</end>
            <in>72584</in>
            <out>72670</out>
            <file id="file-3"/>
            <sourcetrack>
              <mediatype>audio</mediatype>
              <trackindex>3</trackindex>
            </sourcetrack>
            <link>
              <linkclipref>clipitem-792</linkclipref>
              <mediatype>video</mediatype>
              <trackindex>1</trackindex>
              <clipindex>1</clipindex>
            </link>
            <link>
              <linkclipref>clipitem-793</linkclipref>
              <mediatype>audio</mediatype>
              <trackindex>1</trackindex>
              <clipindex>1</clipindex>
              <groupindex>1</groupindex>
            </link>
            <link>
              <linkclipref>clipitem-794</linkclipref>
              <mediatype>audio</mediatype>
              <trackindex>2</trackindex>
              <clipindex>1</clipindex>
              <groupindex>1</groupindex>
            </link>
            <link>
              <linkclipref>clipitem-795</linkclipref>
              <mediatype>audio</mediatype>
              <trackindex>3</trackindex>
              <clipindex>1</clipindex>
              <groupindex>1</groupindex>
            </link>
            <link>
              <linkclipref>clipitem-796</linkclipref>
              <mediatype>audio</mediatype>
              <trackindex>4</trackindex>
              <clipindex>1</clipindex>
              <groupindex>1</groupindex>
            </link>
            <link>
              <linkclipref>clipitem-797</linkclipref>
              <mediatype>audio</mediatype>
              <trackindex>5</trackindex>
              <clipindex>1</clipindex>
              <groupindex>1</groupindex>
            </link>
            <link>
              <linkclipref>clipitem-798</linkclipref>
              <mediatype>audio</mediatype>
              <trackindex>6</trackindex>
              <clipindex>1</clipindex>
              <groupindex>1</groupindex>
            </link>
          </clipitem>
          <enabled>TRUE</enabled>
          <locked>FALSE</locked>
          <outputchannelindex>1</outputchannelindex>
        </track>
        <track TL.SQTrackAudioKeyframeStyle="0" TL.SQTrackShy="0" TL.SQTrackExpandedHeight="25" TL.SQTrackExpanded="0" MZ.TrackTargeted="1" PannerCurrentValue="0.5" PannerIsInverted="true" PannerStartKeyframe="-91445760000000000,0.5,0,0,0,0,0,0" PannerName="平衡" currentExplodedTrackIndex="1" totalExplodedTrackCount="2" premiereTrackType="Stereo">
          <clipitem id="clipitem-7" premiereChannelType="Stereo">
            <masterclipid>masterclip-1</masterclipid>
            <name>2023-04-01 14-56-52溪神带上钻局CC.mp4</name>
            <enabled>TRUE</enabled>
            <rate>
              <timebase>60</timebase>
              <ntsc>FALSE</ntsc>
            </rate>
            <start>0</start>
            <end>17</end>
            <in>3303</in>
            <out>3320</out>
            <file id="file-1"/>
            <sourcetrack>
              <mediatype>audio</mediatype>
              <trackindex>3</trackindex>
            </sourcetrack>
            <link>
              <linkclipref>clipitem-1</linkclipref>
              <mediatype>video</mediatype>
              <trackindex>1</trackindex>
              <clipindex>1</clipindex>
            </link>
            <link>
              <linkclipref>clipitem-2</linkclipref>
              <mediatype>audio</mediatype>
              <trackindex>1</trackindex>
              <clipindex>1</clipindex>
              <groupindex>1</groupindex>
            </link>
            <link>
              <linkclipref>clipitem-3</linkclipref>
              <mediatype>audio</mediatype>
              <trackindex>2</trackindex>
              <clipindex>1</clipindex>
              <groupindex>1</groupindex>
            </link>
            <link>
              <linkclipref>clipitem-4</linkclipref>
              <mediatype>audio</mediatype>
              <trackindex>3</trackindex>
              <clipindex>1</clipindex>
              <groupindex>1</groupindex>
            </link>
            <link>
              <linkclipref>clipitem-5</linkclipref>
              <mediatype>audio</mediatype>
              <trackindex>4</trackindex>
              <clipindex>1</clipindex>
              <groupindex>1</groupindex>
            </link>
            <link>
              <linkclipref>clipitem-6</linkclipref>
              <mediatype>audio</mediatype>
              <trackindex>5</trackindex>
              <clipindex>1</clipindex>
              <groupindex>1</groupindex>
            </link>
            <link>
              <linkclipref>clipitem-7</linkclipref>
              <mediatype>audio</mediatype>
              <trackindex>6</trackindex>
              <clipindex>1</clipindex>
              <groupindex>1</groupindex>
            </link>
          </clipitem>
          <clipitem id="clipitem-14" premiereChannelType="Stereo">
            <masterclipid>masterclip-1</masterclipid>
            <name>2023-04-01 14-56-52溪神带上钻局CC.mp4</name>
            <enabled>TRUE</enabled>
            <rate>
              <timebase>60</timebase>
              <ntsc>FALSE</ntsc>
            </rate>
            <start>17</start>
            <end>27</end>
            <in>6094</in>
            <out>6104</out>
            <file id="file-1"/>
            <sourcetrack>
              <mediatype>audio</mediatype>
              <trackindex>3</trackindex>
            </sourcetrack>
            <link>
              <linkclipref>clipitem-8</linkclipref>
              <mediatype>video</mediatype>
              <trackindex>1</trackindex>
              <clipindex>1</clipindex>
            </link>
            <link>
              <linkclipref>clipitem-9</linkclipref>
              <mediatype>audio</mediatype>
              <trackindex>1</trackindex>
              <clipindex>1</clipindex>
              <groupindex>1</groupindex>
            </link>
            <link>
              <linkclipref>clipitem-10</linkclipref>
              <mediatype>audio</mediatype>
              <trackindex>2</trackindex>
              <clipindex>1</clipindex>
              <groupindex>1</groupindex>
            </link>
            <link>
              <linkclipref>clipitem-11</linkclipref>
              <mediatype>audio</mediatype>
              <trackindex>3</trackindex>
              <clipindex>1</clipindex>
              <groupindex>1</groupindex>
            </link>
            <link>
              <linkclipref>clipitem-12</linkclipref>
              <mediatype>audio</mediatype>
              <trackindex>4</trackindex>
              <clipindex>1</clipindex>
              <groupindex>1</groupindex>
            </link>
            <link>
              <linkclipref>clipitem-13</linkclipref>
              <mediatype>audio</mediatype>
              <trackindex>5</trackindex>
              <clipindex>1</clipindex>
              <groupindex>1</groupindex>
            </link>
            <link>
              <linkclipref>clipitem-14</linkclipref>
              <mediatype>audio</mediatype>
              <trackindex>6</trackindex>
              <clipindex>1</clipindex>
              <groupindex>1</groupindex>
            </link>
          </clipitem>
          <clipitem id="clipitem-21" premiereChannelType="Stereo">
            <masterclipid>masterclip-1</masterclipid>
            <name>2023-04-01 14-56-52溪神带上钻局CC.mp4</name>
            <enabled>TRUE</enabled>
            <rate>
              <timebase>60</timebase>
              <ntsc>FALSE</ntsc>
            </rate>
            <start>27</start>
            <end>38</end>
            <in>6096</in>
            <out>6107</out>
            <file id="file-1"/>
            <sourcetrack>
              <mediatype>audio</mediatype>
              <trackindex>3</trackindex>
            </sourcetrack>
            <link>
              <linkclipref>clipitem-15</linkclipref>
              <mediatype>video</mediatype>
              <trackindex>1</trackindex>
              <clipindex>1</clipindex>
            </link>
            <link>
              <linkclipref>clipitem-16</linkclipref>
              <mediatype>audio</mediatype>
              <trackindex>1</trackindex>
              <clipindex>1</clipindex>
              <groupindex>1</groupindex>
            </link>
            <link>
              <linkclipref>clipitem-17</linkclipref>
              <mediatype>audio</mediatype>
              <trackindex>2</trackindex>
              <clipindex>1</clipindex>
              <groupindex>1</groupindex>
            </link>
            <link>
              <linkclipref>clipitem-18</linkclipref>
              <mediatype>audio</mediatype>
              <trackindex>3</trackindex>
              <clipindex>1</clipindex>
              <groupindex>1</groupindex>
            </link>
            <link>
              <linkclipref>clipitem-19</linkclipref>
              <mediatype>audio</mediatype>
              <trackindex>4</trackindex>
              <clipindex>1</clipindex>
              <groupindex>1</groupindex>
            </link>
            <link>
              <linkclipref>clipitem-20</linkclipref>
              <mediatype>audio</mediatype>
              <trackindex>5</trackindex>
              <clipindex>1</clipindex>
              <groupindex>1</groupindex>
            </link>
            <link>
              <linkclipref>clipitem-21</linkclipref>
              <mediatype>audio</mediatype>
              <trackindex>6</trackindex>
              <clipindex>1</clipindex>
              <groupindex>1</groupindex>
            </link>
          </clipitem>
          <clipitem id="clipitem-28" premiereChannelType="Stereo">
            <masterclipid>masterclip-1</masterclipid>
            <name>2023-04-01 14-56-52溪神带上钻局CC.mp4</name>
            <enabled>TRUE</enabled>
            <rate>
              <timebase>60</timebase>
              <ntsc>FALSE</ntsc>
            </rate>
            <start>38</start>
            <end>174</end>
            <in>15816</in>
            <out>15952</out>
            <file id="file-1"/>
            <sourcetrack>
              <mediatype>audio</mediatype>
              <trackindex>3</trackindex>
            </sourcetrack>
            <link>
              <linkclipref>clipitem-22</linkclipref>
              <mediatype>video</mediatype>
              <trackindex>1</trackindex>
              <clipindex>1</clipindex>
            </link>
            <link>
              <linkclipref>clipitem-23</linkclipref>
              <mediatype>audio</mediatype>
              <trackindex>1</trackindex>
              <clipindex>1</clipindex>
              <groupindex>1</groupindex>
            </link>
            <link>
              <linkclipref>clipitem-24</linkclipref>
              <mediatype>audio</mediatype>
              <trackindex>2</trackindex>
              <clipindex>1</clipindex>
              <groupindex>1</groupindex>
            </link>
            <link>
              <linkclipref>clipitem-25</linkclipref>
              <mediatype>audio</mediatype>
              <trackindex>3</trackindex>
              <clipindex>1</clipindex>
              <groupindex>1</groupindex>
            </link>
            <link>
              <linkclipref>clipitem-26</linkclipref>
              <mediatype>audio</mediatype>
              <trackindex>4</trackindex>
              <clipindex>1</clipindex>
              <groupindex>1</groupindex>
            </link>
            <link>
              <linkclipref>clipitem-27</linkclipref>
              <mediatype>audio</mediatype>
              <trackindex>5</trackindex>
              <clipindex>1</clipindex>
              <groupindex>1</groupindex>
            </link>
            <link>
              <linkclipref>clipitem-28</linkclipref>
              <mediatype>audio</mediatype>
              <trackindex>6</trackindex>
              <clipindex>1</clipindex>
              <groupindex>1</groupindex>
            </link>
          </clipitem>
          <clipitem id="clipitem-35" premiereChannelType="Stereo">
            <masterclipid>masterclip-1</masterclipid>
            <name>2023-04-01 14-56-52溪神带上钻局CC.mp4</name>
            <enabled>TRUE</enabled>
            <rate>
              <timebase>60</timebase>
              <ntsc>FALSE</ntsc>
            </rate>
            <start>174</start>
            <end>347</end>
            <in>15978</in>
            <out>16151</out>
            <file id="file-1"/>
            <sourcetrack>
              <mediatype>audio</mediatype>
              <trackindex>3</trackindex>
            </sourcetrack>
            <link>
              <linkclipref>clipitem-29</linkclipref>
              <mediatype>video</mediatype>
              <trackindex>1</trackindex>
              <clipindex>1</clipindex>
            </link>
            <link>
              <linkclipref>clipitem-30</linkclipref>
              <mediatype>audio</mediatype>
              <trackindex>1</trackindex>
              <clipindex>1</clipindex>
              <groupindex>1</groupindex>
            </link>
            <link>
              <linkclipref>clipitem-31</linkclipref>
              <mediatype>audio</mediatype>
              <trackindex>2</trackindex>
              <clipindex>1</clipindex>
              <groupindex>1</groupindex>
            </link>
            <link>
              <linkclipref>clipitem-32</linkclipref>
              <mediatype>audio</mediatype>
              <trackindex>3</trackindex>
              <clipindex>1</clipindex>
              <groupindex>1</groupindex>
            </link>
            <link>
              <linkclipref>clipitem-33</linkclipref>
              <mediatype>audio</mediatype>
              <trackindex>4</trackindex>
              <clipindex>1</clipindex>
              <groupindex>1</groupindex>
            </link>
            <link>
              <linkclipref>clipitem-34</linkclipref>
              <mediatype>audio</mediatype>
              <trackindex>5</trackindex>
              <clipindex>1</clipindex>
              <groupindex>1</groupindex>
            </link>
            <link>
              <linkclipref>clipitem-35</linkclipref>
              <mediatype>audio</mediatype>
              <trackindex>6</trackindex>
              <clipindex>1</clipindex>
              <groupindex>1</groupindex>
            </link>
          </clipitem>
          <clipitem id="clipitem-42" premiereChannelType="Stereo">
            <masterclipid>masterclip-1</masterclipid>
            <name>2023-04-01 14-56-52溪神带上钻局CC.mp4</name>
            <enabled>TRUE</enabled>
            <rate>
              <timebase>60</timebase>
              <ntsc>FALSE</ntsc>
            </rate>
            <start>347</start>
            <end>454</end>
            <in>16564</in>
            <out>16671</out>
            <file id="file-1"/>
            <sourcetrack>
              <mediatype>audio</mediatype>
              <trackindex>3</trackindex>
            </sourcetrack>
            <link>
              <linkclipref>clipitem-36</linkclipref>
              <mediatype>video</mediatype>
              <trackindex>1</trackindex>
              <clipindex>1</clipindex>
            </link>
            <link>
              <linkclipref>clipitem-37</linkclipref>
              <mediatype>audio</mediatype>
              <trackindex>1</trackindex>
              <clipindex>1</clipindex>
              <groupindex>1</groupindex>
            </link>
            <link>
              <linkclipref>clipitem-38</linkclipref>
              <mediatype>audio</mediatype>
              <trackindex>2</trackindex>
              <clipindex>1</clipindex>
              <groupindex>1</groupindex>
            </link>
            <link>
              <linkclipref>clipitem-39</linkclipref>
              <mediatype>audio</mediatype>
              <trackindex>3</trackindex>
              <clipindex>1</clipindex>
              <groupindex>1</groupindex>
            </link>
            <link>
              <linkclipref>clipitem-40</linkclipref>
              <mediatype>audio</mediatype>
              <trackindex>4</trackindex>
              <clipindex>1</clipindex>
              <groupindex>1</groupindex>
            </link>
            <link>
              <linkclipref>clipitem-41</linkclipref>
              <mediatype>audio</mediatype>
              <trackindex>5</trackindex>
              <clipindex>1</clipindex>
              <groupindex>1</groupindex>
            </link>
            <link>
              <linkclipref>clipitem-42</linkclipref>
              <mediatype>audio</mediatype>
              <trackindex>6</trackindex>
              <clipindex>1</clipindex>
              <groupindex>1</groupindex>
            </link>
          </clipitem>
          <clipitem id="clipitem-49" premiereChannelType="Stereo">
            <masterclipid>masterclip-1</masterclipid>
            <name>2023-04-01 14-56-52溪神带上钻局CC.mp4</name>
            <enabled>TRUE</enabled>
            <rate>
              <timebase>60</timebase>
              <ntsc>FALSE</ntsc>
            </rate>
            <start>454</start>
            <end>572</end>
            <in>17900</in>
            <out>18018</out>
            <file id="file-1"/>
            <sourcetrack>
              <mediatype>audio</mediatype>
              <trackindex>3</trackindex>
            </sourcetrack>
            <link>
              <linkclipref>clipitem-43</linkclipref>
              <mediatype>video</mediatype>
              <trackindex>1</trackindex>
              <clipindex>1</clipindex>
            </link>
            <link>
              <linkclipref>clipitem-44</linkclipref>
              <mediatype>audio</mediatype>
              <trackindex>1</trackindex>
              <clipindex>1</clipindex>
              <groupindex>1</groupindex>
            </link>
            <link>
              <linkclipref>clipitem-45</linkclipref>
              <mediatype>audio</mediatype>
              <trackindex>2</trackindex>
              <clipindex>1</clipindex>
              <groupindex>1</groupindex>
            </link>
            <link>
              <linkclipref>clipitem-46</linkclipref>
              <mediatype>audio</mediatype>
              <trackindex>3</trackindex>
              <clipindex>1</clipindex>
              <groupindex>1</groupindex>
            </link>
            <link>
              <linkclipref>clipitem-47</linkclipref>
              <mediatype>audio</mediatype>
              <trackindex>4</trackindex>
              <clipindex>1</clipindex>
              <groupindex>1</groupindex>
            </link>
            <link>
              <linkclipref>clipitem-48</linkclipref>
              <mediatype>audio</mediatype>
              <trackindex>5</trackindex>
              <clipindex>1</clipindex>
              <groupindex>1</groupindex>
            </link>
            <link>
              <linkclipref>clipitem-49</linkclipref>
              <mediatype>audio</mediatype>
              <trackindex>6</trackindex>
              <clipindex>1</clipindex>
              <groupindex>1</groupindex>
            </link>
          </clipitem>
          <clipitem id="clipitem-56" premiereChannelType="Stereo">
            <masterclipid>masterclip-1</masterclipid>
            <name>2023-04-01 14-56-52溪神带上钻局CC.mp4</name>
            <enabled>TRUE</enabled>
            <rate>
              <timebase>60</timebase>
              <ntsc>FALSE</ntsc>
            </rate>
            <start>572</start>
            <end>727</end>
            <in>20147</in>
            <out>20302</out>
            <file id="file-1"/>
            <sourcetrack>
              <mediatype>audio</mediatype>
              <trackindex>3</trackindex>
            </sourcetrack>
            <link>
              <linkclipref>clipitem-50</linkclipref>
              <mediatype>video</mediatype>
              <trackindex>1</trackindex>
              <clipindex>1</clipindex>
            </link>
            <link>
              <linkclipref>clipitem-51</linkclipref>
              <mediatype>audio</mediatype>
              <trackindex>1</trackindex>
              <clipindex>1</clipindex>
              <groupindex>1</groupindex>
            </link>
            <link>
              <linkclipref>clipitem-52</linkclipref>
              <mediatype>audio</mediatype>
              <trackindex>2</trackindex>
              <clipindex>1</clipindex>
              <groupindex>1</groupindex>
            </link>
            <link>
              <linkclipref>clipitem-53</linkclipref>
              <mediatype>audio</mediatype>
              <trackindex>3</trackindex>
              <clipindex>1</clipindex>
              <groupindex>1</groupindex>
            </link>
            <link>
              <linkclipref>clipitem-54</linkclipref>
              <mediatype>audio</mediatype>
              <trackindex>4</trackindex>
              <clipindex>1</clipindex>
              <groupindex>1</groupindex>
            </link>
            <link>
              <linkclipref>clipitem-55</linkclipref>
              <mediatype>audio</mediatype>
              <trackindex>5</trackindex>
              <clipindex>1</clipindex>
              <groupindex>1</groupindex>
            </link>
            <link>
              <linkclipref>clipitem-56</linkclipref>
              <mediatype>audio</mediatype>
              <trackindex>6</trackindex>
              <clipindex>1</clipindex>
              <groupindex>1</groupindex>
            </link>
          </clipitem>
          <clipitem id="clipitem-63" premiereChannelType="Stereo">
            <masterclipid>masterclip-1</masterclipid>
            <name>2023-04-01 14-56-52溪神带上钻局CC.mp4</name>
            <enabled>TRUE</enabled>
            <rate>
              <timebase>60</timebase>
              <ntsc>FALSE</ntsc>
            </rate>
            <start>727</start>
            <end>875</end>
            <in>21756</in>
            <out>21904</out>
            <file id="file-1"/>
            <sourcetrack>
              <mediatype>audio</mediatype>
              <trackindex>3</trackindex>
            </sourcetrack>
            <link>
              <linkclipref>clipitem-57</linkclipref>
              <mediatype>video</mediatype>
              <trackindex>1</trackindex>
              <clipindex>1</clipindex>
            </link>
            <link>
              <linkclipref>clipitem-58</linkclipref>
              <mediatype>audio</mediatype>
              <trackindex>1</trackindex>
              <clipindex>1</clipindex>
              <groupindex>1</groupindex>
            </link>
            <link>
              <linkclipref>clipitem-59</linkclipref>
              <mediatype>audio</mediatype>
              <trackindex>2</trackindex>
              <clipindex>1</clipindex>
              <groupindex>1</groupindex>
            </link>
            <link>
              <linkclipref>clipitem-60</linkclipref>
              <mediatype>audio</mediatype>
              <trackindex>3</trackindex>
              <clipindex>1</clipindex>
              <groupindex>1</groupindex>
            </link>
            <link>
              <linkclipref>clipitem-61</linkclipref>
              <mediatype>audio</mediatype>
              <trackindex>4</trackindex>
              <clipindex>1</clipindex>
              <groupindex>1</groupindex>
            </link>
            <link>
              <linkclipref>clipitem-62</linkclipref>
              <mediatype>audio</mediatype>
              <trackindex>5</trackindex>
              <clipindex>1</clipindex>
              <groupindex>1</groupindex>
            </link>
            <link>
              <linkclipref>clipitem-63</linkclipref>
              <mediatype>audio</mediatype>
              <trackindex>6</trackindex>
              <clipindex>1</clipindex>
              <groupindex>1</groupindex>
            </link>
          </clipitem>
          <clipitem id="clipitem-70" premiereChannelType="Stereo">
            <masterclipid>masterclip-1</masterclipid>
            <name>2023-04-01 14-56-52溪神带上钻局CC.mp4</name>
            <enabled>TRUE</enabled>
            <rate>
              <timebase>60</timebase>
              <ntsc>FALSE</ntsc>
            </rate>
            <start>875</start>
            <end>1011</end>
            <in>22231</in>
            <out>22367</out>
            <file id="file-1"/>
            <sourcetrack>
              <mediatype>audio</mediatype>
              <trackindex>3</trackindex>
            </sourcetrack>
            <link>
              <linkclipref>clipitem-64</linkclipref>
              <mediatype>video</mediatype>
              <trackindex>1</trackindex>
              <clipindex>1</clipindex>
            </link>
            <link>
              <linkclipref>clipitem-65</linkclipref>
              <mediatype>audio</mediatype>
              <trackindex>1</trackindex>
              <clipindex>1</clipindex>
              <groupindex>1</groupindex>
            </link>
            <link>
              <linkclipref>clipitem-66</linkclipref>
              <mediatype>audio</mediatype>
              <trackindex>2</trackindex>
              <clipindex>1</clipindex>
              <groupindex>1</groupindex>
            </link>
            <link>
              <linkclipref>clipitem-67</linkclipref>
              <mediatype>audio</mediatype>
              <trackindex>3</trackindex>
              <clipindex>1</clipindex>
              <groupindex>1</groupindex>
            </link>
            <link>
              <linkclipref>clipitem-68</linkclipref>
              <mediatype>audio</mediatype>
              <trackindex>4</trackindex>
              <clipindex>1</clipindex>
              <groupindex>1</groupindex>
            </link>
            <link>
              <linkclipref>clipitem-69</linkclipref>
              <mediatype>audio</mediatype>
              <trackindex>5</trackindex>
              <clipindex>1</clipindex>
              <groupindex>1</groupindex>
            </link>
            <link>
              <linkclipref>clipitem-70</linkclipref>
              <mediatype>audio</mediatype>
              <trackindex>6</trackindex>
              <clipindex>1</clipindex>
              <groupindex>1</groupindex>
            </link>
          </clipitem>
          <clipitem id="clipitem-77" premiereChannelType="Stereo">
            <masterclipid>masterclip-1</masterclipid>
            <name>2023-04-01 14-56-52溪神带上钻局CC.mp4</name>
            <enabled>TRUE</enabled>
            <rate>
              <timebase>60</timebase>
              <ntsc>FALSE</ntsc>
            </rate>
            <start>1011</start>
            <end>1086</end>
            <in>22676</in>
            <out>22751</out>
            <file id="file-1"/>
            <sourcetrack>
              <mediatype>audio</mediatype>
              <trackindex>3</trackindex>
            </sourcetrack>
            <link>
              <linkclipref>clipitem-71</linkclipref>
              <mediatype>video</mediatype>
              <trackindex>1</trackindex>
              <clipindex>1</clipindex>
            </link>
            <link>
              <linkclipref>clipitem-72</linkclipref>
              <mediatype>audio</mediatype>
              <trackindex>1</trackindex>
              <clipindex>1</clipindex>
              <groupindex>1</groupindex>
            </link>
            <link>
              <linkclipref>clipitem-73</linkclipref>
              <mediatype>audio</mediatype>
              <trackindex>2</trackindex>
              <clipindex>1</clipindex>
              <groupindex>1</groupindex>
            </link>
            <link>
              <linkclipref>clipitem-74</linkclipref>
              <mediatype>audio</mediatype>
              <trackindex>3</trackindex>
              <clipindex>1</clipindex>
              <groupindex>1</groupindex>
            </link>
            <link>
              <linkclipref>clipitem-75</linkclipref>
              <mediatype>audio</mediatype>
              <trackindex>4</trackindex>
              <clipindex>1</clipindex>
              <groupindex>1</groupindex>
            </link>
            <link>
              <linkclipref>clipitem-76</linkclipref>
              <mediatype>audio</mediatype>
              <trackindex>5</trackindex>
              <clipindex>1</clipindex>
              <groupindex>1</groupindex>
            </link>
            <link>
              <linkclipref>clipitem-77</linkclipref>
              <mediatype>audio</mediatype>
              <trackindex>6</trackindex>
              <clipindex>1</clipindex>
              <groupindex>1</groupindex>
            </link>
          </clipitem>
          <clipitem id="clipitem-84" premiereChannelType="Stereo">
            <masterclipid>masterclip-1</masterclipid>
            <name>2023-04-01 14-56-52溪神带上钻局CC.mp4</name>
            <enabled>TRUE</enabled>
            <rate>
              <timebase>60</timebase>
              <ntsc>FALSE</ntsc>
            </rate>
            <start>1086</start>
            <end>1222</end>
            <in>23095</in>
            <out>23231</out>
            <file id="file-1"/>
            <sourcetrack>
              <mediatype>audio</mediatype>
              <trackindex>3</trackindex>
            </sourcetrack>
            <link>
              <linkclipref>clipitem-78</linkclipref>
              <mediatype>video</mediatype>
              <trackindex>1</trackindex>
              <clipindex>1</clipindex>
            </link>
            <link>
              <linkclipref>clipitem-79</linkclipref>
              <mediatype>audio</mediatype>
              <trackindex>1</trackindex>
              <clipindex>1</clipindex>
              <groupindex>1</groupindex>
            </link>
            <link>
              <linkclipref>clipitem-80</linkclipref>
              <mediatype>audio</mediatype>
              <trackindex>2</trackindex>
              <clipindex>1</clipindex>
              <groupindex>1</groupindex>
            </link>
            <link>
              <linkclipref>clipitem-81</linkclipref>
              <mediatype>audio</mediatype>
              <trackindex>3</trackindex>
              <clipindex>1</clipindex>
              <groupindex>1</groupindex>
            </link>
            <link>
              <linkclipref>clipitem-82</linkclipref>
              <mediatype>audio</mediatype>
              <trackindex>4</trackindex>
              <clipindex>1</clipindex>
              <groupindex>1</groupindex>
            </link>
            <link>
              <linkclipref>clipitem-83</linkclipref>
              <mediatype>audio</mediatype>
              <trackindex>5</trackindex>
              <clipindex>1</clipindex>
              <groupindex>1</groupindex>
            </link>
            <link>
              <linkclipref>clipitem-84</linkclipref>
              <mediatype>audio</mediatype>
              <trackindex>6</trackindex>
              <clipindex>1</clipindex>
              <groupindex>1</groupindex>
            </link>
          </clipitem>
          <clipitem id="clipitem-91" premiereChannelType="Stereo">
            <masterclipid>masterclip-1</masterclipid>
            <name>2023-04-01 14-56-52溪神带上钻局CC.mp4</name>
            <enabled>TRUE</enabled>
            <rate>
              <timebase>60</timebase>
              <ntsc>FALSE</ntsc>
            </rate>
            <start>1222</start>
            <end>1377</end>
            <in>23363</in>
            <out>23518</out>
            <file id="file-1"/>
            <sourcetrack>
              <mediatype>audio</mediatype>
              <trackindex>3</trackindex>
            </sourcetrack>
            <link>
              <linkclipref>clipitem-85</linkclipref>
              <mediatype>video</mediatype>
              <trackindex>1</trackindex>
              <clipindex>1</clipindex>
            </link>
            <link>
              <linkclipref>clipitem-86</linkclipref>
              <mediatype>audio</mediatype>
              <trackindex>1</trackindex>
              <clipindex>1</clipindex>
              <groupindex>1</groupindex>
            </link>
            <link>
              <linkclipref>clipitem-87</linkclipref>
              <mediatype>audio</mediatype>
              <trackindex>2</trackindex>
              <clipindex>1</clipindex>
              <groupindex>1</groupindex>
            </link>
            <link>
              <linkclipref>clipitem-88</linkclipref>
              <mediatype>audio</mediatype>
              <trackindex>3</trackindex>
              <clipindex>1</clipindex>
              <groupindex>1</groupindex>
            </link>
            <link>
              <linkclipref>clipitem-89</linkclipref>
              <mediatype>audio</mediatype>
              <trackindex>4</trackindex>
              <clipindex>1</clipindex>
              <groupindex>1</groupindex>
            </link>
            <link>
              <linkclipref>clipitem-90</linkclipref>
              <mediatype>audio</mediatype>
              <trackindex>5</trackindex>
              <clipindex>1</clipindex>
              <groupindex>1</groupindex>
            </link>
            <link>
              <linkclipref>clipitem-91</linkclipref>
              <mediatype>audio</mediatype>
              <trackindex>6</trackindex>
              <clipindex>1</clipindex>
              <groupindex>1</groupindex>
            </link>
          </clipitem>
          <clipitem id="clipitem-98" premiereChannelType="Stereo">
            <masterclipid>masterclip-1</masterclipid>
            <name>2023-04-01 14-56-52溪神带上钻局CC.mp4</name>
            <enabled>TRUE</enabled>
            <rate>
              <timebase>60</timebase>
              <ntsc>FALSE</ntsc>
            </rate>
            <start>1377</start>
            <end>1585</end>
            <in>23972</in>
            <out>24180</out>
            <file id="file-1"/>
            <sourcetrack>
              <mediatype>audio</mediatype>
              <trackindex>3</trackindex>
            </sourcetrack>
            <link>
              <linkclipref>clipitem-92</linkclipref>
              <mediatype>video</mediatype>
              <trackindex>1</trackindex>
              <clipindex>1</clipindex>
            </link>
            <link>
              <linkclipref>clipitem-93</linkclipref>
              <mediatype>audio</mediatype>
              <trackindex>1</trackindex>
              <clipindex>1</clipindex>
              <groupindex>1</groupindex>
            </link>
            <link>
              <linkclipref>clipitem-94</linkclipref>
              <mediatype>audio</mediatype>
              <trackindex>2</trackindex>
              <clipindex>1</clipindex>
              <groupindex>1</groupindex>
            </link>
            <link>
              <linkclipref>clipitem-95</linkclipref>
              <mediatype>audio</mediatype>
              <trackindex>3</trackindex>
              <clipindex>1</clipindex>
              <groupindex>1</groupindex>
            </link>
            <link>
              <linkclipref>clipitem-96</linkclipref>
              <mediatype>audio</mediatype>
              <trackindex>4</trackindex>
              <clipindex>1</clipindex>
              <groupindex>1</groupindex>
            </link>
            <link>
              <linkclipref>clipitem-97</linkclipref>
              <mediatype>audio</mediatype>
              <trackindex>5</trackindex>
              <clipindex>1</clipindex>
              <groupindex>1</groupindex>
            </link>
            <link>
              <linkclipref>clipitem-98</linkclipref>
              <mediatype>audio</mediatype>
              <trackindex>6</trackindex>
              <clipindex>1</clipindex>
              <groupindex>1</groupindex>
            </link>
          </clipitem>
          <clipitem id="clipitem-105" premiereChannelType="Stereo">
            <masterclipid>masterclip-1</masterclipid>
            <name>2023-04-01 14-56-52溪神带上钻局CC.mp4</name>
            <enabled>TRUE</enabled>
            <rate>
              <timebase>60</timebase>
              <ntsc>FALSE</ntsc>
            </rate>
            <start>1585</start>
            <end>1746</end>
            <in>27845</in>
            <out>28006</out>
            <file id="file-1"/>
            <sourcetrack>
              <mediatype>audio</mediatype>
              <trackindex>3</trackindex>
            </sourcetrack>
            <link>
              <linkclipref>clipitem-99</linkclipref>
              <mediatype>video</mediatype>
              <trackindex>1</trackindex>
              <clipindex>1</clipindex>
            </link>
            <link>
              <linkclipref>clipitem-100</linkclipref>
              <mediatype>audio</mediatype>
              <trackindex>1</trackindex>
              <clipindex>1</clipindex>
              <groupindex>1</groupindex>
            </link>
            <link>
              <linkclipref>clipitem-101</linkclipref>
              <mediatype>audio</mediatype>
              <trackindex>2</trackindex>
              <clipindex>1</clipindex>
              <groupindex>1</groupindex>
            </link>
            <link>
              <linkclipref>clipitem-102</linkclipref>
              <mediatype>audio</mediatype>
              <trackindex>3</trackindex>
              <clipindex>1</clipindex>
              <groupindex>1</groupindex>
            </link>
            <link>
              <linkclipref>clipitem-103</linkclipref>
              <mediatype>audio</mediatype>
              <trackindex>4</trackindex>
              <clipindex>1</clipindex>
              <groupindex>1</groupindex>
            </link>
            <link>
              <linkclipref>clipitem-104</linkclipref>
              <mediatype>audio</mediatype>
              <trackindex>5</trackindex>
              <clipindex>1</clipindex>
              <groupindex>1</groupindex>
            </link>
            <link>
              <linkclipref>clipitem-105</linkclipref>
              <mediatype>audio</mediatype>
              <trackindex>6</trackindex>
              <clipindex>1</clipindex>
              <groupindex>1</groupindex>
            </link>
          </clipitem>
          <clipitem id="clipitem-112" premiereChannelType="Stereo">
            <masterclipid>masterclip-1</masterclipid>
            <name>2023-04-01 14-56-52溪神带上钻局CC.mp4</name>
            <enabled>TRUE</enabled>
            <rate>
              <timebase>60</timebase>
              <ntsc>FALSE</ntsc>
            </rate>
            <start>1746</start>
            <end>1825</end>
            <in>28363</in>
            <out>28442</out>
            <file id="file-1"/>
            <sourcetrack>
              <mediatype>audio</mediatype>
              <trackindex>3</trackindex>
            </sourcetrack>
            <link>
              <linkclipref>clipitem-106</linkclipref>
              <mediatype>video</mediatype>
              <trackindex>1</trackindex>
              <clipindex>1</clipindex>
            </link>
            <link>
              <linkclipref>clipitem-107</linkclipref>
              <mediatype>audio</mediatype>
              <trackindex>1</trackindex>
              <clipindex>1</clipindex>
              <groupindex>1</groupindex>
            </link>
            <link>
              <linkclipref>clipitem-108</linkclipref>
              <mediatype>audio</mediatype>
              <trackindex>2</trackindex>
              <clipindex>1</clipindex>
              <groupindex>1</groupindex>
            </link>
            <link>
              <linkclipref>clipitem-109</linkclipref>
              <mediatype>audio</mediatype>
              <trackindex>3</trackindex>
              <clipindex>1</clipindex>
              <groupindex>1</groupindex>
            </link>
            <link>
              <linkclipref>clipitem-110</linkclipref>
              <mediatype>audio</mediatype>
              <trackindex>4</trackindex>
              <clipindex>1</clipindex>
              <groupindex>1</groupindex>
            </link>
            <link>
              <linkclipref>clipitem-111</linkclipref>
              <mediatype>audio</mediatype>
              <trackindex>5</trackindex>
              <clipindex>1</clipindex>
              <groupindex>1</groupindex>
            </link>
            <link>
              <linkclipref>clipitem-112</linkclipref>
              <mediatype>audio</mediatype>
              <trackindex>6</trackindex>
              <clipindex>1</clipindex>
              <groupindex>1</groupindex>
            </link>
          </clipitem>
          <clipitem id="clipitem-119" premiereChannelType="Stereo">
            <masterclipid>masterclip-1</masterclipid>
            <name>2023-04-01 14-56-52溪神带上钻局CC.mp4</name>
            <enabled>TRUE</enabled>
            <rate>
              <timebase>60</timebase>
              <ntsc>FALSE</ntsc>
            </rate>
            <start>1825</start>
            <end>2005</end>
            <in>29080</in>
            <out>29260</out>
            <file id="file-1"/>
            <sourcetrack>
              <mediatype>audio</mediatype>
              <trackindex>3</trackindex>
            </sourcetrack>
            <link>
              <linkclipref>clipitem-113</linkclipref>
              <mediatype>video</mediatype>
              <trackindex>1</trackindex>
              <clipindex>1</clipindex>
            </link>
            <link>
              <linkclipref>clipitem-114</linkclipref>
              <mediatype>audio</mediatype>
              <trackindex>1</trackindex>
              <clipindex>1</clipindex>
              <groupindex>1</groupindex>
            </link>
            <link>
              <linkclipref>clipitem-115</linkclipref>
              <mediatype>audio</mediatype>
              <trackindex>2</trackindex>
              <clipindex>1</clipindex>
              <groupindex>1</groupindex>
            </link>
            <link>
              <linkclipref>clipitem-116</linkclipref>
              <mediatype>audio</mediatype>
              <trackindex>3</trackindex>
              <clipindex>1</clipindex>
              <groupindex>1</groupindex>
            </link>
            <link>
              <linkclipref>clipitem-117</linkclipref>
              <mediatype>audio</mediatype>
              <trackindex>4</trackindex>
              <clipindex>1</clipindex>
              <groupindex>1</groupindex>
            </link>
            <link>
              <linkclipref>clipitem-118</linkclipref>
              <mediatype>audio</mediatype>
              <trackindex>5</trackindex>
              <clipindex>1</clipindex>
              <groupindex>1</groupindex>
            </link>
            <link>
              <linkclipref>clipitem-119</linkclipref>
              <mediatype>audio</mediatype>
              <trackindex>6</trackindex>
              <clipindex>1</clipindex>
              <groupindex>1</groupindex>
            </link>
          </clipitem>
          <clipitem id="clipitem-126" premiereChannelType="Stereo">
            <masterclipid>masterclip-1</masterclipid>
            <name>2023-04-01 14-56-52溪神带上钻局CC.mp4</name>
            <enabled>TRUE</enabled>
            <rate>
              <timebase>60</timebase>
              <ntsc>FALSE</ntsc>
            </rate>
            <start>2005</start>
            <end>2023</end>
            <in>29971</in>
            <out>29989</out>
            <file id="file-1"/>
            <sourcetrack>
              <mediatype>audio</mediatype>
              <trackindex>3</trackindex>
            </sourcetrack>
            <link>
              <linkclipref>clipitem-120</linkclipref>
              <mediatype>video</mediatype>
              <trackindex>1</trackindex>
              <clipindex>1</clipindex>
            </link>
            <link>
              <linkclipref>clipitem-121</linkclipref>
              <mediatype>audio</mediatype>
              <trackindex>1</trackindex>
              <clipindex>1</clipindex>
              <groupindex>1</groupindex>
            </link>
            <link>
              <linkclipref>clipitem-122</linkclipref>
              <mediatype>audio</mediatype>
              <trackindex>2</trackindex>
              <clipindex>1</clipindex>
              <groupindex>1</groupindex>
            </link>
            <link>
              <linkclipref>clipitem-123</linkclipref>
              <mediatype>audio</mediatype>
              <trackindex>3</trackindex>
              <clipindex>1</clipindex>
              <groupindex>1</groupindex>
            </link>
            <link>
              <linkclipref>clipitem-124</linkclipref>
              <mediatype>audio</mediatype>
              <trackindex>4</trackindex>
              <clipindex>1</clipindex>
              <groupindex>1</groupindex>
            </link>
            <link>
              <linkclipref>clipitem-125</linkclipref>
              <mediatype>audio</mediatype>
              <trackindex>5</trackindex>
              <clipindex>1</clipindex>
              <groupindex>1</groupindex>
            </link>
            <link>
              <linkclipref>clipitem-126</linkclipref>
              <mediatype>audio</mediatype>
              <trackindex>6</trackindex>
              <clipindex>1</clipindex>
              <groupindex>1</groupindex>
            </link>
          </clipitem>
          <clipitem id="clipitem-133" premiereChannelType="Stereo">
            <masterclipid>masterclip-1</masterclipid>
            <name>2023-04-01 14-56-52溪神带上钻局CC.mp4</name>
            <enabled>TRUE</enabled>
            <rate>
              <timebase>60</timebase>
              <ntsc>FALSE</ntsc>
            </rate>
            <start>2023</start>
            <end>2100</end>
            <in>30064</in>
            <out>30141</out>
            <file id="file-1"/>
            <sourcetrack>
              <mediatype>audio</mediatype>
              <trackindex>3</trackindex>
            </sourcetrack>
            <link>
              <linkclipref>clipitem-127</linkclipref>
              <mediatype>video</mediatype>
              <trackindex>1</trackindex>
              <clipindex>1</clipindex>
            </link>
            <link>
              <linkclipref>clipitem-128</linkclipref>
              <mediatype>audio</mediatype>
              <trackindex>1</trackindex>
              <clipindex>1</clipindex>
              <groupindex>1</groupindex>
            </link>
            <link>
              <linkclipref>clipitem-129</linkclipref>
              <mediatype>audio</mediatype>
              <trackindex>2</trackindex>
              <clipindex>1</clipindex>
              <groupindex>1</groupindex>
            </link>
            <link>
              <linkclipref>clipitem-130</linkclipref>
              <mediatype>audio</mediatype>
              <trackindex>3</trackindex>
              <clipindex>1</clipindex>
              <groupindex>1</groupindex>
            </link>
            <link>
              <linkclipref>clipitem-131</linkclipref>
              <mediatype>audio</mediatype>
              <trackindex>4</trackindex>
              <clipindex>1</clipindex>
              <groupindex>1</groupindex>
            </link>
            <link>
              <linkclipref>clipitem-132</linkclipref>
              <mediatype>audio</mediatype>
              <trackindex>5</trackindex>
              <clipindex>1</clipindex>
              <groupindex>1</groupindex>
            </link>
            <link>
              <linkclipref>clipitem-133</linkclipref>
              <mediatype>audio</mediatype>
              <trackindex>6</trackindex>
              <clipindex>1</clipindex>
              <groupindex>1</groupindex>
            </link>
          </clipitem>
          <clipitem id="clipitem-140" premiereChannelType="Stereo">
            <masterclipid>masterclip-1</masterclipid>
            <name>2023-04-01 14-56-52溪神带上钻局CC.mp4</name>
            <enabled>TRUE</enabled>
            <rate>
              <timebase>60</timebase>
              <ntsc>FALSE</ntsc>
            </rate>
            <start>2100</start>
            <end>2267</end>
            <in>30347</in>
            <out>30514</out>
            <file id="file-1"/>
            <sourcetrack>
              <mediatype>audio</mediatype>
              <trackindex>3</trackindex>
            </sourcetrack>
            <link>
              <linkclipref>clipitem-134</linkclipref>
              <mediatype>video</mediatype>
              <trackindex>1</trackindex>
              <clipindex>1</clipindex>
            </link>
            <link>
              <linkclipref>clipitem-135</linkclipref>
              <mediatype>audio</mediatype>
              <trackindex>1</trackindex>
              <clipindex>1</clipindex>
              <groupindex>1</groupindex>
            </link>
            <link>
              <linkclipref>clipitem-136</linkclipref>
              <mediatype>audio</mediatype>
              <trackindex>2</trackindex>
              <clipindex>1</clipindex>
              <groupindex>1</groupindex>
            </link>
            <link>
              <linkclipref>clipitem-137</linkclipref>
              <mediatype>audio</mediatype>
              <trackindex>3</trackindex>
              <clipindex>1</clipindex>
              <groupindex>1</groupindex>
            </link>
            <link>
              <linkclipref>clipitem-138</linkclipref>
              <mediatype>audio</mediatype>
              <trackindex>4</trackindex>
              <clipindex>1</clipindex>
              <groupindex>1</groupindex>
            </link>
            <link>
              <linkclipref>clipitem-139</linkclipref>
              <mediatype>audio</mediatype>
              <trackindex>5</trackindex>
              <clipindex>1</clipindex>
              <groupindex>1</groupindex>
            </link>
            <link>
              <linkclipref>clipitem-140</linkclipref>
              <mediatype>audio</mediatype>
              <trackindex>6</trackindex>
              <clipindex>1</clipindex>
              <groupindex>1</groupindex>
            </link>
          </clipitem>
          <clipitem id="clipitem-147" premiereChannelType="Stereo">
            <masterclipid>masterclip-1</masterclipid>
            <name>2023-04-01 14-56-52溪神带上钻局CC.mp4</name>
            <enabled>TRUE</enabled>
            <rate>
              <timebase>60</timebase>
              <ntsc>FALSE</ntsc>
            </rate>
            <start>2267</start>
            <end>2391</end>
            <in>41935</in>
            <out>42059</out>
            <file id="file-1"/>
            <sourcetrack>
              <mediatype>audio</mediatype>
              <trackindex>3</trackindex>
            </sourcetrack>
            <link>
              <linkclipref>clipitem-141</linkclipref>
              <mediatype>video</mediatype>
              <trackindex>1</trackindex>
              <clipindex>1</clipindex>
            </link>
            <link>
              <linkclipref>clipitem-142</linkclipref>
              <mediatype>audio</mediatype>
              <trackindex>1</trackindex>
              <clipindex>1</clipindex>
              <groupindex>1</groupindex>
            </link>
            <link>
              <linkclipref>clipitem-143</linkclipref>
              <mediatype>audio</mediatype>
              <trackindex>2</trackindex>
              <clipindex>1</clipindex>
              <groupindex>1</groupindex>
            </link>
            <link>
              <linkclipref>clipitem-144</linkclipref>
              <mediatype>audio</mediatype>
              <trackindex>3</trackindex>
              <clipindex>1</clipindex>
              <groupindex>1</groupindex>
            </link>
            <link>
              <linkclipref>clipitem-145</linkclipref>
              <mediatype>audio</mediatype>
              <trackindex>4</trackindex>
              <clipindex>1</clipindex>
              <groupindex>1</groupindex>
            </link>
            <link>
              <linkclipref>clipitem-146</linkclipref>
              <mediatype>audio</mediatype>
              <trackindex>5</trackindex>
              <clipindex>1</clipindex>
              <groupindex>1</groupindex>
            </link>
            <link>
              <linkclipref>clipitem-147</linkclipref>
              <mediatype>audio</mediatype>
              <trackindex>6</trackindex>
              <clipindex>1</clipindex>
              <groupindex>1</groupindex>
            </link>
          </clipitem>
          <clipitem id="clipitem-154" premiereChannelType="Stereo">
            <masterclipid>masterclip-1</masterclipid>
            <name>2023-04-01 14-56-52溪神带上钻局CC.mp4</name>
            <enabled>TRUE</enabled>
            <rate>
              <timebase>60</timebase>
              <ntsc>FALSE</ntsc>
            </rate>
            <start>2391</start>
            <end>2618</end>
            <in>46337</in>
            <out>46564</out>
            <file id="file-1"/>
            <sourcetrack>
              <mediatype>audio</mediatype>
              <trackindex>3</trackindex>
            </sourcetrack>
            <link>
              <linkclipref>clipitem-148</linkclipref>
              <mediatype>video</mediatype>
              <trackindex>1</trackindex>
              <clipindex>1</clipindex>
            </link>
            <link>
              <linkclipref>clipitem-149</linkclipref>
              <mediatype>audio</mediatype>
              <trackindex>1</trackindex>
              <clipindex>1</clipindex>
              <groupindex>1</groupindex>
            </link>
            <link>
              <linkclipref>clipitem-150</linkclipref>
              <mediatype>audio</mediatype>
              <trackindex>2</trackindex>
              <clipindex>1</clipindex>
              <groupindex>1</groupindex>
            </link>
            <link>
              <linkclipref>clipitem-151</linkclipref>
              <mediatype>audio</mediatype>
              <trackindex>3</trackindex>
              <clipindex>1</clipindex>
              <groupindex>1</groupindex>
            </link>
            <link>
              <linkclipref>clipitem-152</linkclipref>
              <mediatype>audio</mediatype>
              <trackindex>4</trackindex>
              <clipindex>1</clipindex>
              <groupindex>1</groupindex>
            </link>
            <link>
              <linkclipref>clipitem-153</linkclipref>
              <mediatype>audio</mediatype>
              <trackindex>5</trackindex>
              <clipindex>1</clipindex>
              <groupindex>1</groupindex>
            </link>
            <link>
              <linkclipref>clipitem-154</linkclipref>
              <mediatype>audio</mediatype>
              <trackindex>6</trackindex>
              <clipindex>1</clipindex>
              <groupindex>1</groupindex>
            </link>
          </clipitem>
          <clipitem id="clipitem-161" premiereChannelType="Stereo">
            <masterclipid>masterclip-1</masterclipid>
            <name>2023-04-01 14-56-52溪神带上钻局CC.mp4</name>
            <enabled>TRUE</enabled>
            <rate>
              <timebase>60</timebase>
              <ntsc>FALSE</ntsc>
            </rate>
            <start>2618</start>
            <end>2894</end>
            <in>47608</in>
            <out>47884</out>
            <file id="file-1"/>
            <sourcetrack>
              <mediatype>audio</mediatype>
              <trackindex>3</trackindex>
            </sourcetrack>
            <link>
              <linkclipref>clipitem-155</linkclipref>
              <mediatype>video</mediatype>
              <trackindex>1</trackindex>
              <clipindex>1</clipindex>
            </link>
            <link>
              <linkclipref>clipitem-156</linkclipref>
              <mediatype>audio</mediatype>
              <trackindex>1</trackindex>
              <clipindex>1</clipindex>
              <groupindex>1</groupindex>
            </link>
            <link>
              <linkclipref>clipitem-157</linkclipref>
              <mediatype>audio</mediatype>
              <trackindex>2</trackindex>
              <clipindex>1</clipindex>
              <groupindex>1</groupindex>
            </link>
            <link>
              <linkclipref>clipitem-158</linkclipref>
              <mediatype>audio</mediatype>
              <trackindex>3</trackindex>
              <clipindex>1</clipindex>
              <groupindex>1</groupindex>
            </link>
            <link>
              <linkclipref>clipitem-159</linkclipref>
              <mediatype>audio</mediatype>
              <trackindex>4</trackindex>
              <clipindex>1</clipindex>
              <groupindex>1</groupindex>
            </link>
            <link>
              <linkclipref>clipitem-160</linkclipref>
              <mediatype>audio</mediatype>
              <trackindex>5</trackindex>
              <clipindex>1</clipindex>
              <groupindex>1</groupindex>
            </link>
            <link>
              <linkclipref>clipitem-161</linkclipref>
              <mediatype>audio</mediatype>
              <trackindex>6</trackindex>
              <clipindex>1</clipindex>
              <groupindex>1</groupindex>
            </link>
          </clipitem>
          <clipitem id="clipitem-168" premiereChannelType="Stereo">
            <masterclipid>masterclip-1</masterclipid>
            <name>2023-04-01 14-56-52溪神带上钻局CC.mp4</name>
            <enabled>TRUE</enabled>
            <rate>
              <timebase>60</timebase>
              <ntsc>FALSE</ntsc>
            </rate>
            <start>2894</start>
            <end>3196</end>
            <in>47995</in>
            <out>48297</out>
            <file id="file-1"/>
            <sourcetrack>
              <mediatype>audio</mediatype>
              <trackindex>3</trackindex>
            </sourcetrack>
            <link>
              <linkclipref>clipitem-162</linkclipref>
              <mediatype>video</mediatype>
              <trackindex>1</trackindex>
              <clipindex>1</clipindex>
            </link>
            <link>
              <linkclipref>clipitem-163</linkclipref>
              <mediatype>audio</mediatype>
              <trackindex>1</trackindex>
              <clipindex>1</clipindex>
              <groupindex>1</groupindex>
            </link>
            <link>
              <linkclipref>clipitem-164</linkclipref>
              <mediatype>audio</mediatype>
              <trackindex>2</trackindex>
              <clipindex>1</clipindex>
              <groupindex>1</groupindex>
            </link>
            <link>
              <linkclipref>clipitem-165</linkclipref>
              <mediatype>audio</mediatype>
              <trackindex>3</trackindex>
              <clipindex>1</clipindex>
              <groupindex>1</groupindex>
            </link>
            <link>
              <linkclipref>clipitem-166</linkclipref>
              <mediatype>audio</mediatype>
              <trackindex>4</trackindex>
              <clipindex>1</clipindex>
              <groupindex>1</groupindex>
            </link>
            <link>
              <linkclipref>clipitem-167</linkclipref>
              <mediatype>audio</mediatype>
              <trackindex>5</trackindex>
              <clipindex>1</clipindex>
              <groupindex>1</groupindex>
            </link>
            <link>
              <linkclipref>clipitem-168</linkclipref>
              <mediatype>audio</mediatype>
              <trackindex>6</trackindex>
              <clipindex>1</clipindex>
              <groupindex>1</groupindex>
            </link>
          </clipitem>
          <clipitem id="clipitem-175" premiereChannelType="Stereo">
            <masterclipid>masterclip-1</masterclipid>
            <name>2023-04-01 14-56-52溪神带上钻局CC.mp4</name>
            <enabled>TRUE</enabled>
            <rate>
              <timebase>60</timebase>
              <ntsc>FALSE</ntsc>
            </rate>
            <start>3196</start>
            <end>3357</end>
            <in>49039</in>
            <out>49200</out>
            <file id="file-1"/>
            <sourcetrack>
              <mediatype>audio</mediatype>
              <trackindex>3</trackindex>
            </sourcetrack>
            <link>
              <linkclipref>clipitem-169</linkclipref>
              <mediatype>video</mediatype>
              <trackindex>1</trackindex>
              <clipindex>1</clipindex>
            </link>
            <link>
              <linkclipref>clipitem-170</linkclipref>
              <mediatype>audio</mediatype>
              <trackindex>1</trackindex>
              <clipindex>1</clipindex>
              <groupindex>1</groupindex>
            </link>
            <link>
              <linkclipref>clipitem-171</linkclipref>
              <mediatype>audio</mediatype>
              <trackindex>2</trackindex>
              <clipindex>1</clipindex>
              <groupindex>1</groupindex>
            </link>
            <link>
              <linkclipref>clipitem-172</linkclipref>
              <mediatype>audio</mediatype>
              <trackindex>3</trackindex>
              <clipindex>1</clipindex>
              <groupindex>1</groupindex>
            </link>
            <link>
              <linkclipref>clipitem-173</linkclipref>
              <mediatype>audio</mediatype>
              <trackindex>4</trackindex>
              <clipindex>1</clipindex>
              <groupindex>1</groupindex>
            </link>
            <link>
              <linkclipref>clipitem-174</linkclipref>
              <mediatype>audio</mediatype>
              <trackindex>5</trackindex>
              <clipindex>1</clipindex>
              <groupindex>1</groupindex>
            </link>
            <link>
              <linkclipref>clipitem-175</linkclipref>
              <mediatype>audio</mediatype>
              <trackindex>6</trackindex>
              <clipindex>1</clipindex>
              <groupindex>1</groupindex>
            </link>
          </clipitem>
          <clipitem id="clipitem-182" premiereChannelType="Stereo">
            <masterclipid>masterclip-1</masterclipid>
            <name>2023-04-01 14-56-52溪神带上钻局CC.mp4</name>
            <enabled>TRUE</enabled>
            <rate>
              <timebase>60</timebase>
              <ntsc>FALSE</ntsc>
            </rate>
            <start>3357</start>
            <end>3460</end>
            <in>50487</in>
            <out>50590</out>
            <file id="file-1"/>
            <sourcetrack>
              <mediatype>audio</mediatype>
              <trackindex>3</trackindex>
            </sourcetrack>
            <link>
              <linkclipref>clipitem-176</linkclipref>
              <mediatype>video</mediatype>
              <trackindex>1</trackindex>
              <clipindex>1</clipindex>
            </link>
            <link>
              <linkclipref>clipitem-177</linkclipref>
              <mediatype>audio</mediatype>
              <trackindex>1</trackindex>
              <clipindex>1</clipindex>
              <groupindex>1</groupindex>
            </link>
            <link>
              <linkclipref>clipitem-178</linkclipref>
              <mediatype>audio</mediatype>
              <trackindex>2</trackindex>
              <clipindex>1</clipindex>
              <groupindex>1</groupindex>
            </link>
            <link>
              <linkclipref>clipitem-179</linkclipref>
              <mediatype>audio</mediatype>
              <trackindex>3</trackindex>
              <clipindex>1</clipindex>
              <groupindex>1</groupindex>
            </link>
            <link>
              <linkclipref>clipitem-180</linkclipref>
              <mediatype>audio</mediatype>
              <trackindex>4</trackindex>
              <clipindex>1</clipindex>
              <groupindex>1</groupindex>
            </link>
            <link>
              <linkclipref>clipitem-181</linkclipref>
              <mediatype>audio</mediatype>
              <trackindex>5</trackindex>
              <clipindex>1</clipindex>
              <groupindex>1</groupindex>
            </link>
            <link>
              <linkclipref>clipitem-182</linkclipref>
              <mediatype>audio</mediatype>
              <trackindex>6</trackindex>
              <clipindex>1</clipindex>
              <groupindex>1</groupindex>
            </link>
          </clipitem>
          <clipitem id="clipitem-189" premiereChannelType="Stereo">
            <masterclipid>masterclip-1</masterclipid>
            <name>2023-04-01 14-56-52溪神带上钻局CC.mp4</name>
            <enabled>TRUE</enabled>
            <rate>
              <timebase>60</timebase>
              <ntsc>FALSE</ntsc>
            </rate>
            <start>3460</start>
            <end>3587</end>
            <in>50744</in>
            <out>50871</out>
            <file id="file-1"/>
            <sourcetrack>
              <mediatype>audio</mediatype>
              <trackindex>3</trackindex>
            </sourcetrack>
            <link>
              <linkclipref>clipitem-183</linkclipref>
              <mediatype>video</mediatype>
              <trackindex>1</trackindex>
              <clipindex>1</clipindex>
            </link>
            <link>
              <linkclipref>clipitem-184</linkclipref>
              <mediatype>audio</mediatype>
              <trackindex>1</trackindex>
              <clipindex>1</clipindex>
              <groupindex>1</groupindex>
            </link>
            <link>
              <linkclipref>clipitem-185</linkclipref>
              <mediatype>audio</mediatype>
              <trackindex>2</trackindex>
              <clipindex>1</clipindex>
              <groupindex>1</groupindex>
            </link>
            <link>
              <linkclipref>clipitem-186</linkclipref>
              <mediatype>audio</mediatype>
              <trackindex>3</trackindex>
              <clipindex>1</clipindex>
              <groupindex>1</groupindex>
            </link>
            <link>
              <linkclipref>clipitem-187</linkclipref>
              <mediatype>audio</mediatype>
              <trackindex>4</trackindex>
              <clipindex>1</clipindex>
              <groupindex>1</groupindex>
            </link>
            <link>
              <linkclipref>clipitem-188</linkclipref>
              <mediatype>audio</mediatype>
              <trackindex>5</trackindex>
              <clipindex>1</clipindex>
              <groupindex>1</groupindex>
            </link>
            <link>
              <linkclipref>clipitem-189</linkclipref>
              <mediatype>audio</mediatype>
              <trackindex>6</trackindex>
              <clipindex>1</clipindex>
              <groupindex>1</groupindex>
            </link>
          </clipitem>
          <clipitem id="clipitem-196" premiereChannelType="Stereo">
            <masterclipid>masterclip-1</masterclipid>
            <name>2023-04-01 14-56-52溪神带上钻局CC.mp4</name>
            <enabled>TRUE</enabled>
            <rate>
              <timebase>60</timebase>
              <ntsc>FALSE</ntsc>
            </rate>
            <start>3587</start>
            <end>3794</end>
            <in>50965</in>
            <out>51172</out>
            <file id="file-1"/>
            <sourcetrack>
              <mediatype>audio</mediatype>
              <trackindex>3</trackindex>
            </sourcetrack>
            <link>
              <linkclipref>clipitem-190</linkclipref>
              <mediatype>video</mediatype>
              <trackindex>1</trackindex>
              <clipindex>1</clipindex>
            </link>
            <link>
              <linkclipref>clipitem-191</linkclipref>
              <mediatype>audio</mediatype>
              <trackindex>1</trackindex>
              <clipindex>1</clipindex>
              <groupindex>1</groupindex>
            </link>
            <link>
              <linkclipref>clipitem-192</linkclipref>
              <mediatype>audio</mediatype>
              <trackindex>2</trackindex>
              <clipindex>1</clipindex>
              <groupindex>1</groupindex>
            </link>
            <link>
              <linkclipref>clipitem-193</linkclipref>
              <mediatype>audio</mediatype>
              <trackindex>3</trackindex>
              <clipindex>1</clipindex>
              <groupindex>1</groupindex>
            </link>
            <link>
              <linkclipref>clipitem-194</linkclipref>
              <mediatype>audio</mediatype>
              <trackindex>4</trackindex>
              <clipindex>1</clipindex>
              <groupindex>1</groupindex>
            </link>
            <link>
              <linkclipref>clipitem-195</linkclipref>
              <mediatype>audio</mediatype>
              <trackindex>5</trackindex>
              <clipindex>1</clipindex>
              <groupindex>1</groupindex>
            </link>
            <link>
              <linkclipref>clipitem-196</linkclipref>
              <mediatype>audio</mediatype>
              <trackindex>6</trackindex>
              <clipindex>1</clipindex>
              <groupindex>1</groupindex>
            </link>
          </clipitem>
          <clipitem id="clipitem-203" premiereChannelType="Stereo">
            <masterclipid>masterclip-1</masterclipid>
            <name>2023-04-01 14-56-52溪神带上钻局CC.mp4</name>
            <enabled>TRUE</enabled>
            <rate>
              <timebase>60</timebase>
              <ntsc>FALSE</ntsc>
            </rate>
            <start>3794</start>
            <end>3897</end>
            <in>59295</in>
            <out>59398</out>
            <file id="file-1"/>
            <sourcetrack>
              <mediatype>audio</mediatype>
              <trackindex>3</trackindex>
            </sourcetrack>
            <link>
              <linkclipref>clipitem-197</linkclipref>
              <mediatype>video</mediatype>
              <trackindex>1</trackindex>
              <clipindex>1</clipindex>
            </link>
            <link>
              <linkclipref>clipitem-198</linkclipref>
              <mediatype>audio</mediatype>
              <trackindex>1</trackindex>
              <clipindex>1</clipindex>
              <groupindex>1</groupindex>
            </link>
            <link>
              <linkclipref>clipitem-199</linkclipref>
              <mediatype>audio</mediatype>
              <trackindex>2</trackindex>
              <clipindex>1</clipindex>
              <groupindex>1</groupindex>
            </link>
            <link>
              <linkclipref>clipitem-200</linkclipref>
              <mediatype>audio</mediatype>
              <trackindex>3</trackindex>
              <clipindex>1</clipindex>
              <groupindex>1</groupindex>
            </link>
            <link>
              <linkclipref>clipitem-201</linkclipref>
              <mediatype>audio</mediatype>
              <trackindex>4</trackindex>
              <clipindex>1</clipindex>
              <groupindex>1</groupindex>
            </link>
            <link>
              <linkclipref>clipitem-202</linkclipref>
              <mediatype>audio</mediatype>
              <trackindex>5</trackindex>
              <clipindex>1</clipindex>
              <groupindex>1</groupindex>
            </link>
            <link>
              <linkclipref>clipitem-203</linkclipref>
              <mediatype>audio</mediatype>
              <trackindex>6</trackindex>
              <clipindex>1</clipindex>
              <groupindex>1</groupindex>
            </link>
          </clipitem>
          <clipitem id="clipitem-210" premiereChannelType="Stereo">
            <masterclipid>masterclip-1</masterclipid>
            <name>2023-04-01 14-56-52溪神带上钻局CC.mp4</name>
            <enabled>TRUE</enabled>
            <rate>
              <timebase>60</timebase>
              <ntsc>FALSE</ntsc>
            </rate>
            <start>3897</start>
            <end>4026</end>
            <in>60197</in>
            <out>60326</out>
            <file id="file-1"/>
            <sourcetrack>
              <mediatype>audio</mediatype>
              <trackindex>3</trackindex>
            </sourcetrack>
            <link>
              <linkclipref>clipitem-204</linkclipref>
              <mediatype>video</mediatype>
              <trackindex>1</trackindex>
              <clipindex>1</clipindex>
            </link>
            <link>
              <linkclipref>clipitem-205</linkclipref>
              <mediatype>audio</mediatype>
              <trackindex>1</trackindex>
              <clipindex>1</clipindex>
              <groupindex>1</groupindex>
            </link>
            <link>
              <linkclipref>clipitem-206</linkclipref>
              <mediatype>audio</mediatype>
              <trackindex>2</trackindex>
              <clipindex>1</clipindex>
              <groupindex>1</groupindex>
            </link>
            <link>
              <linkclipref>clipitem-207</linkclipref>
              <mediatype>audio</mediatype>
              <trackindex>3</trackindex>
              <clipindex>1</clipindex>
              <groupindex>1</groupindex>
            </link>
            <link>
              <linkclipref>clipitem-208</linkclipref>
              <mediatype>audio</mediatype>
              <trackindex>4</trackindex>
              <clipindex>1</clipindex>
              <groupindex>1</groupindex>
            </link>
            <link>
              <linkclipref>clipitem-209</linkclipref>
              <mediatype>audio</mediatype>
              <trackindex>5</trackindex>
              <clipindex>1</clipindex>
              <groupindex>1</groupindex>
            </link>
            <link>
              <linkclipref>clipitem-210</linkclipref>
              <mediatype>audio</mediatype>
              <trackindex>6</trackindex>
              <clipindex>1</clipindex>
              <groupindex>1</groupindex>
            </link>
          </clipitem>
          <clipitem id="clipitem-217" premiereChannelType="Stereo">
            <masterclipid>masterclip-1</masterclipid>
            <name>2023-04-01 14-56-52溪神带上钻局CC.mp4</name>
            <enabled>TRUE</enabled>
            <rate>
              <timebase>60</timebase>
              <ntsc>FALSE</ntsc>
            </rate>
            <start>4026</start>
            <end>4128</end>
            <in>60335</in>
            <out>60437</out>
            <file id="file-1"/>
            <sourcetrack>
              <mediatype>audio</mediatype>
              <trackindex>3</trackindex>
            </sourcetrack>
            <link>
              <linkclipref>clipitem-211</linkclipref>
              <mediatype>video</mediatype>
              <trackindex>1</trackindex>
              <clipindex>1</clipindex>
            </link>
            <link>
              <linkclipref>clipitem-212</linkclipref>
              <mediatype>audio</mediatype>
              <trackindex>1</trackindex>
              <clipindex>1</clipindex>
              <groupindex>1</groupindex>
            </link>
            <link>
              <linkclipref>clipitem-213</linkclipref>
              <mediatype>audio</mediatype>
              <trackindex>2</trackindex>
              <clipindex>1</clipindex>
              <groupindex>1</groupindex>
            </link>
            <link>
              <linkclipref>clipitem-214</linkclipref>
              <mediatype>audio</mediatype>
              <trackindex>3</trackindex>
              <clipindex>1</clipindex>
              <groupindex>1</groupindex>
            </link>
            <link>
              <linkclipref>clipitem-215</linkclipref>
              <mediatype>audio</mediatype>
              <trackindex>4</trackindex>
              <clipindex>1</clipindex>
              <groupindex>1</groupindex>
            </link>
            <link>
              <linkclipref>clipitem-216</linkclipref>
              <mediatype>audio</mediatype>
              <trackindex>5</trackindex>
              <clipindex>1</clipindex>
              <groupindex>1</groupindex>
            </link>
            <link>
              <linkclipref>clipitem-217</linkclipref>
              <mediatype>audio</mediatype>
              <trackindex>6</trackindex>
              <clipindex>1</clipindex>
              <groupindex>1</groupindex>
            </link>
          </clipitem>
          <clipitem id="clipitem-224" premiereChannelType="Stereo">
            <masterclipid>masterclip-1</masterclipid>
            <name>2023-04-01 14-56-52溪神带上钻局CC.mp4</name>
            <enabled>TRUE</enabled>
            <rate>
              <timebase>60</timebase>
              <ntsc>FALSE</ntsc>
            </rate>
            <start>4128</start>
            <end>4272</end>
            <in>61170</in>
            <out>61314</out>
            <file id="file-1"/>
            <sourcetrack>
              <mediatype>audio</mediatype>
              <trackindex>3</trackindex>
            </sourcetrack>
            <link>
              <linkclipref>clipitem-218</linkclipref>
              <mediatype>video</mediatype>
              <trackindex>1</trackindex>
              <clipindex>1</clipindex>
            </link>
            <link>
              <linkclipref>clipitem-219</linkclipref>
              <mediatype>audio</mediatype>
              <trackindex>1</trackindex>
              <clipindex>1</clipindex>
              <groupindex>1</groupindex>
            </link>
            <link>
              <linkclipref>clipitem-220</linkclipref>
              <mediatype>audio</mediatype>
              <trackindex>2</trackindex>
              <clipindex>1</clipindex>
              <groupindex>1</groupindex>
            </link>
            <link>
              <linkclipref>clipitem-221</linkclipref>
              <mediatype>audio</mediatype>
              <trackindex>3</trackindex>
              <clipindex>1</clipindex>
              <groupindex>1</groupindex>
            </link>
            <link>
              <linkclipref>clipitem-222</linkclipref>
              <mediatype>audio</mediatype>
              <trackindex>4</trackindex>
              <clipindex>1</clipindex>
              <groupindex>1</groupindex>
            </link>
            <link>
              <linkclipref>clipitem-223</linkclipref>
              <mediatype>audio</mediatype>
              <trackindex>5</trackindex>
              <clipindex>1</clipindex>
              <groupindex>1</groupindex>
            </link>
            <link>
              <linkclipref>clipitem-224</linkclipref>
              <mediatype>audio</mediatype>
              <trackindex>6</trackindex>
              <clipindex>1</clipindex>
              <groupindex>1</groupindex>
            </link>
          </clipitem>
          <clipitem id="clipitem-231" premiereChannelType="Stereo">
            <masterclipid>masterclip-1</masterclipid>
            <name>2023-04-01 14-56-52溪神带上钻局CC.mp4</name>
            <enabled>TRUE</enabled>
            <rate>
              <timebase>60</timebase>
              <ntsc>FALSE</ntsc>
            </rate>
            <start>4272</start>
            <end>4399</end>
            <in>61526</in>
            <out>61653</out>
            <file id="file-1"/>
            <sourcetrack>
              <mediatype>audio</mediatype>
              <trackindex>3</trackindex>
            </sourcetrack>
            <link>
              <linkclipref>clipitem-225</linkclipref>
              <mediatype>video</mediatype>
              <trackindex>1</trackindex>
              <clipindex>1</clipindex>
            </link>
            <link>
              <linkclipref>clipitem-226</linkclipref>
              <mediatype>audio</mediatype>
              <trackindex>1</trackindex>
              <clipindex>1</clipindex>
              <groupindex>1</groupindex>
            </link>
            <link>
              <linkclipref>clipitem-227</linkclipref>
              <mediatype>audio</mediatype>
              <trackindex>2</trackindex>
              <clipindex>1</clipindex>
              <groupindex>1</groupindex>
            </link>
            <link>
              <linkclipref>clipitem-228</linkclipref>
              <mediatype>audio</mediatype>
              <trackindex>3</trackindex>
              <clipindex>1</clipindex>
              <groupindex>1</groupindex>
            </link>
            <link>
              <linkclipref>clipitem-229</linkclipref>
              <mediatype>audio</mediatype>
              <trackindex>4</trackindex>
              <clipindex>1</clipindex>
              <groupindex>1</groupindex>
            </link>
            <link>
              <linkclipref>clipitem-230</linkclipref>
              <mediatype>audio</mediatype>
              <trackindex>5</trackindex>
              <clipindex>1</clipindex>
              <groupindex>1</groupindex>
            </link>
            <link>
              <linkclipref>clipitem-231</linkclipref>
              <mediatype>audio</mediatype>
              <trackindex>6</trackindex>
              <clipindex>1</clipindex>
              <groupindex>1</groupindex>
            </link>
          </clipitem>
          <clipitem id="clipitem-238" premiereChannelType="Stereo">
            <masterclipid>masterclip-1</masterclipid>
            <name>2023-04-01 14-56-52溪神带上钻局CC.mp4</name>
            <enabled>TRUE</enabled>
            <rate>
              <timebase>60</timebase>
              <ntsc>FALSE</ntsc>
            </rate>
            <start>4399</start>
            <end>4509</end>
            <in>62041</in>
            <out>62151</out>
            <file id="file-1"/>
            <sourcetrack>
              <mediatype>audio</mediatype>
              <trackindex>3</trackindex>
            </sourcetrack>
            <link>
              <linkclipref>clipitem-232</linkclipref>
              <mediatype>video</mediatype>
              <trackindex>1</trackindex>
              <clipindex>1</clipindex>
            </link>
            <link>
              <linkclipref>clipitem-233</linkclipref>
              <mediatype>audio</mediatype>
              <trackindex>1</trackindex>
              <clipindex>1</clipindex>
              <groupindex>1</groupindex>
            </link>
            <link>
              <linkclipref>clipitem-234</linkclipref>
              <mediatype>audio</mediatype>
              <trackindex>2</trackindex>
              <clipindex>1</clipindex>
              <groupindex>1</groupindex>
            </link>
            <link>
              <linkclipref>clipitem-235</linkclipref>
              <mediatype>audio</mediatype>
              <trackindex>3</trackindex>
              <clipindex>1</clipindex>
              <groupindex>1</groupindex>
            </link>
            <link>
              <linkclipref>clipitem-236</linkclipref>
              <mediatype>audio</mediatype>
              <trackindex>4</trackindex>
              <clipindex>1</clipindex>
              <groupindex>1</groupindex>
            </link>
            <link>
              <linkclipref>clipitem-237</linkclipref>
              <mediatype>audio</mediatype>
              <trackindex>5</trackindex>
              <clipindex>1</clipindex>
              <groupindex>1</groupindex>
            </link>
            <link>
              <linkclipref>clipitem-238</linkclipref>
              <mediatype>audio</mediatype>
              <trackindex>6</trackindex>
              <clipindex>1</clipindex>
              <groupindex>1</groupindex>
            </link>
          </clipitem>
          <clipitem id="clipitem-245" premiereChannelType="Stereo">
            <masterclipid>masterclip-2</masterclipid>
            <name>2023-04-01 13-58-58溪神带飞王源5KCC.mp4</name>
            <enabled>TRUE</enabled>
            <rate>
              <timebase>60</timebase>
              <ntsc>FALSE</ntsc>
            </rate>
            <start>4509</start>
            <end>4526</end>
            <in>1764</in>
            <out>1781</out>
            <file id="file-2"/>
            <sourcetrack>
              <mediatype>audio</mediatype>
              <trackindex>3</trackindex>
            </sourcetrack>
            <link>
              <linkclipref>clipitem-239</linkclipref>
              <mediatype>video</mediatype>
              <trackindex>1</trackindex>
              <clipindex>1</clipindex>
            </link>
            <link>
              <linkclipref>clipitem-240</linkclipref>
              <mediatype>audio</mediatype>
              <trackindex>1</trackindex>
              <clipindex>1</clipindex>
              <groupindex>1</groupindex>
            </link>
            <link>
              <linkclipref>clipitem-241</linkclipref>
              <mediatype>audio</mediatype>
              <trackindex>2</trackindex>
              <clipindex>1</clipindex>
              <groupindex>1</groupindex>
            </link>
            <link>
              <linkclipref>clipitem-242</linkclipref>
              <mediatype>audio</mediatype>
              <trackindex>3</trackindex>
              <clipindex>1</clipindex>
              <groupindex>1</groupindex>
            </link>
            <link>
              <linkclipref>clipitem-243</linkclipref>
              <mediatype>audio</mediatype>
              <trackindex>4</trackindex>
              <clipindex>1</clipindex>
              <groupindex>1</groupindex>
            </link>
            <link>
              <linkclipref>clipitem-244</linkclipref>
              <mediatype>audio</mediatype>
              <trackindex>5</trackindex>
              <clipindex>1</clipindex>
              <groupindex>1</groupindex>
            </link>
            <link>
              <linkclipref>clipitem-245</linkclipref>
              <mediatype>audio</mediatype>
              <trackindex>6</trackindex>
              <clipindex>1</clipindex>
              <groupindex>1</groupindex>
            </link>
          </clipitem>
          <clipitem id="clipitem-252" premiereChannelType="Stereo">
            <masterclipid>masterclip-2</masterclipid>
            <name>2023-04-01 13-58-58溪神带飞王源5KCC.mp4</name>
            <enabled>TRUE</enabled>
            <rate>
              <timebase>60</timebase>
              <ntsc>FALSE</ntsc>
            </rate>
            <start>4526</start>
            <end>4596</end>
            <in>22846</in>
            <out>22916</out>
            <file id="file-2"/>
            <sourcetrack>
              <mediatype>audio</mediatype>
              <trackindex>3</trackindex>
            </sourcetrack>
            <link>
              <linkclipref>clipitem-246</linkclipref>
              <mediatype>video</mediatype>
              <trackindex>1</trackindex>
              <clipindex>1</clipindex>
            </link>
            <link>
              <linkclipref>clipitem-247</linkclipref>
              <mediatype>audio</mediatype>
              <trackindex>1</trackindex>
              <clipindex>1</clipindex>
              <groupindex>1</groupindex>
            </link>
            <link>
              <linkclipref>clipitem-248</linkclipref>
              <mediatype>audio</mediatype>
              <trackindex>2</trackindex>
              <clipindex>1</clipindex>
              <groupindex>1</groupindex>
            </link>
            <link>
              <linkclipref>clipitem-249</linkclipref>
              <mediatype>audio</mediatype>
              <trackindex>3</trackindex>
              <clipindex>1</clipindex>
              <groupindex>1</groupindex>
            </link>
            <link>
              <linkclipref>clipitem-250</linkclipref>
              <mediatype>audio</mediatype>
              <trackindex>4</trackindex>
              <clipindex>1</clipindex>
              <groupindex>1</groupindex>
            </link>
            <link>
              <linkclipref>clipitem-251</linkclipref>
              <mediatype>audio</mediatype>
              <trackindex>5</trackindex>
              <clipindex>1</clipindex>
              <groupindex>1</groupindex>
            </link>
            <link>
              <linkclipref>clipitem-252</linkclipref>
              <mediatype>audio</mediatype>
              <trackindex>6</trackindex>
              <clipindex>1</clipindex>
              <groupindex>1</groupindex>
            </link>
          </clipitem>
          <clipitem id="clipitem-259" premiereChannelType="Stereo">
            <masterclipid>masterclip-2</masterclipid>
            <name>2023-04-01 13-58-58溪神带飞王源5KCC.mp4</name>
            <enabled>TRUE</enabled>
            <rate>
              <timebase>60</timebase>
              <ntsc>FALSE</ntsc>
            </rate>
            <start>4596</start>
            <end>4848</end>
            <in>22937</in>
            <out>23189</out>
            <file id="file-2"/>
            <sourcetrack>
              <mediatype>audio</mediatype>
              <trackindex>3</trackindex>
            </sourcetrack>
            <link>
              <linkclipref>clipitem-253</linkclipref>
              <mediatype>video</mediatype>
              <trackindex>1</trackindex>
              <clipindex>1</clipindex>
            </link>
            <link>
              <linkclipref>clipitem-254</linkclipref>
              <mediatype>audio</mediatype>
              <trackindex>1</trackindex>
              <clipindex>1</clipindex>
              <groupindex>1</groupindex>
            </link>
            <link>
              <linkclipref>clipitem-255</linkclipref>
              <mediatype>audio</mediatype>
              <trackindex>2</trackindex>
              <clipindex>1</clipindex>
              <groupindex>1</groupindex>
            </link>
            <link>
              <linkclipref>clipitem-256</linkclipref>
              <mediatype>audio</mediatype>
              <trackindex>3</trackindex>
              <clipindex>1</clipindex>
              <groupindex>1</groupindex>
            </link>
            <link>
              <linkclipref>clipitem-257</linkclipref>
              <mediatype>audio</mediatype>
              <trackindex>4</trackindex>
              <clipindex>1</clipindex>
              <groupindex>1</groupindex>
            </link>
            <link>
              <linkclipref>clipitem-258</linkclipref>
              <mediatype>audio</mediatype>
              <trackindex>5</trackindex>
              <clipindex>1</clipindex>
              <groupindex>1</groupindex>
            </link>
            <link>
              <linkclipref>clipitem-259</linkclipref>
              <mediatype>audio</mediatype>
              <trackindex>6</trackindex>
              <clipindex>1</clipindex>
              <groupindex>1</groupindex>
            </link>
          </clipitem>
          <clipitem id="clipitem-266" premiereChannelType="Stereo">
            <masterclipid>masterclip-2</masterclipid>
            <name>2023-04-01 13-58-58溪神带飞王源5KCC.mp4</name>
            <enabled>TRUE</enabled>
            <rate>
              <timebase>60</timebase>
              <ntsc>FALSE</ntsc>
            </rate>
            <start>4848</start>
            <end>5027</end>
            <in>24127</in>
            <out>24306</out>
            <file id="file-2"/>
            <sourcetrack>
              <mediatype>audio</mediatype>
              <trackindex>3</trackindex>
            </sourcetrack>
            <link>
              <linkclipref>clipitem-260</linkclipref>
              <mediatype>video</mediatype>
              <trackindex>1</trackindex>
              <clipindex>1</clipindex>
            </link>
            <link>
              <linkclipref>clipitem-261</linkclipref>
              <mediatype>audio</mediatype>
              <trackindex>1</trackindex>
              <clipindex>1</clipindex>
              <groupindex>1</groupindex>
            </link>
            <link>
              <linkclipref>clipitem-262</linkclipref>
              <mediatype>audio</mediatype>
              <trackindex>2</trackindex>
              <clipindex>1</clipindex>
              <groupindex>1</groupindex>
            </link>
            <link>
              <linkclipref>clipitem-263</linkclipref>
              <mediatype>audio</mediatype>
              <trackindex>3</trackindex>
              <clipindex>1</clipindex>
              <groupindex>1</groupindex>
            </link>
            <link>
              <linkclipref>clipitem-264</linkclipref>
              <mediatype>audio</mediatype>
              <trackindex>4</trackindex>
              <clipindex>1</clipindex>
              <groupindex>1</groupindex>
            </link>
            <link>
              <linkclipref>clipitem-265</linkclipref>
              <mediatype>audio</mediatype>
              <trackindex>5</trackindex>
              <clipindex>1</clipindex>
              <groupindex>1</groupindex>
            </link>
            <link>
              <linkclipref>clipitem-266</linkclipref>
              <mediatype>audio</mediatype>
              <trackindex>6</trackindex>
              <clipindex>1</clipindex>
              <groupindex>1</groupindex>
            </link>
          </clipitem>
          <clipitem id="clipitem-273" premiereChannelType="Stereo">
            <masterclipid>masterclip-2</masterclipid>
            <name>2023-04-01 13-58-58溪神带飞王源5KCC.mp4</name>
            <enabled>TRUE</enabled>
            <rate>
              <timebase>60</timebase>
              <ntsc>FALSE</ntsc>
            </rate>
            <start>5027</start>
            <end>5103</end>
            <in>24579</in>
            <out>24655</out>
            <file id="file-2"/>
            <sourcetrack>
              <mediatype>audio</mediatype>
              <trackindex>3</trackindex>
            </sourcetrack>
            <link>
              <linkclipref>clipitem-267</linkclipref>
              <mediatype>video</mediatype>
              <trackindex>1</trackindex>
              <clipindex>1</clipindex>
            </link>
            <link>
              <linkclipref>clipitem-268</linkclipref>
              <mediatype>audio</mediatype>
              <trackindex>1</trackindex>
              <clipindex>1</clipindex>
              <groupindex>1</groupindex>
            </link>
            <link>
              <linkclipref>clipitem-269</linkclipref>
              <mediatype>audio</mediatype>
              <trackindex>2</trackindex>
              <clipindex>1</clipindex>
              <groupindex>1</groupindex>
            </link>
            <link>
              <linkclipref>clipitem-270</linkclipref>
              <mediatype>audio</mediatype>
              <trackindex>3</trackindex>
              <clipindex>1</clipindex>
              <groupindex>1</groupindex>
            </link>
            <link>
              <linkclipref>clipitem-271</linkclipref>
              <mediatype>audio</mediatype>
              <trackindex>4</trackindex>
              <clipindex>1</clipindex>
              <groupindex>1</groupindex>
            </link>
            <link>
              <linkclipref>clipitem-272</linkclipref>
              <mediatype>audio</mediatype>
              <trackindex>5</trackindex>
              <clipindex>1</clipindex>
              <groupindex>1</groupindex>
            </link>
            <link>
              <linkclipref>clipitem-273</linkclipref>
              <mediatype>audio</mediatype>
              <trackindex>6</trackindex>
              <clipindex>1</clipindex>
              <groupindex>1</groupindex>
            </link>
          </clipitem>
          <clipitem id="clipitem-280" premiereChannelType="Stereo">
            <masterclipid>masterclip-2</masterclipid>
            <name>2023-04-01 13-58-58溪神带飞王源5KCC.mp4</name>
            <enabled>TRUE</enabled>
            <rate>
              <timebase>60</timebase>
              <ntsc>FALSE</ntsc>
            </rate>
            <start>5103</start>
            <end>5273</end>
            <in>24893</in>
            <out>25063</out>
            <file id="file-2"/>
            <sourcetrack>
              <mediatype>audio</mediatype>
              <trackindex>3</trackindex>
            </sourcetrack>
            <link>
              <linkclipref>clipitem-274</linkclipref>
              <mediatype>video</mediatype>
              <trackindex>1</trackindex>
              <clipindex>1</clipindex>
            </link>
            <link>
              <linkclipref>clipitem-275</linkclipref>
              <mediatype>audio</mediatype>
              <trackindex>1</trackindex>
              <clipindex>1</clipindex>
              <groupindex>1</groupindex>
            </link>
            <link>
              <linkclipref>clipitem-276</linkclipref>
              <mediatype>audio</mediatype>
              <trackindex>2</trackindex>
              <clipindex>1</clipindex>
              <groupindex>1</groupindex>
            </link>
            <link>
              <linkclipref>clipitem-277</linkclipref>
              <mediatype>audio</mediatype>
              <trackindex>3</trackindex>
              <clipindex>1</clipindex>
              <groupindex>1</groupindex>
            </link>
            <link>
              <linkclipref>clipitem-278</linkclipref>
              <mediatype>audio</mediatype>
              <trackindex>4</trackindex>
              <clipindex>1</clipindex>
              <groupindex>1</groupindex>
            </link>
            <link>
              <linkclipref>clipitem-279</linkclipref>
              <mediatype>audio</mediatype>
              <trackindex>5</trackindex>
              <clipindex>1</clipindex>
              <groupindex>1</groupindex>
            </link>
            <link>
              <linkclipref>clipitem-280</linkclipref>
              <mediatype>audio</mediatype>
              <trackindex>6</trackindex>
              <clipindex>1</clipindex>
              <groupindex>1</groupindex>
            </link>
          </clipitem>
          <clipitem id="clipitem-287" premiereChannelType="Stereo">
            <masterclipid>masterclip-2</masterclipid>
            <name>2023-04-01 13-58-58溪神带飞王源5KCC.mp4</name>
            <enabled>TRUE</enabled>
            <rate>
              <timebase>60</timebase>
              <ntsc>FALSE</ntsc>
            </rate>
            <start>5273</start>
            <end>5350</end>
            <in>31222</in>
            <out>31299</out>
            <file id="file-2"/>
            <sourcetrack>
              <mediatype>audio</mediatype>
              <trackindex>3</trackindex>
            </sourcetrack>
            <link>
              <linkclipref>clipitem-281</linkclipref>
              <mediatype>video</mediatype>
              <trackindex>1</trackindex>
              <clipindex>1</clipindex>
            </link>
            <link>
              <linkclipref>clipitem-282</linkclipref>
              <mediatype>audio</mediatype>
              <trackindex>1</trackindex>
              <clipindex>1</clipindex>
              <groupindex>1</groupindex>
            </link>
            <link>
              <linkclipref>clipitem-283</linkclipref>
              <mediatype>audio</mediatype>
              <trackindex>2</trackindex>
              <clipindex>1</clipindex>
              <groupindex>1</groupindex>
            </link>
            <link>
              <linkclipref>clipitem-284</linkclipref>
              <mediatype>audio</mediatype>
              <trackindex>3</trackindex>
              <clipindex>1</clipindex>
              <groupindex>1</groupindex>
            </link>
            <link>
              <linkclipref>clipitem-285</linkclipref>
              <mediatype>audio</mediatype>
              <trackindex>4</trackindex>
              <clipindex>1</clipindex>
              <groupindex>1</groupindex>
            </link>
            <link>
              <linkclipref>clipitem-286</linkclipref>
              <mediatype>audio</mediatype>
              <trackindex>5</trackindex>
              <clipindex>1</clipindex>
              <groupindex>1</groupindex>
            </link>
            <link>
              <linkclipref>clipitem-287</linkclipref>
              <mediatype>audio</mediatype>
              <trackindex>6</trackindex>
              <clipindex>1</clipindex>
              <groupindex>1</groupindex>
            </link>
          </clipitem>
          <clipitem id="clipitem-294" premiereChannelType="Stereo">
            <masterclipid>masterclip-2</masterclipid>
            <name>2023-04-01 13-58-58溪神带飞王源5KCC.mp4</name>
            <enabled>TRUE</enabled>
            <rate>
              <timebase>60</timebase>
              <ntsc>FALSE</ntsc>
            </rate>
            <start>5350</start>
            <end>5459</end>
            <in>31478</in>
            <out>31587</out>
            <file id="file-2"/>
            <sourcetrack>
              <mediatype>audio</mediatype>
              <trackindex>3</trackindex>
            </sourcetrack>
            <link>
              <linkclipref>clipitem-288</linkclipref>
              <mediatype>video</mediatype>
              <trackindex>1</trackindex>
              <clipindex>1</clipindex>
            </link>
            <link>
              <linkclipref>clipitem-289</linkclipref>
              <mediatype>audio</mediatype>
              <trackindex>1</trackindex>
              <clipindex>1</clipindex>
              <groupindex>1</groupindex>
            </link>
            <link>
              <linkclipref>clipitem-290</linkclipref>
              <mediatype>audio</mediatype>
              <trackindex>2</trackindex>
              <clipindex>1</clipindex>
              <groupindex>1</groupindex>
            </link>
            <link>
              <linkclipref>clipitem-291</linkclipref>
              <mediatype>audio</mediatype>
              <trackindex>3</trackindex>
              <clipindex>1</clipindex>
              <groupindex>1</groupindex>
            </link>
            <link>
              <linkclipref>clipitem-292</linkclipref>
              <mediatype>audio</mediatype>
              <trackindex>4</trackindex>
              <clipindex>1</clipindex>
              <groupindex>1</groupindex>
            </link>
            <link>
              <linkclipref>clipitem-293</linkclipref>
              <mediatype>audio</mediatype>
              <trackindex>5</trackindex>
              <clipindex>1</clipindex>
              <groupindex>1</groupindex>
            </link>
            <link>
              <linkclipref>clipitem-294</linkclipref>
              <mediatype>audio</mediatype>
              <trackindex>6</trackindex>
              <clipindex>1</clipindex>
              <groupindex>1</groupindex>
            </link>
          </clipitem>
          <clipitem id="clipitem-301" premiereChannelType="Stereo">
            <masterclipid>masterclip-2</masterclipid>
            <name>2023-04-01 13-58-58溪神带飞王源5KCC.mp4</name>
            <enabled>TRUE</enabled>
            <rate>
              <timebase>60</timebase>
              <ntsc>FALSE</ntsc>
            </rate>
            <start>5459</start>
            <end>5662</end>
            <in>33212</in>
            <out>33415</out>
            <file id="file-2"/>
            <sourcetrack>
              <mediatype>audio</mediatype>
              <trackindex>3</trackindex>
            </sourcetrack>
            <link>
              <linkclipref>clipitem-295</linkclipref>
              <mediatype>video</mediatype>
              <trackindex>1</trackindex>
              <clipindex>1</clipindex>
            </link>
            <link>
              <linkclipref>clipitem-296</linkclipref>
              <mediatype>audio</mediatype>
              <trackindex>1</trackindex>
              <clipindex>1</clipindex>
              <groupindex>1</groupindex>
            </link>
            <link>
              <linkclipref>clipitem-297</linkclipref>
              <mediatype>audio</mediatype>
              <trackindex>2</trackindex>
              <clipindex>1</clipindex>
              <groupindex>1</groupindex>
            </link>
            <link>
              <linkclipref>clipitem-298</linkclipref>
              <mediatype>audio</mediatype>
              <trackindex>3</trackindex>
              <clipindex>1</clipindex>
              <groupindex>1</groupindex>
            </link>
            <link>
              <linkclipref>clipitem-299</linkclipref>
              <mediatype>audio</mediatype>
              <trackindex>4</trackindex>
              <clipindex>1</clipindex>
              <groupindex>1</groupindex>
            </link>
            <link>
              <linkclipref>clipitem-300</linkclipref>
              <mediatype>audio</mediatype>
              <trackindex>5</trackindex>
              <clipindex>1</clipindex>
              <groupindex>1</groupindex>
            </link>
            <link>
              <linkclipref>clipitem-301</linkclipref>
              <mediatype>audio</mediatype>
              <trackindex>6</trackindex>
              <clipindex>1</clipindex>
              <groupindex>1</groupindex>
            </link>
          </clipitem>
          <clipitem id="clipitem-308" premiereChannelType="Stereo">
            <masterclipid>masterclip-2</masterclipid>
            <name>2023-04-01 13-58-58溪神带飞王源5KCC.mp4</name>
            <enabled>TRUE</enabled>
            <rate>
              <timebase>60</timebase>
              <ntsc>FALSE</ntsc>
            </rate>
            <start>5662</start>
            <end>5816</end>
            <in>33743</in>
            <out>33897</out>
            <file id="file-2"/>
            <sourcetrack>
              <mediatype>audio</mediatype>
              <trackindex>3</trackindex>
            </sourcetrack>
            <link>
              <linkclipref>clipitem-302</linkclipref>
              <mediatype>video</mediatype>
              <trackindex>1</trackindex>
              <clipindex>1</clipindex>
            </link>
            <link>
              <linkclipref>clipitem-303</linkclipref>
              <mediatype>audio</mediatype>
              <trackindex>1</trackindex>
              <clipindex>1</clipindex>
              <groupindex>1</groupindex>
            </link>
            <link>
              <linkclipref>clipitem-304</linkclipref>
              <mediatype>audio</mediatype>
              <trackindex>2</trackindex>
              <clipindex>1</clipindex>
              <groupindex>1</groupindex>
            </link>
            <link>
              <linkclipref>clipitem-305</linkclipref>
              <mediatype>audio</mediatype>
              <trackindex>3</trackindex>
              <clipindex>1</clipindex>
              <groupindex>1</groupindex>
            </link>
            <link>
              <linkclipref>clipitem-306</linkclipref>
              <mediatype>audio</mediatype>
              <trackindex>4</trackindex>
              <clipindex>1</clipindex>
              <groupindex>1</groupindex>
            </link>
            <link>
              <linkclipref>clipitem-307</linkclipref>
              <mediatype>audio</mediatype>
              <trackindex>5</trackindex>
              <clipindex>1</clipindex>
              <groupindex>1</groupindex>
            </link>
            <link>
              <linkclipref>clipitem-308</linkclipref>
              <mediatype>audio</mediatype>
              <trackindex>6</trackindex>
              <clipindex>1</clipindex>
              <groupindex>1</groupindex>
            </link>
          </clipitem>
          <clipitem id="clipitem-315" premiereChannelType="Stereo">
            <masterclipid>masterclip-2</masterclipid>
            <name>2023-04-01 13-58-58溪神带飞王源5KCC.mp4</name>
            <enabled>TRUE</enabled>
            <rate>
              <timebase>60</timebase>
              <ntsc>FALSE</ntsc>
            </rate>
            <start>5816</start>
            <end>6008</end>
            <in>34010</in>
            <out>34202</out>
            <file id="file-2"/>
            <sourcetrack>
              <mediatype>audio</mediatype>
              <trackindex>3</trackindex>
            </sourcetrack>
            <link>
              <linkclipref>clipitem-309</linkclipref>
              <mediatype>video</mediatype>
              <trackindex>1</trackindex>
              <clipindex>1</clipindex>
            </link>
            <link>
              <linkclipref>clipitem-310</linkclipref>
              <mediatype>audio</mediatype>
              <trackindex>1</trackindex>
              <clipindex>1</clipindex>
              <groupindex>1</groupindex>
            </link>
            <link>
              <linkclipref>clipitem-311</linkclipref>
              <mediatype>audio</mediatype>
              <trackindex>2</trackindex>
              <clipindex>1</clipindex>
              <groupindex>1</groupindex>
            </link>
            <link>
              <linkclipref>clipitem-312</linkclipref>
              <mediatype>audio</mediatype>
              <trackindex>3</trackindex>
              <clipindex>1</clipindex>
              <groupindex>1</groupindex>
            </link>
            <link>
              <linkclipref>clipitem-313</linkclipref>
              <mediatype>audio</mediatype>
              <trackindex>4</trackindex>
              <clipindex>1</clipindex>
              <groupindex>1</groupindex>
            </link>
            <link>
              <linkclipref>clipitem-314</linkclipref>
              <mediatype>audio</mediatype>
              <trackindex>5</trackindex>
              <clipindex>1</clipindex>
              <groupindex>1</groupindex>
            </link>
            <link>
              <linkclipref>clipitem-315</linkclipref>
              <mediatype>audio</mediatype>
              <trackindex>6</trackindex>
              <clipindex>1</clipindex>
              <groupindex>1</groupindex>
            </link>
          </clipitem>
          <clipitem id="clipitem-322" premiereChannelType="Stereo">
            <masterclipid>masterclip-2</masterclipid>
            <name>2023-04-01 13-58-58溪神带飞王源5KCC.mp4</name>
            <enabled>TRUE</enabled>
            <rate>
              <timebase>60</timebase>
              <ntsc>FALSE</ntsc>
            </rate>
            <start>6008</start>
            <end>6171</end>
            <in>39130</in>
            <out>39293</out>
            <file id="file-2"/>
            <sourcetrack>
              <mediatype>audio</mediatype>
              <trackindex>3</trackindex>
            </sourcetrack>
            <link>
              <linkclipref>clipitem-316</linkclipref>
              <mediatype>video</mediatype>
              <trackindex>1</trackindex>
              <clipindex>1</clipindex>
            </link>
            <link>
              <linkclipref>clipitem-317</linkclipref>
              <mediatype>audio</mediatype>
              <trackindex>1</trackindex>
              <clipindex>1</clipindex>
              <groupindex>1</groupindex>
            </link>
            <link>
              <linkclipref>clipitem-318</linkclipref>
              <mediatype>audio</mediatype>
              <trackindex>2</trackindex>
              <clipindex>1</clipindex>
              <groupindex>1</groupindex>
            </link>
            <link>
              <linkclipref>clipitem-319</linkclipref>
              <mediatype>audio</mediatype>
              <trackindex>3</trackindex>
              <clipindex>1</clipindex>
              <groupindex>1</groupindex>
            </link>
            <link>
              <linkclipref>clipitem-320</linkclipref>
              <mediatype>audio</mediatype>
              <trackindex>4</trackindex>
              <clipindex>1</clipindex>
              <groupindex>1</groupindex>
            </link>
            <link>
              <linkclipref>clipitem-321</linkclipref>
              <mediatype>audio</mediatype>
              <trackindex>5</trackindex>
              <clipindex>1</clipindex>
              <groupindex>1</groupindex>
            </link>
            <link>
              <linkclipref>clipitem-322</linkclipref>
              <mediatype>audio</mediatype>
              <trackindex>6</trackindex>
              <clipindex>1</clipindex>
              <groupindex>1</groupindex>
            </link>
          </clipitem>
          <clipitem id="clipitem-329" premiereChannelType="Stereo">
            <masterclipid>masterclip-2</masterclipid>
            <name>2023-04-01 13-58-58溪神带飞王源5KCC.mp4</name>
            <enabled>TRUE</enabled>
            <rate>
              <timebase>60</timebase>
              <ntsc>FALSE</ntsc>
            </rate>
            <start>6171</start>
            <end>6321</end>
            <in>39388</in>
            <out>39538</out>
            <file id="file-2"/>
            <sourcetrack>
              <mediatype>audio</mediatype>
              <trackindex>3</trackindex>
            </sourcetrack>
            <link>
              <linkclipref>clipitem-323</linkclipref>
              <mediatype>video</mediatype>
              <trackindex>1</trackindex>
              <clipindex>1</clipindex>
            </link>
            <link>
              <linkclipref>clipitem-324</linkclipref>
              <mediatype>audio</mediatype>
              <trackindex>1</trackindex>
              <clipindex>1</clipindex>
              <groupindex>1</groupindex>
            </link>
            <link>
              <linkclipref>clipitem-325</linkclipref>
              <mediatype>audio</mediatype>
              <trackindex>2</trackindex>
              <clipindex>1</clipindex>
              <groupindex>1</groupindex>
            </link>
            <link>
              <linkclipref>clipitem-326</linkclipref>
              <mediatype>audio</mediatype>
              <trackindex>3</trackindex>
              <clipindex>1</clipindex>
              <groupindex>1</groupindex>
            </link>
            <link>
              <linkclipref>clipitem-327</linkclipref>
              <mediatype>audio</mediatype>
              <trackindex>4</trackindex>
              <clipindex>1</clipindex>
              <groupindex>1</groupindex>
            </link>
            <link>
              <linkclipref>clipitem-328</linkclipref>
              <mediatype>audio</mediatype>
              <trackindex>5</trackindex>
              <clipindex>1</clipindex>
              <groupindex>1</groupindex>
            </link>
            <link>
              <linkclipref>clipitem-329</linkclipref>
              <mediatype>audio</mediatype>
              <trackindex>6</trackindex>
              <clipindex>1</clipindex>
              <groupindex>1</groupindex>
            </link>
          </clipitem>
          <clipitem id="clipitem-336" premiereChannelType="Stereo">
            <masterclipid>masterclip-2</masterclipid>
            <name>2023-04-01 13-58-58溪神带飞王源5KCC.mp4</name>
            <enabled>TRUE</enabled>
            <rate>
              <timebase>60</timebase>
              <ntsc>FALSE</ntsc>
            </rate>
            <start>6321</start>
            <end>6559</end>
            <in>39755</in>
            <out>39993</out>
            <file id="file-2"/>
            <sourcetrack>
              <mediatype>audio</mediatype>
              <trackindex>3</trackindex>
            </sourcetrack>
            <link>
              <linkclipref>clipitem-330</linkclipref>
              <mediatype>video</mediatype>
              <trackindex>1</trackindex>
              <clipindex>1</clipindex>
            </link>
            <link>
              <linkclipref>clipitem-331</linkclipref>
              <mediatype>audio</mediatype>
              <trackindex>1</trackindex>
              <clipindex>1</clipindex>
              <groupindex>1</groupindex>
            </link>
            <link>
              <linkclipref>clipitem-332</linkclipref>
              <mediatype>audio</mediatype>
              <trackindex>2</trackindex>
              <clipindex>1</clipindex>
              <groupindex>1</groupindex>
            </link>
            <link>
              <linkclipref>clipitem-333</linkclipref>
              <mediatype>audio</mediatype>
              <trackindex>3</trackindex>
              <clipindex>1</clipindex>
              <groupindex>1</groupindex>
            </link>
            <link>
              <linkclipref>clipitem-334</linkclipref>
              <mediatype>audio</mediatype>
              <trackindex>4</trackindex>
              <clipindex>1</clipindex>
              <groupindex>1</groupindex>
            </link>
            <link>
              <linkclipref>clipitem-335</linkclipref>
              <mediatype>audio</mediatype>
              <trackindex>5</trackindex>
              <clipindex>1</clipindex>
              <groupindex>1</groupindex>
            </link>
            <link>
              <linkclipref>clipitem-336</linkclipref>
              <mediatype>audio</mediatype>
              <trackindex>6</trackindex>
              <clipindex>1</clipindex>
              <groupindex>1</groupindex>
            </link>
          </clipitem>
          <clipitem id="clipitem-343" premiereChannelType="Stereo">
            <masterclipid>masterclip-2</masterclipid>
            <name>2023-04-01 13-58-58溪神带飞王源5KCC.mp4</name>
            <enabled>TRUE</enabled>
            <rate>
              <timebase>60</timebase>
              <ntsc>FALSE</ntsc>
            </rate>
            <start>6559</start>
            <end>6647</end>
            <in>40286</in>
            <out>40374</out>
            <file id="file-2"/>
            <sourcetrack>
              <mediatype>audio</mediatype>
              <trackindex>3</trackindex>
            </sourcetrack>
            <link>
              <linkclipref>clipitem-337</linkclipref>
              <mediatype>video</mediatype>
              <trackindex>1</trackindex>
              <clipindex>1</clipindex>
            </link>
            <link>
              <linkclipref>clipitem-338</linkclipref>
              <mediatype>audio</mediatype>
              <trackindex>1</trackindex>
              <clipindex>1</clipindex>
              <groupindex>1</groupindex>
            </link>
            <link>
              <linkclipref>clipitem-339</linkclipref>
              <mediatype>audio</mediatype>
              <trackindex>2</trackindex>
              <clipindex>1</clipindex>
              <groupindex>1</groupindex>
            </link>
            <link>
              <linkclipref>clipitem-340</linkclipref>
              <mediatype>audio</mediatype>
              <trackindex>3</trackindex>
              <clipindex>1</clipindex>
              <groupindex>1</groupindex>
            </link>
            <link>
              <linkclipref>clipitem-341</linkclipref>
              <mediatype>audio</mediatype>
              <trackindex>4</trackindex>
              <clipindex>1</clipindex>
              <groupindex>1</groupindex>
            </link>
            <link>
              <linkclipref>clipitem-342</linkclipref>
              <mediatype>audio</mediatype>
              <trackindex>5</trackindex>
              <clipindex>1</clipindex>
              <groupindex>1</groupindex>
            </link>
            <link>
              <linkclipref>clipitem-343</linkclipref>
              <mediatype>audio</mediatype>
              <trackindex>6</trackindex>
              <clipindex>1</clipindex>
              <groupindex>1</groupindex>
            </link>
          </clipitem>
          <clipitem id="clipitem-350" premiereChannelType="Stereo">
            <masterclipid>masterclip-2</masterclipid>
            <name>2023-04-01 13-58-58溪神带飞王源5KCC.mp4</name>
            <enabled>TRUE</enabled>
            <rate>
              <timebase>60</timebase>
              <ntsc>FALSE</ntsc>
            </rate>
            <start>6647</start>
            <end>6865</end>
            <in>43166</in>
            <out>43384</out>
            <file id="file-2"/>
            <sourcetrack>
              <mediatype>audio</mediatype>
              <trackindex>3</trackindex>
            </sourcetrack>
            <link>
              <linkclipref>clipitem-344</linkclipref>
              <mediatype>video</mediatype>
              <trackindex>1</trackindex>
              <clipindex>1</clipindex>
            </link>
            <link>
              <linkclipref>clipitem-345</linkclipref>
              <mediatype>audio</mediatype>
              <trackindex>1</trackindex>
              <clipindex>1</clipindex>
              <groupindex>1</groupindex>
            </link>
            <link>
              <linkclipref>clipitem-346</linkclipref>
              <mediatype>audio</mediatype>
              <trackindex>2</trackindex>
              <clipindex>1</clipindex>
              <groupindex>1</groupindex>
            </link>
            <link>
              <linkclipref>clipitem-347</linkclipref>
              <mediatype>audio</mediatype>
              <trackindex>3</trackindex>
              <clipindex>1</clipindex>
              <groupindex>1</groupindex>
            </link>
            <link>
              <linkclipref>clipitem-348</linkclipref>
              <mediatype>audio</mediatype>
              <trackindex>4</trackindex>
              <clipindex>1</clipindex>
              <groupindex>1</groupindex>
            </link>
            <link>
              <linkclipref>clipitem-349</linkclipref>
              <mediatype>audio</mediatype>
              <trackindex>5</trackindex>
              <clipindex>1</clipindex>
              <groupindex>1</groupindex>
            </link>
            <link>
              <linkclipref>clipitem-350</linkclipref>
              <mediatype>audio</mediatype>
              <trackindex>6</trackindex>
              <clipindex>1</clipindex>
              <groupindex>1</groupindex>
            </link>
          </clipitem>
          <clipitem id="clipitem-357" premiereChannelType="Stereo">
            <masterclipid>masterclip-2</masterclipid>
            <name>2023-04-01 13-58-58溪神带飞王源5KCC.mp4</name>
            <enabled>TRUE</enabled>
            <rate>
              <timebase>60</timebase>
              <ntsc>FALSE</ntsc>
            </rate>
            <start>6865</start>
            <end>6977</end>
            <in>43394</in>
            <out>43506</out>
            <file id="file-2"/>
            <sourcetrack>
              <mediatype>audio</mediatype>
              <trackindex>3</trackindex>
            </sourcetrack>
            <link>
              <linkclipref>clipitem-351</linkclipref>
              <mediatype>video</mediatype>
              <trackindex>1</trackindex>
              <clipindex>1</clipindex>
            </link>
            <link>
              <linkclipref>clipitem-352</linkclipref>
              <mediatype>audio</mediatype>
              <trackindex>1</trackindex>
              <clipindex>1</clipindex>
              <groupindex>1</groupindex>
            </link>
            <link>
              <linkclipref>clipitem-353</linkclipref>
              <mediatype>audio</mediatype>
              <trackindex>2</trackindex>
              <clipindex>1</clipindex>
              <groupindex>1</groupindex>
            </link>
            <link>
              <linkclipref>clipitem-354</linkclipref>
              <mediatype>audio</mediatype>
              <trackindex>3</trackindex>
              <clipindex>1</clipindex>
              <groupindex>1</groupindex>
            </link>
            <link>
              <linkclipref>clipitem-355</linkclipref>
              <mediatype>audio</mediatype>
              <trackindex>4</trackindex>
              <clipindex>1</clipindex>
              <groupindex>1</groupindex>
            </link>
            <link>
              <linkclipref>clipitem-356</linkclipref>
              <mediatype>audio</mediatype>
              <trackindex>5</trackindex>
              <clipindex>1</clipindex>
              <groupindex>1</groupindex>
            </link>
            <link>
              <linkclipref>clipitem-357</linkclipref>
              <mediatype>audio</mediatype>
              <trackindex>6</trackindex>
              <clipindex>1</clipindex>
              <groupindex>1</groupindex>
            </link>
          </clipitem>
          <clipitem id="clipitem-364" premiereChannelType="Stereo">
            <masterclipid>masterclip-2</masterclipid>
            <name>2023-04-01 13-58-58溪神带飞王源5KCC.mp4</name>
            <enabled>TRUE</enabled>
            <rate>
              <timebase>60</timebase>
              <ntsc>FALSE</ntsc>
            </rate>
            <start>6977</start>
            <end>7192</end>
            <in>48926</in>
            <out>49141</out>
            <file id="file-2"/>
            <sourcetrack>
              <mediatype>audio</mediatype>
              <trackindex>3</trackindex>
            </sourcetrack>
            <link>
              <linkclipref>clipitem-358</linkclipref>
              <mediatype>video</mediatype>
              <trackindex>1</trackindex>
              <clipindex>1</clipindex>
            </link>
            <link>
              <linkclipref>clipitem-359</linkclipref>
              <mediatype>audio</mediatype>
              <trackindex>1</trackindex>
              <clipindex>1</clipindex>
              <groupindex>1</groupindex>
            </link>
            <link>
              <linkclipref>clipitem-360</linkclipref>
              <mediatype>audio</mediatype>
              <trackindex>2</trackindex>
              <clipindex>1</clipindex>
              <groupindex>1</groupindex>
            </link>
            <link>
              <linkclipref>clipitem-361</linkclipref>
              <mediatype>audio</mediatype>
              <trackindex>3</trackindex>
              <clipindex>1</clipindex>
              <groupindex>1</groupindex>
            </link>
            <link>
              <linkclipref>clipitem-362</linkclipref>
              <mediatype>audio</mediatype>
              <trackindex>4</trackindex>
              <clipindex>1</clipindex>
              <groupindex>1</groupindex>
            </link>
            <link>
              <linkclipref>clipitem-363</linkclipref>
              <mediatype>audio</mediatype>
              <trackindex>5</trackindex>
              <clipindex>1</clipindex>
              <groupindex>1</groupindex>
            </link>
            <link>
              <linkclipref>clipitem-364</linkclipref>
              <mediatype>audio</mediatype>
              <trackindex>6</trackindex>
              <clipindex>1</clipindex>
              <groupindex>1</groupindex>
            </link>
          </clipitem>
          <clipitem id="clipitem-371" premiereChannelType="Stereo">
            <masterclipid>masterclip-2</masterclipid>
            <name>2023-04-01 13-58-58溪神带飞王源5KCC.mp4</name>
            <enabled>TRUE</enabled>
            <rate>
              <timebase>60</timebase>
              <ntsc>FALSE</ntsc>
            </rate>
            <start>7192</start>
            <end>7401</end>
            <in>49153</in>
            <out>49362</out>
            <file id="file-2"/>
            <sourcetrack>
              <mediatype>audio</mediatype>
              <trackindex>3</trackindex>
            </sourcetrack>
            <link>
              <linkclipref>clipitem-365</linkclipref>
              <mediatype>video</mediatype>
              <trackindex>1</trackindex>
              <clipindex>1</clipindex>
            </link>
            <link>
              <linkclipref>clipitem-366</linkclipref>
              <mediatype>audio</mediatype>
              <trackindex>1</trackindex>
              <clipindex>1</clipindex>
              <groupindex>1</groupindex>
            </link>
            <link>
              <linkclipref>clipitem-367</linkclipref>
              <mediatype>audio</mediatype>
              <trackindex>2</trackindex>
              <clipindex>1</clipindex>
              <groupindex>1</groupindex>
            </link>
            <link>
              <linkclipref>clipitem-368</linkclipref>
              <mediatype>audio</mediatype>
              <trackindex>3</trackindex>
              <clipindex>1</clipindex>
              <groupindex>1</groupindex>
            </link>
            <link>
              <linkclipref>clipitem-369</linkclipref>
              <mediatype>audio</mediatype>
              <trackindex>4</trackindex>
              <clipindex>1</clipindex>
              <groupindex>1</groupindex>
            </link>
            <link>
              <linkclipref>clipitem-370</linkclipref>
              <mediatype>audio</mediatype>
              <trackindex>5</trackindex>
              <clipindex>1</clipindex>
              <groupindex>1</groupindex>
            </link>
            <link>
              <linkclipref>clipitem-371</linkclipref>
              <mediatype>audio</mediatype>
              <trackindex>6</trackindex>
              <clipindex>1</clipindex>
              <groupindex>1</groupindex>
            </link>
          </clipitem>
          <clipitem id="clipitem-378" premiereChannelType="Stereo">
            <masterclipid>masterclip-2</masterclipid>
            <name>2023-04-01 13-58-58溪神带飞王源5KCC.mp4</name>
            <enabled>TRUE</enabled>
            <rate>
              <timebase>60</timebase>
              <ntsc>FALSE</ntsc>
            </rate>
            <start>7401</start>
            <end>7529</end>
            <in>49768</in>
            <out>49896</out>
            <file id="file-2"/>
            <sourcetrack>
              <mediatype>audio</mediatype>
              <trackindex>3</trackindex>
            </sourcetrack>
            <link>
              <linkclipref>clipitem-372</linkclipref>
              <mediatype>video</mediatype>
              <trackindex>1</trackindex>
              <clipindex>1</clipindex>
            </link>
            <link>
              <linkclipref>clipitem-373</linkclipref>
              <mediatype>audio</mediatype>
              <trackindex>1</trackindex>
              <clipindex>1</clipindex>
              <groupindex>1</groupindex>
            </link>
            <link>
              <linkclipref>clipitem-374</linkclipref>
              <mediatype>audio</mediatype>
              <trackindex>2</trackindex>
              <clipindex>1</clipindex>
              <groupindex>1</groupindex>
            </link>
            <link>
              <linkclipref>clipitem-375</linkclipref>
              <mediatype>audio</mediatype>
              <trackindex>3</trackindex>
              <clipindex>1</clipindex>
              <groupindex>1</groupindex>
            </link>
            <link>
              <linkclipref>clipitem-376</linkclipref>
              <mediatype>audio</mediatype>
              <trackindex>4</trackindex>
              <clipindex>1</clipindex>
              <groupindex>1</groupindex>
            </link>
            <link>
              <linkclipref>clipitem-377</linkclipref>
              <mediatype>audio</mediatype>
              <trackindex>5</trackindex>
              <clipindex>1</clipindex>
              <groupindex>1</groupindex>
            </link>
            <link>
              <linkclipref>clipitem-378</linkclipref>
              <mediatype>audio</mediatype>
              <trackindex>6</trackindex>
              <clipindex>1</clipindex>
              <groupindex>1</groupindex>
            </link>
          </clipitem>
          <clipitem id="clipitem-385" premiereChannelType="Stereo">
            <masterclipid>masterclip-2</masterclipid>
            <name>2023-04-01 13-58-58溪神带飞王源5KCC.mp4</name>
            <enabled>TRUE</enabled>
            <rate>
              <timebase>60</timebase>
              <ntsc>FALSE</ntsc>
            </rate>
            <start>7529</start>
            <end>7724</end>
            <in>52898</in>
            <out>53093</out>
            <file id="file-2"/>
            <sourcetrack>
              <mediatype>audio</mediatype>
              <trackindex>3</trackindex>
            </sourcetrack>
            <link>
              <linkclipref>clipitem-379</linkclipref>
              <mediatype>video</mediatype>
              <trackindex>1</trackindex>
              <clipindex>1</clipindex>
            </link>
            <link>
              <linkclipref>clipitem-380</linkclipref>
              <mediatype>audio</mediatype>
              <trackindex>1</trackindex>
              <clipindex>1</clipindex>
              <groupindex>1</groupindex>
            </link>
            <link>
              <linkclipref>clipitem-381</linkclipref>
              <mediatype>audio</mediatype>
              <trackindex>2</trackindex>
              <clipindex>1</clipindex>
              <groupindex>1</groupindex>
            </link>
            <link>
              <linkclipref>clipitem-382</linkclipref>
              <mediatype>audio</mediatype>
              <trackindex>3</trackindex>
              <clipindex>1</clipindex>
              <groupindex>1</groupindex>
            </link>
            <link>
              <linkclipref>clipitem-383</linkclipref>
              <mediatype>audio</mediatype>
              <trackindex>4</trackindex>
              <clipindex>1</clipindex>
              <groupindex>1</groupindex>
            </link>
            <link>
              <linkclipref>clipitem-384</linkclipref>
              <mediatype>audio</mediatype>
              <trackindex>5</trackindex>
              <clipindex>1</clipindex>
              <groupindex>1</groupindex>
            </link>
            <link>
              <linkclipref>clipitem-385</linkclipref>
              <mediatype>audio</mediatype>
              <trackindex>6</trackindex>
              <clipindex>1</clipindex>
              <groupindex>1</groupindex>
            </link>
          </clipitem>
          <clipitem id="clipitem-392" premiereChannelType="Stereo">
            <masterclipid>masterclip-2</masterclipid>
            <name>2023-04-01 13-58-58溪神带飞王源5KCC.mp4</name>
            <enabled>TRUE</enabled>
            <rate>
              <timebase>60</timebase>
              <ntsc>FALSE</ntsc>
            </rate>
            <start>7724</start>
            <end>7856</end>
            <in>53201</in>
            <out>53333</out>
            <file id="file-2"/>
            <sourcetrack>
              <mediatype>audio</mediatype>
              <trackindex>3</trackindex>
            </sourcetrack>
            <link>
              <linkclipref>clipitem-386</linkclipref>
              <mediatype>video</mediatype>
              <trackindex>1</trackindex>
              <clipindex>1</clipindex>
            </link>
            <link>
              <linkclipref>clipitem-387</linkclipref>
              <mediatype>audio</mediatype>
              <trackindex>1</trackindex>
              <clipindex>1</clipindex>
              <groupindex>1</groupindex>
            </link>
            <link>
              <linkclipref>clipitem-388</linkclipref>
              <mediatype>audio</mediatype>
              <trackindex>2</trackindex>
              <clipindex>1</clipindex>
              <groupindex>1</groupindex>
            </link>
            <link>
              <linkclipref>clipitem-389</linkclipref>
              <mediatype>audio</mediatype>
              <trackindex>3</trackindex>
              <clipindex>1</clipindex>
              <groupindex>1</groupindex>
            </link>
            <link>
              <linkclipref>clipitem-390</linkclipref>
              <mediatype>audio</mediatype>
              <trackindex>4</trackindex>
              <clipindex>1</clipindex>
              <groupindex>1</groupindex>
            </link>
            <link>
              <linkclipref>clipitem-391</linkclipref>
              <mediatype>audio</mediatype>
              <trackindex>5</trackindex>
              <clipindex>1</clipindex>
              <groupindex>1</groupindex>
            </link>
            <link>
              <linkclipref>clipitem-392</linkclipref>
              <mediatype>audio</mediatype>
              <trackindex>6</trackindex>
              <clipindex>1</clipindex>
              <groupindex>1</groupindex>
            </link>
          </clipitem>
          <clipitem id="clipitem-399" premiereChannelType="Stereo">
            <masterclipid>masterclip-2</masterclipid>
            <name>2023-04-01 13-58-58溪神带飞王源5KCC.mp4</name>
            <enabled>TRUE</enabled>
            <rate>
              <timebase>60</timebase>
              <ntsc>FALSE</ntsc>
            </rate>
            <start>7856</start>
            <end>8015</end>
            <in>53758</in>
            <out>53917</out>
            <file id="file-2"/>
            <sourcetrack>
              <mediatype>audio</mediatype>
              <trackindex>3</trackindex>
            </sourcetrack>
            <link>
              <linkclipref>clipitem-393</linkclipref>
              <mediatype>video</mediatype>
              <trackindex>1</trackindex>
              <clipindex>1</clipindex>
            </link>
            <link>
              <linkclipref>clipitem-394</linkclipref>
              <mediatype>audio</mediatype>
              <trackindex>1</trackindex>
              <clipindex>1</clipindex>
              <groupindex>1</groupindex>
            </link>
            <link>
              <linkclipref>clipitem-395</linkclipref>
              <mediatype>audio</mediatype>
              <trackindex>2</trackindex>
              <clipindex>1</clipindex>
              <groupindex>1</groupindex>
            </link>
            <link>
              <linkclipref>clipitem-396</linkclipref>
              <mediatype>audio</mediatype>
              <trackindex>3</trackindex>
              <clipindex>1</clipindex>
              <groupindex>1</groupindex>
            </link>
            <link>
              <linkclipref>clipitem-397</linkclipref>
              <mediatype>audio</mediatype>
              <trackindex>4</trackindex>
              <clipindex>1</clipindex>
              <groupindex>1</groupindex>
            </link>
            <link>
              <linkclipref>clipitem-398</linkclipref>
              <mediatype>audio</mediatype>
              <trackindex>5</trackindex>
              <clipindex>1</clipindex>
              <groupindex>1</groupindex>
            </link>
            <link>
              <linkclipref>clipitem-399</linkclipref>
              <mediatype>audio</mediatype>
              <trackindex>6</trackindex>
              <clipindex>1</clipindex>
              <groupindex>1</groupindex>
            </link>
          </clipitem>
          <clipitem id="clipitem-406" premiereChannelType="Stereo">
            <masterclipid>masterclip-2</masterclipid>
            <name>2023-04-01 13-58-58溪神带飞王源5KCC.mp4</name>
            <enabled>TRUE</enabled>
            <rate>
              <timebase>60</timebase>
              <ntsc>FALSE</ntsc>
            </rate>
            <start>8015</start>
            <end>8211</end>
            <in>53964</in>
            <out>54160</out>
            <file id="file-2"/>
            <sourcetrack>
              <mediatype>audio</mediatype>
              <trackindex>3</trackindex>
            </sourcetrack>
            <link>
              <linkclipref>clipitem-400</linkclipref>
              <mediatype>video</mediatype>
              <trackindex>1</trackindex>
              <clipindex>1</clipindex>
            </link>
            <link>
              <linkclipref>clipitem-401</linkclipref>
              <mediatype>audio</mediatype>
              <trackindex>1</trackindex>
              <clipindex>1</clipindex>
              <groupindex>1</groupindex>
            </link>
            <link>
              <linkclipref>clipitem-402</linkclipref>
              <mediatype>audio</mediatype>
              <trackindex>2</trackindex>
              <clipindex>1</clipindex>
              <groupindex>1</groupindex>
            </link>
            <link>
              <linkclipref>clipitem-403</linkclipref>
              <mediatype>audio</mediatype>
              <trackindex>3</trackindex>
              <clipindex>1</clipindex>
              <groupindex>1</groupindex>
            </link>
            <link>
              <linkclipref>clipitem-404</linkclipref>
              <mediatype>audio</mediatype>
              <trackindex>4</trackindex>
              <clipindex>1</clipindex>
              <groupindex>1</groupindex>
            </link>
            <link>
              <linkclipref>clipitem-405</linkclipref>
              <mediatype>audio</mediatype>
              <trackindex>5</trackindex>
              <clipindex>1</clipindex>
              <groupindex>1</groupindex>
            </link>
            <link>
              <linkclipref>clipitem-406</linkclipref>
              <mediatype>audio</mediatype>
              <trackindex>6</trackindex>
              <clipindex>1</clipindex>
              <groupindex>1</groupindex>
            </link>
          </clipitem>
          <clipitem id="clipitem-413" premiereChannelType="Stereo">
            <masterclipid>masterclip-2</masterclipid>
            <name>2023-04-01 13-58-58溪神带飞王源5KCC.mp4</name>
            <enabled>TRUE</enabled>
            <rate>
              <timebase>60</timebase>
              <ntsc>FALSE</ntsc>
            </rate>
            <start>8211</start>
            <end>8325</end>
            <in>54222</in>
            <out>54336</out>
            <file id="file-2"/>
            <sourcetrack>
              <mediatype>audio</mediatype>
              <trackindex>3</trackindex>
            </sourcetrack>
            <link>
              <linkclipref>clipitem-407</linkclipref>
              <mediatype>video</mediatype>
              <trackindex>1</trackindex>
              <clipindex>1</clipindex>
            </link>
            <link>
              <linkclipref>clipitem-408</linkclipref>
              <mediatype>audio</mediatype>
              <trackindex>1</trackindex>
              <clipindex>1</clipindex>
              <groupindex>1</groupindex>
            </link>
            <link>
              <linkclipref>clipitem-409</linkclipref>
              <mediatype>audio</mediatype>
              <trackindex>2</trackindex>
              <clipindex>1</clipindex>
              <groupindex>1</groupindex>
            </link>
            <link>
              <linkclipref>clipitem-410</linkclipref>
              <mediatype>audio</mediatype>
              <trackindex>3</trackindex>
              <clipindex>1</clipindex>
              <groupindex>1</groupindex>
            </link>
            <link>
              <linkclipref>clipitem-411</linkclipref>
              <mediatype>audio</mediatype>
              <trackindex>4</trackindex>
              <clipindex>1</clipindex>
              <groupindex>1</groupindex>
            </link>
            <link>
              <linkclipref>clipitem-412</linkclipref>
              <mediatype>audio</mediatype>
              <trackindex>5</trackindex>
              <clipindex>1</clipindex>
              <groupindex>1</groupindex>
            </link>
            <link>
              <linkclipref>clipitem-413</linkclipref>
              <mediatype>audio</mediatype>
              <trackindex>6</trackindex>
              <clipindex>1</clipindex>
              <groupindex>1</groupindex>
            </link>
          </clipitem>
          <clipitem id="clipitem-420" premiereChannelType="Stereo">
            <masterclipid>masterclip-2</masterclipid>
            <name>2023-04-01 13-58-58溪神带飞王源5KCC.mp4</name>
            <enabled>TRUE</enabled>
            <rate>
              <timebase>60</timebase>
              <ntsc>FALSE</ntsc>
            </rate>
            <start>8325</start>
            <end>8452</end>
            <in>58783</in>
            <out>58910</out>
            <file id="file-2"/>
            <sourcetrack>
              <mediatype>audio</mediatype>
              <trackindex>3</trackindex>
            </sourcetrack>
            <link>
              <linkclipref>clipitem-414</linkclipref>
              <mediatype>video</mediatype>
              <trackindex>1</trackindex>
              <clipindex>1</clipindex>
            </link>
            <link>
              <linkclipref>clipitem-415</linkclipref>
              <mediatype>audio</mediatype>
              <trackindex>1</trackindex>
              <clipindex>1</clipindex>
              <groupindex>1</groupindex>
            </link>
            <link>
              <linkclipref>clipitem-416</linkclipref>
              <mediatype>audio</mediatype>
              <trackindex>2</trackindex>
              <clipindex>1</clipindex>
              <groupindex>1</groupindex>
            </link>
            <link>
              <linkclipref>clipitem-417</linkclipref>
              <mediatype>audio</mediatype>
              <trackindex>3</trackindex>
              <clipindex>1</clipindex>
              <groupindex>1</groupindex>
            </link>
            <link>
              <linkclipref>clipitem-418</linkclipref>
              <mediatype>audio</mediatype>
              <trackindex>4</trackindex>
              <clipindex>1</clipindex>
              <groupindex>1</groupindex>
            </link>
            <link>
              <linkclipref>clipitem-419</linkclipref>
              <mediatype>audio</mediatype>
              <trackindex>5</trackindex>
              <clipindex>1</clipindex>
              <groupindex>1</groupindex>
            </link>
            <link>
              <linkclipref>clipitem-420</linkclipref>
              <mediatype>audio</mediatype>
              <trackindex>6</trackindex>
              <clipindex>1</clipindex>
              <groupindex>1</groupindex>
            </link>
          </clipitem>
          <clipitem id="clipitem-427" premiereChannelType="Stereo">
            <masterclipid>masterclip-2</masterclipid>
            <name>2023-04-01 13-58-58溪神带飞王源5KCC.mp4</name>
            <enabled>TRUE</enabled>
            <rate>
              <timebase>60</timebase>
              <ntsc>FALSE</ntsc>
            </rate>
            <start>8452</start>
            <end>8604</end>
            <in>61335</in>
            <out>61487</out>
            <file id="file-2"/>
            <sourcetrack>
              <mediatype>audio</mediatype>
              <trackindex>3</trackindex>
            </sourcetrack>
            <link>
              <linkclipref>clipitem-421</linkclipref>
              <mediatype>video</mediatype>
              <trackindex>1</trackindex>
              <clipindex>1</clipindex>
            </link>
            <link>
              <linkclipref>clipitem-422</linkclipref>
              <mediatype>audio</mediatype>
              <trackindex>1</trackindex>
              <clipindex>1</clipindex>
              <groupindex>1</groupindex>
            </link>
            <link>
              <linkclipref>clipitem-423</linkclipref>
              <mediatype>audio</mediatype>
              <trackindex>2</trackindex>
              <clipindex>1</clipindex>
              <groupindex>1</groupindex>
            </link>
            <link>
              <linkclipref>clipitem-424</linkclipref>
              <mediatype>audio</mediatype>
              <trackindex>3</trackindex>
              <clipindex>1</clipindex>
              <groupindex>1</groupindex>
            </link>
            <link>
              <linkclipref>clipitem-425</linkclipref>
              <mediatype>audio</mediatype>
              <trackindex>4</trackindex>
              <clipindex>1</clipindex>
              <groupindex>1</groupindex>
            </link>
            <link>
              <linkclipref>clipitem-426</linkclipref>
              <mediatype>audio</mediatype>
              <trackindex>5</trackindex>
              <clipindex>1</clipindex>
              <groupindex>1</groupindex>
            </link>
            <link>
              <linkclipref>clipitem-427</linkclipref>
              <mediatype>audio</mediatype>
              <trackindex>6</trackindex>
              <clipindex>1</clipindex>
              <groupindex>1</groupindex>
            </link>
          </clipitem>
          <clipitem id="clipitem-434" premiereChannelType="Stereo">
            <masterclipid>masterclip-2</masterclipid>
            <name>2023-04-01 13-58-58溪神带飞王源5KCC.mp4</name>
            <enabled>TRUE</enabled>
            <rate>
              <timebase>60</timebase>
              <ntsc>FALSE</ntsc>
            </rate>
            <start>8604</start>
            <end>8663</end>
            <in>61479</in>
            <out>61538</out>
            <file id="file-2"/>
            <sourcetrack>
              <mediatype>audio</mediatype>
              <trackindex>3</trackindex>
            </sourcetrack>
            <link>
              <linkclipref>clipitem-428</linkclipref>
              <mediatype>video</mediatype>
              <trackindex>1</trackindex>
              <clipindex>1</clipindex>
            </link>
            <link>
              <linkclipref>clipitem-429</linkclipref>
              <mediatype>audio</mediatype>
              <trackindex>1</trackindex>
              <clipindex>1</clipindex>
              <groupindex>1</groupindex>
            </link>
            <link>
              <linkclipref>clipitem-430</linkclipref>
              <mediatype>audio</mediatype>
              <trackindex>2</trackindex>
              <clipindex>1</clipindex>
              <groupindex>1</groupindex>
            </link>
            <link>
              <linkclipref>clipitem-431</linkclipref>
              <mediatype>audio</mediatype>
              <trackindex>3</trackindex>
              <clipindex>1</clipindex>
              <groupindex>1</groupindex>
            </link>
            <link>
              <linkclipref>clipitem-432</linkclipref>
              <mediatype>audio</mediatype>
              <trackindex>4</trackindex>
              <clipindex>1</clipindex>
              <groupindex>1</groupindex>
            </link>
            <link>
              <linkclipref>clipitem-433</linkclipref>
              <mediatype>audio</mediatype>
              <trackindex>5</trackindex>
              <clipindex>1</clipindex>
              <groupindex>1</groupindex>
            </link>
            <link>
              <linkclipref>clipitem-434</linkclipref>
              <mediatype>audio</mediatype>
              <trackindex>6</trackindex>
              <clipindex>1</clipindex>
              <groupindex>1</groupindex>
            </link>
          </clipitem>
          <clipitem id="clipitem-441" premiereChannelType="Stereo">
            <masterclipid>masterclip-2</masterclipid>
            <name>2023-04-01 13-58-58溪神带飞王源5KCC.mp4</name>
            <enabled>TRUE</enabled>
            <rate>
              <timebase>60</timebase>
              <ntsc>FALSE</ntsc>
            </rate>
            <start>8663</start>
            <end>8756</end>
            <in>61668</in>
            <out>61761</out>
            <file id="file-2"/>
            <sourcetrack>
              <mediatype>audio</mediatype>
              <trackindex>3</trackindex>
            </sourcetrack>
            <link>
              <linkclipref>clipitem-435</linkclipref>
              <mediatype>video</mediatype>
              <trackindex>1</trackindex>
              <clipindex>1</clipindex>
            </link>
            <link>
              <linkclipref>clipitem-436</linkclipref>
              <mediatype>audio</mediatype>
              <trackindex>1</trackindex>
              <clipindex>1</clipindex>
              <groupindex>1</groupindex>
            </link>
            <link>
              <linkclipref>clipitem-437</linkclipref>
              <mediatype>audio</mediatype>
              <trackindex>2</trackindex>
              <clipindex>1</clipindex>
              <groupindex>1</groupindex>
            </link>
            <link>
              <linkclipref>clipitem-438</linkclipref>
              <mediatype>audio</mediatype>
              <trackindex>3</trackindex>
              <clipindex>1</clipindex>
              <groupindex>1</groupindex>
            </link>
            <link>
              <linkclipref>clipitem-439</linkclipref>
              <mediatype>audio</mediatype>
              <trackindex>4</trackindex>
              <clipindex>1</clipindex>
              <groupindex>1</groupindex>
            </link>
            <link>
              <linkclipref>clipitem-440</linkclipref>
              <mediatype>audio</mediatype>
              <trackindex>5</trackindex>
              <clipindex>1</clipindex>
              <groupindex>1</groupindex>
            </link>
            <link>
              <linkclipref>clipitem-441</linkclipref>
              <mediatype>audio</mediatype>
              <trackindex>6</trackindex>
              <clipindex>1</clipindex>
              <groupindex>1</groupindex>
            </link>
          </clipitem>
          <clipitem id="clipitem-448" premiereChannelType="Stereo">
            <masterclipid>masterclip-2</masterclipid>
            <name>2023-04-01 13-58-58溪神带飞王源5KCC.mp4</name>
            <enabled>TRUE</enabled>
            <rate>
              <timebase>60</timebase>
              <ntsc>FALSE</ntsc>
            </rate>
            <start>8756</start>
            <end>8834</end>
            <in>63731</in>
            <out>63809</out>
            <file id="file-2"/>
            <sourcetrack>
              <mediatype>audio</mediatype>
              <trackindex>3</trackindex>
            </sourcetrack>
            <link>
              <linkclipref>clipitem-442</linkclipref>
              <mediatype>video</mediatype>
              <trackindex>1</trackindex>
              <clipindex>1</clipindex>
            </link>
            <link>
              <linkclipref>clipitem-443</linkclipref>
              <mediatype>audio</mediatype>
              <trackindex>1</trackindex>
              <clipindex>1</clipindex>
              <groupindex>1</groupindex>
            </link>
            <link>
              <linkclipref>clipitem-444</linkclipref>
              <mediatype>audio</mediatype>
              <trackindex>2</trackindex>
              <clipindex>1</clipindex>
              <groupindex>1</groupindex>
            </link>
            <link>
              <linkclipref>clipitem-445</linkclipref>
              <mediatype>audio</mediatype>
              <trackindex>3</trackindex>
              <clipindex>1</clipindex>
              <groupindex>1</groupindex>
            </link>
            <link>
              <linkclipref>clipitem-446</linkclipref>
              <mediatype>audio</mediatype>
              <trackindex>4</trackindex>
              <clipindex>1</clipindex>
              <groupindex>1</groupindex>
            </link>
            <link>
              <linkclipref>clipitem-447</linkclipref>
              <mediatype>audio</mediatype>
              <trackindex>5</trackindex>
              <clipindex>1</clipindex>
              <groupindex>1</groupindex>
            </link>
            <link>
              <linkclipref>clipitem-448</linkclipref>
              <mediatype>audio</mediatype>
              <trackindex>6</trackindex>
              <clipindex>1</clipindex>
              <groupindex>1</groupindex>
            </link>
          </clipitem>
          <clipitem id="clipitem-455" premiereChannelType="Stereo">
            <masterclipid>masterclip-2</masterclipid>
            <name>2023-04-01 13-58-58溪神带飞王源5KCC.mp4</name>
            <enabled>TRUE</enabled>
            <rate>
              <timebase>60</timebase>
              <ntsc>FALSE</ntsc>
            </rate>
            <start>8834</start>
            <end>8926</end>
            <in>65937</in>
            <out>66029</out>
            <file id="file-2"/>
            <sourcetrack>
              <mediatype>audio</mediatype>
              <trackindex>3</trackindex>
            </sourcetrack>
            <link>
              <linkclipref>clipitem-449</linkclipref>
              <mediatype>video</mediatype>
              <trackindex>1</trackindex>
              <clipindex>1</clipindex>
            </link>
            <link>
              <linkclipref>clipitem-450</linkclipref>
              <mediatype>audio</mediatype>
              <trackindex>1</trackindex>
              <clipindex>1</clipindex>
              <groupindex>1</groupindex>
            </link>
            <link>
              <linkclipref>clipitem-451</linkclipref>
              <mediatype>audio</mediatype>
              <trackindex>2</trackindex>
              <clipindex>1</clipindex>
              <groupindex>1</groupindex>
            </link>
            <link>
              <linkclipref>clipitem-452</linkclipref>
              <mediatype>audio</mediatype>
              <trackindex>3</trackindex>
              <clipindex>1</clipindex>
              <groupindex>1</groupindex>
            </link>
            <link>
              <linkclipref>clipitem-453</linkclipref>
              <mediatype>audio</mediatype>
              <trackindex>4</trackindex>
              <clipindex>1</clipindex>
              <groupindex>1</groupindex>
            </link>
            <link>
              <linkclipref>clipitem-454</linkclipref>
              <mediatype>audio</mediatype>
              <trackindex>5</trackindex>
              <clipindex>1</clipindex>
              <groupindex>1</groupindex>
            </link>
            <link>
              <linkclipref>clipitem-455</linkclipref>
              <mediatype>audio</mediatype>
              <trackindex>6</trackindex>
              <clipindex>1</clipindex>
              <groupindex>1</groupindex>
            </link>
          </clipitem>
          <clipitem id="clipitem-462" premiereChannelType="Stereo">
            <masterclipid>masterclip-2</masterclipid>
            <name>2023-04-01 13-58-58溪神带飞王源5KCC.mp4</name>
            <enabled>TRUE</enabled>
            <rate>
              <timebase>60</timebase>
              <ntsc>FALSE</ntsc>
            </rate>
            <start>8926</start>
            <end>9026</end>
            <in>67489</in>
            <out>67589</out>
            <file id="file-2"/>
            <sourcetrack>
              <mediatype>audio</mediatype>
              <trackindex>3</trackindex>
            </sourcetrack>
            <link>
              <linkclipref>clipitem-456</linkclipref>
              <mediatype>video</mediatype>
              <trackindex>1</trackindex>
              <clipindex>1</clipindex>
            </link>
            <link>
              <linkclipref>clipitem-457</linkclipref>
              <mediatype>audio</mediatype>
              <trackindex>1</trackindex>
              <clipindex>1</clipindex>
              <groupindex>1</groupindex>
            </link>
            <link>
              <linkclipref>clipitem-458</linkclipref>
              <mediatype>audio</mediatype>
              <trackindex>2</trackindex>
              <clipindex>1</clipindex>
              <groupindex>1</groupindex>
            </link>
            <link>
              <linkclipref>clipitem-459</linkclipref>
              <mediatype>audio</mediatype>
              <trackindex>3</trackindex>
              <clipindex>1</clipindex>
              <groupindex>1</groupindex>
            </link>
            <link>
              <linkclipref>clipitem-460</linkclipref>
              <mediatype>audio</mediatype>
              <trackindex>4</trackindex>
              <clipindex>1</clipindex>
              <groupindex>1</groupindex>
            </link>
            <link>
              <linkclipref>clipitem-461</linkclipref>
              <mediatype>audio</mediatype>
              <trackindex>5</trackindex>
              <clipindex>1</clipindex>
              <groupindex>1</groupindex>
            </link>
            <link>
              <linkclipref>clipitem-462</linkclipref>
              <mediatype>audio</mediatype>
              <trackindex>6</trackindex>
              <clipindex>1</clipindex>
              <groupindex>1</groupindex>
            </link>
          </clipitem>
          <clipitem id="clipitem-469" premiereChannelType="Stereo">
            <masterclipid>masterclip-2</masterclipid>
            <name>2023-04-01 13-58-58溪神带飞王源5KCC.mp4</name>
            <enabled>TRUE</enabled>
            <rate>
              <timebase>60</timebase>
              <ntsc>FALSE</ntsc>
            </rate>
            <start>9026</start>
            <end>9186</end>
            <in>69990</in>
            <out>70150</out>
            <file id="file-2"/>
            <sourcetrack>
              <mediatype>audio</mediatype>
              <trackindex>3</trackindex>
            </sourcetrack>
            <link>
              <linkclipref>clipitem-463</linkclipref>
              <mediatype>video</mediatype>
              <trackindex>1</trackindex>
              <clipindex>1</clipindex>
            </link>
            <link>
              <linkclipref>clipitem-464</linkclipref>
              <mediatype>audio</mediatype>
              <trackindex>1</trackindex>
              <clipindex>1</clipindex>
              <groupindex>1</groupindex>
            </link>
            <link>
              <linkclipref>clipitem-465</linkclipref>
              <mediatype>audio</mediatype>
              <trackindex>2</trackindex>
              <clipindex>1</clipindex>
              <groupindex>1</groupindex>
            </link>
            <link>
              <linkclipref>clipitem-466</linkclipref>
              <mediatype>audio</mediatype>
              <trackindex>3</trackindex>
              <clipindex>1</clipindex>
              <groupindex>1</groupindex>
            </link>
            <link>
              <linkclipref>clipitem-467</linkclipref>
              <mediatype>audio</mediatype>
              <trackindex>4</trackindex>
              <clipindex>1</clipindex>
              <groupindex>1</groupindex>
            </link>
            <link>
              <linkclipref>clipitem-468</linkclipref>
              <mediatype>audio</mediatype>
              <trackindex>5</trackindex>
              <clipindex>1</clipindex>
              <groupindex>1</groupindex>
            </link>
            <link>
              <linkclipref>clipitem-469</linkclipref>
              <mediatype>audio</mediatype>
              <trackindex>6</trackindex>
              <clipindex>1</clipindex>
              <groupindex>1</groupindex>
            </link>
          </clipitem>
          <clipitem id="clipitem-476" premiereChannelType="Stereo">
            <masterclipid>masterclip-2</masterclipid>
            <name>2023-04-01 13-58-58溪神带飞王源5KCC.mp4</name>
            <enabled>TRUE</enabled>
            <rate>
              <timebase>60</timebase>
              <ntsc>FALSE</ntsc>
            </rate>
            <start>9186</start>
            <end>9346</end>
            <in>70337</in>
            <out>70497</out>
            <file id="file-2"/>
            <sourcetrack>
              <mediatype>audio</mediatype>
              <trackindex>3</trackindex>
            </sourcetrack>
            <link>
              <linkclipref>clipitem-470</linkclipref>
              <mediatype>video</mediatype>
              <trackindex>1</trackindex>
              <clipindex>1</clipindex>
            </link>
            <link>
              <linkclipref>clipitem-471</linkclipref>
              <mediatype>audio</mediatype>
              <trackindex>1</trackindex>
              <clipindex>1</clipindex>
              <groupindex>1</groupindex>
            </link>
            <link>
              <linkclipref>clipitem-472</linkclipref>
              <mediatype>audio</mediatype>
              <trackindex>2</trackindex>
              <clipindex>1</clipindex>
              <groupindex>1</groupindex>
            </link>
            <link>
              <linkclipref>clipitem-473</linkclipref>
              <mediatype>audio</mediatype>
              <trackindex>3</trackindex>
              <clipindex>1</clipindex>
              <groupindex>1</groupindex>
            </link>
            <link>
              <linkclipref>clipitem-474</linkclipref>
              <mediatype>audio</mediatype>
              <trackindex>4</trackindex>
              <clipindex>1</clipindex>
              <groupindex>1</groupindex>
            </link>
            <link>
              <linkclipref>clipitem-475</linkclipref>
              <mediatype>audio</mediatype>
              <trackindex>5</trackindex>
              <clipindex>1</clipindex>
              <groupindex>1</groupindex>
            </link>
            <link>
              <linkclipref>clipitem-476</linkclipref>
              <mediatype>audio</mediatype>
              <trackindex>6</trackindex>
              <clipindex>1</clipindex>
              <groupindex>1</groupindex>
            </link>
          </clipitem>
          <clipitem id="clipitem-483" premiereChannelType="Stereo">
            <masterclipid>masterclip-2</masterclipid>
            <name>2023-04-01 13-58-58溪神带飞王源5KCC.mp4</name>
            <enabled>TRUE</enabled>
            <rate>
              <timebase>60</timebase>
              <ntsc>FALSE</ntsc>
            </rate>
            <start>9346</start>
            <end>9428</end>
            <in>72878</in>
            <out>72960</out>
            <file id="file-2"/>
            <sourcetrack>
              <mediatype>audio</mediatype>
              <trackindex>3</trackindex>
            </sourcetrack>
            <link>
              <linkclipref>clipitem-477</linkclipref>
              <mediatype>video</mediatype>
              <trackindex>1</trackindex>
              <clipindex>1</clipindex>
            </link>
            <link>
              <linkclipref>clipitem-478</linkclipref>
              <mediatype>audio</mediatype>
              <trackindex>1</trackindex>
              <clipindex>1</clipindex>
              <groupindex>1</groupindex>
            </link>
            <link>
              <linkclipref>clipitem-479</linkclipref>
              <mediatype>audio</mediatype>
              <trackindex>2</trackindex>
              <clipindex>1</clipindex>
              <groupindex>1</groupindex>
            </link>
            <link>
              <linkclipref>clipitem-480</linkclipref>
              <mediatype>audio</mediatype>
              <trackindex>3</trackindex>
              <clipindex>1</clipindex>
              <groupindex>1</groupindex>
            </link>
            <link>
              <linkclipref>clipitem-481</linkclipref>
              <mediatype>audio</mediatype>
              <trackindex>4</trackindex>
              <clipindex>1</clipindex>
              <groupindex>1</groupindex>
            </link>
            <link>
              <linkclipref>clipitem-482</linkclipref>
              <mediatype>audio</mediatype>
              <trackindex>5</trackindex>
              <clipindex>1</clipindex>
              <groupindex>1</groupindex>
            </link>
            <link>
              <linkclipref>clipitem-483</linkclipref>
              <mediatype>audio</mediatype>
              <trackindex>6</trackindex>
              <clipindex>1</clipindex>
              <groupindex>1</groupindex>
            </link>
          </clipitem>
          <clipitem id="clipitem-490" premiereChannelType="Stereo">
            <masterclipid>masterclip-3</masterclipid>
            <name>2023-03-30 21-15-31艾许决赛圈2V6 8KCC.mp4</name>
            <enabled>TRUE</enabled>
            <rate>
              <timebase>60</timebase>
              <ntsc>FALSE</ntsc>
            </rate>
            <start>9428</start>
            <end>9920</end>
            <in>3281</in>
            <out>3773</out>
            <file id="file-3"/>
            <sourcetrack>
              <mediatype>audio</mediatype>
              <trackindex>3</trackindex>
            </sourcetrack>
            <link>
              <linkclipref>clipitem-484</linkclipref>
              <mediatype>video</mediatype>
              <trackindex>1</trackindex>
              <clipindex>1</clipindex>
            </link>
            <link>
              <linkclipref>clipitem-485</linkclipref>
              <mediatype>audio</mediatype>
              <trackindex>1</trackindex>
              <clipindex>1</clipindex>
              <groupindex>1</groupindex>
            </link>
            <link>
              <linkclipref>clipitem-486</linkclipref>
              <mediatype>audio</mediatype>
              <trackindex>2</trackindex>
              <clipindex>1</clipindex>
              <groupindex>1</groupindex>
            </link>
            <link>
              <linkclipref>clipitem-487</linkclipref>
              <mediatype>audio</mediatype>
              <trackindex>3</trackindex>
              <clipindex>1</clipindex>
              <groupindex>1</groupindex>
            </link>
            <link>
              <linkclipref>clipitem-488</linkclipref>
              <mediatype>audio</mediatype>
              <trackindex>4</trackindex>
              <clipindex>1</clipindex>
              <groupindex>1</groupindex>
            </link>
            <link>
              <linkclipref>clipitem-489</linkclipref>
              <mediatype>audio</mediatype>
              <trackindex>5</trackindex>
              <clipindex>1</clipindex>
              <groupindex>1</groupindex>
            </link>
            <link>
              <linkclipref>clipitem-490</linkclipref>
              <mediatype>audio</mediatype>
              <trackindex>6</trackindex>
              <clipindex>1</clipindex>
              <groupindex>1</groupindex>
            </link>
          </clipitem>
          <clipitem id="clipitem-497" premiereChannelType="Stereo">
            <masterclipid>masterclip-3</masterclipid>
            <name>2023-03-30 21-15-31艾许决赛圈2V6 8KCC.mp4</name>
            <enabled>TRUE</enabled>
            <rate>
              <timebase>60</timebase>
              <ntsc>FALSE</ntsc>
            </rate>
            <start>9920</start>
            <end>10196</end>
            <in>7193</in>
            <out>7469</out>
            <file id="file-3"/>
            <sourcetrack>
              <mediatype>audio</mediatype>
              <trackindex>3</trackindex>
            </sourcetrack>
            <link>
              <linkclipref>clipitem-491</linkclipref>
              <mediatype>video</mediatype>
              <trackindex>1</trackindex>
              <clipindex>1</clipindex>
            </link>
            <link>
              <linkclipref>clipitem-492</linkclipref>
              <mediatype>audio</mediatype>
              <trackindex>1</trackindex>
              <clipindex>1</clipindex>
              <groupindex>1</groupindex>
            </link>
            <link>
              <linkclipref>clipitem-493</linkclipref>
              <mediatype>audio</mediatype>
              <trackindex>2</trackindex>
              <clipindex>1</clipindex>
              <groupindex>1</groupindex>
            </link>
            <link>
              <linkclipref>clipitem-494</linkclipref>
              <mediatype>audio</mediatype>
              <trackindex>3</trackindex>
              <clipindex>1</clipindex>
              <groupindex>1</groupindex>
            </link>
            <link>
              <linkclipref>clipitem-495</linkclipref>
              <mediatype>audio</mediatype>
              <trackindex>4</trackindex>
              <clipindex>1</clipindex>
              <groupindex>1</groupindex>
            </link>
            <link>
              <linkclipref>clipitem-496</linkclipref>
              <mediatype>audio</mediatype>
              <trackindex>5</trackindex>
              <clipindex>1</clipindex>
              <groupindex>1</groupindex>
            </link>
            <link>
              <linkclipref>clipitem-497</linkclipref>
              <mediatype>audio</mediatype>
              <trackindex>6</trackindex>
              <clipindex>1</clipindex>
              <groupindex>1</groupindex>
            </link>
          </clipitem>
          <clipitem id="clipitem-504" premiereChannelType="Stereo">
            <masterclipid>masterclip-3</masterclipid>
            <name>2023-03-30 21-15-31艾许决赛圈2V6 8KCC.mp4</name>
            <enabled>TRUE</enabled>
            <rate>
              <timebase>60</timebase>
              <ntsc>FALSE</ntsc>
            </rate>
            <start>10196</start>
            <end>10286</end>
            <in>7646</in>
            <out>7736</out>
            <file id="file-3"/>
            <sourcetrack>
              <mediatype>audio</mediatype>
              <trackindex>3</trackindex>
            </sourcetrack>
            <link>
              <linkclipref>clipitem-498</linkclipref>
              <mediatype>video</mediatype>
              <trackindex>1</trackindex>
              <clipindex>1</clipindex>
            </link>
            <link>
              <linkclipref>clipitem-499</linkclipref>
              <mediatype>audio</mediatype>
              <trackindex>1</trackindex>
              <clipindex>1</clipindex>
              <groupindex>1</groupindex>
            </link>
            <link>
              <linkclipref>clipitem-500</linkclipref>
              <mediatype>audio</mediatype>
              <trackindex>2</trackindex>
              <clipindex>1</clipindex>
              <groupindex>1</groupindex>
            </link>
            <link>
              <linkclipref>clipitem-501</linkclipref>
              <mediatype>audio</mediatype>
              <trackindex>3</trackindex>
              <clipindex>1</clipindex>
              <groupindex>1</groupindex>
            </link>
            <link>
              <linkclipref>clipitem-502</linkclipref>
              <mediatype>audio</mediatype>
              <trackindex>4</trackindex>
              <clipindex>1</clipindex>
              <groupindex>1</groupindex>
            </link>
            <link>
              <linkclipref>clipitem-503</linkclipref>
              <mediatype>audio</mediatype>
              <trackindex>5</trackindex>
              <clipindex>1</clipindex>
              <groupindex>1</groupindex>
            </link>
            <link>
              <linkclipref>clipitem-504</linkclipref>
              <mediatype>audio</mediatype>
              <trackindex>6</trackindex>
              <clipindex>1</clipindex>
              <groupindex>1</groupindex>
            </link>
          </clipitem>
          <clipitem id="clipitem-511" premiereChannelType="Stereo">
            <masterclipid>masterclip-3</masterclipid>
            <name>2023-03-30 21-15-31艾许决赛圈2V6 8KCC.mp4</name>
            <enabled>TRUE</enabled>
            <rate>
              <timebase>60</timebase>
              <ntsc>FALSE</ntsc>
            </rate>
            <start>10286</start>
            <end>10401</end>
            <in>7813</in>
            <out>7928</out>
            <file id="file-3"/>
            <sourcetrack>
              <mediatype>audio</mediatype>
              <trackindex>3</trackindex>
            </sourcetrack>
            <link>
              <linkclipref>clipitem-505</linkclipref>
              <mediatype>video</mediatype>
              <trackindex>1</trackindex>
              <clipindex>1</clipindex>
            </link>
            <link>
              <linkclipref>clipitem-506</linkclipref>
              <mediatype>audio</mediatype>
              <trackindex>1</trackindex>
              <clipindex>1</clipindex>
              <groupindex>1</groupindex>
            </link>
            <link>
              <linkclipref>clipitem-507</linkclipref>
              <mediatype>audio</mediatype>
              <trackindex>2</trackindex>
              <clipindex>1</clipindex>
              <groupindex>1</groupindex>
            </link>
            <link>
              <linkclipref>clipitem-508</linkclipref>
              <mediatype>audio</mediatype>
              <trackindex>3</trackindex>
              <clipindex>1</clipindex>
              <groupindex>1</groupindex>
            </link>
            <link>
              <linkclipref>clipitem-509</linkclipref>
              <mediatype>audio</mediatype>
              <trackindex>4</trackindex>
              <clipindex>1</clipindex>
              <groupindex>1</groupindex>
            </link>
            <link>
              <linkclipref>clipitem-510</linkclipref>
              <mediatype>audio</mediatype>
              <trackindex>5</trackindex>
              <clipindex>1</clipindex>
              <groupindex>1</groupindex>
            </link>
            <link>
              <linkclipref>clipitem-511</linkclipref>
              <mediatype>audio</mediatype>
              <trackindex>6</trackindex>
              <clipindex>1</clipindex>
              <groupindex>1</groupindex>
            </link>
          </clipitem>
          <clipitem id="clipitem-518" premiereChannelType="Stereo">
            <masterclipid>masterclip-3</masterclipid>
            <name>2023-03-30 21-15-31艾许决赛圈2V6 8KCC.mp4</name>
            <enabled>TRUE</enabled>
            <rate>
              <timebase>60</timebase>
              <ntsc>FALSE</ntsc>
            </rate>
            <start>10401</start>
            <end>10519</end>
            <in>9404</in>
            <out>9522</out>
            <file id="file-3"/>
            <sourcetrack>
              <mediatype>audio</mediatype>
              <trackindex>3</trackindex>
            </sourcetrack>
            <link>
              <linkclipref>clipitem-512</linkclipref>
              <mediatype>video</mediatype>
              <trackindex>1</trackindex>
              <clipindex>1</clipindex>
            </link>
            <link>
              <linkclipref>clipitem-513</linkclipref>
              <mediatype>audio</mediatype>
              <trackindex>1</trackindex>
              <clipindex>1</clipindex>
              <groupindex>1</groupindex>
            </link>
            <link>
              <linkclipref>clipitem-514</linkclipref>
              <mediatype>audio</mediatype>
              <trackindex>2</trackindex>
              <clipindex>1</clipindex>
              <groupindex>1</groupindex>
            </link>
            <link>
              <linkclipref>clipitem-515</linkclipref>
              <mediatype>audio</mediatype>
              <trackindex>3</trackindex>
              <clipindex>1</clipindex>
              <groupindex>1</groupindex>
            </link>
            <link>
              <linkclipref>clipitem-516</linkclipref>
              <mediatype>audio</mediatype>
              <trackindex>4</trackindex>
              <clipindex>1</clipindex>
              <groupindex>1</groupindex>
            </link>
            <link>
              <linkclipref>clipitem-517</linkclipref>
              <mediatype>audio</mediatype>
              <trackindex>5</trackindex>
              <clipindex>1</clipindex>
              <groupindex>1</groupindex>
            </link>
            <link>
              <linkclipref>clipitem-518</linkclipref>
              <mediatype>audio</mediatype>
              <trackindex>6</trackindex>
              <clipindex>1</clipindex>
              <groupindex>1</groupindex>
            </link>
          </clipitem>
          <clipitem id="clipitem-525" premiereChannelType="Stereo">
            <masterclipid>masterclip-3</masterclipid>
            <name>2023-03-30 21-15-31艾许决赛圈2V6 8KCC.mp4</name>
            <enabled>TRUE</enabled>
            <rate>
              <timebase>60</timebase>
              <ntsc>FALSE</ntsc>
            </rate>
            <start>10519</start>
            <end>10600</end>
            <in>9637</in>
            <out>9718</out>
            <file id="file-3"/>
            <sourcetrack>
              <mediatype>audio</mediatype>
              <trackindex>3</trackindex>
            </sourcetrack>
            <link>
              <linkclipref>clipitem-519</linkclipref>
              <mediatype>video</mediatype>
              <trackindex>1</trackindex>
              <clipindex>1</clipindex>
            </link>
            <link>
              <linkclipref>clipitem-520</linkclipref>
              <mediatype>audio</mediatype>
              <trackindex>1</trackindex>
              <clipindex>1</clipindex>
              <groupindex>1</groupindex>
            </link>
            <link>
              <linkclipref>clipitem-521</linkclipref>
              <mediatype>audio</mediatype>
              <trackindex>2</trackindex>
              <clipindex>1</clipindex>
              <groupindex>1</groupindex>
            </link>
            <link>
              <linkclipref>clipitem-522</linkclipref>
              <mediatype>audio</mediatype>
              <trackindex>3</trackindex>
              <clipindex>1</clipindex>
              <groupindex>1</groupindex>
            </link>
            <link>
              <linkclipref>clipitem-523</linkclipref>
              <mediatype>audio</mediatype>
              <trackindex>4</trackindex>
              <clipindex>1</clipindex>
              <groupindex>1</groupindex>
            </link>
            <link>
              <linkclipref>clipitem-524</linkclipref>
              <mediatype>audio</mediatype>
              <trackindex>5</trackindex>
              <clipindex>1</clipindex>
              <groupindex>1</groupindex>
            </link>
            <link>
              <linkclipref>clipitem-525</linkclipref>
              <mediatype>audio</mediatype>
              <trackindex>6</trackindex>
              <clipindex>1</clipindex>
              <groupindex>1</groupindex>
            </link>
          </clipitem>
          <clipitem id="clipitem-532" premiereChannelType="Stereo">
            <masterclipid>masterclip-3</masterclipid>
            <name>2023-03-30 21-15-31艾许决赛圈2V6 8KCC.mp4</name>
            <enabled>TRUE</enabled>
            <rate>
              <timebase>60</timebase>
              <ntsc>FALSE</ntsc>
            </rate>
            <start>10600</start>
            <end>10751</end>
            <in>10314</in>
            <out>10465</out>
            <file id="file-3"/>
            <sourcetrack>
              <mediatype>audio</mediatype>
              <trackindex>3</trackindex>
            </sourcetrack>
            <link>
              <linkclipref>clipitem-526</linkclipref>
              <mediatype>video</mediatype>
              <trackindex>1</trackindex>
              <clipindex>1</clipindex>
            </link>
            <link>
              <linkclipref>clipitem-527</linkclipref>
              <mediatype>audio</mediatype>
              <trackindex>1</trackindex>
              <clipindex>1</clipindex>
              <groupindex>1</groupindex>
            </link>
            <link>
              <linkclipref>clipitem-528</linkclipref>
              <mediatype>audio</mediatype>
              <trackindex>2</trackindex>
              <clipindex>1</clipindex>
              <groupindex>1</groupindex>
            </link>
            <link>
              <linkclipref>clipitem-529</linkclipref>
              <mediatype>audio</mediatype>
              <trackindex>3</trackindex>
              <clipindex>1</clipindex>
              <groupindex>1</groupindex>
            </link>
            <link>
              <linkclipref>clipitem-530</linkclipref>
              <mediatype>audio</mediatype>
              <trackindex>4</trackindex>
              <clipindex>1</clipindex>
              <groupindex>1</groupindex>
            </link>
            <link>
              <linkclipref>clipitem-531</linkclipref>
              <mediatype>audio</mediatype>
              <trackindex>5</trackindex>
              <clipindex>1</clipindex>
              <groupindex>1</groupindex>
            </link>
            <link>
              <linkclipref>clipitem-532</linkclipref>
              <mediatype>audio</mediatype>
              <trackindex>6</trackindex>
              <clipindex>1</clipindex>
              <groupindex>1</groupindex>
            </link>
          </clipitem>
          <clipitem id="clipitem-539" premiereChannelType="Stereo">
            <masterclipid>masterclip-3</masterclipid>
            <name>2023-03-30 21-15-31艾许决赛圈2V6 8KCC.mp4</name>
            <enabled>TRUE</enabled>
            <rate>
              <timebase>60</timebase>
              <ntsc>FALSE</ntsc>
            </rate>
            <start>10751</start>
            <end>10883</end>
            <in>10779</in>
            <out>10911</out>
            <file id="file-3"/>
            <sourcetrack>
              <mediatype>audio</mediatype>
              <trackindex>3</trackindex>
            </sourcetrack>
            <link>
              <linkclipref>clipitem-533</linkclipref>
              <mediatype>video</mediatype>
              <trackindex>1</trackindex>
              <clipindex>1</clipindex>
            </link>
            <link>
              <linkclipref>clipitem-534</linkclipref>
              <mediatype>audio</mediatype>
              <trackindex>1</trackindex>
              <clipindex>1</clipindex>
              <groupindex>1</groupindex>
            </link>
            <link>
              <linkclipref>clipitem-535</linkclipref>
              <mediatype>audio</mediatype>
              <trackindex>2</trackindex>
              <clipindex>1</clipindex>
              <groupindex>1</groupindex>
            </link>
            <link>
              <linkclipref>clipitem-536</linkclipref>
              <mediatype>audio</mediatype>
              <trackindex>3</trackindex>
              <clipindex>1</clipindex>
              <groupindex>1</groupindex>
            </link>
            <link>
              <linkclipref>clipitem-537</linkclipref>
              <mediatype>audio</mediatype>
              <trackindex>4</trackindex>
              <clipindex>1</clipindex>
              <groupindex>1</groupindex>
            </link>
            <link>
              <linkclipref>clipitem-538</linkclipref>
              <mediatype>audio</mediatype>
              <trackindex>5</trackindex>
              <clipindex>1</clipindex>
              <groupindex>1</groupindex>
            </link>
            <link>
              <linkclipref>clipitem-539</linkclipref>
              <mediatype>audio</mediatype>
              <trackindex>6</trackindex>
              <clipindex>1</clipindex>
              <groupindex>1</groupindex>
            </link>
          </clipitem>
          <clipitem id="clipitem-546" premiereChannelType="Stereo">
            <masterclipid>masterclip-3</masterclipid>
            <name>2023-03-30 21-15-31艾许决赛圈2V6 8KCC.mp4</name>
            <enabled>TRUE</enabled>
            <rate>
              <timebase>60</timebase>
              <ntsc>FALSE</ntsc>
            </rate>
            <start>10883</start>
            <end>10966</end>
            <in>10974</in>
            <out>11057</out>
            <file id="file-3"/>
            <sourcetrack>
              <mediatype>audio</mediatype>
              <trackindex>3</trackindex>
            </sourcetrack>
            <link>
              <linkclipref>clipitem-540</linkclipref>
              <mediatype>video</mediatype>
              <trackindex>1</trackindex>
              <clipindex>1</clipindex>
            </link>
            <link>
              <linkclipref>clipitem-541</linkclipref>
              <mediatype>audio</mediatype>
              <trackindex>1</trackindex>
              <clipindex>1</clipindex>
              <groupindex>1</groupindex>
            </link>
            <link>
              <linkclipref>clipitem-542</linkclipref>
              <mediatype>audio</mediatype>
              <trackindex>2</trackindex>
              <clipindex>1</clipindex>
              <groupindex>1</groupindex>
            </link>
            <link>
              <linkclipref>clipitem-543</linkclipref>
              <mediatype>audio</mediatype>
              <trackindex>3</trackindex>
              <clipindex>1</clipindex>
              <groupindex>1</groupindex>
            </link>
            <link>
              <linkclipref>clipitem-544</linkclipref>
              <mediatype>audio</mediatype>
              <trackindex>4</trackindex>
              <clipindex>1</clipindex>
              <groupindex>1</groupindex>
            </link>
            <link>
              <linkclipref>clipitem-545</linkclipref>
              <mediatype>audio</mediatype>
              <trackindex>5</trackindex>
              <clipindex>1</clipindex>
              <groupindex>1</groupindex>
            </link>
            <link>
              <linkclipref>clipitem-546</linkclipref>
              <mediatype>audio</mediatype>
              <trackindex>6</trackindex>
              <clipindex>1</clipindex>
              <groupindex>1</groupindex>
            </link>
          </clipitem>
          <clipitem id="clipitem-553" premiereChannelType="Stereo">
            <masterclipid>masterclip-3</masterclipid>
            <name>2023-03-30 21-15-31艾许决赛圈2V6 8KCC.mp4</name>
            <enabled>TRUE</enabled>
            <rate>
              <timebase>60</timebase>
              <ntsc>FALSE</ntsc>
            </rate>
            <start>10966</start>
            <end>11074</end>
            <in>11992</in>
            <out>12100</out>
            <file id="file-3"/>
            <sourcetrack>
              <mediatype>audio</mediatype>
              <trackindex>3</trackindex>
            </sourcetrack>
            <link>
              <linkclipref>clipitem-547</linkclipref>
              <mediatype>video</mediatype>
              <trackindex>1</trackindex>
              <clipindex>1</clipindex>
            </link>
            <link>
              <linkclipref>clipitem-548</linkclipref>
              <mediatype>audio</mediatype>
              <trackindex>1</trackindex>
              <clipindex>1</clipindex>
              <groupindex>1</groupindex>
            </link>
            <link>
              <linkclipref>clipitem-549</linkclipref>
              <mediatype>audio</mediatype>
              <trackindex>2</trackindex>
              <clipindex>1</clipindex>
              <groupindex>1</groupindex>
            </link>
            <link>
              <linkclipref>clipitem-550</linkclipref>
              <mediatype>audio</mediatype>
              <trackindex>3</trackindex>
              <clipindex>1</clipindex>
              <groupindex>1</groupindex>
            </link>
            <link>
              <linkclipref>clipitem-551</linkclipref>
              <mediatype>audio</mediatype>
              <trackindex>4</trackindex>
              <clipindex>1</clipindex>
              <groupindex>1</groupindex>
            </link>
            <link>
              <linkclipref>clipitem-552</linkclipref>
              <mediatype>audio</mediatype>
              <trackindex>5</trackindex>
              <clipindex>1</clipindex>
              <groupindex>1</groupindex>
            </link>
            <link>
              <linkclipref>clipitem-553</linkclipref>
              <mediatype>audio</mediatype>
              <trackindex>6</trackindex>
              <clipindex>1</clipindex>
              <groupindex>1</groupindex>
            </link>
          </clipitem>
          <clipitem id="clipitem-560" premiereChannelType="Stereo">
            <masterclipid>masterclip-3</masterclipid>
            <name>2023-03-30 21-15-31艾许决赛圈2V6 8KCC.mp4</name>
            <enabled>TRUE</enabled>
            <rate>
              <timebase>60</timebase>
              <ntsc>FALSE</ntsc>
            </rate>
            <start>11074</start>
            <end>11182</end>
            <in>12377</in>
            <out>12485</out>
            <file id="file-3"/>
            <sourcetrack>
              <mediatype>audio</mediatype>
              <trackindex>3</trackindex>
            </sourcetrack>
            <link>
              <linkclipref>clipitem-554</linkclipref>
              <mediatype>video</mediatype>
              <trackindex>1</trackindex>
              <clipindex>1</clipindex>
            </link>
            <link>
              <linkclipref>clipitem-555</linkclipref>
              <mediatype>audio</mediatype>
              <trackindex>1</trackindex>
              <clipindex>1</clipindex>
              <groupindex>1</groupindex>
            </link>
            <link>
              <linkclipref>clipitem-556</linkclipref>
              <mediatype>audio</mediatype>
              <trackindex>2</trackindex>
              <clipindex>1</clipindex>
              <groupindex>1</groupindex>
            </link>
            <link>
              <linkclipref>clipitem-557</linkclipref>
              <mediatype>audio</mediatype>
              <trackindex>3</trackindex>
              <clipindex>1</clipindex>
              <groupindex>1</groupindex>
            </link>
            <link>
              <linkclipref>clipitem-558</linkclipref>
              <mediatype>audio</mediatype>
              <trackindex>4</trackindex>
              <clipindex>1</clipindex>
              <groupindex>1</groupindex>
            </link>
            <link>
              <linkclipref>clipitem-559</linkclipref>
              <mediatype>audio</mediatype>
              <trackindex>5</trackindex>
              <clipindex>1</clipindex>
              <groupindex>1</groupindex>
            </link>
            <link>
              <linkclipref>clipitem-560</linkclipref>
              <mediatype>audio</mediatype>
              <trackindex>6</trackindex>
              <clipindex>1</clipindex>
              <groupindex>1</groupindex>
            </link>
          </clipitem>
          <clipitem id="clipitem-567" premiereChannelType="Stereo">
            <masterclipid>masterclip-3</masterclipid>
            <name>2023-03-30 21-15-31艾许决赛圈2V6 8KCC.mp4</name>
            <enabled>TRUE</enabled>
            <rate>
              <timebase>60</timebase>
              <ntsc>FALSE</ntsc>
            </rate>
            <start>11182</start>
            <end>11342</end>
            <in>13849</in>
            <out>14009</out>
            <file id="file-3"/>
            <sourcetrack>
              <mediatype>audio</mediatype>
              <trackindex>3</trackindex>
            </sourcetrack>
            <link>
              <linkclipref>clipitem-561</linkclipref>
              <mediatype>video</mediatype>
              <trackindex>1</trackindex>
              <clipindex>1</clipindex>
            </link>
            <link>
              <linkclipref>clipitem-562</linkclipref>
              <mediatype>audio</mediatype>
              <trackindex>1</trackindex>
              <clipindex>1</clipindex>
              <groupindex>1</groupindex>
            </link>
            <link>
              <linkclipref>clipitem-563</linkclipref>
              <mediatype>audio</mediatype>
              <trackindex>2</trackindex>
              <clipindex>1</clipindex>
              <groupindex>1</groupindex>
            </link>
            <link>
              <linkclipref>clipitem-564</linkclipref>
              <mediatype>audio</mediatype>
              <trackindex>3</trackindex>
              <clipindex>1</clipindex>
              <groupindex>1</groupindex>
            </link>
            <link>
              <linkclipref>clipitem-565</linkclipref>
              <mediatype>audio</mediatype>
              <trackindex>4</trackindex>
              <clipindex>1</clipindex>
              <groupindex>1</groupindex>
            </link>
            <link>
              <linkclipref>clipitem-566</linkclipref>
              <mediatype>audio</mediatype>
              <trackindex>5</trackindex>
              <clipindex>1</clipindex>
              <groupindex>1</groupindex>
            </link>
            <link>
              <linkclipref>clipitem-567</linkclipref>
              <mediatype>audio</mediatype>
              <trackindex>6</trackindex>
              <clipindex>1</clipindex>
              <groupindex>1</groupindex>
            </link>
          </clipitem>
          <clipitem id="clipitem-574" premiereChannelType="Stereo">
            <masterclipid>masterclip-3</masterclipid>
            <name>2023-03-30 21-15-31艾许决赛圈2V6 8KCC.mp4</name>
            <enabled>TRUE</enabled>
            <rate>
              <timebase>60</timebase>
              <ntsc>FALSE</ntsc>
            </rate>
            <start>11342</start>
            <end>11465</end>
            <in>14114</in>
            <out>14237</out>
            <file id="file-3"/>
            <sourcetrack>
              <mediatype>audio</mediatype>
              <trackindex>3</trackindex>
            </sourcetrack>
            <link>
              <linkclipref>clipitem-568</linkclipref>
              <mediatype>video</mediatype>
              <trackindex>1</trackindex>
              <clipindex>1</clipindex>
            </link>
            <link>
              <linkclipref>clipitem-569</linkclipref>
              <mediatype>audio</mediatype>
              <trackindex>1</trackindex>
              <clipindex>1</clipindex>
              <groupindex>1</groupindex>
            </link>
            <link>
              <linkclipref>clipitem-570</linkclipref>
              <mediatype>audio</mediatype>
              <trackindex>2</trackindex>
              <clipindex>1</clipindex>
              <groupindex>1</groupindex>
            </link>
            <link>
              <linkclipref>clipitem-571</linkclipref>
              <mediatype>audio</mediatype>
              <trackindex>3</trackindex>
              <clipindex>1</clipindex>
              <groupindex>1</groupindex>
            </link>
            <link>
              <linkclipref>clipitem-572</linkclipref>
              <mediatype>audio</mediatype>
              <trackindex>4</trackindex>
              <clipindex>1</clipindex>
              <groupindex>1</groupindex>
            </link>
            <link>
              <linkclipref>clipitem-573</linkclipref>
              <mediatype>audio</mediatype>
              <trackindex>5</trackindex>
              <clipindex>1</clipindex>
              <groupindex>1</groupindex>
            </link>
            <link>
              <linkclipref>clipitem-574</linkclipref>
              <mediatype>audio</mediatype>
              <trackindex>6</trackindex>
              <clipindex>1</clipindex>
              <groupindex>1</groupindex>
            </link>
          </clipitem>
          <clipitem id="clipitem-581" premiereChannelType="Stereo">
            <masterclipid>masterclip-3</masterclipid>
            <name>2023-03-30 21-15-31艾许决赛圈2V6 8KCC.mp4</name>
            <enabled>TRUE</enabled>
            <rate>
              <timebase>60</timebase>
              <ntsc>FALSE</ntsc>
            </rate>
            <start>11465</start>
            <end>11536</end>
            <in>14267</in>
            <out>14338</out>
            <file id="file-3"/>
            <sourcetrack>
              <mediatype>audio</mediatype>
              <trackindex>3</trackindex>
            </sourcetrack>
            <link>
              <linkclipref>clipitem-575</linkclipref>
              <mediatype>video</mediatype>
              <trackindex>1</trackindex>
              <clipindex>1</clipindex>
            </link>
            <link>
              <linkclipref>clipitem-576</linkclipref>
              <mediatype>audio</mediatype>
              <trackindex>1</trackindex>
              <clipindex>1</clipindex>
              <groupindex>1</groupindex>
            </link>
            <link>
              <linkclipref>clipitem-577</linkclipref>
              <mediatype>audio</mediatype>
              <trackindex>2</trackindex>
              <clipindex>1</clipindex>
              <groupindex>1</groupindex>
            </link>
            <link>
              <linkclipref>clipitem-578</linkclipref>
              <mediatype>audio</mediatype>
              <trackindex>3</trackindex>
              <clipindex>1</clipindex>
              <groupindex>1</groupindex>
            </link>
            <link>
              <linkclipref>clipitem-579</linkclipref>
              <mediatype>audio</mediatype>
              <trackindex>4</trackindex>
              <clipindex>1</clipindex>
              <groupindex>1</groupindex>
            </link>
            <link>
              <linkclipref>clipitem-580</linkclipref>
              <mediatype>audio</mediatype>
              <trackindex>5</trackindex>
              <clipindex>1</clipindex>
              <groupindex>1</groupindex>
            </link>
            <link>
              <linkclipref>clipitem-581</linkclipref>
              <mediatype>audio</mediatype>
              <trackindex>6</trackindex>
              <clipindex>1</clipindex>
              <groupindex>1</groupindex>
            </link>
          </clipitem>
          <clipitem id="clipitem-588" premiereChannelType="Stereo">
            <masterclipid>masterclip-3</masterclipid>
            <name>2023-03-30 21-15-31艾许决赛圈2V6 8KCC.mp4</name>
            <enabled>TRUE</enabled>
            <rate>
              <timebase>60</timebase>
              <ntsc>FALSE</ntsc>
            </rate>
            <start>11536</start>
            <end>11721</end>
            <in>15371</in>
            <out>15556</out>
            <file id="file-3"/>
            <sourcetrack>
              <mediatype>audio</mediatype>
              <trackindex>3</trackindex>
            </sourcetrack>
            <link>
              <linkclipref>clipitem-582</linkclipref>
              <mediatype>video</mediatype>
              <trackindex>1</trackindex>
              <clipindex>1</clipindex>
            </link>
            <link>
              <linkclipref>clipitem-583</linkclipref>
              <mediatype>audio</mediatype>
              <trackindex>1</trackindex>
              <clipindex>1</clipindex>
              <groupindex>1</groupindex>
            </link>
            <link>
              <linkclipref>clipitem-584</linkclipref>
              <mediatype>audio</mediatype>
              <trackindex>2</trackindex>
              <clipindex>1</clipindex>
              <groupindex>1</groupindex>
            </link>
            <link>
              <linkclipref>clipitem-585</linkclipref>
              <mediatype>audio</mediatype>
              <trackindex>3</trackindex>
              <clipindex>1</clipindex>
              <groupindex>1</groupindex>
            </link>
            <link>
              <linkclipref>clipitem-586</linkclipref>
              <mediatype>audio</mediatype>
              <trackindex>4</trackindex>
              <clipindex>1</clipindex>
              <groupindex>1</groupindex>
            </link>
            <link>
              <linkclipref>clipitem-587</linkclipref>
              <mediatype>audio</mediatype>
              <trackindex>5</trackindex>
              <clipindex>1</clipindex>
              <groupindex>1</groupindex>
            </link>
            <link>
              <linkclipref>clipitem-588</linkclipref>
              <mediatype>audio</mediatype>
              <trackindex>6</trackindex>
              <clipindex>1</clipindex>
              <groupindex>1</groupindex>
            </link>
          </clipitem>
          <clipitem id="clipitem-595" premiereChannelType="Stereo">
            <masterclipid>masterclip-3</masterclipid>
            <name>2023-03-30 21-15-31艾许决赛圈2V6 8KCC.mp4</name>
            <enabled>TRUE</enabled>
            <rate>
              <timebase>60</timebase>
              <ntsc>FALSE</ntsc>
            </rate>
            <start>11721</start>
            <end>11912</end>
            <in>16453</in>
            <out>16644</out>
            <file id="file-3"/>
            <sourcetrack>
              <mediatype>audio</mediatype>
              <trackindex>3</trackindex>
            </sourcetrack>
            <link>
              <linkclipref>clipitem-589</linkclipref>
              <mediatype>video</mediatype>
              <trackindex>1</trackindex>
              <clipindex>1</clipindex>
            </link>
            <link>
              <linkclipref>clipitem-590</linkclipref>
              <mediatype>audio</mediatype>
              <trackindex>1</trackindex>
              <clipindex>1</clipindex>
              <groupindex>1</groupindex>
            </link>
            <link>
              <linkclipref>clipitem-591</linkclipref>
              <mediatype>audio</mediatype>
              <trackindex>2</trackindex>
              <clipindex>1</clipindex>
              <groupindex>1</groupindex>
            </link>
            <link>
              <linkclipref>clipitem-592</linkclipref>
              <mediatype>audio</mediatype>
              <trackindex>3</trackindex>
              <clipindex>1</clipindex>
              <groupindex>1</groupindex>
            </link>
            <link>
              <linkclipref>clipitem-593</linkclipref>
              <mediatype>audio</mediatype>
              <trackindex>4</trackindex>
              <clipindex>1</clipindex>
              <groupindex>1</groupindex>
            </link>
            <link>
              <linkclipref>clipitem-594</linkclipref>
              <mediatype>audio</mediatype>
              <trackindex>5</trackindex>
              <clipindex>1</clipindex>
              <groupindex>1</groupindex>
            </link>
            <link>
              <linkclipref>clipitem-595</linkclipref>
              <mediatype>audio</mediatype>
              <trackindex>6</trackindex>
              <clipindex>1</clipindex>
              <groupindex>1</groupindex>
            </link>
          </clipitem>
          <clipitem id="clipitem-602" premiereChannelType="Stereo">
            <masterclipid>masterclip-3</masterclipid>
            <name>2023-03-30 21-15-31艾许决赛圈2V6 8KCC.mp4</name>
            <enabled>TRUE</enabled>
            <rate>
              <timebase>60</timebase>
              <ntsc>FALSE</ntsc>
            </rate>
            <start>11912</start>
            <end>12140</end>
            <in>16757</in>
            <out>16985</out>
            <file id="file-3"/>
            <sourcetrack>
              <mediatype>audio</mediatype>
              <trackindex>3</trackindex>
            </sourcetrack>
            <link>
              <linkclipref>clipitem-596</linkclipref>
              <mediatype>video</mediatype>
              <trackindex>1</trackindex>
              <clipindex>1</clipindex>
            </link>
            <link>
              <linkclipref>clipitem-597</linkclipref>
              <mediatype>audio</mediatype>
              <trackindex>1</trackindex>
              <clipindex>1</clipindex>
              <groupindex>1</groupindex>
            </link>
            <link>
              <linkclipref>clipitem-598</linkclipref>
              <mediatype>audio</mediatype>
              <trackindex>2</trackindex>
              <clipindex>1</clipindex>
              <groupindex>1</groupindex>
            </link>
            <link>
              <linkclipref>clipitem-599</linkclipref>
              <mediatype>audio</mediatype>
              <trackindex>3</trackindex>
              <clipindex>1</clipindex>
              <groupindex>1</groupindex>
            </link>
            <link>
              <linkclipref>clipitem-600</linkclipref>
              <mediatype>audio</mediatype>
              <trackindex>4</trackindex>
              <clipindex>1</clipindex>
              <groupindex>1</groupindex>
            </link>
            <link>
              <linkclipref>clipitem-601</linkclipref>
              <mediatype>audio</mediatype>
              <trackindex>5</trackindex>
              <clipindex>1</clipindex>
              <groupindex>1</groupindex>
            </link>
            <link>
              <linkclipref>clipitem-602</linkclipref>
              <mediatype>audio</mediatype>
              <trackindex>6</trackindex>
              <clipindex>1</clipindex>
              <groupindex>1</groupindex>
            </link>
          </clipitem>
          <clipitem id="clipitem-609" premiereChannelType="Stereo">
            <masterclipid>masterclip-3</masterclipid>
            <name>2023-03-30 21-15-31艾许决赛圈2V6 8KCC.mp4</name>
            <enabled>TRUE</enabled>
            <rate>
              <timebase>60</timebase>
              <ntsc>FALSE</ntsc>
            </rate>
            <start>12140</start>
            <end>12316</end>
            <in>17536</in>
            <out>17712</out>
            <file id="file-3"/>
            <sourcetrack>
              <mediatype>audio</mediatype>
              <trackindex>3</trackindex>
            </sourcetrack>
            <link>
              <linkclipref>clipitem-603</linkclipref>
              <mediatype>video</mediatype>
              <trackindex>1</trackindex>
              <clipindex>1</clipindex>
            </link>
            <link>
              <linkclipref>clipitem-604</linkclipref>
              <mediatype>audio</mediatype>
              <trackindex>1</trackindex>
              <clipindex>1</clipindex>
              <groupindex>1</groupindex>
            </link>
            <link>
              <linkclipref>clipitem-605</linkclipref>
              <mediatype>audio</mediatype>
              <trackindex>2</trackindex>
              <clipindex>1</clipindex>
              <groupindex>1</groupindex>
            </link>
            <link>
              <linkclipref>clipitem-606</linkclipref>
              <mediatype>audio</mediatype>
              <trackindex>3</trackindex>
              <clipindex>1</clipindex>
              <groupindex>1</groupindex>
            </link>
            <link>
              <linkclipref>clipitem-607</linkclipref>
              <mediatype>audio</mediatype>
              <trackindex>4</trackindex>
              <clipindex>1</clipindex>
              <groupindex>1</groupindex>
            </link>
            <link>
              <linkclipref>clipitem-608</linkclipref>
              <mediatype>audio</mediatype>
              <trackindex>5</trackindex>
              <clipindex>1</clipindex>
              <groupindex>1</groupindex>
            </link>
            <link>
              <linkclipref>clipitem-609</linkclipref>
              <mediatype>audio</mediatype>
              <trackindex>6</trackindex>
              <clipindex>1</clipindex>
              <groupindex>1</groupindex>
            </link>
          </clipitem>
          <clipitem id="clipitem-616" premiereChannelType="Stereo">
            <masterclipid>masterclip-3</masterclipid>
            <name>2023-03-30 21-15-31艾许决赛圈2V6 8KCC.mp4</name>
            <enabled>TRUE</enabled>
            <rate>
              <timebase>60</timebase>
              <ntsc>FALSE</ntsc>
            </rate>
            <start>12316</start>
            <end>12524</end>
            <in>18299</in>
            <out>18507</out>
            <file id="file-3"/>
            <sourcetrack>
              <mediatype>audio</mediatype>
              <trackindex>3</trackindex>
            </sourcetrack>
            <link>
              <linkclipref>clipitem-610</linkclipref>
              <mediatype>video</mediatype>
              <trackindex>1</trackindex>
              <clipindex>1</clipindex>
            </link>
            <link>
              <linkclipref>clipitem-611</linkclipref>
              <mediatype>audio</mediatype>
              <trackindex>1</trackindex>
              <clipindex>1</clipindex>
              <groupindex>1</groupindex>
            </link>
            <link>
              <linkclipref>clipitem-612</linkclipref>
              <mediatype>audio</mediatype>
              <trackindex>2</trackindex>
              <clipindex>1</clipindex>
              <groupindex>1</groupindex>
            </link>
            <link>
              <linkclipref>clipitem-613</linkclipref>
              <mediatype>audio</mediatype>
              <trackindex>3</trackindex>
              <clipindex>1</clipindex>
              <groupindex>1</groupindex>
            </link>
            <link>
              <linkclipref>clipitem-614</linkclipref>
              <mediatype>audio</mediatype>
              <trackindex>4</trackindex>
              <clipindex>1</clipindex>
              <groupindex>1</groupindex>
            </link>
            <link>
              <linkclipref>clipitem-615</linkclipref>
              <mediatype>audio</mediatype>
              <trackindex>5</trackindex>
              <clipindex>1</clipindex>
              <groupindex>1</groupindex>
            </link>
            <link>
              <linkclipref>clipitem-616</linkclipref>
              <mediatype>audio</mediatype>
              <trackindex>6</trackindex>
              <clipindex>1</clipindex>
              <groupindex>1</groupindex>
            </link>
          </clipitem>
          <clipitem id="clipitem-623" premiereChannelType="Stereo">
            <masterclipid>masterclip-3</masterclipid>
            <name>2023-03-30 21-15-31艾许决赛圈2V6 8KCC.mp4</name>
            <enabled>TRUE</enabled>
            <rate>
              <timebase>60</timebase>
              <ntsc>FALSE</ntsc>
            </rate>
            <start>12524</start>
            <end>12590</end>
            <in>18532</in>
            <out>18598</out>
            <file id="file-3"/>
            <sourcetrack>
              <mediatype>audio</mediatype>
              <trackindex>3</trackindex>
            </sourcetrack>
            <link>
              <linkclipref>clipitem-617</linkclipref>
              <mediatype>video</mediatype>
              <trackindex>1</trackindex>
              <clipindex>1</clipindex>
            </link>
            <link>
              <linkclipref>clipitem-618</linkclipref>
              <mediatype>audio</mediatype>
              <trackindex>1</trackindex>
              <clipindex>1</clipindex>
              <groupindex>1</groupindex>
            </link>
            <link>
              <linkclipref>clipitem-619</linkclipref>
              <mediatype>audio</mediatype>
              <trackindex>2</trackindex>
              <clipindex>1</clipindex>
              <groupindex>1</groupindex>
            </link>
            <link>
              <linkclipref>clipitem-620</linkclipref>
              <mediatype>audio</mediatype>
              <trackindex>3</trackindex>
              <clipindex>1</clipindex>
              <groupindex>1</groupindex>
            </link>
            <link>
              <linkclipref>clipitem-621</linkclipref>
              <mediatype>audio</mediatype>
              <trackindex>4</trackindex>
              <clipindex>1</clipindex>
              <groupindex>1</groupindex>
            </link>
            <link>
              <linkclipref>clipitem-622</linkclipref>
              <mediatype>audio</mediatype>
              <trackindex>5</trackindex>
              <clipindex>1</clipindex>
              <groupindex>1</groupindex>
            </link>
            <link>
              <linkclipref>clipitem-623</linkclipref>
              <mediatype>audio</mediatype>
              <trackindex>6</trackindex>
              <clipindex>1</clipindex>
              <groupindex>1</groupindex>
            </link>
          </clipitem>
          <clipitem id="clipitem-630" premiereChannelType="Stereo">
            <masterclipid>masterclip-3</masterclipid>
            <name>2023-03-30 21-15-31艾许决赛圈2V6 8KCC.mp4</name>
            <enabled>TRUE</enabled>
            <rate>
              <timebase>60</timebase>
              <ntsc>FALSE</ntsc>
            </rate>
            <start>12590</start>
            <end>12690</end>
            <in>18756</in>
            <out>18856</out>
            <file id="file-3"/>
            <sourcetrack>
              <mediatype>audio</mediatype>
              <trackindex>3</trackindex>
            </sourcetrack>
            <link>
              <linkclipref>clipitem-624</linkclipref>
              <mediatype>video</mediatype>
              <trackindex>1</trackindex>
              <clipindex>1</clipindex>
            </link>
            <link>
              <linkclipref>clipitem-625</linkclipref>
              <mediatype>audio</mediatype>
              <trackindex>1</trackindex>
              <clipindex>1</clipindex>
              <groupindex>1</groupindex>
            </link>
            <link>
              <linkclipref>clipitem-626</linkclipref>
              <mediatype>audio</mediatype>
              <trackindex>2</trackindex>
              <clipindex>1</clipindex>
              <groupindex>1</groupindex>
            </link>
            <link>
              <linkclipref>clipitem-627</linkclipref>
              <mediatype>audio</mediatype>
              <trackindex>3</trackindex>
              <clipindex>1</clipindex>
              <groupindex>1</groupindex>
            </link>
            <link>
              <linkclipref>clipitem-628</linkclipref>
              <mediatype>audio</mediatype>
              <trackindex>4</trackindex>
              <clipindex>1</clipindex>
              <groupindex>1</groupindex>
            </link>
            <link>
              <linkclipref>clipitem-629</linkclipref>
              <mediatype>audio</mediatype>
              <trackindex>5</trackindex>
              <clipindex>1</clipindex>
              <groupindex>1</groupindex>
            </link>
            <link>
              <linkclipref>clipitem-630</linkclipref>
              <mediatype>audio</mediatype>
              <trackindex>6</trackindex>
              <clipindex>1</clipindex>
              <groupindex>1</groupindex>
            </link>
          </clipitem>
          <clipitem id="clipitem-637" premiereChannelType="Stereo">
            <masterclipid>masterclip-3</masterclipid>
            <name>2023-03-30 21-15-31艾许决赛圈2V6 8KCC.mp4</name>
            <enabled>TRUE</enabled>
            <rate>
              <timebase>60</timebase>
              <ntsc>FALSE</ntsc>
            </rate>
            <start>12690</start>
            <end>12770</end>
            <in>29766</in>
            <out>29846</out>
            <file id="file-3"/>
            <sourcetrack>
              <mediatype>audio</mediatype>
              <trackindex>3</trackindex>
            </sourcetrack>
            <link>
              <linkclipref>clipitem-631</linkclipref>
              <mediatype>video</mediatype>
              <trackindex>1</trackindex>
              <clipindex>1</clipindex>
            </link>
            <link>
              <linkclipref>clipitem-632</linkclipref>
              <mediatype>audio</mediatype>
              <trackindex>1</trackindex>
              <clipindex>1</clipindex>
              <groupindex>1</groupindex>
            </link>
            <link>
              <linkclipref>clipitem-633</linkclipref>
              <mediatype>audio</mediatype>
              <trackindex>2</trackindex>
              <clipindex>1</clipindex>
              <groupindex>1</groupindex>
            </link>
            <link>
              <linkclipref>clipitem-634</linkclipref>
              <mediatype>audio</mediatype>
              <trackindex>3</trackindex>
              <clipindex>1</clipindex>
              <groupindex>1</groupindex>
            </link>
            <link>
              <linkclipref>clipitem-635</linkclipref>
              <mediatype>audio</mediatype>
              <trackindex>4</trackindex>
              <clipindex>1</clipindex>
              <groupindex>1</groupindex>
            </link>
            <link>
              <linkclipref>clipitem-636</linkclipref>
              <mediatype>audio</mediatype>
              <trackindex>5</trackindex>
              <clipindex>1</clipindex>
              <groupindex>1</groupindex>
            </link>
            <link>
              <linkclipref>clipitem-637</linkclipref>
              <mediatype>audio</mediatype>
              <trackindex>6</trackindex>
              <clipindex>1</clipindex>
              <groupindex>1</groupindex>
            </link>
          </clipitem>
          <clipitem id="clipitem-644" premiereChannelType="Stereo">
            <masterclipid>masterclip-3</masterclipid>
            <name>2023-03-30 21-15-31艾许决赛圈2V6 8KCC.mp4</name>
            <enabled>TRUE</enabled>
            <rate>
              <timebase>60</timebase>
              <ntsc>FALSE</ntsc>
            </rate>
            <start>12770</start>
            <end>12919</end>
            <in>30276</in>
            <out>30425</out>
            <file id="file-3"/>
            <sourcetrack>
              <mediatype>audio</mediatype>
              <trackindex>3</trackindex>
            </sourcetrack>
            <link>
              <linkclipref>clipitem-638</linkclipref>
              <mediatype>video</mediatype>
              <trackindex>1</trackindex>
              <clipindex>1</clipindex>
            </link>
            <link>
              <linkclipref>clipitem-639</linkclipref>
              <mediatype>audio</mediatype>
              <trackindex>1</trackindex>
              <clipindex>1</clipindex>
              <groupindex>1</groupindex>
            </link>
            <link>
              <linkclipref>clipitem-640</linkclipref>
              <mediatype>audio</mediatype>
              <trackindex>2</trackindex>
              <clipindex>1</clipindex>
              <groupindex>1</groupindex>
            </link>
            <link>
              <linkclipref>clipitem-641</linkclipref>
              <mediatype>audio</mediatype>
              <trackindex>3</trackindex>
              <clipindex>1</clipindex>
              <groupindex>1</groupindex>
            </link>
            <link>
              <linkclipref>clipitem-642</linkclipref>
              <mediatype>audio</mediatype>
              <trackindex>4</trackindex>
              <clipindex>1</clipindex>
              <groupindex>1</groupindex>
            </link>
            <link>
              <linkclipref>clipitem-643</linkclipref>
              <mediatype>audio</mediatype>
              <trackindex>5</trackindex>
              <clipindex>1</clipindex>
              <groupindex>1</groupindex>
            </link>
            <link>
              <linkclipref>clipitem-644</linkclipref>
              <mediatype>audio</mediatype>
              <trackindex>6</trackindex>
              <clipindex>1</clipindex>
              <groupindex>1</groupindex>
            </link>
          </clipitem>
          <clipitem id="clipitem-651" premiereChannelType="Stereo">
            <masterclipid>masterclip-3</masterclipid>
            <name>2023-03-30 21-15-31艾许决赛圈2V6 8KCC.mp4</name>
            <enabled>TRUE</enabled>
            <rate>
              <timebase>60</timebase>
              <ntsc>FALSE</ntsc>
            </rate>
            <start>12919</start>
            <end>13039</end>
            <in>30422</in>
            <out>30542</out>
            <file id="file-3"/>
            <sourcetrack>
              <mediatype>audio</mediatype>
              <trackindex>3</trackindex>
            </sourcetrack>
            <link>
              <linkclipref>clipitem-645</linkclipref>
              <mediatype>video</mediatype>
              <trackindex>1</trackindex>
              <clipindex>1</clipindex>
            </link>
            <link>
              <linkclipref>clipitem-646</linkclipref>
              <mediatype>audio</mediatype>
              <trackindex>1</trackindex>
              <clipindex>1</clipindex>
              <groupindex>1</groupindex>
            </link>
            <link>
              <linkclipref>clipitem-647</linkclipref>
              <mediatype>audio</mediatype>
              <trackindex>2</trackindex>
              <clipindex>1</clipindex>
              <groupindex>1</groupindex>
            </link>
            <link>
              <linkclipref>clipitem-648</linkclipref>
              <mediatype>audio</mediatype>
              <trackindex>3</trackindex>
              <clipindex>1</clipindex>
              <groupindex>1</groupindex>
            </link>
            <link>
              <linkclipref>clipitem-649</linkclipref>
              <mediatype>audio</mediatype>
              <trackindex>4</trackindex>
              <clipindex>1</clipindex>
              <groupindex>1</groupindex>
            </link>
            <link>
              <linkclipref>clipitem-650</linkclipref>
              <mediatype>audio</mediatype>
              <trackindex>5</trackindex>
              <clipindex>1</clipindex>
              <groupindex>1</groupindex>
            </link>
            <link>
              <linkclipref>clipitem-651</linkclipref>
              <mediatype>audio</mediatype>
              <trackindex>6</trackindex>
              <clipindex>1</clipindex>
              <groupindex>1</groupindex>
            </link>
          </clipitem>
          <clipitem id="clipitem-658" premiereChannelType="Stereo">
            <masterclipid>masterclip-3</masterclipid>
            <name>2023-03-30 21-15-31艾许决赛圈2V6 8KCC.mp4</name>
            <enabled>TRUE</enabled>
            <rate>
              <timebase>60</timebase>
              <ntsc>FALSE</ntsc>
            </rate>
            <start>13039</start>
            <end>13141</end>
            <in>30545</in>
            <out>30647</out>
            <file id="file-3"/>
            <sourcetrack>
              <mediatype>audio</mediatype>
              <trackindex>3</trackindex>
            </sourcetrack>
            <link>
              <linkclipref>clipitem-652</linkclipref>
              <mediatype>video</mediatype>
              <trackindex>1</trackindex>
              <clipindex>1</clipindex>
            </link>
            <link>
              <linkclipref>clipitem-653</linkclipref>
              <mediatype>audio</mediatype>
              <trackindex>1</trackindex>
              <clipindex>1</clipindex>
              <groupindex>1</groupindex>
            </link>
            <link>
              <linkclipref>clipitem-654</linkclipref>
              <mediatype>audio</mediatype>
              <trackindex>2</trackindex>
              <clipindex>1</clipindex>
              <groupindex>1</groupindex>
            </link>
            <link>
              <linkclipref>clipitem-655</linkclipref>
              <mediatype>audio</mediatype>
              <trackindex>3</trackindex>
              <clipindex>1</clipindex>
              <groupindex>1</groupindex>
            </link>
            <link>
              <linkclipref>clipitem-656</linkclipref>
              <mediatype>audio</mediatype>
              <trackindex>4</trackindex>
              <clipindex>1</clipindex>
              <groupindex>1</groupindex>
            </link>
            <link>
              <linkclipref>clipitem-657</linkclipref>
              <mediatype>audio</mediatype>
              <trackindex>5</trackindex>
              <clipindex>1</clipindex>
              <groupindex>1</groupindex>
            </link>
            <link>
              <linkclipref>clipitem-658</linkclipref>
              <mediatype>audio</mediatype>
              <trackindex>6</trackindex>
              <clipindex>1</clipindex>
              <groupindex>1</groupindex>
            </link>
          </clipitem>
          <clipitem id="clipitem-665" premiereChannelType="Stereo">
            <masterclipid>masterclip-3</masterclipid>
            <name>2023-03-30 21-15-31艾许决赛圈2V6 8KCC.mp4</name>
            <enabled>TRUE</enabled>
            <rate>
              <timebase>60</timebase>
              <ntsc>FALSE</ntsc>
            </rate>
            <start>13141</start>
            <end>13330</end>
            <in>32618</in>
            <out>32807</out>
            <file id="file-3"/>
            <sourcetrack>
              <mediatype>audio</mediatype>
              <trackindex>3</trackindex>
            </sourcetrack>
            <link>
              <linkclipref>clipitem-659</linkclipref>
              <mediatype>video</mediatype>
              <trackindex>1</trackindex>
              <clipindex>1</clipindex>
            </link>
            <link>
              <linkclipref>clipitem-660</linkclipref>
              <mediatype>audio</mediatype>
              <trackindex>1</trackindex>
              <clipindex>1</clipindex>
              <groupindex>1</groupindex>
            </link>
            <link>
              <linkclipref>clipitem-661</linkclipref>
              <mediatype>audio</mediatype>
              <trackindex>2</trackindex>
              <clipindex>1</clipindex>
              <groupindex>1</groupindex>
            </link>
            <link>
              <linkclipref>clipitem-662</linkclipref>
              <mediatype>audio</mediatype>
              <trackindex>3</trackindex>
              <clipindex>1</clipindex>
              <groupindex>1</groupindex>
            </link>
            <link>
              <linkclipref>clipitem-663</linkclipref>
              <mediatype>audio</mediatype>
              <trackindex>4</trackindex>
              <clipindex>1</clipindex>
              <groupindex>1</groupindex>
            </link>
            <link>
              <linkclipref>clipitem-664</linkclipref>
              <mediatype>audio</mediatype>
              <trackindex>5</trackindex>
              <clipindex>1</clipindex>
              <groupindex>1</groupindex>
            </link>
            <link>
              <linkclipref>clipitem-665</linkclipref>
              <mediatype>audio</mediatype>
              <trackindex>6</trackindex>
              <clipindex>1</clipindex>
              <groupindex>1</groupindex>
            </link>
          </clipitem>
          <clipitem id="clipitem-672" premiereChannelType="Stereo">
            <masterclipid>masterclip-3</masterclipid>
            <name>2023-03-30 21-15-31艾许决赛圈2V6 8KCC.mp4</name>
            <enabled>TRUE</enabled>
            <rate>
              <timebase>60</timebase>
              <ntsc>FALSE</ntsc>
            </rate>
            <start>13330</start>
            <end>13454</end>
            <in>33866</in>
            <out>33990</out>
            <file id="file-3"/>
            <sourcetrack>
              <mediatype>audio</mediatype>
              <trackindex>3</trackindex>
            </sourcetrack>
            <link>
              <linkclipref>clipitem-666</linkclipref>
              <mediatype>video</mediatype>
              <trackindex>1</trackindex>
              <clipindex>1</clipindex>
            </link>
            <link>
              <linkclipref>clipitem-667</linkclipref>
              <mediatype>audio</mediatype>
              <trackindex>1</trackindex>
              <clipindex>1</clipindex>
              <groupindex>1</groupindex>
            </link>
            <link>
              <linkclipref>clipitem-668</linkclipref>
              <mediatype>audio</mediatype>
              <trackindex>2</trackindex>
              <clipindex>1</clipindex>
              <groupindex>1</groupindex>
            </link>
            <link>
              <linkclipref>clipitem-669</linkclipref>
              <mediatype>audio</mediatype>
              <trackindex>3</trackindex>
              <clipindex>1</clipindex>
              <groupindex>1</groupindex>
            </link>
            <link>
              <linkclipref>clipitem-670</linkclipref>
              <mediatype>audio</mediatype>
              <trackindex>4</trackindex>
              <clipindex>1</clipindex>
              <groupindex>1</groupindex>
            </link>
            <link>
              <linkclipref>clipitem-671</linkclipref>
              <mediatype>audio</mediatype>
              <trackindex>5</trackindex>
              <clipindex>1</clipindex>
              <groupindex>1</groupindex>
            </link>
            <link>
              <linkclipref>clipitem-672</linkclipref>
              <mediatype>audio</mediatype>
              <trackindex>6</trackindex>
              <clipindex>1</clipindex>
              <groupindex>1</groupindex>
            </link>
          </clipitem>
          <clipitem id="clipitem-679" premiereChannelType="Stereo">
            <masterclipid>masterclip-3</masterclipid>
            <name>2023-03-30 21-15-31艾许决赛圈2V6 8KCC.mp4</name>
            <enabled>TRUE</enabled>
            <rate>
              <timebase>60</timebase>
              <ntsc>FALSE</ntsc>
            </rate>
            <start>13454</start>
            <end>13564</end>
            <in>41673</in>
            <out>41783</out>
            <file id="file-3"/>
            <sourcetrack>
              <mediatype>audio</mediatype>
              <trackindex>3</trackindex>
            </sourcetrack>
            <link>
              <linkclipref>clipitem-673</linkclipref>
              <mediatype>video</mediatype>
              <trackindex>1</trackindex>
              <clipindex>1</clipindex>
            </link>
            <link>
              <linkclipref>clipitem-674</linkclipref>
              <mediatype>audio</mediatype>
              <trackindex>1</trackindex>
              <clipindex>1</clipindex>
              <groupindex>1</groupindex>
            </link>
            <link>
              <linkclipref>clipitem-675</linkclipref>
              <mediatype>audio</mediatype>
              <trackindex>2</trackindex>
              <clipindex>1</clipindex>
              <groupindex>1</groupindex>
            </link>
            <link>
              <linkclipref>clipitem-676</linkclipref>
              <mediatype>audio</mediatype>
              <trackindex>3</trackindex>
              <clipindex>1</clipindex>
              <groupindex>1</groupindex>
            </link>
            <link>
              <linkclipref>clipitem-677</linkclipref>
              <mediatype>audio</mediatype>
              <trackindex>4</trackindex>
              <clipindex>1</clipindex>
              <groupindex>1</groupindex>
            </link>
            <link>
              <linkclipref>clipitem-678</linkclipref>
              <mediatype>audio</mediatype>
              <trackindex>5</trackindex>
              <clipindex>1</clipindex>
              <groupindex>1</groupindex>
            </link>
            <link>
              <linkclipref>clipitem-679</linkclipref>
              <mediatype>audio</mediatype>
              <trackindex>6</trackindex>
              <clipindex>1</clipindex>
              <groupindex>1</groupindex>
            </link>
          </clipitem>
          <clipitem id="clipitem-686" premiereChannelType="Stereo">
            <masterclipid>masterclip-3</masterclipid>
            <name>2023-03-30 21-15-31艾许决赛圈2V6 8KCC.mp4</name>
            <enabled>TRUE</enabled>
            <rate>
              <timebase>60</timebase>
              <ntsc>FALSE</ntsc>
            </rate>
            <start>13564</start>
            <end>13644</end>
            <in>42037</in>
            <out>42117</out>
            <file id="file-3"/>
            <sourcetrack>
              <mediatype>audio</mediatype>
              <trackindex>3</trackindex>
            </sourcetrack>
            <link>
              <linkclipref>clipitem-680</linkclipref>
              <mediatype>video</mediatype>
              <trackindex>1</trackindex>
              <clipindex>1</clipindex>
            </link>
            <link>
              <linkclipref>clipitem-681</linkclipref>
              <mediatype>audio</mediatype>
              <trackindex>1</trackindex>
              <clipindex>1</clipindex>
              <groupindex>1</groupindex>
            </link>
            <link>
              <linkclipref>clipitem-682</linkclipref>
              <mediatype>audio</mediatype>
              <trackindex>2</trackindex>
              <clipindex>1</clipindex>
              <groupindex>1</groupindex>
            </link>
            <link>
              <linkclipref>clipitem-683</linkclipref>
              <mediatype>audio</mediatype>
              <trackindex>3</trackindex>
              <clipindex>1</clipindex>
              <groupindex>1</groupindex>
            </link>
            <link>
              <linkclipref>clipitem-684</linkclipref>
              <mediatype>audio</mediatype>
              <trackindex>4</trackindex>
              <clipindex>1</clipindex>
              <groupindex>1</groupindex>
            </link>
            <link>
              <linkclipref>clipitem-685</linkclipref>
              <mediatype>audio</mediatype>
              <trackindex>5</trackindex>
              <clipindex>1</clipindex>
              <groupindex>1</groupindex>
            </link>
            <link>
              <linkclipref>clipitem-686</linkclipref>
              <mediatype>audio</mediatype>
              <trackindex>6</trackindex>
              <clipindex>1</clipindex>
              <groupindex>1</groupindex>
            </link>
          </clipitem>
          <clipitem id="clipitem-693" premiereChannelType="Stereo">
            <masterclipid>masterclip-3</masterclipid>
            <name>2023-03-30 21-15-31艾许决赛圈2V6 8KCC.mp4</name>
            <enabled>TRUE</enabled>
            <rate>
              <timebase>60</timebase>
              <ntsc>FALSE</ntsc>
            </rate>
            <start>13644</start>
            <end>13724</end>
            <in>43943</in>
            <out>44023</out>
            <file id="file-3"/>
            <sourcetrack>
              <mediatype>audio</mediatype>
              <trackindex>3</trackindex>
            </sourcetrack>
            <link>
              <linkclipref>clipitem-687</linkclipref>
              <mediatype>video</mediatype>
              <trackindex>1</trackindex>
              <clipindex>1</clipindex>
            </link>
            <link>
              <linkclipref>clipitem-688</linkclipref>
              <mediatype>audio</mediatype>
              <trackindex>1</trackindex>
              <clipindex>1</clipindex>
              <groupindex>1</groupindex>
            </link>
            <link>
              <linkclipref>clipitem-689</linkclipref>
              <mediatype>audio</mediatype>
              <trackindex>2</trackindex>
              <clipindex>1</clipindex>
              <groupindex>1</groupindex>
            </link>
            <link>
              <linkclipref>clipitem-690</linkclipref>
              <mediatype>audio</mediatype>
              <trackindex>3</trackindex>
              <clipindex>1</clipindex>
              <groupindex>1</groupindex>
            </link>
            <link>
              <linkclipref>clipitem-691</linkclipref>
              <mediatype>audio</mediatype>
              <trackindex>4</trackindex>
              <clipindex>1</clipindex>
              <groupindex>1</groupindex>
            </link>
            <link>
              <linkclipref>clipitem-692</linkclipref>
              <mediatype>audio</mediatype>
              <trackindex>5</trackindex>
              <clipindex>1</clipindex>
              <groupindex>1</groupindex>
            </link>
            <link>
              <linkclipref>clipitem-693</linkclipref>
              <mediatype>audio</mediatype>
              <trackindex>6</trackindex>
              <clipindex>1</clipindex>
              <groupindex>1</groupindex>
            </link>
          </clipitem>
          <clipitem id="clipitem-700" premiereChannelType="Stereo">
            <masterclipid>masterclip-3</masterclipid>
            <name>2023-03-30 21-15-31艾许决赛圈2V6 8KCC.mp4</name>
            <enabled>TRUE</enabled>
            <rate>
              <timebase>60</timebase>
              <ntsc>FALSE</ntsc>
            </rate>
            <start>13724</start>
            <end>13838</end>
            <in>44030</in>
            <out>44144</out>
            <file id="file-3"/>
            <sourcetrack>
              <mediatype>audio</mediatype>
              <trackindex>3</trackindex>
            </sourcetrack>
            <link>
              <linkclipref>clipitem-694</linkclipref>
              <mediatype>video</mediatype>
              <trackindex>1</trackindex>
              <clipindex>1</clipindex>
            </link>
            <link>
              <linkclipref>clipitem-695</linkclipref>
              <mediatype>audio</mediatype>
              <trackindex>1</trackindex>
              <clipindex>1</clipindex>
              <groupindex>1</groupindex>
            </link>
            <link>
              <linkclipref>clipitem-696</linkclipref>
              <mediatype>audio</mediatype>
              <trackindex>2</trackindex>
              <clipindex>1</clipindex>
              <groupindex>1</groupindex>
            </link>
            <link>
              <linkclipref>clipitem-697</linkclipref>
              <mediatype>audio</mediatype>
              <trackindex>3</trackindex>
              <clipindex>1</clipindex>
              <groupindex>1</groupindex>
            </link>
            <link>
              <linkclipref>clipitem-698</linkclipref>
              <mediatype>audio</mediatype>
              <trackindex>4</trackindex>
              <clipindex>1</clipindex>
              <groupindex>1</groupindex>
            </link>
            <link>
              <linkclipref>clipitem-699</linkclipref>
              <mediatype>audio</mediatype>
              <trackindex>5</trackindex>
              <clipindex>1</clipindex>
              <groupindex>1</groupindex>
            </link>
            <link>
              <linkclipref>clipitem-700</linkclipref>
              <mediatype>audio</mediatype>
              <trackindex>6</trackindex>
              <clipindex>1</clipindex>
              <groupindex>1</groupindex>
            </link>
          </clipitem>
          <clipitem id="clipitem-707" premiereChannelType="Stereo">
            <masterclipid>masterclip-3</masterclipid>
            <name>2023-03-30 21-15-31艾许决赛圈2V6 8KCC.mp4</name>
            <enabled>TRUE</enabled>
            <rate>
              <timebase>60</timebase>
              <ntsc>FALSE</ntsc>
            </rate>
            <start>13838</start>
            <end>13903</end>
            <in>44850</in>
            <out>44915</out>
            <file id="file-3"/>
            <sourcetrack>
              <mediatype>audio</mediatype>
              <trackindex>3</trackindex>
            </sourcetrack>
            <link>
              <linkclipref>clipitem-701</linkclipref>
              <mediatype>video</mediatype>
              <trackindex>1</trackindex>
              <clipindex>1</clipindex>
            </link>
            <link>
              <linkclipref>clipitem-702</linkclipref>
              <mediatype>audio</mediatype>
              <trackindex>1</trackindex>
              <clipindex>1</clipindex>
              <groupindex>1</groupindex>
            </link>
            <link>
              <linkclipref>clipitem-703</linkclipref>
              <mediatype>audio</mediatype>
              <trackindex>2</trackindex>
              <clipindex>1</clipindex>
              <groupindex>1</groupindex>
            </link>
            <link>
              <linkclipref>clipitem-704</linkclipref>
              <mediatype>audio</mediatype>
              <trackindex>3</trackindex>
              <clipindex>1</clipindex>
              <groupindex>1</groupindex>
            </link>
            <link>
              <linkclipref>clipitem-705</linkclipref>
              <mediatype>audio</mediatype>
              <trackindex>4</trackindex>
              <clipindex>1</clipindex>
              <groupindex>1</groupindex>
            </link>
            <link>
              <linkclipref>clipitem-706</linkclipref>
              <mediatype>audio</mediatype>
              <trackindex>5</trackindex>
              <clipindex>1</clipindex>
              <groupindex>1</groupindex>
            </link>
            <link>
              <linkclipref>clipitem-707</linkclipref>
              <mediatype>audio</mediatype>
              <trackindex>6</trackindex>
              <clipindex>1</clipindex>
              <groupindex>1</groupindex>
            </link>
          </clipitem>
          <clipitem id="clipitem-714" premiereChannelType="Stereo">
            <masterclipid>masterclip-3</masterclipid>
            <name>2023-03-30 21-15-31艾许决赛圈2V6 8KCC.mp4</name>
            <enabled>TRUE</enabled>
            <rate>
              <timebase>60</timebase>
              <ntsc>FALSE</ntsc>
            </rate>
            <start>13903</start>
            <end>14190</end>
            <in>46715</in>
            <out>47002</out>
            <file id="file-3"/>
            <sourcetrack>
              <mediatype>audio</mediatype>
              <trackindex>3</trackindex>
            </sourcetrack>
            <link>
              <linkclipref>clipitem-708</linkclipref>
              <mediatype>video</mediatype>
              <trackindex>1</trackindex>
              <clipindex>1</clipindex>
            </link>
            <link>
              <linkclipref>clipitem-709</linkclipref>
              <mediatype>audio</mediatype>
              <trackindex>1</trackindex>
              <clipindex>1</clipindex>
              <groupindex>1</groupindex>
            </link>
            <link>
              <linkclipref>clipitem-710</linkclipref>
              <mediatype>audio</mediatype>
              <trackindex>2</trackindex>
              <clipindex>1</clipindex>
              <groupindex>1</groupindex>
            </link>
            <link>
              <linkclipref>clipitem-711</linkclipref>
              <mediatype>audio</mediatype>
              <trackindex>3</trackindex>
              <clipindex>1</clipindex>
              <groupindex>1</groupindex>
            </link>
            <link>
              <linkclipref>clipitem-712</linkclipref>
              <mediatype>audio</mediatype>
              <trackindex>4</trackindex>
              <clipindex>1</clipindex>
              <groupindex>1</groupindex>
            </link>
            <link>
              <linkclipref>clipitem-713</linkclipref>
              <mediatype>audio</mediatype>
              <trackindex>5</trackindex>
              <clipindex>1</clipindex>
              <groupindex>1</groupindex>
            </link>
            <link>
              <linkclipref>clipitem-714</linkclipref>
              <mediatype>audio</mediatype>
              <trackindex>6</trackindex>
              <clipindex>1</clipindex>
              <groupindex>1</groupindex>
            </link>
          </clipitem>
          <clipitem id="clipitem-721" premiereChannelType="Stereo">
            <masterclipid>masterclip-3</masterclipid>
            <name>2023-03-30 21-15-31艾许决赛圈2V6 8KCC.mp4</name>
            <enabled>TRUE</enabled>
            <rate>
              <timebase>60</timebase>
              <ntsc>FALSE</ntsc>
            </rate>
            <start>14190</start>
            <end>14385</end>
            <in>48602</in>
            <out>48797</out>
            <file id="file-3"/>
            <sourcetrack>
              <mediatype>audio</mediatype>
              <trackindex>3</trackindex>
            </sourcetrack>
            <link>
              <linkclipref>clipitem-715</linkclipref>
              <mediatype>video</mediatype>
              <trackindex>1</trackindex>
              <clipindex>1</clipindex>
            </link>
            <link>
              <linkclipref>clipitem-716</linkclipref>
              <mediatype>audio</mediatype>
              <trackindex>1</trackindex>
              <clipindex>1</clipindex>
              <groupindex>1</groupindex>
            </link>
            <link>
              <linkclipref>clipitem-717</linkclipref>
              <mediatype>audio</mediatype>
              <trackindex>2</trackindex>
              <clipindex>1</clipindex>
              <groupindex>1</groupindex>
            </link>
            <link>
              <linkclipref>clipitem-718</linkclipref>
              <mediatype>audio</mediatype>
              <trackindex>3</trackindex>
              <clipindex>1</clipindex>
              <groupindex>1</groupindex>
            </link>
            <link>
              <linkclipref>clipitem-719</linkclipref>
              <mediatype>audio</mediatype>
              <trackindex>4</trackindex>
              <clipindex>1</clipindex>
              <groupindex>1</groupindex>
            </link>
            <link>
              <linkclipref>clipitem-720</linkclipref>
              <mediatype>audio</mediatype>
              <trackindex>5</trackindex>
              <clipindex>1</clipindex>
              <groupindex>1</groupindex>
            </link>
            <link>
              <linkclipref>clipitem-721</linkclipref>
              <mediatype>audio</mediatype>
              <trackindex>6</trackindex>
              <clipindex>1</clipindex>
              <groupindex>1</groupindex>
            </link>
          </clipitem>
          <clipitem id="clipitem-728" premiereChannelType="Stereo">
            <masterclipid>masterclip-3</masterclipid>
            <name>2023-03-30 21-15-31艾许决赛圈2V6 8KCC.mp4</name>
            <enabled>TRUE</enabled>
            <rate>
              <timebase>60</timebase>
              <ntsc>FALSE</ntsc>
            </rate>
            <start>14385</start>
            <end>14465</end>
            <in>48819</in>
            <out>48899</out>
            <file id="file-3"/>
            <sourcetrack>
              <mediatype>audio</mediatype>
              <trackindex>3</trackindex>
            </sourcetrack>
            <link>
              <linkclipref>clipitem-722</linkclipref>
              <mediatype>video</mediatype>
              <trackindex>1</trackindex>
              <clipindex>1</clipindex>
            </link>
            <link>
              <linkclipref>clipitem-723</linkclipref>
              <mediatype>audio</mediatype>
              <trackindex>1</trackindex>
              <clipindex>1</clipindex>
              <groupindex>1</groupindex>
            </link>
            <link>
              <linkclipref>clipitem-724</linkclipref>
              <mediatype>audio</mediatype>
              <trackindex>2</trackindex>
              <clipindex>1</clipindex>
              <groupindex>1</groupindex>
            </link>
            <link>
              <linkclipref>clipitem-725</linkclipref>
              <mediatype>audio</mediatype>
              <trackindex>3</trackindex>
              <clipindex>1</clipindex>
              <groupindex>1</groupindex>
            </link>
            <link>
              <linkclipref>clipitem-726</linkclipref>
              <mediatype>audio</mediatype>
              <trackindex>4</trackindex>
              <clipindex>1</clipindex>
              <groupindex>1</groupindex>
            </link>
            <link>
              <linkclipref>clipitem-727</linkclipref>
              <mediatype>audio</mediatype>
              <trackindex>5</trackindex>
              <clipindex>1</clipindex>
              <groupindex>1</groupindex>
            </link>
            <link>
              <linkclipref>clipitem-728</linkclipref>
              <mediatype>audio</mediatype>
              <trackindex>6</trackindex>
              <clipindex>1</clipindex>
              <groupindex>1</groupindex>
            </link>
          </clipitem>
          <clipitem id="clipitem-735" premiereChannelType="Stereo">
            <masterclipid>masterclip-3</masterclipid>
            <name>2023-03-30 21-15-31艾许决赛圈2V6 8KCC.mp4</name>
            <enabled>TRUE</enabled>
            <rate>
              <timebase>60</timebase>
              <ntsc>FALSE</ntsc>
            </rate>
            <start>14465</start>
            <end>14614</end>
            <in>67987</in>
            <out>68136</out>
            <file id="file-3"/>
            <sourcetrack>
              <mediatype>audio</mediatype>
              <trackindex>3</trackindex>
            </sourcetrack>
            <link>
              <linkclipref>clipitem-729</linkclipref>
              <mediatype>video</mediatype>
              <trackindex>1</trackindex>
              <clipindex>1</clipindex>
            </link>
            <link>
              <linkclipref>clipitem-730</linkclipref>
              <mediatype>audio</mediatype>
              <trackindex>1</trackindex>
              <clipindex>1</clipindex>
              <groupindex>1</groupindex>
            </link>
            <link>
              <linkclipref>clipitem-731</linkclipref>
              <mediatype>audio</mediatype>
              <trackindex>2</trackindex>
              <clipindex>1</clipindex>
              <groupindex>1</groupindex>
            </link>
            <link>
              <linkclipref>clipitem-732</linkclipref>
              <mediatype>audio</mediatype>
              <trackindex>3</trackindex>
              <clipindex>1</clipindex>
              <groupindex>1</groupindex>
            </link>
            <link>
              <linkclipref>clipitem-733</linkclipref>
              <mediatype>audio</mediatype>
              <trackindex>4</trackindex>
              <clipindex>1</clipindex>
              <groupindex>1</groupindex>
            </link>
            <link>
              <linkclipref>clipitem-734</linkclipref>
              <mediatype>audio</mediatype>
              <trackindex>5</trackindex>
              <clipindex>1</clipindex>
              <groupindex>1</groupindex>
            </link>
            <link>
              <linkclipref>clipitem-735</linkclipref>
              <mediatype>audio</mediatype>
              <trackindex>6</trackindex>
              <clipindex>1</clipindex>
              <groupindex>1</groupindex>
            </link>
          </clipitem>
          <clipitem id="clipitem-742" premiereChannelType="Stereo">
            <masterclipid>masterclip-3</masterclipid>
            <name>2023-03-30 21-15-31艾许决赛圈2V6 8KCC.mp4</name>
            <enabled>TRUE</enabled>
            <rate>
              <timebase>60</timebase>
              <ntsc>FALSE</ntsc>
            </rate>
            <start>14614</start>
            <end>14702</end>
            <in>69856</in>
            <out>69944</out>
            <file id="file-3"/>
            <sourcetrack>
              <mediatype>audio</mediatype>
              <trackindex>3</trackindex>
            </sourcetrack>
            <link>
              <linkclipref>clipitem-736</linkclipref>
              <mediatype>video</mediatype>
              <trackindex>1</trackindex>
              <clipindex>1</clipindex>
            </link>
            <link>
              <linkclipref>clipitem-737</linkclipref>
              <mediatype>audio</mediatype>
              <trackindex>1</trackindex>
              <clipindex>1</clipindex>
              <groupindex>1</groupindex>
            </link>
            <link>
              <linkclipref>clipitem-738</linkclipref>
              <mediatype>audio</mediatype>
              <trackindex>2</trackindex>
              <clipindex>1</clipindex>
              <groupindex>1</groupindex>
            </link>
            <link>
              <linkclipref>clipitem-739</linkclipref>
              <mediatype>audio</mediatype>
              <trackindex>3</trackindex>
              <clipindex>1</clipindex>
              <groupindex>1</groupindex>
            </link>
            <link>
              <linkclipref>clipitem-740</linkclipref>
              <mediatype>audio</mediatype>
              <trackindex>4</trackindex>
              <clipindex>1</clipindex>
              <groupindex>1</groupindex>
            </link>
            <link>
              <linkclipref>clipitem-741</linkclipref>
              <mediatype>audio</mediatype>
              <trackindex>5</trackindex>
              <clipindex>1</clipindex>
              <groupindex>1</groupindex>
            </link>
            <link>
              <linkclipref>clipitem-742</linkclipref>
              <mediatype>audio</mediatype>
              <trackindex>6</trackindex>
              <clipindex>1</clipindex>
              <groupindex>1</groupindex>
            </link>
          </clipitem>
          <clipitem id="clipitem-749" premiereChannelType="Stereo">
            <masterclipid>masterclip-3</masterclipid>
            <name>2023-03-30 21-15-31艾许决赛圈2V6 8KCC.mp4</name>
            <enabled>TRUE</enabled>
            <rate>
              <timebase>60</timebase>
              <ntsc>FALSE</ntsc>
            </rate>
            <start>14702</start>
            <end>14790</end>
            <in>69984</in>
            <out>70072</out>
            <file id="file-3"/>
            <sourcetrack>
              <mediatype>audio</mediatype>
              <trackindex>3</trackindex>
            </sourcetrack>
            <link>
              <linkclipref>clipitem-743</linkclipref>
              <mediatype>video</mediatype>
              <trackindex>1</trackindex>
              <clipindex>1</clipindex>
            </link>
            <link>
              <linkclipref>clipitem-744</linkclipref>
              <mediatype>audio</mediatype>
              <trackindex>1</trackindex>
              <clipindex>1</clipindex>
              <groupindex>1</groupindex>
            </link>
            <link>
              <linkclipref>clipitem-745</linkclipref>
              <mediatype>audio</mediatype>
              <trackindex>2</trackindex>
              <clipindex>1</clipindex>
              <groupindex>1</groupindex>
            </link>
            <link>
              <linkclipref>clipitem-746</linkclipref>
              <mediatype>audio</mediatype>
              <trackindex>3</trackindex>
              <clipindex>1</clipindex>
              <groupindex>1</groupindex>
            </link>
            <link>
              <linkclipref>clipitem-747</linkclipref>
              <mediatype>audio</mediatype>
              <trackindex>4</trackindex>
              <clipindex>1</clipindex>
              <groupindex>1</groupindex>
            </link>
            <link>
              <linkclipref>clipitem-748</linkclipref>
              <mediatype>audio</mediatype>
              <trackindex>5</trackindex>
              <clipindex>1</clipindex>
              <groupindex>1</groupindex>
            </link>
            <link>
              <linkclipref>clipitem-749</linkclipref>
              <mediatype>audio</mediatype>
              <trackindex>6</trackindex>
              <clipindex>1</clipindex>
              <groupindex>1</groupindex>
            </link>
          </clipitem>
          <clipitem id="clipitem-756" premiereChannelType="Stereo">
            <masterclipid>masterclip-3</masterclipid>
            <name>2023-03-30 21-15-31艾许决赛圈2V6 8KCC.mp4</name>
            <enabled>TRUE</enabled>
            <rate>
              <timebase>60</timebase>
              <ntsc>FALSE</ntsc>
            </rate>
            <start>14790</start>
            <end>14971</end>
            <in>70185</in>
            <out>70366</out>
            <file id="file-3"/>
            <sourcetrack>
              <mediatype>audio</mediatype>
              <trackindex>3</trackindex>
            </sourcetrack>
            <link>
              <linkclipref>clipitem-750</linkclipref>
              <mediatype>video</mediatype>
              <trackindex>1</trackindex>
              <clipindex>1</clipindex>
            </link>
            <link>
              <linkclipref>clipitem-751</linkclipref>
              <mediatype>audio</mediatype>
              <trackindex>1</trackindex>
              <clipindex>1</clipindex>
              <groupindex>1</groupindex>
            </link>
            <link>
              <linkclipref>clipitem-752</linkclipref>
              <mediatype>audio</mediatype>
              <trackindex>2</trackindex>
              <clipindex>1</clipindex>
              <groupindex>1</groupindex>
            </link>
            <link>
              <linkclipref>clipitem-753</linkclipref>
              <mediatype>audio</mediatype>
              <trackindex>3</trackindex>
              <clipindex>1</clipindex>
              <groupindex>1</groupindex>
            </link>
            <link>
              <linkclipref>clipitem-754</linkclipref>
              <mediatype>audio</mediatype>
              <trackindex>4</trackindex>
              <clipindex>1</clipindex>
              <groupindex>1</groupindex>
            </link>
            <link>
              <linkclipref>clipitem-755</linkclipref>
              <mediatype>audio</mediatype>
              <trackindex>5</trackindex>
              <clipindex>1</clipindex>
              <groupindex>1</groupindex>
            </link>
            <link>
              <linkclipref>clipitem-756</linkclipref>
              <mediatype>audio</mediatype>
              <trackindex>6</trackindex>
              <clipindex>1</clipindex>
              <groupindex>1</groupindex>
            </link>
          </clipitem>
          <clipitem id="clipitem-763" premiereChannelType="Stereo">
            <masterclipid>masterclip-3</masterclipid>
            <name>2023-03-30 21-15-31艾许决赛圈2V6 8KCC.mp4</name>
            <enabled>TRUE</enabled>
            <rate>
              <timebase>60</timebase>
              <ntsc>FALSE</ntsc>
            </rate>
            <start>14971</start>
            <end>15120</end>
            <in>70493</in>
            <out>70642</out>
            <file id="file-3"/>
            <sourcetrack>
              <mediatype>audio</mediatype>
              <trackindex>3</trackindex>
            </sourcetrack>
            <link>
              <linkclipref>clipitem-757</linkclipref>
              <mediatype>video</mediatype>
              <trackindex>1</trackindex>
              <clipindex>1</clipindex>
            </link>
            <link>
              <linkclipref>clipitem-758</linkclipref>
              <mediatype>audio</mediatype>
              <trackindex>1</trackindex>
              <clipindex>1</clipindex>
              <groupindex>1</groupindex>
            </link>
            <link>
              <linkclipref>clipitem-759</linkclipref>
              <mediatype>audio</mediatype>
              <trackindex>2</trackindex>
              <clipindex>1</clipindex>
              <groupindex>1</groupindex>
            </link>
            <link>
              <linkclipref>clipitem-760</linkclipref>
              <mediatype>audio</mediatype>
              <trackindex>3</trackindex>
              <clipindex>1</clipindex>
              <groupindex>1</groupindex>
            </link>
            <link>
              <linkclipref>clipitem-761</linkclipref>
              <mediatype>audio</mediatype>
              <trackindex>4</trackindex>
              <clipindex>1</clipindex>
              <groupindex>1</groupindex>
            </link>
            <link>
              <linkclipref>clipitem-762</linkclipref>
              <mediatype>audio</mediatype>
              <trackindex>5</trackindex>
              <clipindex>1</clipindex>
              <groupindex>1</groupindex>
            </link>
            <link>
              <linkclipref>clipitem-763</linkclipref>
              <mediatype>audio</mediatype>
              <trackindex>6</trackindex>
              <clipindex>1</clipindex>
              <groupindex>1</groupindex>
            </link>
          </clipitem>
          <clipitem id="clipitem-770" premiereChannelType="Stereo">
            <masterclipid>masterclip-3</masterclipid>
            <name>2023-03-30 21-15-31艾许决赛圈2V6 8KCC.mp4</name>
            <enabled>TRUE</enabled>
            <rate>
              <timebase>60</timebase>
              <ntsc>FALSE</ntsc>
            </rate>
            <start>15120</start>
            <end>15197</end>
            <in>70712</in>
            <out>70789</out>
            <file id="file-3"/>
            <sourcetrack>
              <mediatype>audio</mediatype>
              <trackindex>3</trackindex>
            </sourcetrack>
            <link>
              <linkclipref>clipitem-764</linkclipref>
              <mediatype>video</mediatype>
              <trackindex>1</trackindex>
              <clipindex>1</clipindex>
            </link>
            <link>
              <linkclipref>clipitem-765</linkclipref>
              <mediatype>audio</mediatype>
              <trackindex>1</trackindex>
              <clipindex>1</clipindex>
              <groupindex>1</groupindex>
            </link>
            <link>
              <linkclipref>clipitem-766</linkclipref>
              <mediatype>audio</mediatype>
              <trackindex>2</trackindex>
              <clipindex>1</clipindex>
              <groupindex>1</groupindex>
            </link>
            <link>
              <linkclipref>clipitem-767</linkclipref>
              <mediatype>audio</mediatype>
              <trackindex>3</trackindex>
              <clipindex>1</clipindex>
              <groupindex>1</groupindex>
            </link>
            <link>
              <linkclipref>clipitem-768</linkclipref>
              <mediatype>audio</mediatype>
              <trackindex>4</trackindex>
              <clipindex>1</clipindex>
              <groupindex>1</groupindex>
            </link>
            <link>
              <linkclipref>clipitem-769</linkclipref>
              <mediatype>audio</mediatype>
              <trackindex>5</trackindex>
              <clipindex>1</clipindex>
              <groupindex>1</groupindex>
            </link>
            <link>
              <linkclipref>clipitem-770</linkclipref>
              <mediatype>audio</mediatype>
              <trackindex>6</trackindex>
              <clipindex>1</clipindex>
              <groupindex>1</groupindex>
            </link>
          </clipitem>
          <clipitem id="clipitem-777" premiereChannelType="Stereo">
            <masterclipid>masterclip-3</masterclipid>
            <name>2023-03-30 21-15-31艾许决赛圈2V6 8KCC.mp4</name>
            <enabled>TRUE</enabled>
            <rate>
              <timebase>60</timebase>
              <ntsc>FALSE</ntsc>
            </rate>
            <start>15197</start>
            <end>15364</end>
            <in>70867</in>
            <out>71034</out>
            <file id="file-3"/>
            <sourcetrack>
              <mediatype>audio</mediatype>
              <trackindex>3</trackindex>
            </sourcetrack>
            <link>
              <linkclipref>clipitem-771</linkclipref>
              <mediatype>video</mediatype>
              <trackindex>1</trackindex>
              <clipindex>1</clipindex>
            </link>
            <link>
              <linkclipref>clipitem-772</linkclipref>
              <mediatype>audio</mediatype>
              <trackindex>1</trackindex>
              <clipindex>1</clipindex>
              <groupindex>1</groupindex>
            </link>
            <link>
              <linkclipref>clipitem-773</linkclipref>
              <mediatype>audio</mediatype>
              <trackindex>2</trackindex>
              <clipindex>1</clipindex>
              <groupindex>1</groupindex>
            </link>
            <link>
              <linkclipref>clipitem-774</linkclipref>
              <mediatype>audio</mediatype>
              <trackindex>3</trackindex>
              <clipindex>1</clipindex>
              <groupindex>1</groupindex>
            </link>
            <link>
              <linkclipref>clipitem-775</linkclipref>
              <mediatype>audio</mediatype>
              <trackindex>4</trackindex>
              <clipindex>1</clipindex>
              <groupindex>1</groupindex>
            </link>
            <link>
              <linkclipref>clipitem-776</linkclipref>
              <mediatype>audio</mediatype>
              <trackindex>5</trackindex>
              <clipindex>1</clipindex>
              <groupindex>1</groupindex>
            </link>
            <link>
              <linkclipref>clipitem-777</linkclipref>
              <mediatype>audio</mediatype>
              <trackindex>6</trackindex>
              <clipindex>1</clipindex>
              <groupindex>1</groupindex>
            </link>
          </clipitem>
          <clipitem id="clipitem-784" premiereChannelType="Stereo">
            <masterclipid>masterclip-3</masterclipid>
            <name>2023-03-30 21-15-31艾许决赛圈2V6 8KCC.mp4</name>
            <enabled>TRUE</enabled>
            <rate>
              <timebase>60</timebase>
              <ntsc>FALSE</ntsc>
            </rate>
            <start>15364</start>
            <end>15429</end>
            <in>72138</in>
            <out>72203</out>
            <file id="file-3"/>
            <sourcetrack>
              <mediatype>audio</mediatype>
              <trackindex>3</trackindex>
            </sourcetrack>
            <link>
              <linkclipref>clipitem-778</linkclipref>
              <mediatype>video</mediatype>
              <trackindex>1</trackindex>
              <clipindex>1</clipindex>
            </link>
            <link>
              <linkclipref>clipitem-779</linkclipref>
              <mediatype>audio</mediatype>
              <trackindex>1</trackindex>
              <clipindex>1</clipindex>
              <groupindex>1</groupindex>
            </link>
            <link>
              <linkclipref>clipitem-780</linkclipref>
              <mediatype>audio</mediatype>
              <trackindex>2</trackindex>
              <clipindex>1</clipindex>
              <groupindex>1</groupindex>
            </link>
            <link>
              <linkclipref>clipitem-781</linkclipref>
              <mediatype>audio</mediatype>
              <trackindex>3</trackindex>
              <clipindex>1</clipindex>
              <groupindex>1</groupindex>
            </link>
            <link>
              <linkclipref>clipitem-782</linkclipref>
              <mediatype>audio</mediatype>
              <trackindex>4</trackindex>
              <clipindex>1</clipindex>
              <groupindex>1</groupindex>
            </link>
            <link>
              <linkclipref>clipitem-783</linkclipref>
              <mediatype>audio</mediatype>
              <trackindex>5</trackindex>
              <clipindex>1</clipindex>
              <groupindex>1</groupindex>
            </link>
            <link>
              <linkclipref>clipitem-784</linkclipref>
              <mediatype>audio</mediatype>
              <trackindex>6</trackindex>
              <clipindex>1</clipindex>
              <groupindex>1</groupindex>
            </link>
          </clipitem>
          <clipitem id="clipitem-791" premiereChannelType="Stereo">
            <masterclipid>masterclip-3</masterclipid>
            <name>2023-03-30 21-15-31艾许决赛圈2V6 8KCC.mp4</name>
            <enabled>TRUE</enabled>
            <rate>
              <timebase>60</timebase>
              <ntsc>FALSE</ntsc>
            </rate>
            <start>15429</start>
            <end>15575</end>
            <in>72355</in>
            <out>72501</out>
            <file id="file-3"/>
            <sourcetrack>
              <mediatype>audio</mediatype>
              <trackindex>3</trackindex>
            </sourcetrack>
            <link>
              <linkclipref>clipitem-785</linkclipref>
              <mediatype>video</mediatype>
              <trackindex>1</trackindex>
              <clipindex>1</clipindex>
            </link>
            <link>
              <linkclipref>clipitem-786</linkclipref>
              <mediatype>audio</mediatype>
              <trackindex>1</trackindex>
              <clipindex>1</clipindex>
              <groupindex>1</groupindex>
            </link>
            <link>
              <linkclipref>clipitem-787</linkclipref>
              <mediatype>audio</mediatype>
              <trackindex>2</trackindex>
              <clipindex>1</clipindex>
              <groupindex>1</groupindex>
            </link>
            <link>
              <linkclipref>clipitem-788</linkclipref>
              <mediatype>audio</mediatype>
              <trackindex>3</trackindex>
              <clipindex>1</clipindex>
              <groupindex>1</groupindex>
            </link>
            <link>
              <linkclipref>clipitem-789</linkclipref>
              <mediatype>audio</mediatype>
              <trackindex>4</trackindex>
              <clipindex>1</clipindex>
              <groupindex>1</groupindex>
            </link>
            <link>
              <linkclipref>clipitem-790</linkclipref>
              <mediatype>audio</mediatype>
              <trackindex>5</trackindex>
              <clipindex>1</clipindex>
              <groupindex>1</groupindex>
            </link>
            <link>
              <linkclipref>clipitem-791</linkclipref>
              <mediatype>audio</mediatype>
              <trackindex>6</trackindex>
              <clipindex>1</clipindex>
              <groupindex>1</groupindex>
            </link>
          </clipitem>
          <clipitem id="clipitem-798" premiereChannelType="Stereo">
            <masterclipid>masterclip-3</masterclipid>
            <name>2023-03-30 21-15-31艾许决赛圈2V6 8KCC.mp4</name>
            <enabled>TRUE</enabled>
            <rate>
              <timebase>60</timebase>
              <ntsc>FALSE</ntsc>
            </rate>
            <start>15575</start>
            <end>15661</end>
            <in>72584</in>
            <out>72670</out>
            <file id="file-3"/>
            <sourcetrack>
              <mediatype>audio</mediatype>
              <trackindex>3</trackindex>
            </sourcetrack>
            <link>
              <linkclipref>clipitem-792</linkclipref>
              <mediatype>video</mediatype>
              <trackindex>1</trackindex>
              <clipindex>1</clipindex>
            </link>
            <link>
              <linkclipref>clipitem-793</linkclipref>
              <mediatype>audio</mediatype>
              <trackindex>1</trackindex>
              <clipindex>1</clipindex>
              <groupindex>1</groupindex>
            </link>
            <link>
              <linkclipref>clipitem-794</linkclipref>
              <mediatype>audio</mediatype>
              <trackindex>2</trackindex>
              <clipindex>1</clipindex>
              <groupindex>1</groupindex>
            </link>
            <link>
              <linkclipref>clipitem-795</linkclipref>
              <mediatype>audio</mediatype>
              <trackindex>3</trackindex>
              <clipindex>1</clipindex>
              <groupindex>1</groupindex>
            </link>
            <link>
              <linkclipref>clipitem-796</linkclipref>
              <mediatype>audio</mediatype>
              <trackindex>4</trackindex>
              <clipindex>1</clipindex>
              <groupindex>1</groupindex>
            </link>
            <link>
              <linkclipref>clipitem-797</linkclipref>
              <mediatype>audio</mediatype>
              <trackindex>5</trackindex>
              <clipindex>1</clipindex>
              <groupindex>1</groupindex>
            </link>
            <link>
              <linkclipref>clipitem-798</linkclipref>
              <mediatype>audio</mediatype>
              <trackindex>6</trackindex>
              <clipindex>1</clipindex>
              <groupindex>1</groupindex>
            </link>
          </clipitem>
          <enabled>TRUE</enabled>
          <locked>FALSE</locked>
          <outputchannelindex>2</outputchannelindex>
        </track>
      </audio>
    </media>
    <timecode>
      <rate>
        <timebase>60</timebase>
        <ntsc>FALSE</ntsc>
      </rate>
      <string>00:00:00:00</string>
      <frame>0</frame>
      <displayformat>NDF</displayformat>
    </timecode>
  </sequence>
</xmeml>
